<svg id="Layer_1" data-name="Layer 1" xmlns="http://www.w3.org/2000/svg" xmlns:xlink="http://www.w3.org/1999/xlink" viewBox="0 0 495.2 115.8"><defs><style>.cls-1{fill:url(#linear-gradient);}.cls-2{fill:url(#linear-gradient-2);}.cls-3{fill:url(#linear-gradient-3);}.cls-4{fill:url(#linear-gradient-4);}.cls-5{fill:#272a2a;}</style><linearGradient id="linear-gradient" x1="66.98" y1="58.92" x2="148.87" y2="140.8" gradientUnits="userSpaceOnUse"><stop offset="0" stop-color="#33596a"/><stop offset="1" stop-color="#15c1ce"/></linearGradient><linearGradient id="linear-gradient-2" x1="97.94" y1="131.5" x2="159.69" y2="69.75" xlink:href="#linear-gradient"/><linearGradient id="linear-gradient-3" x1="131.7" y1="103.7" x2="62.05" y2="63.5" xlink:href="#linear-gradient"/><linearGradient id="linear-gradient-4" x1="58.88" y1="87.81" x2="130.35" y2="159.28" xlink:href="#linear-gradient"/></defs><title>1</title><path class="cls-1" d="M124.8,44.4a30.9,30.9,0,0,1,4.2,2,30.8,30.8,0,0,0-4.2-2,57.9,57.9,0,0,0-73.2,68.6h0a57.9,57.9,0,0,0,95.9,29.2,31,31,0,0,1-10.9,5.6,31.1,31.1,0,0,0,7.2-3,30.7,30.7,0,0,0,3.8-2.6A57.9,57.9,0,0,0,124.8,44.4ZM51.3,110.7q0.1,1.1.3,2.3C51.4,112.2,51.3,111.4,51.3,110.7Zm-0.1-2.3a30.9,30.9,0,0,1,2.8-12.8,30.9,30.9,0,0,0-2.8,12.8c0,0.1,0,.3,0,0.4S51.2,108.5,51.2,108.4ZM61.3,85.4a30.9,30.9,0,0,0-6.7,8.8,30.9,30.9,0,0,1,6.7-8.8l2.3-1.9Zm3.5-2.8a30.9,30.9,0,0,1,17.3-5.3h0A30.9,30.9,0,0,0,64.8,82.6Zm31.1-2,2.9,1.6,30.6,17.6h0l-1.7.9L97.2,118.4c0-.6,0-1.2,0-1.9V81.3h0ZM84.3,77.4h0Zm2.1,0.2,0.9,0.2ZM88.5,78l1,0.2Zm2,0.5,1.1,0.3Zm1.9,0.6,1.1,0.4Zm1.8,0.7,1.1,0.5Zm40.9,15.7-0.7.7Zm-1.5,1.4-0.8.6ZM132,98.1l-0.8.6Zm-1.7,1.2-0.8.5ZM97.2,118.5c0,0.3,0,.7,0,1S97.2,118.9,97.2,118.5Zm4.2,14.9h0A30.9,30.9,0,0,0,112,144.3,30.9,30.9,0,0,1,101.4,133.4Zm-4-12.9v0Zm0.2,2,0.2,1Zm0.4,2,0.2,1Zm0.5,2,0.3,0.9Zm0.7,2.1,0.3,0.8Zm0.9,2.1,0.3,0.7Zm27.5,18.1h0Zm4.5-.2,3-.5Zm3.9-54,0.6-.7Zm1.4-1.6,0.5-.7Zm1.4-1.8,0.4-.6Z" transform="translate(-50 -42)"/><path class="cls-2" d="M124.8,44.4a31,31,0,0,1,3,56.4L97.2,118.4a31,31,0,0,0,50.3,23.7A57.9,57.9,0,0,0,124.8,44.4Z" transform="translate(-50 -42)"/><path class="cls-3" d="M50,99.9a58.1,58.1,0,0,0,1.5,13.2A31,31,0,0,1,98.8,82.2l30.6,17.6h0a31,31,0,0,0-4.7-55.4A57.9,57.9,0,0,0,50,99.9Z" transform="translate(-50 -42)"/><path class="cls-4" d="M143.7,144.7a31,31,0,0,1-46.5-28.2V81.3h0a31,31,0,0,0-45.7,31.7,57.9,57.9,0,0,0,95.9,29.2A30.8,30.8,0,0,1,143.7,144.7Z" transform="translate(-50 -42)"/><path class="cls-5" d="M243.7,63.4V74.7H221.4v62.9H207.6V74.7H185.1V63.4h58.6Z" transform="translate(-50 -42)"/><path class="cls-5" d="M255.2,84.9v33.5q0,4.8,2.2,7.5t6.7,2.6a13.4,13.4,0,0,0,6.2-1.5,21.5,21.5,0,0,0,5.4-4V84.9h12.7v52.7h-7.8a3.1,3.1,0,0,1-3.2-2.3l-0.9-4.2a36.8,36.8,0,0,1-3.4,3,20.4,20.4,0,0,1-3.7,2.3,20.8,20.8,0,0,1-4.3,1.5,21.4,21.4,0,0,1-4.9.5,18.7,18.7,0,0,1-7.6-1.5,15.3,15.3,0,0,1-5.6-4.1,18.1,18.1,0,0,1-3.4-6.3,26.8,26.8,0,0,1-1.2-8.1V84.9h12.7Z" transform="translate(-50 -42)"/><path class="cls-5" d="M319.2,138.4q-6.8,0-10.5-3.9T305,123.8V94.4h-5.3a2.4,2.4,0,0,1-2.5-2.7v-5l8.5-1.4L308.3,71a2.5,2.5,0,0,1,1-1.6,3,3,0,0,1,1.9-.6h6.6V85.4h13.9v9H317.7V123a5.6,5.6,0,0,0,1.2,3.9,4.2,4.2,0,0,0,3.3,1.4,6,6,0,0,0,2-.3l1.4-.6,1.1-.6,0.9-.3a1.5,1.5,0,0,1,.9.3l0.8,0.8,3.8,6.2a19.2,19.2,0,0,1-6.4,3.5A23.7,23.7,0,0,1,319.2,138.4Z" transform="translate(-50 -42)"/><path class="cls-5" d="M363.4,84.1a25.6,25.6,0,0,1,9.2,1.6,20.1,20.1,0,0,1,7.2,4.6,21.3,21.3,0,0,1,4.7,7.5,28.3,28.3,0,0,1,1.7,10.1,18.4,18.4,0,0,1-.1,2.4,3.8,3.8,0,0,1-.5,1.5,1.9,1.9,0,0,1-.9.8l-1.4.2H350.7q0.6,8.1,4.4,11.9a13.6,13.6,0,0,0,10.1,3.8,17.4,17.4,0,0,0,5.3-.7,24.9,24.9,0,0,0,3.9-1.6l2.9-1.6a4.9,4.9,0,0,1,2.4-.7,2.7,2.7,0,0,1,1.3.3,2.9,2.9,0,0,1,1,.9l3.7,4.6a21.1,21.1,0,0,1-4.7,4.1,26.5,26.5,0,0,1-5.5,2.7,29.9,29.9,0,0,1-5.8,1.4,41.6,41.6,0,0,1-5.7.4,28.2,28.2,0,0,1-10.2-1.8,22.8,22.8,0,0,1-8.2-5.4,25.3,25.3,0,0,1-5.5-8.8,34.2,34.2,0,0,1-2-12.2,29.1,29.1,0,0,1,1.7-10.1,24.4,24.4,0,0,1,5-8.3,23.6,23.6,0,0,1,8-5.6A26.2,26.2,0,0,1,363.4,84.1Zm0.3,9.1q-5.5,0-8.7,3.1a15.4,15.4,0,0,0-4,8.9h23.8a15.8,15.8,0,0,0-.7-4.6,10.7,10.7,0,0,0-2.1-3.8,9.7,9.7,0,0,0-3.5-2.6A11.9,11.9,0,0,0,363.7,93.2Z" transform="translate(-50 -42)"/><path class="cls-5" d="M410,61.3v76.3H397.4V61.3H410Z" transform="translate(-50 -42)"/><path class="cls-5" d="M437.9,61.3v76.3H425.2V61.3h12.7Z" transform="translate(-50 -42)"/><path class="cls-5" d="M463.8,84.9v33.5q0,4.8,2.2,7.5t6.7,2.6a13.4,13.4,0,0,0,6.2-1.5,21.6,21.6,0,0,0,5.4-4V84.9H497v52.7h-7.8a3.1,3.1,0,0,1-3.2-2.3l-0.9-4.2a36.7,36.7,0,0,1-3.4,3,20.4,20.4,0,0,1-3.7,2.3,20.9,20.9,0,0,1-4.3,1.5,21.3,21.3,0,0,1-4.9.5,18.7,18.7,0,0,1-7.6-1.5,15.3,15.3,0,0,1-5.6-4.1,18.1,18.1,0,0,1-3.4-6.3,26.8,26.8,0,0,1-1.2-8.1V84.9h12.7Z" transform="translate(-50 -42)"/><path class="cls-5" d="M541.8,95.2a3.4,3.4,0,0,1-1.1,1.2,2.8,2.8,0,0,1-1.4.3,4.5,4.5,0,0,1-2-.5L534.9,95l-3.2-1.2a15.2,15.2,0,0,0-4.2-.5,9.7,9.7,0,0,0-5.9,1.6,4.9,4.9,0,0,0-2.2,4.2,4,4,0,0,0,1.1,2.8,9.9,9.9,0,0,0,2.9,2,28.6,28.6,0,0,0,4.1,1.6l4.7,1.5,4.7,1.9a16.5,16.5,0,0,1,4.1,2.7,12.4,12.4,0,0,1,2.9,3.9,12.3,12.3,0,0,1,1.1,5.4,17.5,17.5,0,0,1-1.4,7,15.4,15.4,0,0,1-4.1,5.5,19,19,0,0,1-6.6,3.6,30.7,30.7,0,0,1-14.3.8,31.3,31.3,0,0,1-5-1.4,27.5,27.5,0,0,1-4.4-2.1,21.4,21.4,0,0,1-3.6-2.6l2.9-4.8a4.1,4.1,0,0,1,1.3-1.3,3.7,3.7,0,0,1,2-.5,4.1,4.1,0,0,1,2.2.7l2.4,1.4a21.8,21.8,0,0,0,3.3,1.4,14.3,14.3,0,0,0,4.7.7,12.3,12.3,0,0,0,3.9-.5,8.2,8.2,0,0,0,2.7-1.4,5.3,5.3,0,0,0,1.5-2,6.1,6.1,0,0,0,.5-2.4,4.3,4.3,0,0,0-1.1-3,9.7,9.7,0,0,0-2.9-2.1,28.3,28.3,0,0,0-4.2-1.6l-4.8-1.5a44.2,44.2,0,0,1-4.8-1.9,16.3,16.3,0,0,1-4.2-2.8,12.7,12.7,0,0,1-2.9-4.2,14.5,14.5,0,0,1-1.1-6,15.2,15.2,0,0,1,1.3-6.2,14.5,14.5,0,0,1,3.8-5.1,18.7,18.7,0,0,1,6.2-3.5,25.9,25.9,0,0,1,8.6-1.3,26.3,26.3,0,0,1,9.9,1.8,22.4,22.4,0,0,1,7.4,4.7Z" transform="translate(-50 -42)"/></svg>