<svg width="252px" height="85px" viewBox="0 0 252 85" version="1.1" xmlns="http://www.w3.org/2000/svg" xmlns:xlink="http://www.w3.org/1999/xlink"><g stroke="none" stroke-width="1" fill="none" fill-rule="evenodd"><g transform="translate(19.000000, 20.000000)"><path d="M60.3,41.2 C62.6,41.2 64.1,40.5 65.4,39.3 C65.6,39.1 65.8,38.8 65.8,38.4 C65.8,37.8 65.3,37.3 64.6,37.3 C64.3,37.3 64,37.4 63.9,37.6 C62.9,38.5 61.9,38.9 60.4,38.9 C57.7,38.9 55.8,36.7 55.8,33.9 C55.8,31.2 57.8,29 60.4,29 C61.7,29 62.8,29.5 63.7,30.3 C63.9,30.4 64.1,30.5 64.4,30.5 C65.1,30.5 65.6,30 65.6,29.3 C65.6,28.9 65.4,28.5 65.1,28.3 C63.9,27.4 62.5,26.7 60.3,26.7 C56.1,26.7 53.1,30 53.1,33.9 C53.2,38.1 56.2,41.2 60.3,41.2 Z M68.6,39.9 C68.6,40.6 69.1,41.1 69.8,41.1 C70.5,41.1 71,40.6 71,39.9 L71,36.1 L74.1,36.1 L77.5,40.4 C77.8,40.8 78.1,41 78.7,41 C79.3,41 79.9,40.5 79.9,39.9 C79.9,39.5 79.7,39.3 79.5,39 L76.8,35.6 C78.7,35 80,33.7 80,31.4 C80,30.2 79.6,29.1 78.8,28.4 C77.9,27.5 76.5,27 74.8,27 L69.8,27 C69.1,27 68.6,27.5 68.6,28.2 C68.6,28.2 68.6,39.9 68.6,39.9 Z M71,33.9 L71,29.2 L74.6,29.2 C76.4,29.2 77.5,30 77.5,31.5 C77.5,32.9 76.4,33.8 74.6,33.8 L71,33.8 L71,33.9 Z M87,39.9 C87,40.6 87.5,41.1 88.2,41.1 C88.9,41.1 89.4,40.6 89.4,39.9 L89.4,35.5 L94.2,29 C94.4,28.8 94.5,28.5 94.5,28.1 C94.5,27.4 94,26.9 93.3,26.9 C92.8,26.9 92.4,27.2 92.1,27.6 L88.1,33.2 L84.2,27.6 C83.9,27.2 83.5,26.9 83,26.9 C82.3,26.9 81.8,27.4 81.8,28.1 C81.8,28.4 81.9,28.7 82.1,29 L86.9,35.6 L87,39.9 Z M96.9,39.9 C96.9,40.6 97.4,41.1 98.1,41.1 C98.8,41.1 99.3,40.6 99.3,39.9 L99.3,36.5 L102.1,36.5 C105.2,36.5 107.7,34.9 107.7,31.7 C107.7,28.9 105.7,27 102.4,27 L98.1,27 C97.4,27 96.9,27.5 96.9,28.2 C96.9,28.2 96.9,39.9 96.9,39.9 Z M99.4,34.3 L99.4,29.3 L102.3,29.3 C104.1,29.3 105.3,30.2 105.3,31.8 C105.3,33.3 104.1,34.3 102.3,34.3 L99.4,34.3 Z M113.7,39.9 C113.7,40.6 114.3,41.1 114.9,41.1 C115.5,41.1 116.1,40.6 116.1,39.9 L116.1,29.3 L119.5,29.3 C120.1,29.3 120.6,28.8 120.6,28.2 C120.6,27.6 120.1,27.1 119.5,27.1 L110.2,27.1 C109.6,27.1 109.1,27.6 109.1,28.2 C109.1,28.8 109.6,29.3 110.2,29.3 L113.6,29.3 L113.6,39.9 L113.7,39.9 Z M129.9,41.2 C134.2,41.2 137.2,37.9 137.2,34 C137.2,30.1 134.2,26.8 129.9,26.8 C125.6,26.8 122.6,30.1 122.6,34 C122.6,38 125.6,41.2 129.9,41.2 Z M130,39 C127.2,39 125.2,36.8 125.2,34 C125.2,31.3 127.1,29.1 129.9,29.1 C132.7,29.1 134.7,31.4 134.7,34.1 C134.7,36.8 132.8,39 130,39 Z M140.3,39.9 C140.3,40.6 140.8,41.1 141.5,41.1 C142.2,41.1 142.7,40.6 142.7,39.9 L142.7,31 L149.9,40.3 C150.2,40.7 150.6,41 151.2,41 L151.3,41 C152,41 152.5,40.5 152.5,39.8 L152.5,28.1 C152.5,27.4 152,26.9 151.3,26.9 C150.6,26.9 150.1,27.4 150.1,28.1 L150.1,36.7 L143.1,27.6 C142.8,27.2 142.4,26.9 141.8,26.9 L141.5,26.9 C140.8,26.9 140.3,27.5 140.3,28.1 L140.3,39.9 Z M162.7,41.2 C167,41.2 170,37.9 170,34 C170,30.1 167,26.8 162.7,26.8 C158.4,26.8 155.4,30.1 155.4,34 C155.4,38 158.4,41.2 162.7,41.2 Z M162.8,39 C160,39 158,36.8 158,34 C158,31.3 159.9,29.1 162.7,29.1 C165.5,29.1 167.5,31.4 167.5,34.1 C167.5,36.8 165.6,39 162.8,39 Z M173.1,39.9 C173.1,40.6 173.6,41.1 174.3,41.1 C175,41.1 175.5,40.6 175.5,39.9 L175.5,31.5 L178.9,36.6 C179.2,37 179.5,37.2 179.9,37.2 C180.4,37.2 180.7,37 180.9,36.6 L184.3,31.5 L184.3,39.9 C184.3,40.6 184.9,41.1 185.5,41.1 C186.2,41.1 186.7,40.6 186.7,39.9 L186.7,28.2 C186.7,27.5 186.2,27 185.5,27 L185.2,27 C184.7,27 184.3,27.2 184.1,27.6 L179.8,34.3 L175.6,27.7 C175.4,27.3 175,27 174.5,27 L174.2,27 C173.5,27 173,27.6 173,28.2 L173,39.9 L173.1,39.9 Z M197.1,41.2 C201.4,41.2 204.4,37.9 204.4,34 C204.4,30.1 201.4,26.8 197.1,26.8 C192.8,26.8 189.8,30.1 189.8,34 C189.8,38 192.8,41.2 197.1,41.2 Z M197.1,39 C194.3,39 192.3,36.8 192.3,34 C192.3,31.3 194.2,29.1 197,29.1 C199.8,29.1 201.8,31.4 201.8,34.1 C201.9,36.8 199.9,39 197.1,39 Z M212.3,41.2 C215.2,41.2 217.3,39.6 217.3,37 C217.3,34.7 215.8,33.6 212.8,32.9 C210.1,32.3 209.5,31.8 209.5,30.7 C209.5,29.8 210.3,29 211.8,29 C212.9,29 213.9,29.4 215,30.1 C215.2,30.2 215.4,30.3 215.6,30.3 C216.2,30.3 216.8,29.8 216.8,29.2 C216.8,28.7 216.5,28.4 216.3,28.2 C215,27.4 213.6,26.9 211.9,26.9 C209.1,26.9 207.1,28.6 207.1,31 C207.1,33.6 208.8,34.5 211.8,35.2 C214.4,35.8 215,36.3 215,37.3 C215,38.3 214,39.1 212.5,39.1 C211,39.1 209.7,38.6 208.6,37.7 C208.4,37.6 208.2,37.5 207.9,37.5 C207.3,37.5 206.7,38 206.7,38.6 C206.7,39 206.9,39.3 207.2,39.5 C208.6,40.6 210.4,41.2 212.3,41.2 Z" fill="#FFFFFF" fill-rule="nonzero"></path><path d="M54.584,19.44 L54.584,9.44 C54.584,9.088 54.872,8.8 55.208,8.8 L58.776,8.8 C61.304,8.8 62.968,10.144 62.968,12.352 L62.968,12.384 C62.968,14.8 60.952,16.048 58.568,16.048 L55.848,16.048 L55.848,19.44 C55.848,19.792 55.56,20.08 55.208,20.08 C54.872,20.08 54.584,19.792 54.584,19.44 Z M55.848,14.896 L58.616,14.896 C60.472,14.896 61.688,13.904 61.688,12.432 L61.688,12.4 C61.688,10.8 60.488,9.968 58.68,9.968 L55.848,9.968 L55.848,14.896 Z M69.4322689,20.192 C66.9522689,20.192 65.1442689,18.24 65.1442689,15.904 L65.1442689,15.872 C65.1442689,13.536 66.9682689,11.552 69.4642689,11.552 C71.9442689,11.552 73.7682689,13.504 73.7682689,15.84 L73.7682689,15.872 C73.7682689,18.208 71.9282689,20.192 69.4322689,20.192 Z M69.4642689,19.088 C71.2562689,19.088 72.5042689,17.648 72.5042689,15.904 L72.5042689,15.872 C72.5042689,14.096 71.1762689,12.64 69.4322689,12.64 C67.6402689,12.64 66.4082689,14.096 66.4082689,15.84 L66.4082689,15.872 C66.4082689,17.648 67.7202689,19.088 69.4642689,19.088 Z M79.0165377,20.128 C78.7125377,20.128 78.4565377,19.936 78.3285377,19.568 L75.8165377,12.576 C75.7845377,12.48 75.7365377,12.352 75.7365377,12.24 C75.7365377,11.936 75.9925377,11.648 76.3605377,11.648 C76.6805377,11.648 76.8885377,11.856 76.9845377,12.16 L79.0645377,18.368 L81.1605377,12.144 C81.2565377,11.856 81.4485377,11.648 81.7685377,11.648 L81.8325377,11.648 C82.1685377,11.648 82.3765377,11.856 82.4725377,12.144 L84.5525377,18.368 L86.6645377,12.128 C86.7445377,11.872 86.9205377,11.648 87.2565377,11.648 C87.6085377,11.648 87.8645377,11.92 87.8645377,12.224 C87.8645377,12.336 87.8165377,12.464 87.7845377,12.56 L85.2565377,19.568 C85.1285377,19.936 84.8725377,20.128 84.5845377,20.128 L84.5365377,20.128 C84.2165377,20.128 83.9765377,19.936 83.8645377,19.568 L81.8005377,13.536 L79.7205377,19.568 C79.6085377,19.936 79.3685377,20.128 79.0485377,20.128 L79.0165377,20.128 Z M91.0968066,15.408 L96.4248066,15.408 C96.2968066,13.904 95.4328066,12.592 93.7848066,12.592 C92.3448066,12.592 91.2568066,13.792 91.0968066,15.408 Z M97.0968066,18.944 C96.3128066,19.696 95.3848066,20.192 93.9768066,20.192 C91.7048066,20.192 89.8488066,18.448 89.8488066,15.888 L89.8488066,15.856 C89.8488066,13.472 91.5288066,11.552 93.8168066,11.552 C96.2648066,11.552 97.6568066,13.552 97.6568066,15.744 C97.6568066,16.08 97.3848066,16.32 97.0808066,16.32 L91.0968066,16.32 C91.2728066,18.112 92.5368066,19.12 94.0088066,19.12 C95.0328066,19.12 95.7848066,18.72 96.3928066,18.16 C96.4888066,18.08 96.6008066,18.016 96.7448066,18.016 C97.0488066,18.016 97.2888066,18.256 97.2888066,18.544 C97.2888066,18.688 97.2248066,18.832 97.0968066,18.944 Z M100.505075,19.456 L100.505075,12.272 C100.505075,11.936 100.777075,11.648 101.113075,11.648 C101.465075,11.648 101.737075,11.92 101.737075,12.272 L101.737075,13.824 C102.345075,12.448 103.545075,11.616 104.585075,11.616 C104.953075,11.616 105.193075,11.888 105.193075,12.24 C105.193075,12.576 104.969075,12.816 104.649075,12.864 C103.049075,13.056 101.737075,14.256 101.737075,16.64 L101.737075,19.456 C101.737075,19.792 101.481075,20.08 101.129075,20.08 C100.777075,20.08 100.505075,19.808 100.505075,19.456 Z M108.041344,15.408 L113.369344,15.408 C113.241344,13.904 112.377344,12.592 110.729344,12.592 C109.289344,12.592 108.201344,13.792 108.041344,15.408 Z M114.041344,18.944 C113.257344,19.696 112.329344,20.192 110.921344,20.192 C108.649344,20.192 106.793344,18.448 106.793344,15.888 L106.793344,15.856 C106.793344,13.472 108.473344,11.552 110.761344,11.552 C113.209344,11.552 114.601344,13.552 114.601344,15.744 C114.601344,16.08 114.329344,16.32 114.025344,16.32 L108.041344,16.32 C108.217344,18.112 109.481344,19.12 110.953344,19.12 C111.977344,19.12 112.729344,18.72 113.337344,18.16 C113.433344,18.08 113.545344,18.016 113.689344,18.016 C113.993344,18.016 114.233344,18.256 114.233344,18.544 C114.233344,18.688 114.169344,18.832 114.041344,18.944 Z M125.321613,8.864 L125.321613,19.456 C125.321613,19.808 125.049613,20.08 124.713613,20.08 C124.361613,20.08 124.089613,19.808 124.089613,19.456 L124.089613,18.336 C123.417613,19.328 122.441613,20.176 120.921613,20.176 C118.937613,20.176 116.969613,18.608 116.969613,15.888 L116.969613,15.856 C116.969613,13.152 118.937613,11.552 120.921613,11.552 C122.457613,11.552 123.449613,12.384 124.089613,13.312 L124.089613,8.864 C124.089613,8.512 124.345613,8.24 124.697613,8.24 C125.049613,8.24 125.321613,8.512 125.321613,8.864 Z M121.145613,12.656 C119.545613,12.656 118.233613,13.84 118.233613,15.84 L118.233613,15.872 C118.233613,17.824 119.593613,19.072 121.145613,19.072 C122.681613,19.072 124.137613,17.776 124.137613,15.872 L124.137613,15.84 C124.137613,13.936 122.681613,12.656 121.145613,12.656 Z M134.218151,19.456 L134.218151,8.864 C134.218151,8.512 134.490151,8.24 134.826151,8.24 C135.178151,8.24 135.450151,8.512 135.450151,8.864 L135.450151,13.392 C136.122151,12.4 137.098151,11.552 138.618151,11.552 C140.602151,11.552 142.570151,13.12 142.570151,15.84 L142.570151,15.872 C142.570151,18.576 140.618151,20.176 138.618151,20.176 C137.082151,20.176 136.090151,19.344 135.450151,18.416 L135.450151,19.456 C135.450151,19.792 135.194151,20.08 134.842151,20.08 C134.490151,20.08 134.218151,19.792 134.218151,19.456 Z M138.394151,19.072 C139.994151,19.072 141.306151,17.888 141.306151,15.888 L141.306151,15.856 C141.306151,13.904 139.962151,12.656 138.394151,12.656 C136.858151,12.656 135.402151,13.952 135.402151,15.84 L135.402151,15.872 C135.402151,17.792 136.858151,19.072 138.394151,19.072 Z M146.37842,22.608 C145.83442,22.608 145.43442,22.512 145.01842,22.368 C144.82642,22.288 144.63442,22.128 144.63442,21.84 C144.63442,21.536 144.89042,21.312 145.16242,21.312 C145.27442,21.312 145.37042,21.344 145.46642,21.376 C145.70642,21.456 145.94642,21.52 146.36242,21.52 C147.13042,21.52 147.57842,21.056 148.02642,20.048 L148.09042,19.92 L144.63442,12.592 C144.58642,12.48 144.55442,12.368 144.55442,12.256 C144.55442,11.92 144.82642,11.648 145.17842,11.648 C145.51442,11.648 145.69042,11.856 145.80242,12.128 L148.68242,18.624 L151.24242,12.112 C151.33842,11.856 151.51442,11.648 151.83442,11.648 C152.17042,11.648 152.44242,11.92 152.44242,12.256 C152.44242,12.352 152.41042,12.464 152.37842,12.56 L149.14642,20.272 C148.42642,21.984 147.62642,22.608 146.37842,22.608 Z" fill="#FFFFFF"></path><g fill-rule="nonzero"><path d="M44.4,15.1 L39.7,15.1 C38.9,15.1 38.3,14.5 38.3,13.7 C38.3,12.9 38.9,12.3 39.7,12.3 L44.4,12.3 C45.2,12.3 45.8,12.9 45.8,13.7 C45.8,14.5 45.2,15.1 44.4,15.1" fill="#FFFFFF"></path><path d="M10.8,15.1 L6.2,15.1 C5.4,15.1 4.8,14.5 4.8,13.7 C4.8,12.9 5.4,12.3 6.2,12.3 L10.8,12.3 C11.6,12.3 12.2,12.9 12.2,13.7 C12.2,14.5 11.6,15.1 10.8,15.1" fill="#FFFFFF"></path><path d="M44.4,21.8 L39.7,21.8 C38.9,21.8 38.3,21.2 38.3,20.4 C38.3,19.6 38.9,19 39.7,19 L44.4,19 C45.2,19 45.8,19.6 45.8,20.4 C45.8,21.2 45.2,21.8 44.4,21.8" fill="#FFFFFF"></path><path d="M10.8,21.8 L6.2,21.8 C5.4,21.8 4.8,21.2 4.8,20.4 C4.8,19.6 5.4,19 6.2,19 L10.8,19 C11.6,19 12.2,19.6 12.2,20.4 C12.2,21.2 11.6,21.8 10.8,21.8" fill="#FFFFFF"></path><path d="M44.4,28.4 L39.7,28.4 C38.9,28.4 38.3,27.8 38.3,27 C38.3,26.2 38.9,25.6 39.7,25.6 L44.4,25.6 C45.2,25.6 45.8,26.2 45.8,27 C45.8,27.8 45.2,28.4 44.4,28.4" fill="#FFFFFF"></path><path d="M10.8,28.4 L6.2,28.4 C5.4,28.4 4.8,27.8 4.8,27 C4.8,26.2 5.4,25.6 6.2,25.6 L10.8,25.6 C11.6,25.6 12.2,26.2 12.2,27 C12.2,27.8 11.6,28.4 10.8,28.4" fill="#FFFFFF"></path><path d="M18.6,7.4 C17.8,7.4 17.2,6.8 17.2,6 L17.2,1.5 C17.2,0.7 17.8,0.1 18.6,0.1 C19.4,0.1 20,0.7 20,1.5 L20,6 C20,6.7 19.4,7.4 18.6,7.4" fill="#FFFFFF"></path><path d="M25.3,7.4 C24.5,7.4 23.9,6.8 23.9,6 L23.9,1.5 C23.9,0.7 24.5,0.1 25.3,0.1 C26.1,0.1 26.7,0.7 26.7,1.5 L26.7,6 C26.7,6.7 26.1,7.4 25.3,7.4" fill="#FFFFFF"></path><path d="M31.9,7.4 C31.1,7.4 30.5,6.8 30.5,6 L30.5,1.5 C30.5,0.7 31.1,0.1 31.9,0.1 C32.7,0.1 33.3,0.7 33.3,1.5 L33.3,6 C33.3,6.7 32.7,7.4 31.9,7.4" fill="#FFFFFF"></path><path d="M31.9,15.1 L18.6,15.1 C17.8,15.1 17.2,14.5 17.2,13.7 C17.2,12.9 17.8,12.3 18.6,12.3 L31.9,12.3 C32.7,12.3 33.3,12.9 33.3,13.7 C33.3,14.5 32.7,15.1 31.9,15.1" fill="#F93C3F"></path><path d="M31.9,21.8 L18.6,21.8 C17.8,21.8 17.2,21.2 17.2,20.4 C17.2,19.6 17.8,19 18.6,19 L31.9,19 C32.7,19 33.3,19.6 33.3,20.4 C33.3,21.2 32.7,21.8 31.9,21.8" fill="#F93C3F"></path><path d="M25.3,28.4 L18.6,28.4 C17.8,28.4 17.2,27.8 17.2,27 C17.2,26.2 17.8,25.6 18.6,25.6 L25.3,25.6 C26.1,25.6 26.7,26.2 26.7,27 C26.7,27.8 26.1,28.4 25.3,28.4" fill="#F93C3F"></path><g transform="translate(0.000000, 5.933600)" fill="#FFFFFF"><path d="M38,34.4 C38,37.6 35.4,40.2 32.2,40.2 C29,40.2 26.4,37.6 26.4,34.4 C26.4,31.2 29,28.6 32.2,28.6 C32.7,28.6 33.2,28.1 33.2,27.6 C33.2,27.1 32.7,26.6 32.2,26.6 L12.6,26.6 L12.6,3.6 C12.6,2.6 13.4,1.8 14.4,1.8 L36.3,1.8 C37.3,1.8 38.1,2.6 38.1,3.6 L38,34.4 Z M8.2,40.2 C5,40.2 2.4,37.6 2.4,34.4 C2.4,31.2 5,28.6 8.2,28.6 L27.2,28.6 C25.6,30 24.6,32 24.6,34.4 C24.6,36.8 25.6,38.7 27.2,40.2 L8.2,40.2 Z M36.2,0.1 L14.3,0.1 C12.3,0.1 10.6,1.8 10.6,3.8 L10.6,26.8 L8.2,26.8 C4,26.8 0.5,30.2 0.5,34.5 C0.5,38.8 3.9,42.2 8.2,42.2 L28,42.2 L32.3,42.2 C36.5,42.2 40,38.8 40,34.5 L40,3.8 C39.9,1.7 38.2,0.1 36.2,0.1 Z"></path></g></g></g></g></svg>