<svg id="Grid" xmlns="http://www.w3.org/2000/svg" viewBox="0 0 51 51"><defs><style>.cls-1{fill:none;stroke:#0084ae;stroke-linecap:round;stroke-linejoin:round;}</style></defs><title>dni1</title><rect class="cls-1" x="0.5" y="0.5" width="50" height="50" rx="25" ry="25"/><path class="cls-1" d="M473.3,5277.6a3.8,3.8,0,0,0,1.7-3.3c0-1.7-.5-3.1-2.7-3.1s-2.7,1.4-2.7,3.1a3.8,3.8,0,0,0,1.7,3.3,14.6,14.6,0,0,0-2.7.9,2.2,2.2,0,0,0-.2,2.4h7.9a2.3,2.3,0,0,0-.2-2.4A15.2,15.2,0,0,0,473.3,5277.6Z" transform="translate(-451.8 -5250.5)"/><line class="cls-1" x1="27.7" y1="23" x2="34.3" y2="23"/><line class="cls-1" x1="27.7" y1="24.8" x2="34.3" y2="24.8"/><line class="cls-1" x1="27.7" y1="26.6" x2="34.3" y2="26.6"/><line class="cls-1" x1="27.7" y1="28.4" x2="34.3" y2="28.4"/><rect class="cls-1" x="12.4" y="17.8" width="26.3" height="15.45" rx="2" ry="2"/></svg>