<svg id="Grid" xmlns="http://www.w3.org/2000/svg" viewBox="0 0 51 51"><defs><style>.cls-1{fill:none;stroke:#0084ae;stroke-linecap:round;stroke-linejoin:round;}</style></defs><title>icono documento</title><rect class="cls-1" x="0.5" y="0.5" width="50" height="50" rx="25" ry="25"/><path class="cls-1" d="M576.8,7005v18.2a0.7,0.7,0,0,1-.7.7H561.4a0.7,0.7,0,0,1-.7-0.7v-21.5a0.7,0.7,0,0,1,.7-0.7h11.4l0.5,0.2,3.2,3.3A0.7,0.7,0,0,1,576.8,7005Z" transform="translate(-543.2 -6986.9)"/><path class="cls-1" d="M576.8,7005.2h-3.3a0.9,0.9,0,0,1-.9-0.9v-3.4" transform="translate(-543.2 -6986.9)"/><line class="cls-1" x1="21.4" y1="21.9" x2="30.5" y2="21.9"/><line class="cls-1" x1="21.4" y1="24.9" x2="30.5" y2="24.9"/><line class="cls-1" x1="21.4" y1="27.9" x2="30.5" y2="27.9"/><line class="cls-1" x1="21.4" y1="30.9" x2="30.5" y2="30.9"/></svg>