<svg id="Grid" xmlns="http://www.w3.org/2000/svg" viewBox="0 0 316.5 238.1"><defs><style>.cls-1,.cls-5{fill:none;stroke-linecap:round;stroke-linejoin:round;}.cls-1{stroke:#ccc;stroke-dasharray:3;}.cls-2{fill:#0088b2;}.cls-3{fill:#989898;}.cls-4{font-size:9.7px;fill:#333;}.cls-4,.cls-6{font-family:Lato;}.cls-5{stroke:#989898;}.cls-6{font-size:12.35px;fill:#202428;font-style:italic;}.cls-7{letter-spacing:-1px;}</style></defs><title>grafico 1</title><line class="cls-1" x1="315.1" y1="119.1" x2="31.8" y2="119.1"/><path class="cls-2" d="M509.5,1040.3s-46.7-.6-70.8-1.7c-71.5-3.3-99.5-6-132.8-12.4s-53.1-11.9-65.2-35-12.1-132-12.1-132v186.7h281v-5.5Z" transform="translate(-194.4 -829.3)"/><line class="cls-1" x1="315.1" y1="23.1" x2="33.4" y2="23.1"/><path class="cls-3" d="M499.4,984.8" transform="translate(-194.4 -829.3)"/><text class="cls-4" transform="translate(18.9 220.8)">0</text><text class="cls-4" transform="translate(0 26.1)">100%</text><text class="cls-4" transform="translate(5.6 122.7)">50%</text><text class="cls-4" transform="translate(97.5 236.3)">3m</text><text class="cls-4" transform="translate(167.4 236.3)">6m</text><text class="cls-4" transform="translate(237.5 236.3)">9m</text><text class="cls-4" transform="translate(291.8 236.3)">1 año</text><line class="cls-5" x1="34.2" y1="216.5" x2="34.2" y2="24.2"/><polygon class="cls-3" points="38.2 27.5 37.5 28.2 34.2 24.6 30.8 28.2 30.1 27.5 34.2 23.1 38.2 27.5"/><line class="cls-5" x1="37.8" y1="119.1" x2="31.8" y2="119.1"/><text class="cls-6" transform="translate(279.2 10.6)">Ed<tspan class="cls-7" x="13.1" y="0">T</tspan><tspan x="18.5" y="0">ech</tspan></text><line class="cls-1" x1="103.8" y1="216.5" x2="103.8" y2="23.1"/><line class="cls-1" x1="174.2" y1="216.5" x2="174.2" y2="23.1"/><line class="cls-1" x1="244.3" y1="216.5" x2="244.3" y2="23.1"/><line class="cls-1" x1="315.1" y1="216.5" x2="315.1" y2="23.1"/><line class="cls-5" x1="315.4" y1="216.5" x2="34.2" y2="216.5"/><polygon class="cls-3" points="312.1 212.4 311.4 213.1 315 216.5 311.4 219.9 312.1 220.6 316.5 216.5 312.1 212.4"/><line class="cls-5" x1="174.2" y1="219.5" x2="174.2" y2="213.6"/><line class="cls-5" x1="103.8" y1="219.5" x2="103.8" y2="213.6"/><line class="cls-5" x1="244.3" y1="219.5" x2="244.3" y2="213.6"/></svg>