<svg id="Grid" xmlns="http://www.w3.org/2000/svg" viewBox="0 0 123.6 123.6"><defs><style>.cls-1{fill:#b4ecff;}.cls-2{fill:#007ca9;}.cls-3{fill:#7fcfff;}.cls-4{fill:#005680;}.cls-5{fill:#00adff;}</style></defs><title>crowdsale funds allocation</title><path class="cls-1" d="M1304.3,3898.3v-12.2a61.5,61.5,0,0,0-36,11.7l7.1,9.8A49.4,49.4,0,0,1,1304.3,3898.3Z" transform="translate(-1242.7 -3886.1)"/><path class="cls-2" d="M1275.5,3907.6l-7.1-9.8a61.9,61.9,0,0,0-22.7,31.1l11.5,3.7A49.8,49.8,0,0,1,1275.5,3907.6Z" transform="translate(-1242.7 -3886.1)"/><path class="cls-3" d="M1254.7,3948a49.6,49.6,0,0,1,2.6-15.8l-11.4-3.8a61.8,61.8,0,0,0,22.2,69.5l7.1-9.8A49.6,49.6,0,0,1,1254.7,3948Z" transform="translate(-1242.7 -3886.1)"/><path class="cls-4" d="M1304.4,3997.7a49.4,49.4,0,0,1-29.2-9.5l-7.1,9.8a61.8,61.8,0,0,0,72.7.1l-7.1-9.9A49.4,49.4,0,0,1,1304.4,3997.7Z" transform="translate(-1242.7 -3886.1)"/><path class="cls-5" d="M1304.5,3886.1h-0.2v12.2h0a49.7,49.7,0,0,1,29,90l7.1,9.9A61.8,61.8,0,0,0,1304.5,3886.1Z" transform="translate(-1242.7 -3886.1)"/></svg>