<?xml version="1.0" encoding="utf-8"?>
<!-- Generator: Adobe Illustrator 19.2.1, SVG Export Plug-In . SVG Version: 6.00 Build 0)  -->
<svg version="1.1" id="Layer_1" xmlns="http://www.w3.org/2000/svg" xmlns:xlink="http://www.w3.org/1999/xlink" x="0px" y="0px"
	 viewBox="0 0 353.2 331.7" enable-background="new 0 0 353.2 331.7" xml:space="preserve">
<g>
	<title>11</title>
	<line fill="none" stroke="#FFFFFF" stroke-miterlimit="10" x1="300.5" y1="103.6" x2="300.5" y2="106.1"/>
	
		<line fill="none" stroke="#FFFFFF" stroke-miterlimit="10" stroke-dasharray="4.94,2.96" x1="300.5" y1="109.1" x2="300.5" y2="281.4"/>
	<line fill="none" stroke="#FFFFFF" stroke-miterlimit="10" x1="300.5" y1="282.9" x2="300.5" y2="285.4"/>
	<line fill="none" stroke="#FFFFFF" stroke-miterlimit="10" x1="49.9" y1="103.6" x2="49.9" y2="106.1"/>
	
		<line fill="none" stroke="#FFFFFF" stroke-miterlimit="10" stroke-dasharray="4.94,2.96" x1="49.9" y1="109.1" x2="49.9" y2="281.4"/>
	<line fill="none" stroke="#FFFFFF" stroke-miterlimit="10" x1="49.9" y1="282.9" x2="49.9" y2="285.4"/>
	<circle fill="#FFFFFF" cx="50.4" cy="194.2" r="46.8"/>
	<g>
		<defs>
			<circle id="SVGID_1_" cx="50.5" cy="194.2" r="42.6"/>
		</defs>
		<clipPath id="SVGID_2_">
			<use xlink:href="#SVGID_1_"  overflow="visible"/>
		</clipPath>
		<g clip-path="url(#SVGID_2_)">
			<rect id="_Rectangle_" x="52.4" y="189.8" fill="#152430" width="29.7" height="58.6"/>
			<g id="_Group_">
				<g id="_Group_2">
					<rect id="_Rectangle_2" x="56.4" y="194.2" fill="#ECF0F1" width="5.7" height="7.6"/>
					<rect id="_Rectangle_3" x="64.5" y="194.2" fill="#ECF0F1" width="5.7" height="7.6"/>
					<rect id="_Rectangle_4" x="72.6" y="194.2" fill="#ECF0F1" width="5.7" height="7.6"/>
				</g>
				<g id="_Group_3">
					<rect id="_Rectangle_5" x="56.4" y="204.8" fill="#ECF0F1" width="5.7" height="7.6"/>
					<rect id="_Rectangle_6" x="64.5" y="204.8" fill="#ECF0F1" width="5.7" height="7.6"/>
					<rect id="_Rectangle_7" x="72.6" y="204.8" fill="#ECF0F1" width="5.7" height="7.6"/>
				</g>
				<g id="_Group_4">
					<rect id="_Rectangle_8" x="56.4" y="215.4" fill="#ECF0F1" width="5.7" height="7.6"/>
					<rect id="_Rectangle_9" x="64.5" y="215.4" fill="#ECF0F1" width="5.7" height="7.6"/>
					<rect id="_Rectangle_10" x="72.6" y="215.4" fill="#ECF0F1" width="5.7" height="7.6"/>
				</g>
				<g id="_Group_5">
					<rect id="_Rectangle_11" x="56.4" y="226" fill="#ECF0F1" width="5.7" height="7.6"/>
					<rect id="_Rectangle_12" x="64.5" y="226" fill="#ECF0F1" width="5.7" height="7.6"/>
					<rect id="_Rectangle_13" x="72.6" y="226" fill="#ECF0F1" width="5.7" height="7.6"/>
				</g>
				<g id="_Group_6">
					<rect id="_Rectangle_14" x="56.4" y="236.6" fill="#ECF0F1" width="5.7" height="7.6"/>
					<rect id="_Rectangle_15" x="64.5" y="236.6" fill="#ECF0F1" width="5.7" height="7.6"/>
					<rect id="_Rectangle_16" x="72.6" y="236.6" fill="#ECF0F1" width="5.7" height="7.6"/>
				</g>
			</g>
			<rect id="_Rectangle_17" x="45.8" y="189.8" opacity="0.15" enable-background="new    " width="21.8" height="56.4"/>
			<rect id="_Rectangle_18" x="21.6" y="169.9" fill="#0084B0" width="38.5" height="75.8"/>
			<g id="_Group_7">
				<g id="_Group_8">
					<rect id="_Rectangle_19" x="26.7" y="175.6" fill="#ECF0F1" width="7.3" height="9.9"/>
					<rect id="_Rectangle_20" x="37.2" y="175.6" fill="#ECF0F1" width="7.3" height="9.9"/>
					<rect id="_Rectangle_21" x="47.7" y="175.6" fill="#ECF0F1" width="7.3" height="9.9"/>
				</g>
				<g id="_Group_9">
					<rect id="_Rectangle_22" x="26.7" y="189.4" fill="#ECF0F1" width="7.3" height="9.9"/>
					<rect id="_Rectangle_23" x="37.2" y="189.4" fill="#ECF0F1" width="7.3" height="9.9"/>
					<rect id="_Rectangle_24" x="47.7" y="189.4" fill="#ECF0F1" width="7.3" height="9.9"/>
				</g>
				<g id="_Group_10">
					<rect id="_Rectangle_25" x="26.7" y="203.1" fill="#ECF0F1" width="7.3" height="9.9"/>
					<rect id="_Rectangle_26" x="37.2" y="203.1" fill="#ECF0F1" width="7.3" height="9.9"/>
					<rect id="_Rectangle_27" x="47.7" y="203.1" fill="#ECF0F1" width="7.3" height="9.9"/>
				</g>
				<g id="_Group_11">
					<rect id="_Rectangle_28" x="26.7" y="216.8" fill="#ECF0F1" width="7.3" height="9.9"/>
					<rect id="_Rectangle_29" x="37.2" y="216.8" fill="#ECF0F1" width="7.3" height="9.9"/>
					<rect id="_Rectangle_30" x="47.7" y="216.8" fill="#ECF0F1" width="7.3" height="9.9"/>
				</g>
				<g id="_Group_12">
					<rect id="_Rectangle_31" x="26.7" y="230.6" fill="#ECF0F1" width="7.3" height="9.9"/>
					<rect id="_Rectangle_32" x="37.2" y="230.6" fill="#ECF0F1" width="7.3" height="9.9"/>
					<rect id="_Rectangle_33" x="47.7" y="230.6" fill="#ECF0F1" width="7.3" height="9.9"/>
				</g>
			</g>
		</g>
	</g>
	<line fill="none" stroke="#FFFFFF" stroke-miterlimit="10" x1="49.9" y1="103.7" x2="52.4" y2="103.7"/>
	
		<line fill="none" stroke="#FFFFFF" stroke-miterlimit="10" stroke-dasharray="5.05,3.03" x1="55.4" y1="103.7" x2="296.5" y2="103.7"/>
	<line fill="none" stroke="#FFFFFF" stroke-miterlimit="10" x1="298" y1="103.7" x2="300.5" y2="103.7"/>
	<line fill="none" stroke="#FFFFFF" stroke-miterlimit="10" x1="49.9" y1="285.4" x2="52.4" y2="285.4"/>
	
		<line fill="none" stroke="#FFFFFF" stroke-miterlimit="10" stroke-dasharray="5.05,3.03" x1="55.4" y1="285.4" x2="296.5" y2="285.4"/>
	<line fill="none" stroke="#FFFFFF" stroke-miterlimit="10" x1="298" y1="285.4" x2="300.5" y2="285.4"/>
	<circle fill="#FFFFFF" cx="300.6" cy="103.7" r="17.6"/>
	<path d="M310.5,105.3l-1.1-0.2c-0.1-0.8-0.3-1.7-0.5-2.5c-0.5-2-1.5-3.8-2.9-5.2c-1.5-1.3-3.5-2.1-5.5-2.1h-0.3
		c-1.5,0.1-3,0.5-4.4,1.2h-0.6c-0.5,0-1-0.3-1.3-0.7l-0.2-0.3v0.3c0,0,0.1,0.7,0.2,1.3c0,0.3,0.2,0.6,0.3,0.9
		c-0.9,0.8-1.5,1.9-1.7,3.1c-0.3,1.2-0.5,2.4-0.6,3.7l-1.2,0.2c-0.1,0.2-0.1,0.4-0.1,0.6c0,0.2,0,0.4,0.1,0.6h0.2
		c0.1,0,0.3,0.2,0.3,0.3l0.2,1.3c0.1,0.8,0.2,1.6,0.3,1.7s0.5,1,2.2,1h4c0.7-0.2,1.3-0.8,1.5-1.6c0.2-0.7,0.5-1.4,0.9-2h0.8
		c0.4,0.6,0.7,1.3,0.9,2c0.2,0.8,0.8,1.4,1.5,1.6h4c1.7-0.1,2.1-0.8,2.2-1s0.2-1,0.3-1.8l0.2-1.3c0-0.1,0.2-0.2,0.3-0.2h0.3
		C310.8,105.9,310.7,105.6,310.5,105.3z M301.9,106.7c0.2-0.5,0.7-0.8,1.2-0.8l5.2-0.2c0.3,0,0.5,0.1,0.7,0.3
		c0.1,0.1,0.2,0.3,0.2,0.5c0,1.1-0.1,2.8-0.2,3s-0.5,0.7-1.4,0.9h-3.7c-0.6-0.2-1-0.6-1.3-1.2v-0.3
		C302.3,108.2,302,107.5,301.9,106.7L301.9,106.7z M292.8,105.1c0-0.4,0.1-1.1,0.2-1.9c0.2-1.2,0.6-2.4,1.3-3.4l0.8-0.6
		c0.6,0.4,1.3,0.8,2,0.9h0.8c2.4,0,5.4-2,5.4-2h0.7l0.8,0.2c1.1,0.8,2,1.8,2.6,3c0.5,1.2,0.9,2.5,1.1,3.8h-5.3
		c-0.6,0.1-1.1,0.3-1.6,0.6h-1.9c-0.5-0.3-1-0.5-1.6-0.6H292.8L292.8,105.1z M298.9,108.8v0.3c-0.3,0.6-0.7,1-1.3,1.2h-3.7
		c-0.9-0.1-1.3-0.4-1.4-0.9s-0.1-1.8-0.2-2.9c0-0.2,0.1-0.4,0.2-0.5c0.2-0.2,0.4-0.3,0.7-0.3l5.2,0.2c0.5,0,1,0.3,1.2,0.8
		C299.5,107.4,299.2,108.2,298.9,108.8L298.9,108.8z"/>
	<path fill="#289CAE" d="M294.5,108.9v-2h0.2l2,1c0.1,0,0.1,0,0.1,0.1s0,0.1-0.1,0.1l-2,1h-0.2V108.9z"/>
	<path fill="#289CAE" d="M304.7,108.9v-2h0.2l2,1c0.1,0,0.1,0,0.1,0.1s0,0.1-0.1,0.1l-2,1h-0.2V108.9z"/>
	<circle fill="none" stroke="#FFFFFF" stroke-width="0.3" stroke-miterlimit="10" cx="300.6" cy="103.7" r="15.1"/>
	<circle fill="none" stroke="#D8D8D8" stroke-miterlimit="10" stroke-dasharray="1.97,0.99" cx="300.6" cy="103.7" r="15.1"/>
	<circle fill="#FFFFFF" cx="51.1" cy="103.7" r="17.6"/>
	<path d="M61,105.3l-1.1-0.2c-0.1-0.8-0.3-1.7-0.5-2.5c-0.5-2-1.5-3.8-2.9-5.2c-1.5-1.3-3.5-2.1-5.5-2.1h-0.3
		c-1.5,0.1-3,0.5-4.4,1.2h-0.6c-0.5,0-1-0.3-1.3-0.7l-0.2-0.3v0.3c0,0,0.1,0.7,0.2,1.3c0,0.3,0.2,0.6,0.3,0.9
		c-0.9,0.8-1.5,1.9-1.7,3.1c-0.3,1.2-0.5,2.4-0.6,3.7l-1.2,0.2c-0.1,0.2-0.1,0.4-0.1,0.6c0,0.2,0,0.4,0.1,0.6h0.2
		c0.1,0,0.3,0.2,0.3,0.3l0.2,1.3c0.1,0.8,0.2,1.6,0.3,1.7s0.5,1,2.2,1h4c0.7-0.2,1.3-0.8,1.5-1.6c0.2-0.7,0.5-1.4,0.9-2h0.8
		c0.4,0.6,0.7,1.3,0.9,2c0.2,0.8,0.8,1.4,1.5,1.6h4c1.7-0.1,2.1-0.8,2.2-1s0.2-1,0.3-1.8l0.2-1.3c0-0.1,0.2-0.2,0.3-0.2h0.3
		C61.3,105.9,61.2,105.6,61,105.3z M52.4,106.7c0.2-0.5,0.7-0.8,1.2-0.8l5.2-0.2c0.3,0,0.5,0.1,0.7,0.3c0.1,0.1,0.2,0.3,0.2,0.5
		c0,1.1-0.1,2.8-0.2,3s-0.5,0.7-1.4,0.9h-3.7c-0.6-0.2-1-0.6-1.3-1.2v-0.3C52.8,108.2,52.5,107.5,52.4,106.7L52.4,106.7z
		 M43.3,105.1c0-0.4,0.1-1.1,0.2-1.9c0.2-1.2,0.6-2.4,1.3-3.4l0.8-0.6c0.6,0.4,1.3,0.8,2,0.9h0.8c2.4,0,5.4-2,5.4-2h0.7l0.8,0.2
		c1.1,0.8,2,1.8,2.6,3c0.5,1.2,0.9,2.5,1.1,3.8h-5.3c-0.6,0.1-1.1,0.3-1.6,0.6h-1.9c-0.5-0.3-1-0.5-1.6-0.6H43.3L43.3,105.1z
		 M49.4,108.8v0.3c-0.3,0.6-0.7,1-1.3,1.2h-3.7c-0.9-0.1-1.3-0.4-1.4-0.9s-0.1-1.8-0.2-2.9c0-0.2,0.1-0.4,0.2-0.5
		c0.2-0.2,0.4-0.3,0.7-0.3l5.2,0.2c0.5,0,1,0.3,1.2,0.8C50,107.4,49.8,108.2,49.4,108.8z"/>
	<path fill="#289CAE" d="M45.1,108.9v-2h0.2l2,1c0.1,0,0.1,0,0.1,0.1s0,0.1-0.1,0.1l-2,1h-0.2V108.9z"/>
	<path fill="#289CAE" d="M55.2,108.9v-2h0.2l2,1c0.1,0,0.1,0,0.1,0.1s0,0.1-0.1,0.1l-2,1h-0.2V108.9z"/>
	<circle fill="none" stroke="#FFFFFF" stroke-width="0.3" stroke-miterlimit="10" cx="51.1" cy="103.7" r="15.1"/>
	<circle fill="none" stroke="#D8D8D8" stroke-miterlimit="10" stroke-dasharray="1.97,0.99" cx="51.1" cy="103.7" r="15.1"/>
	<circle fill="#FFFFFF" cx="49.9" cy="285.2" r="17.6"/>
	<path d="M59.8,286.9l-1.1-0.2c-0.1-0.8-0.3-1.7-0.5-2.5c-0.5-2-1.5-3.8-2.9-5.2c-1.5-1.3-3.5-2.1-5.5-2.1h-0.3
		c-1.5,0.1-3,0.5-4.4,1.2h-0.6c-0.5,0-1-0.3-1.3-0.7l-0.2-0.3v0.3c0,0,0.1,0.7,0.2,1.3c0,0.3,0.2,0.6,0.3,0.9
		c-0.9,0.8-1.5,1.9-1.7,3.1c-0.3,1.2-0.5,2.4-0.6,3.7l-1.2,0.2c-0.1,0.2-0.1,0.4-0.1,0.6c0,0.2,0,0.4,0.1,0.6h0.2
		c0.1,0,0.3,0.2,0.3,0.3l0.2,1.3c0.1,0.8,0.2,1.6,0.3,1.7s0.5,1,2.2,1h4c0.7-0.2,1.3-0.8,1.5-1.6c0.2-0.7,0.5-1.4,0.9-2h0.8
		c0.4,0.6,0.7,1.3,0.9,2c0.2,0.8,0.8,1.4,1.5,1.6h4c1.7-0.1,2.1-0.8,2.2-1s0.2-1,0.3-1.8l0.2-1.3c0-0.1,0.2-0.2,0.3-0.2h0.3
		C60.1,287.5,60,287.2,59.8,286.9z M51.2,288.3c0.2-0.5,0.7-0.8,1.2-0.8l5.2-0.2c0.3,0,0.5,0.1,0.7,0.3c0.1,0.1,0.2,0.3,0.2,0.5
		c0,1.1-0.1,2.8-0.2,3s-0.5,0.7-1.4,0.9h-3.7c-0.6-0.2-1-0.6-1.3-1.2v-0.3c-0.4-0.7-0.6-1.5-0.7-2.3L51.2,288.3z M42.1,286.7
		c0-0.4,0.1-1.1,0.2-1.9c0.2-1.2,0.6-2.4,1.3-3.4l0.8-0.6c0.6,0.4,1.3,0.8,2,0.9h0.8c2.4,0,5.4-2,5.4-2h0.7l0.8,0.2
		c1.1,0.8,2,1.8,2.6,3c0.5,1.2,0.9,2.5,1.1,3.8h-5.3c-0.6,0.1-1.1,0.3-1.6,0.6H49c-0.5-0.3-1-0.5-1.6-0.6H42.1L42.1,286.7z
		 M48.2,290.4v0.3c-0.3,0.6-0.7,1-1.3,1.2h-3.7c-0.9-0.1-1.3-0.4-1.4-0.9s-0.1-1.8-0.2-2.9c0-0.2,0.1-0.4,0.2-0.5
		c0.2-0.2,0.4-0.3,0.7-0.3l5.2,0.2c0.5,0,1,0.3,1.2,0.8c-0.1,0.7-0.4,1.5-0.8,2.1L48.2,290.4z"/>
	<path fill="#289CAE" d="M43.8,290.5v-2H44l2,1c0.1,0,0.1,0,0.1,0.1c0,0.1,0,0.1-0.1,0.1l-2,1h-0.2V290.5z"/>
	<path fill="#289CAE" d="M54,290.5v-2h0.2l2,1c0.1,0,0.1,0,0.1,0.1c0,0.1,0,0.1-0.1,0.1l-2,1H54V290.5z"/>
	<circle fill="none" stroke="#FFFFFF" stroke-width="0.3" stroke-miterlimit="10" cx="49.9" cy="285.2" r="15.1"/>
	<circle fill="none" stroke="#D8D8D8" stroke-miterlimit="10" stroke-dasharray="1.97,0.99" cx="49.9" cy="285.2" r="15.1"/>
	<circle fill="#FFFFFF" cx="299.6" cy="284.9" r="17.6"/>
	<path d="M309.5,286.5l-1.1-0.2c-0.1-0.8-0.3-1.7-0.5-2.5c-0.5-2-1.5-3.8-2.9-5.2c-1.5-1.3-3.5-2.1-5.5-2.1h-0.3
		c-1.5,0.1-3,0.5-4.4,1.2h-0.6c-0.5,0-1-0.3-1.3-0.7l-0.2-0.3v0.3c0,0,0.1,0.7,0.2,1.3c0,0.3,0.2,0.6,0.3,0.9
		c-0.9,0.8-1.5,1.9-1.7,3.1c-0.3,1.2-0.5,2.4-0.6,3.7l-1.2,0.2c-0.1,0.2-0.1,0.4-0.1,0.6c0,0.2,0,0.4,0.1,0.6h0.2
		c0.1,0,0.3,0.2,0.3,0.3l0.2,1.3c0.1,0.8,0.2,1.6,0.3,1.7s0.5,1,2.2,1h4c0.7-0.2,1.3-0.8,1.5-1.6c0.2-0.7,0.5-1.4,0.9-2h0.8
		c0.4,0.6,0.7,1.3,0.9,2c0.2,0.8,0.8,1.4,1.5,1.6h4c1.7-0.1,2.1-0.8,2.2-1s0.2-1,0.3-1.8l0.2-1.3c0-0.1,0.2-0.2,0.3-0.2h0.3
		C309.8,287.1,309.7,286.8,309.5,286.5z M300.9,287.9c0.2-0.5,0.7-0.8,1.2-0.8l5.2-0.2c0.3,0,0.5,0.1,0.7,0.3
		c0.1,0.1,0.2,0.3,0.2,0.5c0,1.1-0.1,2.8-0.2,3s-0.5,0.7-1.4,0.9h-3.7c-0.6-0.2-1-0.6-1.3-1.2V290
		C301.3,289.4,301,288.6,300.9,287.9z M291.8,286.3c0-0.4,0.1-1.1,0.2-1.9c0.2-1.2,0.6-2.4,1.3-3.4l0.8-0.6c0.6,0.4,1.3,0.8,2,0.9
		h0.8c2.4,0,5.4-2,5.4-2h0.7l0.8,0.2c1.1,0.8,2,1.8,2.6,3c0.5,1.2,0.9,2.5,1.1,3.8h-5.3c-0.6,0.1-1.1,0.3-1.6,0.6h-1.9
		c-0.5-0.3-1-0.5-1.6-0.6H291.8L291.8,286.3z M297.9,290v0.3c-0.3,0.6-0.7,1-1.3,1.2h-3.7c-0.9-0.1-1.3-0.4-1.4-0.9
		s-0.1-1.8-0.2-2.9c0-0.2,0.1-0.4,0.2-0.5c0.2-0.2,0.4-0.3,0.7-0.3l5.2,0.2c0.5,0,1,0.3,1.2,0.8C298.5,288.6,298.3,289.4,297.9,290
		L297.9,290z"/>
	<path fill="#289CAE" d="M293.6,290.1v-2h0.2l2,1c0.1,0,0.1,0,0.1,0.1c0,0.1,0,0.1-0.1,0.1l0,0l-2,1h-0.2V290.1z"/>
	<path fill="#289CAE" d="M303.8,290.1v-2h0.2l2,1c0.1,0,0.1,0,0.1,0.1c0,0.1,0,0.1-0.1,0.1l-2,1h-0.2V290.1z"/>
	<circle fill="none" stroke="#FFFFFF" stroke-width="0.3" stroke-miterlimit="10" cx="299.6" cy="284.9" r="15.1"/>
	<circle fill="none" stroke="#D8D8D8" stroke-miterlimit="10" stroke-dasharray="1.97,0.99" cx="299.6" cy="284.9" r="15.1"/>
	<line fill="none" stroke="#FFFFFF" stroke-miterlimit="10" stroke-dasharray="5,3" x1="176.5" y1="29.5" x2="176.5" y2="106.2"/>
	<circle fill="#FFFFFF" cx="176.3" cy="103.7" r="66.2"/>
	<g>
		<defs>
			<circle id="SVGID_3_" cx="176.3" cy="103.7" r="62.6"/>
		</defs>
		<clipPath id="SVGID_4_">
			<use xlink:href="#SVGID_3_"  overflow="visible"/>
		</clipPath>
		<g clip-path="url(#SVGID_4_)">
			<rect x="166.2" y="115.4" fill="#35333C" width="20" height="8.5"/>
			<polygon fill="#AA6C49" points="186.9,118 184.4,116.8 184.4,108.7 168,108.7 168,116.8 165.4,117.9 166.1,140.9 168,140.9 
				168,144.4 184.4,144.4 184.4,140.9 186.2,140.9 			"/>
			<polygon fill="#915639" points="168,108.7 168,113.8 184.4,116.2 184.4,108.7 			"/>
			<path fill="#C6875E" d="M194.2,84.5l0.6-7.2c0-9.4-9-17.1-18.4-17.1S158,67.8,158,77.3l0.6,7.2c-0.5,0.1-1,0.4-1.4,0.7
				c-0.8,0.6-1.2,1.6-1.2,2.6v3.6c0,1.9,1.5,3.4,3.4,3.4l0,0c0,8.9,10.7,17.3,17.1,17.3s17.1-8.4,17.1-17.3c1.9,0,3.4-1.5,3.4-3.4
				c0,0,0,0,0,0v-3.6C197,86.2,195.8,84.8,194.2,84.5z"/>
			<path fill="#AA6C49" d="M194.2,84.5l0.6-7.2c0-9.4-9-17.1-18.4-17.1l0,0v24.6c-1.8,4.2-3.2,8.5-4.1,13h4.1v14.4l0,0
				c6.4,0,17.1-8.4,17.1-17.3c1.9,0,3.4-1.5,3.4-3.4c0,0,0,0,0,0v-3.6C197,86.3,195.8,84.8,194.2,84.5z"/>
			<path fill="#050505" d="M170.7,101.8h10.7c0.2,0,0.4,0.2,0.4,0.4c0,0.1,0,0.1-0.1,0.2c-0.8,0.7-2.4,1.7-5.6,1.7s-4.8-1-5.6-1.7
				C170.4,102.2,170.5,102,170.7,101.8C170.7,101.8,170.7,101.8,170.7,101.8z"/>
			<path fill="#050505" d="M169.6,87.8c-0.3,0-0.6-0.3-0.6-0.6c0-0.3-0.7-0.8-1.8-0.8s-1.8,0.5-1.8,0.8c0,0.4-0.3,0.7-0.7,0.7
				s-0.7-0.3-0.7-0.7c0-1.2,1.4-2.1,3.1-2.1s3.1,0.9,3.1,2.1c0,0.3-0.3,0.6-0.6,0.6C169.7,87.8,169.7,87.8,169.6,87.8z"/>
			<path fill="#050505" d="M186.8,87.8c-0.3,0-0.6-0.3-0.6-0.6c0-0.3-0.7-0.8-1.8-0.8s-1.8,0.5-1.8,0.8c0,0.4-0.3,0.7-0.7,0.7
				s-0.7-0.3-0.7-0.7c0-1.2,1.4-2.1,3.1-2.1s3.1,0.9,3.1,2.1c0,0.3-0.3,0.6-0.6,0.6C186.9,87.8,186.9,87.8,186.8,87.8z"/>
			<path fill="#FFFFFF" d="M165.2,118l0.6,2.3c1.1,3,3.8,3.8,10.2,3.8s10-2.1,10.9-4.9l0.3-1.2c13.3,5,9.2,46.8,9.2,46.8v34.7h-41.8
				l0.6-34.7C155.2,164.8,151.9,123,165.2,118z"/>
			<path fill="#FFFFFF" d="M176.2,123.9l5,5.3l8.6-10.3l-5.4-2.7l-2,1.9L176.2,123.9z"/>
			<polygon fill="#FFFFFF" points="167.9,116.3 176.2,123.9 171.1,129.2 162.5,118.9 			"/>
			<path fill="#152430" d="M220.7,164.7c1.2-3.8,1.2-7.9-0.1-11.7c-2.5-7.3-7.2-22.8-8.6-25.7c-3-6.5-12.6-6.2-24.5-10.4l-1.3-0.5
				l0,0c-0.7,4.1-10,45.8-10,45.8s-9.3-41.7-10-45.8l0,0l-1.3,0.5c-12,4.1-21.6,3.9-24.5,10.4c-1.3,2.9-6.1,18.4-8.6,25.7
				c-1.3,3.8-1.3,7.9-0.1,11.7c2.7,8.4,8.4,19.8,10.8,23.4s6,4.4,8.7,3.5c-0.4,1.7-3,9.4-3,9.4h55.5c0.4,0-2.3-7.6-2.7-9.4
				c2.7,0.9,6.5-0.3,8.7-3.5S218,173.1,220.7,164.7z"/>
			<polygon fill="#0D4870" points="193.1,119 192.8,126.8 188.9,130 191.9,134.2 176.3,161.9 186.2,115.4 			"/>
			<polygon fill="#0D4870" points="159.3,119 159.5,126.8 163.4,130 160.4,134.2 176.1,161.9 166.2,115.4 			"/>
			<path fill="#050505" stroke="#DBC7BD" stroke-width="0.25" stroke-miterlimit="10" d="M175.8,82.8"/>
			<path fill="#050505" stroke="#DBC7BD" stroke-width="0.25" stroke-miterlimit="10" d="M175.8,82.8"/>
			<path fill="#050505" stroke="#DBC7BD" stroke-width="0.25" stroke-linecap="round" stroke-linejoin="round" d="M175.8,82.8"/>
			<circle fill="#050505" cx="175.8" cy="59.5" r="4"/>
			<circle fill="#050505" cx="182.1" cy="60.4" r="4"/>
			<circle fill="#050505" cx="187.5" cy="62.6" r="4"/>
			
				<ellipse transform="matrix(1.396223e-02 -0.9999 0.9999 1.396223e-02 121.9535 256.5587)" fill="#050505" cx="191.1" cy="66.4" rx="4" ry="4"/>
			<circle fill="#050505" cx="194.4" cy="71.4" r="4"/>
			<circle fill="#050505" cx="195.3" cy="78.1" r="4"/>
			<circle fill="#050505" cx="194.5" cy="82.7" r="3.6"/>
			<circle fill="#050505" cx="194.6" cy="83" r="3.6"/>
			<circle fill="#050505" cx="170.4" cy="60.4" r="4"/>
			<circle fill="#050505" cx="165" cy="62.6" r="4"/>
			
				<ellipse transform="matrix(0.9999 -1.396218e-02 1.396218e-02 0.9999 -0.9276 2.247)" fill="#050505" cx="160.5" cy="67.6" rx="4" ry="4"/>
			<circle fill="#050505" cx="158.1" cy="71.4" r="4"/>
			<circle fill="#050505" cx="157.2" cy="78.1" r="4"/>
			<circle fill="#050505" cx="175.8" cy="64.1" r="3.6"/>
			<circle fill="#050505" cx="175.8" cy="68.3" r="3.6"/>
			<circle fill="#050505" cx="181.4" cy="65.9" r="3.6"/>
			<circle fill="#050505" cx="181.7" cy="68.9" r="3.6"/>
			<circle fill="#050505" cx="186.4" cy="68.1" r="3.6"/>
			<circle fill="#050505" cx="187.4" cy="72.1" r="3.6"/>
			<circle fill="#050505" cx="191.6" cy="76.7" r="3.6"/>
			<circle fill="#050505" cx="170.1" cy="68.9" r="3.6"/>
			<circle fill="#050505" cx="167.1" cy="67" r="3.6"/>
			<circle fill="#050505" cx="171.4" cy="65.1" r="3.6"/>
			<circle fill="#050505" cx="164.4" cy="72.1" r="3.6"/>
			<circle fill="#050505" cx="160.2" cy="76.7" r="3.6"/>
			<circle fill="#050505" cx="157.9" cy="83" r="3.6"/>
			<path fill="#262626" stroke="#262626" stroke-miterlimit="10" d="M189.6,80.7h-9.3c-1,0.1-2,0.5-2.8,1h-3.2
				c-0.8-0.5-1.8-0.9-2.8-1h-10.6c-0.7,0-1.4,0.1-2.1,0.3c-0.1,0.3-0.2,0.7-0.2,1c-0.1,0.3,0,0.7,0.2,1l0.4,0.2
				c0.3,0,0.5,0.2,0.6,0.5c0.1,0.3,0.2,1.2,0.3,2.2s0.3,2.7,0.5,3s0.8,1.7,3.7,1.8h4.4l2.5-0.2c1.2-0.4,2.2-1.4,2.5-2.7
				c0.4-1.2,1-2.4,1.6-3.5c0.2-0.2,0.4-0.2,0.7-0.2c0.3,0,0.5,0,0.7,0.2c0.6,1.1,1.2,2.3,1.6,3.5c0.3,1.3,1.3,2.3,2.5,2.7
				c0.8,0.2,1.7,0.2,2.5,0.2h4.4c3-0.1,3.6-1.4,3.7-1.8s0.3-1.7,0.5-3l0.3-2.2c0-0.2,0.3-0.4,0.5-0.4l0.5-0.2c0.3-0.6,0.3-1.4,0-2
				c-0.1-0.1-0.3-0.2-1.9-0.3h-1.6L189.6,80.7z M172.9,87.1l-0.2,0.5c-0.4,1-1.3,1.7-2.3,2.1l-2.9,0.2l-3.5-0.2
				c-1.6-0.2-2.3-0.7-2.5-1.5s-0.2-3.2-0.3-5.1c0-0.3,0.2-0.6,0.4-0.9c0.3-0.3,0.7-0.6,1.2-0.6c0.1,0,7.8,0.1,9,0.3
				c0.9,0,1.8,0.5,2.1,1.4C174.1,84.2,173.4,85.9,172.9,87.1L172.9,87.1z M190.4,88.3c-0.2,0.8-0.9,1.2-2.5,1.5l-3.5,0.2l-2.9-0.2
				c-1-0.4-1.9-1.1-2.3-2.1l-0.2-0.5c-0.4-1.2-1.1-3-0.9-3.7l0,0c0.3-0.9,1.2-1.5,2.1-1.4c1.2-0.2,8.6-0.3,9-0.3
				c0.5,0.1,0.9,0.3,1.2,0.6c0.2,0.3,0.4,0.6,0.4,0.9C190.7,85.1,190.5,88,190.4,88.3L190.4,88.3z"/>
			<circle fill="#9B6043" cx="185.5" cy="95.4" r="3.1"/>
			<circle fill="#9B6043" cx="166.5" cy="95.4" r="3.1"/>
		</g>
	</g>
	
		<ellipse transform="matrix(2.268739e-02 -0.9997 0.9997 2.268739e-02 71.9634 372.553)" fill="#FFFFFF" stroke="#202933" stroke-miterlimit="10" cx="226.5" cy="149.5" rx="15" ry="15"/>
	<path fill="#EBB650" d="M221.2,152.3L221.2,152.3l-2-1h-0.1l-1.9,1h-0.1V152l0.3-2l0,0l-1.6-1.5h0.4l1.4-0.2h0.4l0.9-1.9h0.1l1,2
		h0.1l2.2,0.3l0,0l-1.6,1.5l0,0l0.4,2.2l0,0L221.2,152.3z"/>
	<path fill="#EBB650" d="M229.1,152.3L229.1,152.3l-2-1H227l-1.9,1H225V152l0.3-2l0,0l-1.6-1.5h0.4l1.4-0.2h0.4l0.9-1.9h0.1l1,2h0.1
		l2.2,0.3l0,0l-1.6,1.5l0,0l0.4,2.2l0,0L229.1,152.3z"/>
	<path fill="#EBB650" d="M237,152.3L237,152.3l-2-1h-0.1l-1.9,1h-0.1V152l0.3-2l0,0l-1.6-1.5h0.4l1.4-0.2h0.4l0.9-1.9h0.1l1,2h0.1
		l2.2,0.3l0,0l-1.6,1.5l0,0l0.4,2.2l0,0L237,152.3z"/>
	<circle fill="#0084AE" cx="176.3" cy="12.5" r="12.5"/>
	<text transform="matrix(1 0 0 1 172.4379 17.5)" fill="#FFFFFF" font-family="'Lato-Regular'" font-size="13.47px">$</text>
	<circle fill="#FFFFFF" cx="301.2" cy="195.2" r="46.8"/>
	<g>
		<defs>
			<circle id="SVGID_5_" cx="301.3" cy="195.2" r="43.6"/>
		</defs>
		<clipPath id="SVGID_6_">
			<use xlink:href="#SVGID_5_"  overflow="visible"/>
		</clipPath>
		<g clip-path="url(#SVGID_6_)">
			<path fill="#424242" d="M285.5,158.5h69.7c0.9,0,1.6,0.7,1.6,1.6v55.1c0,0.9-0.7,1.6-1.6,1.6h-69.7c-0.9,0-1.6-0.7-1.6-1.6v-55.1
				C283.9,159.2,284.7,158.5,285.5,158.5L285.5,158.5z"/>
			<path fill="#515151" d="M285.5,159.6h69.7c1,0,2.1,1.3,1.4,1.8c-43.6,27.7-27,26.8-70.7,55.3c-0.7,0.5-2-0.4-2-1.5v-54
				C283.9,160.3,284.7,159.6,285.5,159.6L285.5,159.6z"/>
			<rect x="287.2" y="161.8" fill="#EAEAEA" width="66.3" height="53"/>
			<polygon fill="#D6D6D6" points="287.2,161.8 353.5,161.8 348,177.4 287.2,214.7 			"/>
			
				<line fill="none" stroke="#FFFFFF" stroke-width="2" stroke-linecap="round" stroke-linejoin="round" x1="320.2" y1="208.7" x2="314.1" y2="184.7"/>
			<rect x="279.7" y="201.6" fill="#35333C" width="12.2" height="5.2"/>
			<polygon fill="#EACBB7" points="292.3,203.2 290.7,202.5 290.7,197.5 280.8,197.5 280.8,202.5 279.2,203.1 279.6,217.1 
				280.8,217.1 280.8,219.3 290.7,219.3 290.7,217.1 291.9,217.1 			"/>
			<polygon fill="#D6B7A3" points="280.8,197.5 280.8,200.7 290.7,202.1 290.7,197.5 			"/>
			<path fill="#FFFFFF" d="M279.1,203.2l0.4,1.4c0.6,1.8,2.3,2.3,6.2,2.3s6.1-1.3,6.6-3l0.2-0.8c8.1,3,5.6,28.4,5.6,28.4v5.2h-25.4
				l0.3-5.2C273,231.5,271,206.3,279.1,203.2z"/>
			<path fill="#FFFFFF" d="M285.8,206.8l3.1,3.2l5.2-6.2l-3.3-1.6l-1.2,1.1L285.8,206.8z"/>
			<polygon fill="#FFFFFF" points="280.7,202.1 285.7,206.8 282.7,210 277.5,203.8 			"/>
			<path fill="#152430" d="M267.9,240.1c0.5-8,0.2-18.8,0.2-18.8s-4.3-3.2-3-10.8c0.8-4.7,5.9-4.7,14-7.7l6.7,27l6.7-27
				c8.1,3,13.3,3,14,7.7c1.3,7.5-3,10.8-3,10.8s-0.4,13,0.2,21"/>
			<polygon fill="#0D4870" points="296,203.8 295.9,208.5 293.5,210.5 295.3,213 285.8,229.9 291.8,201.6 			"/>
			<polygon fill="#0D4870" points="275.5,203.8 275.6,208.5 278,210.5 276.2,213 285.7,229.9 279.7,201.6 			"/>
			<line fill="none" x1="265.5" y1="241.3" x2="260.6" y2="242.2"/>
			<path fill="#152430" d="M267.1,236c1.2-7.7,1.8-4.3,1.8-4.3l7-22.3c-0.1-0.2-0.9-3.6-1.4-4.9c-6.3,2-10.8,2.5-11.5,6.5
				c-1.3,7.5-2.8,16-3.6,25.2"/>
			<path fill="#E9CAB6" d="M316.9,208.2c0,0,0.1,2,0.1,3.5v3l6.5,0.6v-3.6c0-1.7-0.1-3.8-0.1-3.8s-1.7-2.3-3.5-2.1
				S316.8,207,316.9,208.2z"/>
			<path fill="#152430" d="M324.9,214.4c-0.2,2.5-0.2,9.8-2.2,11.8s-5.8,4.3-12.7,0.5s-10.8-8-14.6-12.5l9.2-6.8
				c3.6,4.2,5.4,7.7,9.4,11.6c1.2,1.2,1.7,0.8,1.7,0.8s0.5-4.1,0.5-6.5h8.7C325,213.7,325,214,324.9,214.4z"/>
			<path fill="#E9CAB6" d="M296.7,182.8l0.3-4.4c0-5.7-5.5-10.4-11.2-10.4s-11.2,4.6-11.2,10.4l0.3,4.4l-0.9,0.4
				c-0.5,0.4-0.7,1-0.7,1.6v2.2c0,1.2,0.9,2.1,2.1,2.1c0,5.4,6.5,10.5,10.4,10.5s10.4-5.1,10.4-10.5c1.2,0,2.1-0.9,2.1-2.1v-2.2
				C298.3,183.8,297.7,183,296.7,182.8z"/>
			<path opacity="0.8" fill="#E9CAB6" enable-background="new    " d="M296.7,182.8l0.3-4.4c0-5.7-5.5-10.4-11.2-10.4l0,0v15
				c-1.1,2.5-1.9,5.2-2.5,7.9h2.5v8.7l0,0c3.9,0,10.4-5.1,10.4-10.5c1.2,0,2.1-0.9,2.1-2.1v-2.2C298.3,183.8,297.7,183,296.7,182.8z
				"/>
			<path fill="#34302D" stroke="#34302D" stroke-width="2" stroke-linecap="round" stroke-linejoin="round" d="M297,176.8
				c-0.4-1.5-0.9-2.9-1.7-4.3c-0.4-0.8-0.8-1.5-1.4-2.1l-0.4-0.4l-0.8-0.6c-1.1-0.9-2.4-1.6-3.8-2h-0.6c-1-0.3-2.1-0.4-3.2-0.5h-0.5
				c-2.3,0.1-4.5,0.8-6.6,1.8l-1,0.2h-0.3c-0.7-0.1-1.3-0.5-1.8-1l0,0c0.1,1.1,0.3,2.3,0.6,3.4l0.4,0.6c-0.7,1-1.1,2.1-1.4,3.2
				c-0.5,2.4-0.7,4.8-0.8,7.2c0,0.3,0.1,0.5,0.4,0.6c0.3-0.1,0.5-0.4,0.6-0.7c0.1-0.6,0.3-3.6,0.5-4.7c0.2-1.6,0.8-3.2,1.7-4.6
				c0.8,0.6,1.8,1,2.8,1.2h1.2c3.6,0,8.2-3,8.2-3l1.1-0.2c0.4,0,0.9,0.1,1.2,0.4c0.6,0.5,1.3,1,1.8,1.6l0,0l0.2,0.2
				c0.4,0.6,0.8,1.2,1.1,1.8c0.9,1.7,1.5,6,1.6,7.1c0,0.4,0.2,0.7,0.6,0.9c0.5,0,0.6-0.4,0.6-0.8C297.4,180.3,297.3,178.6,297,176.8
				z"/>
			<path fill="#262626" stroke="#262626" stroke-miterlimit="10" d="M295.1,180.1h-6.4c-0.7,0.1-1.3,0.3-1.9,0.7h-2.2
				c-0.6-0.4-1.2-0.6-1.9-0.7h-7.3l-1.5,0.2c-0.1,0.2-0.2,0.5-0.2,0.7c-0.1,0.2,0,0.5,0.1,0.7h0.3c0.2,0,0.3,0.1,0.4,0.3
				c0,0.2,0.1,0.9,0.2,1.5s0.2,1.9,0.3,2.1s0.5,1.1,2.6,1.2h4.8c0.8-0.3,1.5-1,1.7-1.9c0.3-0.8,0.7-1.6,1.1-2.4h1
				c0.4,0.8,0.8,1.6,1.1,2.4c0.2,0.9,0.9,1.6,1.7,1.9h4.8c2-0.1,2.5-1,2.6-1.2s0.2-1.2,0.3-2.1l0.2-1.5c0-0.2,0.2-0.3,0.4-0.3
				l0.3-0.2c0.2-0.4,0.2-1,0-1.4c-0.4-0.2-0.9-0.3-1.3-0.2h-1.1L295.1,180.1z M283.6,184.5v0.4c-0.3,0.7-0.9,1.2-1.6,1.5h-4.5
				c-1.1-0.2-1.6-0.5-1.7-1s-0.1-2.2-0.2-3.5c0-0.3,0.1-0.5,0.3-0.7c0.2-0.2,0.5-0.4,0.8-0.4l6.2,0.2c0.6,0,1.2,0.4,1.4,1
				C284.3,182.9,284,183.7,283.6,184.5z M295.7,185.3c-0.1,0.6-0.6,0.9-1.7,1h-4.5c-0.7-0.3-1.3-0.8-1.6-1.5v-0.4
				c-0.4-0.8-0.6-1.7-0.6-2.6l0,0c0.2-0.6,0.8-1,1.4-1l6.2-0.2c0.3,0,0.6,0.2,0.8,0.4c0.2,0.2,0.3,0.4,0.3,0.6
				c-0.2,1.5-0.3,3.6-0.3,3.8V185.3z"/>
			<path fill="#4C3E34" d="M282.4,193.3h6.5c0.1-0.1,0.2,0,0.3,0.1c0.1,0.1,0,0.2-0.1,0.3l0,0c-2.1,1.4-4.7,1.4-6.8,0
				c-0.1,0-0.2-0.1-0.1-0.3C282.2,193.3,282.3,193.3,282.4,193.3z"/>
			<path fill="#4C3E34" d="M281.8,184c-0.2,0-0.4-0.2-0.4-0.4c0,0,0,0,0,0c-0.6-0.6-1.5-0.6-2.1-0.1c0,0-0.1,0.1-0.1,0.1
				c0,0.2-0.2,0.4-0.4,0.4s-0.4-0.2-0.4-0.4c0-0.7,0.8-1.3,1.9-1.3s1.9,0.6,1.9,1.3C282.2,183.8,282.1,184,281.8,184L281.8,184z"/>
			<path fill="#4C3E34" d="M292.2,184c-0.2,0-0.4-0.2-0.4-0.4c0,0,0,0,0,0c-0.6-0.6-1.5-0.6-2.1-0.1c0,0-0.1,0.1-0.1,0.1
				c0,0.2-0.2,0.4-0.4,0.4s-0.4-0.2-0.4-0.4c0-0.7,0.8-1.3,1.9-1.3s1.9,0.6,1.9,1.3C292.6,183.8,292.5,184,292.2,184L292.2,184z"/>
			<circle opacity="0.8" fill="#E9CAB6" enable-background="new    " cx="292.2" cy="190.2" r="2"/>
			<circle opacity="0.8" fill="#E9CAB6" enable-background="new    " cx="280.2" cy="190.2" r="2"/>
		</g>
	</g>
	
		<ellipse transform="matrix(2.268739e-02 -0.9997 0.9997 2.268739e-02 101.3709 558.2174)" fill="#FFFFFF" stroke="#202933" stroke-miterlimit="10" cx="336.2" cy="227.3" rx="15" ry="15"/>
	<path fill="#D8D8D8" d="M329.9,230L329.9,230l-2-1h-0.1l-1.9,1h-0.1v-0.3l0.3-2l0,0l-1.6-1.5h0.4l1.4-0.2h0.4l0.9-1.9h0.1l1,2h0.1
		l2.2,0.3l0,0l-1.6,1.5l0,0l0.4,2.2l0,0L329.9,230z"/>
	<path fill="#EBB650" d="M337.8,230L337.8,230l-2-1h-0.1l-1.9,1h-0.1v-0.3l0.3-2l0,0l-1.6-1.5h0.4l1.4-0.2h0.4l0.9-1.9h0.1l1,2h0.1
		l2.2,0.3l0,0l-1.6,1.5l0,0l0.4,2.2l0,0L337.8,230z"/>
	<path fill="#EBB650" d="M345.7,230L345.7,230l-2-1h-0.1l-1.9,1h-0.1v-0.3l0.3-2l0,0l-1.6-1.5h0.4l1.4-0.2h0.4l0.9-1.9h0.1l1,2h0.1
		l2.2,0.3l0,0l-1.6,1.5l0,0l0.4,2.2l0,0L345.7,230z"/>
	<circle fill="#FFFFFF" cx="178.3" cy="284.9" r="46.8"/>
	<circle fill="#EAEAEA" cx="178.3" cy="284.9" r="42.6"/>
	<path fill="#EBB650" d="M155.3,301.1v3c0,1.2,3.2,2.2,7.1,2.2s7.1-1,7.1-2.2v-3H155.3L155.3,301.1z"/>
	<path fill="#CE9646" d="M168,301.1h-0.7v4.5l0.7-0.3V301.1L168,301.1z"/>
	<path fill="#CE9646" d="M156.2,301.1h-0.7v3.4l0.7,0.6V301.1z"/>
	<path fill="#CE9646" d="M167.1,301.1h-0.7v4.7l0.7-0.2V301.1L167.1,301.1z"/>
	<path fill="#CE9646" d="M166.2,301.1h-0.7v4.9h0.7v-4.8V301.1z"/>
	<path fill="#CE9646" d="M168.9,301.1h-0.7v4.2l0.7-0.4V301.1z"/>
	<path fill="#CE9646" d="M164.4,301.1h-0.7v5.1h0.7V301.1L164.4,301.1z"/>
	<path fill="#CE9646" d="M162.8,306.2h0.7v-5.1h-0.7V306.2z"/>
	<path fill="#CE9646" d="M165.3,301.1h-0.7v5h0.7V301.1L165.3,301.1z"/>
	<path fill="#CE9646" d="M162.6,301.1h-0.7v5.1h0.7V301.1z"/>
	<path fill="#CE9646" d="M161.7,301.1H161v5.1h0.7V301.1z"/>
	<path fill="#CE9646" d="M160.8,301.1h-0.7v5h0.7V301.1L160.8,301.1z"/>
	<path fill="#CE9646" d="M169.1,301.1v3.6c0.2-0.2,0.4-0.4,0.4-0.7v-3h-0.4V301.1z"/>
	<path fill="#CE9646" d="M159,301.1h-0.7v4.7h0.7V301.1L159,301.1z"/>
	<path fill="#CE9646" d="M159.9,301.1h-0.7v4.9h0.7V301.1L159.9,301.1z"/>
	<path fill="#CE9646" d="M158,301.1h-0.7v4.4l0.7,0.2V301.1L158,301.1z"/>
	<path fill="#CE9646" d="M157.1,301.1h-0.7v4.1l0.7,0.3V301.1L157.1,301.1z"/>
	<ellipse fill="#EBB650" cx="162.4" cy="301.1" rx="7.1" ry="2.2"/>
	<path fill="#EBB650" d="M155.9,297.5v3c0,1.2,3.2,2.2,7.1,2.2s7.1-1,7.1-2.2v-3H155.9L155.9,297.5z"/>
	<path fill="#CE9646" d="M168.6,297.5h-0.7v4.5l0.7-0.3V297.5L168.6,297.5z"/>
	<path fill="#CE9646" d="M156.8,297.5h-0.7v3.4l0.7,0.6V297.5z"/>
	<path fill="#CE9646" d="M167.7,297.5H167v4.7l0.7-0.2V297.5L167.7,297.5z"/>
	<path fill="#CE9646" d="M166.8,297.5h-0.7v4.9h0.7v-4.8V297.5z"/>
	<path fill="#CE9646" d="M169.5,297.5h-0.7v4.2l0.7-0.4V297.5z"/>
	<path fill="#CE9646" d="M164.9,297.5h-0.7v5.1h0.7V297.5L164.9,297.5z"/>
	<path fill="#CE9646" d="M163.3,302.6h0.7v-5.1h-0.7V302.6z"/>
	<path fill="#CE9646" d="M165.9,297.5h-0.7v5h0.7V297.5L165.9,297.5z"/>
	<path fill="#CE9646" d="M163.1,297.5h-0.7v5.1h0.7V297.5z"/>
	<path fill="#CE9646" d="M162.2,297.5h-0.7v5.1h0.7V297.5z"/>
	<path fill="#CE9646" d="M161.3,297.5h-0.7v5h0.7V297.5L161.3,297.5z"/>
	<path fill="#CE9646" d="M169.7,297.5v3.6c0.2-0.2,0.4-0.4,0.4-0.7v-3h-0.4V297.5z"/>
	<path fill="#CE9646" d="M159.5,297.5h-0.7v4.7h0.7V297.5L159.5,297.5z"/>
	<path fill="#CE9646" d="M160.4,297.5h-0.7v4.9h0.7V297.5L160.4,297.5z"/>
	<path fill="#CE9646" d="M158.6,297.5h-0.7v4.4l0.7,0.2V297.5L158.6,297.5z"/>
	<path fill="#CE9646" d="M157.7,297.5H157v4.1l0.7,0.3V297.5L157.7,297.5z"/>
	<ellipse fill="#EBB650" cx="162.9" cy="297.4" rx="7.1" ry="2.2"/>
	<path fill="#EBB650" d="M155.3,293.2v3c0,1.2,3.2,2.2,7.1,2.2s7.1-1,7.1-2.2v-3H155.3L155.3,293.2z"/>
	<path fill="#CE9646" d="M168,293.2h-0.7v4.5l0.7-0.3V293.2L168,293.2z"/>
	<path fill="#CE9646" d="M156.2,293.2h-0.7v3.4l0.7,0.6V293.2z"/>
	<path fill="#CE9646" d="M167.1,293.2h-0.7v4.7l0.7-0.2V293.2L167.1,293.2z"/>
	<path fill="#CE9646" d="M166.2,293.2h-0.7v4.9h0.7v-4.8V293.2z"/>
	<path fill="#CE9646" d="M168.9,293.2h-0.7v4.2l0.7-0.4V293.2z"/>
	<path fill="#CE9646" d="M164.4,293.2h-0.7v5.1h0.7V293.2L164.4,293.2z"/>
	<path fill="#CE9646" d="M162.8,298.3h0.7v-5.1h-0.7V298.3z"/>
	<path fill="#CE9646" d="M165.3,293.2h-0.7v5h0.7V293.2L165.3,293.2z"/>
	<path fill="#CE9646" d="M162.6,293.2h-0.7v5.1h0.7V293.2z"/>
	<path fill="#CE9646" d="M161.7,293.2H161v5.1h0.7V293.2z"/>
	<path fill="#CE9646" d="M160.8,293.2h-0.7v5h0.7V293.2L160.8,293.2z"/>
	<path fill="#CE9646" d="M169.1,293.2v3.6c0.2-0.2,0.4-0.4,0.4-0.7v-3h-0.4V293.2z"/>
	<path fill="#CE9646" d="M159,293.2h-0.7v4.7h0.7V293.2L159,293.2z"/>
	<path fill="#CE9646" d="M159.9,293.2h-0.7v4.8h0.7v-5V293.2z"/>
	<path fill="#CE9646" d="M158,293.2h-0.7v4.4l0.7,0.2V293.2L158,293.2z"/>
	<path fill="#CE9646" d="M157.1,293.2h-0.7v4.1l0.7,0.3V293.2L157.1,293.2z"/>
	<ellipse fill="#EBB650" cx="162.4" cy="293.2" rx="7.1" ry="2.2"/>
	<path fill="#EBB650" d="M155.9,289.5v3c0,1.2,3.2,2.2,7.1,2.2s7.1-1,7.1-2.2v-3H155.9L155.9,289.5z"/>
	<path fill="#CE9646" d="M168.6,289.5h-0.7v4.5l0.7-0.3V289.5L168.6,289.5z"/>
	<path fill="#CE9646" d="M156.8,289.5h-0.7v3.4l0.7,0.6V289.5z"/>
	<path fill="#CE9646" d="M167.7,289.5H167v4.7l0.7-0.2V289.5L167.7,289.5z"/>
	<path fill="#CE9646" d="M166.8,289.5h-0.7v4.9h0.7v-4.8V289.5z"/>
	<path fill="#CE9646" d="M169.5,289.5h-0.7v4.2l0.7-0.4V289.5z"/>
	<path fill="#CE9646" d="M164.9,289.5h-0.7v5.1h0.7V289.5L164.9,289.5z"/>
	<path fill="#CE9646" d="M163.3,294.6h0.7v-5.1h-0.7V294.6z"/>
	<path fill="#CE9646" d="M165.9,289.5h-0.7v5h0.7V289.5L165.9,289.5z"/>
	<path fill="#CE9646" d="M163.1,289.5h-0.7v5.1h0.7V289.5z"/>
	<path fill="#CE9646" d="M162.2,289.5h-0.7v5.1h0.7V289.5z"/>
	<path fill="#CE9646" d="M161.3,289.5h-0.7v5h0.7V289.5L161.3,289.5z"/>
	<path fill="#CE9646" d="M169.7,289.5v3.6c0.2-0.2,0.4-0.4,0.4-0.7v-3h-0.4V289.5z"/>
	<path fill="#CE9646" d="M159.5,289.5h-0.7v4.7h0.7V289.5L159.5,289.5z"/>
	<path fill="#CE9646" d="M160.4,289.5h-0.7v4.9h0.7V289.5L160.4,289.5z"/>
	<path fill="#CE9646" d="M158.6,289.5h-0.7v4.5l0.7,0.2V289.5z"/>
	<path fill="#CE9646" d="M157.7,289.5H157v4.1l0.7,0.3V289.5L157.7,289.5z"/>
	<ellipse fill="#EBB650" cx="162.9" cy="289.5" rx="7.1" ry="2.2"/>
	<path fill="#EBB650" d="M155.3,285.9v3c0,1.2,3.2,2.2,7.1,2.2s7.1-1,7.1-2.2v-3H155.3L155.3,285.9z"/>
	<path fill="#CE9646" d="M168,285.9h-0.7v4.5l0.7-0.3V285.9L168,285.9z"/>
	<path fill="#CE9646" d="M156.2,285.9h-0.7v3.4l0.7,0.6V285.9z"/>
	<path fill="#CE9646" d="M167.1,285.9h-0.7v4.7l0.7-0.2V285.9L167.1,285.9z"/>
	<path fill="#CE9646" d="M166.2,285.9h-0.7v4.9h0.7V286V285.9z"/>
	<path fill="#CE9646" d="M168.9,285.9h-0.7v4.2l0.7-0.4V285.9z"/>
	<path fill="#CE9646" d="M164.4,285.9h-0.7v5.1h0.7V285.9L164.4,285.9z"/>
	<path fill="#CE9646" d="M162.8,291h0.7v-5.1h-0.7V291z"/>
	<path fill="#CE9646" d="M165.3,285.9h-0.7v5h0.7V285.9L165.3,285.9z"/>
	<path fill="#CE9646" d="M162.6,285.9h-0.7v5.1h0.7V285.9z"/>
	<path fill="#CE9646" d="M161.7,285.9H161v5.1h0.7V285.9z"/>
	<path fill="#CE9646" d="M160.8,285.9h-0.7v5h0.7V285.9L160.8,285.9z"/>
	<path fill="#CE9646" d="M169.1,285.9v3.6c0.2-0.2,0.4-0.4,0.4-0.7v-3h-0.4V285.9z"/>
	<path fill="#CE9646" d="M159,285.9h-0.7v4.7h0.7V285.9L159,285.9z"/>
	<path fill="#CE9646" d="M159.9,285.9h-0.7v4.9h0.7V285.9L159.9,285.9z"/>
	<path fill="#CE9646" d="M158,285.9h-0.7v4.4l0.7,0.2V285.9L158,285.9z"/>
	<path fill="#CE9646" d="M157.1,285.9h-0.7v4.1l0.7,0.3V285.9L157.1,285.9z"/>
	<ellipse fill="#EBB650" cx="162.4" cy="285.9" rx="7.1" ry="2.2"/>
	<path fill="#EBB650" d="M155.9,282.3v3c0,1.2,3.2,2.2,7.1,2.2s7.1-1,7.1-2.2v-3H155.9L155.9,282.3z"/>
	<path fill="#CE9646" d="M168.6,282.3h-0.7v4.5l0.7-0.3V282.3L168.6,282.3z"/>
	<path fill="#CE9646" d="M156.8,282.3h-0.7v3.4l0.7,0.6V282.3z"/>
	<path fill="#CE9646" d="M167.7,282.3H167v4.7l0.7-0.2V282.3L167.7,282.3z"/>
	<path fill="#CE9646" d="M166.8,282.3h-0.7v4.9h0.7v-4.8V282.3z"/>
	<path fill="#CE9646" d="M169.5,282.3h-0.7v4.2l0.7-0.4V282.3z"/>
	<path fill="#CE9646" d="M164.9,282.3h-0.7v5.1h0.7V282.3L164.9,282.3z"/>
	<path fill="#CE9646" d="M163.3,287.4h0.7v-5.1h-0.7V287.4z"/>
	<path fill="#CE9646" d="M165.9,282.3h-0.7v5h0.7V282.3L165.9,282.3z"/>
	<path fill="#CE9646" d="M163.1,282.3h-0.7v5.1h0.7V282.3z"/>
	<path fill="#CE9646" d="M162.2,282.3h-0.7v5.1h0.7V282.3z"/>
	<path fill="#CE9646" d="M161.3,282.3h-0.7v5h0.7V282.3L161.3,282.3z"/>
	<path fill="#CE9646" d="M169.7,282.3v3.6c0.2-0.2,0.4-0.4,0.4-0.7v-3h-0.4V282.3z"/>
	<path fill="#CE9646" d="M159.5,282.3h-0.7v4.7h0.7V282.3L159.5,282.3z"/>
	<path fill="#CE9646" d="M160.4,282.3h-0.7v4.9h0.7V282.3L160.4,282.3z"/>
	<path fill="#CE9646" d="M158.6,282.3h-0.7v4.4l0.7,0.2V282.3L158.6,282.3z"/>
	<path fill="#CE9646" d="M157.7,282.3H157v4.1l0.7,0.3V282.3L157.7,282.3z"/>
	<ellipse fill="#EBB650" cx="162.9" cy="282.2" rx="7.1" ry="2.2"/>
	<path fill="#EBB650" d="M155.3,277.8v3c0,1.2,3.2,2.2,7.1,2.2s7.1-1,7.1-2.2v-3H155.3L155.3,277.8z"/>
	<path fill="#CE9646" d="M168,277.8h-0.7v4.5l0.7-0.3V277.8L168,277.8z"/>
	<path fill="#CE9646" d="M156.2,277.8h-0.7v3.4l0.7,0.6V277.8z"/>
	<path fill="#CE9646" d="M167.1,277.8h-0.7v4.7l0.7-0.2V277.8L167.1,277.8z"/>
	<path fill="#CE9646" d="M166.2,277.8h-0.7v4.9h0.7v-4.8V277.8z"/>
	<path fill="#CE9646" d="M168.9,277.8h-0.7v4.2l0.7-0.4V277.8z"/>
	<path fill="#CE9646" d="M164.4,277.8h-0.7v5.1h0.7V277.8L164.4,277.8z"/>
	<path fill="#CE9646" d="M162.8,282.9h0.7v-5.1h-0.7V282.9z"/>
	<path fill="#CE9646" d="M165.3,277.8h-0.7v5h0.7V277.8L165.3,277.8z"/>
	<path fill="#CE9646" d="M162.6,277.8h-0.7v5.1h0.7V277.8z"/>
	<path fill="#CE9646" d="M161.7,277.8H161v5.1h0.7V277.8z"/>
	<path fill="#CE9646" d="M160.8,277.8h-0.7v5h0.7V277.8L160.8,277.8z"/>
	<path fill="#CE9646" d="M169.1,277.8v3.6c0.2-0.2,0.4-0.4,0.4-0.7v-3h-0.4V277.8z"/>
	<path fill="#CE9646" d="M159,277.8h-0.7v4.7h0.7V277.8L159,277.8z"/>
	<path fill="#CE9646" d="M159.9,277.8h-0.7v4.9h0.7V277.8L159.9,277.8z"/>
	<path fill="#CE9646" d="M158,277.8h-0.7v4.4l0.7,0.2V277.8L158,277.8z"/>
	<path fill="#CE9646" d="M157.1,277.8h-0.7v4.1l0.7,0.3V277.8L157.1,277.8z"/>
	<ellipse fill="#EBB650" cx="162.4" cy="277.8" rx="7.1" ry="2.2"/>
	<path fill="#EBB650" d="M155.9,274.2v3c0,1.2,3.2,2.2,7.1,2.2s7.1-1,7.1-2.2v-3H155.9L155.9,274.2z"/>
	<path fill="#CE9646" d="M168.6,274.2h-0.7v4.5l0.7-0.3V274.2L168.6,274.2z"/>
	<path fill="#CE9646" d="M156.8,274.2h-0.7v3.4l0.7,0.6V274.2z"/>
	<path fill="#CE9646" d="M167.7,274.2H167v4.7l0.7-0.2V274.2L167.7,274.2z"/>
	<path fill="#CE9646" d="M166.8,274.2h-0.7v4.9h0.7v-4.8V274.2z"/>
	<path fill="#CE9646" d="M169.5,274.2h-0.7v4.2l0.7-0.4V274.2z"/>
	<path fill="#CE9646" d="M164.9,274.2h-0.7v5.1h0.7V274.2L164.9,274.2z"/>
	<path fill="#CE9646" d="M163.3,279.3h0.7v-5.1h-0.7V279.3z"/>
	<path fill="#CE9646" d="M165.9,274.2h-0.7v5h0.7V274.2L165.9,274.2z"/>
	<path fill="#CE9646" d="M163.1,274.2h-0.7v5.1h0.7V274.2z"/>
	<path fill="#CE9646" d="M162.2,274.2h-0.7v5.1h0.7V274.2z"/>
	<path fill="#CE9646" d="M161.3,274.2h-0.7v5h0.7V274.2L161.3,274.2z"/>
	<path fill="#CE9646" d="M169.7,274.2v3.6c0.2-0.2,0.4-0.4,0.4-0.7v-3h-0.4V274.2z"/>
	<path fill="#CE9646" d="M159.5,274.2h-0.7v4.7h0.7V274.2L159.5,274.2z"/>
	<path fill="#CE9646" d="M160.4,274.2h-0.7v4.8h0.7v-5V274.2z"/>
	<path fill="#CE9646" d="M158.6,274.2h-0.7v4.4l0.7,0.2V274.2L158.6,274.2z"/>
	<path fill="#CE9646" d="M157.7,274.2H157v4.1l0.7,0.3V274.2L157.7,274.2z"/>
	<ellipse fill="#EBB650" cx="162.9" cy="274.1" rx="7.1" ry="2.2"/>
	<path fill="#EBB650" d="M172,301.1v3c0,1.2,3.2,2.2,7.1,2.2s7.1-1,7.1-2.2v-3H172L172,301.1z"/>
	<path fill="#CE9646" d="M184.7,301.1H184v4.5l0.7-0.3V301.1L184.7,301.1z"/>
	<path fill="#CE9646" d="M172.9,301.1h-0.7v3.4l0.7,0.6V301.1z"/>
	<path fill="#CE9646" d="M183.8,301.1h-0.7v4.7l0.7-0.2V301.1L183.8,301.1z"/>
	<path fill="#CE9646" d="M182.9,301.1h-0.7v4.9h0.7v-4.8V301.1z"/>
	<path fill="#CE9646" d="M185.6,301.1h-0.7v4.2l0.7-0.4V301.1z"/>
	<path fill="#CE9646" d="M181.1,301.1h-0.7v5.1h0.7V301.1L181.1,301.1z"/>
	<path fill="#CE9646" d="M179.4,306.2h0.7v-5.1h-0.7V306.2z"/>
	<path fill="#CE9646" d="M182,301.1h-0.7v5h0.7V301.1L182,301.1z"/>
	<path fill="#CE9646" d="M179.2,301.1h-0.7v5.1h0.7V301.1z"/>
	<path fill="#CE9646" d="M178.3,301.1h-0.7v5.1h0.7V301.1z"/>
	<path fill="#CE9646" d="M177.4,301.1h-0.7v5h0.7V301.1L177.4,301.1z"/>
	<path fill="#CE9646" d="M185.8,301.1v3.6c0.2-0.2,0.4-0.4,0.4-0.7v-3h-0.4V301.1z"/>
	<path fill="#CE9646" d="M175.6,301.1h-0.7v4.7h0.7V301.1L175.6,301.1z"/>
	<path fill="#CE9646" d="M176.5,301.1h-0.7v4.9h0.7V301.1L176.5,301.1z"/>
	<path fill="#CE9646" d="M174.7,301.1H174v4.4l0.7,0.2V301.1L174.7,301.1z"/>
	<path fill="#CE9646" d="M173.8,301.1h-0.7v4.1l0.7,0.3V301.1L173.8,301.1z"/>
	<ellipse fill="#EBB650" cx="179" cy="301.1" rx="7.1" ry="2.2"/>
	<path fill="#EBB650" d="M172.5,297.5v3c0,1.2,3.2,2.2,7.1,2.2s7.1-1,7.1-2.2v-3H172.5z"/>
	<path fill="#CE9646" d="M185.2,297.5h-0.7v4.5l0.7-0.3V297.5L185.2,297.5z"/>
	<path fill="#CE9646" d="M173.4,297.5h-0.7v3.4l0.7,0.6V297.5z"/>
	<path fill="#CE9646" d="M184.3,297.5h-0.7v4.7l0.7-0.2V297.5L184.3,297.5z"/>
	<path fill="#CE9646" d="M183.4,297.5h-0.7v4.9h0.7v-4.8V297.5z"/>
	<path fill="#CE9646" d="M186.1,297.5h-0.7v4.2l0.7-0.4V297.5z"/>
	<path fill="#CE9646" d="M181.6,297.5h-0.7v5.1h0.7V297.5L181.6,297.5z"/>
	<path fill="#CE9646" d="M180,302.6h0.7v-5.1H180V302.6z"/>
	<path fill="#CE9646" d="M182.5,297.5h-0.7v5h0.7V297.5L182.5,297.5z"/>
	<path fill="#CE9646" d="M179.8,297.5h-0.7v5.1h0.7V297.5z"/>
	<path fill="#CE9646" d="M178.9,297.5h-0.7v5.1h0.7V297.5z"/>
	<path fill="#CE9646" d="M178,297.5h-0.7v5h0.7V297.5L178,297.5z"/>
	<path fill="#CE9646" d="M186.3,297.5v3.6c0.2-0.2,0.4-0.4,0.4-0.7v-3h-0.4V297.5z"/>
	<path fill="#CE9646" d="M176.2,297.5h-0.7v4.7h0.7V297.5L176.2,297.5z"/>
	<path fill="#CE9646" d="M177.1,297.5h-0.7v4.9h0.7V297.5L177.1,297.5z"/>
	<path fill="#CE9646" d="M175.3,297.5h-0.8v4.4l0.7,0.2v-4.7L175.3,297.5z"/>
	<path fill="#CE9646" d="M174.3,297.5h-0.7v4.1l0.7,0.3V297.5L174.3,297.5z"/>
	<ellipse fill="#EBB650" cx="179.6" cy="297.4" rx="7.1" ry="2.2"/>
	<path fill="#EBB650" d="M172,293.2v3c0,1.2,3.2,2.2,7.1,2.2s7.1-1,7.1-2.2v-3H172L172,293.2z"/>
	<path fill="#CE9646" d="M184.7,293.2H184v4.5l0.7-0.3V293.2L184.7,293.2z"/>
	<path fill="#CE9646" d="M172.9,293.2h-0.7v3.4l0.7,0.6V293.2z"/>
	<path fill="#CE9646" d="M183.8,293.2h-0.7v4.7l0.7-0.2V293.2L183.8,293.2z"/>
	<path fill="#CE9646" d="M182.9,293.2h-0.7v4.9h0.7v-4.8V293.2z"/>
	<path fill="#CE9646" d="M185.6,293.2h-0.7v4.2l0.7-0.4V293.2z"/>
	<path fill="#CE9646" d="M181.1,293.2h-0.7v5.1h0.7V293.2L181.1,293.2z"/>
	<path fill="#CE9646" d="M179.4,298.3h0.7v-5.1h-0.7V298.3z"/>
	<path fill="#CE9646" d="M182,293.2h-0.7v5h0.7V293.2L182,293.2z"/>
	<path fill="#CE9646" d="M179.2,293.2h-0.7v5.1h0.7V293.2z"/>
	<path fill="#CE9646" d="M178.3,293.2h-0.7v5.1h0.7V293.2z"/>
	<path fill="#CE9646" d="M177.4,293.2h-0.7v5h0.7V293.2L177.4,293.2z"/>
	<path fill="#CE9646" d="M185.8,293.2v3.6c0.2-0.2,0.4-0.4,0.4-0.7v-3h-0.4V293.2z"/>
	<path fill="#CE9646" d="M175.6,293.2h-0.7v4.7h0.7V293.2L175.6,293.2z"/>
	<path fill="#CE9646" d="M176.5,293.2h-0.7v4.8h0.7v-5V293.2z"/>
	<path fill="#CE9646" d="M174.7,293.2H174v4.4l0.7,0.2V293.2L174.7,293.2z"/>
	<path fill="#CE9646" d="M173.8,293.2h-0.7v4.1l0.7,0.3V293.2L173.8,293.2z"/>
	<ellipse fill="#EBB650" cx="179" cy="293.2" rx="7.1" ry="2.2"/>
	<path fill="#EBB650" d="M172.5,289.5v3c0,1.2,3.2,2.2,7.1,2.2s7.1-1,7.1-2.2v-3H172.5z"/>
	<path fill="#CE9646" d="M185.2,289.5h-0.7v4.5l0.7-0.3V289.5L185.2,289.5z"/>
	<path fill="#CE9646" d="M173.4,289.5h-0.7v3.4l0.7,0.6V289.5z"/>
	<path fill="#CE9646" d="M184.3,289.5h-0.7v4.7l0.7-0.2V289.5L184.3,289.5z"/>
	<path fill="#CE9646" d="M183.4,289.5h-0.7v4.9h0.7v-4.8V289.5z"/>
	<path fill="#CE9646" d="M186.1,289.5h-0.7v4.2l0.7-0.4V289.5z"/>
	<path fill="#CE9646" d="M181.6,289.5h-0.7v5.1h0.7V289.5L181.6,289.5z"/>
	<path fill="#CE9646" d="M180,294.6h0.7v-5.1H180V294.6z"/>
	<path fill="#CE9646" d="M182.5,289.5h-0.7v5h0.7V289.5L182.5,289.5z"/>
	<path fill="#CE9646" d="M179.8,289.5h-0.7v5.1h0.7V289.5z"/>
	<path fill="#CE9646" d="M178.9,289.5h-0.7v5.1h0.7V289.5z"/>
	<path fill="#CE9646" d="M178,289.5h-0.7v5h0.7V289.5L178,289.5z"/>
	<path fill="#CE9646" d="M186.3,289.5v3.6c0.2-0.2,0.4-0.4,0.4-0.7v-3h-0.4V289.5z"/>
	<path fill="#CE9646" d="M176.2,289.5h-0.7v4.7h0.7V289.5L176.2,289.5z"/>
	<path fill="#CE9646" d="M177.1,289.5h-0.7v4.9h0.7V289.5L177.1,289.5z"/>
	<path fill="#CE9646" d="M175.3,289.5h-0.8v4.5l0.7,0.2v-4.7H175.3z"/>
	<path fill="#CE9646" d="M174.3,289.5h-0.7v4.1l0.7,0.3V289.5L174.3,289.5z"/>
	<ellipse fill="#EBB650" cx="179.6" cy="289.5" rx="7.1" ry="2.2"/>
	<path fill="#EBB650" d="M172,285.9v3c0,1.2,3.2,2.2,7.1,2.2s7.1-1,7.1-2.2v-3H172L172,285.9z"/>
	<path fill="#CE9646" d="M184.7,285.9H184v4.5l0.7-0.3V285.9L184.7,285.9z"/>
	<path fill="#CE9646" d="M172.9,285.9h-0.7v3.4l0.7,0.6V285.9z"/>
	<path fill="#CE9646" d="M183.8,285.9h-0.7v4.7l0.7-0.2V285.9L183.8,285.9z"/>
	<path fill="#CE9646" d="M182.9,285.9h-0.7v4.9h0.7V286V285.9z"/>
	<path fill="#CE9646" d="M185.6,285.9h-0.7v4.2l0.7-0.4V285.9z"/>
	<path fill="#CE9646" d="M181.1,285.9h-0.7v5.1h0.7V285.9L181.1,285.9z"/>
	<path fill="#CE9646" d="M179.4,291h0.7v-5.1h-0.7V291z"/>
	<path fill="#CE9646" d="M182,285.9h-0.7v5h0.7V285.9L182,285.9z"/>
	<path fill="#CE9646" d="M179.2,285.9h-0.7v5.1h0.7V285.9z"/>
	<path fill="#CE9646" d="M178.3,285.9h-0.7v5.1h0.7V285.9z"/>
	<path fill="#CE9646" d="M177.4,285.9h-0.7v5h0.7V285.9L177.4,285.9z"/>
	<path fill="#CE9646" d="M185.8,285.9v3.6c0.2-0.2,0.4-0.4,0.4-0.7v-3h-0.4V285.9z"/>
	<path fill="#CE9646" d="M175.6,285.9h-0.7v4.7h0.7V285.9L175.6,285.9z"/>
	<path fill="#CE9646" d="M176.5,285.9h-0.7v4.9h0.7V285.9L176.5,285.9z"/>
	<path fill="#CE9646" d="M174.7,285.9H174v4.4l0.7,0.2V285.9L174.7,285.9z"/>
	<path fill="#CE9646" d="M173.8,285.9h-0.7v4.1l0.7,0.3V285.9L173.8,285.9z"/>
	<ellipse fill="#EBB650" cx="179" cy="285.9" rx="7.1" ry="2.2"/>
	<path fill="#EBB650" d="M172.5,282.3v3c0,1.2,3.2,2.2,7.1,2.2s7.1-1,7.1-2.2v-3H172.5z"/>
	<path fill="#CE9646" d="M185.2,282.3h-0.7v4.5l0.7-0.3V282.3L185.2,282.3z"/>
	<path fill="#CE9646" d="M173.4,282.3h-0.7v3.4l0.7,0.6V282.3z"/>
	<path fill="#CE9646" d="M184.3,282.3h-0.7v4.7l0.7-0.2V282.3L184.3,282.3z"/>
	<path fill="#CE9646" d="M183.4,282.3h-0.7v4.9h0.7v-4.8V282.3z"/>
	<path fill="#CE9646" d="M186.1,282.3h-0.7v4.2l0.7-0.4V282.3z"/>
	<path fill="#CE9646" d="M181.6,282.3h-0.7v5.1h0.7V282.3L181.6,282.3z"/>
	<path fill="#CE9646" d="M180,287.4h0.7v-5.1H180V287.4z"/>
	<path fill="#CE9646" d="M182.5,282.3h-0.7v5h0.7V282.3L182.5,282.3z"/>
	<path fill="#CE9646" d="M179.8,282.3h-0.7v5.1h0.7V282.3z"/>
	<path fill="#CE9646" d="M178.9,282.3h-0.7v5.1h0.7V282.3z"/>
	<path fill="#CE9646" d="M178,282.3h-0.7v5h0.7V282.3L178,282.3z"/>
	<path fill="#CE9646" d="M186.3,282.3v3.6c0.2-0.2,0.4-0.4,0.4-0.7v-3h-0.4V282.3z"/>
	<path fill="#CE9646" d="M176.2,282.3h-0.7v4.7h0.7V282.3L176.2,282.3z"/>
	<path fill="#CE9646" d="M177.1,282.3h-0.7v4.9h0.7V282.3L177.1,282.3z"/>
	<path fill="#CE9646" d="M175.3,282.3h-0.8v4.4l0.7,0.2v-4.7L175.3,282.3z"/>
	<path fill="#CE9646" d="M174.3,282.3h-0.7v4.1l0.7,0.3V282.3L174.3,282.3z"/>
	<ellipse fill="#EBB650" cx="179.6" cy="282.2" rx="7.1" ry="2.2"/>
	<path fill="#EBB650" d="M172,277.8v3c0,1.2,3.2,2.2,7.1,2.2s7.1-1,7.1-2.2v-3H172L172,277.8z"/>
	<path fill="#CE9646" d="M184.7,277.8H184v4.5l0.7-0.3V277.8L184.7,277.8z"/>
	<path fill="#CE9646" d="M172.9,277.8h-0.7v3.4l0.7,0.6V277.8z"/>
	<path fill="#CE9646" d="M183.8,277.8h-0.7v4.7l0.7-0.2V277.8L183.8,277.8z"/>
	<path fill="#CE9646" d="M182.9,277.8h-0.7v4.9h0.7v-4.8V277.8z"/>
	<path fill="#CE9646" d="M185.6,277.8h-0.7v4.2l0.7-0.4V277.8z"/>
	<path fill="#CE9646" d="M181.1,277.8h-0.7v5.1h0.7V277.8L181.1,277.8z"/>
	<path fill="#CE9646" d="M179.4,282.9h0.7v-5.1h-0.7V282.9z"/>
	<path fill="#CE9646" d="M182,277.8h-0.7v5h0.7V277.8L182,277.8z"/>
	<path fill="#CE9646" d="M179.2,277.8h-0.7v5.1h0.7V277.8z"/>
	<path fill="#CE9646" d="M178.3,277.8h-0.7v5.1h0.7V277.8z"/>
	<path fill="#CE9646" d="M177.4,277.8h-0.7v5h0.7V277.8L177.4,277.8z"/>
	<path fill="#CE9646" d="M185.8,277.8v3.6c0.2-0.2,0.4-0.4,0.4-0.7v-3h-0.4V277.8z"/>
	<path fill="#CE9646" d="M175.6,277.8h-0.7v4.7h0.7V277.8L175.6,277.8z"/>
	<path fill="#CE9646" d="M176.5,277.8h-0.7v4.9h0.7V277.8L176.5,277.8z"/>
	<path fill="#CE9646" d="M174.7,277.8H174v4.4l0.7,0.2V277.8L174.7,277.8z"/>
	<path fill="#CE9646" d="M173.8,277.8h-0.7v4.1l0.7,0.3V277.8L173.8,277.8z"/>
	<ellipse fill="#EBB650" cx="179" cy="277.8" rx="7.1" ry="2.2"/>
	<path fill="#EBB650" d="M172.5,274.2v3c0,1.2,3.2,2.2,7.1,2.2s7.1-1,7.1-2.2v-3H172.5z"/>
	<path fill="#CE9646" d="M185.2,274.2h-0.7v4.5l0.7-0.3V274.2L185.2,274.2z"/>
	<path fill="#CE9646" d="M173.4,274.2h-0.7v3.4l0.7,0.6V274.2z"/>
	<path fill="#CE9646" d="M184.3,274.2h-0.7v4.7l0.7-0.2V274.2L184.3,274.2z"/>
	<path fill="#CE9646" d="M183.4,274.2h-0.7v4.9h0.7v-4.8V274.2z"/>
	<path fill="#CE9646" d="M186.1,274.2h-0.7v4.2l0.7-0.4V274.2z"/>
	<path fill="#CE9646" d="M181.6,274.2h-0.7v5.1h0.7V274.2L181.6,274.2z"/>
	<path fill="#CE9646" d="M180,279.3h0.7v-5.1H180V279.3z"/>
	<path fill="#CE9646" d="M182.5,274.2h-0.7v5h0.7V274.2L182.5,274.2z"/>
	<path fill="#CE9646" d="M179.8,274.2h-0.7v5.1h0.7V274.2z"/>
	<path fill="#CE9646" d="M178.9,274.2h-0.7v5.1h0.7V274.2z"/>
	<path fill="#CE9646" d="M178,274.2h-0.7v5h0.7V274.2L178,274.2z"/>
	<path fill="#CE9646" d="M186.3,274.2v3.6c0.2-0.2,0.4-0.4,0.4-0.7v-3h-0.4V274.2z"/>
	<path fill="#CE9646" d="M176.2,274.2h-0.7v4.7h0.7V274.2L176.2,274.2z"/>
	<path fill="#CE9646" d="M177.1,274.2h-0.7v4.8h0.7v-5V274.2z"/>
	<path fill="#CE9646" d="M175.3,274.2h-0.8v4.4l0.7,0.2v-4.7L175.3,274.2z"/>
	<path fill="#CE9646" d="M174.3,274.2h-0.7v4.1l0.7,0.3V274.2L174.3,274.2z"/>
	<ellipse fill="#EBB650" cx="179.6" cy="274.1" rx="7.1" ry="2.2"/>
	<path fill="#EBB650" d="M172.5,270.2v3c0,1.2,3.2,2.2,7.1,2.2s7.1-1,7.1-2.2v-3H172.5z"/>
	<path fill="#CE9646" d="M185.2,270.2h-0.7v4.5l0.7-0.3V270.2L185.2,270.2z"/>
	<path fill="#CE9646" d="M173.4,270.2h-0.7v3.4l0.7,0.6V270.2z"/>
	<path fill="#CE9646" d="M184.3,270.2h-0.7v4.8l0.7-0.2V270.2L184.3,270.2z"/>
	<path fill="#CE9646" d="M183.4,270.2h-0.7v4.9h0.7v-4.8V270.2z"/>
	<path fill="#CE9646" d="M186.1,270.2h-0.7v4.2l0.7-0.4V270.2z"/>
	<path fill="#CE9646" d="M181.6,270.2h-0.7v5.1h0.7V270.2L181.6,270.2z"/>
	<path fill="#CE9646" d="M180,275.3h0.7v-5.1H180V275.3z"/>
	<path fill="#CE9646" d="M182.5,270.2h-0.7v5h0.7v-4.9V270.2z"/>
	<path fill="#CE9646" d="M179.8,270.2h-0.7v5.1h0.7V270.2L179.8,270.2z"/>
	<path fill="#CE9646" d="M178.9,270.2h-0.7v5.1h0.7V270.2L178.9,270.2z"/>
	<path fill="#CE9646" d="M178,270.2h-0.7v5h0.7v-5.1V270.2z"/>
	<path fill="#CE9646" d="M186.3,270.2v3.6c0.2-0.2,0.4-0.4,0.4-0.7v-3h-0.4V270.2z"/>
	<path fill="#CE9646" d="M176.2,270.2h-0.7v4.7h0.7V270.2L176.2,270.2z"/>
	<path fill="#CE9646" d="M177.1,270.2h-0.7v4.9h0.7V270.2L177.1,270.2z"/>
	<path fill="#CE9646" d="M175.3,270.2h-0.8v4.4l0.7,0.2v-4.7L175.3,270.2z"/>
	<path fill="#CE9646" d="M174.3,270.2h-0.7v4.1l0.7,0.3V270.2L174.3,270.2z"/>
	<ellipse fill="#EBB650" cx="179.6" cy="270.2" rx="7.1" ry="2.2"/>
	<path fill="#EBB650" d="M172,265.8v3c0,1.2,3.2,2.2,7.1,2.2s7.1-1,7.1-2.2v-3H172L172,265.8z"/>
	<path fill="#CE9646" d="M184.7,265.8H184v4.5l0.7-0.3V265.8L184.7,265.8z"/>
	<path fill="#CE9646" d="M172.9,265.8h-0.7v3.4l0.7,0.6V265.8z"/>
	<path fill="#CE9646" d="M183.8,265.8h-0.7v4.7l0.7-0.2v-4.6V265.8z"/>
	<path fill="#CE9646" d="M182.9,265.8h-0.7v4.9h0.7v-4.8V265.8z"/>
	<path fill="#CE9646" d="M185.6,265.8h-0.7v4.2l0.7-0.4V265.8L185.6,265.8z"/>
	<path fill="#CE9646" d="M181.1,265.8h-0.7v5.1h0.7v-5V265.8z"/>
	<path fill="#CE9646" d="M179.4,270.9h0.7v-5.1h-0.7V270.9z"/>
	<path fill="#CE9646" d="M182,265.8h-0.7v5h0.7v-4.9V265.8z"/>
	<path fill="#CE9646" d="M179.2,265.8h-0.7v5.1h0.7V265.8z"/>
	<path fill="#CE9646" d="M178.3,265.8h-0.7v5.1h0.7V265.8z"/>
	<path fill="#CE9646" d="M177.4,265.8h-0.7v5h0.7v-5.1V265.8z"/>
	<path fill="#CE9646" d="M185.8,265.8v3.6c0.2-0.2,0.4-0.4,0.4-0.7v-3h-0.4V265.8z"/>
	<path fill="#CE9646" d="M175.6,265.8h-0.7v4.7h0.7V265.8L175.6,265.8z"/>
	<path fill="#CE9646" d="M176.5,265.8h-0.7v4.9h0.7v-5V265.8z"/>
	<path fill="#CE9646" d="M174.7,265.8H174v4.4l0.7,0.2v-4.7V265.8z"/>
	<path fill="#CE9646" d="M173.8,265.8h-0.7v4.1l0.7,0.3V265.8z"/>
	<ellipse fill="#EBB650" cx="179" cy="265.8" rx="7.1" ry="2.2"/>
	<path fill="#EBB650" d="M172.5,262.1v3c0,1.2,3.2,2.2,7.1,2.2s7.1-1,7.1-2.2v-3H172.5z"/>
	<path fill="#CE9646" d="M185.2,262.1h-0.7v4.5l0.7-0.3V262.1L185.2,262.1z"/>
	<path fill="#CE9646" d="M173.4,262.1h-0.7v3.4l0.7,0.6V262.1z"/>
	<path fill="#CE9646" d="M184.3,262.1h-0.7v4.7l0.7-0.2V262V262.1z"/>
	<path fill="#CE9646" d="M183.4,262.1h-0.7v4.9h0.7v-4.8V262.1z"/>
	<path fill="#CE9646" d="M186.1,262.1h-0.7v4.2l0.7-0.4V262.1L186.1,262.1z"/>
	<path fill="#CE9646" d="M181.6,262.1h-0.7v5.1h0.7v-5V262.1z"/>
	<path fill="#CE9646" d="M180,267.2h0.7v-5.1H180V267.2z"/>
	<path fill="#CE9646" d="M182.5,262.1h-0.7v5h0.7v-4.9V262.1z"/>
	<path fill="#CE9646" d="M179.8,262.1h-0.7v5.1h0.7V262.1z"/>
	<path fill="#CE9646" d="M178.9,262.1h-0.7v5.1h0.7V262.1z"/>
	<path fill="#CE9646" d="M178,262.1h-0.7v5h0.7V262V262.1z"/>
	<path fill="#CE9646" d="M186.3,262.1v3.6c0.2-0.2,0.4-0.4,0.4-0.7v-3h-0.4V262.1z"/>
	<path fill="#CE9646" d="M176.2,262.1h-0.7v4.7h0.7V262.1L176.2,262.1z"/>
	<path fill="#CE9646" d="M177.1,262.1h-0.7v4.9h0.7v-5V262.1z"/>
	<path fill="#CE9646" d="M175.3,262.1h-0.8v4.4l0.7,0.2V262L175.3,262.1z"/>
	<path fill="#CE9646" d="M174.3,262.1h-0.7v4.1l0.7,0.3V262.1z"/>
	<ellipse fill="#EBB650" cx="179.6" cy="262.1" rx="7.1" ry="2.2"/>
	<path fill="#EBB650" d="M188.3,301.1v3c0,1.2,3.2,2.2,7.1,2.2s7.1-1,7.1-2.2v-3H188.3L188.3,301.1z"/>
	<path fill="#CE9646" d="M201,301.1h-0.7v4.5l0.7-0.3V301.1L201,301.1z"/>
	<path fill="#CE9646" d="M189.2,301.1h-0.7v3.4l0.7,0.6V301.1z"/>
	<path fill="#CE9646" d="M200.1,301.1h-0.7v4.7l0.7-0.2V301.1L200.1,301.1z"/>
	<path fill="#CE9646" d="M199.2,301.1h-0.7v4.9h0.7v-4.8V301.1z"/>
	<path fill="#CE9646" d="M201.9,301.1h-0.7v4.2l0.7-0.4V301.1z"/>
	<path fill="#CE9646" d="M197.4,301.1h-0.7v5.1h0.7V301.1L197.4,301.1z"/>
	<path fill="#CE9646" d="M195.7,306.2h0.7v-5.1h-0.7V306.2z"/>
	<path fill="#CE9646" d="M198.3,301.1h-0.8v5h0.7v-4.9L198.3,301.1z"/>
	<path fill="#CE9646" d="M195.6,301.1h-0.7v5.1h0.7V301.1z"/>
	<path fill="#CE9646" d="M194.6,301.1h-0.7v5.1h0.7V301.1z"/>
	<path fill="#CE9646" d="M193.7,301.1H193v5h0.7V301.1L193.7,301.1z"/>
	<path fill="#CE9646" d="M202.1,301.1v3.6c0.2-0.2,0.4-0.4,0.4-0.7v-3h-0.4V301.1z"/>
	<path fill="#CE9646" d="M191.9,301.1h-0.7v4.7h0.7V301.1L191.9,301.1z"/>
	<path fill="#CE9646" d="M192.8,301.1h-0.7v4.9h0.7V301.1L192.8,301.1z"/>
	<path fill="#CE9646" d="M191,301.1h-0.7v4.4l0.7,0.2V301.1L191,301.1z"/>
	<path fill="#CE9646" d="M190.1,301.1h-0.7v4.1l0.7,0.3V301.1L190.1,301.1z"/>
	<ellipse fill="#EBB650" cx="195.3" cy="301.1" rx="7.1" ry="2.2"/>
	<path fill="#EBB650" d="M188.8,297.5v3c0,1.2,3.2,2.2,7.1,2.2s7.1-1,7.1-2.2v-3H188.8L188.8,297.5z"/>
	<path fill="#CE9646" d="M201.5,297.5h-0.7v4.5l0.7-0.3V297.5L201.5,297.5z"/>
	<path fill="#CE9646" d="M189.8,297.5h-0.7v3.4l0.7,0.6V297.5z"/>
	<path fill="#CE9646" d="M200.6,297.5h-0.7v4.7l0.7-0.2V297.5L200.6,297.5z"/>
	<path fill="#CE9646" d="M199.7,297.5H199v4.9h0.7v-4.8V297.5z"/>
	<path fill="#CE9646" d="M202.5,297.5h-0.7v4.2l0.7-0.4V297.5z"/>
	<path fill="#CE9646" d="M197.9,297.5h-0.7v5.1h0.7V297.5L197.9,297.5z"/>
	<path fill="#CE9646" d="M196.3,302.6h0.7v-5.1h-0.7V302.6z"/>
	<path fill="#CE9646" d="M198.8,297.5h-0.7v5h0.7V297.5L198.8,297.5z"/>
	<path fill="#CE9646" d="M196.1,297.5h-0.7v5.1h0.7V297.5z"/>
	<path fill="#CE9646" d="M195.2,297.5h-0.7v5.1h0.7V297.5z"/>
	<path fill="#CE9646" d="M194.3,297.5h-0.7v5h0.7V297.5L194.3,297.5z"/>
	<path fill="#CE9646" d="M202.6,297.5v3.6c0.2-0.2,0.4-0.4,0.4-0.7v-3h-0.4V297.5z"/>
	<path fill="#CE9646" d="M192.5,297.5h-0.7v4.7h0.7V297.5L192.5,297.5z"/>
	<path fill="#CE9646" d="M193.4,297.5h-0.7v4.9h0.7V297.5L193.4,297.5z"/>
	<path fill="#CE9646" d="M191.6,297.5h-0.7v4.4l0.7,0.2V297.5L191.6,297.5z"/>
	<path fill="#CE9646" d="M190.7,297.5H190v4.1l0.7,0.3V297.5L190.7,297.5z"/>
	<ellipse fill="#EBB650" cx="195.9" cy="297.4" rx="7.1" ry="2.2"/>
	<path fill="#EBB650" d="M188.3,293.2v3c0,1.2,3.2,2.2,7.1,2.2s7.1-1,7.1-2.2v-3H188.3L188.3,293.2z"/>
	<path fill="#CE9646" d="M201,293.2h-0.7v4.5l0.7-0.3V293.2L201,293.2z"/>
	<path fill="#CE9646" d="M189.2,293.2h-0.7v3.4l0.7,0.6V293.2z"/>
	<path fill="#CE9646" d="M200.1,293.2h-0.7v4.7l0.7-0.2V293.2L200.1,293.2z"/>
	<path fill="#CE9646" d="M199.2,293.2h-0.7v4.9h0.7v-4.8V293.2z"/>
	<path fill="#CE9646" d="M201.9,293.2h-0.7v4.2l0.7-0.4V293.2z"/>
	<path fill="#CE9646" d="M197.4,293.2h-0.7v5.1h0.7V293.2L197.4,293.2z"/>
	<path fill="#CE9646" d="M195.7,298.3h0.7v-5.1h-0.7V298.3z"/>
	<path fill="#CE9646" d="M198.3,293.2h-0.8v5h0.7v-4.9L198.3,293.2z"/>
	<path fill="#CE9646" d="M195.6,293.2h-0.7v5.1h0.7V293.2z"/>
	<path fill="#CE9646" d="M194.6,293.2h-0.7v5.1h0.7V293.2z"/>
	<path fill="#CE9646" d="M193.7,293.2H193v5h0.7V293.2L193.7,293.2z"/>
	<path fill="#CE9646" d="M202.1,293.2v3.6c0.2-0.2,0.4-0.4,0.4-0.7v-3h-0.4V293.2z"/>
	<path fill="#CE9646" d="M191.9,293.2h-0.7v4.7h0.7V293.2L191.9,293.2z"/>
	<path fill="#CE9646" d="M192.8,293.2h-0.7v4.8h0.7v-5V293.2z"/>
	<path fill="#CE9646" d="M191,293.2h-0.7v4.4l0.7,0.2V293.2L191,293.2z"/>
	<path fill="#CE9646" d="M190.1,293.2h-0.7v4.1l0.7,0.3V293.2L190.1,293.2z"/>
	<ellipse fill="#EBB650" cx="195.3" cy="293.2" rx="7.1" ry="2.2"/>
	<path fill="#EBB650" d="M188.8,289.5v3c0,1.2,3.2,2.2,7.1,2.2s7.1-1,7.1-2.2v-3H188.8L188.8,289.5z"/>
	<path fill="#CE9646" d="M201.5,289.5h-0.7v4.5l0.7-0.3V289.5L201.5,289.5z"/>
	<path fill="#CE9646" d="M189.8,289.5h-0.7v3.4l0.7,0.6V289.5z"/>
	<path fill="#CE9646" d="M200.6,289.5h-0.7v4.7l0.7-0.2V289.5L200.6,289.5z"/>
	<path fill="#CE9646" d="M199.7,289.5H199v4.9h0.7v-4.8V289.5z"/>
	<path fill="#CE9646" d="M202.5,289.5h-0.7v4.2l0.7-0.4V289.5z"/>
	<path fill="#CE9646" d="M197.9,289.5h-0.7v5.1h0.7V289.5L197.9,289.5z"/>
	<path fill="#CE9646" d="M196.3,294.6h0.7v-5.1h-0.7V294.6z"/>
	<path fill="#CE9646" d="M198.8,289.5h-0.7v5h0.7V289.5L198.8,289.5z"/>
	<path fill="#CE9646" d="M196.1,289.5h-0.7v5.1h0.7V289.5z"/>
	<path fill="#CE9646" d="M195.2,289.5h-0.7v5.1h0.7V289.5z"/>
	<path fill="#CE9646" d="M194.3,289.5h-0.7v5h0.7V289.5L194.3,289.5z"/>
	<path fill="#CE9646" d="M202.6,289.5v3.6c0.2-0.2,0.4-0.4,0.4-0.7v-3h-0.4V289.5z"/>
	<path fill="#CE9646" d="M192.5,289.5h-0.7v4.7h0.7V289.5L192.5,289.5z"/>
	<path fill="#CE9646" d="M193.4,289.5h-0.7v4.9h0.7V289.5L193.4,289.5z"/>
	<path fill="#CE9646" d="M191.6,289.5h-0.7v4.5l0.7,0.2V289.5z"/>
	<path fill="#CE9646" d="M190.7,289.5H190v4.1l0.7,0.3V289.5L190.7,289.5z"/>
	<ellipse fill="#EBB650" cx="195.9" cy="289.5" rx="7.1" ry="2.2"/>
	<path fill="#EBB650" d="M188.3,285.9v3c0,1.2,3.2,2.2,7.1,2.2s7.1-1,7.1-2.2v-3H188.3L188.3,285.9z"/>
	<path fill="#CE9646" d="M201,285.9h-0.7v4.5l0.7-0.3V285.9L201,285.9z"/>
	<path fill="#CE9646" d="M189.2,285.9h-0.7v3.4l0.7,0.6V285.9z"/>
	<path fill="#CE9646" d="M200.1,285.9h-0.7v4.7l0.7-0.2V285.9L200.1,285.9z"/>
	<path fill="#CE9646" d="M199.2,285.9h-0.7v4.9h0.7V286V285.9z"/>
	<path fill="#CE9646" d="M201.9,285.9h-0.7v4.2l0.7-0.4V285.9z"/>
	<path fill="#CE9646" d="M197.4,285.9h-0.7v5.1h0.7V285.9L197.4,285.9z"/>
	<path fill="#CE9646" d="M195.7,291h0.7v-5.1h-0.7V291z"/>
	<path fill="#CE9646" d="M198.3,285.9h-0.8v5h0.7V286L198.3,285.9z"/>
	<path fill="#CE9646" d="M195.6,285.9h-0.7v5.1h0.7V285.9z"/>
	<path fill="#CE9646" d="M194.6,285.9h-0.7v5.1h0.7V285.9z"/>
	<path fill="#CE9646" d="M193.7,285.9H193v5h0.7V285.9L193.7,285.9z"/>
	<path fill="#CE9646" d="M202.1,285.9v3.6c0.2-0.2,0.4-0.4,0.4-0.7v-3h-0.4V285.9z"/>
	<path fill="#CE9646" d="M191.9,285.9h-0.7v4.7h0.7V285.9L191.9,285.9z"/>
	<path fill="#CE9646" d="M192.8,285.9h-0.7v4.9h0.7V285.9L192.8,285.9z"/>
	<path fill="#CE9646" d="M191,285.9h-0.7v4.4l0.7,0.2V285.9L191,285.9z"/>
	<path fill="#CE9646" d="M190.1,285.9h-0.7v4.1l0.7,0.3V285.9L190.1,285.9z"/>
	<ellipse fill="#EBB650" cx="195.3" cy="285.9" rx="7.1" ry="2.2"/>
	<path fill="#EBB650" d="M188.8,282.3v3c0,1.2,3.2,2.2,7.1,2.2s7.1-1,7.1-2.2v-3H188.8L188.8,282.3z"/>
	<path fill="#CE9646" d="M201.5,282.3h-0.7v4.5l0.7-0.3V282.3L201.5,282.3z"/>
	<path fill="#CE9646" d="M189.8,282.3h-0.7v3.4l0.7,0.6V282.3z"/>
	<path fill="#CE9646" d="M200.6,282.3h-0.7v4.7l0.7-0.2V282.3L200.6,282.3z"/>
	<path fill="#CE9646" d="M199.7,282.3H199v4.9h0.7v-4.8V282.3z"/>
	<path fill="#CE9646" d="M202.5,282.3h-0.7v4.2l0.7-0.4V282.3z"/>
	<path fill="#CE9646" d="M197.9,282.3h-0.7v5.1h0.7V282.3L197.9,282.3z"/>
	<path fill="#CE9646" d="M196.3,287.4h0.7v-5.1h-0.7V287.4z"/>
	<path fill="#CE9646" d="M198.8,282.3h-0.7v5h0.7V282.3L198.8,282.3z"/>
	<path fill="#CE9646" d="M196.1,282.3h-0.7v5.1h0.7V282.3z"/>
	<path fill="#CE9646" d="M195.2,282.3h-0.7v5.1h0.7V282.3z"/>
	<path fill="#CE9646" d="M194.3,282.3h-0.7v5h0.7V282.3L194.3,282.3z"/>
	<path fill="#CE9646" d="M202.6,282.3v3.6c0.2-0.2,0.4-0.4,0.4-0.7v-3h-0.4V282.3z"/>
	<path fill="#CE9646" d="M192.5,282.3h-0.7v4.7h0.7V282.3L192.5,282.3z"/>
	<path fill="#CE9646" d="M193.4,282.3h-0.7v4.9h0.7V282.3L193.4,282.3z"/>
	<path fill="#CE9646" d="M191.6,282.3h-0.7v4.4l0.7,0.2V282.3L191.6,282.3z"/>
	<path fill="#CE9646" d="M190.7,282.3H190v4.1l0.7,0.3V282.3L190.7,282.3z"/>
	<ellipse fill="#EBB650" cx="195.9" cy="282.2" rx="7.1" ry="2.2"/>
	<path fill="#FFFFFF" d="M177,290.7c-3.7-0.5-7.4-0.7-11.1-0.6l2-2.2l2-2.3l0,0c-1.6,1.2-3.2,2.6-4.6,4c0.1-3.7-0.1-7.5-0.6-11.2
		c-0.5,3.7-0.7,7.5-0.6,11.2c-1.4-1.4-3-2.8-4.6-4c1.2,1.6,2.6,3.2,4,4.6H163c-1.3-0.1-2.6-0.1-3.9,0l-6.4,0.6h-0.4l1.2,0.2l4.2,0.4
		h5.8c-1.4,1.4-2.8,3-4,4.6c1.6-1.2,3.2-2.6,4.6-4c-0.2,1.9-0.2,3.7,0,5.6c0.1,1.9,0.3,3.7,0.5,5.6h0.1c0.5-3.7,0.7-7.5,0.6-11.2
		l1.1,1.1l1.1,1l1.2,1l1.2,0.9l0,0c-1.2-1.6-2.6-3.2-4-4.6C169.7,291.5,173.4,291.3,177,290.7z"/>
	<path fill="#FFFFFF" d="M186.7,270c-2.7-0.4-5.5-0.6-8.3-0.5l1.5-1.7l1.5-1.8l0,0c-1.2,0.9-2.3,1.9-3.4,3c0.1-2.8-0.1-5.6-0.5-8.4
		c-0.4,2.8-0.6,5.6-0.5,8.4c-1.1-1.1-2.3-2.1-3.5-3c0.9,1.2,1.9,2.4,3,3.5h-3.3l-4.8,0.4h0.6l3.1,0.3h4.4c-1.1,1.1-2.1,2.3-3,3.5
		c1.2-0.9,2.4-1.9,3.5-3c-0.1,1.4-0.1,2.8,0,4.2c0.1,1.4,0.2,2.8,0.4,4.2h0.1c0.4-2.8,0.5-5.6,0.4-8.4l0.8,0.8l0.9,0.8l0.9,0.7
		l0.9,0.7l0,0c-0.9-1.2-1.9-2.3-3-3.4C181.2,270.4,184,270.3,186.7,270z"/>
	<path fill="#FFFFFF" d="M206.7,288.6c-2.7-0.4-5.5-0.6-8.3-0.5l1.5-1.7l1.5-1.8l0,0c-1.2,0.9-2.3,1.9-3.4,3
		c0.1-2.8-0.1-5.6-0.5-8.4c-0.4,2.8-0.6,5.6-0.5,8.4c-1.1-1.1-2.3-2.1-3.5-3c0.9,1.2,1.9,2.4,3,3.5h-3.3l-4.8,0.4h0.6l3.1,0.3h4.4
		c-1.1,1.1-2.1,2.3-3,3.5c1.2-0.9,2.4-1.9,3.5-3c-0.1,1.4-0.1,2.8,0,4.2c0.1,1.4,0.2,2.8,0.4,4.2h0.1c0.4-2.8,0.5-5.6,0.4-8.4
		l0.8,0.8l0.9,0.8l0.9,0.7l0.9,0.7l0,0c-0.9-1.2-1.9-2.3-3-3.4C201.2,289,204,288.9,206.7,288.6z"/>
</g>
</svg>
