<svg xmlns="http://www.w3.org/2000/svg" xmlns:xlink="http://www.w3.org/1999/xlink" viewBox="0 0 534.6 315.1"><defs><style>.cls-1,.cls-10,.cls-11,.cls-12,.cls-13,.cls-22,.cls-23,.cls-9{fill:none;}.cls-2{isolation:isolate;}.cls-24,.cls-3,.cls-45{fill:#fff;}.cls-4{clip-path:url(#clip-path);}.cls-5{fill:#152430;}.cls-6{fill:#ecf0f1;}.cls-7{opacity:0.15;}.cls-8{fill:#0084b0;}.cls-10,.cls-11,.cls-12,.cls-13,.cls-22,.cls-9{stroke:#fff;}.cls-10,.cls-11,.cls-12,.cls-13,.cls-22,.cls-23,.cls-24,.cls-33,.cls-35,.cls-9{stroke-miterlimit:10;}.cls-10{stroke-dasharray:4.98 2.99;}.cls-11{stroke-dasharray:5.05 3.03;}.cls-12{stroke-dasharray:4.78 2.87;}.cls-13{stroke-dasharray:5 3;}.cls-14{clip-path:url(#clip-path-2);}.cls-15,.cls-33,.cls-34{fill:#050505;}.cls-16{fill:#f4d8c6;}.cls-17{fill:#e8c9b8;}.cls-18{fill:#feefde;}.cls-19{fill:#e0e0e0;}.cls-20{fill:#eac3a9;}.cls-21{fill:#289cae;}.cls-22{stroke-width:0.3px;}.cls-23{stroke:#d8d8d8;stroke-dasharray:1.97 0.99;}.cls-24{stroke:#202933;}.cls-25{fill:#d8d8d8;}.cls-26{fill:#ebb650;}.cls-27{clip-path:url(#clip-path-3);}.cls-28{fill:#35333c;}.cls-29{fill:#aa6c49;}.cls-30{fill:#915639;}.cls-31{fill:#c6875e;}.cls-32{fill:#0d4870;}.cls-33,.cls-34{stroke:#dbc7bd;stroke-width:0.25px;}.cls-34{stroke-linecap:round;stroke-linejoin:round;}.cls-35{fill:#262626;stroke:#262626;}.cls-36{fill:#9b6043;}.cls-37{clip-path:url(#clip-path-4);}.cls-38,.cls-40{fill:#e9cab6;}.cls-39{fill:#d6b7a3;}.cls-39,.cls-40{mix-blend-mode:multiply;}.cls-40{opacity:0.8;}.cls-41{fill:#895b2e;}.cls-42{fill:#4c3e34;}.cls-43{clip-path:url(#clip-path-5);}.cls-44{fill:#0084ae;}.cls-45{font-size:13.47px;font-family:Lato;}</style><clipPath id="clip-path" transform="translate(-309.7 -2292.8)"><circle class="cls-1" cx="356.6" cy="2391" r="42.6"/></clipPath><clipPath id="clip-path-2" transform="translate(-309.7 -2292.8)"><circle class="cls-1" cx="760.8" cy="2396.9" r="44.3"/></clipPath><clipPath id="clip-path-3" transform="translate(-309.7 -2292.8)"><circle class="cls-1" cx="559.5" cy="2396.5" r="62.6"/></clipPath><clipPath id="clip-path-4" transform="translate(-309.7 -2292.8)"><circle class="cls-1" cx="457.9" cy="2525.6" r="44.3"/></clipPath><clipPath id="clip-path-5" transform="translate(-309.7 -2292.8)"><circle class="cls-1" cx="657.9" cy="2525.6" r="42.6"/></clipPath></defs><title>how token works</title><g class="cls-2"><g id="Grid"><circle class="cls-3" cx="46.8" cy="98.2" r="46.8"/><g class="cls-4"><rect id="_Rectangle_" data-name="&lt;Rectangle&gt;" class="cls-5" x="48.8" y="93.8" width="29.7" height="58.59"/><g id="_Group_" data-name="&lt;Group&gt;"><g id="_Group_2" data-name="&lt;Group&gt;"><rect id="_Rectangle_2" data-name="&lt;Rectangle&gt;" class="cls-6" x="52.8" y="98.2" width="5.7" height="7.65"/><rect id="_Rectangle_3" data-name="&lt;Rectangle&gt;" class="cls-6" x="60.9" y="98.2" width="5.7" height="7.65"/><rect id="_Rectangle_4" data-name="&lt;Rectangle&gt;" class="cls-6" x="69" y="98.2" width="5.7" height="7.65"/></g><g id="_Group_3" data-name="&lt;Group&gt;"><rect id="_Rectangle_5" data-name="&lt;Rectangle&gt;" class="cls-6" x="52.8" y="108.8" width="5.7" height="7.65"/><rect id="_Rectangle_6" data-name="&lt;Rectangle&gt;" class="cls-6" x="60.9" y="108.8" width="5.7" height="7.65"/><rect id="_Rectangle_7" data-name="&lt;Rectangle&gt;" class="cls-6" x="69" y="108.8" width="5.7" height="7.65"/></g><g id="_Group_4" data-name="&lt;Group&gt;"><rect id="_Rectangle_8" data-name="&lt;Rectangle&gt;" class="cls-6" x="52.8" y="119.4" width="5.7" height="7.65"/><rect id="_Rectangle_9" data-name="&lt;Rectangle&gt;" class="cls-6" x="60.9" y="119.4" width="5.7" height="7.65"/><rect id="_Rectangle_10" data-name="&lt;Rectangle&gt;" class="cls-6" x="69" y="119.4" width="5.7" height="7.65"/></g><g id="_Group_5" data-name="&lt;Group&gt;"><rect id="_Rectangle_11" data-name="&lt;Rectangle&gt;" class="cls-6" x="52.8" y="130" width="5.7" height="7.65"/><rect id="_Rectangle_12" data-name="&lt;Rectangle&gt;" class="cls-6" x="60.9" y="130" width="5.7" height="7.65"/><rect id="_Rectangle_13" data-name="&lt;Rectangle&gt;" class="cls-6" x="69" y="130" width="5.7" height="7.65"/></g><g id="_Group_6" data-name="&lt;Group&gt;"><rect id="_Rectangle_14" data-name="&lt;Rectangle&gt;" class="cls-6" x="52.8" y="140.6" width="5.7" height="7.65"/><rect id="_Rectangle_15" data-name="&lt;Rectangle&gt;" class="cls-6" x="60.9" y="140.6" width="5.7" height="7.65"/><rect id="_Rectangle_16" data-name="&lt;Rectangle&gt;" class="cls-6" x="69" y="140.6" width="5.7" height="7.65"/></g></g><rect id="_Rectangle_17" data-name="&lt;Rectangle&gt;" class="cls-7" x="42.2" y="93.8" width="21.8" height="56.36"/><rect id="_Rectangle_18" data-name="&lt;Rectangle&gt;" class="cls-8" x="18" y="73.9" width="38.5" height="75.83"/><g id="_Group_7" data-name="&lt;Group&gt;"><g id="_Group_8" data-name="&lt;Group&gt;"><rect id="_Rectangle_19" data-name="&lt;Rectangle&gt;" class="cls-6" x="23.1" y="79.6" width="7.3" height="9.9"/><rect id="_Rectangle_20" data-name="&lt;Rectangle&gt;" class="cls-6" x="33.6" y="79.6" width="7.3" height="9.9"/><rect id="_Rectangle_21" data-name="&lt;Rectangle&gt;" class="cls-6" x="44.1" y="79.6" width="7.3" height="9.9"/></g><g id="_Group_9" data-name="&lt;Group&gt;"><rect id="_Rectangle_22" data-name="&lt;Rectangle&gt;" class="cls-6" x="23.1" y="93.4" width="7.3" height="9.9"/><rect id="_Rectangle_23" data-name="&lt;Rectangle&gt;" class="cls-6" x="33.6" y="93.4" width="7.3" height="9.9"/><rect id="_Rectangle_24" data-name="&lt;Rectangle&gt;" class="cls-6" x="44.1" y="93.4" width="7.3" height="9.9"/></g><g id="_Group_10" data-name="&lt;Group&gt;"><rect id="_Rectangle_25" data-name="&lt;Rectangle&gt;" class="cls-6" x="23.1" y="107.1" width="7.3" height="9.9"/><rect id="_Rectangle_26" data-name="&lt;Rectangle&gt;" class="cls-6" x="33.6" y="107.1" width="7.3" height="9.9"/><rect id="_Rectangle_27" data-name="&lt;Rectangle&gt;" class="cls-6" x="44.1" y="107.1" width="7.3" height="9.9"/></g><g id="_Group_11" data-name="&lt;Group&gt;"><rect id="_Rectangle_28" data-name="&lt;Rectangle&gt;" class="cls-6" x="23.1" y="120.8" width="7.3" height="9.9"/><rect id="_Rectangle_29" data-name="&lt;Rectangle&gt;" class="cls-6" x="33.6" y="120.8" width="7.3" height="9.9"/><rect id="_Rectangle_30" data-name="&lt;Rectangle&gt;" class="cls-6" x="44.1" y="120.8" width="7.3" height="9.9"/></g><g id="_Group_12" data-name="&lt;Group&gt;"><rect id="_Rectangle_31" data-name="&lt;Rectangle&gt;" class="cls-6" x="23.1" y="134.6" width="7.3" height="9.9"/><rect id="_Rectangle_32" data-name="&lt;Rectangle&gt;" class="cls-6" x="33.6" y="134.6" width="7.3" height="9.9"/><rect id="_Rectangle_33" data-name="&lt;Rectangle&gt;" class="cls-6" x="44.1" y="134.6" width="7.3" height="9.9"/></g></g></g><line class="cls-9" x1="94.3" y1="103.7" x2="96.8" y2="103.7"/><line class="cls-10" x1="99.8" y1="103.7" x2="400.9" y2="103.7"/><line class="cls-9" x1="402.4" y1="103.7" x2="404.9" y2="103.7"/><line class="cls-9" x1="64.6" y1="233.7" x2="67.1" y2="233.7"/><line class="cls-11" x1="70.1" y1="233.7" x2="432.2" y2="233.7"/><line class="cls-9" x1="433.8" y1="233.7" x2="436.3" y2="233.7"/><line class="cls-9" x1="452.3" y1="157.1" x2="452.3" y2="159.6"/><line class="cls-12" x1="452.3" y1="162.4" x2="452.3" y2="229.8"/><line class="cls-9" x1="452.3" y1="231.2" x2="452.3" y2="233.7"/><line class="cls-13" x1="250" y1="29.5" x2="250" y2="106.2"/><line class="cls-13" x1="148.4" y1="209.9" x2="148.4" y2="286.5"/><line class="cls-13" x1="505.7" y1="103.2" x2="429.1" y2="103.2"/><line class="cls-9" x1="47.3" y1="145.1" x2="47.3" y2="147.6"/><line class="cls-12" x1="47.3" y1="150.4" x2="47.3" y2="217.8"/><line class="cls-9" x1="47.3" y1="219.2" x2="47.3" y2="221.7"/><circle class="cls-3" cx="451" cy="104.1" r="46.8"/><g class="cls-14"><path class="cls-15" d="M451.1,73.2H452a18.4,18.4,0,0,1,18.4,18.4v18.4a0,0,0,0,1,0,0H432.7a0,0,0,0,1,0,0V91.5A18.4,18.4,0,0,1,451.1,73.2Z"/><polygon class="cls-16" points="458.8 114.2 457 113.3 457 107.6 445.4 107.6 445.4 113.3 443.5 114.1 444 130.4 445.4 130.4 445.4 132.9 457 132.9 457 130.4 458.3 130.4 458.8 114.2"/><polygon class="cls-17" points="445.4 107.6 445.4 111.2 457 112.9 457 107.6 445.4 107.6"/><path class="cls-18" d="M773.6,2383.3l0.4-5.1c0-6.7-6.4-12.1-13-12.1s-13,5.4-13,12.1l0.4,5.1-1,.5a2.4,2.4,0,0,0-.9,1.8v2.5a2.4,2.4,0,0,0,2.4,2.4c0,6.3,7.6,12.3,12.1,12.3s12.1-6,12.1-12.3a2.4,2.4,0,0,0,2.4-2.4v-2.5A2.4,2.4,0,0,0,773.6,2383.3Z" transform="translate(-309.7 -2292.8)"/><path class="cls-16" d="M773.6,2383.3l0.4-5.1c0-6.7-6.4-12.1-13-12.1h0v17.4a50.4,50.4,0,0,0-2.9,9.2H761v10.2h0c4.5,0,12.1-6,12.1-12.3a2.4,2.4,0,0,0,2.4-2.4v-2.5A2.4,2.4,0,0,0,773.6,2383.3Z" transform="translate(-309.7 -2292.8)"/><path class="cls-15" d="M757,2395.5h7.6a0.3,0.3,0,0,1,.2.5,7.2,7.2,0,0,1-7.9,0A0.3,0.3,0,0,1,757,2395.5Z" transform="translate(-309.7 -2292.8)"/><path class="cls-19" d="M753.1,2407l0.4,1.6c0.7,2.1,2.7,2.7,7.2,2.7s7.1-1.5,7.7-3.4l0.2-.9c9.4,3.5,6.5,33.1,6.5,33.1v24.5H745.7l0.4-24.5S743.7,2410.5,753.1,2407Z" transform="translate(-309.7 -2292.8)"/><path class="cls-5" d="M792.4,2440a13.1,13.1,0,0,0,0-8.3c-1.8-5.2-5.1-16.1-6.1-18.2-2.1-4.6-8.9-4.4-17.4-7.3l-0.9-.3h0c-0.5,2.9-7.1,32.4-7.1,32.4s-6.6-29.5-7.1-32.4h0l-0.9.3c-8.5,2.9-15.3,2.7-17.4,7.3-0.9,2.1-4.3,13-6.1,18.2a13.1,13.1,0,0,0,0,8.3,90,90,0,0,0,7.7,16.6,5.6,5.6,0,0,0,6.1,2.5c-0.3,1.2-2.1,6.6-2.1,6.6h39.3c0.3,0-1.6-5.4-1.9-6.6a5.6,5.6,0,0,0,6.1-2.5A90,90,0,0,0,792.4,2440Z" transform="translate(-309.7 -2292.8)"/><path class="cls-3" d="M760.9,2411.2l3.6,3.8,6.6-8.2-4.3-1.4-1.4,1.8Z" transform="translate(-309.7 -2292.8)"/><polygon class="cls-3" points="445.2 112.5 451.2 118.3 447.6 122.1 440.5 114 445.2 112.5"/><path class="cls-15" d="M753.2,2380.1l0.5,3.4h1.4l0.7-4.5,0.7,4.5h11.8l0.5-3.4,0.5,3.4h8.1c-1.2-9.9-7.4-17.5-14.7-17.5h-2.8c-7.3,0-13.4,7.6-14.7,17.5h7.6Z" transform="translate(-309.7 -2292.8)"/><polygon class="cls-15" points="437.7 90.3 439.5 90.3 438.6 94.3 437.7 90.3"/><polygon class="cls-15" points="463.1 90.3 464.9 90.3 464.1 94.3 463.1 90.3"/><circle class="cls-20" cx="458.1" cy="98.2" r="2.2"/><circle class="cls-20" cx="444.7" cy="98.2" r="2.2"/><path class="cls-15" d="M755.2,2386.2s2.5,0.5,1.8-.3-3.9-.7-5.1.4S752.5,2385.5,755.2,2386.2Z" transform="translate(-309.7 -2292.8)"/><path class="cls-15" d="M766.3,2386.2s-2.5.5-1.8-.3,3.9-.7,5.1.4S769,2385.5,766.3,2386.2Z" transform="translate(-309.7 -2292.8)"/></g><circle class="cls-3" cx="559.7" cy="2525.2" r="17.6" transform="translate(-348 -2284) rotate(-0.9)"/><path d="M569.6,2526.6l-1.1-.2a15.6,15.6,0,0,0-.5-2.5,10.7,10.7,0,0,0-2.9-5.1,8.6,8.6,0,0,0-5.6-2h-0.3a11.3,11.3,0,0,0-4.4,1.3l-0.6.2a1.9,1.9,0,0,1-1.4-.7l-0.2-.3v0.3s0.1,0.7.2,1.3a2.9,2.9,0,0,0,.3.9,6.1,6.1,0,0,0-1.6,3.1,18.4,18.4,0,0,0-.5,3.8l-1.2.2a1.2,1.2,0,0,0-.1.6,0.8,0.8,0,0,0,.1.6h0.3a0.4,0.4,0,0,1,.3.3l0.2,1.3c0.1,0.8.2,1.6,0.3,1.7s0.5,1,2.2,1h4a2.3,2.3,0,0,0,1.4-1.6,11.9,11.9,0,0,1,.9-2h0.8a11.9,11.9,0,0,1,.9,2,2.3,2.3,0,0,0,1.5,1.5h4c1.7-.1,2.1-0.8,2.1-1.1s0.1-1,.2-1.8l0.2-1.3a0.3,0.3,0,0,1,.3-0.2h0.3A1.5,1.5,0,0,0,569.6,2526.6Zm-8.6,1.5a1.3,1.3,0,0,1,1.2-.8l5.2-.2a1.2,1.2,0,0,1,.7.3,1,1,0,0,1,.2.5c0,1.1-.1,2.8-0.1,3s-0.5.7-1.4,0.9H563a2.3,2.3,0,0,1-1.3-1.2v-0.3A5.7,5.7,0,0,1,561,2528.1Zm-9.2-1.4c0-.4.1-1.1,0.2-1.9a7.9,7.9,0,0,1,1.2-3.4l0.7-.6a4.9,4.9,0,0,0,2.1.9h0.8c2.4,0,5.4-2.1,5.4-2.1l0.7-.2,0.8,0.2a8.5,8.5,0,0,1,2.6,3,14.3,14.3,0,0,1,1.1,3.7h-5.3a4,4,0,0,0-1.6.6h-1.9a4,4,0,0,0-1.6-.6h-5.4Zm6.2,3.6v0.3a2.3,2.3,0,0,1-1.3,1.3h-3.7c-0.9-.1-1.3-0.4-1.4-0.8s-0.1-1.8-.2-2.9a1,1,0,0,1,.2-0.5,1.2,1.2,0,0,1,.7-0.3h5.2a1.3,1.3,0,0,1,1.2.8A5.7,5.7,0,0,1,558,2530.3Z" transform="translate(-309.7 -2292.8)"/><path class="cls-21" d="M553.7,2530.5v-2h0.2l2,1a0.1,0.1,0,0,1,0,.2l-2,1.1h-0.2Z" transform="translate(-309.7 -2292.8)"/><path class="cls-21" d="M563.9,2530.3v-2H564l2,1a0.1,0.1,0,0,1,0,.2l-2,1.1h-0.2Z" transform="translate(-309.7 -2292.8)"/><circle class="cls-22" cx="559.7" cy="2525.2" r="15.1" transform="translate(-348 -2284) rotate(-0.9)"/><circle class="cls-23" cx="559.7" cy="2525.2" r="15.1" transform="translate(-348 -2284) rotate(-0.9)"/><circle class="cls-3" cx="362" cy="103.7" r="17.6"/><path d="M681.6,2398.1l-1.1-.2a15.6,15.6,0,0,0-.5-2.5,10.7,10.7,0,0,0-2.9-5.2,8.6,8.6,0,0,0-5.5-2.1h-0.3a11.3,11.3,0,0,0-4.4,1.2h-0.6a1.9,1.9,0,0,1-1.3-.7l-0.2-.3v0.3s0.1,0.7.2,1.3a2.9,2.9,0,0,0,.3.9,6.1,6.1,0,0,0-1.7,3.1,18.4,18.4,0,0,0-.6,3.7l-1.2.2a1.2,1.2,0,0,0-.1.6,0.8,0.8,0,0,0,.1.6H662a0.4,0.4,0,0,1,.3.3l0.2,1.3c0.1,0.8.2,1.6,0.3,1.7s0.5,1,2.2,1h4a2.3,2.3,0,0,0,1.5-1.6,11.9,11.9,0,0,1,.9-2h0.8a11.9,11.9,0,0,1,.9,2,2.3,2.3,0,0,0,1.5,1.6h4c1.7-.1,2.1-0.8,2.2-1s0.2-1,.3-1.8l0.2-1.3a0.3,0.3,0,0,1,.3-0.2h0.3A1.5,1.5,0,0,0,681.6,2398.1Zm-8.6,1.4a1.3,1.3,0,0,1,1.2-.8l5.2-.2a1.2,1.2,0,0,1,.7.3,1,1,0,0,1,.2.5c0,1.1-.1,2.8-0.2,3s-0.5.7-1.4,0.9h-3.7a2.3,2.3,0,0,1-1.3-1.2v-0.3A5.7,5.7,0,0,1,672.9,2399.5Zm-9.1-1.6c0-.4.1-1.1,0.2-1.9a7.9,7.9,0,0,1,1.3-3.4l0.8-.6a4.9,4.9,0,0,0,2,.9h0.8c2.4,0,5.4-2,5.4-2h0.7l0.8,0.2a8.5,8.5,0,0,1,2.6,3,14.3,14.3,0,0,1,1.1,3.8h-5.3a4,4,0,0,0-1.6.6h-1.9a4,4,0,0,0-1.6-.6h-5.4Zm6.1,3.7v0.3a2.3,2.3,0,0,1-1.3,1.2h-3.7c-0.9-.1-1.3-0.4-1.4-0.9s-0.1-1.8-.2-2.9a1,1,0,0,1,.2-0.5,1.2,1.2,0,0,1,.7-0.3l5.2,0.2a1.3,1.3,0,0,1,1.2.8A5.7,5.7,0,0,1,669.9,2401.6Z" transform="translate(-309.7 -2292.8)"/><path class="cls-21" d="M665.6,2401.7v-2h0.2l2,1a0.1,0.1,0,0,1,0,.2l-2,1h-0.2Z" transform="translate(-309.7 -2292.8)"/><path class="cls-21" d="M675.8,2401.7v-2H676l2,1a0.1,0.1,0,0,1,0,.2l-2,1h-0.2Z" transform="translate(-309.7 -2292.8)"/><circle class="cls-22" cx="362" cy="103.7" r="15.1"/><circle class="cls-23" cx="362" cy="103.7" r="15.1"/><circle class="cls-3" cx="136.9" cy="103.7" r="17.6"/><path d="M456.5,2398.1l-1.1-.2a15.6,15.6,0,0,0-.5-2.5,10.7,10.7,0,0,0-2.9-5.2,8.6,8.6,0,0,0-5.5-2.1h-0.3a11.3,11.3,0,0,0-4.4,1.2h-0.6a1.9,1.9,0,0,1-1.3-.7l-0.2-.3v0.3s0.1,0.7.2,1.3a2.9,2.9,0,0,0,.3.9,6.1,6.1,0,0,0-1.7,3.1,18.4,18.4,0,0,0-.6,3.7l-1.2.2a1.2,1.2,0,0,0-.1.6,0.8,0.8,0,0,0,.1.6H437a0.4,0.4,0,0,1,.3.3l0.2,1.3c0.1,0.8.2,1.6,0.3,1.7s0.5,1,2.2,1h4a2.3,2.3,0,0,0,1.5-1.6,11.9,11.9,0,0,1,.9-2h0.8a11.9,11.9,0,0,1,.9,2,2.3,2.3,0,0,0,1.5,1.6h4c1.7-.1,2.1-0.8,2.2-1s0.2-1,.3-1.8l0.2-1.3a0.3,0.3,0,0,1,.3-0.2h0.3A1.5,1.5,0,0,0,456.5,2398.1Zm-8.6,1.4a1.3,1.3,0,0,1,1.2-.8l5.2-.2a1.2,1.2,0,0,1,.7.3,1,1,0,0,1,.2.5c0,1.1-.1,2.8-0.2,3s-0.5.7-1.4,0.9h-3.7a2.3,2.3,0,0,1-1.3-1.2v-0.3A5.7,5.7,0,0,1,447.9,2399.5Zm-9.1-1.6c0-.4.1-1.1,0.2-1.9a7.9,7.9,0,0,1,1.3-3.4l0.8-.6a4.9,4.9,0,0,0,2,.9h0.8c2.4,0,5.4-2,5.4-2h0.7l0.8,0.2a8.5,8.5,0,0,1,2.6,3,14.3,14.3,0,0,1,1.1,3.8h-5.3a4,4,0,0,0-1.6.6h-1.9a4,4,0,0,0-1.6-.6h-5.4Zm6.1,3.7v0.3a2.3,2.3,0,0,1-1.3,1.2h-3.7c-0.9-.1-1.3-0.4-1.4-0.9s-0.1-1.8-.2-2.9a1,1,0,0,1,.2-0.5,1.2,1.2,0,0,1,.7-0.3l5.2,0.2a1.3,1.3,0,0,1,1.2.8A5.7,5.7,0,0,1,444.9,2401.6Z" transform="translate(-309.7 -2292.8)"/><path class="cls-21" d="M440.6,2401.7v-2h0.2l2,1a0.1,0.1,0,0,1,0,.2l-2,1h-0.2Z" transform="translate(-309.7 -2292.8)"/><path class="cls-21" d="M450.8,2401.7v-2h0.2l2,1a0.1,0.1,0,0,1,0,.2l-2,1h-0.2Z" transform="translate(-309.7 -2292.8)"/><circle class="cls-22" cx="136.9" cy="103.7" r="15.1"/><circle class="cls-23" cx="136.9" cy="103.7" r="15.1"/><circle class="cls-3" cx="452.1" cy="232.4" r="17.6"/><path d="M771.7,2526.8l-1.1-.2a15.6,15.6,0,0,0-.5-2.5,10.7,10.7,0,0,0-2.9-5.2,8.6,8.6,0,0,0-5.5-2.1h-0.3a11.3,11.3,0,0,0-4.4,1.2h-0.6a1.9,1.9,0,0,1-1.3-.7l-0.2-.3v0.3s0.1,0.7.2,1.3a2.9,2.9,0,0,0,.3.9,6.1,6.1,0,0,0-1.7,3.1,18.4,18.4,0,0,0-.6,3.7l-1.2.2a1.2,1.2,0,0,0-.1.6,0.8,0.8,0,0,0,.1.6h0.2a0.4,0.4,0,0,1,.3.3l0.2,1.3c0.1,0.8.2,1.6,0.3,1.7s0.5,1,2.2,1h4a2.3,2.3,0,0,0,1.5-1.6,11.9,11.9,0,0,1,.9-2h0.8a11.9,11.9,0,0,1,.9,2,2.3,2.3,0,0,0,1.5,1.6h4c1.7-.1,2.1-0.8,2.2-1s0.2-1,.3-1.8l0.2-1.3a0.3,0.3,0,0,1,.3-0.2h0.3A1.5,1.5,0,0,0,771.7,2526.8Zm-8.6,1.4a1.3,1.3,0,0,1,1.2-.8l5.2-.2a1.2,1.2,0,0,1,.7.3,1,1,0,0,1,.2.5c0,1.1-.1,2.8-0.2,3s-0.5.7-1.4,0.9H765a2.3,2.3,0,0,1-1.3-1.2v-0.3A5.7,5.7,0,0,1,763.1,2528.1Zm-9.1-1.6c0-.4.1-1.1,0.2-1.9a7.9,7.9,0,0,1,1.3-3.4l0.8-.6a4.9,4.9,0,0,0,2,.9h0.8c2.4,0,5.4-2,5.4-2h0.7l0.8,0.2a8.5,8.5,0,0,1,2.6,3,14.3,14.3,0,0,1,1.1,3.8h-5.3a4,4,0,0,0-1.6.6h-1.9a4,4,0,0,0-1.6-.6H754Zm6.1,3.7v0.3a2.3,2.3,0,0,1-1.3,1.2h-3.7c-0.9-.1-1.3-0.4-1.4-0.9s-0.1-1.8-.2-2.9a1,1,0,0,1,.2-0.5,1.2,1.2,0,0,1,.7-0.3l5.2,0.2a1.3,1.3,0,0,1,1.2.8A5.7,5.7,0,0,1,760.1,2530.3Z" transform="translate(-309.7 -2292.8)"/><path class="cls-21" d="M755.8,2530.4v-2H756l2,1a0.1,0.1,0,0,1,0,.2l-2,1h-0.2Z" transform="translate(-309.7 -2292.8)"/><path class="cls-21" d="M766,2530.4v-2h0.2l2,1a0.1,0.1,0,0,1,0,.2l-2,1H766Z" transform="translate(-309.7 -2292.8)"/><circle class="cls-22" cx="452.1" cy="232.4" r="15.1"/><circle class="cls-23" cx="452.1" cy="232.4" r="15.1"/><circle class="cls-3" cx="47.3" cy="232.4" r="17.6"/><path d="M366.9,2526.8l-1.1-.2a15.6,15.6,0,0,0-.5-2.5,10.7,10.7,0,0,0-2.9-5.2,8.6,8.6,0,0,0-5.5-2.1h-0.3a11.3,11.3,0,0,0-4.4,1.2h-0.6a1.9,1.9,0,0,1-1.3-.7l-0.2-.3v0.3s0.1,0.7.2,1.3a2.9,2.9,0,0,0,.3.9,6.1,6.1,0,0,0-1.7,3.1,18.4,18.4,0,0,0-.6,3.7l-1.2.2a1.2,1.2,0,0,0-.1.6,0.8,0.8,0,0,0,.1.6h0.2a0.4,0.4,0,0,1,.3.3l0.2,1.3c0.1,0.8.2,1.6,0.3,1.7s0.5,1,2.2,1h4a2.3,2.3,0,0,0,1.5-1.6,11.9,11.9,0,0,1,.9-2h0.8a11.9,11.9,0,0,1,.9,2,2.3,2.3,0,0,0,1.5,1.6h4c1.7-.1,2.1-0.8,2.2-1s0.2-1,.3-1.8l0.2-1.3a0.3,0.3,0,0,1,.3-0.2H367A1.5,1.5,0,0,0,366.9,2526.8Zm-8.6,1.4a1.3,1.3,0,0,1,1.2-.8l5.2-.2a1.2,1.2,0,0,1,.7.3,1,1,0,0,1,.2.5c0,1.1-.1,2.8-0.2,3s-0.5.7-1.4,0.9h-3.7a2.3,2.3,0,0,1-1.3-1.2v-0.3A5.7,5.7,0,0,1,358.3,2528.1Zm-9.1-1.6c0-.4.1-1.1,0.2-1.9a7.9,7.9,0,0,1,1.3-3.4l0.8-.6a4.9,4.9,0,0,0,2,.9h0.8c2.4,0,5.4-2,5.4-2h0.7l0.8,0.2a8.5,8.5,0,0,1,2.6,3,14.3,14.3,0,0,1,1.1,3.8h-5.3a4,4,0,0,0-1.6.6h-1.9a4,4,0,0,0-1.6-.6h-5.4Zm6.1,3.7v0.3a2.3,2.3,0,0,1-1.3,1.2h-3.7c-0.9-.1-1.3-0.4-1.4-0.9s-0.1-1.8-.2-2.9a1,1,0,0,1,.2-0.5,1.2,1.2,0,0,1,.7-0.3l5.2,0.2a1.3,1.3,0,0,1,1.2.8A5.7,5.7,0,0,1,355.3,2530.3Z" transform="translate(-309.7 -2292.8)"/><path class="cls-21" d="M351,2530.4v-2h0.2l2,1a0.1,0.1,0,0,1,0,.2l-2,1H351Z" transform="translate(-309.7 -2292.8)"/><path class="cls-21" d="M361.2,2530.4v-2h0.2l2,1a0.1,0.1,0,0,1,0,.2l-2,1h-0.2Z" transform="translate(-309.7 -2292.8)"/><circle class="cls-22" cx="47.3" cy="232.4" r="15.1"/><circle class="cls-23" cx="47.3" cy="232.4" r="15.1"/><circle class="cls-24" cx="792" cy="2429.7" r="15" transform="translate(-1964.1 875.6) rotate(-88.7)"/><path class="cls-25" d="M786.2,2432.8h-0.1l-1.9-1h-0.1l-1.9,1H782v-0.3l0.3-2h0l-1.6-1.5h0.4l1.4-.2h0.4l0.9-1.9h0.1l1,2h0.1l2.2,0.3h0l-1.6,1.5h0l0.4,2.2h0Z" transform="translate(-309.7 -2292.8)"/><path class="cls-25" d="M794.1,2432.8H794l-1.9-1H792l-1.9,1H790v-0.3l0.3-2h0l-1.6-1.5h0.4l1.4-.2H791l0.9-1.9h0.1l1,2h0.1l2.2,0.3h0l-1.6,1.5h0l0.4,2.2h0Z" transform="translate(-309.7 -2292.8)"/><path class="cls-26" d="M802,2432.8h-0.1l-1.9-1h-0.1l-1.9,1h-0.1v-0.3l0.3-2h0l-1.6-1.5h0.4l1.4-.2h0.4l0.9-1.9H800l1,2H801l2.2,0.3h0l-1.6,1.5h0l0.4,2.2h0Z" transform="translate(-309.7 -2292.8)"/><circle class="cls-3" cx="249.8" cy="103.7" r="66.2"/><g class="cls-27"><rect class="cls-28" x="239.6" y="115.4" width="20" height="8.49"/><polygon class="cls-29" points="260.4 118 257.8 116.8 257.8 108.7 241.5 108.7 241.5 116.8 238.9 117.9 239.6 140.9 241.5 140.9 241.5 144.4 257.8 144.4 257.8 140.9 259.7 140.9 260.4 118"/><polygon class="cls-30" points="241.5 108.7 241.5 113.8 257.8 116.2 257.8 108.7 241.5 108.7"/><path class="cls-31" d="M577.4,2377.3l0.6-7.2c0-9.4-9-17.1-18.4-17.1s-18.4,7.6-18.4,17.1l0.6,7.2a3.3,3.3,0,0,0-1.4.7,3.4,3.4,0,0,0-1.2,2.6v3.6a3.4,3.4,0,0,0,3.4,3.4c0,8.9,10.7,17.3,17.1,17.3s17.1-8.4,17.1-17.3a3.4,3.4,0,0,0,3.4-3.4v-3.6A3.4,3.4,0,0,0,577.4,2377.3Z" transform="translate(-309.7 -2292.8)"/><path class="cls-29" d="M577.4,2377.3l0.6-7.2c0-9.4-9-17.1-18.4-17.1h0v24.6a71.2,71.2,0,0,0-4.1,13h4.1v14.4h0c6.4,0,17.1-8.4,17.1-17.3a3.4,3.4,0,0,0,3.4-3.4v-3.6A3.4,3.4,0,0,0,577.4,2377.3Z" transform="translate(-309.7 -2292.8)"/><path class="cls-15" d="M553.9,2394.6h10.7a0.4,0.4,0,0,1,.3.6c-0.8.7-2.4,1.7-5.6,1.7s-4.8-1-5.6-1.7A0.4,0.4,0,0,1,553.9,2394.6Z" transform="translate(-309.7 -2292.8)"/><path class="cls-15" d="M552.8,2380.5a0.6,0.6,0,0,1-.6-0.6c0-.3-0.7-0.8-1.8-0.8s-1.8.5-1.8,0.8a0.6,0.6,0,0,1-1.3,0c0-1.2,1.4-2.1,3.1-2.1s3.1,0.9,3.1,2.1A0.6,0.6,0,0,1,552.8,2380.5Z" transform="translate(-309.7 -2292.8)"/><path class="cls-15" d="M570,2380.5a0.6,0.6,0,0,1-.6-0.6c0-.3-0.7-0.8-1.8-0.8s-1.8.5-1.8,0.8a0.6,0.6,0,0,1-1.3,0c0-1.2,1.4-2.1,3.1-2.1s3.1,0.9,3.1,2.1A0.6,0.6,0,0,1,570,2380.5Z" transform="translate(-309.7 -2292.8)"/><path class="cls-3" d="M548.4,2410.8l0.6,2.3c1.1,3,3.8,3.8,10.2,3.8s10-2.1,10.9-4.9l0.3-1.2c13.3,5,9.2,46.8,9.2,46.8v34.7H537.9l0.6-34.7S535.1,2415.8,548.4,2410.8Z" transform="translate(-309.7 -2292.8)"/><path class="cls-3" d="M559.4,2416.7l5,5.3,8.6-10.3-5.4-2.7-2,1.9Z" transform="translate(-309.7 -2292.8)"/><polygon class="cls-3" points="241.4 116.3 249.6 123.9 244.6 129.2 236 118.9 241.4 116.3"/><path class="cls-5" d="M603.9,2457.5a18.4,18.4,0,0,0-.1-11.7c-2.5-7.3-7.2-22.8-8.6-25.7-3-6.5-12.6-6.2-24.5-10.4l-1.3-.5h0c-0.7,4.1-10,45.8-10,45.8s-9.3-41.7-10-45.8h0l-1.3.5c-12,4.1-21.6,3.9-24.5,10.4-1.3,2.9-6.1,18.4-8.6,25.7a18.4,18.4,0,0,0-.1,11.7c2.7,8.4,8.4,19.8,10.8,23.4s6,4.4,8.7,3.5c-0.4,1.7-3,9.4-3,9.4h55.5c0.4,0-2.3-7.6-2.7-9.4,2.7,0.9,6.5-.3,8.7-3.5S601.2,2465.8,603.9,2457.5Z" transform="translate(-309.7 -2292.8)"/><polygon class="cls-32" points="266.6 119 266.3 126.8 262.4 130 265.4 134.2 249.8 161.9 259.7 115.4 266.6 119"/><polygon class="cls-32" points="232.7 119 233 126.8 236.9 130 233.9 134.2 249.5 161.9 239.6 115.4 232.7 119"/><path class="cls-33" d="M559,2375.5" transform="translate(-309.7 -2292.8)"/><path class="cls-33" d="M559,2375.6" transform="translate(-309.7 -2292.8)"/><path class="cls-34" d="M559,2375.5" transform="translate(-309.7 -2292.8)"/><circle class="cls-15" cx="249.3" cy="59.5" r="4"/><circle class="cls-15" cx="255.6" cy="60.4" r="4"/><circle class="cls-15" cx="261" cy="62.6" r="4"/><circle class="cls-15" cx="575.2" cy="2359.5" r="4" transform="translate(-2102.2 607.5) rotate(-89.2)"/><circle class="cls-15" cx="267.9" cy="71.4" r="4"/><circle class="cls-15" cx="268.8" cy="78.1" r="4"/><circle class="cls-15" cx="268" cy="82.7" r="3.6"/><circle class="cls-15" cx="268.1" cy="83" r="3.6"/><circle class="cls-15" cx="243.9" cy="60.4" r="4"/><circle class="cls-15" cx="238.5" cy="62.6" r="4"/><circle class="cls-15" cx="543.8" cy="2359.5" r="4" transform="translate(-343.9 -2284.7) rotate(-0.8)"/><circle class="cls-15" cx="231.6" cy="71.4" r="4"/><circle class="cls-15" cx="230.7" cy="78.1" r="4"/><circle class="cls-15" cx="249.3" cy="64.1" r="3.6"/><circle class="cls-15" cx="249.3" cy="68.3" r="3.6"/><circle class="cls-15" cx="254.9" cy="65.9" r="3.6"/><circle class="cls-15" cx="255.2" cy="68.9" r="3.6"/><circle class="cls-15" cx="259.9" cy="68.1" r="3.6"/><circle class="cls-15" cx="260.9" cy="72.1" r="3.6"/><circle class="cls-15" cx="265.1" cy="76.7" r="3.6"/><circle class="cls-15" cx="243.6" cy="68.9" r="3.6"/><circle class="cls-15" cx="240.6" cy="67" r="3.6"/><circle class="cls-15" cx="244.9" cy="65.1" r="3.6"/><circle class="cls-15" cx="237.9" cy="72.1" r="3.6"/><circle class="cls-15" cx="233.6" cy="76.7" r="3.6"/><circle class="cls-15" cx="231.4" cy="83" r="3.6"/><path class="cls-35" d="M572.8,2373.5h-9.3a6.9,6.9,0,0,0-2.8,1h-3.2a6.9,6.9,0,0,0-2.8-1H544.3a6.3,6.3,0,0,0-2.1.3,2.4,2.4,0,0,0-.2,1,1.4,1.4,0,0,0,.2,1l0.4,0.2a0.7,0.7,0,0,1,.6.5c0.1,0.3.2,1.2,0.3,2.2s0.3,2.7.5,3,0.8,1.7,3.7,1.8h4.4l2.5-.2a4,4,0,0,0,2.5-2.7,19.8,19.8,0,0,1,1.6-3.5,0.9,0.9,0,0,1,.7-0.2,0.9,0.9,0,0,1,.7.2,22.4,22.4,0,0,1,1.6,3.5,4,4,0,0,0,2.5,2.7,9.3,9.3,0,0,0,2.5.2h4.4c3-.1,3.6-1.4,3.7-1.8s0.3-1.7.5-3l0.3-2.2a0.5,0.5,0,0,1,.5-0.4l0.5-.2a2.7,2.7,0,0,0,0-2c-0.1-.1-0.3-0.2-1.9-0.3h-1.6Zm-16.7,6.4-0.2.5a3.9,3.9,0,0,1-2.3,2.1l-2.9.2-3.5-.2c-1.6-.2-2.3-0.7-2.5-1.5s-0.2-3.2-.3-5.1a1.7,1.7,0,0,1,.4-0.9,1.9,1.9,0,0,1,1.2-.6c0.1,0,7.8.1,9,.3a2.2,2.2,0,0,1,2.1,1.4C557.3,2377,556.6,2378.7,556.2,2379.9Zm17.5,1.2c-0.2.8-.9,1.2-2.5,1.5l-3.5.2-2.9-.2a3.9,3.9,0,0,1-2.3-2.1l-0.2-.5c-0.4-1.2-1.1-3-.9-3.7h0a2.1,2.1,0,0,1,2.1-1.4c1.2-.2,8.6-0.3,9-0.3a2,2,0,0,1,1.2.6,1.7,1.7,0,0,1,.4.9C573.9,2377.9,573.7,2380.8,573.7,2381.1Z" transform="translate(-309.7 -2292.8)"/><circle class="cls-36" cx="259" cy="95.4" r="3.1"/><circle class="cls-36" cx="240" cy="95.4" r="3.1"/></g><circle class="cls-24" cx="608.3" cy="2441.9" r="15" transform="translate(-2156.1 703.9) rotate(-88.7)"/><path class="cls-26" d="M602.4,2445.1h-0.1l-1.9-1h-0.1l-1.9,1h-0.1v-0.3l0.3-2h0l-1.6-1.5h0.4l1.4-.2h0.4l0.9-1.9h0.1l1,2h0.1l2.2,0.3h0l-1.6,1.5h0l0.4,2.2h0Z" transform="translate(-309.7 -2292.8)"/><path class="cls-26" d="M610.3,2445.1h-0.1l-1.9-1h-0.1l-1.9,1h-0.1v-0.3l0.3-2h0l-1.6-1.5h0.4l1.4-.2h0.4l0.9-1.9h0.1l1,2h0.1l2.2,0.3h0l-1.6,1.5h0l0.4,2.2h0Z" transform="translate(-309.7 -2292.8)"/><path class="cls-26" d="M618.2,2445.1h-0.1l-1.9-1h-0.1l-1.9,1h-0.1v-0.3l0.3-2h0l-1.6-1.5h0.4l1.4-.2h0.4l0.9-1.9h0.1l1,2h0.1l2.2,0.3h0l-1.6,1.5h0l0.4,2.2h0Z" transform="translate(-309.7 -2292.8)"/><circle class="cls-3" cx="148.2" cy="232.8" r="46.8"/><g class="cls-37"><polygon class="cls-38" points="155.8 242.3 154 241.5 154 235.3 142.5 235.3 142.5 241.5 140.7 242.2 141.2 258.4 142.5 258.4 142.5 260.8 154 260.8 154 258.4 155.3 258.4 155.8 242.3"/><polygon class="cls-39" points="142.5 235.3 142.5 238 154 241.1 154 235.3 142.5 235.3"/><path class="cls-3" d="M465.7,2534.6l-0.4,1.6c-0.7,2.1-2.6,5.6-7.1,5.6s-7-4.4-7.6-6.3l-0.2-.9c-9.3,3.5-6.5,32.8-6.5,32.8v24.3h29.3l-0.4-24.3S475,2538.2,465.7,2534.6Z" transform="translate(-309.7 -2292.8)"/><path class="cls-5" d="M489.4,2568.5a13.1,13.1,0,0,0,0-8.3c-1.8-5.2-5.1-16.1-6.1-18.2-2.1-4.6-8.9-4.4-17.4-7.3l-0.9-.3h0c-0.5,2.9-7.1,31-7.1,31s-6.6-28.1-7.1-31h0l-0.9.3c-8.5,2.9-15.3,2.7-17.4,7.3-0.9,2.1-4.3,13-6.1,18.2a13.1,13.1,0,0,0,0,8.3,90,90,0,0,0,7.7,16.6,5.6,5.6,0,0,0,6.1,2.5c-0.3,1.2-2.1,6.6-2.1,6.6h39.3c0.3,0-1.6-5.4-1.9-6.6a5.6,5.6,0,0,0,6.1-2.5A90,90,0,0,0,489.4,2568.5Z" transform="translate(-309.7 -2292.8)"/><path class="cls-38" d="M470.6,2511.2l0.4-5.1c0-6.6-6.3-12-12.9-12s-12.9,5.4-12.9,12l0.4,5-1,.5a2.4,2.4,0,0,0-.8,1.8v2.5a2.4,2.4,0,0,0,2.4,2.4c0,6.2,7.5,12.2,12,12.2s12-5.9,12-12.2a2.4,2.4,0,0,0,2.4-2.4v-2.5A2.4,2.4,0,0,0,470.6,2511.2Z" transform="translate(-309.7 -2292.8)"/><path class="cls-40" d="M470.6,2511.2l0.4-5.1c0-6.6-6.3-12-12.9-12v17a49.9,49.9,0,0,0-2.9,9.1h2.9v10.3c4.5,0,12-5.9,12-12.2a2.4,2.4,0,0,0,2.4-2.4v-2.5A2.4,2.4,0,0,0,470.6,2511.2Z" transform="translate(-309.7 -2292.8)"/><path class="cls-41" d="M472.9,2494.9c-0.1-.7-0.8-0.6-1.5-0.6-2.3.1-2.8-.6-7.4-3.3a11,11,0,0,0-12.4.7c-14.4,3.3-6,22.8-6,22.8s-0.1-10.3,4.4-13.4c7.4,5.1,15,5.3,19.4,2.3,1.7,3.9,1.1,11.1,1.1,11.1s2.9-7.2,1.3-13.6A9.3,9.3,0,0,0,472.9,2494.9Z" transform="translate(-309.7 -2292.8)"/><path class="cls-42" d="M454.1,2523.2H462a0.3,0.3,0,0,1,.2.5,7.5,7.5,0,0,1-8.3,0A0.3,0.3,0,0,1,454.1,2523.2Z" transform="translate(-309.7 -2292.8)"/><path class="cls-42" d="M454.6,2513.1a0.5,0.5,0,0,1-.5-0.5,1.8,1.8,0,0,0-2.6,0,0.5,0.5,0,0,1-.9,0c0-.8,1-1.5,2.2-1.5s2.2,0.6,2.2,1.5A0.5,0.5,0,0,1,454.6,2513.1Z" transform="translate(-309.7 -2292.8)"/><path class="cls-42" d="M464.9,2513.1a0.5,0.5,0,0,1-.5-0.5,1.8,1.8,0,0,0-2.6,0,0.5,0.5,0,0,1-.9,0c0-.8,1-1.5,2.2-1.5s2.2,0.6,2.2,1.5A0.5,0.5,0,0,1,464.9,2513.1Z" transform="translate(-309.7 -2292.8)"/><circle class="cls-40" cx="155.1" cy="226.9" r="2.2"/><circle class="cls-40" cx="141.6" cy="226.9" r="2.2"/></g><circle class="cls-24" cx="491.9" cy="2557.3" r="15" transform="translate(-2385.2 700.3) rotate(-88.7)"/><path class="cls-25" d="M486.1,2560.4H486l-1.9-1h-0.1l-1.9,1h-0.1v-0.3l0.3-2h0l-1.6-1.5h0.4l1.4-.2H483l0.9-1.9H484l1,2h0.1l2.2,0.3h0l-1.6,1.5h0l0.4,2.2h0Z" transform="translate(-309.7 -2292.8)"/><path class="cls-26" d="M494,2560.4h-0.1l-1.9-1h-0.1l-1.9,1h-0.1v-0.3l0.3-2h0l-1.6-1.5h0.4l1.4-.2h0.4l0.9-1.9h0.1l1,2H493l2.2,0.3h0l-1.6,1.5h0l0.4,2.2h0Z" transform="translate(-309.7 -2292.8)"/><path class="cls-26" d="M501.9,2560.4h-0.1l-1.9-1h-0.1l-1.9,1h-0.1v-0.3l0.3-2h0l-1.6-1.5H497l1.4-.2h0.4l0.9-1.9h0.1l1,2h0.1l2.2,0.3h0l-1.6,1.5h0l0.4,2.2h0Z" transform="translate(-309.7 -2292.8)"/><circle class="cls-3" cx="348.1" cy="232.8" r="46.8"/><g class="cls-43"><rect id="_Rectangle_34" data-name="&lt;Rectangle&gt;" class="cls-5" x="350.1" y="228.4" width="29.7" height="58.59"/><g id="_Group_13" data-name="&lt;Group&gt;"><g id="_Group_14" data-name="&lt;Group&gt;"><rect id="_Rectangle_35" data-name="&lt;Rectangle&gt;" class="cls-6" x="354.1" y="232.8" width="5.7" height="7.65"/><rect id="_Rectangle_36" data-name="&lt;Rectangle&gt;" class="cls-6" x="362.2" y="232.8" width="5.7" height="7.65"/><rect id="_Rectangle_37" data-name="&lt;Rectangle&gt;" class="cls-6" x="370.3" y="232.8" width="5.7" height="7.65"/></g><g id="_Group_15" data-name="&lt;Group&gt;"><rect id="_Rectangle_38" data-name="&lt;Rectangle&gt;" class="cls-6" x="354.1" y="243.4" width="5.7" height="7.65"/><rect id="_Rectangle_39" data-name="&lt;Rectangle&gt;" class="cls-6" x="362.2" y="243.4" width="5.7" height="7.65"/><rect id="_Rectangle_40" data-name="&lt;Rectangle&gt;" class="cls-6" x="370.3" y="243.4" width="5.7" height="7.65"/></g><g id="_Group_16" data-name="&lt;Group&gt;"><rect id="_Rectangle_41" data-name="&lt;Rectangle&gt;" class="cls-6" x="354.1" y="254" width="5.7" height="7.65"/><rect id="_Rectangle_42" data-name="&lt;Rectangle&gt;" class="cls-6" x="362.2" y="254" width="5.7" height="7.65"/><rect id="_Rectangle_43" data-name="&lt;Rectangle&gt;" class="cls-6" x="370.3" y="254" width="5.7" height="7.65"/></g><g id="_Group_17" data-name="&lt;Group&gt;"><rect id="_Rectangle_44" data-name="&lt;Rectangle&gt;" class="cls-6" x="354.1" y="264.6" width="5.7" height="7.65"/><rect id="_Rectangle_45" data-name="&lt;Rectangle&gt;" class="cls-6" x="362.2" y="264.6" width="5.7" height="7.65"/><rect id="_Rectangle_46" data-name="&lt;Rectangle&gt;" class="cls-6" x="370.3" y="264.6" width="5.7" height="7.65"/></g><g id="_Group_18" data-name="&lt;Group&gt;"><rect id="_Rectangle_47" data-name="&lt;Rectangle&gt;" class="cls-6" x="354.1" y="275.2" width="5.7" height="7.65"/><rect id="_Rectangle_48" data-name="&lt;Rectangle&gt;" class="cls-6" x="362.2" y="275.2" width="5.7" height="7.65"/><rect id="_Rectangle_49" data-name="&lt;Rectangle&gt;" class="cls-6" x="370.3" y="275.2" width="5.7" height="7.65"/></g></g><rect id="_Rectangle_50" data-name="&lt;Rectangle&gt;" class="cls-7" x="343.5" y="228.4" width="21.8" height="56.36"/><rect id="_Rectangle_51" data-name="&lt;Rectangle&gt;" class="cls-8" x="319.3" y="208.5" width="38.5" height="75.83"/><g id="_Group_19" data-name="&lt;Group&gt;"><g id="_Group_20" data-name="&lt;Group&gt;"><rect id="_Rectangle_52" data-name="&lt;Rectangle&gt;" class="cls-6" x="324.4" y="214.2" width="7.3" height="9.9"/><rect id="_Rectangle_53" data-name="&lt;Rectangle&gt;" class="cls-6" x="334.9" y="214.2" width="7.3" height="9.9"/><rect id="_Rectangle_54" data-name="&lt;Rectangle&gt;" class="cls-6" x="345.4" y="214.2" width="7.3" height="9.9"/></g><g id="_Group_21" data-name="&lt;Group&gt;"><rect id="_Rectangle_55" data-name="&lt;Rectangle&gt;" class="cls-6" x="324.4" y="227.9" width="7.3" height="9.9"/><rect id="_Rectangle_56" data-name="&lt;Rectangle&gt;" class="cls-6" x="334.9" y="227.9" width="7.3" height="9.9"/><rect id="_Rectangle_57" data-name="&lt;Rectangle&gt;" class="cls-6" x="345.4" y="227.9" width="7.3" height="9.9"/></g><g id="_Group_22" data-name="&lt;Group&gt;"><rect id="_Rectangle_58" data-name="&lt;Rectangle&gt;" class="cls-6" x="324.4" y="241.7" width="7.3" height="9.9"/><rect id="_Rectangle_59" data-name="&lt;Rectangle&gt;" class="cls-6" x="334.9" y="241.7" width="7.3" height="9.9"/><rect id="_Rectangle_60" data-name="&lt;Rectangle&gt;" class="cls-6" x="345.4" y="241.7" width="7.3" height="9.9"/></g><g id="_Group_23" data-name="&lt;Group&gt;"><rect id="_Rectangle_61" data-name="&lt;Rectangle&gt;" class="cls-6" x="324.4" y="255.4" width="7.3" height="9.9"/><rect id="_Rectangle_62" data-name="&lt;Rectangle&gt;" class="cls-6" x="334.9" y="255.4" width="7.3" height="9.9"/><rect id="_Rectangle_63" data-name="&lt;Rectangle&gt;" class="cls-6" x="345.4" y="255.4" width="7.3" height="9.9"/></g><g id="_Group_24" data-name="&lt;Group&gt;"><rect id="_Rectangle_64" data-name="&lt;Rectangle&gt;" class="cls-6" x="324.4" y="269.1" width="7.3" height="9.9"/><rect id="_Rectangle_65" data-name="&lt;Rectangle&gt;" class="cls-6" x="334.9" y="269.1" width="7.3" height="9.9"/><rect id="_Rectangle_66" data-name="&lt;Rectangle&gt;" class="cls-6" x="345.4" y="269.1" width="7.3" height="9.9"/></g></g></g><circle class="cls-44" cx="249.8" cy="12.5" r="12.5"/><text class="cls-45" transform="translate(245.9 17.5)">$</text><circle class="cls-44" cx="148.5" cy="302.6" r="12.5"/><text class="cls-45" transform="translate(144.6 307.6)">€</text><circle class="cls-44" cx="522.1" cy="103.2" r="12.5"/><text class="cls-45" transform="translate(518.2 108.2)">¥</text></g></g></svg>