<svg id="Grid" xmlns="http://www.w3.org/2000/svg" viewBox="0 0 322.3 238.1"><defs><style>.cls-1{font-size:12.35px;fill:#202428;font-style:italic;}.cls-1,.cls-4{font-family:Lato;}.cls-2,.cls-5,.cls-7{fill:none;stroke-linecap:round;stroke-linejoin:round;}.cls-2{stroke:#ccc;stroke-dasharray:3;}.cls-3{fill:#989898;}.cls-4{font-size:9.7px;fill:#333;}.cls-5{stroke:#989898;}.cls-6{fill:#0088b2;}.cls-7{stroke:#971c1c;stroke-width:1.6px;stroke-dasharray:7 5;}</style></defs><title>grafico 2</title><text class="cls-1" transform="translate(240.7 10.6)">Demand IT Jobs</text><line class="cls-2" x1="320.5" y1="119.1" x2="37.2" y2="119.1"/><line class="cls-2" x1="320.5" y1="23.1" x2="38.8" y2="23.1"/><path class="cls-3" d="M901.9,984.8" transform="translate(-591.5 -829.3)"/><text class="cls-4" transform="translate(22.6 26.1)">N<tspan x="-22.6" y="12.4">IT Jobs</tspan></text><text class="cls-4" transform="translate(98.4 236.3)">2018</text><text class="cls-4" transform="translate(168.4 236.3)">2019</text><text class="cls-4" transform="translate(238.4 236.3)">2020</text><text class="cls-4" transform="translate(297.6 236.3)">2021</text><line class="cls-5" x1="43.2" y1="119.1" x2="37.2" y2="119.1"/><polygon class="cls-6" points="320.7 166.3 39.6 180 39.6 216.5 320.7 216.5 320.7 166.3"/><line class="cls-2" x1="249.7" y1="216.5" x2="249.7" y2="23.1"/><line class="cls-2" x1="179.6" y1="216.5" x2="179.6" y2="23.1"/><line class="cls-2" x1="109.2" y1="216.5" x2="109.2" y2="23.1"/><text class="cls-1" transform="translate(218.4 158.4)">Qualified Students</text><line class="cls-5" x1="179.6" y1="219.5" x2="179.6" y2="213.6"/><line class="cls-5" x1="109.2" y1="219.5" x2="109.2" y2="213.6"/><line class="cls-5" x1="249.7" y1="219.5" x2="249.7" y2="213.6"/><line class="cls-2" x1="320.7" y1="216.5" x2="320.7" y2="23.1"/><line class="cls-5" x1="320.8" y1="216.5" x2="39.6" y2="216.5"/><polygon class="cls-3" points="317.5 212.4 316.8 213.1 320.4 216.5 316.8 219.9 317.5 220.6 321.9 216.5 317.5 212.4"/><line class="cls-7" x1="40.3" y1="161" x2="321.5" y2="26.1"/><line class="cls-5" x1="39.6" y1="216.5" x2="39.6" y2="24.2"/><polygon class="cls-3" points="43.6 27.5 42.9 28.2 39.6 24.6 36.2 28.2 35.5 27.5 39.6 23.1 43.6 27.5"/></svg>