<svg id="Grid" xmlns="http://www.w3.org/2000/svg" viewBox="0 0 51 51"><defs><style>.cls-1{fill:none;}.cls-1,.cls-2{stroke:#0084ae;stroke-linecap:round;stroke-linejoin:round;}.cls-2{fill:#efefef;}</style></defs><title>selfie</title><rect class="cls-1" x="0.5" y="0.5" width="50" height="50" rx="25" ry="25"/><path class="cls-1" d="M577.4,6825l-0.2-.3c-0.7-.6-6.1-2-7.2-2.3,2.7-1.5,4.4-5.2,4.4-8.6s-1.3-8.1-7.2-8.1-7.2,3.6-7.2,8.1,1.7,7.1,4.4,8.6c-1.3.3-6.5,1.6-7.2,2.3s-1.7,4.7-.5,6.4H566" transform="translate(-543.3 -6794.7)"/><rect class="cls-1" x="22.7" y="30.3" width="17.5" height="10" rx="1" ry="1"/><path class="cls-2" d="M572.1,6831a2.5,2.5,0,0,0,1.1-2.2c0-1.1-.3-2-1.8-2s-1.8.9-1.8,2a2.5,2.5,0,0,0,1.1,2.2,9.6,9.6,0,0,0-1.8.6,1.5,1.5,0,0,0-.1,1.6H574a1.5,1.5,0,0,0-.1-1.6A10,10,0,0,0,572.1,6831Z" transform="translate(-543.3 -6794.7)"/><line class="cls-1" x1="33" y1="33.3" x2="37.3" y2="33.3"/><line class="cls-1" x1="33" y1="35.3" x2="37.3" y2="35.3"/><line class="cls-1" x1="33" y1="37.3" x2="37.3" y2="37.3"/></svg>