<svg xmlns="http://www.w3.org/2000/svg" xmlns:xlink="http://www.w3.org/1999/xlink" viewBox="0 0 136.1 125.2"><defs><style>.cls-1,.cls-4,.cls-6,.cls-7,.cls-8,.cls-9{fill:#fff;}.cls-2{fill:none;}.cls-3{isolation:isolate;}.cls-4{stroke:#b7b7b7;stroke-miterlimit:10;}.cls-5{clip-path:url(#clip-path);}.cls-12,.cls-14,.cls-6,.cls-7{mix-blend-mode:multiply;}.cls-14,.cls-7{opacity:0.8;}.cls-21,.cls-8{opacity:0.5;}.cls-9{opacity:0.2;}.cls-10{clip-path:url(#clip-path-2);}.cls-11,.cls-14{fill:#e9cab6;}.cls-12{fill:#d6b7a3;}.cls-13{fill:#152430;}.cls-15{fill:#895b2e;}.cls-16{fill:#aaaaab;}.cls-17{fill:#dfdfdf;}.cls-18{fill:#424242;}.cls-19{fill:#4c3e34;}.cls-20{fill:#21afa3;}.cls-21{fill:#49535b;}.cls-22{fill:#84e6f0;}.cls-23{fill:#548996;}.cls-24{fill:#efe5da;}.cls-25{fill:#b0b4b9;}.cls-26{fill:#55514d;}.cls-27{fill:#202933;}.cls-28{fill:#10161c;}.cls-29{fill:#289cae;}.cls-30{fill:#1d8893;}.cls-31{fill:#30bfce;}.cls-32{fill:#0084ae;}.cls-33{fill:#00a1c6;}.cls-34{fill:#8bedf7;}</style><clipPath id="clip-path" transform="translate(-114.5 -216.3)"><circle class="cls-1" cx="177.1" cy="278.9" r="57.8"/></clipPath><clipPath id="clip-path-2" transform="translate(-114.5 -216.3)"><circle class="cls-2" cx="177.1" cy="278.9" r="57.8"/></clipPath></defs><title>students</title><g class="cls-3"><g id="Layer_1" data-name="Layer 1"><circle class="cls-4" cx="62.6" cy="62.6" r="62.1"/><circle class="cls-1" cx="62.6" cy="62.6" r="57.8"/><g class="cls-5"><g id="man"><g id="man-2" data-name="man"><g id="man-3" data-name="man"><polygon class="cls-1" points="60.3 57.8 58.4 56.9 58.4 50.4 46.3 50.4 46.3 56.9 44.4 57.7 44.9 74.8 46.3 74.8 46.3 77.4 58.4 77.4 58.4 74.8 59.8 74.8 60.3 57.8"/><polygon class="cls-6" points="46.3 50.4 46.3 53.2 58.4 56.5 58.4 50.4 46.3 50.4"/><path class="cls-1" d="M175,274.1l-0.5,1.7c-0.8,2.2-2.8,5.9-7.5,5.9s-7.4-4.7-8.1-6.7l-0.2-.9c-9.9,3.7-6.9,34.7-6.9,34.7v25.7h31l-0.4-25.7S184.9,277.8,175,274.1Z" transform="translate(-114.5 -216.3)"/><path class="cls-1" d="M200.1,309.9a13.8,13.8,0,0,0,0-8.7c-1.9-5.5-5.4-17.1-6.4-19.3-2.2-4.9-9.4-4.7-18.4-7.8l-1-.3h0c-0.5,3.1-7.5,32.9-7.5,32.9s-6.9-29.8-7.5-32.9h0l-1,.3c-9,3.1-16.2,2.9-18.4,7.8-1,2.2-4.6,13.8-6.4,19.3a13.8,13.8,0,0,0,0,8.7,95.3,95.3,0,0,0,8.1,17.5,6,6,0,0,0,6.5,2.6c-0.3,1.3-2.3,7-2.3,7h41.6c0.3,0-1.7-5.7-2-7a6,6,0,0,0,6.5-2.6A95.3,95.3,0,0,0,200.1,309.9Z" transform="translate(-114.5 -216.3)"/><g id="man-4" data-name="man"><path class="cls-1" d="M180.2,249.3l0.4-5.4c0-7-6.7-12.7-13.7-12.7s-13.7,5.7-13.7,12.7l0.4,5.3a2.5,2.5,0,0,0-1,.5,2.5,2.5,0,0,0-.9,1.9v2.6a2.5,2.5,0,0,0,2.5,2.5c0,6.6,7.9,12.9,12.7,12.9s12.7-6.3,12.7-12.9a2.5,2.5,0,0,0,2.5-2.5v-2.6A2.5,2.5,0,0,0,180.2,249.3Z" transform="translate(-114.5 -216.3)"/><path class="cls-7" d="M180.2,249.3l0.4-5.4c0-7-6.7-12.7-13.7-12.7v18a52.9,52.9,0,0,0-3,9.6h3v10.9c4.7,0,12.7-6.3,12.7-12.9a2.5,2.5,0,0,0,2.5-2.5v-2.6A2.5,2.5,0,0,0,180.2,249.3Z" transform="translate(-114.5 -216.3)"/><path class="cls-1" d="M182.7,232c-0.1-.8-0.9-0.6-1.6-0.6-2.4.1-3-.7-7.8-3.5a11.6,11.6,0,0,0-13.1.7c-15.2,3.5-6.3,24.2-6.3,24.2s-0.1-10.9,4.6-14.2c7.9,5.4,15.9,5.7,20.5,2.5,1.8,4.1,1.2,11.7,1.2,11.7s3-7.7,1.4-14.5A9.8,9.8,0,0,0,182.7,232Z" transform="translate(-114.5 -216.3)"/></g></g><g id="computer"><path class="cls-1" d="M191,330.1H142.6a1.1,1.1,0,1,1,0-2.3H191A1.1,1.1,0,1,1,191,330.1Z" transform="translate(-114.5 -216.3)"/><rect class="cls-1" x="26.9" y="74.9" width="50.7" height="36.8" rx="14.2" ry="14.2"/><circle class="cls-8" cx="52.3" cy="92.1" r="4.1"/><path class="cls-9" d="M180.6,291.1H143.6a2.1,2.1,0,0,0-2.1,2.1v32.6a2.1,2.1,0,0,0,2.1,2.1h7.3A42.1,42.1,0,0,1,180.6,291.1Z" transform="translate(-114.5 -216.3)"/></g><g id="table"><path class="cls-1" d="M247.6,337.1H134.5a3.6,3.6,0,0,1,0-7.2H247.6A3.6,3.6,0,0,1,247.6,337.1Z" transform="translate(-114.5 -216.3)"/></g></g></g><path class="cls-1" d="M162.7,261.9h8.4a0.3,0.3,0,0,1,.2.5,7.9,7.9,0,0,1-8.8,0A0.3,0.3,0,0,1,162.7,261.9Z" transform="translate(-114.5 -216.3)"/><path class="cls-1" d="M163.3,251.2a0.5,0.5,0,0,1-.5-0.5,1.9,1.9,0,0,0-2.7,0,0.5,0.5,0,1,1-1,0c0-.9,1-1.6,2.3-1.6s2.3,0.7,2.3,1.6A0.5,0.5,0,0,1,163.3,251.2Z" transform="translate(-114.5 -216.3)"/><path class="cls-1" d="M174.2,251.2a0.5,0.5,0,0,1-.5-0.5,1.9,1.9,0,0,0-2.7,0,0.5,0.5,0,1,1-1,0c0-.9,1-1.6,2.3-1.6s2.3,0.7,2.3,1.6A0.5,0.5,0,0,1,174.2,251.2Z" transform="translate(-114.5 -216.3)"/></g><g class="cls-10"><polygon class="cls-11" points="54.9 60.2 53 59.3 53 52.8 40.8 52.8 40.8 59.3 38.9 60.1 39.4 77.2 40.8 77.2 40.8 79.8 53 79.8 53 77.2 54.3 77.2 54.9 60.2"/><polygon class="cls-12" points="40.8 52.8 40.8 55.6 53 58.9 53 52.8 40.8 52.8"/><path class="cls-1" d="M169.6,276.5l-0.5,1.7c-0.8,2.2-2.8,5.9-7.5,5.9s-7.4-4.7-8.1-6.7l-0.2-.9c-9.9,3.7-6.9,34.7-6.9,34.7v25.7h31l-0.4-25.7S179.5,280.2,169.6,276.5Z" transform="translate(-114.5 -216.3)"/><path class="cls-13" d="M194.6,312.3a13.8,13.8,0,0,0,0-8.7c-1.9-5.5-5.4-17.1-6.4-19.3-2.2-4.9-9.4-4.7-18.4-7.8l-1-.3h0c-0.5,3.1-7.5,32.9-7.5,32.9s-6.9-29.8-7.5-32.9h0l-1,.3c-9,3.1-16.2,2.9-18.4,7.8-1,2.2-4.6,13.8-6.4,19.3a13.8,13.8,0,0,0,0,8.7,95.3,95.3,0,0,0,8.1,17.5,6,6,0,0,0,6.5,2.6c-0.3,1.3-2.3,7-2.3,7H182c0.3,0-1.7-5.7-2-7a6,6,0,0,0,6.5-2.6A95.3,95.3,0,0,0,194.6,312.3Z" transform="translate(-114.5 -216.3)"/><path class="cls-11" d="M174.7,251.7l0.4-5.4c0-7-6.7-12.7-13.7-12.7s-13.7,5.7-13.7,12.7l0.4,5.3a2.5,2.5,0,0,0-1,.5,2.5,2.5,0,0,0-.9,1.9v2.6a2.5,2.5,0,0,0,2.5,2.5c0,6.6,7.9,12.9,12.7,12.9s12.7-6.3,12.7-12.9a2.5,2.5,0,0,0,2.5-2.5v-2.6A2.5,2.5,0,0,0,174.7,251.7Z" transform="translate(-114.5 -216.3)"/><path class="cls-14" d="M174.7,251.7l0.4-5.4c0-7-6.7-12.7-13.7-12.7v18a52.9,52.9,0,0,0-3,9.6h3v10.9c4.7,0,12.7-6.3,12.7-12.9a2.5,2.5,0,0,0,2.5-2.5v-2.6A2.5,2.5,0,0,0,174.7,251.7Z" transform="translate(-114.5 -216.3)"/><path class="cls-15" d="M177.2,234.4c-0.1-.8-0.9-0.6-1.6-0.6-2.4.1-3-.7-7.8-3.5a11.6,11.6,0,0,0-13.1.7c-15.2,3.5-6.3,24.2-6.3,24.2s-0.1-10.9,4.6-14.2c7.9,5.4,15.9,5.7,20.5,2.5,1.8,4.1,1.2,11.7,1.2,11.7s3-7.7,1.4-14.5A9.8,9.8,0,0,0,177.2,234.4Z" transform="translate(-114.5 -216.3)"/><path class="cls-16" d="M185.6,332.5H137.1a1.1,1.1,0,1,1,0-2.3h48.4A1.1,1.1,0,1,1,185.6,332.5Z" transform="translate(-114.5 -216.3)"/><rect class="cls-17" x="21.5" y="77.3" width="50.7" height="36.8" rx="2" ry="2"/><circle class="cls-8" cx="46.8" cy="94.5" r="4.1"/><path class="cls-9" d="M175.2,293.5H138.1a2.1,2.1,0,0,0-2.1,2.1v32.6a2.1,2.1,0,0,0,2.1,2.1h7.3A42.1,42.1,0,0,1,175.2,293.5Z" transform="translate(-114.5 -216.3)"/><g id="table-2" data-name="table"><path class="cls-18" d="M222.1,339.5H129a3.6,3.6,0,0,1,0-7.2h93.2A3.6,3.6,0,0,1,222.1,339.5Z" transform="translate(-114.5 -216.3)"/></g><path class="cls-19" d="M157.2,264.3h8.4a0.3,0.3,0,0,1,.2.5,7.9,7.9,0,0,1-8.8,0A0.3,0.3,0,0,1,157.2,264.3Z" transform="translate(-114.5 -216.3)"/><path class="cls-19" d="M157.8,253.6a0.5,0.5,0,0,1-.5-0.5,1.9,1.9,0,0,0-2.7,0,0.5,0.5,0,0,1-1,0c0-.9,1-1.6,2.3-1.6s2.3,0.7,2.3,1.6A0.5,0.5,0,0,1,157.8,253.6Z" transform="translate(-114.5 -216.3)"/><path class="cls-19" d="M168.7,253.6a0.5,0.5,0,0,1-.5-0.5,1.9,1.9,0,0,0-2.7,0,0.5,0.5,0,0,1-1,0c0-.9,1-1.6,2.3-1.6s2.3,0.7,2.3,1.6A0.5,0.5,0,0,1,168.7,253.6Z" transform="translate(-114.5 -216.3)"/><path class="cls-20" d="M176.3,325.6H220a0.4,0.4,0,0,1,0,.9H205.3v5H220a0.4,0.4,0,0,1,0,.9H176.3a1.7,1.7,0,0,1-1.7-1.7v-3.3A1.7,1.7,0,0,1,176.3,325.6Z" transform="translate(-114.5 -216.3)"/><path class="cls-21" d="M175.4,331.3h30v0.2H220a0.4,0.4,0,0,1,0,.9H176.3a1.7,1.7,0,0,1-1.7-1.3Z" transform="translate(-114.5 -216.3)"/><path class="cls-22" d="M175.4,326.7h30v-0.2H220a0.4,0.4,0,0,0,0-.9H176.3a1.7,1.7,0,0,0-1.7,1.3Z" transform="translate(-114.5 -216.3)"/><path class="cls-23" d="M202.7,330.6v-3.3a1.7,1.7,0,0,1,1.7-1.7H220a0.4,0.4,0,0,1,0,.9H205.3v5H220a0.4,0.4,0,0,1,0,.9H204.4A1.7,1.7,0,0,1,202.7,330.6Z" transform="translate(-114.5 -216.3)"/><path class="cls-24" d="M204.9,326.5h15a8.1,8.1,0,0,0,0,5h-15a1.1,1.1,0,0,1-1.1-1.1v-2.8A1.1,1.1,0,0,1,204.9,326.5Z" transform="translate(-114.5 -216.3)"/><path class="cls-25" d="M204.9,326.5h15v0.4H205a1.1,1.1,0,0,0-1.1,1.1v3a1.1,1.1,0,0,1-.2-0.6v-2.8A1.1,1.1,0,0,1,204.9,326.5Z" transform="translate(-114.5 -216.3)"/><path class="cls-26" d="M203.7,330.4v-2.8a1.1,1.1,0,0,1,.4-0.9,8.1,8.1,0,0,1,0,4.5A1.1,1.1,0,0,1,203.7,330.4Z" transform="translate(-114.5 -216.3)"/><path class="cls-27" d="M178.8,318.9h44.6a0.4,0.4,0,0,1,0,.9H208.8v5h14.6a0.4,0.4,0,0,1,0,.9H178.8a1.7,1.7,0,0,1-1.7-1.7v-3.3A1.7,1.7,0,0,1,178.8,318.9Z" transform="translate(-114.5 -216.3)"/><path class="cls-28" d="M177.9,324.5h30.8v0.2h14.6a0.4,0.4,0,0,1,0,.9H178.8a1.7,1.7,0,0,1-1.7-1.3Z" transform="translate(-114.5 -216.3)"/><path class="cls-28" d="M206.2,323.9v-3.3a1.7,1.7,0,0,1,1.7-1.7h15.5a0.4,0.4,0,0,1,0,.9H208.8v5h14.6a0.4,0.4,0,0,1,0,.9H207.9A1.7,1.7,0,0,1,206.2,323.9Z" transform="translate(-114.5 -216.3)"/><path class="cls-24" d="M208.3,319.7h15a8.1,8.1,0,0,0,0,5h-15a1.1,1.1,0,0,1-1.1-1.1v-2.8A1.1,1.1,0,0,1,208.3,319.7Z" transform="translate(-114.5 -216.3)"/><path class="cls-25" d="M208.3,319.7h15v0.4H208.5a1.1,1.1,0,0,0-1.1,1.1v3a1.1,1.1,0,0,1-.2-0.6v-2.8A1.1,1.1,0,0,1,208.3,319.7Z" transform="translate(-114.5 -216.3)"/><path class="cls-26" d="M207.2,323.6v-2.8a1.1,1.1,0,0,1,.4-0.9,8.1,8.1,0,0,1,0,4.5A1.1,1.1,0,0,1,207.2,323.6Z" transform="translate(-114.5 -216.3)"/><path class="cls-29" d="M214.2,310.8H177.1a0.5,0.5,0,0,0,0,1h11.8v6H177.1a0.5,0.5,0,0,0,0,1h37.1a1.9,1.9,0,0,0,1.7-2v-3.9A1.9,1.9,0,0,0,214.2,310.8Z" transform="translate(-114.5 -216.3)"/><path class="cls-30" d="M215,317.5H188.8v0.3H177.1a0.5,0.5,0,0,0,0,1h37.1a1.8,1.8,0,0,0,1.7-1.5Z" transform="translate(-114.5 -216.3)"/><path class="cls-31" d="M212.1,312.1h-9.6a1.7,1.7,0,0,0-1.6-1.3h9.6A1.7,1.7,0,0,1,212.1,312.1Z" transform="translate(-114.5 -216.3)"/><path class="cls-31" d="M202.5,312.1H188.8v-0.3H177.1a0.5,0.5,0,0,1,0-1h23.8A1.7,1.7,0,0,1,202.5,312.1Z" transform="translate(-114.5 -216.3)"/><path class="cls-31" d="M215.8,312.3l-0.8-.2h-3a1.7,1.7,0,0,0-1.6-1.3h3.7A1.8,1.8,0,0,1,215.8,312.3Z" transform="translate(-114.5 -216.3)"/><path class="cls-31" d="M191.4,316.8v-3.9a1.9,1.9,0,0,0-1.7-2H177.1a0.5,0.5,0,0,0,0,1h11.8v6H177.1a0.5,0.5,0,0,0,0,1h12.7A1.9,1.9,0,0,0,191.4,316.8Z" transform="translate(-114.5 -216.3)"/><path class="cls-1" d="M189.3,311.8H177.1a11.2,11.2,0,0,1,0,6h12.2a1.3,1.3,0,0,0,1.1-1.3v-3.3A1.3,1.3,0,0,0,189.3,311.8Z" transform="translate(-114.5 -216.3)"/><path class="cls-25" d="M189.3,311.8H177.1v0.5h11.9a1.3,1.3,0,0,1,1.1,1.3v3.5a1.5,1.5,0,0,0,.2-0.8v-3.3A1.3,1.3,0,0,0,189.3,311.8Z" transform="translate(-114.5 -216.3)"/><path class="cls-26" d="M190.4,316.5v-3.3a1.4,1.4,0,0,0-.4-1,11.3,11.3,0,0,0,0,5.3A1.4,1.4,0,0,0,190.4,316.5Z" transform="translate(-114.5 -216.3)"/><path class="cls-32" d="M217.3,304.1H178.8a0.4,0.4,0,0,0,0,.9h14.6v5H178.8a0.4,0.4,0,0,0,0,.9h38.5a1.7,1.7,0,0,0,1.7-1.7v-3.3A1.7,1.7,0,0,0,217.3,304.1Z" transform="translate(-114.5 -216.3)"/><path class="cls-8" d="M209.9,304.1h-1a1.7,1.7,0,0,1,1.7,1.7v3.3a1.7,1.7,0,0,1-1.7,1.7h1a1.7,1.7,0,0,0,1.7-1.7v-3.3A1.7,1.7,0,0,0,209.9,304.1Z" transform="translate(-114.5 -216.3)"/><path class="cls-8" d="M215.1,304.1h-3.9a1.7,1.7,0,0,1,1.7,1.7v3.3a1.7,1.7,0,0,1-1.7,1.7h3.9a1.7,1.7,0,0,0,1.7-1.7v-3.3A1.7,1.7,0,0,0,215.1,304.1Z" transform="translate(-114.5 -216.3)"/><path class="cls-21" d="M218.2,309.7H193.4V310H178.8a0.4,0.4,0,0,0,0,.9h38.5a1.7,1.7,0,0,0,1.7-1.3Z" transform="translate(-114.5 -216.3)"/><path class="cls-33" d="M218.2,305.2H193.4v-0.2H178.8a0.4,0.4,0,0,1,0-.9h38.5a1.7,1.7,0,0,1,1.7,1.3Z" transform="translate(-114.5 -216.3)"/><path class="cls-33" d="M196.1,309.1v-3.3a1.7,1.7,0,0,0-1.7-1.7H178.8a0.4,0.4,0,0,0,0,.9h14.6v5H178.8a0.4,0.4,0,0,0,0,.9h15.5A1.7,1.7,0,0,0,196.1,309.1Z" transform="translate(-114.5 -216.3)"/><path class="cls-1" d="M193.9,304.9h-15a8.1,8.1,0,0,1,0,5h15a1.1,1.1,0,0,0,1.1-1.1v-2.8A1.1,1.1,0,0,0,193.9,304.9Z" transform="translate(-114.5 -216.3)"/><path class="cls-25" d="M193.9,304.9h-15v0.4h14.7a1.1,1.1,0,0,1,1.1,1.1v3a1.1,1.1,0,0,0,.2-0.6v-2.8A1.1,1.1,0,0,0,193.9,304.9Z" transform="translate(-114.5 -216.3)"/><path class="cls-26" d="M195.1,308.8v-2.8a1.1,1.1,0,0,0-.4-0.9,8.1,8.1,0,0,0,0,4.5A1.1,1.1,0,0,0,195.1,308.8Z" transform="translate(-114.5 -216.3)"/><path class="cls-34" d="M209.9,304.1h-1a1.7,1.7,0,0,1,1.6,1.1h1A1.7,1.7,0,0,0,209.9,304.1Z" transform="translate(-114.5 -216.3)"/><path class="cls-34" d="M215.1,304.1h-3.9a1.7,1.7,0,0,1,1.6,1.1h3.9A1.7,1.7,0,0,0,215.1,304.1Z" transform="translate(-114.5 -216.3)"/><circle class="cls-14" cx="53.3" cy="44.2" r="2.1"/><circle class="cls-14" cx="40.5" cy="44.2" r="2.1"/></g></g></g></svg>