<svg xmlns="http://www.w3.org/2000/svg" xmlns:xlink="http://www.w3.org/1999/xlink" viewBox="0 0 136.3 125.2"><defs><style>.cls-1,.cls-9{fill:none;}.cls-2{isolation:isolate;}.cls-13,.cls-3{fill:#fff;}.cls-3{stroke:#b7b7b7;}.cls-19,.cls-3{stroke-miterlimit:10;}.cls-4{clip-path:url(#clip-path);}.cls-5{fill:#424242;}.cls-5,.cls-6,.cls-8{fill-rule:evenodd;}.cls-6{fill:#515151;}.cls-7{fill:#eaeaea;}.cls-8{fill:#d6d6d6;}.cls-9{stroke:#fff;}.cls-18,.cls-9{stroke-linecap:round;stroke-linejoin:round;stroke-width:2px;}.cls-10{fill:#35333c;}.cls-11{fill:#eacbb7;}.cls-12{fill:#d6b7a3;}.cls-12,.cls-17{mix-blend-mode:multiply;}.cls-14{fill:#152430;}.cls-15{fill:#0d4870;}.cls-16,.cls-17{fill:#e9cab6;}.cls-17{opacity:0.8;}.cls-18{fill:#34302d;stroke:#34302d;}.cls-19{fill:#262626;stroke:#262626;}.cls-20{fill:#4c3e34;}</style><clipPath id="clip-path" transform="translate(-296.2 -216.3)"><circle class="cls-1" cx="358.8" cy="278.9" r="57.8"/></clipPath></defs><title>teachers</title><g class="cls-2"><g id="Layer_1" data-name="Layer 1"><circle class="cls-3" cx="62.6" cy="62.6" r="62.1"/><g class="cls-4"><path class="cls-5" d="M338,230.2h92.4a2.2,2.2,0,0,1,2.1,2.2v73.1a2.2,2.2,0,0,1-2.1,2.2H338a2.2,2.2,0,0,1-2.1-2.2V232.3a2.2,2.2,0,0,1,2.1-2.2h0Z" transform="translate(-296.2 -216.3)"/><path class="cls-6" d="M338,231.7h92.4c1.3,0,2.8,1.8,1.8,2.4-57.8,36.8-35.8,35.6-93.7,73.4-1,.6-2.7-0.6-2.7-2V233.8a2.1,2.1,0,0,1,2.1-2.1h0Z" transform="translate(-296.2 -216.3)"/><rect class="cls-7" x="44" y="18.3" width="87.9" height="70.27"/><polygon class="cls-8" points="44 18.3 131.9 18.3 124.7 39 44 88.5 44 18.3"/><line class="cls-9" x1="87.7" y1="80.5" x2="79.7" y2="48.6"/><rect class="cls-10" x="34" y="71.1" width="16.1" height="6.85"/><polygon class="cls-11" points="50.7 73.2 48.7 72.2 48.7 65.7 35.5 65.7 35.5 72.2 33.4 73.1 34 91.7 35.5 91.7 35.5 94.5 48.7 94.5 48.7 91.7 50.2 91.7 50.7 73.2"/><polygon class="cls-12" points="35.5 65.7 35.5 69.8 48.7 71.8 48.7 65.7 35.5 65.7"/><path class="cls-13" d="M329.5,289.5l0.5,1.8c0.8,2.4,3,3.1,8.2,3.1s8.1-1.7,8.7-3.9l0.3-1c10.7,4,7.4,37.7,7.4,37.7v6.9H321l0.5-6.9S318.7,293.5,329.5,289.5Z" transform="translate(-296.2 -216.3)"/><path class="cls-13" d="M338.3,294.2l4.1,4.3,6.9-8.3-4.3-2.2-1.6,1.5Z" transform="translate(-296.2 -216.3)"/><polygon class="cls-13" points="35.4 71.8 42.1 78 38 82.2 31.1 74 35.4 71.8"/><path class="cls-14" d="M314.6,338.4c0.7-10.7.2-24.9,0.2-24.9s-5.7-4.3-4-14.3c1.1-6.2,7.9-6.2,18.6-10.2l8.9,35.8,8.9-35.8c10.7,4,17.6,4,18.6,10.2,1.7,10-4,14.3-4,14.3s-0.5,17.2.2,27.9" transform="translate(-296.2 -216.3)"/><polygon class="cls-15" points="55.7 74 55.5 80.3 52.3 82.9 54.8 86.2 42.2 108.6 50.1 71.1 55.7 74"/><polygon class="cls-15" points="28.4 74 28.7 80.3 31.8 82.9 29.4 86.2 42 108.6 34 71.1 28.4 74"/><line class="cls-14" x1="15.2" y1="123.8" x2="8.7" y2="124.9"/><path class="cls-14" d="M313.5,332.9c1.6-10.2,2.3-5.7,2.4-5.8l9.3-29.5c-0.1-.3-1.1-4.7-1.9-6.6-8.4,2.6-14.4,3.4-15.3,8.6-1.7,10-3.6,21.3-4.7,33.4" transform="translate(-296.2 -216.3)"/><path class="cls-16" d="M379.6,296.1s0.1,2.6.2,4.6v4l8.6,0.8v-4.8c0-2.3-.2-5.1-0.2-5.1-0.1-1.8-2.2-3-4.6-2.8S379.5,294.5,379.6,296.1Z" transform="translate(-296.2 -216.3)"/><path class="cls-14" d="M390.2,304.4c-0.2,3.4-.3,12.9-2.9,15.6s-7.7,5.7-16.8.7c-7.6-4.2-14.3-10.6-19.4-16.6l12.2-9.1c4.8,5.5,7.2,10.2,12.5,15.4,1.6,1.6,2.3,1,2.3,1s0.7-5.5.6-8.6h11.5A8.4,8.4,0,0,1,390.2,304.4Z" transform="translate(-296.2 -216.3)"/><path class="cls-16" d="M352.8,262.5l0.4-5.8c0-7.6-7.3-13.8-14.9-13.8s-14.9,6.2-14.9,13.8l0.4,5.8a2.7,2.7,0,0,0-1.1.6,2.7,2.7,0,0,0-1,2.1V268a2.7,2.7,0,0,0,2.7,2.8c0,7.2,8.6,14,13.8,14s13.8-6.8,13.8-14a2.8,2.8,0,0,0,2.7-2.8v-2.9A2.7,2.7,0,0,0,352.8,262.5Z" transform="translate(-296.2 -216.3)"/><path class="cls-17" d="M352.8,262.5l0.4-5.8c0-7.6-7.3-13.8-14.9-13.8h0v19.8a57.4,57.4,0,0,0-3.3,10.5h3.3v11.6h0c5.2,0,13.8-6.8,13.8-14a2.8,2.8,0,0,0,2.7-2.8v-2.9A2.7,2.7,0,0,0,352.8,262.5Z" transform="translate(-296.2 -216.3)"/><path class="cls-18" d="M353.2,254.5a23.1,23.1,0,0,0-2.3-5.7,10.9,10.9,0,0,0-1.9-2.8l-0.5-.5-1-.8a13.6,13.6,0,0,0-5-2.6h-0.8a23.3,23.3,0,0,0-4.3-.6h-0.6c-3.1,0-6.5,1.4-8.8,2.4l-1.3.3h-0.5a3.8,3.8,0,0,1-2.4-1.3h0a31.6,31.6,0,0,0,.8,4.5l0.5,0.8a13.3,13.3,0,0,0-1.8,4.2c-0.7,2.5-.9,8.3-1,9.6a0.8,0.8,0,0,0,.6.9c0.6,0,.8-1,0.8-1s0.4-4.8.7-6.3a14.3,14.3,0,0,1,2.2-6.1,9.9,9.9,0,0,0,3.7,1.6l1.6,0.2c4.8,0,10.8-4,10.9-4l1.5-.3a2.8,2.8,0,0,1,1.6.5,17,17,0,0,1,2.4,2.1h0l0.3,0.3a21.3,21.3,0,0,1,1.4,2.4c1.1,2.3,2,8,2.2,9.4s0.2,1.1.9,1.1,0.8-.5.8-1.1A49.1,49.1,0,0,0,353.2,254.5Z" transform="translate(-296.2 -216.3)"/><path class="cls-19" d="M350.7,258.8h-8.5a6.3,6.3,0,0,0-2.5,1h-2.9a6.3,6.3,0,0,0-2.5-1h-9.7l-1.9.3a2.2,2.2,0,0,0-.2.9,1.3,1.3,0,0,0,.2.9l0.4,0.2a0.6,0.6,0,0,1,.5.4c0.1,0.3.2,1.1,0.3,2s0.3,2.5.4,2.8,0.7,1.5,3.4,1.6h4l2.3-.2a3.6,3.6,0,0,0,2.3-2.5,18.2,18.2,0,0,1,1.4-3.2,0.8,0.8,0,0,1,.6-0.2,0.9,0.9,0,0,1,.7.2,20.6,20.6,0,0,1,1.4,3.2,3.7,3.7,0,0,0,2.3,2.5,8.6,8.6,0,0,0,2.3.2h4c2.7-.1,3.3-1.3,3.4-1.6s0.3-1.6.4-2.8l0.3-2a0.5,0.5,0,0,1,.5-0.4l0.4-.2a2.5,2.5,0,0,0,0-1.8c-0.1-.1-0.3-0.2-1.7-0.3h-1.5Zm-15.3,5.9-0.2.5a3.6,3.6,0,0,1-2.1,2l-2.7.2-3.2-.2c-1.5-.2-2.1-0.6-2.3-1.4s-0.2-2.9-.3-4.7a1.6,1.6,0,0,1,.3-0.9,1.8,1.8,0,0,1,1.1-.5c0.1,0,7.2.1,8.2,0.3a2,2,0,0,1,1.9,1.3C336.4,262,335.8,263.6,335.4,264.7Zm16.1,1.1c-0.2.8-.8,1.1-2.3,1.4l-3.2.2-2.7-.2a3.6,3.6,0,0,1-2.1-2l-0.2-.5c-0.4-1.1-1-2.8-.8-3.4h0a2,2,0,0,1,1.9-1.3c1.1-.1,7.9-0.3,8.2-0.3a1.8,1.8,0,0,1,1.1.5,1.6,1.6,0,0,1,.3.9C351.7,262.9,351.5,265.6,351.5,265.8Z" transform="translate(-296.2 -216.3)"/><path class="cls-20" d="M333.9,276.4h8.6a0.3,0.3,0,0,1,.2.5,8.1,8.1,0,0,1-9,0A0.3,0.3,0,0,1,333.9,276.4Z" transform="translate(-296.2 -216.3)"/><path class="cls-20" d="M333,264a0.5,0.5,0,0,1-.5-0.5,2,2,0,0,0-3,0,0.5,0.5,0,1,1-1,0c0-.9,1.1-1.7,2.5-1.7s2.5,0.7,2.5,1.7A0.5,0.5,0,0,1,333,264Z" transform="translate(-296.2 -216.3)"/><path class="cls-20" d="M346.9,264a0.5,0.5,0,0,1-.5-0.5,2,2,0,0,0-3,0,0.5,0.5,0,1,1-1,0c0-.9,1.1-1.7,2.5-1.7s2.5,0.7,2.5,1.7A0.5,0.5,0,0,1,346.9,264Z" transform="translate(-296.2 -216.3)"/><circle class="cls-17" cx="50.6" cy="56" r="2.6"/><circle class="cls-17" cx="34.7" cy="56" r="2.6"/></g></g></g></svg>