<?xml version="1.0" encoding="utf-8"?>
<!-- Generator: Adobe Illustrator 19.2.1, SVG Export Plug-In . SVG Version: 6.00 Build 0)  -->
<svg version="1.1" id="Layer_1" xmlns="http://www.w3.org/2000/svg" xmlns:xlink="http://www.w3.org/1999/xlink" x="0px" y="0px"
	 viewBox="0 0 627.3 152.2" enable-background="new 0 0 627.3 152.2" xml:space="preserve">
<g>
	<line fill="none" stroke="#202933" stroke-miterlimit="10" stroke-dasharray="5,3" x1="157" y1="76.6" x2="169.8" y2="76.6"/>
	<line fill="none" stroke="#202933" stroke-miterlimit="10" stroke-dasharray="5,3" x1="211.9" y1="76.6" x2="224.7" y2="76.6"/>
	<line fill="none" stroke="#202933" stroke-miterlimit="10" stroke-dasharray="5,3" x1="458.6" y1="76.6" x2="471.5" y2="76.6"/>
	<line fill="none" stroke="#202933" stroke-miterlimit="10" stroke-dasharray="5,3" x1="365.8" y1="76.6" x2="378.6" y2="76.6"/>
	<g>
		<circle fill="#FFFFFF" cx="190.8" cy="76.6" r="17.6"/>
		<g>
			<path d="M200.6,78.2c-0.1-0.1-0.2-0.1-1.1-0.2c0-0.5-0.2-1.3-0.5-2.5c-0.6-2.2-1.5-3.9-2.9-5.2c-1.3-1.2-3.2-1.9-5.5-2.1
				c-0.1,0-0.2,0-0.3,0c-1.5,0-3.2,0.7-4.4,1.2c-0.2,0.1-0.4,0.1-0.6,0.1c-0.8,0-1.3-0.7-1.3-0.7l-0.2-0.3l0,0.3
				c0,0,0.1,0.7,0.2,1.3c0,0.2,0.1,0.6,0.3,0.9c-0.6,0.6-1.1,1.2-1.7,3.1c-0.4,1.4-0.5,3-0.6,3.7c-0.7,0-1.1,0.1-1.2,0.2
				c-0.1,0.1-0.1,0.5-0.1,0.6c0,0.3,0,0.5,0.1,0.6c0.1,0.1,0.2,0.1,0.2,0.1c0.2,0,0.3,0.1,0.3,0.3c0,0.2,0.1,0.7,0.2,1.3
				c0.1,0.8,0.2,1.6,0.3,1.7c0.1,0.2,0.5,1,2.2,1c0.8,0,1.7,0.1,2.5,0.1c0.8,0,1.2,0,1.5-0.1c0.3-0.1,1-0.3,1.5-1.6
				c0.3-0.9,0.6-1.6,0.9-2c0-0.1,0.2-0.1,0.4-0.1c0.2,0,0.4,0.1,0.4,0.1c0.3,0.4,0.6,1.1,0.9,2c0.4,1.2,1.2,1.5,1.5,1.6
				c0.2,0.1,0.7,0.1,1.5,0.1h0c0.8,0,1.7,0,2.5-0.1c1.7-0.1,2.1-0.8,2.2-1c0.1-0.2,0.2-1,0.3-1.8c0.1-0.5,0.1-1.1,0.2-1.3
				c0-0.2,0.2-0.2,0.3-0.2c0.1,0,0.2-0.1,0.3-0.1C200.9,79.1,200.7,78.3,200.6,78.2z M192,79.6c0.1-0.5,0.5-0.7,1.2-0.8
				c0.7-0.1,5-0.2,5.2-0.2c0.1,0,0.5,0.1,0.7,0.3c0.2,0.3,0.2,0.5,0.2,0.5c0,1.1-0.1,2.8-0.2,3c-0.1,0.5-0.5,0.7-1.4,0.9
				c-0.4,0.1-1.2,0.1-2,0.1c-0.8,0-1.5,0-1.7-0.1c-0.4-0.1-1.1-0.6-1.3-1.2c0-0.1-0.1-0.2-0.1-0.3C192.3,81,191.9,80,192,79.6z
				 M182.9,78c0-0.4,0.1-1.1,0.2-1.9c0.2-1.8,1-3.1,1.3-3.4c0.1-0.2,0.4-0.4,0.8-0.6c0.5,0.4,1.2,0.8,2,0.9c0.3,0.1,0.5,0.1,0.8,0.1
				c2.4,0,5.4-2,5.4-2c0,0,0.3-0.1,0.7-0.1c0.3,0,0.6,0.1,0.8,0.2c0.8,0.5,1.9,1.6,2.6,3c0.6,1.2,0.9,3,1.1,3.8c-0.4,0-1,0-1.7,0
				c-1.4,0-3.1,0-3.6,0.1c-0.7,0.1-1.4,0.5-1.6,0.6l-1.9,0c-0.2-0.1-0.9-0.5-1.6-0.6c-0.5,0-2.2-0.1-3.6-0.1
				C183.9,78,183.3,78,182.9,78z M189,81.7c0,0.1-0.1,0.2-0.1,0.3c-0.2,0.6-0.9,1.1-1.3,1.2c-0.2,0.1-0.9,0.1-1.7,0.1
				c-0.9,0-1.6,0-2-0.1c-0.9-0.1-1.3-0.4-1.4-0.9c0-0.2-0.1-1.8-0.2-2.9c0,0,0-0.3,0.2-0.5c0.2-0.2,0.6-0.3,0.7-0.3
				c0.2,0,4.5,0.1,5.2,0.2c0.7,0.1,1.1,0.4,1.2,0.8C189.6,80,189.2,81,189,81.7z"/>
			<path fill="#289CAE" d="M184.7,81.8v-2c0-0.1,0.1-0.1,0.2-0.1l2,1c0.1,0,0.1,0.2,0,0.2l-2,1C184.8,81.9,184.7,81.9,184.7,81.8z"
				/>
			<path fill="#289CAE" d="M194.9,81.8v-2c0-0.1,0.1-0.1,0.2-0.1l2,1c0.1,0,0.1,0.2,0,0.2l-2,1C195,81.9,194.9,81.9,194.9,81.8z"/>
		</g>
		<circle fill="none" stroke="#FFFFFF" stroke-width="0.3" stroke-miterlimit="10" cx="190.8" cy="76.6" r="15.1"/>
		<g>
			<circle fill="none" stroke="#D8D8D8" stroke-miterlimit="10" stroke-dasharray="1.9741,0.9871" cx="190.8" cy="76.6" r="15.1"/>
		</g>
	</g>
	<g>
		<circle fill="#FFFFFF" cx="400" cy="76.6" r="17.6"/>
		<g>
			<path d="M409.9,78.2c-0.1-0.1-0.2-0.1-1.1-0.2c0-0.5-0.2-1.3-0.5-2.5c-0.6-2.2-1.5-3.9-2.9-5.2c-1.3-1.2-3.2-1.9-5.5-2.1
				c-0.1,0-0.2,0-0.3,0c-1.5,0-3.2,0.7-4.4,1.2c-0.2,0.1-0.4,0.1-0.6,0.1c-0.8,0-1.3-0.7-1.3-0.7l-0.2-0.3l0,0.3
				c0,0,0.1,0.7,0.2,1.3c0,0.2,0.1,0.6,0.3,0.9c-0.6,0.6-1.1,1.2-1.7,3.1c-0.4,1.4-0.5,3-0.6,3.7c-0.7,0-1.1,0.1-1.2,0.2
				c-0.1,0.1-0.1,0.5-0.1,0.6c0,0.3,0,0.5,0.1,0.6c0.1,0.1,0.2,0.1,0.2,0.1c0.2,0,0.3,0.1,0.3,0.3c0,0.2,0.1,0.7,0.2,1.3
				c0.1,0.8,0.2,1.6,0.3,1.7c0.1,0.2,0.5,1,2.2,1c0.8,0,1.7,0.1,2.5,0.1c0.8,0,1.2,0,1.5-0.1c0.3-0.1,1-0.3,1.5-1.6
				c0.3-0.9,0.6-1.6,0.9-2c0-0.1,0.2-0.1,0.4-0.1c0.2,0,0.4,0.1,0.4,0.1c0.3,0.4,0.6,1.1,0.9,2c0.4,1.2,1.2,1.5,1.5,1.6
				c0.2,0.1,0.7,0.1,1.5,0.1h0c0.8,0,1.7,0,2.5-0.1c1.7-0.1,2.1-0.8,2.2-1c0.1-0.2,0.2-1,0.3-1.8c0.1-0.5,0.1-1.1,0.2-1.3
				c0-0.2,0.2-0.2,0.3-0.2c0.1,0,0.2-0.1,0.3-0.1C410.1,79.1,410,78.3,409.9,78.2z M401.3,79.6c0.1-0.5,0.5-0.7,1.2-0.8
				c0.7-0.1,5-0.2,5.2-0.2c0.1,0,0.5,0.1,0.7,0.3c0.2,0.3,0.2,0.5,0.2,0.5c0,1.1-0.1,2.8-0.2,3c-0.1,0.5-0.5,0.7-1.4,0.9
				c-0.4,0.1-1.2,0.1-2,0.1c-0.8,0-1.5,0-1.7-0.1c-0.4-0.1-1.1-0.6-1.3-1.2c0-0.1-0.1-0.2-0.1-0.3C401.6,81,401.2,80,401.3,79.6z
				 M392.2,78c0-0.4,0.1-1.1,0.2-1.9c0.2-1.8,1-3.1,1.3-3.4c0.1-0.2,0.4-0.4,0.8-0.6c0.5,0.4,1.2,0.8,2,0.9c0.3,0.1,0.5,0.1,0.8,0.1
				c2.4,0,5.4-2,5.4-2c0,0,0.3-0.1,0.7-0.1c0.3,0,0.6,0.1,0.8,0.2c0.8,0.5,1.9,1.6,2.6,3c0.6,1.2,0.9,3,1.1,3.8c-0.4,0-1,0-1.7,0
				c-1.4,0-3.1,0-3.6,0.1c-0.7,0.1-1.4,0.5-1.6,0.6l-1.9,0c-0.2-0.1-0.9-0.5-1.6-0.6c-0.5,0-2.2-0.1-3.6-0.1
				C393.2,78,392.6,78,392.2,78z M398.3,81.7c0,0.1-0.1,0.2-0.1,0.3c-0.2,0.6-0.9,1.1-1.3,1.2c-0.2,0.1-0.9,0.1-1.7,0.1
				c-0.9,0-1.6,0-2-0.1c-0.9-0.1-1.3-0.4-1.4-0.9c0-0.2-0.1-1.8-0.2-2.9c0,0,0-0.3,0.2-0.5c0.2-0.2,0.6-0.3,0.7-0.3
				c0.2,0,4.5,0.1,5.2,0.2c0.7,0.1,1.1,0.4,1.2,0.8C398.9,80,398.5,81,398.3,81.7z"/>
			<path fill="#289CAE" d="M394,81.8v-2c0-0.1,0.1-0.1,0.2-0.1l2,1c0.1,0,0.1,0.2,0,0.2l-2,1C394.1,81.9,394,81.9,394,81.8z"/>
			<path fill="#289CAE" d="M404.2,81.8v-2c0-0.1,0.1-0.1,0.2-0.1l2,1c0.1,0,0.1,0.2,0,0.2l-2,1C404.2,81.9,404.2,81.9,404.2,81.8z"
				/>
		</g>
		<circle fill="none" stroke="#FFFFFF" stroke-width="0.3" stroke-miterlimit="10" cx="400" cy="76.6" r="15.1"/>
		<g>
			<circle fill="none" stroke="#D8D8D8" stroke-miterlimit="10" stroke-dasharray="1.9741,0.9871" cx="400" cy="76.6" r="15.1"/>
		</g>
	</g>
	<g>
		<g>
			<circle fill="#FFFFFF" stroke="#B7B7B7" stroke-miterlimit="10" cx="295.4" cy="76.6" r="66.2"/>
			<g>
				<defs>
					<circle id="SVGID_1_" cx="295.4" cy="76.6" r="62.6"/>
				</defs>
				<clipPath id="SVGID_2_">
					<use xlink:href="#SVGID_1_"  overflow="visible"/>
				</clipPath>
				<g clip-path="url(#SVGID_2_)">
					<rect x="285.3" y="88.3" fill="#35333C" width="20" height="8.5"/>
					<polygon fill="#AA6C49" points="306,90.9 303.5,89.7 303.5,81.6 287.1,81.6 287.1,89.7 284.5,90.8 285.2,113.8 287.1,113.8 
						287.1,117.3 303.5,117.3 303.5,113.8 305.4,113.8 					"/>
					<polygon fill="#915639" points="287.1,81.6 287.1,86.7 303.5,89.1 303.5,81.6 					"/>
					<path fill="#C6875E" d="M313.3,57.4l0.6-7.2c0-9.4-9-17.1-18.4-17.1c-9.4,0-18.4,7.6-18.4,17.1l0.6,7.2c-0.5,0.1-1,0.4-1.4,0.7
						c-0.7,0.6-1.2,1.6-1.2,2.6v3.6c0,1.9,1.5,3.4,3.4,3.4c0,8.9,10.7,17.3,17.1,17.3s17.1-8.4,17.1-17.3c1.9,0,3.4-1.5,3.4-3.4
						v-3.6C315.9,59.1,314.8,57.8,313.3,57.4z"/>
					<path fill="#AA6C49" d="M313.3,57.4l0.6-7.2c0-9.4-9-17.1-18.4-17.1c0,0,0,0,0,0l0,24.6c-2.5,5.3-4.1,13-4.1,13h4.1V85l0,0
						c0,0,0,0,0,0c6.4,0,17.1-8.4,17.1-17.3c1.9,0,3.4-1.5,3.4-3.4v-3.6C315.9,59.1,314.8,57.8,313.3,57.4z"/>
					<path fill="#050505" d="M289.8,74.7h10.7c0.3,0,0.5,0.4,0.3,0.6c-0.8,0.7-2.4,1.7-5.6,1.7c-3.2,0-4.8-1-5.6-1.7
						C289.3,75.1,289.5,74.7,289.8,74.7z"/>
					<path fill="#050505" d="M288.7,60.6c-0.4,0-0.6-0.3-0.6-0.6c0-0.3-0.7-0.8-1.8-0.8c-1.1,0-1.8,0.5-1.8,0.8
						c0,0.4-0.3,0.6-0.6,0.6s-0.6-0.3-0.6-0.6c0-1.2,1.4-2.1,3.1-2.1c1.7,0,3.1,0.9,3.1,2.1C289.3,60.4,289,60.6,288.7,60.6z"/>
					<path fill="#050505" d="M305.9,60.6c-0.4,0-0.6-0.3-0.6-0.6c0-0.3-0.7-0.8-1.8-0.8c-1.1,0-1.8,0.5-1.8,0.8
						c0,0.4-0.3,0.6-0.6,0.6c-0.4,0-0.6-0.3-0.6-0.6c0-1.2,1.4-2.1,3.1-2.1c1.7,0,3.1,0.9,3.1,2.1C306.5,60.4,306.2,60.6,305.9,60.6
						z"/>
					<g>
						<path fill="#FFFFFF" d="M284.3,90.9l0.6,2.3c1.1,3,3.8,3.8,10.2,3.8c7.2,0,10-2.1,10.9-4.9l0.3-1.2c13.3,5,9.2,46.8,9.2,46.8
							l0.1,34.7l-20.3,0l-21.4,0l0.6-34.7C274.4,137.7,271,95.9,284.3,90.9z"/>
						<path fill="#FFFFFF" d="M295.3,96.8l5,5.3l8.6-10.3c0,0-5.4-2.7-5.4-2.7l-2,1.9L295.3,96.8z"/>
						<polygon fill="#FFFFFF" points="287,89.1 295.3,96.8 290.2,102.1 281.6,91.8 						"/>
					</g>
					<path fill="#152430" d="M339.8,137.6c1.2-3.8,1.2-7.9-0.1-11.7c-2.5-7.3-7.2-22.8-8.6-25.7c-3-6.5-12.6-6.2-24.5-10.4
						c-0.4-0.1-0.9-0.3-1.3-0.5l0,0c-0.7,4.1-10,45.8-10,45.8s-9.3-41.7-10-45.8c0,0,0,0,0,0c-0.4,0.2-0.9,0.3-1.3,0.5
						c-12,4.1-21.6,3.9-24.5,10.4c-1.3,2.9-6.1,18.4-8.6,25.7c-1.3,3.8-1.3,7.9-0.1,11.7c2.7,8.4,8.4,19.8,10.8,23.4
						c2.2,3.2,6,4.4,8.7,3.5c-0.4,1.7-3,9.4-3,9.4H323c0.4,0-2.3-7.6-2.7-9.4c2.7,0.9,6.5-0.3,8.7-3.5
						C331.4,157.3,337.1,145.9,339.8,137.6z"/>
					<g>
						<g>
							<polygon fill="#0D4870" points="312.2,91.9 311.9,99.7 308,102.9 311.1,107.1 295.4,134.8 305.3,88.3 							"/>
						</g>
						<g>
							<polygon fill="#0D4870" points="278.4,91.9 278.6,99.7 282.6,102.9 279.5,107.1 295.2,134.8 285.3,88.3 							"/>
						</g>
					</g>
					<g>
						<path fill="#050505" stroke="#DBC7BD" stroke-width="0.25" stroke-miterlimit="10" d="M294.9,55.6"/>
						<path fill="#050505" stroke="#DBC7BD" stroke-width="0.25" stroke-miterlimit="10" d="M294.9,55.7"/>
						
							<path fill="#050505" stroke="#DBC7BD" stroke-width="0.25" stroke-linecap="round" stroke-linejoin="round" stroke-miterlimit="10" d="
							M294.9,55.6"/>
						<circle fill="#050505" cx="294.9" cy="32.4" r="4"/>
						<circle fill="#050505" cx="301.2" cy="33.3" r="4"/>
						<circle fill="#050505" cx="306.6" cy="35.5" r="4"/>
						
							<ellipse transform="matrix(1.452011e-02 -0.9999 0.9999 1.452011e-02 266.9672 350.0363)" fill="#050505" cx="311.1" cy="39.6" rx="4" ry="4"/>
						<circle fill="#050505" cx="313.5" cy="44.3" r="4"/>
						<circle fill="#050505" cx="314.4" cy="50.9" r="4"/>
						<circle fill="#050505" cx="313.6" cy="55.6" r="3.6"/>
						<circle fill="#050505" cx="313.7" cy="55.9" r="3.6"/>
						<circle fill="#050505" cx="289.5" cy="33.3" r="4"/>
						<circle fill="#050505" cx="284.1" cy="35.5" r="4"/>
						
							<ellipse transform="matrix(0.9999 -1.452011e-02 1.452011e-02 0.9999 -0.5453 4.0651)" fill="#050505" cx="279.7" cy="39.6" rx="4" ry="4"/>
						<circle fill="#050505" cx="277.2" cy="44.3" r="4"/>
						<circle fill="#050505" cx="276.3" cy="50.9" r="4"/>
						<circle fill="#050505" cx="295" cy="37" r="3.6"/>
						<circle fill="#050505" cx="295" cy="41.2" r="3.6"/>
						<circle fill="#050505" cx="300.6" cy="38.8" r="3.6"/>
						<circle fill="#050505" cx="300.8" cy="41.8" r="3.6"/>
						<circle fill="#050505" cx="305.5" cy="41" r="3.6"/>
						<circle fill="#050505" cx="306.5" cy="45" r="3.6"/>
						<circle fill="#050505" cx="310.8" cy="49.5" r="3.6"/>
						<circle fill="#050505" cx="289.2" cy="41.8" r="3.6"/>
						<circle fill="#050505" cx="286.3" cy="39.9" r="3.6"/>
						<circle fill="#050505" cx="290.5" cy="38" r="3.6"/>
						<circle fill="#050505" cx="283.5" cy="45" r="3.6"/>
						<circle fill="#050505" cx="279.3" cy="49.5" r="3.6"/>
						<circle fill="#050505" cx="277" cy="55.9" r="3.6"/>
					</g>
					<path fill="#262626" stroke="#262626" stroke-miterlimit="10" d="M308.7,53.6l-3,0c-2.5,0-5.4,0-6.3,0.1
						c-1.2,0.1-2.5,0.9-2.8,1h-3.2c-0.3-0.2-1.5-0.9-2.8-1c-0.8-0.1-3.8-0.1-6.3-0.1l-3,0l-1.3,0.1c-1.2,0.1-2,0.2-2.1,0.3
						c-0.1,0.1-0.2,0.8-0.2,1c0,0.5,0,0.8,0.2,1c0.1,0.1,0.3,0.2,0.4,0.2c0.3,0.1,0.5,0.2,0.6,0.5c0.1,0.3,0.2,1.2,0.3,2.2
						c0.2,1.3,0.3,2.7,0.5,3c0.1,0.3,0.8,1.7,3.7,1.8c1.4,0.1,3,0.1,4.4,0.1c1.3,0,2.1-0.1,2.5-0.2c0.4-0.1,1.8-0.6,2.5-2.7
						c0.6-1.6,1.1-2.8,1.6-3.5c0.1-0.1,0.3-0.2,0.7-0.2s0.7,0.1,0.7,0.2c0.4,0.7,1,1.9,1.6,3.5c0.8,2.1,2.1,2.6,2.5,2.7
						c0.4,0.2,1.2,0.2,2.5,0.2c1.3,0,2.9-0.1,4.4-0.1c3-0.1,3.6-1.4,3.7-1.8s0.3-1.7,0.5-3c0.1-0.9,0.2-1.8,0.3-2.2
						c0.1-0.3,0.3-0.3,0.5-0.4c0.2,0,0.3-0.1,0.5-0.2c0.3-0.4,0.1-1.8,0-2c-0.1-0.1-0.3-0.2-1.9-0.3L308.7,53.6z M292.1,60l-0.2,0.5
						c-0.4,1.1-1.6,1.9-2.3,2.1c-0.3,0.1-1.5,0.2-2.9,0.2s-2.8-0.1-3.5-0.2c-1.6-0.2-2.3-0.7-2.5-1.5c-0.1-0.3-0.2-3.2-0.3-5.1
						c0-0.3,0.2-0.7,0.4-0.9c0.3-0.4,1.1-0.6,1.2-0.6s7.8,0.1,9,0.3c1.2,0.2,1.8,0.7,2.1,1.4C293.2,57.1,292.5,58.8,292.1,60z
						 M309.6,61.2c-0.2,0.8-0.9,1.2-2.5,1.5c-0.7,0.1-2,0.2-3.5,0.2s-2.6-0.1-2.9-0.2c-0.7-0.2-1.9-1-2.3-2.1l-0.2-0.5
						c-0.4-1.2-1.1-3-0.9-3.7h0c0.2-0.8,0.9-1.3,2.1-1.4c1.2-0.2,8.6-0.3,9-0.3c0.1,0,0.8,0.1,1.2,0.6c0.2,0.3,0.3,0.6,0.4,0.9
						C309.8,58,309.6,60.9,309.6,61.2z"/>
					<circle fill="#9B6043" cx="304.6" cy="68.3" r="3.1"/>
					<circle fill="#9B6043" cx="285.7" cy="68.3" r="3.1"/>
					<g>
						<path fill="#AAAAAB" d="M301.5,133h-48.4c-0.6,0-1.1-0.5-1.1-1.1c0-0.6,0.5-1.1,1.1-1.1h48.4c0.6,0,1.1,0.5,1.1,1.1
							C302.7,132.5,302.2,133,301.5,133z"/>
						<path fill="#DFDFDF" d="M300.7,130.8h-46.8c-1.1,0-2-0.9-2-2V96c0-1.1,0.9-2,2-2h46.8c1.1,0,2,0.9,2,2v32.9
							C302.7,129.9,301.8,130.8,300.7,130.8z"/>
						<circle opacity="0.5" fill="#FFFFFF" cx="277.3" cy="111.2" r="4.1"/>
						<path opacity="0.2" fill="#FFFFFF" d="M291.1,94h-37.1c-1.2,0-2.1,0.9-2.1,2.1v32.6c0,1.2,0.9,2.1,2.1,2.1h7.3
							C262.9,113.3,275,98.8,291.1,94z"/>
						<g id="table_6_">
							<path fill="#424242" d="M338.1,140H245c-1.7,0-3-1.6-3-3.6s1.4-3.6,3-3.6h93.2c1.7,0,3,1.6,3,3.6S339.8,140,338.1,140z"/>
						</g>
						<path fill="#21AFA3" d="M292.3,126.1h28.6h0.5H336c0.2,0,0.4,0.2,0.4,0.4c0,0.2-0.2,0.4-0.4,0.4h-14.6v5H336
							c0.2,0,0.4,0.2,0.4,0.4c0,0.2-0.2,0.4-0.4,0.4h-14.6h-0.5h-28.6c-0.9,0-1.7-0.8-1.7-1.7v-3.3
							C290.5,126.8,291.3,126.1,292.3,126.1z"/>
						<path opacity="0.5" fill="#49535B" d="M291.4,131.7H320h0.5h0.9v0.2H336c0.2,0,0.4,0.2,0.4,0.4c0,0.2-0.2,0.4-0.4,0.4h-14.6
							h-0.5h-28.6c-0.8,0-1.5-0.5-1.7-1.3C290.8,131.7,291.1,131.7,291.4,131.7z"/>
						<path fill="#84E6F0" d="M291.4,127.2H320h0.5h0.9v-0.2H336c0.2,0,0.4-0.2,0.4-0.4c0-0.2-0.2-0.4-0.4-0.4h-14.6h-0.5h-28.6
							c-0.8,0-1.5,0.5-1.7,1.3C290.8,127.2,291.1,127.2,291.4,127.2z"/>
						<path fill="#548996" d="M318.7,131.1v-3.3c0-0.9,0.8-1.7,1.7-1.7h0.4h0.5H336c0.2,0,0.4,0.2,0.4,0.4c0,0.2-0.2,0.4-0.4,0.4
							h-14.6v5H336c0.2,0,0.4,0.2,0.4,0.4c0,0.2-0.2,0.4-0.4,0.4h-14.6h-0.5h-0.4C319.5,132.8,318.7,132,318.7,131.1z"/>
						<path fill="#EFE5DA" d="M320.9,126.9h15c-0.3,0.8-0.4,1.6-0.4,2.5c0,0.9,0.1,1.8,0.4,2.5h-15c-0.6,0-1.1-0.5-1.1-1.1v-2.8
							C319.7,127.4,320.2,126.9,320.9,126.9z"/>
						<path fill="#B0B4B9" d="M320.9,126.9h15c0,0.1-0.1,0.3-0.1,0.4H321c-0.6,0-1.1,0.5-1.1,1.1v2.8c0,0.1,0,0.2,0,0.2
							c-0.1-0.2-0.2-0.4-0.2-0.6v-2.8C319.7,127.4,320.2,126.9,320.9,126.9z"/>
						<path fill="#55514D" d="M319.7,130.8v-2.8c0-0.3,0.2-0.7,0.4-0.9c0.2,0.7,0.3,1.4,0.3,2.2s-0.1,1.6-0.3,2.2
							C319.9,131.5,319.7,131.2,319.7,130.8z"/>
						<path fill="#202933" d="M294.8,119.3h29.5h0.5h14.6c0.2,0,0.4,0.2,0.4,0.4c0,0.2-0.2,0.4-0.4,0.4h-14.6v5h14.6
							c0.2,0,0.4,0.2,0.4,0.4c0,0.2-0.2,0.4-0.4,0.4h-14.6h-0.5h-29.5c-0.9,0-1.7-0.8-1.7-1.7V121
							C293.1,120.1,293.9,119.3,294.8,119.3z"/>
						<path fill="#10161C" d="M293.9,125h29.5h0.5h0.9v0.2h14.6c0.2,0,0.4,0.2,0.4,0.4c0,0.2-0.2,0.4-0.4,0.4h-14.6h-0.5h-29.5
							c-0.8,0-1.5-0.5-1.7-1.3C293.4,124.9,293.7,125,293.9,125z"/>
						<path fill="#10161C" d="M322.1,124.4V121c0-0.9,0.8-1.7,1.7-1.7h0.4h0.5h14.6c0.2,0,0.4,0.2,0.4,0.4c0,0.2-0.2,0.4-0.4,0.4
							h-14.6v5h14.6c0.2,0,0.4,0.2,0.4,0.4c0,0.2-0.2,0.4-0.4,0.4h-14.6h-0.5h-0.4C322.9,126.1,322.1,125.3,322.1,124.4z"/>
						<path fill="#EFE5DA" d="M324.3,120.2h15c-0.3,0.8-0.4,1.6-0.4,2.5c0,0.9,0.1,1.8,0.4,2.5h-15c-0.6,0-1.1-0.5-1.1-1.1v-2.8
							C323.1,120.7,323.7,120.2,324.3,120.2z"/>
						<path fill="#B0B4B9" d="M324.3,120.2h15c0,0.1-0.1,0.3-0.1,0.4h-14.7c-0.6,0-1.1,0.5-1.1,1.1v2.8c0,0.1,0,0.2,0,0.2
							c-0.1-0.2-0.2-0.4-0.2-0.6v-2.8C323.1,120.7,323.7,120.2,324.3,120.2z"/>
						<path fill="#55514D" d="M323.1,124.1v-2.8c0-0.3,0.2-0.7,0.4-0.9c0.2,0.7,0.3,1.4,0.3,2.2c0,0.8-0.1,1.6-0.3,2.2
							C323.3,124.7,323.1,124.4,323.1,124.1z"/>
					</g>
				</g>
			</g>
		</g>
		<g>
			
				<ellipse transform="matrix(2.186941e-02 -0.9998 0.9998 2.186941e-02 217.953 461.8389)" fill="#FFFFFF" stroke="#B7B7B7" stroke-miterlimit="10" cx="345" cy="119.5" rx="15" ry="15"/>
			<path fill="#D8D8D8" d="M339.2,122.7C339.1,122.7,339.1,122.7,339.2,122.7c-0.7-0.4-1.4-0.7-2-1.1c0,0-0.1,0-0.1,0
				c-0.6,0.3-1.3,0.7-1.9,1c0,0,0,0-0.1,0c0-0.1,0-0.2,0-0.3c0.1-0.7,0.2-1.3,0.3-2c0,0,0-0.1,0-0.1c-0.5-0.5-1.1-1-1.6-1.5
				c0,0,0,0-0.1,0c0,0,0,0,0,0c0.2,0,0.3,0,0.5-0.1c0.5-0.1,1-0.1,1.4-0.2c0.1,0,0.2,0,0.3,0c0,0,0.1,0,0.1-0.1
				c0.3-0.6,0.6-1.3,0.9-1.9c0,0,0-0.1,0.1-0.1c0,0,0,0,0,0.1c0.3,0.7,0.6,1.3,1,2c0,0,0,0.1,0.1,0.1c0.7,0.1,1.5,0.2,2.2,0.3
				c0,0,0,0,0,0c0,0,0,0,0,0c0,0,0,0-0.1,0c-0.5,0.5-1.1,1-1.6,1.5c0,0,0,0,0,0.1C338.9,121.2,339,121.9,339.2,122.7
				C339.2,122.7,339.2,122.7,339.2,122.7z"/>
			<path fill="#EBB650" d="M347.1,122.7C347,122.7,347,122.7,347.1,122.7c-0.7-0.4-1.4-0.7-2-1.1c0,0-0.1,0-0.1,0
				c-0.6,0.3-1.3,0.7-1.9,1c0,0,0,0-0.1,0c0-0.1,0-0.2,0-0.3c0.1-0.7,0.2-1.3,0.3-2c0,0,0-0.1,0-0.1c-0.5-0.5-1.1-1-1.6-1.5
				c0,0,0,0-0.1,0c0,0,0,0,0,0c0.2,0,0.3,0,0.5-0.1c0.5-0.1,1-0.1,1.4-0.2c0.1,0,0.2,0,0.3,0c0,0,0.1,0,0.1-0.1
				c0.3-0.6,0.6-1.3,0.9-1.9c0,0,0-0.1,0.1-0.1c0,0,0,0,0,0.1c0.3,0.7,0.6,1.3,1,2c0,0,0,0.1,0.1,0.1c0.7,0.1,1.5,0.2,2.2,0.3
				c0,0,0,0,0,0c0,0,0,0,0,0c0,0,0,0-0.1,0c-0.5,0.5-1.1,1-1.6,1.5c0,0,0,0,0,0.1C346.8,121.2,346.9,121.9,347.1,122.7
				C347.1,122.7,347.1,122.7,347.1,122.7z"/>
			<path fill="#EBB650" d="M355,122.7C355,122.7,354.9,122.7,355,122.7c-0.7-0.4-1.4-0.7-2-1.1c0,0-0.1,0-0.1,0
				c-0.6,0.3-1.3,0.7-1.9,1c0,0,0,0-0.1,0c0-0.1,0-0.2,0-0.3c0.1-0.7,0.2-1.3,0.3-2c0,0,0-0.1,0-0.1c-0.5-0.5-1.1-1-1.6-1.5
				c0,0,0,0-0.1,0c0,0,0,0,0,0c0.2,0,0.3,0,0.5-0.1c0.5-0.1,1-0.1,1.4-0.2c0.1,0,0.2,0,0.3,0c0,0,0.1,0,0.1-0.1
				c0.3-0.6,0.6-1.3,0.9-1.9c0,0,0-0.1,0.1-0.1c0,0,0,0,0,0.1c0.3,0.7,0.6,1.3,1,2c0,0,0,0.1,0.1,0.1c0.7,0.1,1.5,0.2,2.2,0.3
				c0,0,0,0,0,0c0,0,0,0,0,0c0,0,0,0-0.1,0c-0.5,0.5-1.1,1-1.6,1.5c0,0,0,0,0,0.1C354.7,121.2,354.8,121.9,355,122.7
				C355,122.7,355,122.7,355,122.7z"/>
		</g>
	</g>
	<g>
		<g>
			<circle fill="#FFFFFF" stroke="#B7B7B7" stroke-miterlimit="10" cx="542" cy="76.6" r="66.2"/>
			<g>
				<defs>
					<circle id="SVGID_3_" cx="542" cy="76.6" r="62.6"/>
				</defs>
				<clipPath id="SVGID_4_">
					<use xlink:href="#SVGID_3_"  overflow="visible"/>
				</clipPath>
				<g clip-path="url(#SVGID_4_)">
					<rect x="531.9" y="88.3" fill="#35333C" width="20" height="8.5"/>
					<polygon fill="#AA6C49" points="552.6,90.9 550.1,89.7 550.1,81.6 533.7,81.6 533.7,89.7 531.1,90.8 531.8,113.8 533.7,113.8 
						533.7,117.3 550.1,117.3 550.1,113.8 551.9,113.8 					"/>
					<polygon fill="#915639" points="533.7,81.6 533.7,86.7 550.1,89.1 550.1,81.6 					"/>
					<path fill="#C6875E" d="M559.9,57.4l0.6-7.2c0-9.4-9-17.1-18.4-17.1c-9.4,0-18.4,7.6-18.4,17.1l0.6,7.2c-0.5,0.1-1,0.4-1.4,0.7
						c-0.7,0.6-1.2,1.6-1.2,2.6v3.6c0,1.9,1.5,3.4,3.4,3.4c0,8.9,10.7,17.3,17.1,17.3c6.4,0,17.1-8.4,17.1-17.3
						c1.9,0,3.4-1.5,3.4-3.4v-3.6C562.5,59.1,561.4,57.8,559.9,57.4z"/>
					<path fill="#AA6C49" d="M559.9,57.4l0.6-7.2c0-9.4-9-17.1-18.4-17.1c0,0,0,0,0,0l0,24.6c-2.5,5.3-4.1,13-4.1,13h4.1V85l0,0
						c0,0,0,0,0,0c6.4,0,17.1-8.4,17.1-17.3c1.9,0,3.4-1.5,3.4-3.4v-3.6C562.5,59.1,561.4,57.8,559.9,57.4z"/>
					<path fill="#050505" d="M536.4,74.7h10.7c0.3,0,0.4,0.3,0.3,0.6c-0.4,1.1-2.4,3.7-5.6,3.7c-3.2,0-5.2-2.4-5.6-3.7
						C536,75,536,74.7,536.4,74.7z"/>
					<path fill="#050505" d="M535.3,60.6c-0.4,0-0.6-0.3-0.6-0.6c0-0.3-0.7-0.8-1.8-0.8c-1.1,0-1.8,0.5-1.8,0.8
						c0,0.4-0.3,0.6-0.6,0.6c-0.4,0-0.6-0.3-0.6-0.6c0-1.2,1.4-2.1,3.1-2.1c1.7,0,3.1,0.9,3.1,2.1C535.9,60.4,535.6,60.6,535.3,60.6
						z"/>
					<path fill="#050505" d="M552.5,60.6c-0.4,0-0.6-0.3-0.6-0.6c0-0.3-0.7-0.8-1.8-0.8c-1.1,0-1.8,0.5-1.8,0.8
						c0,0.4-0.3,0.6-0.6,0.6c-0.4,0-0.6-0.3-0.6-0.6c0-1.2,1.4-2.1,3.1-2.1s3.1,0.9,3.1,2.1C553.1,60.4,552.8,60.6,552.5,60.6z"/>
					<g>
						<path fill="#FFFFFF" d="M530.9,90.9l0.6,2.3c1.1,3,3.8,3.8,10.2,3.8c7.2,0,10-2.1,10.9-4.9l0.3-1.2c13.3,5,9.2,46.8,9.2,46.8
							l0.1,34.7l-20.3,0l-21.4,0l0.6-34.7C521,137.7,517.6,95.9,530.9,90.9z"/>
						<path fill="#FFFFFF" d="M541.9,96.8l5,5.3l8.6-10.3c0,0-5.4-2.7-5.4-2.7l-2,1.9L541.9,96.8z"/>
						<polygon fill="#FFFFFF" points="533.6,89.1 541.9,96.8 536.8,102.1 528.2,91.8 						"/>
					</g>
					<path fill="#152430" d="M586.4,137.6c1.2-3.8,1.2-7.9-0.1-11.7c-2.5-7.3-7.2-22.8-8.6-25.7c-3-6.5-12.6-6.2-24.5-10.4
						c-0.4-0.1-0.9-0.3-1.3-0.5l0,0c-0.7,4.1-10,45.8-10,45.8s-9.3-41.7-10-45.8c0,0,0,0,0,0c-0.4,0.2-0.9,0.3-1.3,0.5
						c-12,4.1-21.6,3.9-24.5,10.4c-1.3,2.9-6.1,18.4-8.6,25.7c-1.3,3.8-1.3,7.9-0.1,11.7c2.7,8.4,8.4,19.8,10.8,23.4
						c2.2,3.2,6,4.4,8.7,3.5c-0.4,1.7-3,9.4-3,9.4h55.5c0.4,0-2.3-7.6-2.7-9.4c2.7,0.9,6.5-0.3,8.7-3.5
						C578,157.3,583.6,145.9,586.4,137.6z"/>
					<g>
						<g>
							<polygon fill="#0D4870" points="558.8,91.9 558.5,99.7 554.6,102.9 557.6,107.1 542,134.8 551.9,88.3 							"/>
						</g>
						<g>
							<polygon fill="#0D4870" points="525,91.9 525.2,99.7 529.1,102.9 526.1,107.1 541.8,134.8 531.9,88.3 							"/>
						</g>
					</g>
					<g>
						<path fill="#050505" stroke="#DBC7BD" stroke-width="0.25" stroke-miterlimit="10" d="M541.5,55.6"/>
						<path fill="#050505" stroke="#DBC7BD" stroke-width="0.25" stroke-miterlimit="10" d="M541.5,55.7"/>
						
							<path fill="#050505" stroke="#DBC7BD" stroke-width="0.25" stroke-linecap="round" stroke-linejoin="round" stroke-miterlimit="10" d="
							M541.5,55.6"/>
						<circle fill="#050505" cx="541.5" cy="32.4" r="4"/>
						<circle fill="#050505" cx="547.8" cy="33.3" r="4"/>
						<circle fill="#050505" cx="553.2" cy="35.5" r="4"/>
						
							<ellipse transform="matrix(1.452011e-02 -0.9999 0.9999 1.452011e-02 509.9703 596.5938)" fill="#050505" cx="557.6" cy="39.6" rx="4" ry="4"/>
						<circle fill="#050505" cx="560.1" cy="44.3" r="4"/>
						<circle fill="#050505" cx="561" cy="50.9" r="4"/>
						<circle fill="#050505" cx="560.2" cy="55.6" r="3.6"/>
						<circle fill="#050505" cx="560.3" cy="55.9" r="3.6"/>
						<circle fill="#050505" cx="536.1" cy="33.3" r="4"/>
						<circle fill="#050505" cx="530.7" cy="35.5" r="4"/>
						
							<ellipse transform="matrix(0.9999 -1.452011e-02 1.452011e-02 0.9999 -0.5193 7.6455)" fill="#050505" cx="526.3" cy="39.6" rx="4" ry="4"/>
						<circle fill="#050505" cx="523.8" cy="44.3" r="4"/>
						<circle fill="#050505" cx="522.9" cy="50.9" r="4"/>
						<circle fill="#050505" cx="541.5" cy="37" r="3.6"/>
						<circle fill="#050505" cx="541.5" cy="41.2" r="3.6"/>
						<circle fill="#050505" cx="547.1" cy="38.8" r="3.6"/>
						<circle fill="#050505" cx="547.4" cy="41.8" r="3.6"/>
						<circle fill="#050505" cx="552.1" cy="41" r="3.6"/>
						<circle fill="#050505" cx="553.1" cy="45" r="3.6"/>
						<circle fill="#050505" cx="557.3" cy="49.5" r="3.6"/>
						<circle fill="#050505" cx="535.8" cy="41.8" r="3.6"/>
						<circle fill="#050505" cx="532.8" cy="39.9" r="3.6"/>
						<circle fill="#050505" cx="537.1" cy="38" r="3.6"/>
						<circle fill="#050505" cx="530.1" cy="45" r="3.6"/>
						<circle fill="#050505" cx="525.9" cy="49.5" r="3.6"/>
						<circle fill="#050505" cx="523.6" cy="55.9" r="3.6"/>
					</g>
					<path fill="#262626" stroke="#262626" stroke-miterlimit="10" d="M555.3,53.6l-3,0c-2.5,0-5.4,0-6.3,0.1
						c-1.2,0.1-2.5,0.9-2.8,1h-3.2c-0.3-0.2-1.5-0.9-2.8-1c-0.8-0.1-3.8-0.1-6.3-0.1l-3,0l-1.3,0.1c-1.2,0.1-2,0.2-2.1,0.3
						c-0.1,0.1-0.2,0.8-0.2,1c0,0.5,0,0.8,0.2,1c0.1,0.1,0.3,0.2,0.4,0.2c0.3,0.1,0.5,0.2,0.6,0.5c0.1,0.3,0.2,1.2,0.3,2.2
						c0.2,1.3,0.3,2.7,0.5,3c0.1,0.3,0.8,1.7,3.7,1.8c1.4,0.1,3,0.1,4.4,0.1s2.1-0.1,2.5-0.2c0.4-0.1,1.8-0.6,2.5-2.7
						c0.6-1.6,1.1-2.8,1.6-3.5c0.1-0.1,0.3-0.2,0.7-0.2s0.7,0.1,0.7,0.2c0.4,0.7,1,1.9,1.6,3.5c0.8,2.1,2.1,2.6,2.5,2.7
						c0.4,0.2,1.2,0.2,2.5,0.2c1.3,0,2.9-0.1,4.4-0.1c3-0.1,3.6-1.4,3.7-1.8c0.1-0.4,0.3-1.7,0.5-3c0.1-0.9,0.2-1.8,0.3-2.2
						c0.1-0.3,0.3-0.3,0.5-0.4c0.2,0,0.3-0.1,0.5-0.2c0.3-0.4,0.1-1.8,0-2c-0.1-0.1-0.3-0.2-1.9-0.3L555.3,53.6z M538.6,60l-0.2,0.5
						c-0.4,1.1-1.6,1.9-2.3,2.1c-0.3,0.1-1.5,0.2-2.9,0.2s-2.8-0.1-3.5-0.2c-1.6-0.2-2.3-0.7-2.5-1.5c-0.1-0.3-0.2-3.2-0.3-5.1
						c0-0.3,0.2-0.7,0.4-0.9c0.3-0.4,1.1-0.6,1.2-0.6s7.8,0.1,9,0.3c1.2,0.2,1.8,0.7,2.1,1.4C539.7,57.1,539.1,58.8,538.6,60z
						 M556.2,61.2c-0.2,0.8-0.9,1.2-2.5,1.5c-0.7,0.1-2,0.2-3.5,0.2c-1.5,0-2.6-0.1-2.9-0.2c-0.7-0.2-1.9-1-2.3-2.1l-0.2-0.5
						c-0.4-1.2-1.1-3-0.9-3.7h0c0.2-0.8,0.9-1.3,2.1-1.4s8.6-0.3,9-0.3c0.1,0,0.8,0.1,1.2,0.6c0.2,0.3,0.3,0.6,0.4,0.9
						C556.4,58,556.2,60.9,556.2,61.2z"/>
					<circle fill="#9B6043" cx="551.2" cy="68.3" r="3.1"/>
					<circle fill="#9B6043" cx="532.2" cy="68.3" r="3.1"/>
					<g>
						<path fill="#AAAAAB" d="M547.9,133h-48.4c-0.6,0-1.1-0.5-1.1-1.1c0-0.6,0.5-1.1,1.1-1.1h48.4c0.6,0,1.1,0.5,1.1,1.1
							C549.1,132.5,548.6,133,547.9,133z"/>
						<path fill="#DFDFDF" d="M547.1,130.8h-46.8c-1.1,0-2-0.9-2-2V96c0-1.1,0.9-2,2-2h46.8c1.1,0,2,0.9,2,2v32.9
							C549.1,129.9,548.2,130.8,547.1,130.8z"/>
						<circle opacity="0.5" fill="#FFFFFF" cx="523.7" cy="111.2" r="4.1"/>
						<path opacity="0.2" fill="#FFFFFF" d="M537.5,94h-37.1c-1.2,0-2.1,0.9-2.1,2.1v32.6c0,1.2,0.9,2.1,2.1,2.1h7.3
							C509.3,113.3,521.4,98.8,537.5,94z"/>
						<g id="table_5_">
							<path fill="#424242" d="M584.5,140h-93.2c-1.7,0-3-1.6-3-3.6s1.4-3.6,3-3.6h93.2c1.7,0,3,1.6,3,3.6S586.2,140,584.5,140z"/>
						</g>
						<path fill="#21AFA3" d="M538.6,126.1h28.6h0.5h14.6c0.2,0,0.4,0.2,0.4,0.4c0,0.2-0.2,0.4-0.4,0.4h-14.6v5h14.6
							c0.2,0,0.4,0.2,0.4,0.4c0,0.2-0.2,0.4-0.4,0.4h-14.6h-0.5h-28.6c-0.9,0-1.7-0.8-1.7-1.7v-3.3
							C536.9,126.8,537.7,126.1,538.6,126.1z"/>
						<path opacity="0.5" fill="#49535B" d="M537.8,131.7h28.6h0.5h0.9v0.2h14.6c0.2,0,0.4,0.2,0.4,0.4c0,0.2-0.2,0.4-0.4,0.4h-14.6
							h-0.5h-28.6c-0.8,0-1.5-0.5-1.7-1.3C537.2,131.7,537.5,131.7,537.8,131.7z"/>
						<path fill="#84E6F0" d="M537.8,127.2h28.6h0.5h0.9v-0.2h14.6c0.2,0,0.4-0.2,0.4-0.4c0-0.2-0.2-0.4-0.4-0.4h-14.6h-0.5h-28.6
							c-0.8,0-1.5,0.5-1.7,1.3C537.2,127.2,537.5,127.2,537.8,127.2z"/>
						<path fill="#548996" d="M565.1,131.1v-3.3c0-0.9,0.8-1.7,1.7-1.7h0.4h0.5h14.6c0.2,0,0.4,0.2,0.4,0.4c0,0.2-0.2,0.4-0.4,0.4
							h-14.6v5h14.6c0.2,0,0.4,0.2,0.4,0.4c0,0.2-0.2,0.4-0.4,0.4h-14.6h-0.5h-0.4C565.9,132.8,565.1,132,565.1,131.1z"/>
						<path fill="#EFE5DA" d="M567.2,126.9h15c-0.3,0.8-0.4,1.6-0.4,2.5c0,0.9,0.1,1.8,0.4,2.5h-15c-0.6,0-1.1-0.5-1.1-1.1v-2.8
							C566.1,127.4,566.6,126.9,567.2,126.9z"/>
						<path fill="#B0B4B9" d="M567.2,126.9h15c0,0.1-0.1,0.3-0.1,0.4h-14.7c-0.6,0-1.1,0.5-1.1,1.1v2.8c0,0.1,0,0.2,0,0.2
							c-0.1-0.2-0.2-0.4-0.2-0.6v-2.8C566.1,127.4,566.6,126.9,567.2,126.9z"/>
						<path fill="#55514D" d="M566.1,130.8v-2.8c0-0.3,0.2-0.7,0.4-0.9c0.2,0.7,0.3,1.4,0.3,2.2s-0.1,1.6-0.3,2.2
							C566.3,131.5,566.1,131.2,566.1,130.8z"/>
						<path fill="#202933" d="M541.2,119.3h29.5h0.5h14.6c0.2,0,0.4,0.2,0.4,0.4c0,0.2-0.2,0.4-0.4,0.4h-14.6v5h14.6
							c0.2,0,0.4,0.2,0.4,0.4c0,0.2-0.2,0.4-0.4,0.4h-14.6h-0.5h-29.5c-0.9,0-1.7-0.8-1.7-1.7V121
							C539.5,120.1,540.3,119.3,541.2,119.3z"/>
						<path fill="#10161C" d="M540.3,125h29.5h0.5h0.9v0.2h14.6c0.2,0,0.4,0.2,0.4,0.4c0,0.2-0.2,0.4-0.4,0.4h-14.6h-0.5h-29.5
							c-0.8,0-1.5-0.5-1.7-1.3C539.8,124.9,540.1,125,540.3,125z"/>
						<path fill="#10161C" d="M568.5,124.4V121c0-0.9,0.8-1.7,1.7-1.7h0.4h0.5h14.6c0.2,0,0.4,0.2,0.4,0.4c0,0.2-0.2,0.4-0.4,0.4
							h-14.6v5h14.6c0.2,0,0.4,0.2,0.4,0.4c0,0.2-0.2,0.4-0.4,0.4h-14.6h-0.5h-0.4C569.3,126.1,568.5,125.3,568.5,124.4z"/>
						<path fill="#EFE5DA" d="M570.7,120.2h15c-0.3,0.8-0.4,1.6-0.4,2.5c0,0.9,0.1,1.8,0.4,2.5h-15c-0.6,0-1.1-0.5-1.1-1.1v-2.8
							C569.5,120.7,570.1,120.2,570.7,120.2z"/>
						<path fill="#B0B4B9" d="M570.7,120.2h15c0,0.1-0.1,0.3-0.1,0.4h-14.7c-0.6,0-1.1,0.5-1.1,1.1v2.8c0,0.1,0,0.2,0,0.2
							c-0.1-0.2-0.2-0.4-0.2-0.6v-2.8C569.5,120.7,570.1,120.2,570.7,120.2z"/>
						<path fill="#55514D" d="M569.5,124.1v-2.8c0-0.3,0.2-0.7,0.4-0.9c0.2,0.7,0.3,1.4,0.3,2.2c0,0.8-0.1,1.6-0.3,2.2
							C569.7,124.7,569.5,124.4,569.5,124.1z"/>
						<path fill="#289CAE" d="M576.5,111.3h-24.8h-0.5h-11.8c-0.2,0-0.4,0.2-0.4,0.5s0.2,0.5,0.4,0.5h11.8v6h-11.8
							c-0.2,0-0.4,0.2-0.4,0.5c0,0.3,0.2,0.5,0.4,0.5h11.8h0.5h24.8c0.9,0,1.7-0.9,1.7-2v-3.9C578.2,112.2,577.5,111.3,576.5,111.3z
							"/>
						<path fill="#1D8893" d="M577.4,118h-24.8h-0.5h-0.9v0.3h-11.8c-0.2,0-0.4,0.2-0.4,0.5c0,0.3,0.2,0.5,0.4,0.5h11.8h0.5h24.8
							c0.8,0,1.5-0.6,1.7-1.5C578,117.9,577.7,118,577.4,118z"/>
						<path fill="#30BFCE" d="M574.5,112.6h-9.6c-0.2-0.8-0.9-1.3-1.6-1.3h9.6C573.6,111.3,574.2,111.8,574.5,112.6z"/>
						<path fill="#30BFCE" d="M564.9,112.6h-13.6v-0.3h-11.8c-0.2,0-0.4-0.2-0.4-0.5c0-0.3,0.2-0.5,0.4-0.5h23.8
							C564,111.3,564.6,111.8,564.9,112.6z"/>
						<path fill="#30BFCE" d="M578.2,112.8c-0.2-0.1-0.5-0.2-0.8-0.2h-3c-0.2-0.8-0.9-1.3-1.6-1.3h3.7
							C577.3,111.3,578,111.9,578.2,112.8z"/>
						<path fill="#30BFCE" d="M553.8,117.3v-3.9c0-1.1-0.8-2-1.7-2h-0.4h-0.5h-11.8c-0.2,0-0.4,0.2-0.4,0.5s0.2,0.5,0.4,0.5h11.8v6
							h-11.8c-0.2,0-0.4,0.2-0.4,0.5c0,0.3,0.2,0.5,0.4,0.5h11.8h0.5h0.4C553.1,119.3,553.8,118.4,553.8,117.3z"/>
						<path fill="#FFFFFF" d="M551.7,112.3h-12.2c0.3,0.9,0.4,1.9,0.4,3c0,1.1-0.1,2.1-0.4,3h12.2c0.6,0,1.1-0.6,1.1-1.3v-3.3
							C552.8,112.9,552.3,112.3,551.7,112.3z"/>
						<path fill="#B0B4B9" d="M551.7,112.3h-12.2c0,0.2,0.1,0.3,0.1,0.5h11.9c0.6,0,1.1,0.6,1.1,1.3v3.3c0,0.1,0,0.2,0,0.3
							c0.1-0.2,0.2-0.5,0.2-0.8v-3.3C552.8,112.9,552.3,112.3,551.7,112.3z"/>
						<path fill="#55514D" d="M552.8,116.9v-3.3c0-0.4-0.2-0.8-0.4-1c-0.2,0.8-0.3,1.7-0.3,2.7c0,0.9,0.1,1.8,0.3,2.7
							C552.7,117.7,552.8,117.3,552.8,116.9z"/>
						<path fill="#0084AE" d="M579.7,104.6h-23.4h-0.5h-14.6c-0.2,0-0.4,0.2-0.4,0.4c0,0.2,0.2,0.4,0.4,0.4h14.6v5h-14.6
							c-0.2,0-0.4,0.2-0.4,0.4c0,0.2,0.2,0.4,0.4,0.4h14.6h0.5h23.4c0.9,0,1.7-0.8,1.7-1.7v-3.3
							C581.4,105.3,580.6,104.6,579.7,104.6z"/>
						<path opacity="0.5" fill="#FFFFFF" d="M572.3,104.6h-1c0.9,0,1.7,0.8,1.7,1.7v3.3c0,0.9-0.8,1.7-1.7,1.7h1
							c0.9,0,1.7-0.8,1.7-1.7v-3.3C574,105.3,573.2,104.6,572.3,104.6z"/>
						<path opacity="0.5" fill="#FFFFFF" d="M577.5,104.6h-3.9c0.9,0,1.7,0.8,1.7,1.7v3.3c0,0.9-0.8,1.7-1.7,1.7h3.9
							c0.9,0,1.7-0.8,1.7-1.7v-3.3C579.2,105.3,578.4,104.6,577.5,104.6z"/>
						<path opacity="0.5" fill="#49535B" d="M580.6,110.2h-23.4h-0.5h-0.9v0.2h-14.6c-0.2,0-0.4,0.2-0.4,0.4c0,0.2,0.2,0.4,0.4,0.4
							h14.6h0.5h23.4c0.8,0,1.5-0.5,1.7-1.3C581.1,110.1,580.9,110.2,580.6,110.2z"/>
						<path fill="#00A1C6" d="M580.6,105.6h-23.4h-0.5h-0.9v-0.2h-14.6c-0.2,0-0.4-0.2-0.4-0.4c0-0.2,0.2-0.4,0.4-0.4h14.6h0.5h23.4
							c0.8,0,1.5,0.5,1.7,1.3C581.1,105.7,580.9,105.6,580.6,105.6z"/>
						<path fill="#00A1C6" d="M558.4,109.6v-3.3c0-0.9-0.8-1.7-1.7-1.7h-0.4h-0.5h-14.6c-0.2,0-0.4,0.2-0.4,0.4
							c0,0.2,0.2,0.4,0.4,0.4h14.6v5h-14.6c-0.2,0-0.4,0.2-0.4,0.4c0,0.2,0.2,0.4,0.4,0.4h14.6h0.5h0.4
							C557.7,111.3,558.4,110.5,558.4,109.6z"/>
						<path fill="#FFFFFF" d="M556.3,105.4h-15c0.3,0.8,0.4,1.6,0.4,2.5c0,0.9-0.1,1.8-0.4,2.5h15c0.6,0,1.1-0.5,1.1-1.1v-2.8
							C557.4,105.9,556.9,105.4,556.3,105.4z"/>
						<path fill="#B0B4B9" d="M556.3,105.4h-15c0,0.1,0.1,0.3,0.1,0.4h14.7c0.6,0,1.1,0.5,1.1,1.1v2.8c0,0.1,0,0.2,0,0.2
							c0.1-0.2,0.2-0.4,0.2-0.6v-2.8C557.4,105.9,556.9,105.4,556.3,105.4z"/>
						<path fill="#55514D" d="M557.4,109.3v-2.8c0-0.3-0.2-0.7-0.4-0.9c-0.2,0.7-0.3,1.4-0.3,2.2c0,0.8,0.1,1.6,0.3,2.2
							C557.3,110,557.4,109.7,557.4,109.3z"/>
						<path fill="#8BEDF7" d="M572.3,104.6h-1c0.7,0,1.3,0.5,1.6,1.1h1C573.6,105,573,104.6,572.3,104.6z"/>
						<path fill="#8BEDF7" d="M577.5,104.6h-3.9c0.7,0,1.3,0.5,1.6,1.1h3.9C578.8,105,578.2,104.6,577.5,104.6z"/>
					</g>
				</g>
			</g>
		</g>
		<g>
			
				<ellipse transform="matrix(2.186941e-02 -0.9998 0.9998 2.186941e-02 457.5986 706.7839)" fill="#FFFFFF" stroke="#B7B7B7" stroke-miterlimit="10" cx="590" cy="119.5" rx="15" ry="15"/>
			<g>
				<path fill="#EBB650" d="M584.2,122.7C584.1,122.7,584.1,122.7,584.2,122.7c-0.7-0.4-1.4-0.7-2-1.1c0,0-0.1,0-0.1,0
					c-0.6,0.3-1.3,0.7-1.9,1c0,0,0,0-0.1,0c0-0.1,0-0.2,0-0.3c0.1-0.7,0.2-1.3,0.3-2c0,0,0-0.1,0-0.1c-0.5-0.5-1.1-1-1.6-1.5
					c0,0,0,0-0.1,0c0,0,0,0,0,0c0.2,0,0.3,0,0.5-0.1c0.5-0.1,1-0.1,1.4-0.2c0.1,0,0.2,0,0.3,0c0,0,0.1,0,0.1-0.1
					c0.3-0.6,0.6-1.3,0.9-1.9c0,0,0-0.1,0.1-0.1c0,0,0,0,0,0.1c0.3,0.7,0.6,1.3,1,2c0,0,0,0.1,0.1,0.1c0.7,0.1,1.5,0.2,2.2,0.3
					c0,0,0,0,0,0c0,0,0,0,0,0c0,0,0,0-0.1,0c-0.5,0.5-1.1,1-1.6,1.5c0,0,0,0,0,0.1C583.9,121.2,584,121.9,584.2,122.7
					C584.2,122.7,584.2,122.7,584.2,122.7z"/>
				<path fill="#EBB650" d="M592.1,122.7C592.1,122.7,592,122.7,592.1,122.7c-0.7-0.4-1.4-0.7-2-1.1c0,0-0.1,0-0.1,0
					c-0.6,0.3-1.3,0.7-1.9,1c0,0,0,0-0.1,0c0-0.1,0-0.2,0-0.3c0.1-0.7,0.2-1.3,0.3-2c0,0,0-0.1,0-0.1c-0.5-0.5-1.1-1-1.6-1.5
					c0,0,0,0-0.1,0c0,0,0,0,0,0c0.2,0,0.3,0,0.5-0.1c0.5-0.1,1-0.1,1.4-0.2c0.1,0,0.2,0,0.3,0c0,0,0.1,0,0.1-0.1
					c0.3-0.6,0.6-1.3,0.9-1.9c0,0,0-0.1,0.1-0.1c0,0,0,0,0,0.1c0.3,0.7,0.6,1.3,1,2c0,0,0,0.1,0.1,0.1c0.7,0.1,1.5,0.2,2.2,0.3
					c0,0,0,0,0,0c0,0,0,0,0,0c0,0,0,0-0.1,0c-0.5,0.5-1.1,1-1.6,1.5c0,0,0,0,0,0.1C591.8,121.2,591.9,121.9,592.1,122.7
					C592.1,122.7,592.1,122.7,592.1,122.7z"/>
				<path fill="#EBB650" d="M600,122.7C600,122.7,599.9,122.7,600,122.7c-0.7-0.4-1.4-0.7-2-1.1c0,0-0.1,0-0.1,0
					c-0.6,0.3-1.3,0.7-1.9,1c0,0,0,0-0.1,0c0-0.1,0-0.2,0-0.3c0.1-0.7,0.2-1.3,0.3-2c0,0,0-0.1,0-0.1c-0.5-0.5-1.1-1-1.6-1.5
					c0,0,0,0-0.1,0c0,0,0,0,0,0c0.2,0,0.3,0,0.5-0.1c0.5-0.1,1-0.1,1.4-0.2c0.1,0,0.2,0,0.3,0c0,0,0.1,0,0.1-0.1
					c0.3-0.6,0.6-1.3,0.9-1.9c0,0,0-0.1,0.1-0.1c0,0,0,0,0,0.1c0.3,0.7,0.6,1.3,1,2c0,0,0,0.1,0.1,0.1c0.7,0.1,1.5,0.2,2.2,0.3
					c0,0,0,0,0,0c0,0,0,0,0,0c0,0,0,0-0.1,0c-0.5,0.5-1.1,1-1.6,1.5c0,0,0,0,0,0.1C599.7,121.2,599.9,121.9,600,122.7
					C600,122.7,600,122.7,600,122.7z"/>
			</g>
		</g>
	</g>
	<g>
		<g>
			<circle fill="#FFFFFF" stroke="#B7B7B7" stroke-miterlimit="10" cx="87.4" cy="76.6" r="66.2"/>
			<g>
				<defs>
					<circle id="SVGID_5_" cx="87.4" cy="76.6" r="62.6"/>
				</defs>
				<clipPath id="SVGID_6_">
					<use xlink:href="#SVGID_5_"  overflow="visible"/>
				</clipPath>
				<g clip-path="url(#SVGID_6_)">
					<rect x="77.3" y="88.3" fill="#35333C" width="20" height="8.5"/>
					<polygon fill="#AA6C49" points="98.1,90.9 95.5,89.7 95.5,81.6 79.1,81.6 79.1,89.7 76.6,90.8 77.2,113.8 79.1,113.8 
						79.1,117.3 95.5,117.3 95.5,113.8 97.4,113.8 					"/>
					<polygon fill="#915639" points="79.1,81.6 79.1,86.7 95.5,89.1 95.5,81.6 					"/>
					<path fill="#C6875E" d="M105.3,57.4l0.6-7.2c0-9.4-9-17.1-18.4-17.1C78,33.1,69,40.7,69,50.2l0.6,7.2c-0.5,0.1-1,0.4-1.4,0.7
						c-0.7,0.6-1.2,1.6-1.2,2.6v3.6c0,1.9,1.5,3.4,3.4,3.4C70.3,76.6,81,85,87.4,85s17.1-8.4,17.1-17.3c1.9,0,3.4-1.5,3.4-3.4v-3.6
						C107.9,59.1,106.8,57.8,105.3,57.4z"/>
					<path fill="#AA6C49" d="M105.3,57.4l0.6-7.2c0-9.4-9-17.1-18.4-17.1c0,0,0,0,0,0l0,24.6c-2.5,5.3-4.1,13-4.1,13h4.1V85l0,0
						c0,0,0,0,0,0c6.4,0,17.1-8.4,17.1-17.3c1.9,0,3.4-1.5,3.4-3.4v-3.6C107.9,59.1,106.8,57.8,105.3,57.4z"/>
					<path fill="#050505" d="M81.8,74.7h10.7c0.3,0,0.5,0.4,0.3,0.6C92,76,90.2,75.8,87,75.8s-4.7,0.2-5.4-0.5
						C81.3,75.1,81.5,74.7,81.8,74.7z"/>
					<path fill="#050505" d="M93,57.9c0.4,0,0.6,0.3,0.6,0.6c0,0.3,0.7,0.8,1.8,0.8c1.1,0,1.8-0.5,1.8-0.8c0-0.4,0.3-0.6,0.6-0.6
						s0.6,0.3,0.6,0.6c0,1.2-1.4,2.1-3.1,2.1s-3.1-0.9-3.1-2.1C92.3,58.2,92.6,57.9,93,57.9z"/>
					<path fill="#050505" d="M75.8,57.9c0.4,0,0.6,0.3,0.6,0.6c0,0.3,0.7,0.8,1.8,0.8c1.1,0,1.8-0.5,1.8-0.8c0-0.4,0.3-0.6,0.6-0.6
						s0.6,0.3,0.6,0.6c0,1.2-1.4,2.1-3.1,2.1c-1.7,0-3.1-0.9-3.1-2.1C75.2,58.2,75.4,57.9,75.8,57.9z"/>
					<g>
						<path fill="#FFFFFF" d="M76.3,90.9l0.6,2.3c1.1,3,3.8,3.8,10.2,3.8c7.2,0,10-2.1,10.9-4.9l0.3-1.2c13.3,5,9.2,46.8,9.2,46.8
							l0.1,34.7l-20.3,0l-21.4,0l0.6-34.7C66.4,137.7,63,95.9,76.3,90.9z"/>
						<path fill="#FFFFFF" d="M87.3,96.8l5,5.3l8.6-10.3c0,0-5.4-2.7-5.4-2.7l-2,1.9L87.3,96.8z"/>
						<polygon fill="#FFFFFF" points="79,89.1 87.3,96.8 82.3,102.1 73.7,91.8 						"/>
					</g>
					<path fill="#152430" d="M131.8,137.6c1.2-3.8,1.2-7.9-0.1-11.7c-2.5-7.3-7.2-22.8-8.6-25.7c-3-6.5-12.6-6.2-24.5-10.4
						c-0.4-0.1-0.9-0.3-1.3-0.5l0,0c-0.7,4.1-10,45.8-10,45.8s-9.3-41.7-10-45.8c0,0,0,0,0,0c-0.4,0.2-0.9,0.3-1.3,0.5
						c-12,4.1-21.6,3.9-24.5,10.4c-1.3,2.9-6.1,18.4-8.6,25.7c-1.3,3.8-1.3,7.9-0.1,11.7c2.7,8.4,8.4,19.8,10.8,23.4
						c2.2,3.2,6,4.4,8.7,3.5c-0.4,1.7-3,9.4-3,9.4H115c0.4,0-2.3-7.6-2.7-9.4c2.7,0.9,6.5-0.3,8.7-3.5
						C123.5,157.3,129.1,145.9,131.8,137.6z"/>
					<g>
						<g>
							<polygon fill="#0D4870" points="104.2,91.9 104,99.7 100.1,102.9 103.1,107.1 87.4,134.8 97.3,88.3 							"/>
						</g>
						<g>
							<polygon fill="#0D4870" points="70.4,91.9 70.7,99.7 74.6,102.9 71.5,107.1 87.2,134.8 77.3,88.3 							"/>
						</g>
					</g>
					<g>
						<path fill="#050505" stroke="#DBC7BD" stroke-width="0.25" stroke-miterlimit="10" d="M86.9,55.6"/>
						<path fill="#050505" stroke="#DBC7BD" stroke-width="0.25" stroke-miterlimit="10" d="M86.9,55.7"/>
						
							<path fill="#050505" stroke="#DBC7BD" stroke-width="0.25" stroke-linecap="round" stroke-linejoin="round" stroke-miterlimit="10" d="
							M86.9,55.6"/>
						<circle fill="#050505" cx="86.9" cy="32.4" r="4"/>
						<circle fill="#050505" cx="93.2" cy="33.3" r="4"/>
						<circle fill="#050505" cx="98.6" cy="35.5" r="4"/>
						
							<ellipse transform="matrix(1.452011e-02 -0.9999 0.9999 1.452011e-02 62.0223 142.0936)" fill="#050505" cx="103.1" cy="39.6" rx="4" ry="4"/>
						<circle fill="#050505" cx="105.5" cy="44.3" r="4"/>
						<circle fill="#050505" cx="106.4" cy="50.9" r="4"/>
						<circle fill="#050505" cx="105.6" cy="55.6" r="3.6"/>
						<circle fill="#050505" cx="105.7" cy="55.9" r="3.6"/>
						<circle fill="#050505" cx="81.6" cy="33.3" r="4"/>
						<circle fill="#050505" cx="76.2" cy="35.5" r="4"/>
						
							<ellipse transform="matrix(0.9999 -1.452011e-02 1.452011e-02 0.9999 -0.5672 1.0454)" fill="#050505" cx="71.7" cy="39.6" rx="4" ry="4"/>
						<circle fill="#050505" cx="69.3" cy="44.3" r="4"/>
						<circle fill="#050505" cx="68.4" cy="50.9" r="4"/>
						<circle fill="#050505" cx="87" cy="37" r="3.6"/>
						<circle fill="#050505" cx="87" cy="41.2" r="3.6"/>
						<circle fill="#050505" cx="92.6" cy="38.8" r="3.6"/>
						<circle fill="#050505" cx="92.9" cy="41.8" r="3.6"/>
						<circle fill="#050505" cx="97.6" cy="41" r="3.6"/>
						<circle fill="#050505" cx="98.6" cy="45" r="3.6"/>
						<circle fill="#050505" cx="102.8" cy="49.5" r="3.6"/>
						<circle fill="#050505" cx="81.2" cy="41.8" r="3.6"/>
						<circle fill="#050505" cx="78.3" cy="39.9" r="3.6"/>
						<circle fill="#050505" cx="82.5" cy="38" r="3.6"/>
						<circle fill="#050505" cx="75.5" cy="45" r="3.6"/>
						<circle fill="#050505" cx="71.3" cy="49.5" r="3.6"/>
						<circle fill="#050505" cx="69.1" cy="55.9" r="3.6"/>
					</g>
					<path fill="#262626" stroke="#262626" stroke-miterlimit="10" d="M100.8,53.6l-3,0c-2.5,0-5.4,0-6.3,0.1
						c-1.2,0.1-2.5,0.9-2.8,1h-3.2c-0.3-0.2-1.5-0.9-2.8-1c-0.8-0.1-3.8-0.1-6.3-0.1l-3,0l-1.3,0.1c-1.2,0.1-2,0.2-2.1,0.3
						c-0.1,0.1-0.2,0.8-0.2,1c0,0.5,0,0.8,0.2,1c0.1,0.1,0.3,0.2,0.4,0.2c0.3,0.1,0.5,0.2,0.6,0.5c0.1,0.3,0.2,1.2,0.3,2.2
						c0.2,1.3,0.3,2.7,0.5,3c0.1,0.3,0.8,1.7,3.7,1.8c1.4,0.1,3,0.1,4.4,0.1c1.3,0,2.1-0.1,2.5-0.2c0.4-0.1,1.8-0.6,2.5-2.7
						c0.6-1.6,1.1-2.8,1.6-3.5c0.1-0.1,0.3-0.2,0.7-0.2c0.4,0,0.7,0.1,0.7,0.2c0.4,0.7,1,1.9,1.6,3.5c0.8,2.1,2.1,2.6,2.5,2.7
						c0.4,0.2,1.2,0.2,2.5,0.2c1.3,0,2.9-0.1,4.4-0.1c3-0.1,3.6-1.4,3.7-1.8c0.1-0.4,0.3-1.7,0.5-3c0.1-0.9,0.2-1.8,0.3-2.2
						c0.1-0.3,0.3-0.3,0.5-0.4c0.2,0,0.3-0.1,0.5-0.2c0.3-0.4,0.1-1.8,0-2c-0.1-0.1-0.3-0.2-1.9-0.3L100.8,53.6z M84.1,60l-0.2,0.5
						c-0.4,1.1-1.6,1.9-2.3,2.1c-0.3,0.1-1.5,0.2-2.9,0.2s-2.8-0.1-3.5-0.2c-1.6-0.2-2.3-0.7-2.5-1.5c-0.1-0.3-0.2-3.2-0.3-5.1
						c0-0.3,0.2-0.7,0.4-0.9c0.3-0.4,1.1-0.6,1.2-0.6s7.8,0.1,9,0.3c1.2,0.2,1.8,0.7,2.1,1.4C85.2,57.1,84.5,58.8,84.1,60z
						 M101.6,61.2c-0.2,0.8-0.9,1.2-2.5,1.5c-0.7,0.1-2,0.2-3.5,0.2c-1.5,0-2.6-0.1-2.9-0.2c-0.7-0.2-1.9-1-2.3-2.1L90.2,60
						c-0.4-1.2-1.1-3-0.9-3.7h0c0.2-0.8,0.9-1.3,2.1-1.4c1.2-0.2,8.6-0.3,9-0.3c0.1,0,0.8,0.1,1.2,0.6c0.2,0.3,0.3,0.6,0.4,0.9
						C101.8,58,101.7,60.9,101.6,61.2z"/>
					<circle fill="#9B6043" cx="96.7" cy="68.3" r="3.1"/>
					<circle fill="#9B6043" cx="77.7" cy="68.3" r="3.1"/>
					<g>
						<path fill="#AAAAAB" d="M93.3,133H44.9c-0.6,0-1.1-0.5-1.1-1.1c0-0.6,0.5-1.1,1.1-1.1h48.4c0.6,0,1.1,0.5,1.1,1.1
							C94.4,132.5,93.9,133,93.3,133z"/>
						<path fill="#DFDFDF" d="M92.4,130.8H45.7c-1.1,0-2-0.9-2-2V96c0-1.1,0.9-2,2-2h46.8c1.1,0,2,0.9,2,2v32.9
							C94.4,129.9,93.5,130.8,92.4,130.8z"/>
						<circle opacity="0.5" fill="#FFFFFF" cx="69.1" cy="111.2" r="4.1"/>
						<path opacity="0.2" fill="#FFFFFF" d="M82.9,94H45.8c-1.2,0-2.1,0.9-2.1,2.1v32.6c0,1.2,0.9,2.1,2.1,2.1h7.3
							C54.6,113.3,66.7,98.8,82.9,94z"/>
						<g id="table_7_">
							<path fill="#424242" d="M129.8,140H36.7c-1.7,0-3-1.6-3-3.6s1.4-3.6,3-3.6h93.2c1.7,0,3,1.6,3,3.6S131.5,140,129.8,140z"/>
						</g>
						<path fill="#21AFA3" d="M84,126.1h28.6h0.5h14.6c0.2,0,0.4,0.2,0.4,0.4c0,0.2-0.2,0.4-0.4,0.4h-14.6v5h14.6
							c0.2,0,0.4,0.2,0.4,0.4c0,0.2-0.2,0.4-0.4,0.4h-14.6h-0.5H84c-0.9,0-1.7-0.8-1.7-1.7v-3.3C82.3,126.8,83,126.1,84,126.1z"/>
						<path opacity="0.5" fill="#49535B" d="M83.1,131.7h28.6h0.5h0.9v0.2h14.6c0.2,0,0.4,0.2,0.4,0.4c0,0.2-0.2,0.4-0.4,0.4h-14.6
							h-0.5H84c-0.8,0-1.5-0.5-1.7-1.3C82.6,131.7,82.8,131.7,83.1,131.7z"/>
						<path fill="#84E6F0" d="M83.1,127.2h28.6h0.5h0.9v-0.2h14.6c0.2,0,0.4-0.2,0.4-0.4c0-0.2-0.2-0.4-0.4-0.4h-14.6h-0.5H84
							c-0.8,0-1.5,0.5-1.7,1.3C82.6,127.2,82.8,127.2,83.1,127.2z"/>
						<path fill="#548996" d="M110.4,131.1v-3.3c0-0.9,0.8-1.7,1.7-1.7h0.4h0.5h14.6c0.2,0,0.4,0.2,0.4,0.4c0,0.2-0.2,0.4-0.4,0.4
							h-14.6v5h14.6c0.2,0,0.4,0.2,0.4,0.4c0,0.2-0.2,0.4-0.4,0.4h-14.6h-0.5h-0.4C111.2,132.8,110.4,132,110.4,131.1z"/>
						<path fill="#EFE5DA" d="M112.6,126.9h15c-0.3,0.8-0.4,1.6-0.4,2.5c0,0.9,0.1,1.8,0.4,2.5h-15c-0.6,0-1.1-0.5-1.1-1.1v-2.8
							C111.4,127.4,112,126.9,112.6,126.9z"/>
						<path fill="#B0B4B9" d="M112.6,126.9h15c0,0.1-0.1,0.3-0.1,0.4h-14.7c-0.6,0-1.1,0.5-1.1,1.1v2.8c0,0.1,0,0.2,0,0.2
							c-0.1-0.2-0.2-0.4-0.2-0.6v-2.8C111.4,127.4,112,126.9,112.6,126.9z"/>
						<path fill="#55514D" d="M111.4,130.8v-2.8c0-0.3,0.2-0.7,0.4-0.9c0.2,0.7,0.3,1.4,0.3,2.2s-0.1,1.6-0.3,2.2
							C111.6,131.5,111.4,131.2,111.4,130.8z"/>
					</g>
				</g>
			</g>
		</g>
		<g>
			
				<ellipse transform="matrix(2.186941e-02 -0.9998 0.9998 2.186941e-02 14.327 253.7098)" fill="#FFFFFF" stroke="#B7B7B7" stroke-miterlimit="10" cx="136.8" cy="119.5" rx="15" ry="15"/>
			<path fill="#D8D8D8" d="M131,122.7C130.9,122.7,130.9,122.7,131,122.7c-0.7-0.4-1.4-0.7-2-1.1c0,0-0.1,0-0.1,0
				c-0.6,0.3-1.3,0.7-1.9,1c0,0,0,0-0.1,0c0-0.1,0-0.2,0-0.3c0.1-0.7,0.2-1.3,0.3-2c0,0,0-0.1,0-0.1c-0.5-0.5-1.1-1-1.6-1.5
				c0,0,0,0-0.1,0c0,0,0,0,0,0c0.2,0,0.3,0,0.5-0.1c0.5-0.1,1-0.1,1.4-0.2c0.1,0,0.2,0,0.3,0c0,0,0.1,0,0.1-0.1
				c0.3-0.6,0.6-1.3,0.9-1.9c0,0,0-0.1,0.1-0.1c0,0,0,0,0,0.1c0.3,0.7,0.6,1.3,1,2c0,0,0,0.1,0.1,0.1c0.7,0.1,1.5,0.2,2.2,0.3
				c0,0,0,0,0,0c0,0,0,0,0,0c0,0,0,0-0.1,0c-0.5,0.5-1.1,1-1.6,1.5c0,0,0,0,0,0.1C130.7,121.2,130.8,121.9,131,122.7
				C131,122.7,131,122.7,131,122.7z"/>
			<path fill="#D8D8D8" d="M138.9,122.7C138.9,122.7,138.8,122.7,138.9,122.7c-0.7-0.4-1.4-0.7-2-1.1c0,0-0.1,0-0.1,0
				c-0.6,0.3-1.3,0.7-1.9,1c0,0,0,0-0.1,0c0-0.1,0-0.2,0-0.3c0.1-0.7,0.2-1.3,0.3-2c0,0,0-0.1,0-0.1c-0.5-0.5-1.1-1-1.6-1.5
				c0,0,0,0-0.1,0c0,0,0,0,0,0c0.2,0,0.3,0,0.5-0.1c0.5-0.1,1-0.1,1.4-0.2c0.1,0,0.2,0,0.3,0c0,0,0.1,0,0.1-0.1
				c0.3-0.6,0.6-1.3,0.9-1.9c0,0,0-0.1,0.1-0.1c0,0,0,0,0,0.1c0.3,0.7,0.6,1.3,1,2c0,0,0,0.1,0.1,0.1c0.7,0.1,1.5,0.2,2.2,0.3
				c0,0,0,0,0,0c0,0,0,0,0,0c0,0,0,0-0.1,0c-0.5,0.5-1.1,1-1.6,1.5c0,0,0,0,0,0.1C138.6,121.2,138.8,121.9,138.9,122.7
				C138.9,122.7,138.9,122.7,138.9,122.7z"/>
			<path fill="#EBB650" d="M146.8,122.7C146.8,122.7,146.8,122.7,146.8,122.7c-0.7-0.4-1.4-0.7-2-1.1c0,0-0.1,0-0.1,0
				c-0.6,0.3-1.3,0.7-1.9,1c0,0,0,0-0.1,0c0-0.1,0-0.2,0-0.3c0.1-0.7,0.2-1.3,0.3-2c0,0,0-0.1,0-0.1c-0.5-0.5-1.1-1-1.6-1.5
				c0,0,0,0-0.1,0c0,0,0,0,0,0c0.2,0,0.3,0,0.5-0.1c0.5-0.1,1-0.1,1.4-0.2c0.1,0,0.2,0,0.3,0c0,0,0.1,0,0.1-0.1
				c0.3-0.6,0.6-1.3,0.9-1.9c0,0,0-0.1,0.1-0.1c0,0,0,0,0,0.1c0.3,0.7,0.6,1.3,1,2c0,0,0,0.1,0.1,0.1c0.7,0.1,1.5,0.2,2.2,0.3
				c0,0,0,0,0,0c0,0,0,0,0,0c0,0,0,0-0.1,0c-0.5,0.5-1.1,1-1.6,1.5c0,0,0,0,0,0.1C146.5,121.2,146.7,121.9,146.8,122.7
				C146.8,122.7,146.8,122.7,146.8,122.7z"/>
		</g>
	</g>
	<g>
		<circle fill="#FFFFFF" cx="437" cy="76.6" r="17.6"/>
		<g>
			<path d="M446.9,78.2c-0.1-0.1-0.2-0.1-1.1-0.2c0-0.5-0.2-1.3-0.5-2.5c-0.6-2.2-1.5-3.9-2.9-5.2c-1.3-1.2-3.2-1.9-5.5-2.1
				c-0.1,0-0.2,0-0.3,0c-1.5,0-3.2,0.7-4.4,1.2c-0.2,0.1-0.4,0.1-0.6,0.1c-0.8,0-1.3-0.7-1.3-0.7l-0.2-0.3l0,0.3
				c0,0,0.1,0.7,0.2,1.3c0,0.2,0.1,0.6,0.3,0.9c-0.6,0.6-1.1,1.2-1.7,3.1c-0.4,1.4-0.5,3-0.6,3.7c-0.7,0-1.1,0.1-1.2,0.2
				c-0.1,0.1-0.1,0.5-0.1,0.6c0,0.3,0,0.5,0.1,0.6c0.1,0.1,0.2,0.1,0.2,0.1c0.2,0,0.3,0.1,0.3,0.3c0,0.2,0.1,0.7,0.2,1.3
				c0.1,0.8,0.2,1.6,0.3,1.7c0.1,0.2,0.5,1,2.2,1c0.8,0,1.7,0.1,2.5,0.1c0.8,0,1.2,0,1.5-0.1c0.3-0.1,1-0.3,1.5-1.6
				c0.3-0.9,0.6-1.6,0.9-2c0-0.1,0.2-0.1,0.4-0.1c0.2,0,0.4,0.1,0.4,0.1c0.3,0.4,0.6,1.1,0.9,2c0.4,1.2,1.2,1.5,1.5,1.6
				c0.2,0.1,0.7,0.1,1.5,0.1h0c0.8,0,1.7,0,2.5-0.1c1.7-0.1,2.1-0.8,2.2-1c0.1-0.2,0.2-1,0.3-1.8c0.1-0.5,0.1-1.1,0.2-1.3
				c0-0.2,0.2-0.2,0.3-0.2c0.1,0,0.2-0.1,0.3-0.1C447.1,79.1,447,78.3,446.9,78.2z M438.3,79.6c0.1-0.5,0.5-0.7,1.2-0.8
				c0.7-0.1,5-0.2,5.2-0.2c0.1,0,0.5,0.1,0.7,0.3c0.2,0.3,0.2,0.5,0.2,0.5c0,1.1-0.1,2.8-0.2,3c-0.1,0.5-0.5,0.7-1.4,0.9
				c-0.4,0.1-1.2,0.1-2,0.1c-0.8,0-1.5,0-1.7-0.1c-0.4-0.1-1.1-0.6-1.3-1.2c0-0.1-0.1-0.2-0.1-0.3C438.5,81,438.2,80,438.3,79.6z
				 M429.1,78c0-0.4,0.1-1.1,0.2-1.9c0.2-1.8,1-3.1,1.3-3.4c0.1-0.2,0.4-0.4,0.8-0.6c0.5,0.4,1.2,0.8,2,0.9c0.3,0.1,0.5,0.1,0.8,0.1
				c2.4,0,5.4-2,5.4-2c0,0,0.3-0.1,0.7-0.1c0.3,0,0.6,0.1,0.8,0.2c0.8,0.5,1.9,1.6,2.6,3c0.6,1.2,0.9,3,1.1,3.8c-0.4,0-1,0-1.7,0
				c-1.4,0-3.1,0-3.6,0.1c-0.7,0.1-1.4,0.5-1.6,0.6l-1.9,0c-0.2-0.1-0.9-0.5-1.6-0.6c-0.5,0-2.2-0.1-3.6-0.1
				C430.2,78,429.6,78,429.1,78z M435.3,81.7c0,0.1-0.1,0.2-0.1,0.3c-0.2,0.6-0.9,1.1-1.3,1.2c-0.2,0.1-0.9,0.1-1.7,0.1
				c-0.9,0-1.6,0-2-0.1c-0.9-0.1-1.3-0.4-1.4-0.9c0-0.2-0.1-1.8-0.2-2.9c0,0,0-0.3,0.2-0.5c0.2-0.2,0.6-0.3,0.7-0.3
				c0.2,0,4.5,0.1,5.2,0.2c0.7,0.1,1.1,0.4,1.2,0.8C435.9,80,435.5,81,435.3,81.7z"/>
			<path fill="#289CAE" d="M431,81.8v-2c0-0.1,0.1-0.1,0.2-0.1l2,1c0.1,0,0.1,0.2,0,0.2l-2,1C431,81.9,431,81.9,431,81.8z"/>
			<path fill="#289CAE" d="M441.1,81.8v-2c0-0.1,0.1-0.1,0.2-0.1l2,1c0.1,0,0.1,0.2,0,0.2l-2,1C441.2,81.9,441.1,81.9,441.1,81.8z"
				/>
		</g>
		<circle fill="none" stroke="#FFFFFF" stroke-width="0.3" stroke-miterlimit="10" cx="437" cy="76.6" r="15.1"/>
		<g>
			<circle fill="none" stroke="#D8D8D8" stroke-miterlimit="10" stroke-dasharray="1.9741,0.9871" cx="437" cy="76.6" r="15.1"/>
		</g>
	</g>
</g>
</svg>
