<svg id="Grid" xmlns="http://www.w3.org/2000/svg" xmlns:xlink="http://www.w3.org/1999/xlink" viewBox="0 0 340.3 163.9"><defs><style>.cls-1,.cls-2,.cls-5,.cls-6{fill:none;}.cls-2{stroke:#202933;stroke-dasharray:5 3;}.cls-16,.cls-18,.cls-2,.cls-5,.cls-6,.cls-7{stroke-miterlimit:10;}.cls-22,.cls-23,.cls-3,.cls-7{fill:#fff;}.cls-4{fill:#289cae;}.cls-5{stroke:#fff;stroke-width:0.3px;}.cls-6{stroke:#d8d8d8;stroke-dasharray:1.97 0.99;}.cls-7{stroke:#b7b7b7;}.cls-8{clip-path:url(#clip-path);}.cls-9{fill:#35333c;}.cls-10{fill:#aa6c49;}.cls-11{fill:#915639;}.cls-12{fill:#c6875e;}.cls-13,.cls-16,.cls-17{fill:#050505;}.cls-14{fill:#152430;}.cls-15{fill:#0d4870;}.cls-16,.cls-17{stroke:#dbc7bd;stroke-width:0.25px;}.cls-17{stroke-linecap:round;stroke-linejoin:round;}.cls-18{fill:#262626;stroke:#262626;}.cls-19{fill:#9b6043;}.cls-20{fill:#aaaaab;}.cls-21{fill:#dfdfdf;}.cls-22,.cls-26{opacity:0.5;}.cls-23{opacity:0.2;}.cls-24{fill:#424242;}.cls-25{fill:#21afa3;}.cls-26{fill:#49535b;}.cls-27{fill:#84e6f0;}.cls-28{fill:#548996;}.cls-29{fill:#efe5da;}.cls-30{fill:#b0b4b9;}.cls-31{fill:#55514d;}.cls-32{fill:#202933;}.cls-33{fill:#10161c;}.cls-34{fill:#1d8893;}.cls-35{fill:#30bfce;}.cls-36{fill:#0084ae;}.cls-37{fill:#00a1c6;}.cls-38{fill:#8bedf7;}.cls-39{fill:#ebb650;}.cls-40{clip-path:url(#clip-path-2);}.cls-41{fill:#d8d8d8;}</style><clipPath id="clip-path" transform="translate(-1278.3 -1302.2)"><circle class="cls-1" cx="1551.9" cy="1368.9" r="62.6"/></clipPath><clipPath id="clip-path-2" transform="translate(-1278.3 -1302.2)"><circle class="cls-1" cx="1345" cy="1368.9" r="62.6"/></clipPath></defs><title>solucion movil</title><line class="cls-2" x1="136.2" y1="66.7" x2="149" y2="66.7"/><line class="cls-2" x1="191.1" y1="66.7" x2="203.9" y2="66.7"/><circle class="cls-3" cx="170" cy="66.7" r="17.6"/><path d="M1458.2,1370.5l-1.1-.2a15.6,15.6,0,0,0-.5-2.5,10.7,10.7,0,0,0-2.9-5.2,8.6,8.6,0,0,0-5.5-2.1h-0.3a11.3,11.3,0,0,0-4.4,1.2h-0.6a1.9,1.9,0,0,1-1.3-.7l-0.2-.3v0.3s0.1,0.7.2,1.3a2.9,2.9,0,0,0,.3.9,6.1,6.1,0,0,0-1.7,3.1,18.4,18.4,0,0,0-.6,3.7l-1.2.2a1.2,1.2,0,0,0-.1.6,0.8,0.8,0,0,0,.1.6h0.2a0.4,0.4,0,0,1,.3.3l0.2,1.3c0.1,0.8.2,1.6,0.3,1.7s0.5,1,2.2,1h4a2.3,2.3,0,0,0,1.5-1.6,11.9,11.9,0,0,1,.9-2h0.8a11.9,11.9,0,0,1,.9,2,2.3,2.3,0,0,0,1.5,1.6h4c1.7-.1,2.1-0.8,2.2-1s0.2-1,.3-1.8l0.2-1.3a0.3,0.3,0,0,1,.3-0.2h0.3A1.5,1.5,0,0,0,1458.2,1370.5Zm-8.6,1.4a1.3,1.3,0,0,1,1.2-.8l5.2-.2a1.2,1.2,0,0,1,.7.3,1,1,0,0,1,.2.5c0,1.1-.1,2.8-0.2,3s-0.5.7-1.4,0.9h-3.7a2.3,2.3,0,0,1-1.3-1.2V1374A5.7,5.7,0,0,1,1449.5,1371.9Zm-9.1-1.6c0-.4.1-1.1,0.2-1.9a7.9,7.9,0,0,1,1.3-3.4l0.8-.6a4.9,4.9,0,0,0,2,.9h0.8c2.4,0,5.4-2,5.4-2h0.7l0.8,0.2a8.5,8.5,0,0,1,2.6,3,14.3,14.3,0,0,1,1.1,3.8h-5.3a4,4,0,0,0-1.6.6h-1.9a4,4,0,0,0-1.6-.6h-5.4Zm6.1,3.7v0.3a2.3,2.3,0,0,1-1.3,1.2h-3.7c-0.9-.1-1.3-0.4-1.4-0.9s-0.1-1.8-.2-2.9a1,1,0,0,1,.2-0.5,1.2,1.2,0,0,1,.7-0.3l5.2,0.2a1.3,1.3,0,0,1,1.2.8A5.7,5.7,0,0,1,1446.5,1374Z" transform="translate(-1278.3 -1302.2)"/><path class="cls-4" d="M1442.2,1374.1v-2h0.2l2,1a0.1,0.1,0,0,1,0,.2l-2,1h-0.2Z" transform="translate(-1278.3 -1302.2)"/><path class="cls-4" d="M1452.4,1374.1v-2h0.2l2,1a0.1,0.1,0,0,1,0,.2l-2,1h-0.2Z" transform="translate(-1278.3 -1302.2)"/><circle class="cls-5" cx="170" cy="66.7" r="15.1"/><circle class="cls-6" cx="170" cy="66.7" r="15.1"/><circle class="cls-7" cx="273.6" cy="66.7" r="66.2"/><g class="cls-8"><rect class="cls-9" x="263.5" y="78.4" width="20" height="8.49"/><polygon class="cls-10" points="284.3 80.9 281.7 79.8 281.7 71.6 265.3 71.6 265.3 79.8 262.7 80.9 263.4 103.9 265.3 103.9 265.3 107.4 281.7 107.4 281.7 103.9 283.6 103.9 284.3 80.9"/><polygon class="cls-11" points="265.3 71.6 265.3 76.8 281.7 79.2 281.7 71.6 265.3 71.6"/><path class="cls-12" d="M1569.8,1349.7l0.6-7.2c0-9.4-9-17.1-18.4-17.1s-18.4,7.6-18.4,17.1l0.6,7.2a3.3,3.3,0,0,0-1.4.7,3.4,3.4,0,0,0-1.2,2.6v3.6a3.4,3.4,0,0,0,3.4,3.4c0,8.9,10.7,17.3,17.1,17.3s17.1-8.4,17.1-17.3a3.4,3.4,0,0,0,3.4-3.4V1353A3.4,3.4,0,0,0,1569.8,1349.7Z" transform="translate(-1278.3 -1302.2)"/><path class="cls-10" d="M1569.8,1349.7l0.6-7.2c0-9.4-9-17.1-18.4-17.1h0V1350a71.2,71.2,0,0,0-4.1,13h4.1v14.4h0c6.4,0,17.1-8.4,17.1-17.3a3.4,3.4,0,0,0,3.4-3.4V1353A3.4,3.4,0,0,0,1569.8,1349.7Z" transform="translate(-1278.3 -1302.2)"/><path class="cls-13" d="M1546.3,1367H1557c0.3,0,.4.3,0.3,0.6a6.4,6.4,0,0,1-5.6,3.7,6.2,6.2,0,0,1-5.6-3.7C1546,1367.3,1546,1367,1546.3,1367Z" transform="translate(-1278.3 -1302.2)"/><path class="cls-13" d="M1545.2,1353a0.6,0.6,0,0,1-.6-0.6c0-.3-0.7-0.8-1.8-0.8s-1.8.5-1.8,0.8a0.6,0.6,0,0,1-1.3,0c0-1.2,1.4-2.1,3.1-2.1s3.1,0.9,3.1,2.1A0.6,0.6,0,0,1,1545.2,1353Z" transform="translate(-1278.3 -1302.2)"/><path class="cls-13" d="M1562.4,1353a0.6,0.6,0,0,1-.6-0.6c0-.3-0.7-0.8-1.8-0.8s-1.8.5-1.8,0.8a0.6,0.6,0,0,1-1.3,0c0-1.2,1.4-2.1,3.1-2.1s3.1,0.9,3.1,2.1A0.6,0.6,0,0,1,1562.4,1353Z" transform="translate(-1278.3 -1302.2)"/><path class="cls-3" d="M1540.8,1383.2l0.6,2.3c1.1,3,3.8,3.8,10.2,3.8s10-2.1,10.9-4.9l0.3-1.2c13.3,5,9.2,46.8,9.2,46.8v34.7h-41.8l0.6-34.7S1527.5,1388.2,1540.8,1383.2Z" transform="translate(-1278.3 -1302.2)"/><path class="cls-3" d="M1551.8,1389.1l5,5.3,8.6-10.3-5.4-2.7-2,1.9Z" transform="translate(-1278.3 -1302.2)"/><polygon class="cls-3" points="265.2 79.2 273.5 86.9 268.5 92.2 259.8 81.9 265.2 79.2"/><path class="cls-14" d="M1596.3,1429.9a18.4,18.4,0,0,0-.1-11.7c-2.5-7.3-7.2-22.8-8.6-25.7-3-6.5-12.6-6.2-24.5-10.4l-1.3-.5h0c-0.7,4.1-10,45.8-10,45.8s-9.3-41.7-10-45.8h0l-1.3.5c-12,4.1-21.6,3.9-24.5,10.4-1.3,2.9-6.1,18.4-8.6,25.7a18.4,18.4,0,0,0-.1,11.7c2.7,8.4,8.4,19.8,10.8,23.4s6,4.4,8.7,3.5c-0.4,1.7-3,9.4-3,9.4h55.5c0.4,0-2.3-7.6-2.7-9.4,2.7,0.9,6.5-.3,8.7-3.5S1593.6,1438.3,1596.3,1429.9Z" transform="translate(-1278.3 -1302.2)"/><polygon class="cls-15" points="290.4 81.9 290.1 89.8 286.2 93 289.3 97.1 273.6 124.9 283.5 78.4 290.4 81.9"/><polygon class="cls-15" points="256.6 81.9 256.9 89.8 260.8 93 257.7 97.1 273.4 124.9 263.5 78.4 256.6 81.9"/><path class="cls-16" d="M1551.4,1348" transform="translate(-1278.3 -1302.2)"/><path class="cls-16" d="M1551.4,1348" transform="translate(-1278.3 -1302.2)"/><path class="cls-17" d="M1551.4,1348" transform="translate(-1278.3 -1302.2)"/><circle class="cls-13" cx="273.1" cy="22.4" r="4"/><circle class="cls-13" cx="279.4" cy="23.3" r="4"/><circle class="cls-13" cx="284.8" cy="25.6" r="4"/><circle class="cls-13" cx="1567.6" cy="1331.9" r="4" transform="translate(-1065.2 1577.7) rotate(-89.2)"/><circle class="cls-13" cx="291.7" cy="34.4" r="4"/><circle class="cls-13" cx="292.6" cy="41" r="4"/><circle class="cls-13" cx="291.8" cy="45.7" r="3.6"/><circle class="cls-13" cx="291.9" cy="46" r="3.6"/><circle class="cls-13" cx="267.7" cy="23.3" r="4"/><circle class="cls-13" cx="262.4" cy="25.6" r="4"/><circle class="cls-13" cx="1536.2" cy="1331.9" r="4" transform="translate(-1297.5 -1279.8) rotate(-0.8)"/><circle class="cls-13" cx="255.5" cy="34.4" r="4"/><circle class="cls-13" cx="254.6" cy="41" r="4"/><circle class="cls-13" cx="273.2" cy="27.1" r="3.6"/><circle class="cls-13" cx="273.2" cy="31.3" r="3.6"/><circle class="cls-13" cx="278.8" cy="28.9" r="3.6"/><circle class="cls-13" cx="279.1" cy="31.9" r="3.6"/><circle class="cls-13" cx="283.8" cy="31.1" r="3.6"/><circle class="cls-13" cx="284.7" cy="35.1" r="3.6"/><circle class="cls-13" cx="289" cy="39.6" r="3.6"/><circle class="cls-13" cx="267.4" cy="31.9" r="3.6"/><circle class="cls-13" cx="264.5" cy="30" r="3.6"/><circle class="cls-13" cx="268.7" cy="28.1" r="3.6"/><circle class="cls-13" cx="261.7" cy="35.1" r="3.6"/><circle class="cls-13" cx="257.5" cy="39.6" r="3.6"/><circle class="cls-13" cx="255.3" cy="46" r="3.6"/><path class="cls-18" d="M1565.3,1345.9H1556a6.9,6.9,0,0,0-2.8,1H1550a6.9,6.9,0,0,0-2.8-1h-10.6a6.3,6.3,0,0,0-2.1.3,2.4,2.4,0,0,0-.2,1,1.4,1.4,0,0,0,.2,1l0.4,0.2a0.7,0.7,0,0,1,.6.5c0.1,0.3.2,1.2,0.3,2.2s0.3,2.7.5,3,0.8,1.7,3.7,1.8h4.4l2.5-.2a4,4,0,0,0,2.5-2.7,19.8,19.8,0,0,1,1.6-3.5,0.9,0.9,0,0,1,.7-0.2,0.9,0.9,0,0,1,.7.2,22.4,22.4,0,0,1,1.6,3.5,4,4,0,0,0,2.5,2.7,9.3,9.3,0,0,0,2.5.2h4.4c3-.1,3.6-1.4,3.7-1.8s0.3-1.7.5-3l0.3-2.2a0.5,0.5,0,0,1,.5-0.4l0.5-.2a2.7,2.7,0,0,0,0-2c-0.1-.1-0.3-0.2-1.9-0.3h-1.6Zm-16.7,6.4-0.2.5a3.9,3.9,0,0,1-2.3,2.1l-2.9.2-3.5-.2c-1.6-.2-2.3-0.7-2.5-1.5s-0.2-3.2-.3-5.1a1.7,1.7,0,0,1,.4-0.9,1.9,1.9,0,0,1,1.2-.6c0.1,0,7.8.1,9,.3a2.2,2.2,0,0,1,2.1,1.4C1549.7,1349.4,1549,1351.1,1548.6,1352.3Zm17.5,1.2c-0.2.8-.9,1.2-2.5,1.5l-3.5.2-2.9-.2a3.9,3.9,0,0,1-2.3-2.1l-0.2-.5c-0.4-1.2-1.1-3-.9-3.7h0a2.1,2.1,0,0,1,2.1-1.4c1.2-.2,8.6-0.3,9-0.3a2,2,0,0,1,1.2.6,1.7,1.7,0,0,1,.4.9C1566.3,1350.3,1566.2,1353.2,1566.1,1353.5Z" transform="translate(-1278.3 -1302.2)"/><circle class="cls-19" cx="282.8" cy="58.4" r="3.1"/><circle class="cls-19" cx="263.9" cy="58.4" r="3.1"/><path class="cls-20" d="M1557.9,1425.3h-48.4a1.1,1.1,0,1,1,0-2.3h48.4A1.1,1.1,0,1,1,1557.9,1425.3Z" transform="translate(-1278.3 -1302.2)"/><rect class="cls-21" x="230" y="84.1" width="50.7" height="36.8" rx="2" ry="2"/><circle class="cls-22" cx="255.4" cy="101.3" r="4.1"/><path class="cls-23" d="M1547.5,1386.3h-37.1a2.1,2.1,0,0,0-2.1,2.1V1421a2.1,2.1,0,0,0,2.1,2.1h7.3A42.1,42.1,0,0,1,1547.5,1386.3Z" transform="translate(-1278.3 -1302.2)"/><g id="table"><path class="cls-24" d="M1594.4,1432.3h-93.2a3.6,3.6,0,0,1,0-7.2h93.2A3.6,3.6,0,0,1,1594.4,1432.3Z" transform="translate(-1278.3 -1302.2)"/></g><path class="cls-25" d="M1548.6,1418.4h43.7a0.4,0.4,0,0,1,0,.9h-14.6v5h14.6a0.4,0.4,0,0,1,0,.9h-43.7a1.7,1.7,0,0,1-1.7-1.7v-3.3A1.7,1.7,0,0,1,1548.6,1418.4Z" transform="translate(-1278.3 -1302.2)"/><path class="cls-26" d="M1547.7,1424h30v0.2h14.6a0.4,0.4,0,0,1,0,.9h-43.7a1.7,1.7,0,0,1-1.7-1.3Z" transform="translate(-1278.3 -1302.2)"/><path class="cls-27" d="M1547.7,1419.5h30v-0.2h14.6a0.4,0.4,0,0,0,0-.9h-43.7a1.7,1.7,0,0,0-1.7,1.3Z" transform="translate(-1278.3 -1302.2)"/><path class="cls-28" d="M1575,1423.4v-3.3a1.7,1.7,0,0,1,1.7-1.7h15.5a0.4,0.4,0,0,1,0,.9h-14.6v5h14.6a0.4,0.4,0,0,1,0,.9h-15.5A1.7,1.7,0,0,1,1575,1423.4Z" transform="translate(-1278.3 -1302.2)"/><path class="cls-29" d="M1577.2,1419.2h15a8.1,8.1,0,0,0,0,5h-15a1.1,1.1,0,0,1-1.1-1.1v-2.8A1.1,1.1,0,0,1,1577.2,1419.2Z" transform="translate(-1278.3 -1302.2)"/><path class="cls-30" d="M1577.2,1419.2h15v0.4h-14.7a1.1,1.1,0,0,0-1.1,1.1v3a1.1,1.1,0,0,1-.2-0.6v-2.8A1.1,1.1,0,0,1,1577.2,1419.2Z" transform="translate(-1278.3 -1302.2)"/><path class="cls-31" d="M1576,1423.1v-2.8a1.1,1.1,0,0,1,.4-0.9,8.1,8.1,0,0,1,0,4.5A1.1,1.1,0,0,1,1576,1423.1Z" transform="translate(-1278.3 -1302.2)"/><path class="cls-32" d="M1551.2,1411.6h44.6a0.4,0.4,0,0,1,0,.9h-14.6v5h14.6a0.4,0.4,0,0,1,0,.9h-44.6a1.7,1.7,0,0,1-1.7-1.7v-3.3A1.7,1.7,0,0,1,1551.2,1411.6Z" transform="translate(-1278.3 -1302.2)"/><path class="cls-33" d="M1550.3,1417.3h30.8v0.2h14.6a0.4,0.4,0,0,1,0,.9h-44.6a1.7,1.7,0,0,1-1.7-1.3Z" transform="translate(-1278.3 -1302.2)"/><path class="cls-33" d="M1578.5,1416.7v-3.3a1.7,1.7,0,0,1,1.7-1.7h15.5a0.4,0.4,0,0,1,0,.9h-14.6v5h14.6a0.4,0.4,0,0,1,0,.9h-15.5A1.7,1.7,0,0,1,1578.5,1416.7Z" transform="translate(-1278.3 -1302.2)"/><path class="cls-29" d="M1580.6,1412.5h15a8.1,8.1,0,0,0,0,5h-15a1.1,1.1,0,0,1-1.1-1.1v-2.8A1.1,1.1,0,0,1,1580.6,1412.5Z" transform="translate(-1278.3 -1302.2)"/><path class="cls-30" d="M1580.6,1412.5h15v0.4h-14.7a1.1,1.1,0,0,0-1.1,1.1v3a1.1,1.1,0,0,1-.2-0.6v-2.8A1.1,1.1,0,0,1,1580.6,1412.5Z" transform="translate(-1278.3 -1302.2)"/><path class="cls-31" d="M1579.5,1416.4v-2.8a1.1,1.1,0,0,1,.4-0.9,8.1,8.1,0,0,1,0,4.5A1.1,1.1,0,0,1,1579.5,1416.4Z" transform="translate(-1278.3 -1302.2)"/><path class="cls-4" d="M1586.5,1403.6h-37.1a0.5,0.5,0,0,0,0,1h11.8v6h-11.8a0.5,0.5,0,0,0,0,1h37.1a1.9,1.9,0,0,0,1.7-2v-3.9A1.9,1.9,0,0,0,1586.5,1403.6Z" transform="translate(-1278.3 -1302.2)"/><path class="cls-34" d="M1587.4,1410.3h-26.2v0.3h-11.8a0.5,0.5,0,0,0,0,1h37.1a1.8,1.8,0,0,0,1.7-1.5Z" transform="translate(-1278.3 -1302.2)"/><path class="cls-35" d="M1584.4,1404.9h-9.6a1.7,1.7,0,0,0-1.6-1.3h9.6A1.7,1.7,0,0,1,1584.4,1404.9Z" transform="translate(-1278.3 -1302.2)"/><path class="cls-35" d="M1574.8,1404.9h-13.6v-0.3h-11.8a0.5,0.5,0,0,1,0-1h23.8A1.7,1.7,0,0,1,1574.8,1404.9Z" transform="translate(-1278.3 -1302.2)"/><path class="cls-35" d="M1588.1,1405.1l-0.8-.2h-3a1.7,1.7,0,0,0-1.6-1.3h3.7A1.8,1.8,0,0,1,1588.1,1405.1Z" transform="translate(-1278.3 -1302.2)"/><path class="cls-35" d="M1563.8,1409.6v-3.9a1.9,1.9,0,0,0-1.7-2h-12.7a0.5,0.5,0,0,0,0,1h11.8v6h-11.8a0.5,0.5,0,0,0,0,1h12.7A1.9,1.9,0,0,0,1563.8,1409.6Z" transform="translate(-1278.3 -1302.2)"/><path class="cls-3" d="M1561.6,1404.6h-12.2a11.2,11.2,0,0,1,0,6h12.2a1.3,1.3,0,0,0,1.1-1.3V1406A1.3,1.3,0,0,0,1561.6,1404.6Z" transform="translate(-1278.3 -1302.2)"/><path class="cls-30" d="M1561.6,1404.6h-12.2v0.5h11.9a1.3,1.3,0,0,1,1.1,1.3v3.5a1.5,1.5,0,0,0,.2-0.8V1406A1.3,1.3,0,0,0,1561.6,1404.6Z" transform="translate(-1278.3 -1302.2)"/><path class="cls-31" d="M1562.8,1409.2V1406a1.4,1.4,0,0,0-.4-1,11.3,11.3,0,0,0,0,5.3A1.4,1.4,0,0,0,1562.8,1409.2Z" transform="translate(-1278.3 -1302.2)"/><path class="cls-36" d="M1589.6,1396.9h-38.5a0.4,0.4,0,0,0,0,.9h14.6v5h-14.6a0.4,0.4,0,0,0,0,.9h38.5a1.7,1.7,0,0,0,1.7-1.7v-3.3A1.7,1.7,0,0,0,1589.6,1396.9Z" transform="translate(-1278.3 -1302.2)"/><path class="cls-22" d="M1582.2,1396.9h-1a1.7,1.7,0,0,1,1.7,1.7v3.3a1.7,1.7,0,0,1-1.7,1.7h1a1.7,1.7,0,0,0,1.7-1.7v-3.3A1.7,1.7,0,0,0,1582.2,1396.9Z" transform="translate(-1278.3 -1302.2)"/><path class="cls-22" d="M1587.4,1396.9h-3.9a1.7,1.7,0,0,1,1.7,1.7v3.3a1.7,1.7,0,0,1-1.7,1.7h3.9a1.7,1.7,0,0,0,1.7-1.7v-3.3A1.7,1.7,0,0,0,1587.4,1396.9Z" transform="translate(-1278.3 -1302.2)"/><path class="cls-26" d="M1590.5,1402.5h-24.8v0.2h-14.6a0.4,0.4,0,0,0,0,.9h38.5a1.7,1.7,0,0,0,1.7-1.3Z" transform="translate(-1278.3 -1302.2)"/><path class="cls-37" d="M1590.5,1398h-24.8v-0.2h-14.6a0.4,0.4,0,0,1,0-.9h38.5a1.7,1.7,0,0,1,1.7,1.3Z" transform="translate(-1278.3 -1302.2)"/><path class="cls-37" d="M1568.4,1401.9v-3.3a1.7,1.7,0,0,0-1.7-1.7h-15.5a0.4,0.4,0,0,0,0,.9h14.6v5h-14.6a0.4,0.4,0,0,0,0,.9h15.5A1.7,1.7,0,0,0,1568.4,1401.9Z" transform="translate(-1278.3 -1302.2)"/><path class="cls-3" d="M1566.2,1397.7h-15a8.1,8.1,0,0,1,0,5h15a1.1,1.1,0,0,0,1.1-1.1v-2.8A1.1,1.1,0,0,0,1566.2,1397.7Z" transform="translate(-1278.3 -1302.2)"/><path class="cls-30" d="M1566.2,1397.7h-15v0.4h14.7a1.1,1.1,0,0,1,1.1,1.1v3a1.1,1.1,0,0,0,.2-0.6v-2.8A1.1,1.1,0,0,0,1566.2,1397.7Z" transform="translate(-1278.3 -1302.2)"/><path class="cls-31" d="M1567.4,1401.6v-2.8a1.1,1.1,0,0,0-.4-0.9,8.1,8.1,0,0,0,0,4.5A1.1,1.1,0,0,0,1567.4,1401.6Z" transform="translate(-1278.3 -1302.2)"/><path class="cls-38" d="M1582.2,1396.9h-1a1.7,1.7,0,0,1,1.6,1.1h1A1.7,1.7,0,0,0,1582.2,1396.9Z" transform="translate(-1278.3 -1302.2)"/><path class="cls-38" d="M1587.4,1396.9h-3.9a1.7,1.7,0,0,1,1.6,1.1h3.9A1.7,1.7,0,0,0,1587.4,1396.9Z" transform="translate(-1278.3 -1302.2)"/></g><circle class="cls-7" cx="1600" cy="1411.8" r="15" transform="translate(-1124.9 1678.3) rotate(-88.7)"/><path class="cls-39" d="M1594.1,1415H1594l-1.9-1H1592l-1.9,1H1590v-0.3l0.3-2h0l-1.6-1.5h0.4l1.4-.2h0.4l0.9-1.9h0.1l1,2h0.1l2.2,0.3h0l-1.6,1.5h0l0.4,2.2h0Z" transform="translate(-1278.3 -1302.2)"/><path class="cls-39" d="M1602,1415H1602l-1.9-1h-0.1l-1.9,1h-0.1v-0.3l0.3-2h0l-1.6-1.5h0.4l1.4-.2h0.4l0.9-1.9h0.1l1,2h0.1l2.2,0.3h0l-1.6,1.5h0l0.4,2.2h0Z" transform="translate(-1278.3 -1302.2)"/><path class="cls-39" d="M1609.9,1415h-0.1l-1.9-1h-0.1l-1.9,1h-0.1v-0.3l0.3-2h0l-1.6-1.5h0.4l1.4-.2h0.4l0.9-1.9h0.1l1,2h0.1l2.2,0.3h0l-1.6,1.5h0l0.4,2.2h0Z" transform="translate(-1278.3 -1302.2)"/><circle class="cls-7" cx="66.7" cy="66.7" r="66.2"/><g class="cls-40"><rect class="cls-9" x="56.5" y="78.4" width="20" height="8.49"/><polygon class="cls-10" points="77.3 80.9 74.7 79.8 74.7 71.6 58.3 71.6 58.3 79.8 55.8 80.9 56.5 103.9 58.3 103.9 58.3 107.4 74.7 107.4 74.7 103.9 76.6 103.9 77.3 80.9"/><polygon class="cls-11" points="58.3 71.6 58.3 76.8 74.7 79.2 74.7 71.6 58.3 71.6"/><path class="cls-12" d="M1362.9,1349.7l0.6-7.2c0-9.4-9-17.1-18.4-17.1s-18.4,7.6-18.4,17.1l0.6,7.2a3.3,3.3,0,0,0-1.4.7,3.4,3.4,0,0,0-1.2,2.6v3.6a3.4,3.4,0,0,0,3.4,3.4c0,8.9,10.7,17.3,17.1,17.3s17.1-8.4,17.1-17.3a3.4,3.4,0,0,0,3.4-3.4V1353A3.4,3.4,0,0,0,1362.9,1349.7Z" transform="translate(-1278.3 -1302.2)"/><path class="cls-10" d="M1362.9,1349.7l0.6-7.2c0-9.4-9-17.1-18.4-17.1h0V1350a71.2,71.2,0,0,0-4.1,13h4.1v14.4h0c6.4,0,17.1-8.4,17.1-17.3a3.4,3.4,0,0,0,3.4-3.4V1353A3.4,3.4,0,0,0,1362.9,1349.7Z" transform="translate(-1278.3 -1302.2)"/><path class="cls-13" d="M1339.4,1367H1350a0.4,0.4,0,0,1,.3.6c-0.8.7-2.6,0.5-5.8,0.5s-4.7.2-5.4-.5A0.4,0.4,0,0,1,1339.4,1367Z" transform="translate(-1278.3 -1302.2)"/><path class="cls-13" d="M1350.5,1350.2a0.6,0.6,0,0,1,.6.6c0,0.3.7,0.8,1.8,0.8s1.8-.5,1.8-0.8a0.6,0.6,0,0,1,1.3,0c0,1.2-1.4,2.1-3.1,2.1s-3.1-.9-3.1-2.1A0.6,0.6,0,0,1,1350.5,1350.2Z" transform="translate(-1278.3 -1302.2)"/><path class="cls-13" d="M1333.3,1350.2a0.6,0.6,0,0,1,.6.6c0,0.3.7,0.8,1.8,0.8s1.8-.5,1.8-0.8a0.6,0.6,0,0,1,1.3,0c0,1.2-1.4,2.1-3.1,2.1s-3.1-.9-3.1-2.1A0.6,0.6,0,0,1,1333.3,1350.2Z" transform="translate(-1278.3 -1302.2)"/><path class="cls-3" d="M1333.9,1383.2l0.6,2.3c1.1,3,3.8,3.8,10.2,3.8s10-2.1,10.9-4.9l0.3-1.2c13.3,5,9.2,46.8,9.2,46.8v34.7h-41.8l0.6-34.7S1320.5,1388.2,1333.9,1383.2Z" transform="translate(-1278.3 -1302.2)"/><path class="cls-3" d="M1344.8,1389.1l5,5.3,8.6-10.3-5.4-2.7-2,1.9Z" transform="translate(-1278.3 -1302.2)"/><polygon class="cls-3" points="58.3 79.2 66.5 86.9 61.5 92.2 52.9 81.9 58.3 79.2"/><path class="cls-14" d="M1389.4,1429.9a18.4,18.4,0,0,0-.1-11.7c-2.5-7.3-7.2-22.8-8.6-25.7-3-6.5-12.6-6.2-24.5-10.4l-1.3-.5h0c-0.7,4.1-10,45.8-10,45.8s-9.3-41.7-10-45.8h0l-1.3.5c-12,4.1-21.6,3.9-24.5,10.4-1.3,2.9-6.1,18.4-8.6,25.7a18.4,18.4,0,0,0-.1,11.7c2.7,8.4,8.4,19.8,10.8,23.4s6,4.4,8.7,3.5c-0.4,1.7-3,9.4-3,9.4h55.5c0.4,0-2.3-7.6-2.7-9.4,2.7,0.9,6.5-.3,8.7-3.5S1386.6,1438.3,1389.4,1429.9Z" transform="translate(-1278.3 -1302.2)"/><polygon class="cls-15" points="83.4 81.9 83.2 89.8 79.3 93 82.3 97.1 66.6 124.9 76.5 78.4 83.4 81.9"/><polygon class="cls-15" points="49.6 81.9 49.9 89.8 53.8 93 50.8 97.1 66.4 124.9 56.5 78.4 49.6 81.9"/><path class="cls-16" d="M1344.4,1348" transform="translate(-1278.3 -1302.2)"/><path class="cls-16" d="M1344.4,1348" transform="translate(-1278.3 -1302.2)"/><path class="cls-17" d="M1344.4,1348" transform="translate(-1278.3 -1302.2)"/><circle class="cls-13" cx="66.2" cy="22.4" r="4"/><circle class="cls-13" cx="72.5" cy="23.3" r="4"/><circle class="cls-13" cx="77.9" cy="25.6" r="4"/><circle class="cls-13" cx="1360.6" cy="1331.9" r="4" transform="translate(-1269.2 1370.8) rotate(-89.2)"/><circle class="cls-13" cx="84.8" cy="34.4" r="4"/><circle class="cls-13" cx="85.6" cy="41" r="4"/><circle class="cls-13" cx="84.8" cy="45.7" r="3.6"/><circle class="cls-13" cx="84.9" cy="46" r="3.6"/><circle class="cls-13" cx="60.8" cy="23.3" r="4"/><circle class="cls-13" cx="55.4" cy="25.6" r="4"/><circle class="cls-13" cx="1329.2" cy="1331.9" r="4" transform="translate(-1297.5 -1282.8) rotate(-0.8)"/><circle class="cls-13" cx="48.5" cy="34.4" r="4"/><circle class="cls-13" cx="47.6" cy="41" r="4"/><circle class="cls-13" cx="66.2" cy="27.1" r="3.6"/><circle class="cls-13" cx="66.2" cy="31.3" r="3.6"/><circle class="cls-13" cx="71.8" cy="28.9" r="3.6"/><circle class="cls-13" cx="72.1" cy="31.9" r="3.6"/><circle class="cls-13" cx="76.8" cy="31.1" r="3.6"/><circle class="cls-13" cx="77.8" cy="35.1" r="3.6"/><circle class="cls-13" cx="82" cy="39.6" r="3.6"/><circle class="cls-13" cx="60.4" cy="31.9" r="3.6"/><circle class="cls-13" cx="57.5" cy="30" r="3.6"/><circle class="cls-13" cx="61.7" cy="28.1" r="3.6"/><circle class="cls-13" cx="54.8" cy="35.1" r="3.6"/><circle class="cls-13" cx="50.5" cy="39.6" r="3.6"/><circle class="cls-13" cx="48.3" cy="46" r="3.6"/><path class="cls-18" d="M1358.3,1345.9H1349a6.9,6.9,0,0,0-2.8,1h-3.2a6.9,6.9,0,0,0-2.8-1h-10.6a6.3,6.3,0,0,0-2.1.3,2.4,2.4,0,0,0-.2,1,1.4,1.4,0,0,0,.2,1l0.4,0.2a0.7,0.7,0,0,1,.6.5c0.1,0.3.2,1.2,0.3,2.2s0.3,2.7.5,3,0.8,1.7,3.7,1.8h4.4l2.5-.2a4,4,0,0,0,2.5-2.7,19.8,19.8,0,0,1,1.6-3.5,0.9,0.9,0,0,1,.7-0.2,0.9,0.9,0,0,1,.7.2,22.4,22.4,0,0,1,1.6,3.5,4,4,0,0,0,2.5,2.7,9.3,9.3,0,0,0,2.5.2h4.4c3-.1,3.6-1.4,3.7-1.8s0.3-1.7.5-3l0.3-2.2a0.5,0.5,0,0,1,.5-0.4l0.5-.2a2.7,2.7,0,0,0,0-2c-0.1-.1-0.3-0.2-1.9-0.3h-1.6Zm-16.7,6.4-0.2.5a3.9,3.9,0,0,1-2.3,2.1l-2.9.2-3.5-.2c-1.6-.2-2.3-0.7-2.5-1.5s-0.2-3.2-.3-5.1a1.7,1.7,0,0,1,.4-0.9,1.9,1.9,0,0,1,1.2-.6c0.1,0,7.8.1,9,.3a2.2,2.2,0,0,1,2.1,1.4C1342.7,1349.4,1342.1,1351.1,1341.6,1352.3Zm17.5,1.2c-0.2.8-.9,1.2-2.5,1.5l-3.5.2-2.9-.2a3.9,3.9,0,0,1-2.3-2.1l-0.2-.5c-0.4-1.2-1.1-3-.9-3.7h0a2.1,2.1,0,0,1,2.1-1.4c1.2-.2,8.6-0.3,9-0.3a2,2,0,0,1,1.2.6,1.7,1.7,0,0,1,.4.9C1359.3,1350.3,1359.2,1353.2,1359.1,1353.5Z" transform="translate(-1278.3 -1302.2)"/><circle class="cls-19" cx="75.9" cy="58.4" r="3.1"/><circle class="cls-19" cx="56.9" cy="58.4" r="3.1"/><path class="cls-20" d="M1350.8,1425.3h-48.4a1.1,1.1,0,1,1,0-2.3h48.4A1.1,1.1,0,1,1,1350.8,1425.3Z" transform="translate(-1278.3 -1302.2)"/><rect class="cls-21" x="22.9" y="84.1" width="50.7" height="36.8" rx="2" ry="2"/><circle class="cls-22" cx="48.3" cy="101.3" r="4.1"/><path class="cls-23" d="M1340.4,1386.3h-37.1a2.1,2.1,0,0,0-2.1,2.1V1421a2.1,2.1,0,0,0,2.1,2.1h7.3A42.1,42.1,0,0,1,1340.4,1386.3Z" transform="translate(-1278.3 -1302.2)"/><g id="table-2" data-name="table"><path class="cls-24" d="M1387.4,1432.3h-93.2a3.6,3.6,0,0,1,0-7.2h93.2A3.6,3.6,0,0,1,1387.4,1432.3Z" transform="translate(-1278.3 -1302.2)"/></g><path class="cls-25" d="M1341.5,1418.4h43.7a0.4,0.4,0,1,1,0,.9h-14.6v5h14.6a0.4,0.4,0,1,1,0,.9h-43.7a1.7,1.7,0,0,1-1.7-1.7v-3.3A1.7,1.7,0,0,1,1341.5,1418.4Z" transform="translate(-1278.3 -1302.2)"/><path class="cls-26" d="M1340.6,1424h30v0.2h14.6a0.4,0.4,0,1,1,0,.9h-43.7a1.7,1.7,0,0,1-1.7-1.3Z" transform="translate(-1278.3 -1302.2)"/><path class="cls-27" d="M1340.6,1419.5h30v-0.2h14.6a0.4,0.4,0,1,0,0-.9h-43.7a1.7,1.7,0,0,0-1.7,1.3Z" transform="translate(-1278.3 -1302.2)"/><path class="cls-28" d="M1368,1423.4v-3.3a1.7,1.7,0,0,1,1.7-1.7h15.5a0.4,0.4,0,1,1,0,.9h-14.6v5h14.6a0.4,0.4,0,1,1,0,.9h-15.5A1.7,1.7,0,0,1,1368,1423.4Z" transform="translate(-1278.3 -1302.2)"/><path class="cls-29" d="M1370.1,1419.2h15a8.1,8.1,0,0,0,0,5h-15a1.1,1.1,0,0,1-1.1-1.1v-2.8A1.1,1.1,0,0,1,1370.1,1419.2Z" transform="translate(-1278.3 -1302.2)"/><path class="cls-30" d="M1370.1,1419.2h15v0.4h-14.7a1.1,1.1,0,0,0-1.1,1.1v3a1.1,1.1,0,0,1-.2-0.6v-2.8A1.1,1.1,0,0,1,1370.1,1419.2Z" transform="translate(-1278.3 -1302.2)"/><path class="cls-31" d="M1369,1423.1v-2.8a1.1,1.1,0,0,1,.4-0.9,8.1,8.1,0,0,1,0,4.5A1.1,1.1,0,0,1,1369,1423.1Z" transform="translate(-1278.3 -1302.2)"/></g><circle class="cls-7" cx="1394.4" cy="1411.8" r="15" transform="translate(-1326 1472.8) rotate(-88.7)"/><path class="cls-41" d="M1388.5,1415h-0.1l-1.9-1h-0.1l-1.9,1h-0.1v-0.3l0.3-2h0l-1.6-1.5h0.4l1.4-.2h0.4l0.9-1.9h0.1l1,2h0.1l2.2,0.3h0l-1.6,1.5h0l0.4,2.2h0Z" transform="translate(-1278.3 -1302.2)"/><path class="cls-41" d="M1396.4,1415h-0.1l-1.9-1h-0.1l-1.9,1h-0.1v-0.3l0.3-2h0l-1.6-1.5h0.4l1.4-.2h0.4l0.9-1.9h0.1l1,2h0.1l2.2,0.3h0l-1.6,1.5h0l0.4,2.2h0Z" transform="translate(-1278.3 -1302.2)"/><path class="cls-39" d="M1404.3,1415h-0.1l-1.9-1h-0.1l-1.9,1h-0.1v-0.3l0.3-2h0l-1.6-1.5h0.4l1.4-.2h0.4l0.9-1.9h0.1l1,2h0.1l2.2,0.3h0l-1.6,1.5h0l0.4,2.2h0Z" transform="translate(-1278.3 -1302.2)"/></svg>