<svg id="Grid" xmlns="http://www.w3.org/2000/svg" viewBox="0 0 123.6 123.6"><defs><style>.cls-1{fill:#005680;}.cls-2{fill:#7fcfff;}.cls-3{fill:#007ca9;}.cls-4{fill:#00adff;}</style></defs><title>crowdsale token distribution</title><path class="cls-1" d="M1445.2,3948a49.6,49.6,0,0,1,2.4-15.3l-11.6-3.8a61.8,61.8,0,0,0,22.1,68.8l7.2-9.8A49.6,49.6,0,0,1,1445.2,3948Z" transform="translate(-1433 -3886.2)"/><path class="cls-2" d="M1465.6,3907.9l-7.2-9.8a61.9,61.9,0,0,0-22.4,30.8l11.6,3.8A49.8,49.8,0,0,1,1465.6,3907.9Z" transform="translate(-1433 -3886.2)"/><path class="cls-3" d="M1494.8,3898.3h0v-12.2h0a61.5,61.5,0,0,0-36.4,11.9l7.2,9.8A49.4,49.4,0,0,1,1494.8,3898.3Z" transform="translate(-1433 -3886.2)"/><path class="cls-4" d="M1494.8,3886.2v12.2a49.7,49.7,0,1,1-29.5,89.6l-7.2,9.8A61.8,61.8,0,1,0,1494.8,3886.2Z" transform="translate(-1433 -3886.2)"/></svg>