<svg id="Grid" xmlns="http://www.w3.org/2000/svg" viewBox="0 0 123.6 123.6"><defs><style>.cls-1{fill:#31577e;}.cls-2{fill:#99cdfc;}.cls-3{fill:#467ba5;}.cls-4{fill:#61aafb;}</style></defs><title>GRAFICO 40 40 10 10</title><path class="cls-1" d="M2425.2,9548.8V9561a49.7,49.7,0,1,1-29.5,89.6h0a49.7,49.7,0,0,1-17.8-55.3l-11.6-3.8a61.8,61.8,0,0,0,22,68.8h0A61.8,61.8,0,1,0,2425.2,9548.8Z" transform="translate(-2363.4 -9548.8)"/><path class="cls-2" d="M2395.9,9570.5l-7.2-9.8a61.9,61.9,0,0,0-22.4,30.8l11.6,3.8A49.7,49.7,0,0,1,2395.9,9570.5Z" transform="translate(-2363.4 -9548.8)"/><path class="cls-3" d="M2425.2,9561h0v-12.2h0a61.5,61.5,0,0,0-36.4,11.9l7.2,9.8A49.4,49.4,0,0,1,2425.2,9561Z" transform="translate(-2363.4 -9548.8)"/><path class="cls-4" d="M2425.2,9548.8V9561a49.7,49.7,0,0,1,29.4,89.6l7.2,9.8A61.8,61.8,0,0,0,2425.2,9548.8Z" transform="translate(-2363.4 -9548.8)"/></svg>