<svg id="Grid" xmlns="http://www.w3.org/2000/svg" viewBox="0 0 71 71"><defs><style>.cls-1{fill:none;stroke:#0088b2;stroke-linecap:round;stroke-linejoin:round;}</style></defs><title>transactioned</title><circle class="cls-1" cx="35.5" cy="35.5" r="35"/><line class="cls-1" x1="29" y1="34.6" x2="36.1" y2="34.6"/><line class="cls-1" x1="29" y1="37" x2="35.7" y2="37"/><path class="cls-1" d="M852.5,2559.9a4.6,4.6,0,0,0-4-2.6c-2.6,0-4.8,2.5-4.8,5.6s2.1,5.6,4.8,5.6a4.6,4.6,0,0,0,4-2.6" transform="translate(-813.1 -2527.5)"/><path class="cls-1" d="M863.4,2572a17.4,17.4,0,0,0-23.9-23.9" transform="translate(-813.1 -2527.5)"/><path class="cls-1" d="M833.1,2555a17.4,17.4,0,0,0,23.4,23.4" transform="translate(-813.1 -2527.5)"/><polyline class="cls-1" points="32 23.4 26.5 20.6 29.3 15.2"/><polyline class="cls-1" points="38.5 48.1 44 50.9 41.2 56.4"/></svg>