<svg id="Layer_1" data-name="Layer 1" xmlns="http://www.w3.org/2000/svg" viewBox="0 0 670.5 178.5"><defs><style>.cls-1,.cls-2{fill:#fff;}.cls-2{fill-rule:evenodd;}</style></defs><title>logo ico blanco</title><path class="cls-1" d="M1193.1,197.1c-0.6-.7-1.9-1.4-12.3-2-0.5-5.3-1.8-14.4-5.5-28.3-6.6-25-17.5-44.9-32.6-59s-36.2-22.2-63-23.8h-3.5c-17.6,0-36.8,7.9-49.8,13.9a17.3,17.3,0,0,1-7.3,1.7c-9.1,0-15.3-8.1-15.3-8.2l-2.4-3.2,0.4,3.9c0,0.1.8,8.1,1.9,14.9a32.7,32.7,0,0,0,3.8,10.5c-6.8,7.1-12.7,13.5-18.9,35-4.5,15.5-5.9,34.7-6.3,42.7-8.2.5-12.9,1.2-13.8,2s-1.5,5.3-1.5,6.6c-0.2,3.4.2,5.5,1.1,6.4a7,7,0,0,0,2.8,1.4c1.7,0.6,3.3,1.1,3.7,3s1.2,8.1,2,14.4c1.1,8.8,2.3,17.8,3,19.9s5.1,10.9,24.5,11.8c9.3,0.4,19.9.8,28.6,0.8s14.1-.4,16.6-1.2,11.6-3.9,16.6-17.8c3.8-10.5,7.2-18.2,10.2-23,0.4-.7,2.1-1.4,4.6-1.4s4.3,0.7,4.7,1.4c2.9,4.8,6.3,12.5,10.2,23,5.1,13.9,13.8,16.8,16.6,17.8s8,1.2,16.6,1.2h0c8.7,0,19.3-.4,28.6-0.8,19.4-.8,23.7-9.2,24.5-11.8s1.8-11.1,3-20c0.8-6.2,1.6-12.1,2-14.4s1.7-2.2,3.4-2.8a7.5,7.5,0,0,0,3.1-1.6C1195.6,207.7,1194.1,198.4,1193.1,197.1Zm-98.1,15.4c1.4-5.2,5.9-8.4,13.5-9.4s56.4-1.8,59-1.9c0.7,0.1,5.4.9,7.6,3.8a11.3,11.3,0,0,1,2.4,6.1c-0.5,12.5-1.5,31.8-1.9,33.6-1.3,5.5-5.8,8.2-16.2,9.8-4.5.7-13.4,1.1-23.1,1.1s-17.1-.4-19.3-1.1c-4.5-1.4-12.3-6.8-14.9-14.1l-1.3-3.6C1098,228.9,1093.7,217,1094.9,212.5Zm-104-17.9c0.5-4.7,1.2-12.2,2.5-21.7a89.8,89.8,0,0,1,14.2-38.6c1.6-2.3,4.5-4.5,8.6-6.5,6,5,13.8,8.6,23.3,10.7a41.8,41.8,0,0,0,9.3,1c27.4,0,61.7-22.5,62-22.7a23,23,0,0,1,8.4-1.6,16,16,0,0,1,9.2,2.7,96.8,96.8,0,0,1,29.6,34.1c7.1,14.2,10.8,34.2,12.1,42.7l-19.6-.2c-16.4,0-35.8.2-41.2,0.7-8.1.7-16.2,5.6-18.1,6.8h-21.1c-1.9-1.2-10-6.1-18.1-6.8-5.4-.5-24.8-0.7-41.2-0.7Zm69.6,42.2-1.3,3.6c-2.6,7.3-10.4,12.7-14.9,14.1-2.2.7-9.7,1.1-19.3,1.1s-18.6-.4-23.1-1.1c-10.4-1.6-14.9-4.3-16.2-9.8-0.4-1.7-1.3-21-1.9-33.5a11.3,11.3,0,0,1,2.4-6.2c2.2-2.8,7-3.7,7.6-3.7s51.3,0.8,59,1.9,12.1,4.3,13.5,9.4S1063.4,228.9,1060.5,236.7Z" transform="translate(-966.9 -83.7)"/><path class="cls-1" d="M1011.7,237.8v-23a1.3,1.3,0,0,1,1.8-1.1l23,11.3a1.3,1.3,0,0,1,0,2.3l-23,11.7A1.3,1.3,0,0,1,1011.7,237.8Z" transform="translate(-966.9 -83.7)"/><path class="cls-1" d="M1127.5,237.8v-23a1.3,1.3,0,0,1,1.8-1.1l23,11.3a1.3,1.3,0,0,1,0,2.3l-23,11.7A1.3,1.3,0,0,1,1127.5,237.8Z" transform="translate(-966.9 -83.7)"/><path class="cls-1" d="M1414.3,238.5c0-19.5,9.7-78.9,9.7-81.4,0-16.2-13.8-20-26.8-20,11.2,24.3,2,58.7.5,90.4a2.2,2.2,0,0,0-.5,1.5c0,5.1-8.9,18.4-23.8,18.4-1.3,0-9.7.3-11.9-7,25.4,0,32.4-18.4,32.4-26.2,0-16.2-9.2-21.9-24.3-21.9-18.1,0-31.1,15.9-31.1,36.8a37.3,37.3,0,0,0,1.4,10.6c-2.8,2.6-5.8,4.8-8.7,4.8s-1.6-1.9-1.6-2.2c0-10.3,4.1-48.4,6.2-68.6,38.4-1.4,40.8-3,42.4-3.8,7.8-2.2,14.1-7.3,14.1-15.7a47.5,47.5,0,0,0-1.9-11.3l-1.6-5.7c-7.8,14.3-38.9,19.5-51.9,20.8-2.2-19.5-25.4-17-32.7-17,5.7,4.1,6.8,13.8,6.8,19.2-9.8,0-62.9-1.2-65.8-.9-2.2-19.5-24.5-18.3-31.8-18.3,5.7,4.1,6.8,13.8,6.8,19.2-15.4,0-30.3,7-30.3,13.2a10.3,10.3,0,0,0,4.1,8.1c6.5-8.6,17.6-7,26.2-7,4.3,53.8-3.5,84.6,10.5,82.4,10.3,0,17.8-7,22.3-13.5,1.9,9.3,6.6,15.9,17.1,15.9,6.5,0,13-3.2,18.6-8.4,0,5.1.8,10.5,9.7,10.5a22.3,22.3,0,0,0,5.1-.3,5.5,5.5,0,0,0,1.6-.5c-6.2-5.1,4.3-49.2,3.2-53.5,0-14.1-14.9-11.9-21.6-11.9,4.3,14.1,5.4,53.2-15.4,53.2-2.4,0-4.9,0-4.9-7.3a138.7,138.7,0,0,1,3-25.7c0.8-5.1,1.6-10.5,3-16.2,0-13.2-15.4-11.4-21.6-11.4,3.7,10.8-.2,32.2,1.1,48.7-3.4,3.5-7.7,7.8-11.7,7.8-1.9,0-1.6-1.9-1.6-2.2,0-10,4-48.2,6.2-68.9,13.1-5.3,58.1,1,65.9,1,4.3,53.8-3.5,84.6,10.5,82.4,9.3,0,16.2-5.7,20.9-11.5,4.3,7.4,12,11.5,22.9,11.5,14.6,0,27.3-3.5,32.3-16.9,1,10.9,6,22.3,18.2,22.3,1.9,0,3.2-.5,3.5-1.6s-1.4-2.2-2.2-3.2C1414.1,250.1,1414.3,240.4,1414.3,238.5Zm-56.7-12.2c0-15.1,4.3-21.4,10.5-21.4,4.3,0,6.8,4.3,6.8,9.5,0,9.7-9.7,13.2-17,15.4C1357.9,228.7,1357.6,227.7,1357.6,226.3Z" transform="translate(-966.9 -83.7)"/><path class="cls-1" d="M1423.8,137.1c12.2,26.5.3,64.9,0.3,98.6,0,11.9,4.6,26.5,18.4,26.5,1.9,0,3.2-.5,3.5-1.6s-1.4-2.2-2.2-3.2c-3.2-7.3-3-17-3-18.9,0-19.5,9.7-78.9,9.7-81.4,0-16.2-13.8-20-26.8-20h0Z" transform="translate(-966.9 -83.7)"/><path class="cls-1" d="M1507.3,207.1c0-14.1-14.9-11.9-21.6-11.9,4.3,14.1,5.4,53.2-15.4,53.2-2.4,0-4.9,0-4.9-7.3a138.6,138.6,0,0,1,3-25.7c0.8-5.1,1.6-10.5,3-16.2,0-13.2-15.4-11.4-21.6-11.4,6.5,19.2-10.5,71.4,19.2,71.4,6.5,0,13-3.2,18.6-8.4,0,5.1.8,10.5,9.7,10.5a22.3,22.3,0,0,0,5.1-.3,5.5,5.5,0,0,0,1.6-.5c-6.2-5.1,4.3-49.2,3.2-53.5h0Z" transform="translate(-966.9 -83.7)"/><path class="cls-2" d="M1559.2,216.3c-3.2,0-5.7.3-8.6,0.3-4.3-3.2-7.8-4.1-16.2-10.5,1.9-3,4.6-4.6,3.2-12.2-1.9-5.1-6.5-7-10.8-7-8.7,0-12.7,7-11.9,14.6,0,1.1.5,11.6,12.7,18.9-27.8,8.9-20,42.7,9.5,40.3,13.5-1.4,26.8-7.6,26.8-21.4a21.9,21.9,0,0,0-2.7-10.5c19.2,1.9,37,9.7,50.8,17.6a216.6,216.6,0,0,1,22.4,15.1c3-5.7,3.8-12.7.8-18.1-16.8-26.8-48.9-27-75.9-27h0Zm-33-21.1c0-.5.5-0.8,1.9-0.8,5.1,0,3.2,5.4,2.4,8.4a21.7,21.7,0,0,1-4.3-7.6h0Zm5.9,55.9c-3.2,0-10-4.1-9.2-11.4,0-2.7,2.4-8.1,18.1-10.3,7,9.7,3.5,23-8.9,21.6h0Z" transform="translate(-966.9 -83.7)"/><polygon class="cls-1" points="643.3 92.5 670.5 54.1 643.3 70.2 643.3 70.2 616.1 54.1 643.3 92.5 643.3 92.5 643.3 92.5 643.3 92.5 643.3 92.5"/><polygon class="cls-1" points="643.3 61.4 670.5 45.3 643.3 0.2 643.3 0.2 643.3 0.2 643.3 0.2 643.3 0.2 616.1 45.3 643.3 61.4 643.3 61.4 643.3 61.4 643.3 61.4"/></svg>