<svg id="Grid" xmlns="http://www.w3.org/2000/svg" viewBox="0 0 30 34.7"><defs><style>.cls-1{fill:#8eba17;}</style></defs><title>android</title><path class="cls-1" d="M460.2,5721a2.1,2.1,0,0,1,2.1,2.1v9a2.1,2.1,0,0,1-4.2,0v-9a2.1,2.1,0,0,1,2.1-2.1h0Z" transform="translate(-449.9 -5699.6)"/><path class="cls-1" d="M455.4,5710.2v13.9a2.6,2.6,0,0,0,2.6,2.6h13.9a2.6,2.6,0,0,0,2.6-2.6v-13.9h-19Z" transform="translate(-449.9 -5699.6)"/><path class="cls-1" d="M471.4,5706l-0.6-.2a1.3,1.3,0,0,1-.5-1.8l2.2-3.8a1.3,1.3,0,0,1,2.2,1.3l-2.2,3.8A1.3,1.3,0,0,1,471.4,5706Zm-13,0a1.3,1.3,0,0,1-1.1-.6l-2.2-3.8a1.3,1.3,0,0,1,2.2-1.3l2.2,3.8a1.3,1.3,0,0,1-.5,1.8Z" transform="translate(-449.9 -5699.6)"/><path class="cls-1" d="M452,5711.4a2.1,2.1,0,0,0-2.1,2.1v9a2.1,2.1,0,1,0,4.2,0v-9A2.1,2.1,0,0,0,452,5711.4Z" transform="translate(-449.9 -5699.6)"/><path class="cls-1" d="M469.7,5721h0a2.1,2.1,0,0,0-2.1,2.1v9a2.1,2.1,0,1,0,4.2,0v-9A2.1,2.1,0,0,0,469.7,5721Z" transform="translate(-449.9 -5699.6)"/><path class="cls-1" d="M466,5701.2h-2.1c-4.7.5-8.3,3.9-8.4,8.1h18.9C474.3,5705.1,470.7,5701.7,466,5701.2Zm-3.9,4.3a1.1,1.1,0,0,1-2.2,0h0a1.1,1.1,0,0,1,2.2,0h0Zm8.1,0a1.1,1.1,0,0,1-2.2,0h0a1.1,1.1,0,0,1,2.2,0h0Z" transform="translate(-449.9 -5699.6)"/><path class="cls-1" d="M477.8,5711.4a2.1,2.1,0,0,0-2.1,2.1v9a2.1,2.1,0,1,0,4.2,0v-9A2.1,2.1,0,0,0,477.8,5711.4Z" transform="translate(-449.9 -5699.6)"/></svg>