<svg id="Grid" xmlns="http://www.w3.org/2000/svg" viewBox="0 0 88.4 28.1"><defs><style>.cls-1{fill:#efc71d;}.cls-2{fill:#5ea85a;}.cls-3{fill:#cc2539;}.cls-4{fill:#fdfdfd;}.cls-5{fill:#4cb649;}.cls-6{fill:#de2227;}.cls-7{fill:#dc0003;}.cls-8{fill:#0c5a93;}.cls-9{fill:#abaead;}</style></defs><title>chrome</title><path class="cls-1" d="M625.3,5730.9h-1.4l0.6-1,5.3-8.7h0.1a6.2,6.2,0,0,0,1.4-4.5,5.9,5.9,0,0,0-.8-2.6,6.2,6.2,0,0,0-4.4-3h-0.5l11.9,0.2h0.4a14.1,14.1,0,0,1,.9,2.4,13.9,13.9,0,0,1,.4,2.8,14.1,14.1,0,0,1-.5,4.5,13.9,13.9,0,0,1-1.8,4,14.1,14.1,0,0,1-8.2,5.9l-2.6.4h-0.7Z" transform="translate(-611.2 -5702.9)"/><path class="cls-2" d="M629.8,5721h0l-5.3,8.7-0.6,1h-0.4l-2.4-.5a14,14,0,0,1-9.6-10.7,14.6,14.6,0,0,1-.2-2.1,4.3,4.3,0,0,0,0-.5v-0.6a3.9,3.9,0,0,0,0-.5v-0.2h0v-0.4a14,14,0,0,1,1.9-5.5l0.5-.8,0.8,1.4,4.6,8.3h0.1a6.3,6.3,0,0,0,10.1,2.8Z" transform="translate(-611.2 -5702.9)"/><path class="cls-3" d="M613.7,5708.9l0.5-.7a14.1,14.1,0,0,1,7.2-4.8l2.5-.5h2.6a14,14,0,0,1,11.3,7.9h-0.3l-11.9-.2h-0.9a6,6,0,0,0-2.5.8,6.2,6.2,0,0,0-3.1,4.5v0.6h0v0.5h0a6.1,6.1,0,0,0,.1.9v0.5h0l-4.6-8.3Z" transform="translate(-611.2 -5702.9)"/><path class="cls-4" d="M618.9,5716.5v-0.6a6.2,6.2,0,0,1,3.1-4.5,6,6,0,0,1,2.5-.8h1.4a6.2,6.2,0,0,1,4.4,3,5.9,5.9,0,0,1,.8,2.6,6.2,6.2,0,0,1-1.4,4.5h-0.1l-0.6.6a6.3,6.3,0,0,1-10.1-2.8h0v-0.5a6.1,6.1,0,0,1-.1-0.9h0v-0.6Zm1,0.3a5.1,5.1,0,1,0,5.2-5.1A5.1,5.1,0,0,0,620,5716.9Z" transform="translate(-611.2 -5702.9)"/><path class="cls-5" d="M629.9,5721h0Z" transform="translate(-611.2 -5702.9)"/><path class="cls-5" d="M629.8,5721h0Z" transform="translate(-611.2 -5702.9)"/><path class="cls-6" d="M619.1,5718.6h0Z" transform="translate(-611.2 -5702.9)"/><path class="cls-7" d="M618.9,5716.5v0.6h0v-0.5h0Z" transform="translate(-611.2 -5702.9)"/><circle class="cls-8" cx="625.1" cy="5716.9" r="5.1" transform="translate(-5711.4 556.9) rotate(-89.2)"/><path class="cls-9" d="M651.2,5721.3a6,6,0,0,1-2.4.5,4.1,4.1,0,0,1-4.2-4.4,4.3,4.3,0,0,1,4.6-4.5,4.9,4.9,0,0,1,2.1.5l-0.4,1.2a3.8,3.8,0,0,0-1.8-.4,3,3,0,0,0-3,3.2,2.9,2.9,0,0,0,3,3.2,4.4,4.4,0,0,0,1.9-.4l0.3,1.2h0Zm1.8-12.2h1.6v5.3h0a2.9,2.9,0,0,1,1.1-1.1,3.2,3.2,0,0,1,1.6-.4c1.1,0,3,.7,3,3.6v5.1h-1.6v-4.9c0-1.4-.5-2.5-2-2.5a2.3,2.3,0,0,0-2.1,1.5,2,2,0,0,0-.1.7v5.1H653v-12.5h0Zm9.8,6.6c0-1,0-1.9-.1-2.7H664v1.7h0.1a2.6,2.6,0,0,1,2.4-1.9H667v1.5h-0.5a2.2,2.2,0,0,0-2.1,2,4.6,4.6,0,0,0-.1.7v4.5h-1.6v-5.9Zm13.3,1.5a4.2,4.2,0,0,1-4.2,4.5,4.1,4.1,0,0,1-4.1-4.4,4.2,4.2,0,0,1,4.2-4.5,4,4,0,0,1,4.1,4.4h0Zm-6.7.1c0,1.9,1.1,3.3,2.6,3.3s2.6-1.4,2.6-3.3-0.7-3.3-2.6-3.3S669.3,5715.8,669.3,5717.4Zm8.7-2c0-.9,0-1.6-0.1-2.3h1.4v1.4h0.1a2.9,2.9,0,0,1,2.7-1.6,2.5,2.5,0,0,1,2.4,1.7h0a3.4,3.4,0,0,1,1-1.1,2.9,2.9,0,0,1,1.9-.6c1.1,0,2.8.7,2.8,3.7v5h-1.5v-4.8c0-1.7-.6-2.6-1.8-2.6a2,2,0,0,0-1.8,1.4,2.6,2.6,0,0,0-.1.8v5.3h-1.5v-5.1c0-1.4-.6-2.3-1.8-2.3a2.1,2.1,0,0,0-1.9,1.6,2.1,2.1,0,0,0-.1.8v5.1H678v-6.2Zm15.6,2.2a2.7,2.7,0,0,0,2.9,3,5.5,5.5,0,0,0,2.4-.4l0.3,1.1a6.9,6.9,0,0,1-2.9.5,4,4,0,0,1-4.2-4.3c0-2.6,1.5-4.6,4-4.6s3.5,2.4,3.5,4a3.8,3.8,0,0,1-.1.7h-6Zm4.5-1.1a2.2,2.2,0,0,0-2.1-2.5,2.5,2.5,0,0,0-2.4,2.5h4.5Z" transform="translate(-611.2 -5702.9)"/></svg>