<svg id="Grid" xmlns="http://www.w3.org/2000/svg" viewBox="0 0 50 41.9"><defs><style>.cls-1{fill:#2a4347;}.cls-2{fill:#009cc6;}.cls-3{fill:#00aed7;}.cls-4{fill:#0080a3;}.cls-5{fill:#008db2;}.cls-6{fill:#00a0c0;}.cls-7{fill:#00b7db;}.cls-8{fill:#c4e8e8;}.cls-9{fill:#add5d3;}</style></defs><title>docker</title><path class="cls-1" d="M716.5,5676.4v-3.2a0.7,0.7,0,0,1,.7-0.8h0.1a0.7,0.7,0,0,1,.7.8v6.7a4.2,4.2,0,0,1-2.2,3.8,4.2,4.2,0,0,1-2.1.6h-0.3a4.2,4.2,0,0,1-3.8-2.2,4.2,4.2,0,0,1-.6-2.1v-0.3a4.2,4.2,0,0,1,2.2-3.8,4.2,4.2,0,0,1,2.1-.6h0.3a4.2,4.2,0,0,1,2.9,1.1h0Zm-6,3.4a2.9,2.9,0,0,0,1.6,2.6,2.8,2.8,0,0,0,1.4.4,2.9,2.9,0,0,0,2.6-1.5,2.8,2.8,0,0,0,.4-1.5,2.9,2.9,0,0,0-1.3-2.4,2.8,2.8,0,0,0-1.7-.5,2.9,2.9,0,0,0-2.7,1.8,2.8,2.8,0,0,0-.3,1.2h0Zm12.8-4.5h0.2a4.3,4.3,0,0,1,3.9,2.4,4.1,4.1,0,0,1,.5,2v0.3a4.2,4.2,0,0,1-2.2,3.8,4.2,4.2,0,0,1-2.1.6h-0.3a4.2,4.2,0,0,1-3.8-2.2,4.2,4.2,0,0,1-.6-2.1v-0.3a4.3,4.3,0,0,1,2.2-3.8,4.1,4.1,0,0,1,2.1-.6h0Zm-2.9,4.5a2.9,2.9,0,0,0,1.5,2.6,2.8,2.8,0,0,0,1.5.4,2.9,2.9,0,0,0,2.6-1.5,2.8,2.8,0,0,0,.4-1.5,2.9,2.9,0,0,0-1.4-2.5,2.8,2.8,0,0,0-1.6-.5,2.9,2.9,0,0,0-2.7,1.8,2.8,2.8,0,0,0-.3,1.2h0Zm13.8-2.9-0.9-.2a2.8,2.8,0,0,0-2.7,1.8,2.8,2.8,0,0,0-.3,1.2,2.9,2.9,0,0,0,1.8,2.8,3.5,3.5,0,0,0,1.4.2,3.8,3.8,0,0,0,1.3-.4h0.4a0.7,0.7,0,0,1,.6.7h0c0,0.9-1.7,1.1-2.3,1.2a4.3,4.3,0,0,1-4.6-3.3,3.9,3.9,0,0,1-.2-1.1v-0.3a4.3,4.3,0,0,1,2.2-3.8,4.1,4.1,0,0,1,2.1-.6h0.3a3.9,3.9,0,0,1,2.2.7h0.1a0.8,0.8,0,0,1,.1.4h0a0.7,0.7,0,0,1-.6.7h-0.1l-0.9-.3h0Zm4.9,1,1.8-1.8a3.4,3.4,0,0,1,1-.8h0.3a0.7,0.7,0,0,1,.6.7h0a1.4,1.4,0,0,1-.5.7l-1.1,1.1-1.8,1.9,2.4,2.4,0.6,0.7,0.2,0.3a0.6,0.6,0,0,1,.1.3v0.2h0a0.7,0.7,0,0,1-.7.6h-0.1a1.3,1.3,0,0,1-.7-0.4l-1-1-1.2-1.1v1.8a0.7,0.7,0,0,1-.7.8h-0.1a0.7,0.7,0,0,1-.7-0.8v-10.3a0.7,0.7,0,0,1,.7-0.8h0.1a0.7,0.7,0,0,1,.7.8v4.7h0Zm18.9-2.6h0.2a0.7,0.7,0,0,1,.8.8,0.9,0.9,0,0,1-1.1.8,2.7,2.7,0,0,0-1.8.9,2.9,2.9,0,0,0-.8,2.1v3.7a0.7,0.7,0,0,1-.7.8h-0.1a0.7,0.7,0,0,1-.7-0.8v-3.9a4.3,4.3,0,0,1,1.9-3.6,4.2,4.2,0,0,1,2.4-.8h0Zm-10.8,7.3a3.5,3.5,0,0,0,1.7.1,3.9,3.9,0,0,1,1.3-.4h0.1l0.4,0.4a0.7,0.7,0,0,1-.3,1h-0.1a4.3,4.3,0,0,1-4.4-.1,4.1,4.1,0,0,1-1.6-1.6v-0.2a4.3,4.3,0,0,1,.2-4.8,4.1,4.1,0,0,1,1.4-1.2h0.2a4.3,4.3,0,0,1,4.2,0,4.1,4.1,0,0,1,1.8,1.6h0.1a1,1,0,0,1-.5,1.3l-1.4,1.2-3,2.6h0Zm-1.3-.9,3.4-2.9,1.2-1a3,3,0,0,0-1.2-.8,3,3,0,0,0-4,3,2.7,2.7,0,0,0,.4,1.3Zm-8.2-30.4h4.5v4.6h2.3a9.8,9.8,0,0,0,3.1-.5l1.5-.7a5.6,5.6,0,0,1-1-2.9,6.1,6.1,0,0,1,1.1-4.3l0.5-.5,0.6,0.5a7.1,7.1,0,0,1,2.8,4.5,6.8,6.8,0,0,1,5.2.5l0.6,0.4-0.3.6c-1.3,2.5-3.9,3.2-6.5,3.1-3.9,9.6-12.3,14.2-22.5,14.2-5.3,0-10.1-2-12.9-6.7h0l-0.4-.8a13,13,0,0,1-1-6.6v-0.7H719v-4.6h4.5v-4.5h8.9v-4.5h5.4v8.9" transform="translate(-709 -5642.4)"/><path class="cls-2" d="M752.3,5653c0.3-2.3-1.4-4.2-2.5-5-1.2,1.4-1.4,5.2.5,6.8a9.4,9.4,0,0,1-5.7,1.8H715.9a12.1,12.1,0,0,0,1.2,6.7l0.3,0.6,0.7,1h3.3a16,16,0,0,0,4.8-.7,0.3,0.3,0,0,1,.2.7l-0.5.2h0a14.9,14.9,0,0,1-3.3.5h-3.8c2.4,2.7,6.1,4.3,10.8,4.3,9.9,0,18.3-4.4,22-14.2,2.6,0.3,5.2-.4,6.3-2.7a6.2,6.2,0,0,0-5.6,0" transform="translate(-709 -5642.4)"/><path class="cls-3" d="M752.3,5653c0.3-2.3-1.4-4.2-2.5-5-1.2,1.4-1.4,5.2.5,6.8a9.4,9.4,0,0,1-5.7,1.8h-27c-0.1,3.8,1.3,6.6,3.8,8.3h0a16,16,0,0,0,4.8-.7,0.3,0.3,0,0,1,.2.7l-0.5.2h0a15.7,15.7,0,0,1-3.4.6h0c3.4,1.7,8.3,1.7,13.9-.4a39,39,0,0,0,16.2-12.3h-0.2" transform="translate(-709 -5642.4)"/><path class="cls-4" d="M715.9,5659.6a11.5,11.5,0,0,0,1.1,3.7l0.3,0.6,0.7,1h3.3a16,16,0,0,0,4.8-.7,0.3,0.3,0,0,1,.2.7l-0.5.2h0a15.7,15.7,0,0,1-3.4.5h-3.8c2.4,2.7,6.1,4.3,10.8,4.3,8.5,0,15.9-3.2,20.1-10.3H715.9" transform="translate(-709 -5642.4)"/><path class="cls-5" d="M717.8,5659.6a8.6,8.6,0,0,0,3.5,5.4,16,16,0,0,0,4.8-.7,0.3,0.3,0,0,1,.2.7l-0.5.2h0a16,16,0,0,1-3.4.5c3.4,1.7,8.2,1.7,13.8-.4a36.6,36.6,0,0,0,9.6-5.6h-28" transform="translate(-709 -5642.4)"/><path class="cls-6" d="M719.8,5652h3.9v3.9h-3.9V5652Zm0.3,0.3h0.3v3.2h-0.3v-3.2Zm0.6,0H721v3.2h-0.3v-3.2h0Zm0.6,0h0.3v3.2h-0.3v-3.2Zm0.6,0h0.3v3.2h-0.3v-3.2Zm0.6,0h0.3v3.2h-0.3v-3.2h0Zm0.6,0h0.3v3.2H723v-3.2Zm1.2-4.8h3.9v3.9h-3.9v-3.9h0Zm0.3,0.3h0.3v3.2h-0.3v-3.2Zm0.6,0h0.3v3.2h-0.3v-3.2h0Zm0.6,0H726v3.2h-0.3v-3.2Zm0.6,0h0.3v3.2h-0.3v-3.2Zm0.6,0h0.3v3.2h-0.3v-3.2Zm0.6,0h0.3v3.2h-0.3v-3.2Z" transform="translate(-709 -5642.4)"/><path class="cls-7" d="M724.2,5652h3.9v3.9h-3.9V5652h0Zm0.3,0.3h0.3v3.2h-0.3v-3.2Zm0.6,0h0.3v3.2h-0.3v-3.2h0Zm0.6,0H726v3.2h-0.3v-3.2Zm0.6,0h0.3v3.2h-0.3v-3.2Zm0.6,0h0.3v3.2h-0.3v-3.2Zm0.6,0h0.3v3.2h-0.3v-3.2Z" transform="translate(-709 -5642.4)"/><path class="cls-6" d="M728.7,5652h3.9v3.9h-3.9V5652Zm0.3,0.3h0.3v3.2H729v-3.2Zm0.6,0h0.3v3.2h-0.3v-3.2Zm0.6,0h0.3v3.2h-0.3v-3.2Zm0.6,0h0.3v3.2h-0.3v-3.2Zm0.6,0h0.3v3.2h-0.3v-3.2Zm0.6,0h0.3v3.2H732v-3.2Z" transform="translate(-709 -5642.4)"/><path class="cls-7" d="M728.7,5647.6h3.9v3.9h-3.9v-3.9Zm0.3,0.3h0.3v3.2H729v-3.2Zm0.6,0h0.3v3.2h-0.3v-3.2Zm0.6,0h0.3v3.2h-0.3v-3.2Zm0.6,0h0.3v3.2h-0.3v-3.2Zm0.6,0h0.3v3.2h-0.3v-3.2Zm0.6,0h0.3v3.2H732v-3.2Zm1.2,4.1h3.9v3.9h-3.9V5652Zm0.3,0.3h0.3v3.2h-0.3v-3.2Zm0.6,0h0.3v3.2h-0.3v-3.2Zm0.6,0H735v3.2h-0.3v-3.2Zm0.6,0h0.3v3.2h-0.3v-3.2Zm0.6,0h0.3v3.2h-0.3v-3.2Zm0.6,0h0.3v3.2h-0.3v-3.2Z" transform="translate(-709 -5642.4)"/><path class="cls-6" d="M733.2,5647.6h3.9v3.9h-3.9v-3.9Zm0.3,0.3h0.3v3.2h-0.3v-3.2Zm0.6,0h0.3v3.2h-0.3v-3.2Zm0.6,0H735v3.2h-0.3v-3.2Zm0.6,0h0.3v3.2h-0.3v-3.2Zm0.6,0h0.3v3.2h-0.3v-3.2Zm0.6,0h0.3v3.2h-0.3v-3.2Z" transform="translate(-709 -5642.4)"/><path class="cls-7" d="M733.2,5643.1h3.9v3.9h-3.9v-3.9Zm0.3,0.3h0.3v3.2h-0.3v-3.2h0Zm0.6,0h0.3v3.2h-0.3v-3.2h0Zm0.6,0H735v3.2h-0.3v-3.2h0Zm0.6,0h0.3v3.2h-0.3v-3.2h0Zm0.6,0h0.3v3.2h-0.3v-3.2h0Zm0.6,0h0.3v3.2h-0.3v-3.2h0Z" transform="translate(-709 -5642.4)"/><path class="cls-6" d="M737.7,5652h3.9v3.9h-3.9V5652Zm0.3,0.3h0.3v3.2H738v-3.2h0Zm0.6,0h0.3v3.2h-0.3v-3.2h0Zm0.6,0h0.3v3.2h-0.3v-3.2Zm0.6,0h0.3v3.2h-0.3v-3.2Zm0.6,0h0.3v3.2h-0.3v-3.2Zm0.6,0h0.3v3.2h-0.3v-3.2Z" transform="translate(-709 -5642.4)"/><path class="cls-8" d="M727.9,5662.2a1.1,1.1,0,1,1,0,2.1h0a1.1,1.1,0,0,1,0-2.1" transform="translate(-709 -5642.4)"/><path class="cls-1" d="M727.9,5662.5h0.3a0.3,0.3,0,0,0-.1.4l0.3,0.2,0.3-.2a0.8,0.8,0,1,1-1-.4h0.3M709,5660h49.7c-1.1-.3-3.4-0.6-3-2.1-2,2.3-6.7,1.6-7.9.5-1.3,1.9-9.1,1.2-9.6-.3-1.7,2-6.9,2-8.5,0-0.5,1.5-8.3,2.2-9.6.3-1.2,1.1-5.9,1.8-7.9-.5,0.4,1.4-2,1.8-3,2.1" transform="translate(-709 -5642.4)"/><path class="cls-9" d="M730.7,5669.9a9.4,9.4,0,0,1-4.9-4.8,16.4,16.4,0,0,1-3.5.5h-3.7c2.4,2.4,5.4,4.3,10.9,4.3h1.2" transform="translate(-709 -5642.4)"/><path class="cls-8" d="M726.8,5666.8a9.3,9.3,0,0,1-1-1.7,16.4,16.4,0,0,1-3.5.5,11.3,11.3,0,0,0,4.5,1.2" transform="translate(-709 -5642.4)"/></svg>