<svg id="Grid" xmlns="http://www.w3.org/2000/svg" viewBox="0 0 35.2 35.2"><defs><style>.cls-1{fill:#d8d8d8;}.cls-2{fill:#289cae;}.cls-3,.cls-4{fill:none;stroke:#fff;stroke-miterlimit:10;}.cls-3{stroke-width:0.3px;}.cls-4{stroke-dasharray:1.97 0.99;}</style></defs><title>erc20</title><circle class="cls-1" cx="17.6" cy="17.6" r="17.6"/><path d="M551.3,5880.8l-1.1-.2a15.6,15.6,0,0,0-.5-2.5,10.7,10.7,0,0,0-2.9-5.2,8.6,8.6,0,0,0-5.5-2.1H541a11.3,11.3,0,0,0-4.4,1.2H536a1.9,1.9,0,0,1-1.3-.7l-0.2-.3v0.3s0.1,0.7.2,1.3a2.9,2.9,0,0,0,.3.9,6.1,6.1,0,0,0-1.7,3.1,18.4,18.4,0,0,0-.6,3.7l-1.2.2a1.2,1.2,0,0,0-.1.6,0.8,0.8,0,0,0,.1.6h0.2a0.4,0.4,0,0,1,.3.3l0.2,1.3c0.1,0.8.2,1.6,0.3,1.7s0.5,1,2.2,1h4a2.3,2.3,0,0,0,1.5-1.6,11.9,11.9,0,0,1,.9-2h0.8a11.9,11.9,0,0,1,.9,2,2.3,2.3,0,0,0,1.5,1.6h4c1.7-.1,2.1-0.8,2.2-1s0.2-1,.3-1.8l0.2-1.3a0.3,0.3,0,0,1,.3-0.2h0.3A1.5,1.5,0,0,0,551.3,5880.8Zm-8.6,1.4a1.3,1.3,0,0,1,1.2-.8l5.2-.2a1.2,1.2,0,0,1,.7.3,1,1,0,0,1,.2.5c0,1.1-.1,2.8-0.2,3s-0.5.7-1.4,0.9h-3.7a2.3,2.3,0,0,1-1.3-1.2v-0.3A5.7,5.7,0,0,1,542.7,5882.2Zm-9.1-1.6c0-.4.1-1.1,0.2-1.9a7.9,7.9,0,0,1,1.3-3.4l0.8-.6a4.9,4.9,0,0,0,2,.9h0.8c2.4,0,5.4-2,5.4-2h0.7l0.8,0.2a8.5,8.5,0,0,1,2.6,3,14.3,14.3,0,0,1,1.1,3.8H544a4,4,0,0,0-1.6.6h-1.9a4,4,0,0,0-1.6-.6h-5.4Zm6.1,3.7v0.3a2.3,2.3,0,0,1-1.3,1.2h-3.7c-0.9-.1-1.3-0.4-1.4-0.9s-0.1-1.8-.2-2.9a1,1,0,0,1,.2-0.5,1.2,1.2,0,0,1,.7-0.3l5.2,0.2a1.3,1.3,0,0,1,1.2.8A5.7,5.7,0,0,1,539.7,5884.3Z" transform="translate(-523.8 -5861.6)"/><path class="cls-2" d="M535.4,5884.4v-2h0.2l2,1a0.1,0.1,0,0,1,0,.2l-2,1h-0.2Z" transform="translate(-523.8 -5861.6)"/><path class="cls-2" d="M545.5,5884.4v-2h0.2l2,1a0.1,0.1,0,0,1,0,.2l-2,1h-0.2Z" transform="translate(-523.8 -5861.6)"/><circle class="cls-3" cx="17.6" cy="17.6" r="15.1"/><circle class="cls-4" cx="17.6" cy="17.6" r="15.1"/></svg>