<svg id="Grid" xmlns="http://www.w3.org/2000/svg" viewBox="0 0 100 31.7"><defs><style>.cls-1{fill:#cc338a;}</style></defs><title>graphql</title><g id="g883"><g id="text4578"><path id="path5736" class="cls-1" d="M462.9,5656.6l-1.4.2a2.7,2.7,0,0,0-1.1.6,3.2,3.2,0,0,0-.7,1.1,5.3,5.3,0,0,0-.3,1.7q-0.1,1.6,0,3.1a5.3,5.3,0,0,0,.3,1.7,3.3,3.3,0,0,0,.7,1.1,3,3,0,0,0,1.1.6l1.4,0.2,1.4-.2a3,3,0,0,0,1.9-1.8,4.3,4.3,0,0,0,.3-1.6v-0.9h-3a0.3,0.3,0,0,1-.4-0.4v-0.2a0.3,0.3,0,0,1,.4-0.4h3.7a0.4,0.4,0,0,1,.4.4v1.5a5.6,5.6,0,0,1-.3,1.9,4.1,4.1,0,0,1-.9,1.5,4,4,0,0,1-1.5,1,5.5,5.5,0,0,1-2,.3,5.4,5.4,0,0,1-2-.3,4.2,4.2,0,0,1-1.4-.9,4.2,4.2,0,0,1-.9-1.4,6.3,6.3,0,0,1-.3-1.9q0-.8,0-1.6t0-1.6a5.8,5.8,0,0,1,.3-1.8,4.2,4.2,0,0,1,.9-1.4,4,4,0,0,1,1.4-.9,5.8,5.8,0,0,1,4,0,4.7,4.7,0,0,1,1.4.9,3.5,3.5,0,0,1,.8,1.1,2.6,2.6,0,0,1,.3.9,0.3,0.3,0,0,1-.1.3h-0.9v-0.3l-0.4-.8-0.7-.7-1-.5-1.3-.2h0Z" transform="translate(-424.4 -5647.5)"/><path id="path5738" class="cls-1" d="M471.1,5660a2.4,2.4,0,0,1,2.3-1.2H474a0.3,0.3,0,0,1,.4.4v0.2a0.3,0.3,0,0,1-.4.4h-0.7a2.1,2.1,0,0,0-2.2,2.2v5.3a0.3,0.3,0,0,1-.1.3h-0.6a0.3,0.3,0,0,1-.4-0.4v-8.2a0.4,0.4,0,0,1,.1-0.3h0.8a0.3,0.3,0,0,1,.1.3v0.8h0Z" transform="translate(-424.4 -5647.5)"/><path id="path5740" class="cls-1" d="M481.7,5667.8a0.3,0.3,0,0,1-.4-0.4v-0.8l-0.4.5-0.6.4-0.9.3h-1.2l-1.2-.2-1-.6a2.8,2.8,0,0,1-.7-0.8,2.2,2.2,0,0,1-.2-1,2.3,2.3,0,0,1,.2-1.1,2.6,2.6,0,0,1,.7-0.8l1.1-.6,1.4-.3,2.7-.4v-0.6a1.9,1.9,0,0,0-.6-1.4,3.2,3.2,0,0,0-3.3-.1,1.6,1.6,0,0,0-.7.8l-0.2.3h-0.8a0.4,0.4,0,0,1-.1-0.3,1.5,1.5,0,0,1,.2-0.6l0.6-.7,1-.6a3.7,3.7,0,0,1,1.5-.3,4.3,4.3,0,0,1,1.7.3,2.7,2.7,0,0,1,1.1.7,2.3,2.3,0,0,1,.5,1,3.8,3.8,0,0,1,.2,1.1v5.7a0.3,0.3,0,0,1-.4.4h-0.3Zm-3.3-.8,1.1-.2,0.9-.6a2.7,2.7,0,0,0,.6-1,4.1,4.1,0,0,0,.2-1.4v-0.6l-2.2.3q-2.9.4-2.9,1.8a1.4,1.4,0,0,0,.2.7l0.5,0.5,0.7,0.3h0.8Z" transform="translate(-424.4 -5647.5)"/><path id="path5742" class="cls-1" d="M489.1,5668a3.5,3.5,0,0,1-1.8-.4,3.7,3.7,0,0,1-1.1-1v4.1a0.3,0.3,0,0,1-.4.4h-0.3a0.3,0.3,0,0,1-.4-0.4v-11.5a0.3,0.3,0,0,1,.4-0.4h0.3a0.3,0.3,0,0,1,.4.4v0.8a3.4,3.4,0,0,1,1.1-1,3.5,3.5,0,0,1,1.8-.4,3.6,3.6,0,0,1,1.7.4,3,3,0,0,1,1.1.9,3.6,3.6,0,0,1,.6,1.3,6.4,6.4,0,0,1,.2,1.5q0,0.3,0,.6t0,0.6a6.7,6.7,0,0,1-.2,1.5,3.8,3.8,0,0,1-.6,1.3,3.3,3.3,0,0,1-1.1.9,3.8,3.8,0,0,1-1.7.3h0Zm-2.9-5.3q0,0.3,0,.7t0,0.7a4.3,4.3,0,0,0,.2,1.1,2.8,2.8,0,0,0,.5.9l0.9,0.7a3.1,3.1,0,0,0,2.5,0,2.2,2.2,0,0,0,.8-0.7,2.8,2.8,0,0,0,.5-1,6,6,0,0,0,.2-1.2q0-.5,0-1a5.7,5.7,0,0,0-.2-1.2,2.7,2.7,0,0,0-.5-1,2.2,2.2,0,0,0-.8-0.7,2.6,2.6,0,0,0-1.3-.3,2.5,2.5,0,0,0-2.1,1,3.2,3.2,0,0,0-.5,1,4.3,4.3,0,0,0-.2,1.1h0Z" transform="translate(-424.4 -5647.5)"/><path id="path5744" class="cls-1" d="M496.2,5660a3.8,3.8,0,0,1,1.1-1,3.5,3.5,0,0,1,1.8-.4,3.7,3.7,0,0,1,1.5.3,3,3,0,0,1,1.1.8,3.4,3.4,0,0,1,.7,1.2,5.1,5.1,0,0,1,.2,1.5v4.9a0.3,0.3,0,0,1-.4.4h-0.3a0.3,0.3,0,0,1-.4-0.4v-4.8a3.2,3.2,0,0,0-.7-2.2,2.4,2.4,0,0,0-2-.8,2.6,2.6,0,0,0-2,.8,3,3,0,0,0-.7,2.2v4.8a0.3,0.3,0,0,1-.4.4h-0.3a0.3,0.3,0,0,1-.4-0.4V5656a0.3,0.3,0,0,1,.4-0.4h0.3a0.3,0.3,0,0,1,.4.4v4.1h0Z" transform="translate(-424.4 -5647.5)"/><path id="path5746" class="cls-1" d="M509.6,5655.6a5.4,5.4,0,0,1,1.8.3,3.6,3.6,0,0,1,1.4.9,3.9,3.9,0,0,1,.9,1.5,6.2,6.2,0,0,1,.4,2.1q0,0.8,0,1.4t0,1.4a5.2,5.2,0,0,1-1.3,3.6l1.1,1.6h0.1v0.2h-0.6l-0.3-.2-0.2-.2-0.8-1.1a5.5,5.5,0,0,1-2.4.5,4.5,4.5,0,0,1-3.3-1.2,5.1,5.1,0,0,1-1.2-3.6q0-.8,0-1.4t0-1.4a6.5,6.5,0,0,1,.4-2.1,4.2,4.2,0,0,1,.9-1.5,3.8,3.8,0,0,1,1.4-.9,5.5,5.5,0,0,1,1.8-.3h0Zm0,1-1.3.2a2.7,2.7,0,0,0-1.1.7,3.3,3.3,0,0,0-.7,1.2,5.7,5.7,0,0,0-.3,1.7v2.7a5.8,5.8,0,0,0,.3,1.7,3.5,3.5,0,0,0,.7,1.2,2.9,2.9,0,0,0,1.1.7l1.4,0.2,1.4-.2a2.8,2.8,0,0,0,1.1-.7,3.2,3.2,0,0,0,.7-1.2,5.4,5.4,0,0,0,.3-1.7q0-.4,0-0.7v-1.3q0-.3,0-0.7a5.4,5.4,0,0,0-.3-1.7,3.2,3.2,0,0,0-.7-1.2,2.7,2.7,0,0,0-1.1-.7l-1.3-.2h0Z" transform="translate(-424.4 -5647.5)"/><path id="path5748" class="cls-1" d="M518,5666.8H524a0.4,0.4,0,0,1,.4.4v0.3a0.3,0.3,0,0,1-.4.4h-6.7a0.3,0.3,0,0,1-.4-0.4v-11.3a0.3,0.3,0,0,1,.4-0.4h0.3a0.3,0.3,0,0,1,.4.4v10.7h0Z" transform="translate(-424.4 -5647.5)"/></g><g id="g5464"><path id="path5444" class="cls-1" d="M426.9,5671.6l-1.2-.7,13-22.4,1.2,0.7Z" transform="translate(-424.4 -5647.5)"/><path id="path5446" class="cls-1" d="M425.5,5669.2h25.9v1.3H425.5v-1.3Z" transform="translate(-424.4 -5647.5)"/><path id="path5448" class="cls-1" d="M439,5677.4l-13-7.5,0.7-1.2,13,7.5Zm11.3-19.5-13-7.5,0.7-1.2,13,7.5Z" transform="translate(-424.4 -5647.5)"/><path id="path5450" class="cls-1" d="M426.7,5657.9l-0.7-1.2,13-7.5,0.7,1.2Z" transform="translate(-424.4 -5647.5)"/><path id="path5452" class="cls-1" d="M450,5671.6l-13-22.4,1.2-.7,13,22.4Zm-23.5-15.8h1.3v15h-1.3v-15Zm22.5,0h1.3v15H449v-15Z" transform="translate(-424.4 -5647.5)"/><path id="path5454" class="cls-1" d="M438.7,5676.8l-0.6-1,11.3-6.5,0.6,1Z" transform="translate(-424.4 -5647.5)"/><path id="path5456" class="cls-1" d="M452.2,5671.2a2.8,2.8,0,1,1-1-3.9,2.8,2.8,0,0,1,1,3.9m-22.5-13a2.8,2.8,0,1,1-1-3.9,2.8,2.8,0,0,1,1,3.9m-4.9,13a2.8,2.8,0,1,1,3.9,1,2.8,2.8,0,0,1-3.9-1m22.5-13a2.8,2.8,0,1,1,3.9,1,2.8,2.8,0,0,1-3.9-1m-8.8,20.9a2.8,2.8,0,1,1,2.8-2.8,2.8,2.8,0,0,1-2.8,2.8m0-26a2.8,2.8,0,1,1,2.8-2.8,2.8,2.8,0,0,1-2.8,2.8" transform="translate(-424.4 -5647.5)"/></g></g></svg>