<svg id="Grid" xmlns="http://www.w3.org/2000/svg" viewBox="0 0 22.5 27.5"><defs><style>.cls-1{fill:#ccc;}</style></defs><title>ios</title><path class="cls-1" d="M371.2,5652a5.9,5.9,0,0,1,4.3-2.4,5.9,5.9,0,0,1-1.4,4.4,4.7,4.7,0,0,1-4.1,1.9A5.1,5.1,0,0,1,371.2,5652Zm-1,5.5c0.9,0,2.7-1.3,4.9-1.3a6.1,6.1,0,0,1,5.4,2.8,6,6,0,0,0-3,5.2,6.1,6.1,0,0,0,3.7,5.6s-2.6,7.3-6.1,7.3c-1.6,0-2.9-1.1-4.6-1.1s-3.4,1.1-4.6,1.1c-3.2,0-7.2-6.9-7.2-12.5s3.4-8.3,6.6-8.3,3.7,1.2,4.8,1.2h0Z" transform="translate(-358.8 -5649.6)"/></svg>