<svg id="Grid" xmlns="http://www.w3.org/2000/svg" viewBox="0 0 106.1 30.2"><defs><style>.cls-1{fill:#bdbbba;}.cls-2{fill:#484749;}.cls-3{fill:#fff;}.cls-4{fill:#bebca3;}.cls-5{fill:#49a249;}.cls-6{fill:#459845;}</style></defs><title>mongo</title><path class="cls-1" d="M659,5660.7a0.4,0.4,0,0,0-.2.3c0,0.8,0,2.8,0,4.2h1.7a4.1,4.1,0,0,0,1.6-.2,2,2,0,0,0,1-1.9c0-1.9-1.3-2.6-3.2-2.6H659Zm4.9,8.6c0-1.9-1.4-2.9-3.9-2.9h-1.2c0,1.4,0,3.5,0,4.4a1.4,1.4,0,0,0,.6,1,4.4,4.4,0,0,0,1.7.2,2.6,2.6,0,0,0,2.8-2.8h0Zm-8.8-9.6h6.1c1.7,0,4,.6,4,3.1a3,3,0,0,1-2,2.7c-0.1,0-.1.1,0,0.1,1.6,0.4,3,1.4,3,3.3s-1.1,3-2.8,3.7a9.2,9.2,0,0,1-3.6.6h-5.1a1.1,1.1,0,0,1,.3-0.9l1-.2c0.5-.1.6-0.3,0.7-1.1s0-3,0-4.7,0-3.9,0-4.7a0.8,0.8,0,0,0-.7-0.9l-1.3-.2a1.3,1.3,0,0,1,.3-0.8h0Zm-11.1,11.9a3.9,3.9,0,0,0,2.2.5,4.2,4.2,0,0,0,3.1-1.1,5.8,5.8,0,0,0,1.7-4.6,5.5,5.5,0,0,0-2.5-5,6.8,6.8,0,0,0-3.6-.8h-1.1l-0.2.3c0,0.4,0,3.3,0,5.1s0,4.3,0,4.6a1.2,1.2,0,0,0,.4.9h0Zm-4.3-11.9h6.8a7.1,7.1,0,0,1,4.7,1.5,6.2,6.2,0,0,1,2.1,4.9,6.4,6.4,0,0,1-2.6,5.5,8.9,8.9,0,0,1-5.5,1.6h-5.4a1,1,0,0,1,.3-0.9l0.9-.2c0.4-.2.5-0.4,0.5-1.1s0-2.9,0-4.7,0-3.8,0-4.6a0.9,0.9,0,0,0-.9-1l-1.2-.2a1.7,1.7,0,0,1,.4-0.8h0Z" transform="translate(-560.1 -5648.2)"/><path class="cls-2" d="M616.5,5672.3l-1.2-.3-0.2-.3c0-.7,0-2.6,0-3.9a4.5,4.5,0,0,0-.6-2.6,2.6,2.6,0,0,0-2.2-1.1,5.1,5.1,0,0,0-2.9,1.4s-0.2.2-.2-0.1,0-.6.1-0.9a0.5,0.5,0,0,0-.1-0.4,12.8,12.8,0,0,1-3,.8c-0.5.1-.6,0.5-0.1,0.7h0l1.1,0.5a0.6,0.6,0,0,1,.2.5c0,1.4,0,3.6,0,4.8a0.6,0.6,0,0,1-.5.7h0l-0.8.2a1.1,1.1,0,0,0,0,.9h4.5a1.2,1.2,0,0,0,.1-0.9h-0.9a0.6,0.6,0,0,1-.5-0.7c0-1,0-3.2,0-4.6a0.9,0.9,0,0,1,.2-0.7,2.9,2.9,0,0,1,1.8-.7,2,2,0,0,1,1.3.4,1.9,1.9,0,0,1,.6,1.2c0.1,0.8.1,2.5,0.1,3.9s-0.1,1-.3,1.1l-0.9.2a1.1,1.1,0,0,0,0,.9h4.4a1.3,1.3,0,0,0,.1-0.8h0Zm5.3-7.3c-1,0-1.6.8-1.6,2s0.6,2.7,2.1,2.7a1.5,1.5,0,0,0,1-.4,2.5,2.5,0,0,0,.6-1.8c0-1.6-.8-2.5-2.1-2.5h0Zm-0.1,8.5-0.8.2a2,2,0,0,0-1.2,1.6,1.7,1.7,0,0,0,.7,1.4,3.4,3.4,0,0,0,2.3.7c2,0,2.8-1.1,2.8-2.1a1.5,1.5,0,0,0-1.1-1.5,7.7,7.7,0,0,0-2.7-.3h0Zm0.1,5a4.2,4.2,0,0,1-2.7-.8,2.5,2.5,0,0,1-1-1.9,1.5,1.5,0,0,1,.4-1,10.2,10.2,0,0,1,1.8-1.4h0a1.8,1.8,0,0,1-1.2-1.2h0a0.3,0.3,0,0,1,.1-0.3l0.5-.3,0.9-.6h0a2.8,2.8,0,0,1-2-2.9,2.9,2.9,0,0,1,1.2-2.4,5.6,5.6,0,0,1,2.8-.9h0.1a5.9,5.9,0,0,1,2.1.5l1.2,0.2a1.7,1.7,0,0,0,1.3-.5,1,1,0,0,1,.1.4,1.4,1.4,0,0,1-.2.9,1.1,1.1,0,0,1-.8.4h-0.7a0.2,0.2,0,0,0,0,.1h0a7.1,7.1,0,0,1,.1.8,3.1,3.1,0,0,1-1.3,2.8,4.4,4.4,0,0,1-2.2.9h-0.5a0.7,0.7,0,0,0-.5.6c0,0.3.2,0.6,1,.7h0.5a16.8,16.8,0,0,1,3.1.4,2.1,2.1,0,0,1,1.4,2,4.2,4.2,0,0,1-2.7,3.6,6.2,6.2,0,0,1-2.5.6h0Zm10.9-13.3a1.8,1.8,0,0,0-1,.3,3,3,0,0,0-1.1,2.7c0,2.5,1.3,4.3,3.1,4.3a1.9,1.9,0,0,0,1.3-.5,3.4,3.4,0,0,0,.8-2.7c0-2.5-1.2-4.2-3.1-4.2h0Zm0.3,8.2c-3.3,0-4.4-2.4-4.4-4.6a4.1,4.1,0,0,1,1.9-3.6,5.8,5.8,0,0,1,2.9-.9,4.1,4.1,0,0,1,4.2,4.3,4.4,4.4,0,0,1-2,4,5.3,5.3,0,0,1-2.6.8h0Zm-34.1-8.2a1.8,1.8,0,0,0-1,.3,3,3,0,0,0-1.1,2.7c0,2.5,1.3,4.3,3.1,4.3a1.9,1.9,0,0,0,1.3-.5,3.4,3.4,0,0,0,.8-2.7c0-2.5-1.2-4.2-3.1-4.2h0Zm0.3,8.2c-3.3,0-4.4-2.4-4.4-4.6a4.1,4.1,0,0,1,1.9-3.6,5.8,5.8,0,0,1,2.9-.9,4.1,4.1,0,0,1,4.2,4.3,4.4,4.4,0,0,1-2,4,5.2,5.2,0,0,1-2.6.8h0Zm-21.9-.2a0.8,0.8,0,0,1-.1-0.4,0.6,0.6,0,0,1,.1-0.3l0.8-.2a0.7,0.7,0,0,0,.6-0.8c0.1-1.1.1-3.3,0-4.8h0a0.6,0.6,0,0,0-.2-0.5l-1.1-.5a0.3,0.3,0,0,1-.3-0.3,0.4,0.4,0,0,1,.4-0.3,14,14,0,0,0,2.9-.7,0.5,0.5,0,0,1,.1.3v0.2c0,0.2,0,.5,0,0.7h0.3a5.4,5.4,0,0,1,2.9-1.3,2.5,2.5,0,0,1,2.2,1.4h0.2a5.8,5.8,0,0,1,3-1.4c1.8,0,2.8,1.3,2.8,3.6,0,0.6,0,1.5,0,2.2s0,1.3,0,1.7a0.6,0.6,0,0,0,.3.5l1.1,0.3h0a1.5,1.5,0,0,1-.1.7h-4.3a1.9,1.9,0,0,1,0-.7l0.7-.2a0.7,0.7,0,0,0,.5-0.8c0-.4.1-3.5,0-4.2a1.9,1.9,0,0,0-2-1.7,3.4,3.4,0,0,0-2,.7v0.2h0a8.8,8.8,0,0,1,.1,1.6v1.2c0,0.9,0,1.7,0,2.3a0.6,0.6,0,0,0,.5.6h0.9a1,1,0,0,1,0,.5v0.2h-4.4a1,1,0,0,1-.1-0.4,0.6,0.6,0,0,1,.1-0.3h0.9a0.6,0.6,0,0,0,.5-0.7,33.2,33.2,0,0,0,0-4.4,1.8,1.8,0,0,0-1.9-1.7,3.5,3.5,0,0,0-2,.7,0.6,0.6,0,0,0-.2.4v1.1c0,1.4,0,3.1,0,3.8a0.6,0.6,0,0,0,.5.6h0.8a1.6,1.6,0,0,1-.1.7h-4.4Z" transform="translate(-560.1 -5648.2)"/><path class="cls-3" d="M567.4,5677.7l-0.8-.3s0.1-4-1.3-4.3,0.2-47.1,3.6-.2a2.8,2.8,0,0,0-1.4,1.6,14.8,14.8,0,0,0-.1,3.1h0Z" transform="translate(-560.1 -5648.2)"/><path class="cls-4" d="M567.4,5677.7l-0.8-.3s0.1-4-1.3-4.3,0.2-47.1,3.6-.2a2.8,2.8,0,0,0-1.4,1.6,14.8,14.8,0,0,0-.1,3.1h0Z" transform="translate(-560.1 -5648.2)"/><path class="cls-3" d="M567.8,5673.8a13.9,13.9,0,0,0,5.3-13.9c-1.6-6.8-5.2-9.1-5.6-9.9a9.7,9.7,0,0,1-.9-1.7l0.3,19s-0.6,5.8.9,6.5" transform="translate(-560.1 -5648.2)"/><path class="cls-3" d="M566.2,5674.1s-6.5-4.4-6.1-12.2a16.3,16.3,0,0,1,5.8-12.3,1.8,1.8,0,0,0,.6-1.5c0.4,0.9.3,12.9,0.4,14.3C567.1,5668,566.6,5673,566.2,5674.1Z" transform="translate(-560.1 -5648.2)"/><path class="cls-5" d="M566.2,5674.1s-6.5-4.4-6.1-12.2a16.3,16.3,0,0,1,5.8-12.3,1.8,1.8,0,0,0,.6-1.5c0.4,0.9.3,12.9,0.4,14.3C567.1,5668,566.6,5673,566.2,5674.1Z" transform="translate(-560.1 -5648.2)"/><path class="cls-6" d="M567.8,5673.8a13.9,13.9,0,0,0,5.3-13.9c-1.6-6.8-5.2-9.1-5.6-9.9a9.7,9.7,0,0,1-.9-1.7l0.3,19s-0.6,5.8.9,6.5" transform="translate(-560.1 -5648.2)"/></svg>