<svg id="Layer_1" data-name="Layer 1" xmlns="http://www.w3.org/2000/svg" viewBox="0 0 28.6 28.6"><defs><style>.cls-1{fill:#f7a700;}.cls-2{fill:#67b2e7;}.cls-3{fill:#00c4b3;}</style></defs><title>nem</title><path class="cls-1" d="M447.1,9456.2h-0.1a7.9,7.9,0,0,0-4.8,5.1,7.8,7.8,0,0,0-.3,1.7c0,0.3,0,.5,0,0.8a6.7,6.7,0,0,1-5.5,6.4h-1.6a6.7,6.7,0,0,1-5.7-3.8,3.9,3.9,0,0,1-.3-0.9q-0.2-1.1-.4-2.1t-0.2-1.5-0.1-2.3a0.2,0.2,0,0,1,.1-0.2,28.5,28.5,0,0,1,7.7-3l2.8-.5h5.4l2.1,0.2h0.8Z" transform="translate(-428 -9455.8)"/><path class="cls-2" d="M450.3,9477.6c0-.1,0-0.2,0-0.2s0-.4,0-0.7,0-.3,0-0.4a8,8,0,0,0-1.7-4.8,7.7,7.7,0,0,0-2.1-1.9l-1.3-.9a6.4,6.4,0,0,1-1.3-1.6,6.8,6.8,0,0,1-.8-2.2,7,7,0,0,1-.1-0.9,6.6,6.6,0,0,1,1.8-4.9,6.6,6.6,0,0,1,1.9-1.4l1.8-.6H450l1.7,0.3,2.5,1,2.3,1.2v0.2a2.6,2.6,0,0,1,0,.4c0,0.2,0,.4,0,0.6s0,0.8-.1,1.2v1l-0.2,1.2-0.3,1.5q-0.2,1.1-.5,2.1t-0.9,2.6l-0.7,1.5-0.8,1.6-1.6,2.6-1.1,1.5h-0.1Z" transform="translate(-428 -9455.8)"/><path class="cls-3" d="M430,9469.9h0.2a7.9,7.9,0,0,0,3.3,1.5h1.9a8,8,0,0,0,3.5-1.1,6.7,6.7,0,0,1,9.9,4.6,6.3,6.3,0,0,1,.1,1.7,6.7,6.7,0,0,1-.6,2.4l-0.4.7-0.3.3a28.9,28.9,0,0,1-5.2,3.9,0.3,0.3,0,0,1-.4,0l-2-1.3a28.7,28.7,0,0,1-10.1-12.8V9470A0.2,0.2,0,0,1,430,9469.9Z" transform="translate(-428 -9455.8)"/></svg>