<svg id="Grid" xmlns="http://www.w3.org/2000/svg" viewBox="0 0 90 25.4"><defs><style>.cls-1{fill:#53bf0d;}.cls-2{fill:#3d3f33;}</style></defs><title>node</title><path class="cls-1" d="M817.8,5713.2l-0.6.2-6,3.4a1.3,1.3,0,0,0-.6,1.1v6.9a1.3,1.3,0,0,0,.6,1.1l1.6,0.9a2.5,2.5,0,0,0,1.4.4,1.7,1.7,0,0,0,1.8-1.9v-6.8l-0.2-.2h-0.7l-0.2.2v6.8c0,0.5-.5,1.1-1.4.6l-1.6-1v-7.2l6-3.4h0.2l6,3.4v7.2l-6,3.4h-0.2l-1.5-.9H816l-0.9.4c-0.1,0-.2.1,0.1,0.3l2,1.2,0.6,0.2,0.6-.2,6-3.4a1.3,1.3,0,0,0,.6-1.1v-6.9a1.3,1.3,0,0,0-.6-1.1l-6-3.4-0.6-.2h0Z" transform="translate(-735 -5704.2)"/><path class="cls-1" d="M819.3,5718.1c-1.7,0-2.7.7-2.7,1.9s1,1.7,2.6,1.8,2.1,0.5,2.1.9-0.5,1-1.8,1-1.9-.4-2-1.2l-0.2-.2h-0.8l-0.2.2c0,1,.5,2.2,3.2,2.2s3-.7,3-2-0.9-1.6-2.7-1.9-2-.4-2-0.8,0.1-.8,1.5-0.8,1.7,0.3,1.9,1.1h1.1c-0.1-1.4-1.1-2.1-3-2.1h0Z" transform="translate(-735 -5704.2)"/><path class="cls-2" d="M782.7,5704.2h-0.2a0.4,0.4,0,0,0-.2.3v9.7a0.3,0.3,0,0,1-.1.2h-0.3l-1.6-.9a0.8,0.8,0,0,0-.8,0l-6.3,3.6a0.8,0.8,0,0,0-.4.7v7.3a0.8,0.8,0,0,0,.4.7l6.3,3.6a0.8,0.8,0,0,0,.8,0l6.3-3.6a0.8,0.8,0,0,0,.4-0.7V5707a0.8,0.8,0,0,0-.4-0.7l-3.8-2.1h-0.2Zm-40.7,9.1h-0.3l-6.3,3.6a0.8,0.8,0,0,0-.4.7v9.8a0.4,0.4,0,0,0,.2.3h0.4l3.7-2.2a0.8,0.8,0,0,0,.4-0.7v-4.6a0.8,0.8,0,0,1,.4-0.7l1.6-.9h0.8l1.6,0.9a0.8,0.8,0,0,1,.4.7v4.6a0.8,0.8,0,0,0,.4.7l3.7,2.2h0.4a0.4,0.4,0,0,0,.2-0.3v-9.8a0.8,0.8,0,0,0-.4-0.7l-6.3-3.6H742Zm56.8,0.1h-0.4l-6.3,3.6a0.8,0.8,0,0,0-.4.7v7.3a0.8,0.8,0,0,0,.4.7l6.3,3.6a0.8,0.8,0,0,0,.7,0l3.8-2.1a0.4,0.4,0,0,0,.2-0.3,0.4,0.4,0,0,0-.2-0.3l-6.4-3.6a0.4,0.4,0,0,1-.2-0.3v-2.3a0.4,0.4,0,0,1,.2-0.3l2-1.1H799l2,1.1a0.4,0.4,0,0,1,.2.3v1.8a0.4,0.4,0,0,0,.2.3h0.4l3.8-2.2a0.8,0.8,0,0,0,.4-0.7v-1.8a0.8,0.8,0,0,0-.4-0.7l-6.3-3.6h-0.4Zm-18.9,5.4H780l2.2,1.3v2.8l-2.2,1.3h-0.2l-2.2-1.3v-2.8l2.2-1.3h0.1Z" transform="translate(-735 -5704.2)"/><path class="cls-1" d="M761,5713.3h-0.4l-6.3,3.6a0.8,0.8,0,0,0-.4.7v7.3a0.8,0.8,0,0,0,.4.7l6.3,3.6a0.8,0.8,0,0,0,.8,0l6.3-3.6a0.8,0.8,0,0,0,.4-0.7v-7.3a0.8,0.8,0,0,0-.4-0.7l-6.3-3.6H761Zm37.8,6.5h-0.1l-1.2.7h-0.1v1.4h0.1l1.2,0.7h0.1l1.2-.7h0.1v-1.4h-0.1l-1.2-.7h-0.1Z" transform="translate(-735 -5704.2)"/></svg>