<svg id="Grid" xmlns="http://www.w3.org/2000/svg" viewBox="0 0 42 32.4"><defs><style>.cls-1{fill:#2671bc;}.cls-2{fill:#dbdbdb;}</style></defs><title>r</title><path class="cls-1" d="M564.2,5732.9l-3.8-6.4-0.7-1.1-0.3-.5-0.2-.3-0.5-.7-0.5-.4-0.5-.3-1.2-.5h0l-0.8-.3h0.7a7.4,7.4,0,0,0,3.8-1.9,5.8,5.8,0,0,0,1.6-2.9,7.2,7.2,0,0,0,.2-1.2c0-.3,0-0.5,0-0.8a6.1,6.1,0,0,0-1-3.3,5.8,5.8,0,0,0-2.4-2,8.5,8.5,0,0,0-2.3-.7h-15c-0.2,0-.2,0-0.2.1q0,7.4,0,14.8h0v4.1h0q0,2.1,0,4.2c0,0.1,0,.1.1,0.1h7q0-2.1,0-4.2h0c0-.5,0-0.9,0-1.4s0-1.2,0-1.8,0-1,0-1.5h2l0.6,0.2a3.9,3.9,0,0,1,1.1,1.2l0.6,1,0.2,0.5,0.4,0.8v0.2h0l2,3.8,0.8,1.5h8.2v-0.2Zm-11.6-14.3h-4.2q0-1.9,0-3.8h4.4l0.9,0.2a1.6,1.6,0,0,1,1,1.1,2.5,2.5,0,0,1,0,1.4,1.8,1.8,0,0,1-1.3,1.3h-0.7Z" transform="translate(-523.8 -5700.7)"/><path class="cls-2" d="M565.8,5715c0-.3,0-0.7,0-1a9.6,9.6,0,0,0-.3-1.6,10.4,10.4,0,0,0-1-2.6l-0.8-1.3h0l-1.1-1.3a16.7,16.7,0,0,0-2.6-2.2l-1-.7h0l-1.3-.7-2.1-.9-0.5-.2h-0.3l-2.3-.7-1.1-.3-1-.2h0l-1.9-.3h-6.9l-1.5.2-2.2.4-2.8.8-2.6,1.1a20.9,20.9,0,0,0-3,1.8l-1.7,1.4-1.4,1.4a12.5,12.5,0,0,0-1.5,2.2,10.2,10.2,0,0,0-.9,2.4,7.3,7.3,0,0,0-.2,1.2,1.2,1.2,0,0,0,0,.3,10.6,10.6,0,0,0,.1,2,10.1,10.1,0,0,0,.6,2.1l0.4,0.9,0.2,0.3,0.6,1.1,0.8,1.1,0.9,0.9a0.2,0.2,0,0,1,0-.1,0.2,0.2,0,0,0,0,.1h0l1.3,1.2,1.3,1h0.1a21.6,21.6,0,0,0,3,1.6l1.4,0.6,2.8,0.9,2.5,0.5,1.4,0.2v-4.1h-0.5l-0.9-.3-0.5-.2h-0.2l-1.2-.6a14.4,14.4,0,0,1-2.7-1.8h0l-0.6-.6a8.4,8.4,0,0,1-1.3-1.5l-0.3-.5h0l-0.4-1a7.1,7.1,0,0,1-.3-1.2c0-.2,0-0.3,0-0.5a4.6,4.6,0,0,1,0-.7,4.9,4.9,0,0,1,.1-0.8v-0.4h0l0.4-1.1,0.8-1.3a10.7,10.7,0,0,1,2.3-2.2l2.3-1.3a19.3,19.3,0,0,1,3.2-1.2l0.9-.2h0l1.2-.2,1.2-.2H552l1.8,0.3,1.3,0.3h0.1l1.2,0.4a13.6,13.6,0,0,1,3,1.4,9.5,9.5,0,0,1,1.7,1.4h0.1l0.5,0.7a7.5,7.5,0,0,1,1.4,3,9.2,9.2,0,0,1,.2,1.6c0,0.4,0,.7,0,1.1h0a0.3,0.3,0,0,0,0,.1,9.4,9.4,0,0,1-.2,1.2,7.8,7.8,0,0,1-.8,1.9,8.7,8.7,0,0,1-3.2,3l-0.8.4,0.5,0.4,0.5,0.7,0.2,0.3h0a17.2,17.2,0,0,0,2.5-2l1.2-1.3,0.7-1a11.2,11.2,0,0,0,1.1-2.1l0.4-1.1,0.2-.9a8.1,8.1,0,0,0,.1-1.2h0Zm-26.7,8.8h0Zm-4.4-2.3h0Zm-2-2.8h0Zm-0.6-4.5h0Zm10-7.4h0Zm13.1,0.1h0Zm8.5,1.7h0Z" transform="translate(-523.8 -5700.7)"/><path class="cls-2" d="M552.8,5726.7l-0.2-.5-0.6-1h-3.6q0,0.9,0,1.8c0,0.5,0,.9,0,1.4l1.3-.2,2.1-.4,1.6-.4v-0.2Z" transform="translate(-523.8 -5700.7)"/></svg>