<svg id="Grid" xmlns="http://www.w3.org/2000/svg" viewBox="0 0 87 32.7"><defs><style>.cls-1{fill:#1dcad8;}</style></defs><title>react</title><path class="cls-1" d="M242.5,5674.1a19.1,19.1,0,0,1,.6-4.4,0.2,0.2,0,0,0-.2-0.3,18.9,18.9,0,0,1-3.9-1.5,8.2,8.2,0,0,1-2.8-2.3,3.7,3.7,0,0,1,.2-4.8,10.1,10.1,0,0,1,3.5-2.5l2.9-1.1a0.2,0.2,0,0,0,.2-0.3,17.9,17.9,0,0,1-.6-4.9,7.2,7.2,0,0,1,.7-3,3.5,3.5,0,0,1,2.9-2.1,5.3,5.3,0,0,1,2.6.4,13.7,13.7,0,0,1,3.6,2.2l1.4,1.3c0.1,0.1.2,0.1,0.3,0a18.6,18.6,0,0,1,3.7-2.9,7.9,7.9,0,0,1,2.9-1,3.7,3.7,0,0,1,3.9,2.3,7.5,7.5,0,0,1,.5,2.3,17.2,17.2,0,0,1-.6,5.3,0.2,0.2,0,0,0,.2.3,18.1,18.1,0,0,1,4.3,1.8,7.6,7.6,0,0,1,2.4,2.1,3.6,3.6,0,0,1-.1,4.6,8,8,0,0,1-2.4,2,18.2,18.2,0,0,1-4.1,1.7c-0.3.1-.3,0.1-0.2,0.4a20.3,20.3,0,0,1,.5,3.5,9.4,9.4,0,0,1-.4,3.6,3.9,3.9,0,0,1-1.9,2.3,3.7,3.7,0,0,1-2.2.4,9.1,9.1,0,0,1-4.1-1.7,20.5,20.5,0,0,1-2.6-2.2c-0.1-.1-0.2-0.1-0.3,0a20.1,20.1,0,0,1-3.3,2.6,8.6,8.6,0,0,1-3.1,1.2,3.6,3.6,0,0,1-3.4-1,4.8,4.8,0,0,1-1.2-2.4A9.6,9.6,0,0,1,242.5,5674.1Zm11.3-4.8h3.2l0.4-.2a45.4,45.4,0,0,0,3.1-5.4,0.4,0.4,0,0,0,0-.4l-1-1.9c-0.7-1.2-1.4-2.4-2.2-3.6h-6.9a44.3,44.3,0,0,0-3.2,5.6,0.3,0.3,0,0,0,0,.3,44.6,44.6,0,0,0,3.2,5.6l0.2,0.2h3.2Zm-9.7,4.8a9.5,9.5,0,0,0,.1,1.3,4.4,4.4,0,0,0,.5,1.7,2,2,0,0,0,1.5,1.1,3.8,3.8,0,0,0,1.9-.3,14.7,14.7,0,0,0,4.6-3.2c0.1-.1.1-0.1,0-0.2a36.5,36.5,0,0,1-2.9-3.6l-0.3-.2h-1.2l-3.4-.6h-0.2A18.8,18.8,0,0,0,244.1,5674.1Zm19.5,0.1v-0.5a18.1,18.1,0,0,0-.5-3.6h-0.2a36.7,36.7,0,0,1-4.7.7H258a36.5,36.5,0,0,1-2.9,3.6,0.1,0.1,0,0,0,0,.2l0.4,0.4a16.7,16.7,0,0,0,2.7,2.1,6.6,6.6,0,0,0,2.7,1.1,2.1,2.1,0,0,0,2.3-1.2A6.6,6.6,0,0,0,263.6,5674.1Zm-26.5-11a2.2,2.2,0,0,0,.3,1.1,5.1,5.1,0,0,0,1.9,1.8,16.8,16.8,0,0,0,4.2,1.8,0.1,0.1,0,0,0,.2-0.1l0.2-.6a38.8,38.8,0,0,1,1.4-3.7,0.4,0.4,0,0,0,0-.4,35.7,35.7,0,0,1-1.7-4.3,0.2,0.2,0,0,0-.2-0.1,18.4,18.4,0,0,0-3.7,1.5,7.2,7.2,0,0,0-2,1.5A2.5,2.5,0,0,0,237.1,5663.2Zm33.5,0.2a2.2,2.2,0,0,0-.3-1.2,5.4,5.4,0,0,0-1.7-1.6,16.9,16.9,0,0,0-4.3-1.8c-0.2,0-.2,0-0.2.2a36,36,0,0,1-1.6,4.2,0.5,0.5,0,0,0,0,.5,34.6,34.6,0,0,1,1.6,4.2,0.1,0.1,0,0,0,.2.1,18.9,18.9,0,0,0,3.4-1.4,7.6,7.6,0,0,0,2.2-1.6A2.5,2.5,0,0,0,270.6,5663.4Zm-26.5-10.8v0.5a17.3,17.3,0,0,0,.5,3.2c0.1,0.5.1,0.5,0.6,0.4l4.3-.6h0.2a35.5,35.5,0,0,1,2.9-3.6c0.1-.1,0-0.2,0-0.3a18,18,0,0,0-3.1-2.4,6.7,6.7,0,0,0-2.6-1,2.1,2.1,0,0,0-2.4,1.4A7.2,7.2,0,0,0,244.1,5652.5Zm19.5-.1a7.9,7.9,0,0,0-.5-2.6,2.1,2.1,0,0,0-2.1-1.3,4.9,4.9,0,0,0-1.9.5,15.9,15.9,0,0,0-4.1,3c-0.1.1-.1,0.2,0,0.3a34.8,34.8,0,0,1,2.8,3.4,0.5,0.5,0,0,0,.5.3h0.4l4,0.7c0.1,0,.2,0,0.2-0.1A19.1,19.1,0,0,0,263.6,5652.4Zm-15.1,5.3h-0.1l-3.1.5c-0.2,0-.2.1-0.1,0.2l0.8,2.2a5.3,5.3,0,0,0,.4.8C247,5660.2,247.7,5658.9,248.5,5657.7Zm10.7,0c0.8,1.2,1.5,2.5,2.2,3.7h0a29.9,29.9,0,0,0,1.1-3c0-.1,0-0.1-0.1-0.1l-0.8-.2Zm-12.9,7.5h-0.1c-0.4.9-.7,1.9-1.1,2.9s0,0.2.1,0.2l2.5,0.5h0.6C247.7,5667.7,247,5666.5,246.3,5665.2Zm12.9,3.7h0.3l2.9-.5c0.1,0,.2-0.1.1-0.2l-0.9-2.5a2.3,2.3,0,0,0-.3-0.6C260.7,5666.5,260,5667.7,259.2,5668.9Zm-7.5-13.1h4.2l-2-2.4c-0.1-.1-0.2-0.1-0.2,0l-1.2,1.4Zm0,15h0.1l2,2.3c0.1,0.1.2,0.1,0.2,0l1.3-1.6,0.7-.9h-4.3Z" transform="translate(-235.5 -5647)"/><path class="cls-1" d="M257.1,5663.3a3.3,3.3,0,1,1-3.3-3.3A3.3,3.3,0,0,1,257.1,5663.3Z" transform="translate(-235.5 -5647)"/><path id="React" class="cls-1" d="M285.7,5669.7l-3.5-5.3a3.6,3.6,0,0,0,3.4-3.8,3.8,3.8,0,0,0-4.1-3.9h-5.2v13h1.6v-5.2h2.6l3.3,5.2h1.9Zm-4.4-6.6h-3.4v-5h3.4a2.5,2.5,0,1,1,0,5h0Zm10.4,6.8a5.1,5.1,0,0,0,3.7-1.4l-0.7-1a4.1,4.1,0,0,1-2.9,1.2,3.3,3.3,0,0,1-3.4-3.3h7.6v-0.4c0-2.8-1.7-5.1-4.5-5.1a5,5,0,0,0,.2,9.9h0Zm2.9-5.5h-6.2a3.1,3.1,0,0,1,3.1-3.1,3.1,3.1,0,0,1,3.1,3.1h0Zm11.2,5.3v-6.5c0-2.3-1.7-3.2-3.7-3.2a4.9,4.9,0,0,0-3.8,1.6l0.7,1a3.7,3.7,0,0,1,2.9-1.3c1.4,0,2.4.7,2.4,2v1.7a3.9,3.9,0,0,0-3.1-1.3,3.1,3.1,0,0,0-3.3,3.1,3.1,3.1,0,0,0,3.3,3.1,4.1,4.1,0,0,0,3.1-1.3v1.1h1.5Zm-4.1-.8a2.1,2.1,0,1,1,0-4.1,3.2,3.2,0,0,1,2.6,1.2v1.8a3.2,3.2,0,0,1-2.6,1.2h0Zm11.1,1.1a4,4,0,0,0,3.5-1.6l-1-.9a2.8,2.8,0,0,1-2.4,1.2c-2,0-3.3-1.6-3.3-3.7s1.2-3.6,3.3-3.6a2.8,2.8,0,0,1,2.4,1.2l1-.9a4,4,0,0,0-3.5-1.6,5,5,0,0,0,0,9.9h0Zm7.9,0a2.4,2.4,0,0,0,1.8-.6l-0.4-1.1a1.4,1.4,0,0,1-1,.4,1,1,0,0,1-1-1.2v-5.9h1.9v-1.3h-1.9v-2.6h-1.5v2.6h-1.6v1.3h1.6v6.2a1.9,1.9,0,0,0,2.1,2.2h0Z" transform="translate(-235.5 -5647)"/></svg>