<svg id="Grid" xmlns="http://www.w3.org/2000/svg" viewBox="0 0 90 28.7"><defs><style>.cls-1{fill:#a42121;}.cls-2{fill:#e12c26;}.cls-3{fill:#fff;}.cls-4{fill:#721416;}.cls-5{fill:#af2423;}.cls-6{fill:#abaead;}</style></defs><title>redis</title><path class="cls-1" d="M347.1,5724.6c-1.8.9-11.1,4.8-13.1,5.8s-3.1,1-4.6.3l-13.2-5.6c-0.9-.4-1.4-0.8-1.4-1.1v-3.4s12.9-2.8,14.9-3.5,2.8-.8,4.6-0.1,12.3,2.6,14.1,3.2v3.3c0,0.3-.4.7-1.3,1.2" transform="translate(-314.9 -5702.5)"/><path class="cls-2" d="M347.1,5721.3c-1.8.9-11.1,4.8-13.1,5.8s-3.1,1-4.6.3l-13.2-5.6c-1.8-.9-1.8-1.4-0.1-2.1l13.6-5.3c2.1-.7,2.8-0.8,4.6-0.1l12.7,5c1.7,0.6,1.8,1.2,0,2.1" transform="translate(-314.9 -5702.5)"/><path class="cls-1" d="M347.1,5719.1c-1.8.9-11.1,4.8-13.1,5.8s-3.1,1-4.6.3l-13.2-5.6c-0.9-.4-1.4-0.8-1.4-1.1v-3.4s12.9-2.8,14.9-3.5,2.8-.8,4.6-0.1,12.3,2.6,14.1,3.2v3.3c0,0.3-.4.7-1.3,1.2" transform="translate(-314.9 -5702.5)"/><path class="cls-2" d="M347.1,5715.8c-1.8.9-11.1,4.8-13.1,5.8s-3.1,1-4.6.3l-13.2-5.6c-1.8-.9-1.8-1.4-0.1-2.1l13.6-5.3c2.1-.7,2.8-0.8,4.6-0.1l12.7,5c1.7,0.6,1.8,1.2,0,2.1" transform="translate(-314.9 -5702.5)"/><path class="cls-1" d="M347.1,5713.4c-1.8.9-11.1,4.8-13.1,5.8s-3.1,1-4.6.3l-13.2-5.6c-0.9-.4-1.4-0.8-1.4-1.1v-3.4s12.9-2.8,14.9-3.5,2.8-.8,4.6-0.1,12.3,2.6,14.1,3.2v3.3c0,0.3-.4.7-1.3,1.2" transform="translate(-314.9 -5702.5)"/><path class="cls-2" d="M347.1,5710.1c-1.8.9-11.1,4.8-13.1,5.8s-3.1,1-4.6.3l-13.2-5.6c-1.8-.9-1.8-1.4-0.1-2.1l13.6-5.3c2.1-.7,2.8-0.8,4.6-0.1l12.7,5c1.7,0.6,1.8,1.2,0,2.1" transform="translate(-314.9 -5702.5)"/><path class="cls-3" d="M335.8,5706.8l-2.9.3-0.6,1.6-1-1.7-3.3-.3,2.5-.9-0.7-1.4,2.3,0.9,2.2-.7-0.6,1.4,2.2,0.8m-3.7,7.5-5.4-2.2,7.7-1.2-2.3,3.4m-7.5-6.7c2.3,0,4.1.7,4.1,1.6s-1.8,1.6-4.1,1.6-4.1-.7-4.1-1.6,1.8-1.6,4.1-1.6" transform="translate(-314.9 -5702.5)"/><path class="cls-4" d="M339.2,5707.2l4.6,1.8-4.6,1.8v-3.6" transform="translate(-314.9 -5702.5)"/><path class="cls-5" d="M334.1,5709.2l5.1-2v3.6l-0.5.2-4.6-1.8" transform="translate(-314.9 -5702.5)"/><path class="cls-6" d="M386,5711.3c0-.3,0-0.5,0-0.6s0-2.9,0-4.3a1.3,1.3,0,0,1,1.2-1.3,1.3,1.3,0,0,1,1.4.9,1.8,1.8,0,0,1,.1.5c0,4.9,0,9.9,0,14.8a1.4,1.4,0,0,1-1.1,1.4,1.3,1.3,0,0,1-1.5-.9H386a6.1,6.1,0,0,1-5,.9,6,6,0,0,1-3.3-2.2,6.4,6.4,0,0,1,0-7.8,5.9,5.9,0,0,1,3.8-2.4A6,6,0,0,1,386,5711.3Zm-3.4,8.8h0.7a3.6,3.6,0,0,0,2.7-4.1,3.4,3.4,0,0,0-6.8.1A3.6,3.6,0,0,0,382.6,5720.1Z" transform="translate(-314.9 -5702.5)"/><path class="cls-6" d="M366.3,5717.4a3.3,3.3,0,0,0,2.1,2.6,4,4,0,0,0,4.1-.4,1.3,1.3,0,0,1,1.4-.1,1,1,0,0,1,.5,1.1,1.4,1.4,0,0,1-.4.8,6.2,6.2,0,0,1-6.4,1.2,6,6,0,0,1-4.1-4.9,6.3,6.3,0,0,1,4.7-7.2,6,6,0,0,1,7.3,5,5.7,5.7,0,0,1,.1.6,1.2,1.2,0,0,1-1.4,1.4h-8Zm7.1-2.1c-0.1-1.3-2.2-2.8-3.9-2.7s-3.3,1.4-3.3,2.7h7.1Z" transform="translate(-314.9 -5702.5)"/><path class="cls-6" d="M399.9,5710.2a6.1,6.1,0,0,1,3.9,1.5,1.3,1.3,0,0,1-1.5,2.1,5.3,5.3,0,0,0-2.1-1,2.5,2.5,0,0,0-1.9.6c-0.4.4-.4,0.8,0.1,1l2.1,0.7,2.4,0.8a3.2,3.2,0,0,1,2,2.9,3.4,3.4,0,0,1-1.7,3.1,5.9,5.9,0,0,1-6.2.1l-1.3-.9a1.3,1.3,0,0,1-.2-1.9,1.3,1.3,0,0,1,1.8-.2,5.3,5.3,0,0,0,2.3,1.1,3.2,3.2,0,0,0,2.2-.4c0.8-.4.8-1.1,0-1.5l-2.2-.7a8.4,8.4,0,0,1-2.5-.9,3.2,3.2,0,0,1-.1-5.5A5,5,0,0,1,399.9,5710.2Z" transform="translate(-314.9 -5702.5)"/><path class="cls-6" d="M359.1,5711.7a5.1,5.1,0,0,1,3-1.4h1.1a1.2,1.2,0,0,1,.9,1.3,1.3,1.3,0,0,1-1.2,1.2,3.3,3.3,0,0,0-2.7,1.6l-0.5.8a4.7,4.7,0,0,0-.7,2.6c0.1,1.3,0,2.5,0,3.8a1.3,1.3,0,0,1-2.6.3v-0.3q0-5,0-10a1.3,1.3,0,0,1,1.1-1.3,1.4,1.4,0,0,1,1.5.8A4.7,4.7,0,0,1,359.1,5711.7Z" transform="translate(-314.9 -5702.5)"/><path class="cls-6" d="M393.5,5716.5c0,1.6,0,3.3,0,4.9a1.3,1.3,0,0,1-1.2,1.4,1.3,1.3,0,0,1-1.4-1.4q0-4.9,0-9.8s0-.1,0-0.1a1.3,1.3,0,0,1,1.3-1.3,1.2,1.2,0,0,1,1.4,1.3c0,1.7,0,3.3,0,5h0Z" transform="translate(-314.9 -5702.5)"/><path class="cls-6" d="M393.5,5706.7a1.4,1.4,0,0,1-.9,1.5,1.3,1.3,0,0,1-1.7-1.1,3,3,0,0,1,0-1.1,1.3,1.3,0,0,1,2.6.3C393.5,5706.5,393.5,5706.6,393.5,5706.7Z" transform="translate(-314.9 -5702.5)"/></svg>