<svg id="Grid" xmlns="http://www.w3.org/2000/svg" viewBox="0 0 110 21.1"><defs><style>.cls-1{fill:#e15b2d;}.cls-2{fill:#f4bb3c;}.cls-3{fill:#e98a24;}.cls-4{fill:#e98b24;}.cls-5{fill:#e46c3c;}.cls-6{fill:#e67845;}.cls-7{fill:#ec9b4d;}.cls-8{fill:#f7e0c6;}.cls-9{fill:#e88252;}.cls-10{fill:#abaead;}</style></defs><title>tensor flow</title><path class="cls-1" d="M800.4,5664.1l-0.5-.3-2.3-1.3h-0.1v-3.3h0.2l2.6,1.5h0q0,1.5,0,3.1h0Z" transform="translate(-797.6 -5652.8)"/><path class="cls-2" d="M800.4,5660.9l-2.6-1.5h-0.2l0.7-.4,6-3.4,4.5-2.6H809l7,4,1.3,0.7h0l-1.1.6-1.6.9h0l-1.7-1-2-1.2-1.9-1.1h0l-1,.6-2.5,1.4-2.4,1.4-2.6,1.5h0Z" transform="translate(-797.6 -5652.8)"/><path class="cls-1" d="M806,5673.9l-0.8-.5-1.9-1.1h-0.1q0-4.8,0-9.6h0l0.5-.3,1.2-.7,1.1-.6q0,1.5,0,3.1a0.1,0.1,0,0,0,0,.1h0l0.3,0.2,1.8,1,0.7,0.4h0q0,1.2,0,2.4c0,0.2,0,.4,0,0.7h0l-0.9-.5-1.4-.8-0.5-.3a0.1,0.1,0,0,0,0,.1q0,3.1,0,6.2A0.1,0.1,0,0,1,806,5673.9Z" transform="translate(-797.6 -5652.8)"/><path class="cls-3" d="M806,5660.9l-1.1.6-1.2.7-0.5.3h-0.1l-2.6,1.5h-0.1a0.2,0.2,0,0,0,0-.1q0-1.5,0-3.1l2.6-1.5,2.4-1.4,2.5-1.4,1-.6h0q0,1.6,0,3.1h0v2.1q0,0.5,0,1.1l-1.9,1.1-1,.6h0q0-1.6,0-3.1S806.1,5660.9,806,5660.9Z" transform="translate(-797.6 -5652.8)"/><path class="cls-1" d="M808.9,5656l1.9,1.1,2,1.2,1.7,1v3.2l-0.8-.5-2.5-1.4-2.2-1.3h-0.1q0-1.6,0-3.1A0.1,0.1,0,0,1,808.9,5656Z" transform="translate(-797.6 -5652.8)"/><path class="cls-4" d="M806.1,5667.4l0.5,0.3,1.4,0.8,0.9,0.5h0.1q0,1.6,0,3.2h-0.1l-2.7,1.6h0v-6.5Z" transform="translate(-797.6 -5652.8)"/><path class="cls-2" d="M806.1,5664.1l1-.6,1.9-1.1,2.7,1.6h0.1l-0.9.5-1.2.7-0.7.4h0l-0.7-.4-1.8-1Z" transform="translate(-797.6 -5652.8)"/><path class="cls-4" d="M814.5,5659.3l1.6-.9,1.1-.6h0.1q0,1.5,0,3.1h-0.1l-2.7,1.5h-0.1Q814.5,5660.8,814.5,5659.3Z" transform="translate(-797.6 -5652.8)"/><path class="cls-4" d="M808.9,5665.8l0.7-.4,1.2-.7,0.9-.5v0.2c0,1,0,1.9,0,2.9v0.2L809,5669h-0.1v-3.2Z" transform="translate(-797.6 -5652.8)"/><path class="cls-5" d="M806.1,5667.4v6.5h0a0.1,0.1,0,0,0,0-.1q0-3.1,0-6.2A0.1,0.1,0,0,1,806.1,5667.4Z" transform="translate(-797.6 -5652.8)"/><path class="cls-6" d="M814.5,5659.3q0,1.6,0,3.1h0v-3.2h0Z" transform="translate(-797.6 -5652.8)"/><path class="cls-7" d="M808.9,5665.8v3.2h0c0-.2,0-0.4,0-0.7s0-1.6,0-2.4h0Z" transform="translate(-797.6 -5652.8)"/><path class="cls-8" d="M808.9,5659.3h0Z" transform="translate(-797.6 -5652.8)"/><path class="cls-7" d="M800.4,5660.9q0,1.5,0,3.1a0.2,0.2,0,0,1,0,.1q0-1.5,0-3.1h0Z" transform="translate(-797.6 -5652.8)"/><path class="cls-9" d="M808.9,5659.3h0q0-1.6,0-3.1h0a0.1,0.1,0,0,0,0,.1Q808.9,5657.7,808.9,5659.3Z" transform="translate(-797.6 -5652.8)"/><path class="cls-5" d="M806,5660.9s0,0,0,.1,0,2.1,0,3.1a0.1,0.1,0,0,1,0-.1Q806,5662.5,806,5660.9Z" transform="translate(-797.6 -5652.8)"/><path class="cls-10" d="M898.3,5669.4l0.6-2.2,1.3-4.6a0.4,0.4,0,0,1,.4-0.3h0.9a0.4,0.4,0,0,1,.5.4l1.1,3.9c0.3,1,.5,1.9.8,2.9l0.3-1.2,1.1-4.7,0.3-1.1,0.2-.2h1.8l-0.6,2.1-2.2,7.9c-0.1.5-.1,0.5-0.6,0.5H903l-1.9-7.3-0.3,1.4-1.5,5.7a0.3,0.3,0,0,1-.3.3h-1.3a0.2,0.2,0,0,1-.3-0.2l-2.7-10a0.9,0.9,0,0,1,0-.1h1.9v0.2l1,4.1,0.7,2.8h0.1Z" transform="translate(-797.6 -5652.8)"/><path class="cls-1" d="M854.9,5667.5a6,6,0,0,1,1.2-3.8,4.4,4.4,0,0,1,7.2.6,6.6,6.6,0,0,1,.7,4.7,4.6,4.6,0,0,1-2.3,3.4,4.4,4.4,0,0,1-6.3-2.3A7.1,7.1,0,0,1,854.9,5667.5Zm2.1,0a4.6,4.6,0,0,0,.5,2.2,2.3,2.3,0,0,0,4,.1,4.5,4.5,0,0,0,.1-4.6,2.3,2.3,0,0,0-4-.2A4.4,4.4,0,0,0,857,5667.5Z" transform="translate(-797.6 -5652.8)"/><path class="cls-10" d="M894.4,5667.7a5.7,5.7,0,0,1-1.1,3.5,4.3,4.3,0,0,1-3.9,1.7,4.5,4.5,0,0,1-4-3.8,6.8,6.8,0,0,1,.4-4.5,4.2,4.2,0,0,1,4-2.6,4.3,4.3,0,0,1,4.1,2.5A6.4,6.4,0,0,1,894.4,5667.7Zm-2-.2a4.8,4.8,0,0,0-.6-2.3,2.3,2.3,0,0,0-2.1-1.2,2.1,2.1,0,0,0-2,1.3,5,5,0,0,0,0,4.3,2.3,2.3,0,0,0,3.7.5A4.1,4.1,0,0,0,892.4,5667.5Z" transform="translate(-797.6 -5652.8)"/><path class="cls-1" d="M836.4,5666.8l-6.8,2.1a2.5,2.5,0,0,0,1.9,2.2,3.4,3.4,0,0,0,2.9-.7l1.2,1.3a4.5,4.5,0,0,1-2.5,1.3,4.6,4.6,0,0,1-3.2-.5,4.5,4.5,0,0,1-2.1-2.7,7.3,7.3,0,0,1,.3-5.1,4.1,4.1,0,0,1,4.2-2.5,4,4,0,0,1,3.8,3.2C836.3,5665.8,836.3,5666.3,836.4,5666.8Zm-2.2-1.1a2.2,2.2,0,0,0-1.5-1.7,2.3,2.3,0,0,0-2.4.6,3,3,0,0,0-.7,1.7c0,0.3,0,.5-0.1.8Z" transform="translate(-797.6 -5652.8)"/><path class="cls-10" d="M874.3,5672.7h-2.1v-13.8h8.4v2h-6.3v3.6h3.9v2h-4v6.1Z" transform="translate(-797.6 -5652.8)"/><path class="cls-1" d="M845.9,5672.7h-2v-0.4c0-1.7,0-3.4,0-5.2a9.5,9.5,0,0,0-.2-1.6,1.8,1.8,0,0,0-1.9-1.6,1.9,1.9,0,0,0-2,1.4,4.8,4.8,0,0,0-.2,1.2c0,1.9,0,3.8,0,5.7v0.4h-2v-10.3h2v0.9l0.3-.3a3.7,3.7,0,0,1,5.1.3,4.2,4.2,0,0,1,.9,2.6c0.1,2.2,0,4.5.1,6.7h0Z" transform="translate(-797.6 -5652.8)"/><path class="cls-1" d="M823,5660.9h-4v-2h10.1v2h-4v11.8H823v-11.8Z" transform="translate(-797.6 -5652.8)"/><path class="cls-1" d="M854,5663.3l-0.8,1.4-2-.7h-1.3a0.9,0.9,0,0,0-.9.7,0.9,0.9,0,0,0,.5,1l2.2,1a5.8,5.8,0,0,1,1.9,1.2,2.9,2.9,0,0,1-1,4.7,6.6,6.6,0,0,1-6.2-.9l0.9-1.5,0.7,0.4a4.7,4.7,0,0,0,3.3.5,1,1,0,0,0,.9-1.1,0.9,0.9,0,0,0-.5-0.8l-1.7-.8a10.6,10.6,0,0,1-2.3-1.2,2.8,2.8,0,0,1,.6-4.6A5.8,5.8,0,0,1,854,5663.3Z" transform="translate(-797.6 -5652.8)"/><path class="cls-1" d="M870.9,5664.4l-1.3-.3a1.9,1.9,0,0,0-2.2,1.6,6.1,6.1,0,0,0-.1,1.2c0,1.8,0,3.6,0,5.4v0.4h-2v-10.3h2v0.9l0.4-.4a3.3,3.3,0,0,1,3.5-.5,0.3,0.3,0,0,1,.2.4Z" transform="translate(-797.6 -5652.8)"/><path class="cls-10" d="M883.8,5658.3v14.4h-2c0-.1,0-0.2,0-0.3q0-6.3,0-12.7a0.4,0.4,0,0,1,.3-0.5Z" transform="translate(-797.6 -5652.8)"/></svg>