<svg id="Grid" xmlns="http://www.w3.org/2000/svg" viewBox="0 0 185.3 28.9"><defs><style>.cls-1{fill:gray;}</style></defs><title>coinsilum</title><path class="cls-1" d="M4528.7,8539.1a10.7,10.7,0,0,0-15.1,0h0l-13.1,13.1a7.8,7.8,0,1,1,0-11l2-2a10.7,10.7,0,1,0,0,15.1l13.1-13.1a7.8,7.8,0,1,1,0,11l-3.5-3.5-2,2,3.5,3.5A10.7,10.7,0,1,0,4528.7,8539.1Z" transform="translate(-4484.4 -8528.4)"/><circle class="cls-1" cx="36.8" cy="18.2" r="5.7"/><rect class="cls-1" x="52.2" y="8" width="3" height="20.37"/><rect class="cls-1" x="52.1" width="3.1" height="3.67"/><path class="cls-1" d="M4556.6,8535.9a8.8,8.8,0,0,0-7.9,4.7c0-.3,0-0.6,0-1v-3.1h-3v20.4h3V8547a9.8,9.8,0,0,1,.3-2.7,7.5,7.5,0,0,1,7.2-5.6c3.5,0,4.2,2.2,4.2,5.8v12.2h3v-12.9C4563.5,8538.4,4561.3,8535.9,4556.6,8535.9Z" transform="translate(-4484.4 -8528.4)"/><path class="cls-1" d="M4576.1,8545.2c-2.4-.9-4.5-1.8-4.5-3.7s2-3,3.9-3a7.1,7.1,0,0,1,4.9,1.8h0.1l1.4-2.3h-0.1c-0.1-.1-2-2.2-6.3-2.2s-7,1.8-7,5.7,3.4,5,6.3,6.2,4.5,1.8,4.5,3.7-2,3.1-3.9,3.1a8.6,8.6,0,0,1-5.9-2.4h-0.1l-1.6,2.2h0.1a10.5,10.5,0,0,0,7.5,3c4.1,0,7-2.4,7-5.8S4579.1,8546.4,4576.1,8545.2Z" transform="translate(-4484.4 -8528.4)"/><rect class="cls-1" x="102.8" y="8" width="3" height="20.37"/><rect class="cls-1" x="102.7" width="3.1" height="3.67"/><path class="cls-1" d="M4602,8554.1h-0.7c-1,0-2.1-.3-2.1-2.9v-22.9h-3v23.5c0,4.2,2.6,5.1,4.8,5.1h1.1v-2.7H4602Z" transform="translate(-4484.4 -8528.4)"/><rect class="cls-1" x="122" y="8" width="3" height="20.37"/><rect class="cls-1" x="121.9" width="3.1" height="3.67"/><path class="cls-1" d="M4629.8,8536.4v9.8c0,4-2.6,8.3-7.3,8.3s-4.2-2.2-4.2-5.8v-12.2h-3v12.9c0,5.4,2.2,7.9,6.9,7.9a8.8,8.8,0,0,0,7.8-4.7c0,0.3,0,.7,0,1.1v3.1h2.9v-20.4h-3Z" transform="translate(-4484.4 -8528.4)"/><path class="cls-1" d="M4662.9,8535.9a8.3,8.3,0,0,0-7.4,4.8c-0.7-3.2-2.8-4.8-6.3-4.8a8.5,8.5,0,0,0-7.2,4.6c0-.3,0-0.6,0-1v-3.1h-3v20.4h3v-9.6a11.5,11.5,0,0,1,.3-2.6c0.8-2.8,3.1-5.8,6.5-5.8s4.1,2.3,4.1,5.9v12.2h3v-9.6a9.3,9.3,0,0,1,.4-2.9c0.9-3.7,3.8-5.6,6.2-5.6s4.2,2.8,4.2,5.9v12.2h3v-12.9C4669.7,8538.4,4667.5,8535.9,4662.9,8535.9Z" transform="translate(-4484.4 -8528.4)"/></svg>