<svg id="Grid" xmlns="http://www.w3.org/2000/svg" viewBox="0 0 142.3 59.3"><defs><style>.cls-1{fill:#8e8e8e;}</style></defs><title>partners4</title><path class="cls-1" d="M881.6,7438.6h-2.2c1-.8.9-1.9,1-2.9,0.2-3,.3-5.9.5-8.9a11.3,11.3,0,0,0-.3-1.9H882a1,1,0,0,1,.5.6l3.5,9.5,0.4,0.8,0.3-.7c1.2-3.1,2.4-6.1,3.5-9.2a1.3,1.3,0,0,1,1.6-1.1h0.6c-0.1,1-.2,2-0.2,3q0.1,4.3.4,8.7a14.7,14.7,0,0,0,.4,2.1h-2.6c1.1-1.1.6-2.4,0.6-3.6s-0.2-5.1-.5-7.7l-4.5,11.6-4.2-11.2h-0.2c-0.1.9-.1,1.7-0.2,2.6s-0.3,4-.3,6A9.9,9.9,0,0,0,881.6,7438.6Z" transform="translate(-828.6 -7422.4)"/><path class="cls-1" d="M909.8,7424.8a50.7,50.7,0,0,1,6.6.3,6.9,6.9,0,0,1,5.4,9.2,6.4,6.4,0,0,1-5.9,4.2h-6.5a2.5,2.5,0,0,0,1-2.4c0-3,0-5.9,0-8.9A14.4,14.4,0,0,0,909.8,7424.8Zm2.1,13.2h3.9a4.3,4.3,0,0,0,3.8-2.4,7.3,7.3,0,0,0,.8-2.7c0.3-3.3-1.1-7.3-5.9-7.4H913c-1.3.1-1.2,0-1.2,1.3s0,3.5,0,5.2S911.9,7435.8,911.9,7438Z" transform="translate(-828.6 -7422.4)"/><path class="cls-1" d="M866.6,7438.6h-1.5a1.2,1.2,0,0,1-.8-0.5c-0.9-1.3-1.6-2.6-2.5-3.9a10.7,10.7,0,0,0-2-1.9,3,3,0,0,0-1.2-.3,17.7,17.7,0,0,0,.3,6.6h-2.4a19.2,19.2,0,0,0,.3-2.2q0-4.8,0-9.5a13.2,13.2,0,0,0-.3-1.9,44.6,44.6,0,0,1,4.8,0,3.3,3.3,0,0,1,2.9,3.1,3.2,3.2,0,0,1-2.1,3.5l-0.5.2c1.7,1.1,2.2,2.9,3.1,4.4A22.5,22.5,0,0,0,866.6,7438.6Zm-8.1-7.2c1.7,0.3,3.2-.2,3.7-1.2a3.4,3.4,0,0,0-.2-3.5,3,3,0,0,0-3.1-1.2,0.6,0.6,0,0,0-.4.4C858.5,7427.7,858.5,7429.5,858.5,7431.4Z" transform="translate(-828.6 -7422.4)"/><path class="cls-1" d="M853.5,7423v3.3l-0.4-.5a6.1,6.1,0,0,0-10.5.5,9.2,9.2,0,0,0-.4,7.9c1.2,3,4.6,4.5,8.2,3.5a29.3,29.3,0,0,0,3-1.2,6.8,6.8,0,0,1-4.9,2.4c-3.4.2-6.1-.9-7.8-3.9a8,8,0,0,1,.5-9,8.1,8.1,0,0,1,8.2-3.4l2.3,0.5h1.9Z" transform="translate(-828.6 -7422.4)"/><path class="cls-1" d="M907.1,7438.6h-2.5a10.7,10.7,0,0,0-.3-1.9,21.6,21.6,0,0,0-1.1-2.7,1.1,1.1,0,0,0-.8-0.5H899a0.8,0.8,0,0,0-.9.6c-0.4,1-.8,2-1.2,3a6.6,6.6,0,0,0-.1,1.6h-1.4c0.6-1.3,1.2-2.7,1.7-4.1l3.5-8.9,0.5-1.1,1.8,4.6,3.2,8.1A11.1,11.1,0,0,0,907.1,7438.6Zm-6.3-10.7h-0.2l-1.8,4.7h3.9Z" transform="translate(-828.6 -7422.4)"/><path class="cls-1" d="M931.2,7432.7c-1.5-1-3-.4-4.5-0.6v5.8c1.7-.1,3.6.4,5.3-0.8l-0.2,1.4h-7.1a14.3,14.3,0,0,0,.3-2.1q0.1-4.8,0-9.7a11.4,11.4,0,0,0-.3-1.8h7.1v1.3c-1.1-1-2.4-.7-3.6-0.7s-1.6,0-1.6,1.6,0,2.7,0,4.3l4.6-.2v1.5Z" transform="translate(-828.6 -7422.4)"/><path class="cls-1" d="M875.7,7431.3v1.4c-1.4-.8-2.9-0.3-4.5-0.5v5.8c1.8-.1,3.6.4,5.3-0.8l-0.2,1.4h-7.4c0.8-.8.7-1.9,0.7-2.9,0-2.9,0-5.8,0-8.8a13.6,13.6,0,0,0-.3-2h7.1v1.2c-1.6-1.1-3.3-.4-5-0.6v5.7h4.4Z" transform="translate(-828.6 -7422.4)"/><path class="cls-1" d="M942,7424.9v2a3.7,3.7,0,0,0-2.7-1.8,2.5,2.5,0,0,0-2.7,1.4,2.8,2.8,0,0,0,.5,3.3,16.4,16.4,0,0,0,2,1.4l2.2,1.4a3.2,3.2,0,0,1,1.3,3.7,3.3,3.3,0,0,1-3,2.6,16.2,16.2,0,0,1-3.4-.4l-1.5-.3V7436l0.6,0.8a4,4,0,0,0,3.9,1.6,2.2,2.2,0,0,0,2-1.5,2.5,2.5,0,0,0-.6-2.7,10.5,10.5,0,0,0-1.7-1.2l-1.8-1c-1.9-1.2-2.7-3-2-4.8a4.2,4.2,0,0,1,4.7-2.6Z" transform="translate(-828.6 -7422.4)"/><path class="cls-1" d="M951,7430.4c-0.8-2-.7-2.9.4-3.9s2.6-.8,4-0.6v1.5l-1-.8a2.1,2.1,0,0,0-2.3.2,1.9,1.9,0,0,0-.3,2.2,14,14,0,0,0,1.8,2.4c0.9,0.9,1.8,1.8,2.7,2.7,0.9-1.2,1-2.2.1-3.1h1.8c-0.4,1.1-.8,2.1-1.2,3.1a0.8,0.8,0,0,0,.2.7l2.9,1.8a6.6,6.6,0,0,1-3.5-.9,1.1,1.1,0,0,0-1.2.1,8.3,8.3,0,0,1-2.8,1,3.1,3.1,0,0,1-3.4-2,3.5,3.5,0,0,1,1.1-3.9Zm0.1,0.8c-0.6.4-1,1.2-.8,2.5a2.9,2.9,0,0,0,1.9,2.3,3.1,3.1,0,0,0,3.2-.9Z" transform="translate(-828.6 -7422.4)"/><path class="cls-1" d="M888,7477.3a4.4,4.4,0,0,1-4.6,4.5,4.5,4.5,0,0,1-4.5-4.5,4.4,4.4,0,0,1,4.5-4.4A4.4,4.4,0,0,1,888,7477.3Zm-8.3,0a3.8,3.8,0,1,0,3.8-3.7A3.7,3.7,0,0,0,879.7,7477.3Z" transform="translate(-828.6 -7422.4)"/><path class="cls-1" d="M898.6,7475.1c-1.7-1.7-3.5-2-5.1-1a4.1,4.1,0,0,0-1.2,4.9,3.6,3.6,0,0,0,4.4,2,2.7,2.7,0,0,0,2.2-2.9h-2.2l-0.7-.3a2.1,2.1,0,0,1,.7-0.3h2.9a3.9,3.9,0,0,1-4.5,4.4,4.1,4.1,0,0,1-3.7-3.2,4.6,4.6,0,0,1,1.6-4.9,4.8,4.8,0,0,1,5.1-.2l0.8,0.7C899.2,7474.6,899.2,7474.7,898.6,7475.1Z" transform="translate(-828.6 -7422.4)"/><path class="cls-1" d="M926.5,7472.9a4.4,4.4,0,0,1,4.6,4.5,4.5,4.5,0,0,1-4.6,4.4A4.4,4.4,0,1,1,926.5,7472.9Zm0,8.2a3.7,3.7,0,0,0,3.8-3.7,3.8,3.8,0,0,0-7.6-.1A3.8,3.8,0,0,0,926.4,7481.1Z" transform="translate(-828.6 -7422.4)"/><path class="cls-1" d="M912.1,7481.5v-8.4a10.9,10.9,0,0,1,4.5.4l0.6,0.3c1.6,1.4,1.7,3.1,1.2,5a3.4,3.4,0,0,1-3.3,2.6h-3Zm0.8-.6c1.6-.1,3.3.4,4.4-1.3a4.7,4.7,0,0,0-.1-4.7c-1.1-1.5-2.8-1.1-4.3-1.1v7.2Z" transform="translate(-828.6 -7422.4)"/><path class="cls-1" d="M870.9,7481.7V7473l2.9,0.2a1.8,1.8,0,0,1,1.5,1.6,2,2,0,0,1-1.2,2.2,2,2,0,0,1,1.6,2.6,1.9,1.9,0,0,1-1.6,1.7Zm0.7-2.4c0,1.9,0,2,1.9,1.7a1.5,1.5,0,0,0,1.5-1.7,1.4,1.4,0,0,0-1.5-1.6C871.6,7477.4,871.6,7477.4,871.6,7479.2Zm0.1-2.3c1-.1,2.1.3,2.7-0.6a2.2,2.2,0,0,0,0-1.9c-0.6-.9-1.7-0.5-2.6-0.6v3.1Z" transform="translate(-828.6 -7422.4)"/><path class="cls-1" d="M860.9,7481.4l3.6-8.7,3.6,8.7c-0.5.2-.9,0.1-1-0.5l-0.2-.6c-0.7-1.8-.7-1.8-2.6-1.8s-1.6,0-2.2,1.5a5.5,5.5,0,0,1-.4,1l-0.6.5Zm3.7-7h-0.2l-1.4,3.5h3Z" transform="translate(-828.6 -7422.4)"/><path class="cls-1" d="M905.7,7472.8l3.5,8.7-0.2.2-0.7-.5V7481c-0.3-.8-0.5-2-1-2.2a7.1,7.1,0,0,0-3-.1,0.8,0.8,0,0,0-.6.5c-0.3.6-.5,1.3-0.8,2a2.4,2.4,0,0,1-.7.6l-0.2-.2Zm1.4,5.2-1.5-3.8-1.5,3.8h3Z" transform="translate(-828.6 -7422.4)"/><path class="cls-1" d="M934,7480.2l0.5-.3a2,2,0,0,0,2,1.2,1.5,1.5,0,0,0,1.5-1,1.7,1.7,0,0,0-.3-2l-1.1-.8-1.2-.7a2,2,0,0,1,.8-3.7,2.1,2.1,0,0,1,2.4,1.2l-0.9-.2a1.6,1.6,0,0,0-2.3.2,1.5,1.5,0,0,0,.6,2.1l1.6,1a2.4,2.4,0,0,1,1.2,2.8,2.3,2.3,0,0,1-2.1,1.7A2.3,2.3,0,0,1,934,7480.2Z" transform="translate(-828.6 -7422.4)"/><path class="cls-1" d="M916.9,7463.9a7.3,7.3,0,1,1,7.3-7.1A7.2,7.2,0,0,1,916.9,7463.9Zm5.7-7.1h-0.2c-0.1-.7-0.1-1.4-0.2-2a5.3,5.3,0,0,0-4.8-4.7,5.1,5.1,0,0,0-5.5,3.7,8.9,8.9,0,0,0,.3,6.6,4.8,4.8,0,0,0,4.6,3,4.7,4.7,0,0,0,4.8-2.8A25.6,25.6,0,0,0,922.7,7456.8Z" transform="translate(-828.6 -7422.4)"/><path class="cls-1" d="M956.5,7456.7a7.3,7.3,0,1,1,7.3,7.2A7.2,7.2,0,0,1,956.5,7456.7Zm1.6,0.2a23.8,23.8,0,0,0,.8,3.4,4.9,4.9,0,0,0,5.1,3.1,5,5,0,0,0,4.7-3.6,10.6,10.6,0,0,0,.3-4.9,5.4,5.4,0,0,0-4.9-4.8,5.1,5.1,0,0,0-5.4,3.6A24.5,24.5,0,0,0,958.1,7456.9Z" transform="translate(-828.6 -7422.4)"/><path class="cls-1" d="M884.6,7463.9a7.3,7.3,0,1,1,7.3-7.2A7.2,7.2,0,0,1,884.6,7463.9Zm-5.5-7.5c0.1,1,.2,1.7.3,2.4a5.2,5.2,0,0,0,5.2,4.5,5.2,5.2,0,0,0,5.3-4.3,10.6,10.6,0,0,0-.1-4.9,5.1,5.1,0,0,0-4.8-4.1,5.1,5.1,0,0,0-5.4,3.5A19.9,19.9,0,0,0,879,7456.4Z" transform="translate(-828.6 -7422.4)"/><path class="cls-1" d="M842.6,7448v3.2l-0.3-.2a5.9,5.9,0,0,0-6.4-2.9,6,6,0,0,0-5,5,8.7,8.7,0,0,0,.9,7.2,6.5,6.5,0,0,0,7.5,2.4,31.7,31.7,0,0,0,3.1-1.2,6.4,6.4,0,0,1-2.7,1.9,8.2,8.2,0,0,1-9.1-2.2,8.5,8.5,0,0,1,8.8-13.6l1.3,0.3h1.9Z" transform="translate(-828.6 -7422.4)"/><path class="cls-1" d="M907.7,7447.8v2.3l-0.5-.7a3.5,3.5,0,0,0-5.1-.5,2.2,2.2,0,0,0-.1,3.5c0.8,0.7,1.7,1.2,2.4,1.8a18.4,18.4,0,0,1,2.9,2.7c2.1,2.8.8,6.2-2.7,7a7.1,7.1,0,0,1-4.2-.4,7.7,7.7,0,0,0-1.6-.3v-2.6l0.3,0.4a4.6,4.6,0,0,0,4.8,2.3,3,3,0,0,0,2.6-2.2,3,3,0,0,0-.7-3.3,33.5,33.5,0,0,0-2.9-2.4c-0.6-.5-1.4-0.9-2-1.5a3.5,3.5,0,0,1,.2-5.4,5.2,5.2,0,0,1,4.7-1Z" transform="translate(-828.6 -7422.4)"/><path class="cls-1" d="M940.3,7456.4l4.5-.2v1.4c-1.4-.9-2.9-0.3-4.6-0.5,0,1,0,2,0,3s0,1.5,0,2.2a0.8,0.8,0,0,0,.5.6h3.5a5.4,5.4,0,0,0,1.4-.6,3.9,3.9,0,0,0-.1.6c0,0.6-.2.8-0.8,0.8h-6.7c0.8-.9.6-2,0.6-3,0-2.8,0-5.6,0-8.4a21.5,21.5,0,0,0-.3-2.3h7.1v1.3c-1.5-1.1-3.2-.5-4.8-0.6a0.6,0.6,0,0,0-.4.5C940.3,7452.8,940.3,7454.5,940.3,7456.4Z" transform="translate(-828.6 -7422.4)"/><path class="cls-1" d="M849.8,7449.5l3.4,8.4,1.5,3.8c0.3,0.6.6,1.2,1,1.8h-2.5a13,13,0,0,0-.3-1.9c-0.3-.9-0.7-1.7-1-2.6a0.8,0.8,0,0,0-.8-0.6h-3.4a1.2,1.2,0,0,0-.8.6,23.9,23.9,0,0,0-1.1,2.9,8,8,0,0,0-.2,1.7H844c1.7-3,2.7-6.4,4-9.6C848.7,7452.5,849.2,7451.1,849.8,7449.5Zm1.5,8.1-1.9-4.8h-0.2l-1.8,4.8h4Z" transform="translate(-828.6 -7422.4)"/><path class="cls-1" d="M871,7464.1l-4.7-11.8a25.5,25.5,0,0,0-1.3-2.4h2.6a4.5,4.5,0,0,0,0,1.5l3.5,9.1,0.2,0.4,0.3-.6c1.1-2.9,2.2-5.7,3.3-8.6a6.3,6.3,0,0,0,.1-1.7h1.6c-1.8,2.6-2.4,5.7-3.7,8.5S871.8,7462,871,7464.1Z" transform="translate(-828.6 -7422.4)"/><path class="cls-1" d="M924.7,7451v-1.3a77.5,77.5,0,0,0,11,0v1.7c-1.2-1.5-2.9-.7-4.4-0.8a1.2,1.2,0,0,0-.3.7c0,2.3,0,4.5,0,6.8s0,2.2,0,3.3a2,2,0,0,0,1.1,2.1h-3.5a2.4,2.4,0,0,0,.9-2.3c0-3.2,0-6.5,0-9.7,0-.7-0.2-1-0.9-0.9H927Z" transform="translate(-828.6 -7422.4)"/><path class="cls-1" d="M956.4,7462l-0.3,1.6h-7.6c1-.8.8-1.9,0.8-2.9,0-2.9,0-5.9,0-8.8a11.4,11.4,0,0,0-.4-2.1h3a2.1,2.1,0,0,0-1,2.2c0,3.1,0,6.3,0,9.4,0,1.1.1,1.3,1.3,1.4S955.1,7463.2,956.4,7462Z" transform="translate(-828.6 -7422.4)"/><path class="cls-1" d="M865.5,7462l-0.2,1.5H858a17.2,17.2,0,0,0,.4-2.6c0-3.1,0-6.3,0-9.4a8.7,8.7,0,0,0-.4-1.7h2.9c-1.1.7-.9,1.7-0.9,2.7q0,4.3,0,8.7c0,1.4.2,1.6,1.6,1.7A5.1,5.1,0,0,0,865.5,7462Z" transform="translate(-828.6 -7422.4)"/><path class="cls-1" d="M898.3,7456.5a0.7,0.7,0,0,1-.8.9h-2.7a0.7,0.7,0,0,1,.9-0.9h2.6Z" transform="translate(-828.6 -7422.4)"/></svg>