<svg id="Grid" xmlns="http://www.w3.org/2000/svg" viewBox="0 0 170.6 47.6"><defs><style>.cls-1{fill:#8e8e8e;}</style></defs><title>partners3</title><path class="cls-1" d="M621.4,7479a25,25,0,0,0,8.6-1.5c1-.4.8-0.9,0.6-1.7s-0.8-.5-1.3-0.3a19.5,19.5,0,0,1-22.7-7.9c-4.8-7.5-3.8-16.9,2.7-23.6a1.3,1.3,0,0,0,.4-1.5c-0.6-1.8-1-3.7-1.5-5.5s-0.4-1.3-1.4-.5A23.7,23.7,0,0,0,621.4,7479Z" transform="translate(-597.7 -7431.4)"/><path class="cls-1" d="M645.3,7457.3c0.1-18.6-16.7-30.3-32-24.4a1.2,1.2,0,0,0-.8,1.8c0.4,1.1,1,.4,1.4.2a19.6,19.6,0,0,1,22.7,8.1,18.7,18.7,0,0,1-2.7,23.3,1.5,1.5,0,0,0-.4,1.7c0.5,1.8,1,3.6,1.4,5.4s0.5,1.1,1.4.5C642.1,7469.1,645.1,7462.9,645.3,7457.3Z" transform="translate(-597.7 -7431.4)"/><path class="cls-1" d="M608.3,7455.6c0,0.2,0,.7.1,1.2a13,13,0,0,0,7.3,10.3c0.2,0.1.6,0.5,0.8,0s-0.2-.5-0.5-0.6l-0.4-.2a11.3,11.3,0,0,1-5.4-11.9,10.6,10.6,0,0,1,9.3-8.7,3.7,3.7,0,0,0,3.3-2.2v-0.2c0.7-1.1.7-1.2-.6-1.3A13.2,13.2,0,0,0,608.3,7455.6Z" transform="translate(-597.7 -7431.4)"/><path class="cls-1" d="M619.3,7468.2l1.1,0.2a13.2,13.2,0,0,0,14.2-14.4,12.9,12.9,0,0,0-7.2-10.5c-0.3-.2-0.7-0.6-1-0.2s0.3,0.5.6,0.7h0.2a11.3,11.3,0,0,1,5.3,12.3,10.9,10.9,0,0,1-10.2,8.4,1.2,1.2,0,0,0-1.1.4Z" transform="translate(-597.7 -7431.4)"/><path class="cls-1" d="M655.2,7452.5c0,2.6,0,5.3,0,7.9a0.9,0.9,0,0,0,1.1,1.1c0.8,0,1.1-.2,1.1-1.1s0-4.4,0-6.6a0.9,0.9,0,0,1,1.2-1.2h5.1c0.7,0,1-.2,1-1s0-1.2-1-1.1h-5.4a0.8,0.8,0,0,1-1-1,16.3,16.3,0,0,0,0-2.6c-0.1-1.1.2-1.6,1.4-1.5h4.9c0.9,0,1-.4,1-1.1a0.8,0.8,0,0,0-1-1h-7.4a0.8,0.8,0,0,0-1,1C655.3,7447.3,655.2,7449.9,655.2,7452.5Z" transform="translate(-597.7 -7431.4)"/><path class="cls-1" d="M674.1,7451.7c0.2-1.3-.4-1.5-1.2-1.4s-0.6.8-.7,1.3c0,3,0,6,0,9a0.7,0.7,0,0,0,.9.9c0.7,0,1-.1,1-0.9s0-3.9,0-5.8a3,3,0,0,1,3.3-3.1c1.7,0.1,2.6,1.1,2.6,3.1s0,3.9,0,5.9a0.7,0.7,0,0,0,.9.9c0.6,0,1.1-.1,1.1-0.9-0.1-2.4,0-4.7,0-7.1a3.5,3.5,0,0,0-3.4-3.6A5.2,5.2,0,0,0,674.1,7451.7Z" transform="translate(-597.7 -7431.4)"/><path class="cls-1" d="M686.7,7451.6c0.1-1-.2-1.3-1.1-1.3s-0.8.8-.8,1.4c0,2.9,0,5.9,0,8.8,0,0.7.1,1.1,0.9,1a0.8,0.8,0,0,0,1-1.1c0-1.8,0-3.7,0-5.5a3.2,3.2,0,0,1,.7-2.3,3.3,3.3,0,0,1,3.5-.9,2.4,2.4,0,0,1,1.7,2.5c0.1,2.1.1,4.2,0,6.3a0.7,0.7,0,0,0,.9.9c0.5,0,1.1.1,1-.8,0-2.4,0-4.9-.1-7.3a3.5,3.5,0,0,0-3.4-3.5A5.1,5.1,0,0,0,686.7,7451.6Z" transform="translate(-597.7 -7431.4)"/><path class="cls-1" d="M747.1,7451.8c0.1-1.1-.2-1.6-1.2-1.5s-0.7.9-.7,1.4c0,2.9,0,5.9,0,8.8a1,1,0,1,0,1.9,0q-0.1-2.9,0-5.7a2.9,2.9,0,0,1,2.4-3.1c2.1-.5,3.4.6,3.5,2.9s0.1,4.1,0,6.1,0.2,0.9.9,0.8,1.1,0.2,1.1-.7c0-2.5.1-5-.1-7.4a3.5,3.5,0,0,0-3.6-3.4A4.8,4.8,0,0,0,747.1,7451.8Z" transform="translate(-597.7 -7431.4)"/><path class="cls-1" d="M713.8,7457.6l-0.6-1.2-2.4-5.5a1.9,1.9,0,0,0-2.1-.6c-0.5.5,0.1,0.9,0.3,1.2l4,8.6,0.9,1.8,0.5-.8,4.4-9.5c0.2-.4.7-0.9,0.4-1.3s-1-.1-1.5-0.1-0.6.5-.8,0.8l-2.1,4.9A3.1,3.1,0,0,1,713.8,7457.6Z" transform="translate(-597.7 -7431.4)"/><path class="cls-1" d="M734.1,7456.7c0,1.3,0,2.5,0,3.8s0.1,1,.9,1,1.1-.1,1.1-1c-0.1-2.5,0-5,0-7.4,0-.8.2-1.3,1.1-1.1a0.7,0.7,0,0,0,1-.8c0-.8-0.5-0.8-1-0.8s-1.1-.2-1-1,0-1.8,0-2.7-0.5-.8-1-0.8-1,0-.9.7,0,1.8,0,2.7-0.1,1.2-1,1.1-1.1,0-1.1.8,0.5,0.8,1,.7,1.1,0.2,1,1S734.1,7455.5,734.1,7456.7Z" transform="translate(-597.7 -7431.4)"/><path class="cls-1" d="M668.8,7455.9c0-1.6,0-3.2,0-4.7s-0.3-.9-0.9-0.9-1.1,0-1.1.9q0.1,4.7,0,9.5c0,0.8.3,0.9,1,.8s1.1,0,1.1-.9S668.8,7457.5,668.8,7455.9Z" transform="translate(-597.7 -7431.4)"/><path class="cls-1" d="M742,7455.8c0-1.6,0-3.2,0-4.7s-0.4-.8-0.9-0.7-1.1-.1-1.1.7q0,4.8,0,9.6c0,0.8.4,0.8,1,.8s1,0,1-.8S742,7457.4,742,7455.8Z" transform="translate(-597.7 -7431.4)"/><path class="cls-1" d="M741,7446.4a1.3,1.3,0,0,0,1.4-1.4,1.4,1.4,0,1,0-2.8.1A1.3,1.3,0,0,0,741,7446.4Z" transform="translate(-597.7 -7431.4)"/><path class="cls-1" d="M669.2,7445a1.3,1.3,0,0,0-1.4-1.4,1.4,1.4,0,1,0,.1,2.8A1.3,1.3,0,0,0,669.2,7445Z" transform="translate(-597.7 -7431.4)"/><path class="cls-1" d="M621.4,7479a23.7,23.7,0,0,1-14.6-42.4c1.1-.8,1.1-0.8,1.4.5s1,3.7,1.5,5.5a1.3,1.3,0,0,1-.4,1.5c-6.5,6.6-7.5,16-2.7,23.6a19.5,19.5,0,0,0,22.7,7.9c0.5-.2,1-0.7,1.3.3s0.4,1.3-.6,1.7A25,25,0,0,1,621.4,7479Z" transform="translate(-597.7 -7431.4)"/><path class="cls-1" d="M645.3,7457.3c-0.1,5.5-3.2,11.8-9.1,16.6-0.8.7-1.1,0.6-1.4-.5s-0.9-3.6-1.4-5.4a1.5,1.5,0,0,1,.4-1.7,18.7,18.7,0,0,0,2.7-23.3,19.6,19.6,0,0,0-22.7-8.1c-0.4.1-1.1,0.9-1.4-.2a1.2,1.2,0,0,1,.8-1.8C628.5,7427,645.3,7438.7,645.3,7457.3Z" transform="translate(-597.7 -7431.4)"/><path class="cls-1" d="M766.2,7452c0-1.2,0-1.9,1.2-1.7a0.8,0.8,0,0,1,.9.9c0,3.6,0,7.2-.1,10.8s-1.5,4.3-4.3,4.7a7.5,7.5,0,0,1-4.3-.5,3.5,3.5,0,0,1-2.1-2.3c-0.1-.5-0.7-1.3.1-1.5s1.7-.6,1.9.9,1.4,1.8,3.2,1.8,3-.7,3.3-2.1a10.7,10.7,0,0,0,.1-3.3,4.9,4.9,0,0,1-5,2l-0.8-.2c-2.6-.9-3.9-3.9-3.3-7.2a5,5,0,0,1,5.4-4.3A4.6,4.6,0,0,1,766.2,7452Zm-3.5-.2c-2.3,0-3.6,1.5-3.6,4s1.4,4.2,3.7,4.2,3.6-1.6,3.6-4S764.9,7451.8,762.7,7451.8Z" transform="translate(-597.7 -7431.4)"/><path class="cls-1" d="M608.3,7455.6a13.2,13.2,0,0,1,14.1-13.6c1.3,0.1,1.4.1,0.6,1.3v0.2a3.7,3.7,0,0,1-3.3,2.2,10.6,10.6,0,0,0-9.3,8.7,11.3,11.3,0,0,0,5.4,11.9l0.4,0.2c0.2,0.1.6,0.2,0.5,0.6s-0.6.1-.8,0a13,13,0,0,1-7.3-10.3C608.3,7456.3,608.3,7455.8,608.3,7455.6Z" transform="translate(-597.7 -7431.4)"/><path class="cls-1" d="M619.3,7468.2l2-3a1.2,1.2,0,0,1,1.1-.4,10.9,10.9,0,0,0,10.2-8.4,11.3,11.3,0,0,0-5.3-12.3h-0.2c-0.3-.2-0.9-0.2-0.6-0.7s0.7,0,1,.2a12.9,12.9,0,0,1,7.2,10.5,13.2,13.2,0,0,1-14.2,14.4Z" transform="translate(-597.7 -7431.4)"/><path class="cls-1" d="M728.8,7451.7c0.4-.5-0.2-1.5,1-1.4s1.2,0.2,1.2,1.1c-0.1,2.9,0,5.9,0,8.8,0,0.5.4,1.3-.7,1.3s-1.3-.2-1.2-1.1v-0.2c-3.5,2.3-6.1,2.2-7.9-.1s-1.6-6.9.5-8.9S726.4,7449.5,728.8,7451.7Zm-7,4.2c0,2.6,1.3,4.1,3.6,4.1s3.6-1.5,3.6-3.9-1.5-4.2-3.7-4.2S721.7,7453.4,721.8,7455.9Z" transform="translate(-597.7 -7431.4)"/><path class="cls-1" d="M655.2,7452.5c0-2.6,0-5.2,0-7.8a0.8,0.8,0,0,1,1-1h7.4a0.8,0.8,0,0,1,1,1c0,0.7-.1,1.1-1,1.1h-4.9c-1.2-.1-1.6.4-1.4,1.5a16.3,16.3,0,0,1,0,2.6,0.8,0.8,0,0,0,1,1h5.4c0.9,0,.9.4,1,1.1s-0.3,1-1,1h-5.1a0.9,0.9,0,0,0-1.2,1.2c0.1,2.2,0,4.4,0,6.6s-0.3,1.1-1.1,1.1a0.9,0.9,0,0,1-1.1-1.1C655.3,7457.7,655.2,7455.1,655.2,7452.5Z" transform="translate(-597.7 -7431.4)"/><path class="cls-1" d="M702.2,7449.9a6,6,0,0,1,6,6,6.1,6.1,0,0,1-12.1-.1A5.9,5.9,0,0,1,702.2,7449.9Zm0,1.9a4.1,4.1,0,1,0,4,4.1A4,4,0,0,0,702.2,7451.8Z" transform="translate(-597.7 -7431.4)"/><path class="cls-1" d="M674.1,7451.7a5.2,5.2,0,0,1,4.5-1.8,3.5,3.5,0,0,1,3.4,3.6c0.1,2.4,0,4.7,0,7.1,0,0.8-.4.9-1.1,0.9a0.7,0.7,0,0,1-.9-0.9c0-1.9,0-3.9,0-5.9s-0.9-3.1-2.6-3.1a3,3,0,0,0-3.3,3.1c-0.1,1.9-.1,3.9,0,5.8s-0.3.9-1,.9a0.7,0.7,0,0,1-.9-0.9c0-3,0-6,0-9,0-.5-0.4-1.2.7-1.3S674.2,7450.4,674.1,7451.7Z" transform="translate(-597.7 -7431.4)"/><path class="cls-1" d="M686.7,7451.6a5.1,5.1,0,0,1,4.4-1.7,3.5,3.5,0,0,1,3.4,3.5c0.1,2.4,0,4.9.1,7.3,0,0.8-.5.7-1,0.8a0.7,0.7,0,0,1-.9-0.9c0-2.1,0-4.2,0-6.3a2.4,2.4,0,0,0-1.7-2.5,3.3,3.3,0,0,0-3.5.9,3.2,3.2,0,0,0-.7,2.3c0,1.8,0,3.7,0,5.5a0.8,0.8,0,0,1-1,1.1c-0.8,0-.9-0.4-0.9-1,0-2.9,0-5.9,0-8.8,0-.6-0.4-1.3.8-1.4S686.8,7450.6,686.7,7451.6Z" transform="translate(-597.7 -7431.4)"/><path class="cls-1" d="M747.1,7451.8a4.8,4.8,0,0,1,4.3-1.9,3.5,3.5,0,0,1,3.6,3.4c0.1,2.5,0,5,.1,7.4,0,0.9-.6.6-1.1,0.7s-0.9-.2-0.9-0.8,0.1-4.1,0-6.1-1.4-3.3-3.5-2.9a2.9,2.9,0,0,0-2.4,3.1q-0.1,2.9,0,5.7a1,1,0,1,1-1.9,0c0-2.9,0-5.9,0-8.8,0-.5-0.4-1.3.7-1.4S747.2,7450.7,747.1,7451.8Z" transform="translate(-597.7 -7431.4)"/><path class="cls-1" d="M713.8,7457.6a3.1,3.1,0,0,0,.9-1.6l2.1-4.9c0.2-.4.2-0.8,0.8-0.8s1.2-.3,1.5.1-0.2.9-.4,1.3l-4.4,9.5-0.5.8-0.9-1.8-4-8.6c-0.2-.4-0.8-0.8-0.3-1.2a1.9,1.9,0,0,1,2.1.6l2.4,5.5Z" transform="translate(-597.7 -7431.4)"/><path class="cls-1" d="M734.1,7456.7c0-1.3,0-2.5,0-3.8s-0.3-1.1-1-1-1,.1-1-0.7,0.5-.9,1.1-0.8,1-.3,1-1.1,0-1.8,0-2.7,0.4-.7.9-0.7,1.1-.1,1,0.8,0,1.8,0,2.7,0.2,1.1,1,1,1,0,1,.8a0.7,0.7,0,0,1-1,.8c-0.9-.1-1.1.3-1.1,1.1,0,2.5,0,5,0,7.4,0,0.9-.3,1-1.1,1s-0.9-.3-0.9-1S734.1,7458,734.1,7456.7Z" transform="translate(-597.7 -7431.4)"/><path class="cls-1" d="M668.8,7455.9c0,1.6,0,3.2,0,4.7s-0.5.8-1.1,0.9-1-.1-1-0.8q0.1-4.7,0-9.5c0-.9.5-0.8,1.1-0.9s1,0.1.9,0.9S668.8,7454.3,668.8,7455.9Z" transform="translate(-597.7 -7431.4)"/><path class="cls-1" d="M742,7455.8c0,1.6,0,3.2,0,4.9s-0.4.8-1,.8-1,0-1-.8q0-4.8,0-9.6c0-.9.5-0.7,1.1-0.7s0.9,0,.9.7S742,7454.2,742,7455.8Z" transform="translate(-597.7 -7431.4)"/><path class="cls-1" d="M741,7446.4a1.3,1.3,0,0,1-1.4-1.3,1.4,1.4,0,1,1,2.8-.1A1.3,1.3,0,0,1,741,7446.4Z" transform="translate(-597.7 -7431.4)"/><path class="cls-1" d="M669.2,7445a1.3,1.3,0,0,1-1.3,1.4,1.4,1.4,0,1,1-.1-2.8A1.3,1.3,0,0,1,669.2,7445Z" transform="translate(-597.7 -7431.4)"/></svg>