<svg id="Grid" xmlns="http://www.w3.org/2000/svg" viewBox="0 0 194.6 44"><defs><style>.cls-1{fill:#8e8e8e;}</style></defs><title>partners1</title><path class="cls-1" d="M150.3,7452.5c0-6.5,0-12.9,0-19.4,0-1,.2-1.2,1.2-1.2h6.6c0.8,0,1,.2,1,1q0,19.6,0,39.1a0.9,0.9,0,0,1-1.1,1.1h-6.6c-1,0-1.1-.3-1.1-1.2C150.4,7465.5,150.3,7459,150.3,7452.5Z" transform="translate(-150.3 -7431.7)"/><path class="cls-1" d="M187.4,7452.5c0,6.5,0,12.9,0,19.4,0,0.9-.2,1.3-1.2,1.2h-6.6c-0.8,0-1-.2-1-1q0-19.6,0-39.3c0-.7.2-0.9,0.9-0.9h6.9c0.9,0,1,.4,1,1.1C187.4,7439.5,187.4,7446,187.4,7452.5Z" transform="translate(-150.3 -7431.7)"/><path class="cls-1" d="M206.9,7458.9c0-4.3,0-8.6,0-12.9a0.9,0.9,0,0,1,1.2-1.1h6.7a0.8,0.8,0,0,1,.9.9q0,13.2,0,26.4a0.8,0.8,0,0,1-.9.9H208a0.9,0.9,0,0,1-1.2-1.1C206.9,7467.6,206.9,7463.3,206.9,7458.9Z" transform="translate(-150.3 -7431.7)"/><path class="cls-1" d="M201.5,7459c0,4.3,0,8.6,0,12.9,0,0.9-.2,1.2-1.1,1.2h-6.4a1,1,0,0,1-1.2-1.2q0-12.9,0-25.8c0-.9.3-1.3,1.2-1.3h6.3a1,1,0,0,1,1.2,1.2C201.5,7450.4,201.5,7454.7,201.5,7459Z" transform="translate(-150.3 -7431.7)"/><path class="cls-1" d="M173.2,7446.1c0,4.3,0,8.5,0,12.8,0,1.1-.3,1.3-1.3,1.3h-6.3c-0.8,0-1.1-.2-1.1-1q0-13.1,0-26.2c0-.7.1-1,0.9-0.9h6.9c0.8,0,1,.3,1,1C173.2,7437.3,173.2,7441.7,173.2,7446.1Z" transform="translate(-150.3 -7431.7)"/><path class="cls-1" d="M218.4,7431.9h10.3c0.9,0,1.2.2,1.1,1.1s0,4.1,0,6.2-0.1,1-1,1h-21a0.7,0.7,0,0,1-.9-0.9c0-2.1.1-4.3,0-6.5s0.3-.9,1-0.9h10.4Z" transform="translate(-150.3 -7431.7)"/><path class="cls-1" d="M249.2,7435.5c0,1.8,0,3.7.1,5.5s-0.6.8-1.2,0.8-1.3.3-1.3-.8c0-2.8,0-5.6,0-8.4,0-.6.2-0.9,0.8-0.8h0.1c2.7-.2,2.7-0.2,3.4,2.5a20.8,20.8,0,0,0,1.3,3.7c0.4-1.6.9-3.2,1.3-4.9a1.4,1.4,0,0,1,1.7-1.4c2.3,0.1,2.3,0,2.3,2.3s-0.1,4.5,0,6.7-0.9.9-1.6,1-0.9-.3-0.9-1a37.6,37.6,0,0,0-.1-5.3c-0.5,1.7-1,3.4-1.5,5.2a1.5,1.5,0,0,1-2.9,0c-0.4-1.7-.9-3.4-1.4-5.2a1.1,1.1,0,0,0-.5-1.1A1,1,0,0,0,249.2,7435.5Z" transform="translate(-150.3 -7431.7)"/><path class="cls-1" d="M197.3,7431.9c1.2,0.1,3.1-.6,4,0.3s0.2,2.7.2,4.1,0,2,0,3-0.2.9-.9,0.9h-6.9c-0.7,0-1.1-.2-1-1s0.1-4.2,0-6.3,0.3-1.1,1.1-1h3.5Z" transform="translate(-150.3 -7431.7)"/><path class="cls-1" d="M338.1,7440.7c-0.5.7-.8,1.4-2,1.2s-1.9-.6-1.9-2,0-2,0-3a0.8,0.8,0,0,0-1-.9c-0.6,0-1.1.1-1,.9s0,1.6,0,2.3-0.1.8,0.5,0.8,0.8,0.7.8,1.2-0.7.7-1.2,0.7-2.3-.5-2.3-2.2,0-1.6,0-2.3,0.2-1.2-.8-1.4-0.5-1.1-.1-1.2,0.9-.9.9-1.5,0.4-.9,1.1-0.9,1.3,0,1.2,1-0.4,1.3.8,1.3,1.2-.2,1.1-1.1,0.1-1.3,1.1-1.3a0.9,0.9,0,0,1,1.1,1.2c-0.1.6,0,1.2,0.9,1.1s0.5,0.3.5,0.7-0.1.7-.6,0.7-0.9.4-.8,1,0,0.2,0,.3-0.4,2.9,1.7,3.2v0.2Z" transform="translate(-150.3 -7431.7)"/><path class="cls-1" d="M307,7472.6c-1.9-.8-2.5-2-2.2-4.3a2.8,2.8,0,0,1,2.6-2.7c1.3-.1,2.7.3,4,0.1s0.5,0.4.5,0.8c0,2.1,0,4.3,0,6.4a2.5,2.5,0,0,1-2.2,2.6,5.6,5.6,0,0,1-3.6-.3,1.8,1.8,0,0,1-1.2-1.8c0.2-.9,1-0.3,1.6-0.4H307a1.4,1.4,0,0,0,1.7,1.2,1.1,1.1,0,0,0,1-1.4c-0.1-1.1-.7-0.2-1.1-0.2H307Zm2.7-3.5c-0.1-.9-0.2-1.9-1.4-1.9s-1.3,1-1.3,2,0.2,1.8,1.4,1.8S309.6,7469.9,309.7,7469.2Z" transform="translate(-150.3 -7431.7)"/><path class="cls-1" d="M266.3,7471.3c0.7-.2.4-0.7,0.4-1.1,0-2.1.1-4.1,0-6.2s0.4-1,1.1-1,1.3,0.1,1.1,1a17.4,17.4,0,0,0,0,1.9,1.6,1.6,0,0,0,1.2-.3,2.3,2.3,0,0,1,3.2,2.2c0.1,1.5,0,3,0,4.5s-0.5.9-1.1,0.9-1.2.1-1.1-.9,0-2.4,0-3.6a1.1,1.1,0,0,0-1-1.3,1.1,1.1,0,0,0-1.1,1.3c0,1.1,0,2.2,0,3.3s0.1,1.2-.8,1.2-1.6.2-1.4-1,0.1-.7-0.4-0.7h0Z" transform="translate(-150.3 -7431.7)"/><path class="cls-1" d="M299.6,7434.9l1.4-.6a2.2,2.2,0,0,1,3,2.2c0,1.5,0,3,0,4.5s-0.6.8-1.2,0.8-1.1.1-1.1-.8,0-2.3,0-3.4-0.2-1.4-1.1-1.4-1.1.7-1.1,1.5-0.1,2.2,0,3.3-0.4,1-1.1.9-1.2.2-1.2-.8q0.1-4.2,0-8.4c0-.9.4-0.9,1-0.8s1.3-.3,1.2.8S299.6,7434,299.6,7434.9Z" transform="translate(-150.3 -7431.7)"/><path class="cls-1" d="M287.7,7453.7q0,1.1,0,2.2c0,1.5-.3,1.9-1.7,1.5a2.8,2.8,0,0,0-1.7.1c-1.8.6-3.1-.3-3.2-2.2s0-3-.1-4.5,0.6-.8,1.2-0.8,1.2-.1,1.2.9,0,2.4,0,3.6,0.1,1.3,1,1.3a1.1,1.1,0,0,0,1.2-1.3c0-1.2.1-2.4,0-3.6s0.5-.9,1.1-0.9,1.2-.1,1.1.9S287.7,7452.7,287.7,7453.7Z" transform="translate(-150.3 -7431.7)"/><path class="cls-1" d="M251.3,7453.6c0-.8,0-1.7,0-2.5s0.1-1.3,1.1-1.2a8.6,8.6,0,0,0,2.7-.1c1.8-.4,2.8.5,2.8,2.4s0,2.8,0,4.3-0.6.9-1.2,0.9-1.1-.1-1.1-1,0-2.4,0-3.6a1,1,0,0,0-1-1.2,1,1,0,0,0-1.1,1.3c0,1.1-.1,2.2,0,3.3s-0.3,1.2-1.2,1.2-1.2-.3-1.1-1.2S251.3,7454.5,251.3,7453.6Z" transform="translate(-150.3 -7431.7)"/><path class="cls-1" d="M326,7438.5h-1.5c-0.4,0-.9-0.3-1,0.3a1.1,1.1,0,0,0,.7,1.2,1.7,1.7,0,0,0,2.2-.5c0.7-1.1,1.4-.2,1.8.1s-0.2.8-.5,1.1a4.1,4.1,0,0,1-5.3.4,4.4,4.4,0,0,1-.9-5.3,3.7,3.7,0,0,1,7,1.9c0,0.6-.3.6-0.7,0.6H326Zm-1.1-1.3c0.4-.4,1.2.4,1.2-0.5a1.1,1.1,0,0,0-1.3-.9,1.1,1.1,0,0,0-1.3,1C323.6,7437.6,324.5,7436.9,324.9,7437.2Z" transform="translate(-150.3 -7431.7)"/><path class="cls-1" d="M288.7,7438.8c0,0.5,0,1.1,0,1.6s-0.5,1.8-1.6,1.3a1.6,1.6,0,0,0-1.6.1,2.5,2.5,0,0,1-3.4-1.4,2.2,2.2,0,0,1,1.5-2.8l1.8-.5c0.4-.1.9,0,0.9-0.6a0.6,0.6,0,0,0-.4-0.7,0.9,0.9,0,0,0-1.1.2,1.4,1.4,0,0,1-1.5.6c-0.3,0-.8.2-0.9-0.3a1.2,1.2,0,0,1,.3-1c0.7-1,2.6-1.3,4.3-.9s1.7,1.4,1.6,2.6S288.7,7438.2,288.7,7438.8Zm-3.6,1.5a1.5,1.5,0,0,0,1.3-1.3c0.1-.4-0.1-0.6-0.4-0.4s-1.6.2-1.7,1.1S284.7,7440.2,285.2,7440.3Z" transform="translate(-150.3 -7431.7)"/><path class="cls-1" d="M256.1,7469.9h-1.6c-0.3,0-.7-0.2-0.8.3a1,1,0,0,0,.3.9,1.7,1.7,0,0,0,2.5,0c0.4-.3.5-0.8,1.2-0.4s1,0.8.3,1.5a4.3,4.3,0,0,1-5.3.5,4.4,4.4,0,0,1-.9-5.5,3.8,3.8,0,0,1,4.7-1.5,3.9,3.9,0,0,1,2.3,3.7c0,0.5-.3.4-0.6,0.4h-2.1Zm-1.1-1.3c0.5-.3,1.3.3,1.4-0.4a1.1,1.1,0,0,0-1.3-1,1.1,1.1,0,0,0-1.3,1C253.8,7468.9,254.6,7468.2,255,7468.5Z" transform="translate(-150.3 -7431.7)"/><path class="cls-1" d="M312.5,7438.1q0,1,0,2.1c0,1.7-.2,2-1.9,1.6a2.7,2.7,0,0,0-1.5.1c-2,.6-3.3-0.3-3.3-2.3s0-2.8,0-4.2,0.7-.8,1.3-0.9,1.1,0,1.1.9,0,2.5,0,3.7a0.9,0.9,0,0,0,1,1.2,1,1,0,0,0,1.1-1.1c0-1.1,0-2.2,0-3.3s0.1-1.4,1.2-1.4,1.2,0.6,1.1,1.4S312.5,7437.3,312.5,7438.1Z" transform="translate(-150.3 -7431.7)"/><path class="cls-1" d="M266,7438.8c0,0.5,0,1.1,0,1.6s-0.4,1.7-1.6,1.3a1.9,1.9,0,0,0-1.5.1c-1.6.5-3-.1-3.4-1.3s0.3-2.6,2.1-3.1l1.3-.3c0.3-.1.8,0,0.9-0.5a0.7,0.7,0,0,0-.3-0.7,0.9,0.9,0,0,0-1.1.1c-0.5.7-1.1,0.6-1.8,0.6s-0.9-.4-0.6-1.1a2.2,2.2,0,0,1,1.4-1.1,5,5,0,0,1,3.4.1,2.2,2.2,0,0,1,1.4,2.5C266,7437.6,266,7438.2,266,7438.8Zm-2.2.1c0.1-.4-0.1-0.5-0.5-0.4s-1.5.2-1.7,1.1a0.6,0.6,0,0,0,.7.7A1.5,1.5,0,0,0,263.8,7438.9Z" transform="translate(-150.3 -7431.7)"/><path class="cls-1" d="M294,7453.7c0-2.4,1.3-3.9,3.4-4a3.5,3.5,0,0,1,4,3.4c0.1,0.7-.1,1.1-0.9,1H297c-0.9,0-.8.4-0.5,0.9a1.6,1.6,0,0,0,2.7.2c0.4-.3.6-0.7,1.2-0.4s1,0.8.3,1.5a4.3,4.3,0,0,1-4.6.9A3.5,3.5,0,0,1,294,7453.7Zm3.7-.9c0.4-.2,1.2.4,1.3-0.4a1,1,0,0,0-1.2-1,1.2,1.2,0,0,0-1.4,1C296.5,7453.1,297.3,7452.5,297.7,7452.8Z" transform="translate(-150.3 -7431.7)"/><path class="cls-1" d="M287,7465.5a3.7,3.7,0,0,1,4,3.8,4,4,0,0,1-7.9.1A3.6,3.6,0,0,1,287,7465.5Zm1.8,3.9c0-1.3-.7-2.2-1.8-2.2a1.9,1.9,0,0,0-1.7,2.1,2,2,0,0,0,1.8,2.2A1.9,1.9,0,0,0,288.8,7469.4Z" transform="translate(-150.3 -7431.7)"/><path class="cls-1" d="M310,7449.7a3.9,3.9,0,1,1-.1,7.8,3.7,3.7,0,0,1-3.9-4A3.7,3.7,0,0,1,310,7449.7Zm-1.8,3.8a2,2,0,0,0,1.7,2.2,1.9,1.9,0,0,0,1.7-2.1c0-1.3-.7-2.2-1.7-2.2A1.8,1.8,0,0,0,308.2,7453.6Z" transform="translate(-150.3 -7431.7)"/><path class="cls-1" d="M296,7469.4a3.6,3.6,0,0,1,3.9-4,3.9,3.9,0,1,1,.1,7.8A3.7,3.7,0,0,1,296,7469.4Zm5.7,0c0-1.4-.7-2.2-1.7-2.2a1.8,1.8,0,0,0-1.7,2.1,1.9,1.9,0,0,0,1.7,2.2A1.9,1.9,0,0,0,301.7,7469.4Z" transform="translate(-150.3 -7431.7)"/><path class="cls-1" d="M316.2,7470.3a21.8,21.8,0,0,0,1-3.8,1.8,1.8,0,0,1,2.3-.8,0.6,0.6,0,0,1,0,.7c-0.8,2.6-1.6,5.1-2.5,7.7a2.6,2.6,0,0,1-3.3,1.4c-0.6-.2-0.3-0.7-0.3-1.1a0.6,0.6,0,0,1,.7-0.8c1.1,0.1,1-.5.8-1.3s-1.2-3.7-1.7-5.6c-0.1-.3-0.7-1,0.1-1.1s1.7-.7,2.1.5S315.9,7468.8,316.2,7470.3Z" transform="translate(-150.3 -7431.7)"/><path class="cls-1" d="M281.8,7470a14.5,14.5,0,0,0,0,1.9c0.1,1.1-.3,1.3-1.3,1.3s-1-.2-0.9-0.9,0-2.4,0-3.6-0.1-1.3-1-1.3-1,.6-1,1.3-0.1,2.4,0,3.6-0.6.9-1.2,0.9-1.1,0-1.1-.9,0-3.7,0-5.6,0.2-1,.9-0.9a13.4,13.4,0,0,0,3.2-.1c1.6-.3,2.5.6,2.5,2.2s0,1.5,0,2.2h0Z" transform="translate(-150.3 -7431.7)"/><path class="cls-1" d="M313.4,7440.5c0.6-.8,1.2-1.7,2.3-0.6a1.6,1.6,0,0,0,1.2.3c0.4,0,1,0,1.1-.6s-0.6-.6-1-0.7l-1.6-.4a1.9,1.9,0,0,1-1.5-1.7,2.2,2.2,0,0,1,1-2.1,4.8,4.8,0,0,1,5,.2c0.3,0.2.4,0.4,0.1,0.6s-0.7,1.1-1.4.7a2.8,2.8,0,0,0-1.7-.5c-0.3,0-.7.1-0.7,0.5a0.6,0.6,0,0,0,.6.5,11.9,11.9,0,0,1,2.2.6,2,2,0,0,1,1.4,1.8,2.3,2.3,0,0,1-1.3,2.2A5.1,5.1,0,0,1,313.4,7440.5Z" transform="translate(-150.3 -7431.7)"/><path class="cls-1" d="M277.7,7434.1a5,5,0,0,1,2.3.5c0.4,0.2,1.2.3,0.9,0.9s-0.8,1.4-1.7.7l-0.4-.2c-0.6-.2-1.5-0.5-1.7.2s0.7,0.5,1.2.7,2.5,0.4,2.8,1.8a2.2,2.2,0,0,1-1.3,2.7,5,5,0,0,1-5-.3c-0.3-.2-1-0.4-0.5-0.9s0.7-1.3,1.5-.7a2.9,2.9,0,0,0,2.2.6,0.7,0.7,0,0,0,.8-0.6,0.6,0.6,0,0,0-.7-0.5l-1.5-.3c-1.1-.3-2-0.8-2-2.1a2.3,2.3,0,0,1,1.9-2.4Z" transform="translate(-150.3 -7431.7)"/><path class="cls-1" d="M273.8,7435.2c-0.7.9-1.3,1.5-2.4,0.8a1.9,1.9,0,0,0-.9-0.2,0.7,0.7,0,0,0-.8.4c-0.1.4,0.3,0.5,0.6,0.6l2.2,0.6a1.9,1.9,0,0,1,1.4,1.8,2.1,2.1,0,0,1-1.1,2.1,4.9,4.9,0,0,1-5.2-.2c-0.3-.2-1-0.4-0.5-0.8s0.7-1.4,1.6-.7a2.7,2.7,0,0,0,1.9.6c0.4,0,.9-0.1.9-0.6s-0.5-.5-0.8-0.6l-1.6-.3a2,2,0,0,1-1.7-2,2.2,2.2,0,0,1,1.6-2.3A5,5,0,0,1,273.8,7435.2Z" transform="translate(-150.3 -7431.7)"/><path class="cls-1" d="M246.8,7469.1a16.3,16.3,0,0,1,0-1.9c0.2-1.4,0-2.4-1.8-2.1s-0.7-.6-0.7-1.1-0.1-1,.7-1h6.2c0.9,0,.7.6,0.7,1.1s0.1,1.1-.7,1h-0.8c-0.9-.1-1.1.3-1.1,1.1s0,3.9,0,5.9-0.6,1-1.3,1-1.4.2-1.3-1A29.8,29.8,0,0,0,246.8,7469.1Z" transform="translate(-150.3 -7431.7)"/><path class="cls-1" d="M338.1,7440.7v-0.2c0.6-1,1.2-1.4,2.2-.5l0.6,0.2c0.6,0,1.5.3,1.6-.6s-0.8-.5-1.3-0.7h-0.5c-1.6-.3-2.4-1-2.3-2.2a2.7,2.7,0,0,1,2.5-2.4,4.7,4.7,0,0,1,2.9.5c0.3,0.2,1.1.2,0.7,0.8s-0.7,1.2-1.5.7a2.7,2.7,0,0,0-1.7-.4,0.6,0.6,0,0,0-.6.5,0.5,0.5,0,0,0,.5.5l2.1,0.5a2,2,0,0,1,1.6,2,2.3,2.3,0,0,1-1.4,2.2A5,5,0,0,1,338.1,7440.7Z" transform="translate(-150.3 -7431.7)"/><path class="cls-1" d="M262.3,7457.5a4,4,0,0,1-2.4-.7c-0.4-.2-1.3-0.3-0.8-1.1s0.8-1.3,1.8-.5a2.1,2.1,0,0,0,2.2.4,0.6,0.6,0,0,0,.5-0.6,0.5,0.5,0,0,0-.5-0.4l-2.1-.5a1.9,1.9,0,0,1-1.5-1.7,2.2,2.2,0,0,1,1.1-2.2,5,5,0,0,1,4.8.2c0.2,0.2.6,0.4,0.2,0.6s-0.7,1.2-1.5.8a2.7,2.7,0,0,0-1.7-.4,0.6,0.6,0,0,0-.6.4c-0.1.4,0.3,0.4,0.5,0.5l1.6,0.4c1.1,0.3,2.1.8,2.1,2.2a2.5,2.5,0,0,1-2.2,2.5Z" transform="translate(-150.3 -7431.7)"/><path class="cls-1" d="M266.3,7471.3h0a3.7,3.7,0,0,1-5.4,1.1,4.4,4.4,0,0,1-.6-5.8,3.8,3.8,0,0,1,5.3-.5c0.3,0.3,1.1.6,0.5,1.1s-0.9,1.2-1.7.3a1.2,1.2,0,0,0-2-.1,2.8,2.8,0,0,0,.1,3.4,1.3,1.3,0,0,0,2-.1C265.3,7470,265.7,7471,266.3,7471.3Z" transform="translate(-150.3 -7431.7)"/><path class="cls-1" d="M297.1,7440a3.7,3.7,0,0,1-5.4,1.4c-1.7-1.1-2.1-4-.8-5.8a3.8,3.8,0,0,1,5.1-.7c0.4,0.3,1.1.7,0.7,1.2s-1,1.2-1.9.3a1.2,1.2,0,0,0-2.1.5,2.6,2.6,0,0,0,.3,3,1.1,1.1,0,0,0,1.7.2C295.6,7438.9,296.3,7439.5,297.1,7440Z" transform="translate(-150.3 -7431.7)"/><path class="cls-1" d="M290.8,7447.9c1-.2,1.3.1,1.2,1.1s0,1.3,1,1.2,0.5,0.3.5,0.6,0.1,0.8-.4.7-1,.8-1.1,1.5,0,1.2,0,1.8,0.1,0.8.6,0.7,0.7,0.5.8,1.1-0.5.8-1,.8-2.6-.5-2.6-2.3,0-1.6,0-2.5,0.2-1-.7-1.2a0.7,0.7,0,0,1,0-1.2c1-.2.7-0.8,0.7-1.3S290,7447.6,290.8,7447.9Z" transform="translate(-150.3 -7431.7)"/><path class="cls-1" d="M315.6,7454.4q0-1,0-2.1c0-.4,0-0.9-0.6-0.8s-0.5-.3-0.5-0.7,0-.7.5-0.7,0.7-.4.7-0.8a2.3,2.3,0,0,1,3.2-2c0.5,0.2.4,0.5,0.4,0.9s0.1,0.9-.5.9a0.7,0.7,0,0,0-.8.7c0,0.6.5,0.4,0.9,0.4s0.6,0.3.6,0.7-0.1.7-.6,0.7-0.9.5-.9,1.1,0,2.6,0,4-0.5.8-1.1,0.8-1.2.2-1.2-.8S315.6,7455.1,315.6,7454.4Z" transform="translate(-150.3 -7431.7)"/><path class="cls-1" d="M249.5,7452.5c0,1.3,0,2.7,0,4s-0.8.8-1.4,0.9-1.3.1-1.2-.9c0.1-2.7.1-5.5,0-8.2,0-1.2.8-.8,1.4-0.9s1.3-.1,1.2.9S249.5,7451.1,249.5,7452.5Z" transform="translate(-150.3 -7431.7)"/><path class="cls-1" d="M267.4,7453.9c0-.5,0-1,0-1.5a0.8,0.8,0,0,0-.6-1,0.6,0.6,0,0,1-.1-1.2c1-.2.8-0.8,0.7-1.3s0.3-1.1,1.1-1,1.3,0,1.2,1-0.2,1.4.9,1.3,0.4,0.4.5,0.8-0.1.6-.5,0.6-0.9.5-.9,1.1,0,1.5,0,2.2,0.1,0.8.6,0.8,0.8,0.6.8,1.2-0.7.7-1.1,0.7-2.4-.5-2.5-2.3S267.4,7454.3,267.4,7453.9Z" transform="translate(-150.3 -7431.7)"/><path class="cls-1" d="M277.5,7447.9c0.9-.2,1.3.2,1.2,1.1s-0.1,1.3.9,1.2,0.5,0.4.5,0.8-0.1.6-.5,0.6-0.9.4-.9,1.1,0,1.5,0,2.2,0,0.8.5,0.8,0.8,0.7.8,1.2-0.7.7-1.1,0.7-2.4-.6-2.4-2.2,0-1.7,0-2.6,0.2-1.2-.7-1.1-0.4-.3-0.4-0.6-0.1-.7.4-0.7,0.8-.6.7-1.1S276.5,7447.6,277.5,7447.9Z" transform="translate(-150.3 -7431.7)"/><path class="cls-1" d="M294.6,7468c0,1.4-.1,2.8,0,4.3s-0.5.9-1.1,0.9-1.2.2-1.2-.8q0.1-4.2,0-8.4c0-1,.6-0.8,1.2-0.8s1.1,0,1.1.9S294.6,7466.7,294.6,7468Z" transform="translate(-150.3 -7431.7)"/><path class="cls-1" d="M272.1,7453.6c0-.8,0-1.6,0-2.5s0.1-1.3,1.1-1.3,1.1,0.5,1.1,1.3-0.1,3.6,0,5.3-0.5.8-1.1,0.9-1.2.1-1.1-.9S272.1,7454.6,272.1,7453.6Z" transform="translate(-150.3 -7431.7)"/><path class="cls-1" d="M273.2,7449.1c-0.6,0-1.1.1-1.1-.8s0.5-1,1.2-1,1.2,0,1.1,1S273.8,7449.1,273.2,7449.1Z" transform="translate(-150.3 -7431.7)"/><path class="cls-1" d="M249.2,7435.5a1,1,0,0,1-.1-1.1,1.1,1.1,0,0,1,.5,1.1h-0.4Z" transform="translate(-150.3 -7431.7)"/></svg>