<svg id="Grid" xmlns="http://www.w3.org/2000/svg" viewBox="0 0 144.3 44.8"><defs><style>.cls-1{fill:#8e8e8e;}</style></defs><title>partners2</title><path class="cls-1" d="M523.5,7459.1v-9.6c0-4.4-.1-8-0.3-11.5h0.2a92.9,92.9,0,0,0,4.8,9.3l7,11.9h5.1v-26.9h-4.6v9.4a110,110,0,0,0,.4,11.2h-0.1a80.2,80.2,0,0,0-4.6-9l-6.9-11.5H519v26.9h4.6Zm-15.1,0h4.9v-26.9h-4.9v26.9Zm-19.2-11.3,2.1-6.6c0.4-1.6.9-3.5,1.3-5h0.1c0.4,1.6.8,3.4,1.4,5l2.1,6.6h-6.9Zm7.7,3.7,2.4,7.6h5.3l-8.7-26.9h-6.3l-8.6,26.9h5.1l2.3-7.6H497ZM468.4,7436a13.5,13.5,0,0,1,2.8-.2c3.4,0,5.5,1.6,5.5,4.6s-2.2,5-5.9,5a8.2,8.2,0,0,1-2.4-.2v-9Zm-4.9,23.1h4.9v-10.2a10.7,10.7,0,0,0,2.4.2c3.5,0,6.5-1,8.5-2.9a8.2,8.2,0,0,0,2.3-6.1,7.6,7.6,0,0,0-2.6-5.9c-1.7-1.4-4.3-2.2-7.9-2.2a43.2,43.2,0,0,0-7.5.6v26.6Zm-21.9-1.3a15.5,15.5,0,0,0,7.3,1.7c6.9,0,10.2-3.8,10.2-8.1s-2.2-6.2-6.9-8-5.2-2.4-5.2-4.4,1.3-3.2,4.4-3.2a11.7,11.7,0,0,1,5.4,1.3l1.2-4a14,14,0,0,0-6.4-1.4c-5.9,0-9.5,3.3-9.5,7.7s2.8,6.2,7.3,7.8,4.8,2.4,4.8,4.5-1.8,3.7-4.9,3.7a13.5,13.5,0,0,1-6.5-1.7Z" transform="translate(-396.5 -7431.3)"/><path class="cls-1" d="M539.9,7475.9h0.8v-12.2h-0.8v12.2Zm-5.5-.5c-1.7,0-3-1.5-3-3.6s0.9-3.6,3-3.6,3,2.1,3,3.6-1.4,3.6-3.1,3.6h0Zm0,0.7c1.8,0,3.9-1.3,3.9-4.4s-1.5-4.2-3.8-4.2-3.9,1.6-3.9,4.4,1.6,4.2,3.8,4.2h0Zm-8.6-.7c-1.7,0-3-1.5-3-3.6s0.9-3.6,3-3.6,3,2.1,3,3.6-1.4,3.6-3.1,3.6h0Zm0,0.7c1.8,0,3.9-1.3,3.9-4.4s-1.5-4.2-3.8-4.2-3.9,1.6-3.9,4.4,1.6,4.2,3.8,4.2h0Zm-11.8-.2h0.8v-5a2.4,2.4,0,0,1,.1-0.8,2.7,2.7,0,0,1,2.5-1.8c1.7,0,2.3,1.4,2.3,2.8v4.9h0.8V7471c0-3.1-2.1-3.5-2.9-3.5a3.2,3.2,0,0,0-1.7.5,3.1,3.1,0,0,0-1.1,1.2h0v-5.4h-0.8v12.2Zm-1.7-1a4.6,4.6,0,0,1-2.1.5,3.2,3.2,0,0,1-3.3-3.6,3.3,3.3,0,0,1,3.3-3.6,3.7,3.7,0,0,1,1.9.5l0.3-.7a4.2,4.2,0,0,0-2.2-.5,4.1,4.1,0,0,0-4.2,4.4,3.9,3.9,0,0,0,3.9,4.2,5.6,5.6,0,0,0,2.4-.5Zm-13.6.4a5.2,5.2,0,0,0,2.8.8c2.5,0,3.7-1.5,3.7-3.2s-1-2.6-2.9-3.4-2.4-1.3-2.4-2.6a2.2,2.2,0,0,1,2.5-2.1,3.7,3.7,0,0,1,2,.5l0.3-.7a4.5,4.5,0,0,0-2.3-.5c-2,0-3.4,1.2-3.4,2.9s1.1,2.5,3,3.2,2.3,1.4,2.3,2.7-1.1,2.4-2.8,2.4a4.6,4.6,0,0,1-2.5-.8Zm-9.1.2a4,4,0,0,0,2.1.6c1.7,0,2.8-.9,2.8-2.3s-0.8-1.9-2.1-2.4-1.7-.8-1.7-1.7a1.4,1.4,0,0,1,1.6-1.4,2.8,2.8,0,0,1,1.6.5l0.3-.7a3.2,3.2,0,0,0-1.8-.5,2.3,2.3,0,0,0-2.5,2.2c0,1,.7,1.7,2.1,2.2s1.7,1,1.7,1.9-0.6,1.6-1.9,1.6a3.6,3.6,0,0,1-1.8-.6Zm-5.9,0a4,4,0,0,0,2.1.6c1.7,0,2.8-.9,2.8-2.3s-0.8-1.9-2.1-2.4-1.7-.8-1.7-1.7a1.4,1.4,0,0,1,1.6-1.4,2.8,2.8,0,0,1,1.6.5l0.3-.7a3.2,3.2,0,0,0-1.8-.5,2.3,2.3,0,0,0-2.5,2.2c0,1,.7,1.7,2.1,2.2s1.7,1,1.7,1.9-0.6,1.6-1.9,1.6a3.6,3.6,0,0,1-1.8-.6Zm-7-4.4a2.9,2.9,0,0,1,2.7-2.9c2,0,2.5,1.7,2.4,2.9h-5.2Zm6,0.7a2.1,2.1,0,0,0,0-.5c0-1.2-.5-3.7-3.2-3.7s-3.7,1.7-3.7,4.5,1.5,4.1,3.8,4.1a5.4,5.4,0,0,0,2.6-.5l-0.2-.6a4.8,4.8,0,0,1-2.3.5c-1.7,0-3.1-1-3.1-3.7h6.1Zm-14.8,4.2h0.8v-5.1a2.9,2.9,0,0,1,.1-0.7,2.6,2.6,0,0,1,2.5-1.9c1.7,0,2.3,1.4,2.3,2.9v4.9h0.8V7471c0-3.1-2.1-3.5-2.9-3.5a3.1,3.1,0,0,0-2.8,1.7h0v-1.5H468c0.1,0.7.1,1.2,0.1,2v6.2Zm-2.7-9.9a0.7,0.7,0,0,0,.7-0.7,0.7,0.7,0,0,0-.7-0.7,0.7,0.7,0,0,0-.7.7,0.7,0.7,0,0,0,.6.7h0Zm0.4,1.6H465v8.2h0.8v-8.2Zm-7.3,7.8a4,4,0,0,0,2.1.6c1.7,0,2.8-.9,2.8-2.3s-0.8-1.9-2.1-2.4-1.7-.8-1.7-1.7a1.4,1.4,0,0,1,1.6-1.4,2.8,2.8,0,0,1,1.6.5l0.3-.7a3.2,3.2,0,0,0-1.8-.5,2.3,2.3,0,0,0-2.5,2.2c0,1,.7,1.7,2.1,2.2s1.7,1,1.7,1.9-0.6,1.6-1.9,1.6a3.6,3.6,0,0,1-1.8-.6Zm-1.6-7.8H456v5.1a3,3,0,0,1-.2.9,2.7,2.7,0,0,1-2.4,1.7c-1.6,0-2.2-1.3-2.2-3.1v-4.6h-0.8v4.8c0,3.1,1.8,3.6,2.8,3.6a3.2,3.2,0,0,0,2.8-1.7h0v1.5h0.8c-0.1-.6-0.1-1.3-0.1-2v-6.2Zm-13.6,2.4h1.5c1.8,0,3.4.8,3.4,2.6s-1.7,2.6-3.4,2.6h-1.4v-5.1Zm0-5h1.5c1.7,0,2.9.6,2.9,2.2s-1,2.3-2.7,2.3h-1.7v-4.3Zm-0.8,10.8h2a5,5,0,0,0,3.7-1.1,3.1,3.1,0,0,0,.9-2.2,3,3,0,0,0-2.4-2.9h0a2.8,2.8,0,0,0,2-2.6,2.5,2.5,0,0,0-.7-1.9,4,4,0,0,0-3-1l-2.3.3v11.4Z" transform="translate(-396.5 -7431.3)"/><path class="cls-1" d="M408.2,7434.9a0.6,0.6,0,0,0,.6-0.7,0.6,0.6,0,0,0-.7-0.4h-0.3v1.1h0.3Z" transform="translate(-396.5 -7431.3)"/><path class="cls-1" d="M421.5,7434.2a0.5,0.5,0,0,0-.5-0.5h-0.4v0.9h0.3C421.2,7434.7,421.5,7434.5,421.5,7434.2Z" transform="translate(-396.5 -7431.3)"/><path class="cls-1" d="M421.4,7435.8a0.6,0.6,0,0,0-.7-0.6h-0.3v1h0.3A0.6,0.6,0,0,0,421.4,7435.8Z" transform="translate(-396.5 -7431.3)"/><path class="cls-1" d="M431.7,7434.6s-8.9-3.3-17-3.3-17,3.3-17,3.3a1.8,1.8,0,0,0-1.2,1.7v17.4c0,13.2,16.1,22.1,18.2,22.1s18.2-8.5,18.2-22.1v-17.3A1.8,1.8,0,0,0,431.7,7434.6Zm-21.1-1.7h1.1l1.4,3.6h-0.9l-0.4-.9h-1.1l-0.2,1h-0.9Zm-2.6.3a1.8,1.8,0,0,1,1.2.1,1.1,1.1,0,0,1,.5.8,1.2,1.2,0,0,1-.2.9,1.7,1.7,0,0,1-1.1.5H408l0.2,1.3h-0.8l-0.5-3.6Zm-2.8.4h1v0.7h-0.8a0.4,0.4,0,0,0-.5.4c0,0.2.3,0.3,0.8,0.4a1.2,1.2,0,0,1,1.1.9,1.2,1.2,0,0,1-1.3,1.4h-1.1v-0.7h1c0.4-.1.5-0.3,0.5-0.5s-0.2-.3-0.7-0.4a1.2,1.2,0,0,1-1.2-.9A1.2,1.2,0,0,1,405.2,7433.6Zm7.9,39.2a35.6,35.6,0,0,1-9.7-7.8c-4.4-5.3-4.6-9.7-4.6-9.7s8-.9,14.3-0.9v18.4Zm-14.5-20.4v-11.9a63.2,63.2,0,0,1,14.5-2.7c0,3.1,0,13.1,0,13.9C406.7,7451.6,398.7,7452.4,398.7,7452.4Zm14.8-15.9v-3.7h0.8v3.7h-0.8Zm9.2-.2,0.9,0.4c0.4,0.1.6-.1,0.6-0.3s-0.1-.4-0.5-0.6a1.2,1.2,0,0,1-.8-1.3,1.2,1.2,0,0,1,1.6-.8l0.9,0.3-0.3.6-0.7-.3a0.4,0.4,0,0,0-.6.3c0,0.2.1,0.4,0.6,0.6a1.2,1.2,0,0,1,.7,1.3,1.2,1.2,0,0,1-1.7.9l-1-.4Zm-2.8-3.2H421a2.1,2.1,0,0,1,1.1.3,0.8,0.8,0,0,1,.3.8,0.8,0.8,0,0,1-.7.7h0a0.9,0.9,0,0,1,.6,1,1,1,0,0,1-.5.7,2.3,2.3,0,0,1-1.5.1l-0.9-.2Zm-4.2,2.3v1.1h-0.8v-3.7h1l0.7,1.4,0.6,1.3h0a15.3,15.3,0,0,1,0-1.5v-1.1H418v3.7H417l-0.7-1.5-0.6-1.3h0C415.7,7434.2,415.7,7434.7,415.7,7435.3Zm10.1,29.8a34.2,34.2,0,0,1-9.8,7.7v-18.5c6.3,0,14.5.8,14.5,0.8S430.2,7459.8,425.8,7465.1Zm4.7-12.8s-8-.8-14.5-0.8c0-.8,0-10.8,0-13.9a63.2,63.2,0,0,1,14.5,2.7v11.9Z" transform="translate(-396.5 -7431.3)"/><path class="cls-1" d="M411.4,7434.2l-0.2-.7h0v0.7l-0.2.8h0.8Z" transform="translate(-396.5 -7431.3)"/><path class="cls-1" d="M422.3,7464.2c-0.9,0-1.5-1.1-1.5-3.2s0.6-3.2,1.5-3.2,1.5,1.2,1.5,3.2-0.5,3.2-1.5,3.2h0Zm0,1.2c2.1,0,3.1-1.7,3.1-4.5s-1-4.4-3.1-4.4-3.2,1.8-3.2,4.5,1.1,4.4,3.1,4.4h0Z" transform="translate(-396.5 -7431.3)"/><path class="cls-1" d="M422.3,7464.2c-0.9,0-1.5-1.1-1.5-3.2s0.6-3.2,1.5-3.2,1.5,1.2,1.5,3.2-0.5,3.2-1.5,3.2h0Zm0,1.2c2.1,0,3.1-1.7,3.1-4.5s-1-4.4-3.1-4.4-3.2,1.8-3.2,4.5,1.1,4.4,3.1,4.4h0Z" transform="translate(-396.5 -7431.3)"/><path class="cls-1" d="M406,7456.9v8s0,0.4.8,0.4,0.8-.4.8-0.4v-8s0-.5-0.8-0.5-0.8.5-.8,0.5" transform="translate(-396.5 -7431.3)"/><path class="cls-1" d="M406,7456.9v8s0,0.4.8,0.4,0.8-.4.8-0.4v-8s0-.5-0.8-0.5S406,7456.9,406,7456.9Z" transform="translate(-396.5 -7431.3)"/><path class="cls-1" d="M406.7,7448.4c-0.9,0-1.5-1.1-1.5-3.2s0.6-3.2,1.5-3.2,1.5,1.2,1.5,3.2-0.5,3.2-1.5,3.2h0Zm0,1.2c2.1,0,3.1-1.7,3.1-4.5s-1-4.4-3.1-4.4-3.2,1.8-3.2,4.5,1.1,4.4,3.1,4.4h0Z" transform="translate(-396.5 -7431.3)"/><path class="cls-1" d="M406.7,7448.4c-0.9,0-1.5-1.1-1.5-3.2s0.6-3.2,1.5-3.2,1.5,1.2,1.5,3.2-0.5,3.2-1.5,3.2h0Zm0,1.2c2.1,0,3.1-1.7,3.1-4.5s-1-4.4-3.1-4.4-3.2,1.8-3.2,4.5,1.1,4.4,3.1,4.4h0Z" transform="translate(-396.5 -7431.3)"/><path class="cls-1" d="M422,7441.1v8s0,0.4.8,0.4,0.8-.4.8-0.4v-8s0-.5-0.8-0.5-0.8.5-.8,0.5" transform="translate(-396.5 -7431.3)"/><path class="cls-1" d="M422,7441.1v8s0,0.4.8,0.4,0.8-.4.8-0.4v-8s0-.5-0.8-0.5S422,7441.1,422,7441.1Z" transform="translate(-396.5 -7431.3)"/></svg>