<?xml version="1.0" standalone="no"?>
<!DOCTYPE svg PUBLIC "-//W3C//DTD SVG 1.1//EN" "http://www.w3.org/Graphics/SVG/1.1/DTD/svg11.dtd" >
<svg xmlns="http://www.w3.org/2000/svg">
<metadata></metadata>
<defs>
<font id="majeritheadlineregular" horiz-adv-x="1286" >
<font-face units-per-em="2048" ascent="1638" descent="-410" />
<missing-glyph horiz-adv-x="532" />
<glyph horiz-adv-x="0" />
<glyph horiz-adv-x="682" />
<glyph unicode=" "  horiz-adv-x="532" />
<glyph unicode="&#x09;" horiz-adv-x="532" />
<glyph unicode="&#xa0;" horiz-adv-x="532" />
<glyph unicode="!" horiz-adv-x="647" d="M193 115q0 56 38 94.5t91 38.5q56 0 93.5 -38t37.5 -95q0 -56 -36.5 -93.5t-94.5 -37.5t-93.5 37.5t-35.5 93.5zM195 1294q-11 101 22 148t100 47t105.5 -47t28.5 -148l-95 -888h-61z" />
<glyph unicode="&#x22;" horiz-adv-x="854" d="M119 1415q0 36 9.5 60t27.5 35t35 14.5t40 3.5q117 0 117 -117q0 -40 -10 -76l-74 -297h-57l-78 299q-10 36 -10 78zM506 1415q0 36 9.5 60t27.5 35t35 14.5t40 3.5q117 0 117 -117q0 -40 -10 -76l-74 -297h-57l-78 299q-10 36 -10 78z" />
<glyph unicode="#" horiz-adv-x="1150" d="M51 496l25 108h207l75 377h-208l24 113h203l84 393h100l-78 -393h334l76 393h106l-79 -393h206l-22 -113h-207l-80 -377h205l-21 -108h-204l-103 -512h-104l104 512h-334l-112 -512h-98l108 512h-207zM383 604h334l78 377h-336z" />
<glyph unicode="$" horiz-adv-x="1103" d="M106 236q0 63 32 105t91 42q67 0 97 -32t30 -77q0 -35 -24.5 -76.5t-24.5 -50.5q0 -14 11 -29t35 -31t72 -26t112 -10v608l-56 27q-50 24 -75.5 37t-71.5 39.5t-71 47t-58.5 54t-51 66.5t-30 77.5t-12.5 94.5q0 168 109 279.5t317 121.5v154h67v-152q82 -3 147 -23 t103 -48t63.5 -63t34.5 -64.5t9 -55.5q0 -63 -32 -105t-91 -42q-67 0 -97 31.5t-30 76.5q0 35 27.5 76.5t27.5 50.5q0 31 -36.5 60.5t-125.5 36.5v-535l70 -37q64 -34 108.5 -61t94 -67.5t79 -81.5t49 -97t19.5 -121q0 -111 -49.5 -208t-146.5 -163.5t-224 -78.5v-193h-67 v189q-102 1 -181.5 20.5t-125 47t-75 63t-39.5 65.5t-10 58zM315 1176q0 -35 14.5 -66.5t33 -53.5t53 -46.5t58 -37.5t63.5 -34v498q-108 -7 -165 -84t-57 -176zM604 55q211 30 211 287q0 99 -56 166.5t-155 118.5v-572z" />
<glyph unicode="%" horiz-adv-x="1445" d="M74 1130q0 165 87 272t224 107q129 0 214 -101.5t85 -262.5q0 -154 -90 -264.5t-225 -110.5q-130 0 -212.5 103t-82.5 257zM246 1171q0 -39 0.5 -63t3.5 -62.5t8.5 -63t16.5 -53.5t26.5 -45.5t39 -28t54.5 -11.5q123 0 123 262v9q0 45 -0.5 68t-3 63t-8 61.5t-16.5 50 t-26.5 43t-39.5 25t-55 10.5q-34 0 -58 -17.5t-36 -41.5t-19 -63.5t-8.5 -69t-1.5 -73.5zM283 10l796 1506l80 -39l-792 -1504zM762 336q0 165 87 272t224 107q129 0 214 -102t85 -263q0 -154 -90 -264.5t-225 -110.5q-130 0 -212.5 103.5t-82.5 257.5zM934 377q0 -46 1 -74 t5 -72.5t13.5 -71.5t25.5 -55t42.5 -41.5t61.5 -13.5q123 0 123 262v9q0 45 -0.5 68t-3 63t-8 61.5t-16.5 50t-26.5 43t-39.5 25t-55 10.5q-34 0 -58 -17t-36 -41t-19 -63.5t-8.5 -69t-1.5 -73.5z" />
<glyph unicode="&#x26;" horiz-adv-x="1527" d="M90 393q0 84 32 158.5t86 129t117 93.5t134 64q-71 80 -112.5 156.5t-41.5 162.5q0 146 107 245t295 99q152 0 255 -75t103 -205t-97.5 -224.5t-254.5 -132.5q186 -207 362 -430q5 14 23 55.5t30 70.5t22.5 65t10.5 57q0 15 -3.5 26.5t-12.5 20t-17.5 14t-25 11.5 t-27.5 9t-34 8.5t-35 8.5v43h415v-43q-25 -4 -50 -19.5t-45 -34t-43.5 -54t-39.5 -62.5t-40 -77.5t-37.5 -81t-39.5 -89.5q78 -97 153 -164.5t123.5 -96.5t110.5 -56v-43h-229q-62 0 -115.5 23.5t-88 55t-72.5 79.5l-27 35q-85 -97 -198.5 -157.5t-233.5 -60.5 q-70 0 -133.5 13t-124 44t-104.5 77.5t-70.5 119t-26.5 162.5zM307 459q0 -146 87.5 -241t236.5 -95q49 0 94 10t72 20.5t60 33.5t43 32t36 33q-138 179 -442 543q-88 -49 -137.5 -140t-49.5 -196zM504 1229q0 -64 42 -136.5t130 -177.5q227 88 227 314q0 75 -52.5 130.5 t-143.5 55.5q-82 0 -142.5 -51.5t-60.5 -134.5z" />
<glyph unicode="'" horiz-adv-x="466" d="M119 1415q0 36 9.5 60t27.5 35t35 14.5t40 3.5q117 0 117 -117q0 -40 -10 -76l-74 -297h-57l-78 299q-10 36 -10 78z" />
<glyph unicode="(" horiz-adv-x="708" d="M143 561q0 113 14.5 220t49.5 219.5t88.5 209t137 184t190.5 150.5l36 -53q-149 -138 -231 -372.5t-82 -545.5q0 -287 82.5 -534.5t216.5 -409.5l-49 -41q-124 76 -215.5 192t-141.5 250t-73 265.5t-23 265.5z" />
<glyph unicode=")" horiz-adv-x="708" d="M49 1491l37 53q132 -78 228.5 -192t149.5 -247t77 -267t24 -277q0 -134 -23 -265.5t-72.5 -265.5t-141 -250t-215.5 -192l-50 41q134 162 216.5 409.5t82.5 534.5q0 311 -82 545.5t-231 372.5z" />
<glyph unicode="*" horiz-adv-x="800" d="M98 1049q0 66 60 81q26 6 61 9t63.5 8t57.5 20v11q-23 4 -84 14.5t-86 15.5q-44 10 -58 29t-14 53q0 31 22.5 58.5t49.5 27.5q28 0 53 -17.5t42 -41t44.5 -53t55.5 -47.5l4 4q-3 54 -31.5 115.5t-28.5 88.5q0 35 24.5 54.5t57.5 19.5q34 0 60 -22t26 -52q0 -26 -27 -89 t-32 -115l4 -4q23 15 49 43.5t44 53t41 43.5t44 19q45 0 67.5 -23.5t22.5 -54.5q0 -72 -61 -88q-7 -1 -71.5 -10.5t-111.5 -21.5v-11q8 -6 26 -10.5t36 -7t52.5 -7.5t57.5 -9q43 -7 62.5 -33.5t19.5 -57.5q-3 -75 -90 -75q-26 0 -53.5 27.5t-64 69.5t-68.5 64l-6 -2 q5 -57 32 -117.5t27 -88.5q0 -37 -23.5 -56.5t-60.5 -19.5q-33 0 -58.5 20.5t-25.5 55.5q0 27 27.5 87.5t30.5 118.5l-5 2q-31 -19 -65.5 -61.5t-63 -71t-57.5 -28.5q-30 0 -54 25.5t-24 56.5z" />
<glyph unicode="+" horiz-adv-x="1126" d="M94 631v112h410v435h117v-435h409v-112h-409v-441h-117v441h-410z" />
<glyph unicode="," horiz-adv-x="512" d="M121 -182q72 29 128 86.5t56 118.5q0 10 -10 10q-6 0 -23 -10q-25 -15 -43 -15q-48 0 -75 34t-27 83q0 50 34.5 86.5t86.5 36.5q71 0 112 -46t41 -116q0 -43 -13.5 -87.5t-42 -90.5t-80.5 -83.5t-122 -57.5z" />
<glyph unicode="-" horiz-adv-x="604" d="M66 588v119h473v-119h-473z" />
<glyph unicode="." horiz-adv-x="512" d="M125 115q0 56 38 94.5t91 38.5q56 0 93.5 -38t37.5 -95q0 -56 -36.5 -93.5t-94.5 -37.5t-93.5 37.5t-35.5 93.5z" />
<glyph unicode="/" horiz-adv-x="526" d="M0 -266l387 1798l107 -16l-388 -1795z" />
<glyph unicode="0" horiz-adv-x="1202" d="M90 721q0 171 30.5 311t92.5 246.5t164 165.5t237 59q157 0 271.5 -100t170.5 -267.5t56 -381.5q0 -356 -142.5 -564t-379.5 -208q-234 0 -367 196t-133 543zM336 819q0 -275 30.5 -439.5t89.5 -234t156 -69.5q138 0 194 142.5t56 430.5q0 194 -13.5 330.5t-45 238 t-86.5 150.5t-135 49q-59 0 -102 -25.5t-70.5 -72t-44 -122.5t-23 -165.5t-6.5 -212.5z" />
<glyph unicode="1" horiz-adv-x="825" d="M137 0v47q98 12 139 36t41 93v1178l-180 14v53q216 18 379 78h21v-1315q0 -71 40 -99.5t142 -37.5v-47h-582z" />
<glyph unicode="2" horiz-adv-x="1058" d="M63 1214q64 131 203.5 214t304.5 83q172 0 277.5 -100t105.5 -268q0 -94 -51.5 -200.5t-138.5 -209t-174 -191t-188 -187t-150 -156.5v-6h584q12 0 22.5 3t18 6t14 11.5t10 13.5t7.5 17t5.5 17.5t5.5 20t5 19.5h55l-33 -301h-874v74q59 77 139.5 180t128 164t108 142 t95.5 133t72.5 117t57 115t32 105.5t12.5 108.5q0 111 -64.5 169t-181.5 58q-73 0 -148 -32t-122.5 -69t-89.5 -81z" />
<glyph unicode="3" horiz-adv-x="1107" d="M72 236q0 69 42 110t105 41q57 0 91 -32.5t34 -73.5q0 -31 -13 -57t-28 -39.5t-28 -26t-13 -19.5q0 -32 62 -54t147 -22q174 0 275.5 93t101.5 227q0 112 -73 194t-188 116t-241 16l-10 55q55 34 96 61t98.5 72.5t95 85.5t64.5 90.5t27 97.5q0 92 -56 147.5t-172 55.5 q-53 0 -103.5 -17.5t-95 -50.5t-72 -58t-62.5 -62l-47 31q66 135 183.5 212.5t278.5 77.5q166 0 259.5 -75t93.5 -215q0 -109 -87.5 -197.5t-248.5 -140.5q130 -14 234 -65t167.5 -141t63.5 -204q0 -96 -34 -178t-91 -139t-133 -97t-160 -59t-172 -19q-171 0 -281 67 t-110 192z" />
<glyph unicode="4" horiz-adv-x="1218" d="M61 455v98l631 915v19h219v-869h121q41 0 62.5 17.5t29.5 56.5h52l-23 -237h-242v-271q0 -72 31.5 -100t118.5 -37v-47h-512v47q41 6 64 12t44.5 19.5t30 37t8.5 60.5v279h-635zM217 618h479v695h-8z" />
<glyph unicode="5" horiz-adv-x="1105" d="M72 236q0 69 42 110t105 41q57 0 91 -32.5t34 -73.5q0 -31 -13 -57t-28 -39.5t-28 -26t-13 -19.5q0 -32 62 -52.5t147 -20.5q174 0 275.5 93.5t101.5 227.5q0 193 -162.5 295t-523.5 109l57 694h737l-24 -197h-639l-23 -311q167 -1 303.5 -30.5t241.5 -88.5t163 -157.5 t58 -229.5q0 -147 -79.5 -261t-210 -173.5t-285.5 -59.5q-171 0 -280 67t-109 192z" />
<glyph unicode="6" horiz-adv-x="1179" d="M90 717q0 239 82 419.5t230.5 277.5t342.5 97q130 0 193 -16l-10 -51h-31q-247 0 -406.5 -174.5t-166.5 -458.5q60 62 156.5 94.5t195.5 32.5q192 0 303 -124t111 -312q0 -93 -30.5 -183.5t-88 -166.5t-151 -123t-208.5 -47q-112 0 -201.5 39t-149 106.5t-98.5 162 t-56 200.5t-17 227zM319 653q0 -103 16 -200t50 -184t95.5 -140t142.5 -53q45 0 89 21t81.5 60.5t60.5 104.5t23 144q0 208 -86 309.5t-246 101.5q-65 0 -128.5 -19.5t-92.5 -45.5q-5 -5 -5 -99z" />
<glyph unicode="7" horiz-adv-x="1021" d="M53 1155l45 336l84 -4h598l181 4l18 -25l-573 -1466h-134l549 1288h-600q-49 0 -66.5 -23t-45.5 -110h-56z" />
<glyph unicode="8" horiz-adv-x="1155" d="M90 340q0 133 99.5 248.5t232.5 148.5q-50 26 -87 49t-78.5 57.5t-68 70t-44 84t-17.5 102.5q0 62 13 117t46.5 108.5t86 92t137.5 62t194 23.5q81 0 154.5 -20.5t135 -61.5t98 -111t36.5 -161q0 -54 -27.5 -107t-73 -95t-101 -74.5t-113.5 -51.5q64 -30 119.5 -65 t111.5 -85t88.5 -115t32.5 -136q0 -195 -134.5 -315.5t-355.5 -120.5q-136 0 -245.5 42t-174.5 123.5t-65 190.5zM287 379q0 -141 76.5 -218t230.5 -77q107 0 191.5 64.5t84.5 162.5q0 108 -82.5 197.5t-295.5 196.5q-95 -50 -150 -132.5t-55 -193.5zM319 1184 q0 -55 20 -98.5t60 -76.5t75.5 -54t92 -49.5t84.5 -45.5q79 46 144 123t65 164q0 29 -5.5 59t-23 67.5t-45.5 66t-79.5 48t-118.5 19.5q-116 0 -192.5 -62t-76.5 -161z" />
<glyph unicode="9" horiz-adv-x="1179" d="M119 991q0 74 17 147t54.5 140.5t90.5 119t131 82.5t170 31q112 0 201.5 -39t149 -106.5t98.5 -162t56 -200.5t17 -227q0 -239 -82 -419.5t-230.5 -277.5t-342.5 -97q-130 0 -193 16l10 51h31q247 0 406.5 174.5t166.5 458.5q-60 -62 -156.5 -94.5t-195.5 -32.5 q-96 0 -173 34t-126 93.5t-74.5 138t-25.5 170.5zM332 1087q0 -210 79 -310.5t238 -100.5q65 0 128.5 19.5t92.5 45.5q4 4 4 99q0 121 -16 221t-50 182t-94.5 128t-142.5 46q-96 0 -167.5 -87t-71.5 -243z" />
<glyph unicode=":" horiz-adv-x="440" d="M90 115q0 56 38 94.5t91 38.5q56 0 93.5 -38t37.5 -95q0 -56 -36.5 -93.5t-94.5 -37.5t-93.5 37.5t-35.5 93.5zM90 920q0 56 38 94.5t91 38.5q56 0 93.5 -38t37.5 -95q0 -56 -36.5 -94t-94.5 -38t-93.5 37.5t-35.5 94.5z" />
<glyph unicode=";" horiz-adv-x="512" d="M121 -182q72 29 128 86.5t56 118.5q0 10 -10 10q-6 0 -23 -10q-25 -15 -43 -15q-48 0 -75 34t-27 83q0 50 34.5 86.5t86.5 36.5q71 0 112 -46t41 -116q0 -43 -13.5 -87.5t-42 -90.5t-80.5 -83.5t-122 -57.5zM125 920q0 56 38 94.5t91 38.5q56 0 93.5 -38t37.5 -95 q0 -56 -36.5 -94t-94.5 -38t-93.5 37.5t-35.5 94.5z" />
<glyph unicode="&#x3c;" horiz-adv-x="1126" d="M94 668v30l873 480l59 -107l-707 -389l713 -389l-61 -107z" />
<glyph unicode="=" horiz-adv-x="1126" d="M94 467v113h938v-113h-938zM94 795v112h938v-112h-938z" />
<glyph unicode="&#x3e;" horiz-adv-x="1126" d="M94 293l713 389l-707 389l60 107l872 -480v-30l-876 -482z" />
<glyph unicode="?" horiz-adv-x="968" d="M115 1217q0 40 20.5 84t61.5 87t115 71t167 28q85 0 152 -18t111 -49t73 -73.5t41 -89.5t12 -100q0 -61 -18.5 -115.5t-47.5 -96t-75.5 -83t-90 -71.5t-104.5 -66q-47 -30 -65 -53.5t-18 -65.5v-184h-80l2 299q0 82 15 116t67 70q13 9 45.5 29.5t53 34.5t49 39t45.5 49 t29.5 58t12.5 71q0 100 -61.5 158.5t-192.5 58.5q-66 0 -120 -28t-54 -64q0 -3 0.5 -6t1.5 -5.5t3 -5.5t3.5 -5t5.5 -5.5t6.5 -5.5t8.5 -7.5t10 -8.5q47 -37 47 -88q0 -49 -30.5 -78t-73.5 -29q-59 0 -93 37t-34 111zM283 115q0 56 38 94.5t91 38.5q56 0 93.5 -38t37.5 -95 q0 -56 -36.5 -93.5t-94.5 -37.5t-93.5 37.5t-35.5 93.5z" />
<glyph unicode="@" horiz-adv-x="1947" d="M90 440q0 174 45 333.5t130.5 289.5t202 227t267 150t318.5 53q194 0 348.5 -55t253.5 -153t151 -229t52 -286q0 -145 -45 -280t-126.5 -241t-206.5 -169.5t-274 -63.5q-131 0 -131 76q0 32 8 79t23 114.5t20 93.5l-18 6q-27 -89 -81 -168.5t-114.5 -131t-121.5 -81 t-107 -29.5q-199 0 -199 291q0 139 27.5 271t77.5 239.5t116.5 189t148.5 126.5t169 45q59 0 109.5 -28.5t72.5 -84.5l21 88q33 23 102 23q62 0 84.5 -11t22.5 -41q0 -12 -18.5 -106.5t-57.5 -293.5t-72 -372q-20 -102 -20 -127q-1 -22 16.5 -32.5t44.5 -10.5q120 0 215 89 t145 232t50 308q0 137 -36 245t-99 180.5t-152 120t-191 68.5t-221 21q-179 0 -334.5 -74.5t-264.5 -202.5t-171.5 -306t-62.5 -378q0 -349 193 -540t540 -191q164 0 262.5 13.5t214.5 44.5l15 -66q-200 -80 -512 -80q-391 0 -610.5 213t-219.5 602zM721 301q0 -38 3 -66.5 t10.5 -56.5t24.5 -43.5t42 -15.5q45 0 110.5 62t124 168t76.5 214q13 74 29 157t23.5 122.5t6.5 42.5q-11 71 -52.5 121.5t-100.5 50.5q-65 0 -123.5 -82t-95 -201.5t-57.5 -246.5t-21 -226z" />
<glyph unicode="A" horiz-adv-x="1384" d="M8 0v47q55 6 90.5 33t53.5 82l403 1284l-8 41h227l473 -1344q30 -82 129 -96v-47h-549v47q158 26 158 74q0 27 -10 57l-131 385h-461l-90 -313q-23 -77 -23 -115q0 -16 4.5 -26.5t19 -23.5t48.5 -22.5t88 -15.5v-47h-422zM410 655h403l-213 631h-8z" />
<glyph unicode="B" horiz-adv-x="1298" d="M57 0v47q96 12 135 36t39 93v1127q0 72 -37 100t-137 37v47h650q69 0 132.5 -8.5t130 -32.5t115 -61.5t79 -100t30.5 -143.5q0 -71 -29.5 -130t-80.5 -99.5t-113.5 -67.5t-136.5 -41v-12q180 -28 285.5 -125t105.5 -234q0 -106 -47.5 -190.5t-126 -136t-173 -78.5 t-194.5 -27h-627zM473 123q0 -35 37 -35h121q111 0 189 46.5t113.5 120t35.5 165.5q0 160 -94 253t-285 93h-117v-643zM473 848h158q145 0 232 72.5t87 195.5q0 71 -18.5 123.5t-47.5 83t-72 49.5t-84.5 25t-92.5 6h-162v-555z" />
<glyph unicode="C" horiz-adv-x="1271" d="M74 705q0 189 50.5 340.5t142 252t220 154t283.5 53.5q217 0 401 -43l-2 -352h-57q-32 174 -110 243.5t-240 69.5q-102 0 -185 -54t-136 -145.5t-81 -210t-28 -251.5q0 -121 13 -219.5t45.5 -187.5t84 -149t133.5 -95t189 -35q54 0 97.5 8.5t84.5 32t70.5 61.5t51 99.5 t29.5 144.5h60l-19 -420q-9 1 -26 1q-43 0 -135 -9q-128 -13 -189 -14h-21q-212 0 -354 57q-179 73 -275.5 233t-96.5 435z" />
<glyph unicode="D" horiz-adv-x="1447" d="M57 0v47q96 12 135 36t39 93v1127q0 72 -37 100t-137 37v47h570q355 0 551 -191t196 -534q0 -162 -54 -302.5t-149.5 -242t-234.5 -159.5t-303 -58h-576zM473 133q0 -27 14.5 -35t42.5 -8h88q108 0 193 33.5t141.5 92.5t93 143.5t52.5 181t16 211.5q0 76 -9.5 149.5 t-30.5 148.5t-58 138t-87 112t-122 77t-160 28h-174v-1272z" />
<glyph unicode="E" d="M57 0v47q96 12 135 36t39 93v1127q0 72 -37 100t-137 37v47h750q258 0 332 4l6 -4l-2 -377h-49q-31 127 -57 175q-58 106 -196 115q-14 1 -30 1h-338v-563h287q62 0 103.5 15.5t62.5 48t29.5 68t11.5 87.5h57v-529h-55q-4 34 -9 59t-19 59t-35.5 55.5t-59.5 37t-88 15.5 h-285v-621q0 -43 49 -43h312q42 0 77 6.5t62 15.5t50 27t38.5 33.5t29.5 42.5t22.5 46t17 52t13 53t11.5 56h57l-45 -422h-1110z" />
<glyph unicode="F" horiz-adv-x="1189" d="M57 0v47q96 12 135 36t39 93v1127q0 72 -37 100t-137 37v47h748q260 0 334 4l6 -4l-2 -377h-49q-11 44 -16.5 65t-18.5 58t-25 56t-34 44.5t-47.5 37.5t-62 21t-81.5 9h-336v-563h285q62 0 104 16t63.5 47.5t30 67.5t11.5 88h57v-529h-55q-4 33 -9 58.5t-19.5 59 t-36 55.5t-60 37.5t-88.5 15.5h-283v-570q0 -72 37 -100t137 -37v-47h-590z" />
<glyph unicode="G" horiz-adv-x="1441" d="M74 727q0 157 48 296.5t138 247.5t232.5 171t318.5 63q233 0 420 -43l-2 -352h-58q-20 96 -50.5 157.5t-79 95t-106 46t-142.5 12.5q-91 0 -168.5 -39.5t-130.5 -105.5t-90 -154t-54.5 -183t-17.5 -194q0 -265 98 -434q139 -243 457 -243q52 0 108 8v393q0 70 -44.5 98.5 t-145.5 38.5v51h573v-51q-79 -12 -110 -35.5t-31 -93.5v-438q-65 -18 -105.5 -27.5t-131 -20.5t-191.5 -11q-362 0 -548.5 195t-186.5 552z" />
<glyph unicode="H" horiz-adv-x="1591" d="M57 0v47q96 12 135 36t39 93v1127q0 72 -37 100t-137 37v47h590v-47q-96 -12 -135 -36t-39 -93v-469h645v461q0 72 -37 100t-137 37v47h590v-47q-96 -12 -135 -36t-39 -93v-1127q0 -72 37 -100t137 -37v-47h-590v47q96 12 135 36t39 93v576h-645v-568q0 -72 37 -100 t137 -37v-47h-590z" />
<glyph unicode="I" horiz-adv-x="704" d="M57 0v47q96 12 135 36t39 93v1127q0 72 -37 100t-137 37v47h590v-47q-96 -12 -135 -36t-39 -93v-1127q0 -72 37 -100t137 -37v-47h-590z" />
<glyph unicode="J" horiz-adv-x="1038" d="M74 182q0 84 42.5 131t110.5 47q75 0 111.5 -37t36.5 -87q0 -37 -14 -64.5t-31 -40t-31 -24t-14 -21.5q0 -26 40.5 -43.5t98.5 -17.5q162 0 162 200v1078q0 72 -37 100t-137 37v47h589v-47q-96 -12 -135 -36t-39 -93v-959q0 -90 -20 -158.5t-55 -113.5t-87.5 -74 t-112.5 -41t-134 -12q-94 0 -164.5 22.5t-107.5 58t-54.5 73t-17.5 75.5z" />
<glyph unicode="K" horiz-adv-x="1419" d="M57 0v47q96 12 135 36t39 93v1127q0 72 -37 100t-137 37v47h590v-47q-96 -12 -135 -36t-39 -93v-459h131q71 0 133 76l285 350q1 1 13.5 20.5t17.5 28t11.5 24t6.5 27.5q0 31 -35.5 43t-107.5 17v49h452v-49q-58 -8 -95.5 -33.5t-84.5 -79.5l-405 -461l469 -706 q29 -42 68 -72.5t79 -36.5v-49h-367v27l-452 751h-119v-594q0 -72 37 -100t137 -37v-47h-590z" />
<glyph unicode="L" horiz-adv-x="1257" d="M57 0v47q96 12 135 36t39 93v1127q0 72 -37 100t-137 37v47h590v-47q-96 -12 -135 -36t-39 -93v-1178q0 -43 49 -43h312q42 0 77 6.5t62 15.5t50 27t38.5 33.5t29.5 42.5t22.5 46t17 52t13 53t11.5 56h57l-45 -422h-1110z" />
<glyph unicode="M" horiz-adv-x="1794" d="M57 0v47q96 12 135 36t39 93v1127q0 72 -37 100t-137 37v47h478l362 -1120h8l365 1120h467v-47q-96 -12 -135 -36t-39 -93v-1127q0 -72 37 -100t137 -37v-47h-586v47q96 12 135 36t39 93v1170h-6l-438 -1346h-105l-436 1346h-8v-1162q0 -72 37 -100t137 -37v-47h-449z " />
<glyph unicode="N" horiz-adv-x="1509" d="M57 0v49q96 12 135 36t39 93v1125q0 30 -9.5 52.5t-22 35.5t-39 23t-46 14.5t-57.5 11.5v47h453l668 -1038h8v854q0 72 -37 100t-137 37v47h448v-47q-96 -12 -135 -36t-39 -93v-1317h-127v18l-823 1303h-4v-1129q0 -72 37 -100t137 -37v-49h-449z" />
<glyph unicode="O" horiz-adv-x="1447" d="M74 737q0 229 75 401.5t220.5 269.5t345.5 97q314 0 486.5 -197.5t172.5 -545.5q0 -235 -78 -411.5t-222.5 -272.5t-338.5 -96q-316 0 -488.5 196.5t-172.5 558.5zM330 731q0 -345 94 -501t315 -156q194 0 286.5 154t92.5 503q0 342 -98.5 514t-306.5 172t-295.5 -169.5 t-87.5 -516.5z" />
<glyph unicode="P" horiz-adv-x="1236" d="M57 0v47q96 12 135 36t39 93v1127q0 72 -37 100t-137 37v47h633q218 0 349.5 -102.5t131.5 -284.5q0 -106 -43.5 -189t-119 -134.5t-171 -78t-204.5 -26.5h-160v-496q0 -70 50 -97t167 -32v-47h-633zM473 758h133q156 0 235 86.5t79 242.5q0 155 -89 235.5t-249 80.5 h-109v-645z" />
<glyph unicode="Q" horiz-adv-x="1447" d="M74 737q0 229 75 401.5t220.5 269.5t345.5 97q314 0 486.5 -197.5t172.5 -545.5q0 -308 -131.5 -510.5t-361.5 -253.5q22 -113 106 -187.5t215 -74.5q99 0 178 24l21 -51q-48 -43 -130 -69.5t-186 -26.5q-181 0 -305 105.5t-151 269.5q-267 32 -411 225.5t-144 523.5z M330 731q0 -345 94 -501t315 -156q194 0 286.5 154t92.5 503q0 342 -98.5 514t-306.5 172t-295.5 -169.5t-87.5 -516.5z" />
<glyph unicode="R" horiz-adv-x="1357" d="M57 0v47q96 12 135 36t39 93v1127q0 72 -37 100t-137 37v47h607q240 0 369.5 -93t129.5 -270q0 -140 -94.5 -234.5t-255.5 -109.5v-8q108 -15 185 -82.5t102 -171.5l82 -354q16 -66 49.5 -87t101.5 -30v-47h-370l-113 567q-20 99 -64.5 134.5t-119.5 35.5h-193v-553 q0 -72 37 -100t137 -37v-47h-590zM473 815h160q47 0 87.5 7t81 26.5t69 50t46 81.5t17.5 118q0 137 -72 217t-196 80h-193v-580z" />
<glyph unicode="S" horiz-adv-x="1095" d="M90 16v418l68 2q21 -109 49 -178.5t72 -109.5t98 -55t135 -15q57 0 104.5 14.5t86.5 44.5t61 82.5t22 122.5q0 57 -18.5 104.5t-54 84.5t-75.5 64t-95 54l-76 37q-48 23 -73 36t-70.5 39.5t-71.5 48t-59.5 55t-51 67t-30.5 78.5t-13 94q0 175 121 288t340 113 q185 0 367 -49l-2 -346h-58q-34 156 -103.5 227.5t-209.5 71.5q-118 0 -182 -67t-64 -166q0 -39 17.5 -74.5t39.5 -59.5t61.5 -50.5t64 -39.5t67.5 -34l102 -52q62 -31 107 -58t93 -66.5t78 -80.5t49.5 -97.5t19.5 -121.5q0 -128 -58.5 -231.5t-174 -166t-269.5 -62.5 q-47 0 -88 1.5t-85.5 5.5t-71.5 7t-84.5 10t-84.5 10z" />
<glyph unicode="T" horiz-adv-x="1361" d="M57 1110l6 377l7 4q74 -4 313 -4h600q235 0 309 4l6 -4l7 -377h-56q-9 58 -18 95.5t-27 79.5t-42.5 66t-64.5 40t-93 16h-201v-1227q0 -72 36.5 -98t137.5 -35v-47h-590v47q96 12 135 36t39 93v1231h-203q-53 0 -93 -16.5t-65 -42t-43 -67t-27 -79.5t-17 -92h-56z" />
<glyph unicode="U" horiz-adv-x="1492" d="M45 1440v47h590v-47q-94 -12 -134 -38.5t-40 -96.5v-834q0 -180 96.5 -270t261.5 -90q49 0 94.5 9.5t91 33.5t78.5 60.5t53.5 96t20.5 135.5v850q0 72 -37 100.5t-137 37.5v53h465v-53q-96 -12 -135 -36t-39 -93v-844q0 -97 -29 -180.5t-87 -150.5t-155.5 -105.5 t-224.5 -38.5t-224 26t-160 72t-102.5 114t-56 146.5t-16.5 175.5v776q0 73 -37.5 104t-136.5 40z" />
<glyph unicode="V" horiz-adv-x="1331" d="M0 1440v47h541v-47q-158 -26 -158 -74q0 -27 10 -57l361 -1067h4l289 995q22 73 22 115q0 31 -36 53.5t-138 34.5v47h436v-47q-109 -12 -143 -115l-404 -1284v-41h-190l-465 1343q-30 83 -129 97z" />
<glyph unicode="W" horiz-adv-x="2088" d="M33 1440v47h532l8 -47q-157 -26 -157 -74q0 -27 10 -57l297 -1053h4l340 1231h88l352 -1219h4l269 969q22 73 22 115q0 31 -36 53.5t-138 34.5v47h428v-47q-112 -13 -143 -115l-379 -1284v-41h-186l-297 1044h-7l-290 -1003v-41h-193l-399 1343q-23 82 -129 97z" />
<glyph unicode="X" horiz-adv-x="1284" d="M-12 0v49q100 30 166 135l372 582l-286 496q-97 166 -213 176v49h594v-49q-156 -29 -156 -86q0 -26 57 -131l205 -355l209 344q57 95 57 138q0 19 -11 33.5t-33 24.5t-37 15t-42.5 11t-29.5 6v49h448v-49q-78 -18 -151 -125l-361 -533l277 -479q30 -52 56 -91t58 -77 t64.5 -60t64.5 -24v-49h-579v49q153 25 153 96q0 13 -59 127l-231 408l-242 -416q-53 -85 -53 -125q0 -21 14 -37t41 -26.5t47 -15.5t51 -11v-49h-450z" />
<glyph unicode="Y" horiz-adv-x="1243" d="M0 1440v47h543v-47q-77 -6 -109.5 -24.5t-32.5 -51.5q0 -30 25 -74l287 -508l239 473q39 76 39 115q0 60 -139 70v47h391v-47q-81 -9 -135 -109l-358 -651l-2 -492q0 -73 37.5 -102.5t136.5 -38.5v-47h-588v47q93 12 133.5 39.5t40.5 97.5v496l-381 674 q-21 37 -56.5 60.5t-70.5 25.5z" />
<glyph unicode="Z" horiz-adv-x="1253" d="M70 0v45l829 1362h-448q-73 0 -124.5 -18.5t-85 -59.5t-54 -91.5t-37.5 -127.5h-58l19 383l225 -6h848v-47l-826 -1350h396q178 0 254 69t116 263h52l-39 -422h-1067z" />
<glyph unicode="[" horiz-adv-x="669" d="M154 -410v1897h471v-70h-279v-1755h279v-72h-471z" />
<glyph unicode="\" horiz-adv-x="526" d="M66 1516l106 16l387 -1798l-106 -13z" />
<glyph unicode="]" horiz-adv-x="669" d="M45 -338h279v1755h-279v70h471v-1897h-471v72z" />
<glyph unicode="^" horiz-adv-x="1126" d="M68 309l479 873h31l481 -877l-107 -57l-395 719l-383 -717z" />
<glyph unicode="_" horiz-adv-x="911" d="M0 -193h911v-98h-911v98z" />
<glyph unicode="`" horiz-adv-x="571" d="M63 1473l130 169l329 -346l-37 -43z" />
<glyph unicode="a" horiz-adv-x="1079" d="M78 227q0 91 45 164.5t126 123t185.5 80t231.5 44.5v182q0 107 -49.5 163t-165.5 56q-81 0 -139 -36.5t-58 -73.5q0 -16 11.5 -32t25.5 -28t25.5 -35.5t11.5 -52.5q0 -45 -30 -72.5t-75 -27.5q-58 0 -88.5 31.5t-30.5 89.5q0 38 19.5 82.5t59.5 88.5t94 80t129 58.5 t157 22.5q163 0 239.5 -67.5t76.5 -221.5v-635q0 -74 86 -74q32 0 79 21l15 -23q-18 -52 -89 -102.5t-163 -50.5q-40 0 -66 11.5t-39.5 36.5t-19 48.5t-10.5 64.5q-60 -74 -143 -117.5t-173 -43.5q-136 0 -207 71t-71 174zM307 279q0 -85 49.5 -121.5t122.5 -36.5 q55 0 106 23t81 49v389q-97 -14 -168.5 -44.5t-112 -72t-59.5 -88t-19 -98.5z" />
<glyph unicode="b" horiz-adv-x="1198" d="M61 1552v45l340 31l7 -6v-571q38 36 114 62t170 26q130 0 230 -70.5t151 -185.5t51 -254q0 -105 -20 -199.5t-63.5 -177t-106.5 -142t-155 -94t-204 -34.5q-57 0 -126.5 17t-114.5 52l-127 -69l-12 4v1458q0 43 -17 65.5t-36 28t-69 12.5q-8 1 -12 2zM408 152 q24 -30 74.5 -53t107.5 -23q77 0 137 38.5t96.5 106t55 153t18.5 185.5q0 230 -92 342.5t-250 112.5q-92 0 -147 -25v-837z" />
<glyph unicode="c" horiz-adv-x="999" d="M74 514q0 176 61.5 316.5t180 222.5t274.5 82q86 0 152.5 -24t103 -61.5t54.5 -75t18 -71.5q0 -63 -30.5 -101t-88.5 -38q-65 0 -93 30.5t-28 75.5q0 26 13 50.5t26.5 42.5t13.5 28q0 25 -41.5 42.5t-103.5 17.5q-91 0 -157 -65t-96 -165.5t-30 -220.5q0 -217 88.5 -336 t239.5 -119q173 0 289 119l28 -22q-30 -106 -126.5 -183t-233.5 -77q-109 0 -197 30t-146.5 80t-97.5 119t-56 144.5t-17 158.5z" />
<glyph unicode="d" horiz-adv-x="1212" d="M74 512q0 178 65.5 319.5t188 223.5t282.5 82q110 0 183 -21v363q0 16 -5.5 28t-16 20t-21 13t-27.5 8t-26.5 4t-26.5 2.5t-21 1.5v52l346 24l11 -10v-1444q0 -61 27 -84t106 -31v-45l-322 -45l-10 7q-11 52 -14 116q-35 -53 -115 -87t-170 -34q-131 0 -230.5 72.5 t-151.5 194t-52 270.5zM303 590q0 -109 17.5 -195t55 -152t101 -101.5t150.5 -35.5q86 0 166 50v819q-32 32 -78.5 53t-96.5 21q-140 0 -227.5 -124t-87.5 -335z" />
<glyph unicode="e" horiz-adv-x="1044" d="M74 535q0 259 144.5 429.5t373.5 170.5q126 0 215.5 -59t130.5 -150.5t41 -202.5v-18l-666 -3q-6 -37 -6 -114q0 -63 12 -124.5t38.5 -121t65.5 -105t98 -73t130 -27.5q57 0 106 11.5t86 33.5t58.5 39.5t46.5 42.5l29 -22q-28 -105 -135 -186t-250 -81q-130 0 -230.5 43 t-162.5 119.5t-93.5 177t-31.5 220.5zM319 772l445 2q0 122 -58 195t-159 73q-91 0 -156 -71.5t-72 -198.5z" />
<glyph unicode="f" horiz-adv-x="663" d="M47 1006v65l146 21v145q0 418 339 418q110 0 171 -50.5t61 -121.5q0 -55 -26.5 -87t-75.5 -32t-74 26.5t-25 69.5q0 24 11.5 44.5t22.5 34.5t11 20q0 21 -24 32t-60 11q-47 0 -82.5 -33.5t-35.5 -106.5v-381l223 6v-88h-223v-849q0 -51 32.5 -71t110.5 -32v-47h-475v47 q26 6 42.5 11.5t36.5 16.5t30 30t10 45v851z" />
<glyph unicode="g" horiz-adv-x="1073" d="M12 -201q0 31 10.5 63t34.5 67t71 66.5t112 53.5q-99 43 -99 137q0 79 65 145.5t148 102.5q-132 32 -203 117t-71 211q0 173 109.5 272t293.5 99q112 0 242 -48l317 19v-119l-229 12q41 -40 65.5 -97.5t24.5 -115.5q0 -172 -112 -266t-293 -94q-34 0 -74 4 q-18 -9 -39.5 -23.5t-44.5 -43t-23 -56.5q0 -94 115 -94h293q39 0 67.5 -1t67.5 -6t66.5 -14t57 -25t47.5 -39t30 -57t12 -77q0 -181 -171 -301.5t-447 -120.5q-221 0 -332 64t-111 165zM211 -147q0 -75 74 -129t221 -54q156 0 270.5 65.5t114.5 164.5q0 60 -47.5 89 t-118.5 29h-289q-96 0 -164 15q-37 -58 -49 -95t-12 -85zM297 786q0 -149 45 -214.5t156 -65.5q92 0 141 63t49 183q0 68 -8.5 117.5t-30 93.5t-65 67t-107.5 23q-55 0 -92 -21.5t-55.5 -61.5t-25.5 -83.5t-7 -100.5z" />
<glyph unicode="h" horiz-adv-x="1282" d="M78 1561v45l338 51l8 -4v-664q62 69 159 109.5t201 40.5q146 0 223.5 -85t77.5 -216v-688q0 -50 29 -70.5t90 -32.5v-47h-450v47q26 6 42.5 11.5t36 16.5t29.5 30t10 45v665q0 86 -52 137.5t-148 51.5q-66 0 -137 -25.5t-111 -54.5v-774q0 -50 29 -70.5t90 -32.5v-47 h-451v47q26 6 42.5 11.5t36.5 16.5t30 30t10 45v1290q0 29 -9 50t-20 32.5t-32.5 20.5t-34 11.5t-37.5 6.5z" />
<glyph unicode="i" horiz-adv-x="624" d="M82 1008v45l338 80l8 -5v-978q0 -50 29 -70.5t90 -32.5v-47h-451v47q26 6 42.5 11.5t36.5 16.5t30 30t10 45v724q0 36 -12 61.5t-33.5 39.5t-41.5 21.5t-46 11.5zM188 1399q0 58 35 95.5t96 37.5q65 0 99.5 -37.5t34.5 -95.5q0 -57 -37 -95t-97 -38q-67 0 -99 36.5 t-32 96.5z" />
<glyph unicode="j" horiz-adv-x="634" d="M-139 -250q0 55 35.5 93t93.5 38q56 0 89.5 -27.5t33.5 -78.5q0 -29 -9.5 -50.5t-21.5 -30t-21.5 -17t-9.5 -15.5q0 -37 78 -37q109 0 109 148v1097q0 118 -134 138v45l336 80l11 -7v-1171q0 -188 -85 -289.5t-239 -101.5q-133 0 -199.5 52.5t-66.5 133.5zM211 1399 q0 58 35 95.5t96 37.5q65 0 99 -37t34 -96q0 -57 -36.5 -95t-96.5 -38q-67 0 -99 36.5t-32 96.5z" />
<glyph unicode="k" horiz-adv-x="1177" d="M78 1552v45l338 31l8 -4v-975q135 0 192 66l162 192q47 54 47 94q0 23 -26 36t-109 26v47h449v-47q-52 -15 -97 -45t-96 -84l-244 -264l355 -525q48 -73 117 -98v-47h-295v31l-344 555h-111v-436q0 -50 29 -70.5t90 -32.5v-47h-451v47q26 6 42.5 11.5t36.5 16.5t30 30 t10 45v1302q0 30 -7.5 48t-29 28.5t-38.5 14t-58 9.5z" />
<glyph unicode="l" horiz-adv-x="620" d="M78 1552v45l338 31l8 -4v-1474q0 -50 29 -70.5t90 -32.5v-47h-451v47q26 6 42.5 11.5t36.5 16.5t30 30t10 45v1302q0 30 -7.5 48t-29 28.5t-38.5 14t-58 9.5z" />
<glyph unicode="m" horiz-adv-x="1947" d="M82 1008v45l338 80l8 -5v-139q146 150 360 150q106 0 176.5 -47t102.5 -127q82 86 174 130t209 44q146 0 223.5 -85t77.5 -216v-688q0 -50 29 -70.5t90 -32.5v-47h-451v47q26 6 42.5 11.5t36.5 16.5t30 30t10 45v665q0 86 -52.5 137.5t-148.5 51.5q-66 0 -139 -28 t-117 -61q9 -56 9 -77v-699q0 -43 29.5 -62.5t88.5 -29.5v-47h-450v47q26 6 42.5 11.5t36.5 16.5t30 30t10 45v673q0 81 -53.5 131t-147.5 50q-66 0 -137 -25.5t-111 -54.5v-774q0 -50 29 -70.5t90 -32.5v-47h-451v47q26 6 42.5 11.5t36.5 16.5t30 30t10 45v724 q0 36 -12 61.5t-33.5 39.5t-41.5 21.5t-46 11.5z" />
<glyph unicode="n" d="M82 1008v45l338 80l8 -5v-139q146 150 360 150q146 0 224 -85t78 -216v-688q0 -50 28.5 -70.5t89.5 -32.5v-47h-450v47q26 6 42.5 11.5t36.5 16.5t30 30t10 45v665q0 86 -52.5 137.5t-148.5 51.5q-66 0 -137 -25.5t-111 -54.5v-774q0 -50 29 -70.5t90 -32.5v-47h-451v47 q26 6 42.5 11.5t36.5 16.5t30 30t10 45v724q0 36 -12 61.5t-33.5 39.5t-41.5 21.5t-46 11.5z" />
<glyph unicode="o" horiz-adv-x="1150" d="M74 551q0 129 30.5 235t91 184.5t158 121.5t224.5 43q160 0 274 -73.5t169.5 -198.5t55.5 -288q0 -275 -124.5 -434t-364.5 -159q-113 0 -201.5 29.5t-146.5 80t-96 123.5t-54 155.5t-16 180.5zM313 614q0 -158 17 -263t54 -165.5t87.5 -85t124.5 -24.5q126 0 185 105 t59 335q0 279 -67 401.5t-218 122.5q-134 0 -188 -102t-54 -324z" />
<glyph unicode="p" horiz-adv-x="1218" d="M82 1008v45l336 80l10 -7v-88q53 46 128.5 73.5t160.5 27.5q196 0 312 -149.5t116 -379.5q0 -122 -29 -225.5t-80.5 -177.5t-121.5 -126.5t-152 -78t-172 -25.5q-86 0 -162 23v-262q0 -26 11.5 -44.5t35.5 -30t49.5 -17.5t63.5 -11v-45h-492v45q26 6 42.5 11.5t36.5 16.5 t30 30t10 45v1120q0 67 -26.5 101.5t-106.5 48.5zM428 129q21 -21 71.5 -38t102.5 -17q103 0 176 68t106.5 175.5t33.5 241.5q0 229 -94 342t-253 113q-88 0 -143 -25v-860z" />
<glyph unicode="q" horiz-adv-x="1189" d="M74 520q0 123 36 233.5t102.5 196.5t170.5 136.5t231 50.5q146 0 260 -43l117 32l15 -6v-1376q0 -53 27 -73.5t91 -28.5v-52h-491v52q38 5 63.5 11t49.5 17t35.5 29.5t11.5 44.5v352q-45 -61 -125 -92q-74 -29 -150 -29h-10q-107 2 -191.5 47.5t-136.5 121.5t-79 172 t-27 204zM303 586q0 -107 17.5 -192t54.5 -151t100.5 -101.5t151.5 -35.5q93 0 166 50v813q-22 33 -73.5 56.5t-101.5 23.5q-139 0 -227 -121.5t-88 -341.5z" />
<glyph unicode="r" horiz-adv-x="905" d="M82 1008v45l336 80l10 -5v-153q48 61 134 111q84 49 152 49h3q74 -1 112.5 -35.5t38.5 -95.5q0 -36 -12.5 -62.5t-32 -39.5t-36 -19t-29.5 -6q-71 0 -103 79q-8 21 -20.5 29t-38.5 8q-33 0 -85.5 -29t-82.5 -53v-761q0 -50 31.5 -70.5t103.5 -32.5v-47h-467v47 q26 6 40.5 11t36 16.5t32 30.5t10.5 45v724q0 35 -12.5 61t-34.5 40t-41.5 21t-44.5 12z" />
<glyph unicode="s" horiz-adv-x="913" d="M90 365l60 2q11 -77 33.5 -132.5t48.5 -86.5t62.5 -48.5t67.5 -22.5t72 -5q102 0 157.5 52t55.5 140q0 32 -5.5 57t-21.5 46t-29 34.5t-43 29.5t-47.5 24.5t-58.5 25.5q-9 4 -14 6l-57 25q-55 23 -85 37.5t-72.5 42.5t-64.5 56t-38.5 72t-16.5 97q0 134 98.5 225 t274.5 91q178 0 293 -37v-289h-58q-23 122 -81 178.5t-158 56.5t-141 -43t-41 -110q0 -34 16.5 -62.5t48.5 -50t58 -34.5t65 -29l98 -39q55 -22 96.5 -46t84 -61.5t65.5 -92t23 -122.5t-23 -131t-69.5 -118.5t-129.5 -89t-192 -33.5q-44 0 -88.5 3t-73.5 6.5t-80 10 t-82 10.5z" />
<glyph unicode="t" horiz-adv-x="727" d="M57 1014v47q68 28 118 63.5t80 74.5t47 70.5t34 72.5q1 4 1.5 5.5t2 4.5t2.5 5.5t2 4.5h58l-3 -285l295 15v-93l-295 -4v-739q0 -66 36.5 -101.5t88.5 -35.5q65 0 146 47l22 -27q-43 -70 -113.5 -112.5t-152.5 -42.5q-122 0 -181 70.5t-59 195.5v749z" />
<glyph unicode="u" d="M70 1049v45l336 28l10 -6v-821q0 -84 55 -134t152 -50q65 0 133.5 25.5t107.5 53.5v725q0 36 -12 61.5t-33.5 39.5t-41.5 21.5t-46 11.5v45l336 28l10 -6v-946q0 -21 3.5 -37t13 -26.5t17 -17.5t23 -11.5t23.5 -6.5t27.5 -4.5t25.5 -3.5v-45l-338 -36l-8 4v139 q-62 -69 -157 -109.5t-199 -40.5q-147 0 -226 82.5t-79 212.5v645q0 36 -12 61.5t-33.5 39.5t-41.5 21.5t-46 11.5z" />
<glyph unicode="v" horiz-adv-x="1019" d="M0 1063v47h426v-47q-33 -7 -49.5 -12t-34.5 -21t-18 -41q0 -17 6 -35l254 -768h6l211 768q6 18 6 35q0 25 -18 41t-34.5 21t-49.5 12v47h315v-47q-42 -12 -65 -32.5t-37 -69.5l-287 -928l4 -33h-207l-326 961q-17 49 -41 72.5t-61 29.5z" />
<glyph unicode="w" horiz-adv-x="1710" d="M16 1063v47h426v-47q-33 -7 -49.5 -12t-34.5 -21t-18 -41q0 -17 6 -35l229 -768h7l262 924h110l303 -924h7l206 758q9 27 9 47q0 15 -7 27t-14 18.5t-25 12.5t-25 7.5t-30 6.5v47h316v-47q-42 -12 -65.5 -32.5t-37.5 -69.5l-286 -928l4 -33h-207l-256 756h-4l-219 -723 l4 -33h-207l-301 961q-16 50 -41 73t-62 29z" />
<glyph unicode="x" horiz-adv-x="1079" d="M0 0v47q42 18 72 40.5t46 41t58 70.5l275 342l-279 422q-54 80 -131 96v51h496v-51q-47 -4 -76.5 -16.5t-38 -25t-8.5 -24.5q0 -22 28 -69l176 -269l164 240q1 1 9 13.5t11 17.5t10 17.5t10 20t6 17.5t3 18q0 22 -22.5 37t-85.5 23v51h356v-51q-73 -37 -147 -131 l-268 -340l286 -428q20 -30 33.5 -46t38.5 -33t57 -26v-55h-463v47q105 21 105 59q0 27 -33 78l-188 285l-168 -233q-58 -91 -58 -115q0 -30 24 -44.5t85 -29.5v-47h-383z" />
<glyph unicode="y" horiz-adv-x="1034" d="M0 1063v47h426v-47q-33 -7 -49.5 -12t-34.5 -21t-18 -41q0 -17 6 -35l260 -731h4l219 717q8 48 8 55q0 17 -7.5 29t-26.5 20t-29 10.5t-37 8.5v47h313v-47q-22 -5 -39 -16t-27 -20t-20.5 -31t-14 -32t-13.5 -40l-328 -1000q-57 -174 -140 -259t-208 -85q-100 0 -158.5 57 t-58.5 132q0 68 40 111.5t111 43.5q52 0 83.5 -30.5t31.5 -77.5q0 -35 -13 -59.5t-28 -34.5t-28 -20.5t-13 -20.5q0 -12 15 -20.5t44 -8.5q137 0 209 219l49 149h-84l-344 947q-14 40 -36.5 64.5t-63.5 31.5z" />
<glyph unicode="z" horiz-adv-x="991" d="M63 0v51l603 969h-320q-44 0 -76 -11.5t-51.5 -28t-34.5 -49.5t-22 -61.5t-17 -78.5h-61v319h838v-49l-596 -969h256q145 0 203 57t71 218h64l-15 -367h-842z" />
<glyph unicode="{" horiz-adv-x="681" d="M70 621q0 39 25.5 57t54.5 18q20 0 58 -25.5t44 -25.5q41 0 41 98q0 40 -13.5 189.5t-13.5 214.5q0 158 96.5 252.5t288.5 87.5v-68q-100 0 -148 -60t-48 -161q0 -67 7 -196.5t7 -170.5q0 -88 -43.5 -145.5t-128.5 -69.5v-6q176 -35 176 -262q0 -72 -11 -226t-11 -224 q0 -48 9.5 -88t31 -76t62 -56t97.5 -20v-68q-389 -4 -389 379q0 71 18.5 248.5t18.5 282.5q0 37 -13.5 61.5t-39.5 24.5q-4 0 -39 -22.5t-53 -22.5t-34.5 4.5t-33 24t-16.5 51.5z" />
<glyph unicode="|" horiz-adv-x="589" d="M246 -338v1864h98v-1864h-98z" />
<glyph unicode="}" horiz-adv-x="681" d="M31 -342q57 0 97.5 20t62 56t31 76t9.5 88q0 70 -11 224t-11 226q0 227 176 262v6q-85 12 -128.5 69.5t-43.5 145.5q0 41 7 170.5t7 196.5q0 101 -48 161t-148 60v68q192 7 288.5 -87.5t96.5 -252.5q0 -65 -13.5 -214.5t-13.5 -189.5q0 -98 41 -98q6 0 44 25.5t58 25.5 q29 0 54.5 -18t25.5 -57q0 -32 -16.5 -51.5t-33 -24t-34.5 -4.5t-53 22.5t-39 22.5q-26 0 -39.5 -24.5t-13.5 -61.5q0 -105 18.5 -282.5t18.5 -248.5q0 -383 -389 -379v68z" />
<glyph unicode="~" horiz-adv-x="1126" d="M76 653q59 207 237 207q70 0 146 -21t130.5 -46.5t119 -46.5t112.5 -21q17 0 33 5t36 17.5t36.5 41.5t25.5 71l97 -37q-17 -76 -55 -125t-80.5 -67.5t-90.5 -18.5q-63 0 -134 22t-124 49t-122.5 49t-129.5 22q-38 0 -76.5 -34.5t-58.5 -105.5z" />
<glyph unicode="&#xa1;" horiz-adv-x="647" d="M195 1008q0 56 36.5 93.5t94.5 37.5t93.5 -37.5t35.5 -93.5t-38 -95t-91 -39q-56 0 -93.5 38.5t-37.5 95.5zM197 -172l94 889h61l101 -889q11 -101 -22.5 -148t-100.5 -47t-105 47t-28 148z" />
<glyph unicode="&#xa2;" horiz-adv-x="972" d="M63 514q0 176 62 316.5t180.5 222.5t274.5 82q67 0 135 -21l47 154l69 -19l-49 -162q61 -35 93 -87.5t32 -96.5q0 -63 -30.5 -101t-88.5 -38q-63 0 -94 31l-190 -629q52 -21 117 -21q172 0 288 119l29 -22q-30 -106 -126.5 -183t-233.5 -77q-68 0 -127 12l-62 -203 l-70 16l62 203q-110 36 -183.5 117t-104 177.5t-30.5 209.5zM293 600q0 -284 145 -397l250 825q-41 23 -113 23q-91 0 -156.5 -65t-95.5 -165t-30 -221z" />
<glyph unicode="&#xa3;" horiz-adv-x="1204" d="M51 92q0 53 34.5 84t94.5 31q68 0 162 -49q33 51 46 118.5t13 169.5q0 28 -4.5 61t-14.5 69.5t-16.5 59t-19 60l-14.5 43.5h-217l10 76h182q-71 196 -71 301q0 175 117 287.5t321 112.5q165 0 261.5 -71.5t96.5 -172.5q0 -58 -33.5 -93.5t-89.5 -35.5q-53 0 -82.5 29.5 t-29.5 80.5q0 31 21.5 65t21.5 44q0 11 -9.5 24.5t-29.5 27.5t-59 23t-89 9q-104 0 -162.5 -75.5t-58.5 -186.5q0 -19 1.5 -36.5t3 -32t7 -36.5t9.5 -35.5t14 -44.5t16 -49t21.5 -62.5t25.5 -72.5h383l-10 -76h-350q57 -178 57 -272q0 -84 -52.5 -175.5t-135.5 -133.5v-2 l444 2q114 0 162.5 41t48.5 102q0 30 -16 76l45 6q24 -73 24 -145q0 -110 -69 -183t-207 -73q-136 0 -259 20t-241 80q-87 -100 -178 -100q-63 0 -94 34t-31 76z" />
<glyph unicode="&#xa4;" horiz-adv-x="1300" d="M41 565v86h162v54q0 90 8 155h-170v86h182q50 271 211 415t418 144q85 0 152.5 -16.5t108 -41t67.5 -57t37 -61t10 -55.5q0 -64 -31 -106t-88 -42q-64 0 -92.5 32t-28.5 77q0 35 26.5 76.5t26.5 50.5q0 24 -62.5 41.5t-129.5 17.5q-327 0 -379 -475h483v-86h-489 q-2 -33 -2 -98q0 -74 2 -111h489v-86h-483q10 -111 33.5 -196t67.5 -157t118 -110.5t176 -38.5q67 0 130 18t63 42q0 9 -26.5 50.5t-26.5 76.5q0 45 28 76.5t92 31.5q59 0 91 -37.5t32 -99.5q0 -27 -11.5 -57t-40.5 -63.5t-71.5 -59.5t-111.5 -43.5t-154 -17.5 q-589 0 -649 585h-168z" />
<glyph unicode="&#xa5;" horiz-adv-x="1243" d="M0 1440v47h539v-47q-77 -6 -109.5 -24.5t-32.5 -51.5q0 -30 25 -74l291 -508l239 473q39 76 39 115q0 60 -139 70v47h391v-47q-81 -9 -135 -109l-336 -608h318v-94h-340l-2 -441q0 -73 37.5 -102.5t136.5 -38.5v-47h-588v47q93 12 133.5 39.5t40.5 97.5v445h-356v94h331 l-356 631q-21 37 -56.5 60.5t-70.5 25.5z" />
<glyph unicode="&#xa6;" horiz-adv-x="589" d="M246 -211v784h98v-784h-98zM246 782v787h98v-787h-98z" />
<glyph unicode="&#xa7;" horiz-adv-x="1105" d="M139 850q0 153 49.5 279.5t132 207t187 124.5t217.5 44q98 0 157.5 -43.5t59.5 -109.5q0 -51 -32.5 -88t-94.5 -37q-37 0 -63.5 18.5t-41 44.5t-27 52t-29.5 44.5t-40 18.5q-88 0 -219 -131q283 -221 427.5 -472.5t144.5 -520.5q0 -309 -153.5 -496.5t-399.5 -187.5 q-98 0 -157.5 43.5t-59.5 109.5q0 51 32.5 88t94.5 37q46 0 76 -28t42.5 -61t33 -61t48.5 -28q42 0 98 33.5t105 103.5q-188 123 -323 296.5t-200 356.5t-65 363zM248 866q0 -265 148 -530.5t390 -425.5q35 56 56.5 166.5t21.5 199.5q0 241 -136 490t-388 430 q-56 -71 -74 -150.5t-18 -179.5z" />
<glyph unicode="&#xa8;" horiz-adv-x="841" d="M78 1425q0 58 35 96t96 38q65 0 99 -37.5t34 -96.5q0 -57 -36.5 -95t-96.5 -38q-67 0 -99 36.5t-32 96.5zM498 1425q0 58 35 96t96 38q65 0 99 -37.5t34 -96.5q0 -57 -36.5 -95t-96.5 -38q-67 0 -99 36.5t-32 96.5z" />
<glyph unicode="&#xa9;" horiz-adv-x="1734" d="M98 702q0 161 40.5 296.5t112 233t170 166t213.5 101.5t243 33q126 0 239.5 -33.5t208.5 -100.5t164.5 -162t108 -224t38.5 -279q0 -234 -91 -417.5t-266.5 -289.5t-408.5 -106q-188 0 -335.5 57t-242.5 160.5t-144.5 246.5t-49.5 318zM199 702q0 -206 78 -362.5 t231 -246t362 -89.5q202 0 355.5 94.5t233 256.5t79.5 366q0 183 -53.5 324.5t-148 228t-215.5 130.5t-263 44q-141 0 -262 -53t-209 -149t-138 -236.5t-50 -307.5zM399 707q0 271 140.5 424t365.5 153q145 0 283 -33l-2 -252h-41q-26 123 -82.5 172.5t-163.5 49.5 q-92 0 -161.5 -66t-104.5 -172.5t-35 -234.5q0 -108 18 -195t55.5 -155t101 -105t149.5 -37q101 0 159 57.5t78 190.5h41l-12 -303q-16 3 -55 -0.5t-98.5 -9.5t-104.5 -7q-152 -3 -264 39q-121 45 -194 167.5t-73 316.5z" />
<glyph unicode="&#xaa;" horiz-adv-x="782" d="M115 946q0 108 103.5 171t256.5 73v115q0 66 -29.5 98.5t-99.5 32.5q-44 0 -77 -18.5t-33 -37.5q0 -11 13 -22t26.5 -28.5t13.5 -43.5q0 -29 -22 -49t-56 -20q-40 0 -62 22t-22 57q0 71 91.5 137t217.5 66q106 0 154.5 -40t48.5 -134v-375q0 -51 47 -51q15 0 51 12l6 -10 q-8 -36 -52.5 -69t-104.5 -33q-56 0 -78 25.5t-27 72.5q-75 -98 -182 -98q-88 0 -136 42.5t-48 104.5zM176 608v88h510v-88h-510zM285 997q0 -51 27.5 -76.5t70.5 -25.5q51 0 92 29v235q-100 -14 -145 -58t-45 -104z" />
<glyph unicode="&#xab;" horiz-adv-x="948" d="M86 567v95l342 294l49 -41l-192 -286l192 -320l-49 -33zM492 567v95l342 294l49 -41l-193 -286l193 -320l-49 -33z" />
<glyph unicode="&#xac;" horiz-adv-x="1126" d="M94 631v112h936v-489h-121v377h-815z" />
<glyph unicode="&#xad;" horiz-adv-x="604" d="M66 588v119h473v-119h-473z" />
<glyph unicode="&#xae;" horiz-adv-x="1734" d="M98 702q0 161 40.5 296.5t112 233t170 166t213.5 101.5t243 33q126 0 239.5 -33.5t208.5 -100.5t164.5 -162t108 -224t38.5 -279q0 -234 -91 -417.5t-266.5 -289.5t-408.5 -106q-188 0 -335.5 57t-242.5 160.5t-144.5 246.5t-49.5 318zM199 702q0 -206 78 -362.5 t231 -246t362 -89.5q288 0 471 186h-223l-82 408q-14 70 -47 94.5t-88 24.5h-141v-385q0 -50 27 -69t100 -27v-46h-430v46q36 4 55.5 8.5t38 14t26 25.5t7.5 42v786q0 50 -27.5 69.5t-99.5 24.5v47h442q175 0 271 -67t96 -191q0 -98 -69.5 -167.5t-186.5 -79.5v-7 q79 -11 135.5 -58t73.5 -118l59 -248q6 -24 15 -39t24.5 -23.5t28 -11.5t36.5 -7q156 198 156 485q0 183 -53.5 324.5t-148 228t-215.5 130.5t-263 44q-141 0 -262 -53t-209 -149t-138 -236.5t-50 -307.5zM760 784h117q44 0 80 9t69.5 29.5t52.5 61.5t19 99 q0 94 -52.5 143.5t-144.5 49.5h-141v-392z" />
<glyph unicode="&#xaf;" horiz-adv-x="843" d="M106 1325v148h631v-148h-631z" />
<glyph unicode="&#xb0;" horiz-adv-x="593" d="M70 1298q0 103 61.5 170.5t163.5 67.5q114 0 171.5 -61.5t57.5 -165.5q0 -97 -63.5 -162.5t-165.5 -65.5q-101 0 -163 60.5t-62 156.5zM168 1309q0 -70 34.5 -110t92.5 -40q62 0 97.5 37t35.5 113q0 69 -35 110t-98 41q-57 0 -92 -41.5t-35 -109.5z" />
<glyph unicode="&#xb1;" horiz-adv-x="1126" d="M94 0v113h938v-113h-938zM94 717v112h410v435h117v-435h409v-112h-409v-441h-117v441h-410z" />
<glyph unicode="&#xb2;" horiz-adv-x="669" d="M66 1337q36 75 110.5 125.5t165.5 50.5q92 0 155.5 -57.5t63.5 -150.5q0 -61 -42 -131t-92.5 -120t-121 -117t-100.5 -103v-3h297q8 0 15 3.5t11 6.5t8 12t5 12t4 15.5t4 14.5h39l-29 -199h-487v39q14 19 42 55q71 92 102.5 134.5t75 105.5t61 98t31 75.5t13.5 76.5 q0 63 -35.5 95t-95.5 32q-84 0 -164 -90z" />
<glyph unicode="&#xb3;" horiz-adv-x="698" d="M70 825q0 38 24.5 64t61.5 26q36 0 56.5 -19.5t20.5 -45.5q0 -28 -18 -50t-18 -24q0 -33 94 -33q87 0 132.5 43t45.5 115q0 89 -75.5 139.5t-170.5 44.5l-8 35q4 2 23.5 14t25.5 16l24 16t25.5 18l22.5 18t22 20t17 20.5t14.5 23t8 23.5t3.5 26q0 47 -30 74.5t-88 27.5 q-85 0 -168 -88l-31 21q35 72 102.5 116.5t155.5 44.5q90 0 143.5 -42.5t53.5 -118.5q0 -57 -48 -101.5t-129 -70.5q107 -12 175.5 -74t68.5 -156q0 -125 -96.5 -195.5t-224.5 -70.5q-93 0 -154 38t-61 105z" />
<glyph unicode="&#xb4;" horiz-adv-x="571" d="M63 1296l330 346l129 -169l-422 -220z" />
<glyph unicode="&#xb5;" horiz-adv-x="1849" d="M74 688q0 183 67.5 350t181 287.5t271 192t330.5 71.5q174 0 331.5 -71.5t271.5 -192t181.5 -287.5t67.5 -350t-67.5 -350t-181.5 -287.5t-271.5 -192t-331.5 -71.5q-173 0 -330.5 71.5t-271 192t-181 287.5t-67.5 350zM160 688q0 -165 60.5 -315.5t163 -259 t243.5 -172.5t297 -64q209 0 385 108.5t278.5 295t102.5 407.5t-102.5 407.5t-278.5 295t-385 108.5q-156 0 -297 -64t-243.5 -172.5t-163 -259t-60.5 -315.5zM442 504q0 37 25.5 61.5t62.5 32.5q41 9 81.5 21t68 22t75 27.5t81.5 29.5v15q-46 12 -105 26t-91 21.5t-70 18.5 t-57 21t-37.5 25.5t-25 36t-6.5 47.5q0 42 29.5 77.5t73.5 35.5q45 0 88.5 -25.5t74 -59.5t78 -81.5t89.5 -77.5q1 -2 1.5 -1.5t2.5 2t4 1.5q-6 88 -41 189t-35 147q0 49 34.5 83t84.5 34q49 0 79.5 -33.5t30.5 -83.5q0 -45 -32.5 -148.5t-40.5 -187.5l8 -6q37 24 85.5 70.5 t84 83.5t79 65.5t78.5 28.5q47 0 76 -35t29 -78q0 -38 -13.5 -59t-48 -34.5t-74.5 -22t-114 -30t-145 -50.5v-15q25 -20 134 -53.5t173 -46.5q39 -8 63.5 -33.5t24.5 -66.5v-25q-12 -41 -38 -62.5t-60 -21.5q-43 0 -94 39t-119.5 105t-118.5 100q-1 0 -4.5 -2t-5.5 -2 q8 -91 40.5 -194.5t32.5 -149.5q0 -48 -30.5 -81.5t-79.5 -33.5t-84 34t-35 81q0 40 15.5 89t34 115t22.5 140q-5 0 -9 4q-22 -19 -98.5 -95.5t-128.5 -112.5t-100 -36q-41 0 -72 32t-31 83z" />
<glyph unicode="&#xb6;" horiz-adv-x="1271" d="M125 965q0 121 50.5 221.5t135.5 165.5t194 100t228 35h461v-92h-133q-38 0 -55 -28.5t-17 -90.5v-1198q0 -81 -11.5 -149t-40.5 -130.5t-73.5 -106t-114.5 -69.5t-161 -26q-98 0 -157.5 43.5t-59.5 109.5q0 51 32.5 88t94.5 37q46 0 76 -28t42.5 -61t33 -61t48.5 -28 q45 0 79 27t53 67t31 94.5t16 101t4 95.5v403h-168q-588 0 -588 480z" />
<glyph unicode="&#xb7;" horiz-adv-x="512" d="M125 709q0 56 38 94.5t91 38.5q56 0 93.5 -38t37.5 -95q0 -56 -36.5 -93.5t-94.5 -37.5t-93.5 37.5t-35.5 93.5z" />
<glyph unicode="&#xb8;" horiz-adv-x="655" d="M82 -365q0 33 21.5 55.5t50.5 22.5q33 0 50 -15.5t17 -39.5q0 -15 -10 -31t-10 -18q0 -5 8 -11t26 -11t41 -5q138 0 138 103q0 27 -20.5 45.5t-59 27.5t-75 13t-87.5 6l-10 14l100 275h70l-60 -164q267 -4 267 -166q0 -92 -73 -153.5t-194 -61.5q-88 0 -139 32.5 t-51 81.5z" />
<glyph unicode="&#xb9;" horiz-adv-x="624" d="M133 1434v41q173 15 252 43h10v-697q0 -37 28.5 -52.5t88.5 -20.5v-41h-377v41q31 4 45 6.5t33 10t27 20t8 32.5v608z" />
<glyph unicode="&#xba;" horiz-adv-x="794" d="M86 1145q0 166 78 264t233 98q152 0 232 -95.5t80 -250.5q0 -170 -78.5 -269t-227.5 -99q-87 0 -150 27t-98.5 76.5t-52 110.5t-16.5 138zM141 608v88h510v-88h-510zM260 1186q0 -130 17.5 -203.5t48.5 -101t84 -27.5q66 0 94 62.5t28 207.5q0 172 -34 247t-111 75 q-71 0 -99 -61.5t-28 -198.5z" />
<glyph unicode="&#xbb;" horiz-adv-x="948" d="M66 309l192 320l-192 286l49 41l342 -294v-95l-342 -291zM471 309l193 320l-193 286l49 41l342 -294v-95l-342 -291z" />
<glyph unicode="&#xbc;" horiz-adv-x="1492" d="M133 1434v41q173 15 252 43h10v-697q0 -37 28.5 -52.5t88.5 -20.5v-41h-377v41q31 4 45 6.5t33 10t27 20t8 32.5v608zM270 8l797 1505l72 -36l-793 -1504zM752 227v78l331 490v10h142v-473h59q40 0 49 39h35l-12 -144h-131v-110q0 -39 14.5 -54.5t54.5 -21.5v-39h-278v39 q37 7 52 20t15 50v116h-331zM842 332h241v348h-6z" />
<glyph unicode="&#xbd;" horiz-adv-x="1492" d="M133 1434v41q173 15 252 43h10v-697q0 -37 28.5 -52.5t88.5 -20.5v-41h-377v41q31 4 45 6.5t33 10t27 20t8 32.5v608zM270 8l797 1505l72 -36l-793 -1504zM842 653q36 75 110.5 125.5t165.5 50.5q92 0 155.5 -57.5t63.5 -150.5q0 -61 -42 -133t-92 -124t-121.5 -122.5 t-100.5 -104.5v-2h297q8 0 15 3.5t11 6.5t8 12t5 12t4 15.5t4 14.5h39l-29 -199h-487v39q187 245 256.5 356.5t69.5 200.5q0 63 -36 95t-96 32q-83 0 -163 -90z" />
<glyph unicode="&#xbe;" horiz-adv-x="1492" d="M70 825q0 38 24.5 64t61.5 26q36 0 56.5 -19.5t20.5 -45.5q0 -28 -18 -50t-18 -24q0 -33 94 -33q87 0 132.5 43t45.5 115q0 89 -75.5 139.5t-170.5 44.5l-8 35q4 2 23.5 14t25.5 16l24 16t25.5 18l22.5 18t22 20t17 20.5t14.5 23t8 23.5t3.5 26q0 47 -30 74.5t-88 27.5 q-85 0 -168 -88l-31 21q35 72 102.5 116.5t155.5 44.5q90 0 143.5 -42.5t53.5 -118.5q0 -57 -48 -101.5t-129 -70.5q107 -12 175.5 -74t68.5 -156q0 -125 -96.5 -195.5t-224.5 -70.5q-93 0 -154 38t-61 105zM287 8l796 1505l72 -36l-793 -1504zM752 227v78l331 490v10h142 v-473h59q40 0 49 39h35l-12 -144h-131v-110q0 -39 14.5 -54.5t54.5 -21.5v-39h-278v39q37 7 52 20t15 50v116h-331zM842 332h241v348h-6z" />
<glyph unicode="&#xbf;" horiz-adv-x="968" d="M115 -37q0 61 18.5 115.5t47.5 96t75.5 83t90 71.5t104.5 66q48 30 66 53.5t18 65.5v184h79l-2 -299q0 -82 -15 -116t-67 -70q-13 -9 -45.5 -29.5t-53 -34.5t-49 -39t-45.5 -49t-29.5 -58t-12.5 -71q0 -100 61.5 -158.5t192.5 -58.5q66 0 120 28t54 64q0 12 -6 19.5 t-26 24.5l-3.5 3.5t-3.5 2.5q-47 37 -47 88q0 49 30.5 77.5t73.5 28.5q59 0 93 -36.5t34 -110.5q0 -31 -12 -66t-40.5 -72t-69 -66t-103.5 -48t-139 -19q-85 0 -152 18t-111 49t-73 73.5t-41 89.5t-12 100zM440 1006q0 56 36.5 93.5t94.5 37.5t93.5 -37.5t35.5 -93.5 t-38 -95t-91 -39q-56 0 -93.5 38.5t-37.5 95.5z" />
<glyph unicode="&#xc0;" horiz-adv-x="1384" d="M8 0v47q55 6 90.5 33t53.5 82l403 1284l-8 41h227l473 -1344q30 -82 129 -96v-47h-549v47q158 26 158 74q0 27 -10 57l-131 385h-461l-90 -313q-23 -77 -23 -115q0 -16 4.5 -26.5t19 -23.5t48.5 -22.5t88 -15.5v-47h-422zM305 1841l129 170l330 -346l-37 -43zM410 655 h403l-213 631h-8z" />
<glyph unicode="&#xc1;" horiz-adv-x="1384" d="M8 0v47q55 6 90.5 33t53.5 82l403 1284l-8 41h227l473 -1344q30 -82 129 -96v-47h-549v47q158 26 158 74q0 27 -10 57l-131 385h-461l-90 -313q-23 -77 -23 -115q0 -16 4.5 -26.5t19 -23.5t48.5 -22.5t88 -15.5v-47h-422zM410 655h403l-213 631h-8zM520 1665l330 346 l129 -170l-422 -219z" />
<glyph unicode="&#xc2;" horiz-adv-x="1384" d="M8 0v47q55 6 90.5 33t53.5 82l403 1284l-8 41h227l473 -1344q30 -82 129 -96v-47h-549v47q158 26 158 74q0 27 -10 57l-131 385h-461l-90 -313q-23 -77 -23 -115q0 -16 4.5 -26.5t19 -23.5t48.5 -22.5t88 -15.5v-47h-422zM340 1636l260 322h119l260 -322l-49 -45 l-271 197l-270 -197zM410 655h403l-213 631h-8z" />
<glyph unicode="&#xc3;" horiz-adv-x="1384" d="M8 0v47q55 6 90.5 33t53.5 82l403 1284l-8 41h227l473 -1344q30 -82 129 -96v-47h-549v47q158 26 158 74q0 27 -10 57l-131 385h-461l-90 -313q-23 -77 -23 -115q0 -16 4.5 -26.5t19 -23.5t48.5 -22.5t88 -15.5v-47h-422zM254 1657q26 102 86.5 164.5t151.5 62.5 q71 0 189 -37t155 -37q52 0 87 23t56 78l45 -13q-52 -239 -231 -239q-73 0 -187.5 37t-152.5 37q-57 0 -93.5 -20.5t-58.5 -72.5zM410 655h403l-213 631h-8z" />
<glyph unicode="&#xc4;" horiz-adv-x="1384" d="M8 0v47q55 6 90.5 33t53.5 82l403 1284l-8 41h227l473 -1344q30 -82 129 -96v-47h-549v47q158 26 158 74q0 27 -10 57l-131 385h-461l-90 -313q-23 -77 -23 -115q0 -16 4.5 -26.5t19 -23.5t48.5 -22.5t88 -15.5v-47h-422zM305 1794q0 58 35 95.5t96 37.5q65 0 99 -37 t34 -96q0 -57 -36.5 -95t-96.5 -38q-67 0 -99 36.5t-32 96.5zM410 655h403l-213 631h-8zM725 1794q0 58 35 95.5t96 37.5q65 0 99 -37t34 -96q0 -57 -36.5 -95t-96.5 -38q-67 0 -99 36.5t-32 96.5z" />
<glyph unicode="&#xc5;" horiz-adv-x="1384" d="M8 0v47q55 6 90.5 33t53.5 82l403 1284l-8 41h227l473 -1344q30 -82 129 -96v-47h-549v47q158 26 158 74q0 27 -10 57l-131 385h-461l-90 -313q-23 -77 -23 -115q0 -16 4.5 -26.5t19 -23.5t48.5 -22.5t88 -15.5v-47h-422zM410 655h403l-213 631h-8zM440 1786 q0 77 59.5 135.5t159.5 58.5q99 0 155 -52t56 -130q0 -90 -59 -143t-162 -53q-98 0 -153.5 55t-55.5 129zM543 1792q0 -56 28 -86.5t82 -30.5q57 0 88 30t31 87q0 117 -119 117q-54 0 -82 -30.5t-28 -86.5z" />
<glyph unicode="&#xc6;" horiz-adv-x="1947" d="M-6 0v47q126 28 178 135l606 1237q-34 7 -170 21v47h860q258 0 332 4l6 -4l-2 -377h-49q-31 126 -56 174q-57 105 -191 116q-17 1 -35 1h-338v-563h286q62 0 103.5 15.5t62.5 48t29.5 68t11.5 87.5h58v-529h-56q-4 34 -9 59t-19 59t-35.5 55.5t-59.5 37t-88 15.5h-284 v-621q0 -43 49 -43h311q42 0 77 6.5t62 15.5t50 27t39 33.5t30 42t22.5 46t17 52.5t13 53t11.5 56h57l-45 -422h-1110v47q96 12 135 36t39 93v418h-420l-162 -344q-1 -4 -11 -28.5t-17 -49t-7 -41.5q0 -30 36.5 -51t140.5 -33v-47h-459zM512 676h381v647q0 45 -43 70z" />
<glyph unicode="&#xc7;" horiz-adv-x="1271" d="M74 705q0 189 50.5 340.5t142 252t220 154t283.5 53.5q217 0 401 -43l-2 -352h-57q-32 174 -110 243.5t-240 69.5q-102 0 -185 -54t-136 -145.5t-81 -210t-28 -251.5q0 -121 13 -219.5t45.5 -187.5t84 -149t133.5 -95t189 -35q54 0 97.5 8.5t84.5 32t70.5 61.5t51 99.5 t29.5 144.5h60l-19 -420q-31 5 -158 -8.5t-192 -13.5h-28l-29 -78q266 -4 266 -166q0 -92 -72.5 -153.5t-193.5 -61.5q-88 0 -139.5 32.5t-51.5 81.5q0 33 21.5 55.5t50.5 22.5q33 0 50.5 -16t17.5 -39q0 -15 -10.5 -31t-10.5 -18q0 -5 8.5 -11t26.5 -11t41 -5 q137 0 137 103q0 27 -20 45.5t-58.5 27.5t-75 13t-87.5 6l-11 14l70 191q-168 10 -277 55q-179 73 -275.5 233t-96.5 435z" />
<glyph unicode="&#xc8;" d="M57 0v47q96 12 135 36t39 93v1127q0 72 -37 100t-137 37v47h750q258 0 332 4l6 -4l-2 -377h-49q-31 127 -57 175q-58 106 -196 115q-14 1 -30 1h-338v-563h287q62 0 103.5 15.5t62.5 48t29.5 68t11.5 87.5h57v-529h-55q-4 34 -9 59t-19 59t-35.5 55.5t-59.5 37t-88 15.5 h-285v-621q0 -43 49 -43h312q42 0 77 6.5t62 15.5t50 27t38.5 33.5t29.5 42.5t22.5 46t17 52t13 53t11.5 56h57l-45 -422h-1110zM336 1841l129 170l330 -346l-37 -43z" />
<glyph unicode="&#xc9;" d="M57 0v47q96 12 135 36t39 93v1127q0 72 -37 100t-137 37v47h750q258 0 332 4l6 -4l-2 -377h-49q-31 127 -57 175q-58 106 -196 115q-14 1 -30 1h-338v-563h287q62 0 103.5 15.5t62.5 48t29.5 68t11.5 87.5h57v-529h-55q-4 34 -9 59t-19 59t-35.5 55.5t-59.5 37t-88 15.5 h-285v-621q0 -43 49 -43h312q42 0 77 6.5t62 15.5t50 27t38.5 33.5t29.5 42.5t22.5 46t17 52t13 53t11.5 56h57l-45 -422h-1110zM573 1665l330 346l129 -170l-422 -219z" />
<glyph unicode="&#xca;" d="M57 0v47q96 12 135 36t39 93v1127q0 72 -37 100t-137 37v47h750q258 0 332 4l6 -4l-2 -377h-49q-31 127 -57 175q-58 106 -196 115q-14 1 -30 1h-338v-563h287q62 0 103.5 15.5t62.5 48t29.5 68t11.5 87.5h57v-529h-55q-4 34 -9 59t-19 59t-35.5 55.5t-59.5 37t-88 15.5 h-285v-621q0 -43 49 -43h312q42 0 77 6.5t62 15.5t50 27t38.5 33.5t29.5 42.5t22.5 46t17 52t13 53t11.5 56h57l-45 -422h-1110zM367 1636l260 322h118l261 -322l-50 -45l-270 197l-270 -197z" />
<glyph unicode="&#xcb;" d="M57 0v47q96 12 135 36t39 93v1127q0 72 -37 100t-137 37v47h750q258 0 332 4l6 -4l-2 -377h-49q-31 127 -57 175q-58 106 -196 115q-14 1 -30 1h-338v-563h287q62 0 103.5 15.5t62.5 48t29.5 68t11.5 87.5h57v-529h-55q-4 34 -9 59t-19 59t-35.5 55.5t-59.5 37t-88 15.5 h-285v-621q0 -43 49 -43h312q42 0 77 6.5t62 15.5t50 27t38.5 33.5t29.5 42.5t22.5 46t17 52t13 53t11.5 56h57l-45 -422h-1110zM332 1794q0 58 35 95.5t96 37.5q65 0 99 -37t34 -96q0 -57 -36.5 -95t-96.5 -38q-67 0 -99 36.5t-32 96.5zM752 1794q0 58 35 95.5t96 37.5 q65 0 99 -37t34 -96q0 -57 -36.5 -95t-96.5 -38q-67 0 -99 36.5t-32 96.5z" />
<glyph unicode="&#xcc;" horiz-adv-x="704" d="M2 1841l129 170l330 -346l-37 -43zM57 0v47q96 12 135 36t39 93v1127q0 72 -37 100t-137 37v47h590v-47q-96 -12 -135 -36t-39 -93v-1127q0 -72 37 -100t137 -37v-47h-590z" />
<glyph unicode="&#xcd;" horiz-adv-x="704" d="M57 0v47q96 12 135 36t39 93v1127q0 72 -37 100t-137 37v47h590v-47q-96 -12 -135 -36t-39 -93v-1127q0 -72 37 -100t137 -37v-47h-590zM227 1665l330 346l129 -170l-422 -219z" />
<glyph unicode="&#xce;" horiz-adv-x="704" d="M33 1636l260 322h119l260 -322l-49 -45l-271 197l-270 -197zM57 0v47q96 12 135 36t39 93v1127q0 72 -37 100t-137 37v47h590v-47q-96 -12 -135 -36t-39 -93v-1127q0 -72 37 -100t137 -37v-47h-590z" />
<glyph unicode="&#xcf;" horiz-adv-x="704" d="M10 1794q0 58 35 95.5t96 37.5q65 0 99 -37t34 -96q0 -57 -36.5 -95t-96.5 -38q-67 0 -99 36.5t-32 96.5zM57 0v47q96 12 135 36t39 93v1127q0 72 -37 100t-137 37v47h590v-47q-96 -12 -135 -36t-39 -93v-1127q0 -72 37 -100t137 -37v-47h-590zM430 1794q0 58 35 95.5 t96 37.5q65 0 99 -37t34 -96q0 -57 -36.5 -95t-96.5 -38q-67 0 -99 36.5t-32 96.5z" />
<glyph unicode="&#xd0;" horiz-adv-x="1849" d="M74 688q0 183 67.5 350t181 287.5t271 192t330.5 71.5q174 0 331.5 -71.5t271.5 -192t181.5 -287.5t67.5 -350t-67.5 -350t-181.5 -287.5t-271.5 -192t-331.5 -71.5q-173 0 -330.5 71.5t-271 192t-181 287.5t-67.5 350zM160 688q0 -165 60.5 -315.5t163 -259 t243.5 -172.5t297 -64q209 0 385 108.5t278.5 295t102.5 407.5t-102.5 407.5t-278.5 295t-385 108.5q-156 0 -297 -64t-243.5 -172.5t-163 -259t-60.5 -315.5zM442 504q0 37 25.5 61.5t62.5 32.5q41 9 81.5 21t68 22t75 27.5t81.5 29.5v15q-46 12 -105 26t-91 21.5t-70 18.5 t-57 21t-37.5 25.5t-25 36t-6.5 47.5q0 42 29.5 77.5t73.5 35.5q45 0 88.5 -25.5t74 -59.5t78 -81.5t89.5 -77.5q1 -2 1.5 -1.5t2.5 2t4 1.5q-6 88 -41 189t-35 147q0 49 34.5 83t84.5 34q49 0 79.5 -33.5t30.5 -83.5q0 -45 -32.5 -148.5t-40.5 -187.5l8 -6q37 24 85.5 70.5 t84 83.5t79 65.5t78.5 28.5q47 0 76 -35t29 -78q0 -38 -13.5 -59t-48 -34.5t-74.5 -22t-114 -30t-145 -50.5v-15q25 -20 134 -53.5t173 -46.5q39 -8 63.5 -33.5t24.5 -66.5v-25q-12 -41 -38 -62.5t-60 -21.5q-43 0 -94 39t-119.5 105t-118.5 100q-1 0 -4.5 -2t-5.5 -2 q8 -91 40.5 -194.5t32.5 -149.5q0 -48 -30.5 -81.5t-79.5 -33.5t-84 34t-35 81q0 40 15.5 89t34 115t22.5 140q-5 0 -9 4q-22 -19 -98.5 -95.5t-128.5 -112.5t-100 -36q-41 0 -72 32t-31 83z" />
<glyph unicode="&#xd1;" horiz-adv-x="1509" d="M57 0v49q96 12 135 36t39 93v1125q0 30 -9.5 52.5t-22 35.5t-39 23t-46 14.5t-57.5 11.5v47h453l668 -1038h8v854q0 72 -37 100t-137 37v47h448v-47q-96 -12 -135 -36t-39 -93v-1317h-127v18l-823 1303h-4v-1129q0 -72 37 -100t137 -37v-49h-449zM440 1657 q26 102 86.5 164.5t151.5 62.5q71 0 189 -37t155 -37q52 0 87 23t56 78l45 -13q-52 -239 -231 -239q-73 0 -187.5 37t-152.5 37q-57 0 -93.5 -20.5t-58.5 -72.5z" />
<glyph unicode="&#xd2;" horiz-adv-x="1447" d="M74 737q0 229 75 401.5t220.5 269.5t345.5 97q314 0 486.5 -197.5t172.5 -545.5q0 -235 -78 -411.5t-222.5 -272.5t-338.5 -96q-316 0 -488.5 196.5t-172.5 558.5zM330 731q0 -345 94 -501t315 -156q194 0 286.5 154t92.5 503q0 342 -98.5 514t-306.5 172t-295.5 -169.5 t-87.5 -516.5zM362 1841l130 170l329 -346l-37 -43z" />
<glyph unicode="&#xd3;" horiz-adv-x="1447" d="M74 737q0 229 75 401.5t220.5 269.5t345.5 97q314 0 486.5 -197.5t172.5 -545.5q0 -235 -78 -411.5t-222.5 -272.5t-338.5 -96q-316 0 -488.5 196.5t-172.5 558.5zM330 731q0 -345 94 -501t315 -156q194 0 286.5 154t92.5 503q0 342 -98.5 514t-306.5 172t-295.5 -169.5 t-87.5 -516.5zM600 1665l330 346l129 -170l-422 -219z" />
<glyph unicode="&#xd4;" horiz-adv-x="1447" d="M74 737q0 229 75 401.5t220.5 269.5t345.5 97q314 0 486.5 -197.5t172.5 -545.5q0 -235 -78 -411.5t-222.5 -272.5t-338.5 -96q-316 0 -488.5 196.5t-172.5 558.5zM330 731q0 -345 94 -501t315 -156q194 0 286.5 154t92.5 503q0 342 -98.5 514t-306.5 172t-295.5 -169.5 t-87.5 -516.5zM403 1636l261 322h118l260 -322l-49 -45l-270 197l-270 -197z" />
<glyph unicode="&#xd5;" horiz-adv-x="1447" d="M74 737q0 229 75 401.5t220.5 269.5t345.5 97q314 0 486.5 -197.5t172.5 -545.5q0 -235 -78 -411.5t-222.5 -272.5t-338.5 -96q-316 0 -488.5 196.5t-172.5 558.5zM309 1657q26 102 86.5 164.5t151.5 62.5q71 0 189 -37t155 -37q52 0 87 23t56 78l45 -13 q-52 -239 -231 -239q-73 0 -187.5 37t-152.5 37q-57 0 -93.5 -20.5t-58.5 -72.5zM330 731q0 -345 94 -501t315 -156q194 0 286.5 154t92.5 503q0 342 -98.5 514t-306.5 172t-295.5 -169.5t-87.5 -516.5z" />
<glyph unicode="&#xd6;" horiz-adv-x="1447" d="M74 737q0 229 75 401.5t220.5 269.5t345.5 97q314 0 486.5 -197.5t172.5 -545.5q0 -235 -78 -411.5t-222.5 -272.5t-338.5 -96q-316 0 -488.5 196.5t-172.5 558.5zM330 731q0 -345 94 -501t315 -156q194 0 286.5 154t92.5 503q0 342 -98.5 514t-306.5 172t-295.5 -169.5 t-87.5 -516.5zM381 1794q0 58 35 95.5t96 37.5q65 0 99 -37t34 -96q0 -57 -36.5 -95t-96.5 -38q-67 0 -99 36.5t-32 96.5zM801 1794q0 58 35 95.5t96 37.5q65 0 99 -37t34 -96q0 -57 -36.5 -95t-96.5 -38q-67 0 -99 36.5t-32 96.5z" />
<glyph unicode="&#xd7;" horiz-adv-x="1126" d="M154 1006l82 84l325 -326l309 307l80 -80l-309 -307l324 -326l-82 -84l-324 326l-309 -307l-80 80l309 307z" />
<glyph unicode="&#xd8;" horiz-adv-x="1447" d="M74 737q0 229 75 401.5t220.5 269.5t345.5 97q107 0 198 -24l39 131l90 -23l-41 -139q181 -76 277 -253.5t96 -434.5q0 -235 -78 -411.5t-222.5 -272.5t-338.5 -96q-85 0 -151 14l-49 -174l-93 22l50 172q-202 68 -310 252.5t-108 468.5zM330 731q0 -246 46 -393.5 t148 -210.5l361 1251q-76 39 -172 39q-208 0 -295.5 -169.5t-87.5 -516.5zM610 90q62 -16 129 -16q194 0 286.5 154t92.5 503q0 426 -153 586z" />
<glyph unicode="&#xd9;" horiz-adv-x="1492" d="M45 1440v47h590v-47q-94 -12 -134 -38.5t-40 -96.5v-834q0 -180 96.5 -270t261.5 -90q49 0 94.5 9.5t91 33.5t78.5 60.5t53.5 96t20.5 135.5v850q0 72 -37 100.5t-137 37.5v53h465v-53q-96 -12 -135 -36t-39 -93v-844q0 -97 -29 -180.5t-87 -150.5t-155.5 -105.5 t-224.5 -38.5t-224 26t-160 72t-102.5 114t-56 146.5t-16.5 175.5v776q0 73 -37.5 104t-136.5 40zM416 1841l129 170l329 -346l-36 -43z" />
<glyph unicode="&#xda;" horiz-adv-x="1492" d="M45 1440v47h590v-47q-94 -12 -134 -38.5t-40 -96.5v-834q0 -180 96.5 -270t261.5 -90q49 0 94.5 9.5t91 33.5t78.5 60.5t53.5 96t20.5 135.5v850q0 72 -37 100.5t-137 37.5v53h465v-53q-96 -12 -135 -36t-39 -93v-844q0 -97 -29 -180.5t-87 -150.5t-155.5 -105.5 t-224.5 -38.5t-224 26t-160 72t-102.5 114t-56 146.5t-16.5 175.5v776q0 73 -37.5 104t-136.5 40zM743 1665l330 346l129 -170l-422 -219z" />
<glyph unicode="&#xdb;" horiz-adv-x="1492" d="M45 1440v47h590v-47q-94 -12 -134 -38.5t-40 -96.5v-834q0 -180 96.5 -270t261.5 -90q49 0 94.5 9.5t91 33.5t78.5 60.5t53.5 96t20.5 135.5v850q0 72 -37 100.5t-137 37.5v53h465v-53q-96 -12 -135 -36t-39 -93v-844q0 -97 -29 -180.5t-87 -150.5t-155.5 -105.5 t-224.5 -38.5t-224 26t-160 72t-102.5 114t-56 146.5t-16.5 175.5v776q0 73 -37.5 104t-136.5 40zM516 1636l260 322h119l260 -322l-49 -45l-270 197l-271 -197z" />
<glyph unicode="&#xdc;" horiz-adv-x="1492" d="M45 1440v47h590v-47q-94 -12 -134 -38.5t-40 -96.5v-834q0 -180 96.5 -270t261.5 -90q49 0 94.5 9.5t91 33.5t78.5 60.5t53.5 96t20.5 135.5v850q0 72 -37 100.5t-137 37.5v53h465v-53q-96 -12 -135 -36t-39 -93v-844q0 -97 -29 -180.5t-87 -150.5t-155.5 -105.5 t-224.5 -38.5t-224 26t-160 72t-102.5 114t-56 146.5t-16.5 175.5v776q0 73 -37.5 104t-136.5 40zM479 1794q0 58 35 95.5t96 37.5q65 0 99 -37t34 -96q0 -57 -36.5 -95t-96.5 -38q-67 0 -99 36.5t-32 96.5zM899 1794q0 58 35 95.5t96 37.5q65 0 99 -37t34 -96 q0 -57 -36.5 -95t-96.5 -38q-67 0 -99 36.5t-32 96.5z" />
<glyph unicode="&#xdd;" horiz-adv-x="1243" d="M0 1440v47h543v-47q-77 -6 -109.5 -24.5t-32.5 -51.5q0 -30 25 -74l287 -508l239 473q39 76 39 115q0 60 -139 70v47h391v-47q-81 -9 -135 -109l-358 -651l-2 -492q0 -73 37.5 -102.5t136.5 -38.5v-47h-588v47q93 12 133.5 39.5t40.5 97.5v496l-381 674 q-21 37 -56.5 60.5t-70.5 25.5zM618 1665l330 346l129 -170l-422 -219z" />
<glyph unicode="&#xde;" horiz-adv-x="1236" d="M57 0v47q96 12 135 36t39 93v1127q0 72 -37 100t-137 37v47h590v-47q-96 -12 -135 -36t-39 -93v-113h217q218 0 349.5 -102.5t131.5 -284.5q0 -106 -43.5 -189t-119 -134.5t-171 -78t-204.5 -26.5h-160v-207q0 -70 50 -97t167 -32v-47h-633zM473 469h133q156 0 235 87 t79 243q0 155 -89 235t-249 80h-109v-645z" />
<glyph unicode="&#xdf;" horiz-adv-x="1433" d="M47 1006v65l146 23v8q0 82 17.5 156.5t60 146.5t108 124.5t169.5 85t236 32.5q111 0 198.5 -27.5t140.5 -73.5t80.5 -103.5t27.5 -121.5q0 -68 -18.5 -122.5t-48.5 -89.5t-66 -63t-72 -50t-66 -44t-48.5 -51.5t-18.5 -66.5q0 -45 42 -78.5t114 -65.5l38 -16 q44 -18 77.5 -35.5t71.5 -46t62.5 -60.5t41 -78.5t16.5 -101.5q0 -68 -23 -131t-69.5 -118.5t-129.5 -89t-192 -33.5q-44 0 -88.5 3t-73.5 6.5t-80 10t-82 10.5l-8 355l60 2q11 -77 33.5 -132.5t48.5 -86.5t62.5 -48.5t67.5 -22.5t72 -5q102 0 157.5 52t55.5 140 q0 45 -11 77.5t-36 56t-54 39t-77 34.5l-41 16q-51 20 -86.5 38.5t-73 47.5t-57.5 68t-20 86q0 119 75 197q22 23 62.5 57.5t65 59.5t52 62.5t41 87.5t13.5 114q0 129 -75 201.5t-210 72.5q-74 0 -132 -24t-94.5 -62.5t-60 -92t-33 -107.5t-9.5 -113v-1030q0 -51 32.5 -71 t110.5 -32v-47h-475v47q26 6 42.5 11.5t36.5 16.5t30 30t10 45v851z" />
<glyph unicode="&#xe0;" horiz-adv-x="1079" d="M78 227q0 91 45 164.5t126 123t185.5 80t231.5 44.5v182q0 107 -49.5 163t-165.5 56q-81 0 -139 -36.5t-58 -73.5q0 -16 11.5 -32t25.5 -28t25.5 -35.5t11.5 -52.5q0 -45 -30 -72.5t-75 -27.5q-58 0 -88.5 31.5t-30.5 89.5q0 38 19.5 82.5t59.5 88.5t94 80t129 58.5 t157 22.5q163 0 239.5 -67.5t76.5 -221.5v-635q0 -74 86 -74q32 0 79 21l15 -23q-18 -52 -89 -102.5t-163 -50.5q-40 0 -66 11.5t-39.5 36.5t-19 48.5t-10.5 64.5q-60 -74 -143 -117.5t-173 -43.5q-136 0 -207 71t-71 174zM193 1473l129 169l329 -346l-37 -43zM307 279 q0 -85 49.5 -121.5t122.5 -36.5q55 0 106 23t81 49v389q-97 -14 -168.5 -44.5t-112 -72t-59.5 -88t-19 -98.5z" />
<glyph unicode="&#xe1;" horiz-adv-x="1079" d="M78 227q0 91 45 164.5t126 123t185.5 80t231.5 44.5v182q0 107 -49.5 163t-165.5 56q-81 0 -139 -36.5t-58 -73.5q0 -16 11.5 -32t25.5 -28t25.5 -35.5t11.5 -52.5q0 -45 -30 -72.5t-75 -27.5q-58 0 -88.5 31.5t-30.5 89.5q0 38 19.5 82.5t59.5 88.5t94 80t129 58.5 t157 22.5q163 0 239.5 -67.5t76.5 -221.5v-635q0 -74 86 -74q32 0 79 21l15 -23q-18 -52 -89 -102.5t-163 -50.5q-40 0 -66 11.5t-39.5 36.5t-19 48.5t-10.5 64.5q-60 -74 -143 -117.5t-173 -43.5q-136 0 -207 71t-71 174zM307 279q0 -85 49.5 -121.5t122.5 -36.5 q55 0 106 23t81 49v389q-97 -14 -168.5 -44.5t-112 -72t-59.5 -88t-19 -98.5zM362 1296l330 346l129 -169l-422 -220z" />
<glyph unicode="&#xe2;" horiz-adv-x="1079" d="M78 227q0 91 45 164.5t126 123t185.5 80t231.5 44.5v182q0 107 -49.5 163t-165.5 56q-81 0 -139 -36.5t-58 -73.5q0 -16 11.5 -32t25.5 -28t25.5 -35.5t11.5 -52.5q0 -45 -30 -72.5t-75 -27.5q-58 0 -88.5 31.5t-30.5 89.5q0 38 19.5 82.5t59.5 88.5t94 80t129 58.5 t157 22.5q163 0 239.5 -67.5t76.5 -221.5v-635q0 -74 86 -74q32 0 79 21l15 -23q-18 -52 -89 -102.5t-163 -50.5q-40 0 -66 11.5t-39.5 36.5t-19 48.5t-10.5 64.5q-60 -74 -143 -117.5t-173 -43.5q-136 0 -207 71t-71 174zM190 1268l261 321h118l260 -321l-49 -45l-270 196 l-270 -196zM307 279q0 -85 49.5 -121.5t122.5 -36.5q55 0 106 23t81 49v389q-97 -14 -168.5 -44.5t-112 -72t-59.5 -88t-19 -98.5z" />
<glyph unicode="&#xe3;" horiz-adv-x="1079" d="M78 227q0 91 45 164.5t126 123t185.5 80t231.5 44.5v182q0 107 -49.5 163t-165.5 56q-81 0 -139 -36.5t-58 -73.5q0 -16 11.5 -32t25.5 -28t25.5 -35.5t11.5 -52.5q0 -45 -30 -72.5t-75 -27.5q-58 0 -88.5 31.5t-30.5 89.5q0 38 19.5 82.5t59.5 88.5t94 80t129 58.5 t157 22.5q163 0 239.5 -67.5t76.5 -221.5v-635q0 -74 86 -74q32 0 79 21l15 -23q-18 -52 -89 -102.5t-163 -50.5q-40 0 -66 11.5t-39.5 36.5t-19 48.5t-10.5 64.5q-60 -74 -143 -117.5t-173 -43.5q-136 0 -207 71t-71 174zM139 1288q27 102 87.5 165t150.5 63q71 0 189 -37 t155 -37q52 0 87 22.5t56 77.5l45 -12q-53 -240 -231 -240q-73 0 -187.5 37t-152.5 37q-57 0 -93.5 -20t-58.5 -72zM307 279q0 -85 49.5 -121.5t122.5 -36.5q55 0 106 23t81 49v389q-97 -14 -168.5 -44.5t-112 -72t-59.5 -88t-19 -98.5z" />
<glyph unicode="&#xe4;" horiz-adv-x="1079" d="M78 227q0 91 45 164.5t126 123t185.5 80t231.5 44.5v182q0 107 -49.5 163t-165.5 56q-81 0 -139 -36.5t-58 -73.5q0 -16 11.5 -32t25.5 -28t25.5 -35.5t11.5 -52.5q0 -45 -30 -72.5t-75 -27.5q-58 0 -88.5 31.5t-30.5 89.5q0 38 19.5 82.5t59.5 88.5t94 80t129 58.5 t157 22.5q163 0 239.5 -67.5t76.5 -221.5v-635q0 -74 86 -74q32 0 79 21l15 -23q-18 -52 -89 -102.5t-163 -50.5q-40 0 -66 11.5t-39.5 36.5t-19 48.5t-10.5 64.5q-60 -74 -143 -117.5t-173 -43.5q-136 0 -207 71t-71 174zM178 1425q0 58 35 96t96 38q65 0 99 -37.5 t34 -96.5q0 -57 -36.5 -95t-96.5 -38q-67 0 -99 36.5t-32 96.5zM307 279q0 -85 49.5 -121.5t122.5 -36.5q55 0 106 23t81 49v389q-97 -14 -168.5 -44.5t-112 -72t-59.5 -88t-19 -98.5zM598 1425q0 58 35 96t96 38q65 0 99 -37.5t34 -96.5q0 -57 -36.5 -95t-96.5 -38 q-67 0 -99 36.5t-32 96.5z" />
<glyph unicode="&#xe5;" horiz-adv-x="1079" d="M78 227q0 91 45 164.5t126 123t185.5 80t231.5 44.5v182q0 107 -49.5 163t-165.5 56q-81 0 -139 -36.5t-58 -73.5q0 -16 11.5 -32t25.5 -28t25.5 -35.5t11.5 -52.5q0 -45 -30 -72.5t-75 -27.5q-58 0 -88.5 31.5t-30.5 89.5q0 38 19.5 82.5t59.5 88.5t94 80t129 58.5 t157 22.5q163 0 239.5 -67.5t76.5 -221.5v-635q0 -74 86 -74q32 0 79 21l15 -23q-18 -52 -89 -102.5t-163 -50.5q-40 0 -66 11.5t-39.5 36.5t-19 48.5t-10.5 64.5q-60 -74 -143 -117.5t-173 -43.5q-136 0 -207 71t-71 174zM307 279q0 -85 49.5 -121.5t122.5 -36.5 q55 0 106 23t81 49v389q-97 -14 -168.5 -44.5t-112 -72t-59.5 -88t-19 -98.5zM315 1417q0 77 60 136t160 59q99 0 154.5 -52t55.5 -130q0 -90 -59 -143.5t-162 -53.5q-98 0 -153.5 55t-55.5 129zM418 1423q0 -56 28 -86t82 -30q57 0 88 29.5t31 86.5q0 117 -119 117 q-54 0 -82 -30.5t-28 -86.5z" />
<glyph unicode="&#xe6;" horiz-adv-x="1615" d="M78 227q0 91 45 164.5t126 123t185.5 80t231.5 44.5v182q0 107 -49.5 163t-165.5 56q-81 0 -139 -36.5t-58 -73.5q0 -16 11.5 -32t25.5 -28t25.5 -35.5t11.5 -52.5q0 -45 -30 -72.5t-75 -27.5q-58 0 -88.5 31.5t-30.5 89.5q0 38 19.5 82.5t59.5 88.5t94 80t129 58.5 t157 22.5q217 0 281 -123q129 123 319 123q126 0 215.5 -59t130.5 -150.5t41 -202.5v-18l-665 -3q-6 -37 -6 -131q1 -61 14 -121t40 -117t66 -100t97 -69.5t127 -26.5q57 0 106 11.5t86 33.5t58.5 39.5t46.5 42.5l28 -22q-28 -105 -135 -186t-250 -81q-297 0 -420 215 q-74 -104 -167.5 -156t-219.5 -52q-136 0 -207 71t-71 174zM307 279q0 -85 49.5 -121.5t122.5 -36.5q71 0 139 35t107 69q-59 132 -59 310v47q-97 -14 -168.5 -44.5t-112 -72t-59.5 -88t-19 -98.5zM891 772l444 2q0 122 -58 195t-159 73q-91 0 -155.5 -71.5t-71.5 -198.5z " />
<glyph unicode="&#xe7;" horiz-adv-x="999" d="M74 514q0 176 61.5 316.5t180 222.5t274.5 82q86 0 152.5 -24t103 -61.5t54.5 -75t18 -71.5q0 -63 -30.5 -101t-88.5 -38q-65 0 -93 30.5t-28 75.5q0 26 13 50.5t26.5 42.5t13.5 28q0 25 -41.5 42.5t-103.5 17.5q-91 0 -157 -65t-96 -165.5t-30 -220.5q0 -217 88.5 -336 t239.5 -119q173 0 289 119l28 -22q-30 -106 -126.5 -183t-233.5 -77h-6l-29 -80q266 -4 266 -166q0 -92 -72.5 -153.5t-193.5 -61.5q-88 0 -139.5 32.5t-51.5 81.5q0 33 21.5 55.5t50.5 22.5q33 0 50.5 -16t17.5 -39q0 -15 -10.5 -31t-10.5 -18q0 -5 8.5 -11t26.5 -11t41 -5 q137 0 137 103q0 27 -20 45.5t-58.5 27.5t-75 13t-87.5 6l-11 14l70 195q-115 12 -201.5 60.5t-137 122.5t-75 161t-24.5 184z" />
<glyph unicode="&#xe8;" horiz-adv-x="1044" d="M74 535q0 259 144.5 429.5t373.5 170.5q126 0 215.5 -59t130.5 -150.5t41 -202.5v-18l-666 -3q-6 -37 -6 -114q0 -63 12 -124.5t38.5 -121t65.5 -105t98 -73t130 -27.5q57 0 106 11.5t86 33.5t58.5 39.5t46.5 42.5l29 -22q-28 -105 -135 -186t-250 -81q-130 0 -230.5 43 t-162.5 119.5t-93.5 177t-31.5 220.5zM219 1473l129 169l330 -346l-37 -43zM319 772l445 2q0 122 -58 195t-159 73q-91 0 -156 -71.5t-72 -198.5z" />
<glyph unicode="&#xe9;" horiz-adv-x="1044" d="M74 535q0 259 144.5 429.5t373.5 170.5q126 0 215.5 -59t130.5 -150.5t41 -202.5v-18l-666 -3q-6 -37 -6 -114q0 -63 12 -124.5t38.5 -121t65.5 -105t98 -73t130 -27.5q57 0 106 11.5t86 33.5t58.5 39.5t46.5 42.5l29 -22q-28 -105 -135 -186t-250 -81q-130 0 -230.5 43 t-162.5 119.5t-93.5 177t-31.5 220.5zM319 772l445 2q0 122 -58 195t-159 73q-91 0 -156 -71.5t-72 -198.5zM428 1296l330 346l129 -169l-422 -220z" />
<glyph unicode="&#xea;" horiz-adv-x="1044" d="M74 535q0 259 144.5 429.5t373.5 170.5q126 0 215.5 -59t130.5 -150.5t41 -202.5v-18l-666 -3q-6 -37 -6 -114q0 -63 12 -124.5t38.5 -121t65.5 -105t98 -73t130 -27.5q57 0 106 11.5t86 33.5t58.5 39.5t46.5 42.5l29 -22q-28 -105 -135 -186t-250 -81q-130 0 -230.5 43 t-162.5 119.5t-93.5 177t-31.5 220.5zM250 1268l260 321h119l260 -321l-49 -45l-271 196l-270 -196zM319 772l445 2q0 122 -58 195t-159 73q-91 0 -156 -71.5t-72 -198.5z" />
<glyph unicode="&#xeb;" horiz-adv-x="1044" d="M74 535q0 259 144.5 429.5t373.5 170.5q126 0 215.5 -59t130.5 -150.5t41 -202.5v-18l-666 -3q-6 -37 -6 -114q0 -63 12 -124.5t38.5 -121t65.5 -105t98 -73t130 -27.5q57 0 106 11.5t86 33.5t58.5 39.5t46.5 42.5l29 -22q-28 -105 -135 -186t-250 -81q-130 0 -230.5 43 t-162.5 119.5t-93.5 177t-31.5 220.5zM215 1425q0 58 35 96t96 38q65 0 99 -37.5t34 -96.5q0 -57 -36.5 -95t-96.5 -38q-67 0 -99 36.5t-32 96.5zM319 772l445 2q0 122 -58 195t-159 73q-91 0 -156 -71.5t-72 -198.5zM635 1425q0 58 35 96t96 38q65 0 99 -37.5t34 -96.5 q0 -57 -36.5 -95t-96.5 -38q-67 0 -99 36.5t-32 96.5z" />
<glyph unicode="&#xec;" horiz-adv-x="624" d="M-29 1473l129 169l330 -346l-37 -43zM82 1008v45l338 80l8 -5v-978q0 -50 29 -70.5t90 -32.5v-47h-451v47q26 6 42.5 11.5t36.5 16.5t30 30t10 45v724q0 36 -12 61.5t-33.5 39.5t-41.5 21.5t-46 11.5z" />
<glyph unicode="&#xed;" horiz-adv-x="624" d="M82 1008v45l338 80l8 -5v-978q0 -50 29 -70.5t90 -32.5v-47h-451v47q26 6 42.5 11.5t36.5 16.5t30 30t10 45v724q0 36 -12 61.5t-33.5 39.5t-41.5 21.5t-46 11.5zM82 1296l330 346l129 -169l-422 -220z" />
<glyph unicode="&#xee;" horiz-adv-x="624" d="M-33 1268l260 321h119l260 -321l-49 -45l-270 196l-271 -196zM82 1008v45l338 80l8 -5v-978q0 -50 29 -70.5t90 -32.5v-47h-451v47q26 6 42.5 11.5t36.5 16.5t30 30t10 45v724q0 36 -12 61.5t-33.5 39.5t-41.5 21.5t-46 11.5z" />
<glyph unicode="&#xef;" horiz-adv-x="624" d="M-59 1425q0 58 35 96t96 38q65 0 99 -37.5t34 -96.5q0 -57 -36.5 -95t-96.5 -38q-67 0 -99 36.5t-32 96.5zM82 1008v45l338 80l8 -5v-978q0 -50 29 -70.5t90 -32.5v-47h-451v47q26 6 42.5 11.5t36.5 16.5t30 30t10 45v724q0 36 -12 61.5t-33.5 39.5t-41.5 21.5t-46 11.5z M360 1425q0 58 35.5 96t96.5 38q65 0 99 -37.5t34 -96.5q0 -57 -36.5 -95t-96.5 -38q-67 0 -99.5 36.5t-32.5 96.5z" />
<glyph unicode="&#xf0;" horiz-adv-x="1849" d="M74 688q0 183 67.5 350t181 287.5t271 192t330.5 71.5q174 0 331.5 -71.5t271.5 -192t181.5 -287.5t67.5 -350t-67.5 -350t-181.5 -287.5t-271.5 -192t-331.5 -71.5q-173 0 -330.5 71.5t-271 192t-181 287.5t-67.5 350zM160 688q0 -165 60.5 -315.5t163 -259 t243.5 -172.5t297 -64q209 0 385 108.5t278.5 295t102.5 407.5t-102.5 407.5t-278.5 295t-385 108.5q-156 0 -297 -64t-243.5 -172.5t-163 -259t-60.5 -315.5zM442 504q0 37 25.5 61.5t62.5 32.5q41 9 81.5 21t68 22t75 27.5t81.5 29.5v15q-46 12 -105 26t-91 21.5t-70 18.5 t-57 21t-37.5 25.5t-25 36t-6.5 47.5q0 42 29.5 77.5t73.5 35.5q45 0 88.5 -25.5t74 -59.5t78 -81.5t89.5 -77.5q1 -2 1.5 -1.5t2.5 2t4 1.5q-6 88 -41 189t-35 147q0 49 34.5 83t84.5 34q49 0 79.5 -33.5t30.5 -83.5q0 -45 -32.5 -148.5t-40.5 -187.5l8 -6q37 24 85.5 70.5 t84 83.5t79 65.5t78.5 28.5q47 0 76 -35t29 -78q0 -38 -13.5 -59t-48 -34.5t-74.5 -22t-114 -30t-145 -50.5v-15q25 -20 134 -53.5t173 -46.5q39 -8 63.5 -33.5t24.5 -66.5v-25q-12 -41 -38 -62.5t-60 -21.5q-43 0 -94 39t-119.5 105t-118.5 100q-1 0 -4.5 -2t-5.5 -2 q8 -91 40.5 -194.5t32.5 -149.5q0 -48 -30.5 -81.5t-79.5 -33.5t-84 34t-35 81q0 40 15.5 89t34 115t22.5 140q-5 0 -9 4q-22 -19 -98.5 -95.5t-128.5 -112.5t-100 -36q-41 0 -72 32t-31 83z" />
<glyph unicode="&#xf1;" d="M82 1008v45l338 80l8 -5v-139q146 150 360 150q146 0 224 -85t78 -216v-688q0 -50 28.5 -70.5t89.5 -32.5v-47h-450v47q26 6 42.5 11.5t36.5 16.5t30 30t10 45v665q0 86 -52.5 137.5t-148.5 51.5q-66 0 -137 -25.5t-111 -54.5v-774q0 -50 29 -70.5t90 -32.5v-47h-451v47 q26 6 42.5 11.5t36.5 16.5t30 30t10 45v724q0 36 -12 61.5t-33.5 39.5t-41.5 21.5t-46 11.5zM258 1288q27 102 87.5 165t150.5 63q71 0 189 -37t155 -37q52 0 87 22.5t56 77.5l45 -12q-52 -240 -231 -240q-73 0 -187.5 37t-152.5 37q-57 0 -93.5 -20t-58.5 -72z" />
<glyph unicode="&#xf2;" horiz-adv-x="1150" d="M74 551q0 129 30.5 235t91 184.5t158 121.5t224.5 43q160 0 274 -73.5t169.5 -198.5t55.5 -288q0 -275 -124.5 -434t-364.5 -159q-113 0 -201.5 29.5t-146.5 80t-96 123.5t-54 155.5t-16 180.5zM262 1473l129 169l330 -346l-37 -43zM313 614q0 -158 17 -263t54 -165.5 t87.5 -85t124.5 -24.5q126 0 185 105t59 335q0 279 -67 401.5t-218 122.5q-134 0 -188 -102t-54 -324z" />
<glyph unicode="&#xf3;" horiz-adv-x="1150" d="M74 551q0 129 30.5 235t91 184.5t158 121.5t224.5 43q160 0 274 -73.5t169.5 -198.5t55.5 -288q0 -275 -124.5 -434t-364.5 -159q-113 0 -201.5 29.5t-146.5 80t-96 123.5t-54 155.5t-16 180.5zM313 614q0 -158 17 -263t54 -165.5t87.5 -85t124.5 -24.5q126 0 185 105 t59 335q0 279 -67 401.5t-218 122.5q-134 0 -188 -102t-54 -324zM377 1296l330 346l129 -169l-422 -220z" />
<glyph unicode="&#xf4;" horiz-adv-x="1150" d="M74 551q0 129 30.5 235t91 184.5t158 121.5t224.5 43q160 0 274 -73.5t169.5 -198.5t55.5 -288q0 -275 -124.5 -434t-364.5 -159q-113 0 -201.5 29.5t-146.5 80t-96 123.5t-54 155.5t-16 180.5zM256 1268l260 321h119l260 -321l-49 -45l-271 196l-270 -196zM313 614 q0 -158 17 -263t54 -165.5t87.5 -85t124.5 -24.5q126 0 185 105t59 335q0 279 -67 401.5t-218 122.5q-134 0 -188 -102t-54 -324z" />
<glyph unicode="&#xf5;" horiz-adv-x="1150" d="M74 551q0 129 30.5 235t91 184.5t158 121.5t224.5 43q160 0 274 -73.5t169.5 -198.5t55.5 -288q0 -275 -124.5 -434t-364.5 -159q-113 0 -201.5 29.5t-146.5 80t-96 123.5t-54 155.5t-16 180.5zM190 1288q27 102 87.5 165t150.5 63q71 0 189 -37t155 -37q52 0 87 22.5 t56 77.5l46 -12q-53 -240 -232 -240q-73 0 -187.5 37t-152.5 37q-57 0 -93 -20t-58 -72zM313 614q0 -158 17 -263t54 -165.5t87.5 -85t124.5 -24.5q126 0 185 105t59 335q0 279 -67 401.5t-218 122.5q-134 0 -188 -102t-54 -324z" />
<glyph unicode="&#xf6;" horiz-adv-x="1150" d="M74 551q0 129 30.5 235t91 184.5t158 121.5t224.5 43q160 0 274 -73.5t169.5 -198.5t55.5 -288q0 -275 -124.5 -434t-364.5 -159q-113 0 -201.5 29.5t-146.5 80t-96 123.5t-54 155.5t-16 180.5zM233 1425q0 58 35.5 96t96.5 38q65 0 99 -37.5t34 -96.5q0 -57 -36.5 -95 t-96.5 -38q-67 0 -99.5 36.5t-32.5 96.5zM313 614q0 -158 17 -263t54 -165.5t87.5 -85t124.5 -24.5q126 0 185 105t59 335q0 279 -67 401.5t-218 122.5q-134 0 -188 -102t-54 -324zM653 1425q0 58 35 96t96 38q65 0 99.5 -37.5t34.5 -96.5q0 -57 -37 -95t-97 -38 q-67 0 -99 36.5t-32 96.5z" />
<glyph unicode="&#xf7;" horiz-adv-x="1126" d="M94 631v112h938v-112h-938zM434 340q0 56 38 94.5t91 38.5q56 0 93.5 -38t37.5 -95q0 -56 -36.5 -93.5t-94.5 -37.5t-93.5 37.5t-35.5 93.5zM434 997q0 56 38 94.5t91 38.5q56 0 93.5 -38t37.5 -95q0 -56 -36.5 -93.5t-94.5 -37.5t-93.5 37.5t-35.5 93.5z" />
<glyph unicode="&#xf8;" horiz-adv-x="1150" d="M74 551q0 129 30.5 235t91 184.5t158 121.5t224.5 43q94 0 176 -29l59 149l92 -30l-63 -158q115 -68 175 -196.5t60 -295.5q0 -275 -124.5 -434t-364.5 -159q-90 0 -164 18l-64 -166l-94 31l66 166q-258 122 -258 520zM313 614q0 -319 76 -438l322 817q-62 47 -156 47 q-134 0 -188 -102t-54 -324zM465 102q53 -26 131 -26q126 0 185 105t59 335q0 260 -62 387z" />
<glyph unicode="&#xf9;" d="M70 1049v45l336 28l10 -6v-821q0 -84 55 -134t152 -50q65 0 133.5 25.5t107.5 53.5v725q0 36 -12 61.5t-33.5 39.5t-41.5 21.5t-46 11.5v45l336 28l10 -6v-946q0 -21 3.5 -37t13 -26.5t17 -17.5t23 -11.5t23.5 -6.5t27.5 -4.5t25.5 -3.5v-45l-338 -36l-8 4v139 q-62 -69 -157 -109.5t-199 -40.5q-147 0 -226 82.5t-79 212.5v645q0 36 -12 61.5t-33.5 39.5t-41.5 21.5t-46 11.5zM291 1473l129 169l330 -346l-37 -43z" />
<glyph unicode="&#xfa;" d="M70 1049v45l336 28l10 -6v-821q0 -84 55 -134t152 -50q65 0 133.5 25.5t107.5 53.5v725q0 36 -12 61.5t-33.5 39.5t-41.5 21.5t-46 11.5v45l336 28l10 -6v-946q0 -21 3.5 -37t13 -26.5t17 -17.5t23 -11.5t23.5 -6.5t27.5 -4.5t25.5 -3.5v-45l-338 -36l-8 4v139 q-62 -69 -157 -109.5t-199 -40.5q-147 0 -226 82.5t-79 212.5v645q0 36 -12 61.5t-33.5 39.5t-41.5 21.5t-46 11.5zM524 1296l330 346l129 -169l-422 -220z" />
<glyph unicode="&#xfb;" d="M70 1049v45l336 28l10 -6v-821q0 -84 55 -134t152 -50q65 0 133.5 25.5t107.5 53.5v725q0 36 -12 61.5t-33.5 39.5t-41.5 21.5t-46 11.5v45l336 28l10 -6v-946q0 -21 3.5 -37t13 -26.5t17 -17.5t23 -11.5t23.5 -6.5t27.5 -4.5t25.5 -3.5v-45l-338 -36l-8 4v139 q-62 -69 -157 -109.5t-199 -40.5q-147 0 -226 82.5t-79 212.5v645q0 36 -12 61.5t-33.5 39.5t-41.5 21.5t-46 11.5zM324 1268l260 321h118l261 -321l-50 -45l-270 196l-270 -196z" />
<glyph unicode="&#xfc;" d="M70 1049v45l336 28l10 -6v-821q0 -84 55 -134t152 -50q65 0 133.5 25.5t107.5 53.5v725q0 36 -12 61.5t-33.5 39.5t-41.5 21.5t-46 11.5v45l336 28l10 -6v-946q0 -21 3.5 -37t13 -26.5t17 -17.5t23 -11.5t23.5 -6.5t27.5 -4.5t25.5 -3.5v-45l-338 -36l-8 4v139 q-62 -69 -157 -109.5t-199 -40.5q-147 0 -226 82.5t-79 212.5v645q0 36 -12 61.5t-33.5 39.5t-41.5 21.5t-46 11.5zM301 1425q0 58 35 96t96 38q65 0 99 -37.5t34 -96.5q0 -57 -36.5 -95t-96.5 -38q-67 0 -99 36.5t-32 96.5zM721 1425q0 58 35 96t96 38q65 0 99 -37.5 t34 -96.5q0 -57 -36.5 -95t-96.5 -38q-67 0 -99 36.5t-32 96.5z" />
<glyph unicode="&#xfd;" horiz-adv-x="1034" d="M0 1063v47h426v-47q-33 -7 -49.5 -12t-34.5 -21t-18 -41q0 -17 6 -35l260 -731h4l219 717q8 48 8 55q0 17 -7.5 29t-26.5 20t-29 10.5t-37 8.5v47h313v-47q-22 -5 -39 -16t-27 -20t-20.5 -31t-14 -32t-13.5 -40l-328 -1000q-57 -174 -140 -259t-208 -85q-100 0 -158.5 57 t-58.5 132q0 68 40 111.5t111 43.5q52 0 83.5 -30.5t31.5 -77.5q0 -35 -13 -59.5t-28 -34.5t-28 -20.5t-13 -20.5q0 -12 15 -20.5t44 -8.5q137 0 209 219l49 149h-84l-344 947q-14 40 -36.5 64.5t-63.5 31.5zM471 1296l330 346l129 -169l-422 -220z" />
<glyph unicode="&#xfe;" horiz-adv-x="1218" d="M82 1552v45l338 31l8 -4v-586q53 46 128.5 73.5t160.5 27.5q196 0 312 -149.5t116 -379.5q0 -122 -29 -225.5t-80.5 -177.5t-121.5 -126.5t-152 -78t-172 -25.5q-86 0 -162 23v-262q0 -26 11.5 -44.5t35.5 -30t49.5 -17.5t63.5 -11v-45h-492v45q26 6 42.5 11.5t36.5 16.5 t30 30t10 45v1706q0 59 -24 77.5t-109 30.5zM428 129q21 -21 71.5 -38t102.5 -17q103 0 176 68t106.5 175.5t33.5 241.5q0 229 -94 342t-253 113q-88 0 -143 -25v-860z" />
<glyph unicode="&#xff;" horiz-adv-x="1034" d="M0 1063v47h426v-47q-33 -7 -49.5 -12t-34.5 -21t-18 -41q0 -17 6 -35l260 -731h4l219 717q8 48 8 55q0 17 -7.5 29t-26.5 20t-29 10.5t-37 8.5v47h313v-47q-22 -5 -39 -16t-27 -20t-20.5 -31t-14 -32t-13.5 -40l-328 -1000q-57 -174 -140 -259t-208 -85q-100 0 -158.5 57 t-58.5 132q0 68 40 111.5t111 43.5q52 0 83.5 -30.5t31.5 -77.5q0 -35 -13 -59.5t-28 -34.5t-28 -20.5t-13 -20.5q0 -12 15 -20.5t44 -8.5q137 0 209 219l49 149h-84l-344 947q-14 40 -36.5 64.5t-63.5 31.5zM174 1425q0 58 35 96t96 38q65 0 99 -37.5t34 -96.5 q0 -57 -36.5 -95t-96.5 -38q-67 0 -99 36.5t-32 96.5zM594 1425q0 58 35 96t96 38q65 0 99 -37.5t34 -96.5q0 -57 -36.5 -95t-96.5 -38q-67 0 -99 36.5t-32 96.5z" />
<glyph unicode="&#x152;" horiz-adv-x="2064" d="M74 737q0 287 126 480.5t349 250.5q94 23 225 23q29 0 210 -2t218 -2h383q258 0 332 4l6 -4l-2 -377h-49q0 2 -1 6q-31 126 -60 176q-72 106 -222 109h-338v-563h287q62 0 103.5 15.5t62.5 48t29.5 68t11.5 87.5h57v-529h-55q-4 34 -9 59t-19 59t-35.5 55.5t-59.5 37 t-88 15.5h-285v-621q0 -43 49 -43h312q42 0 77 6.5t62 15.5t50 27t38.5 33.5t29.5 42.5t22.5 46t17 52t13 53t11.5 56h58l-45 -422h-840q-46 0 -206.5 -4t-184.5 -4q-314 0 -477.5 191t-163.5 554zM330 731q0 -341 100 -495t324 -154q188 0 256 37v1280q-133 10 -230 10 q-66 0 -139 -13.5t-111 -37.5q-109 -67 -154.5 -220t-45.5 -407z" />
<glyph unicode="&#x153;" horiz-adv-x="1820" d="M74 551q0 129 30.5 235t91 184.5t158 121.5t224.5 43q132 0 233 -51t164 -144q71 93 171 144t222 51q126 0 215.5 -59t130.5 -150.5t41 -202.5v-18l-665 -3q-7 -43 -7 -114q0 -63 12 -124.5t38.5 -121t65.5 -105t98 -73t130 -27.5q57 0 106 11.5t86 33.5t58.5 39.5 t46.5 42.5l29 -22q-28 -105 -135 -186t-250 -81q-270 0 -407 177q-125 -170 -373 -170q-113 0 -201.5 29.5t-146.5 80t-96 123.5t-54 155.5t-16 180.5zM313 614q0 -158 17 -263t54 -165.5t87.5 -85t124.5 -24.5q126 0 185 105t59 335q0 279 -67 401.5t-218 122.5 q-134 0 -188 -102t-54 -324zM1096 772l444 2q0 122 -58 195t-159 73q-91 0 -155.5 -71.5t-71.5 -198.5z" />
<glyph unicode="&#x178;" horiz-adv-x="1243" d="M0 1440v47h543v-47q-77 -6 -109.5 -24.5t-32.5 -51.5q0 -30 25 -74l287 -508l239 473q39 76 39 115q0 60 -139 70v47h391v-47q-81 -9 -135 -109l-358 -651l-2 -492q0 -73 37.5 -102.5t136.5 -38.5v-47h-588v47q93 12 133.5 39.5t40.5 97.5v496l-381 674 q-21 37 -56.5 60.5t-70.5 25.5zM346 1794q0 58 35 95.5t96 37.5q65 0 99 -37t34 -96q0 -57 -36.5 -95t-96.5 -38q-67 0 -99 36.5t-32 96.5zM766 1794q0 58 35 95.5t96 37.5q65 0 99 -37t34 -96q0 -57 -36.5 -95t-96.5 -38q-67 0 -99 36.5t-32 96.5z" />
<glyph unicode="&#x2c6;" horiz-adv-x="751" d="M47 1268l260 321h119l260 -321l-49 -45l-270 196l-271 -196z" />
<glyph unicode="&#x2dc;" horiz-adv-x="917" d="M74 1288q27 102 87 165t150 63q71 0 189 -37t155 -37q106 0 144 100l45 -12q-52 -240 -232 -240q-73 0 -187.5 37t-152.5 37q-57 0 -93 -20t-58 -72z" />
<glyph unicode="&#x2000;" horiz-adv-x="1005" />
<glyph unicode="&#x2001;" horiz-adv-x="2011" />
<glyph unicode="&#x2002;" horiz-adv-x="1005" />
<glyph unicode="&#x2003;" horiz-adv-x="2011" />
<glyph unicode="&#x2004;" horiz-adv-x="670" />
<glyph unicode="&#x2005;" horiz-adv-x="502" />
<glyph unicode="&#x2006;" horiz-adv-x="335" />
<glyph unicode="&#x2007;" horiz-adv-x="335" />
<glyph unicode="&#x2008;" horiz-adv-x="251" />
<glyph unicode="&#x2009;" horiz-adv-x="402" />
<glyph unicode="&#x200a;" horiz-adv-x="111" />
<glyph unicode="&#x2010;" horiz-adv-x="604" d="M66 588v119h473v-119h-473z" />
<glyph unicode="&#x2011;" horiz-adv-x="604" d="M66 588v119h473v-119h-473z" />
<glyph unicode="&#x2012;" horiz-adv-x="604" d="M66 588v119h473v-119h-473z" />
<glyph unicode="&#x2013;" horiz-adv-x="911" d="M0 608v99h911v-99h-911z" />
<glyph unicode="&#x2014;" horiz-adv-x="1796" d="M0 608v99h1796v-99h-1796z" />
<glyph unicode="&#x2018;" horiz-adv-x="460" d="M90 1219q0 43 13.5 87.5t42 90.5t80.5 83.5t122 57.5l23 -51q-72 -29 -128.5 -86.5t-56.5 -118.5q0 -10 11 -10q5 0 22 10q23 14 43 14q49 0 76 -33.5t27 -82.5q0 -50 -34.5 -86.5t-86.5 -36.5q-71 0 -112.5 46t-41.5 116z" />
<glyph unicode="&#x2019;" horiz-adv-x="460" d="M90 1106q72 29 128 86.5t56 118.5q0 10 -10 10q-5 0 -22 -10q-25 -15 -43 -15q-49 0 -76 34t-27 83q0 50 34.5 86.5t86.5 36.5q71 0 112.5 -46t41.5 -116q0 -43 -13.5 -87.5t-42 -90.5t-80.5 -83.5t-122 -57.5z" />
<glyph unicode="&#x201a;" horiz-adv-x="512" d="M121 -182q72 29 128 86.5t56 118.5q0 10 -10 10q-6 0 -23 -10q-25 -15 -43 -15q-48 0 -75 34t-27 83q0 50 34.5 86.5t86.5 36.5q71 0 112 -46t41 -116q0 -43 -13.5 -87.5t-42 -90.5t-80.5 -83.5t-122 -57.5z" />
<glyph unicode="&#x201c;" horiz-adv-x="843" d="M90 1219q0 43 13.5 87.5t42 90.5t80.5 83.5t122 57.5l23 -51q-72 -29 -128.5 -86.5t-56.5 -118.5q0 -10 11 -10q5 0 22 10q23 14 43 14q49 0 76 -33.5t27 -82.5q0 -50 -34.5 -86.5t-86.5 -36.5q-71 0 -112.5 46t-41.5 116zM473 1219q0 43 13.5 87.5t42 90.5t80.5 83.5 t122 57.5l23 -51q-72 -29 -128.5 -86.5t-56.5 -118.5q0 -10 11 -10q5 0 22 10q23 14 43 14q49 0 76 -33.5t27 -82.5q0 -50 -34.5 -86.5t-86.5 -36.5q-71 0 -112.5 46t-41.5 116z" />
<glyph unicode="&#x201d;" horiz-adv-x="847" d="M90 1108q72 29 128 86.5t56 118.5q0 10 -10 10q-5 0 -22 -10q-25 -15 -43 -15q-49 0 -76 34t-27 83q0 50 34.5 86.5t86.5 36.5q71 0 112.5 -46t41.5 -116q0 -43 -13.5 -87.5t-42 -90.5t-80.5 -83.5t-122 -57.5zM477 1110q72 29 128.5 86.5t56.5 118.5q0 10 -11 10 q-5 0 -22 -10q-25 -15 -43 -15q-49 0 -76 34t-27 83q0 50 34.5 86.5t86.5 36.5q71 0 112.5 -46t41.5 -116q0 -43 -13.5 -87.5t-42 -90.5t-80.5 -83.5t-122 -57.5z" />
<glyph unicode="&#x201e;" horiz-adv-x="909" d="M121 -182q72 29 128 86.5t56 118.5q0 10 -10 10q-6 0 -23 -10q-25 -15 -43 -15q-48 0 -75 34t-27 83q0 50 34.5 86.5t86.5 36.5q71 0 112 -46t41 -116q0 -43 -13.5 -87.5t-42 -90.5t-80.5 -83.5t-122 -57.5zM508 -182q72 29 128 86.5t56 118.5q0 10 -10 10q-6 0 -23 -10 q-25 -15 -43 -15q-48 0 -75 34t-27 83q0 50 34.5 86.5t86.5 36.5q71 0 112 -46t41 -116q0 -43 -13.5 -87.5t-42 -90.5t-80.5 -83.5t-122 -57.5z" />
<glyph unicode="&#x2022;" horiz-adv-x="882" d="M154 698q0 120 84 204.5t204 84.5q119 0 203 -84.5t84 -204.5q0 -119 -82.5 -202.5t-202.5 -83.5t-205 84t-85 202z" />
<glyph unicode="&#x2026;" horiz-adv-x="1536" d="M125 115q0 56 38 94.5t91 38.5q56 0 93.5 -38t37.5 -95q0 -56 -36.5 -93.5t-94.5 -37.5t-93.5 37.5t-35.5 93.5zM637 115q0 56 38 94.5t91 38.5q56 0 93.5 -38t37.5 -95q0 -56 -36.5 -93.5t-94.5 -37.5t-93.5 37.5t-35.5 93.5zM1149 115q0 56 38 94.5t91 38.5 q56 0 93.5 -38t37.5 -95q0 -56 -36.5 -93.5t-94.5 -37.5t-93.5 37.5t-35.5 93.5z" />
<glyph unicode="&#x202f;" horiz-adv-x="402" />
<glyph unicode="&#x2039;" horiz-adv-x="542" d="M86 567v95l342 294l49 -41l-192 -286l192 -320l-49 -33z" />
<glyph unicode="&#x203a;" horiz-adv-x="542" d="M66 309l192 320l-192 286l49 41l342 -294v-95l-342 -291z" />
<glyph unicode="&#x205f;" horiz-adv-x="502" />
<glyph unicode="&#x20ac;" horiz-adv-x="1300" d="M41 565v86h162v54q0 90 8 155h-170v86h182q50 271 211 415t418 144q85 0 152.5 -16.5t108 -41t67.5 -57t37 -61t10 -55.5q0 -64 -31 -106t-88 -42q-64 0 -92.5 32t-28.5 77q0 35 26.5 76.5t26.5 50.5q0 24 -62.5 41.5t-129.5 17.5q-327 0 -379 -475h483v-86h-489 q-2 -33 -2 -98q0 -74 2 -111h489v-86h-483q10 -111 33.5 -196t67.5 -157t118 -110.5t176 -38.5q67 0 130 18t63 42q0 9 -26.5 50.5t-26.5 76.5q0 45 28 76.5t92 31.5q59 0 91 -37.5t32 -99.5q0 -27 -11.5 -57t-40.5 -63.5t-71.5 -59.5t-111.5 -43.5t-154 -17.5 q-589 0 -649 585h-168z" />
<glyph unicode="&#x2122;" horiz-adv-x="1390" d="M55 1331l2 156l2 2q16 -2 138 -2h243q121 0 135 2l3 -2l2 -156h-31q-10 57 -31 83t-74 26h-67v-482q0 -29 15.5 -40.5t56.5 -14.5v-29h-263v29q40 5 56 15t16 40v482h-68q-52 0 -73 -26.5t-29 -82.5h-33zM612 874v29q40 5 56 15t16 38v441q0 31 -15.5 44.5t-56.5 16.5v29 h226l143 -430h2l139 430h226v-29q-40 -5 -56 -15t-16 -38v-447q0 -28 15.5 -39t56.5 -16v-29h-263v29q40 5 56 15t16 38v471h-2l-178 -553h-59l-177 549h-4v-462q0 -30 15.5 -41.5t60.5 -16.5v-29h-201z" />
<glyph unicode="&#x25fc;" horiz-adv-x="1105" d="M0 0v1106h1106v-1106h-1106z" />
<glyph unicode="&#xfb01;" horiz-adv-x="1288" d="M47 1006v65l146 21v145q0 418 339 418q110 0 171 -50.5t61 -121.5q0 -55 -26.5 -87t-75.5 -32t-74 26.5t-25 69.5q0 24 11.5 44.5t22.5 34.5t11 20q0 21 -24 32t-60 11q-47 0 -82.5 -33.5t-35.5 -106.5v-381l223 6v-88h-223v-849q0 -51 32.5 -71t110.5 -32v-47h-475v47 q26 6 42.5 11.5t36.5 16.5t30 30t10 45v851zM745 1008v45l338 80l9 -5v-978q0 -50 28.5 -70.5t89.5 -32.5v-47h-450v47q26 6 42.5 11.5t36.5 16.5t30 30t10 45v724q0 36 -12 61.5t-33.5 39.5t-42 21.5t-46.5 11.5zM852 1399q0 58 35 95.5t96 37.5q65 0 99 -37t34 -96 q0 -57 -36.5 -95t-96.5 -38q-67 0 -99 36.5t-32 96.5z" />
<glyph unicode="&#xfb02;" horiz-adv-x="1243" d="M47 1006v65l146 21v145q0 418 339 418q112 0 177 -58l329 31l9 -4v-1474q0 -50 28.5 -70.5t89.5 -32.5v-47h-450v47q26 6 42.5 11.5t36.5 16.5t30 30t10 45v1302q0 45 -20.5 64.5t-63.5 27.5q14 -28 14 -61q0 -55 -26.5 -87t-75.5 -32t-74 26.5t-25 69.5q0 24 11.5 44.5 t22.5 34.5t11 20q0 21 -24 32t-60 11q-47 0 -82.5 -33.5t-35.5 -106.5v-381l223 6v-88h-223v-849q0 -51 32.5 -71t110.5 -32v-47h-475v47q26 6 42.5 11.5t36.5 16.5t30 30t10 45v851z" />
</font>
</defs>
</svg>
