<?xml version="1.0" standalone="no"?>
<!DOCTYPE svg PUBLIC "-//W3C//DTD SVG 1.1//EN" "http://www.w3.org/Graphics/SVG/1.1/DTD/svg11.dtd" >
<svg xmlns="http://www.w3.org/2000/svg">
<metadata></metadata>
<defs>
<font id="majeritheadlineitalic" horiz-adv-x="1126" >
<font-face units-per-em="2048" ascent="1638" descent="-410" />
<missing-glyph horiz-adv-x="450" />
<glyph horiz-adv-x="0" />
<glyph horiz-adv-x="682" />
<glyph unicode=" "  horiz-adv-x="450" />
<glyph unicode="&#x09;" horiz-adv-x="450" />
<glyph unicode="&#xa0;" horiz-adv-x="450" />
<glyph unicode="!" horiz-adv-x="647" d="M160 90q0 64 44.5 111t104.5 47q49 0 81 -32t32 -81q0 -63 -45 -107t-107 -44q-51 0 -80.5 29.5t-29.5 76.5zM307 406l33 886q8 197 149 197q51 0 85 -28.5t34 -86.5q0 -48 -12 -94l-225 -874h-64z" />
<glyph unicode="&#x22;" horiz-adv-x="825" d="M276 1376q0 40 9 69t22.5 44.5t33.5 24.5t35.5 11.5t35.5 2.5q100 0 100 -88q0 -45 -25 -105l-120 -299h-58l-30 301q-3 21 -3 39zM635 1376q0 40 9 69t22 44.5t33 24.5t35.5 11.5t35.5 2.5q100 0 100 -88q0 -52 -22 -105l-123 -299h-55l-31 301q-4 28 -4 39z" />
<glyph unicode="#" horiz-adv-x="1150" d="M86 496l31 108h207l102 377h-209l31 113h203l112 393h101l-107 -393h334l104 393h107l-107 -393h207l-33 -113h-204l-107 -377h205l-29 -108h-203l-139 -512h-104l139 512h-334l-147 -512h-99l146 512h-207zM424 604h334l104 377h-336z" />
<glyph unicode="$" horiz-adv-x="1103" d="M80 215q0 69 39.5 115.5t105.5 46.5q50 0 77.5 -29t27.5 -69q0 -33 -12 -57.5t-27 -36t-27 -24t-12 -22.5q0 -17 21 -35t71.5 -33t120.5 -18l100 633l-73 47q-54 34 -93.5 66.5t-76 74t-55.5 92t-19 107.5q-1 81 24 153t76.5 133t140.5 99.5t207 44.5l23 139h74l-23 -139 q86 -4 149.5 -30.5t95.5 -64.5t47 -74.5t15 -71.5q0 -69 -36 -116.5t-95 -47.5q-52 0 -80 33t-28 71q0 29 11 52.5t24.5 36.5t24.5 27t11 25q0 31 -37.5 57.5t-113.5 33.5q-5 -29 -36.5 -233t-49.5 -310l49 -31q62 -39 107 -75.5t88.5 -85.5t66.5 -109t23 -127 q0 -90 -30 -172.5t-87 -149t-150.5 -108.5t-210.5 -47l-32 -205h-74l31 203q-83 2 -150 19t-107.5 41t-67.5 55t-37.5 59.5t-10.5 56.5zM432 1182q-1 -80 42 -135t132 -113q13 83 39.5 250t38.5 250q-120 -10 -184.5 -82.5t-67.5 -169.5zM539 55q128 12 199 94.5t71 206.5 v11q0 84 -46.5 149.5t-129.5 124.5z" />
<glyph unicode="%" horiz-adv-x="1445" d="M207 1053q0 191 112 323.5t265 132.5q111 0 179 -78t68 -206q0 -115 -50.5 -219.5t-139 -170t-190.5 -65.5q-113 0 -178.5 78.5t-65.5 204.5zM256 12l1034 1506l68 -35l-1030 -1503zM373 999q0 -155 116 -155q40 0 72 28t51 75t32 97t18.5 105t7.5 87t2 54 q0 146 -115 146q-56 0 -95.5 -50.5t-57 -128t-24.5 -140.5t-7 -118zM770 258q0 191 112 324t265 133q111 0 179.5 -78.5t68.5 -206.5q0 -114 -51 -219t-139.5 -170.5t-190.5 -65.5q-113 0 -178.5 78.5t-65.5 204.5zM936 205q0 -156 115 -156q41 0 73.5 28t51.5 75t32 96.5 t18 105t7 86.5t2 54q0 70 -26 108.5t-91 38.5q-45 0 -80 -35.5t-53.5 -85t-30 -114t-15 -112t-3.5 -89.5z" />
<glyph unicode="&#x26;" horiz-adv-x="1509" d="M96 334q0 87 25 162t65 128t97.5 97t114 72t122.5 49q-35 55 -54 88.5t-35.5 84t-16.5 99.5q0 78 27.5 147.5t79.5 122.5t133 84t182 31q135 0 223 -69t88 -187q0 -148 -105 -243t-282 -136q14 -18 76.5 -116t129 -202.5t76.5 -119.5q7 14 48 81t64.5 114.5t23.5 72.5 q0 9 -2 17t-7 14.5t-10 11.5t-14.5 10t-16.5 8t-20.5 6.5t-21 6t-24 6.5t-24.5 6l6 43h416l-6 -43q-30 -5 -60.5 -22t-63.5 -52t-58.5 -65.5t-63.5 -88.5t-59.5 -92.5t-63.5 -105.5q97 -151 169 -214.5t176 -96.5l-9 -43h-221q-39 0 -71 9t-53 20t-43.5 35t-34 40t-33.5 48 l-29 43q-53 -50 -98.5 -85.5t-102 -68t-120 -48.5t-134.5 -16q-76 0 -144 22t-122.5 64.5t-86.5 112.5t-32 158zM313 412q0 -125 69.5 -209t195.5 -84q28 0 54 2.5t49.5 9t42.5 12t39.5 16.5t33.5 17.5t31.5 20.5t25.5 19t24.5 19.5t20.5 16.5q-29 47 -177 276.5t-175 268.5 q-113 -57 -173.5 -157t-60.5 -228zM604 1198q0 -59 30.5 -123.5t94.5 -159.5q258 92 258 324q0 77 -44 127.5t-130 50.5q-85 0 -147 -61t-62 -158z" />
<glyph unicode="'" horiz-adv-x="466" d="M276 1376q0 40 9 69t22.5 44.5t33.5 24.5t35.5 11.5t35.5 2.5q100 0 100 -88q0 -45 -25 -105l-120 -299h-58l-30 301q-3 21 -3 39z" />
<glyph unicode="(" horiz-adv-x="708" d="M119 367q0 109 20 229t69 257.5t121.5 260.5t187.5 238t257 192l29 -53q-133 -108 -239.5 -281t-174 -416t-67.5 -507q0 -196 46 -365t126 -291l-54 -43q-82 55 -146 146.5t-101 198.5t-55.5 216.5t-18.5 217.5z" />
<glyph unicode=")" horiz-adv-x="708" d="M-63 -371q200 202 336.5 544.5t136.5 711.5q0 398 -195 606l45 53q182 -117 264 -307t82 -422q0 -109 -19 -231t-65.5 -265.5t-115.5 -273.5t-179.5 -252.5t-246.5 -204.5z" />
<glyph unicode="*" horiz-adv-x="800" d="M199 1098q0 40 22.5 60t75.5 20q19 0 50.5 -2t47.5 -2q35 0 66 10v10q-20 8 -58 21t-61 22t-49 22t-38.5 28t-12.5 32q0 37 23 68.5t57 31.5q38 0 63 -32t52 -83t55 -77l6 4q0 5 1 15t1 14q0 38 -12.5 89t-12.5 72q0 39 20.5 59.5t53.5 20.5q36 0 64 -23t28 -53 q0 -32 -40.5 -93.5t-53.5 -110.5l2 -4q34 14 98.5 70t95.5 56q42 0 64 -26.5t22 -52.5q0 -43 -25 -66.5t-59 -23.5q-11 0 -49.5 2t-64.5 2q-10 0 -32 -1t-34 -1l-2 -11q6 -7 16.5 -13t27.5 -12.5t32.5 -11.5t42.5 -13.5t45 -14.5q35 -12 51.5 -35.5t16.5 -48.5 q0 -39 -21.5 -60.5t-54.5 -21.5q-40 0 -64.5 28t-54.5 80.5t-65 85.5h-7q0 -5 -1 -14t-1 -14q0 -42 13.5 -93.5t13.5 -70.5q0 -41 -21 -62.5t-55 -21.5q-6 0 -22 4q-30 5 -51 25t-21 49t17.5 56.5t42 66.5t36.5 84l-4 4q-37 -15 -103.5 -71t-99.5 -56q-30 0 -51.5 26 t-21.5 58z" />
<glyph unicode="+" d="M133 631l19 112h409l68 435h116l-67 -435h409l-16 -112h-412l-71 -441h-117l72 441h-410z" />
<glyph unicode="," horiz-adv-x="512" d="M66 -188q78 30 145.5 90t73.5 121q0 10 -11 10q-3 0 -27.5 -12.5t-43.5 -12.5q-43 0 -65.5 27.5t-22.5 70.5q0 60 41.5 105t101.5 45q65 0 101 -39t36 -100q0 -44 -16.5 -93.5t-50.5 -101t-95.5 -95t-140.5 -65.5z" />
<glyph unicode="-" horiz-adv-x="608" d="M82 586l22 125h478l-23 -125h-477z" />
<glyph unicode="." horiz-adv-x="512" d="M115 90q0 64 45.5 111t105.5 47q50 0 81.5 -32t31.5 -81q0 -62 -46 -106.5t-108 -44.5q-51 0 -80.5 29.5t-29.5 76.5z" />
<glyph unicode="/" horiz-adv-x="526" d="M-63 -266l575 1798l94 -19l-575 -1794z" />
<glyph unicode="0" horiz-adv-x="1202" d="M131 506q0 205 46.5 387t129.5 317.5t207 214t272 78.5q190 0 291 -149t101 -393q0 -177 -35.5 -333.5t-97.5 -273t-144 -201.5t-178 -128t-197 -43q-189 0 -292 138t-103 386zM362 436q0 -199 44 -283.5t147 -84.5q252 0 346 571q43 261 43 451q0 161 -42 242t-140 81 q-75 0 -135.5 -47.5t-103.5 -137t-72.5 -201t-51.5 -257.5q-35 -243 -35 -334z" />
<glyph unicode="1" horiz-adv-x="825" d="M90 0l6 47q40 5 64 9.5t51 13.5t42 21.5t27 34t17 50.5l186 1178l-178 14l8 53q221 18 392 78h20l-207 -1315q-4 -24 -4 -39q0 -50 37 -70t127 -28l-6 -47h-582z" />
<glyph unicode="2" horiz-adv-x="1058" d="M12 0l19 90q45 43 132 126q155 148 228 220t178 186.5t151 187t82 163t36 174.5q0 98 -57 158.5t-158 60.5q-172 0 -369 -182l-43 30q86 133 227 215t303 82q156 0 246 -87t90 -228q0 -67 -24.5 -138t-64 -135t-99.5 -135t-119.5 -129t-137 -126.5t-139 -118t-138 -113 t-122.5 -102.5v-6l572 6q16 0 30 5.5t22 10t17.5 19.5t12 20.5t11.5 27t11 25.5h56l-80 -307h-873z" />
<glyph unicode="3" horiz-adv-x="1107" d="M10 201q0 85 49.5 135.5t122.5 50.5q51 0 80 -27t29 -65t-16.5 -68t-36 -44t-36 -27t-16.5 -21q0 -30 58 -51t139 -21q127 0 226.5 52.5t151.5 135.5t52 179q0 133 -110.5 208t-276.5 75q-22 0 -68 -4v55q447 248 447 455q0 153 -197 153q-167 0 -364 -188l-43 30 q87 135 219 214t293 79q146 0 225.5 -63.5t79.5 -173.5q0 -129 -99.5 -231t-289.5 -160q178 -19 290.5 -112t112.5 -239q0 -108 -40.5 -200t-108 -155.5t-155 -108.5t-181 -66t-187.5 -21q-156 0 -253 58.5t-97 165.5z" />
<glyph unicode="4" horiz-adv-x="1218" d="M29 455l14 98l776 915l2 19h219l-137 -869h121q78 0 104 74h52l-60 -237h-241l-43 -271q-5 -35 -5 -41q0 -48 29.5 -68t102.5 -28l-9 -47h-512l7 47q85 12 120.5 35.5t46.5 93.5l46 279h-633zM209 618h479l109 695h-9z" />
<glyph unicode="5" horiz-adv-x="1105" d="M12 199q0 87 48.5 137.5t121.5 50.5q51 0 80 -28t29 -66q0 -36 -16.5 -65.5t-36 -43.5t-36 -27.5t-16.5 -21.5q0 -30 59.5 -49.5t141.5 -19.5q98 0 179 33t132 88t79 124t28 142q0 161 -144 246t-464 92l168 694h727l-58 -199h-633l-71 -309q204 -1 352 -45.5t235 -142 t87 -242.5q0 -165 -90 -297t-236.5 -202.5t-317.5 -70.5q-157 0 -252.5 56.5t-95.5 165.5z" />
<glyph unicode="6" horiz-adv-x="1179" d="M90 516q0 222 63 410t171 315.5t254.5 198.5t312.5 71q127 0 190 -16l-20 -51h-31q-246 0 -432 -174.5t-240 -458.5q69 62 171 94.5t202 32.5q166 0 257 -101.5t91 -258.5q0 -77 -24.5 -160t-74 -160.5t-115.5 -139t-157 -99t-192 -37.5q-113 0 -197 42t-133 116.5 t-72.5 168.5t-23.5 207zM315 475q0 -78 12.5 -146.5t38.5 -127t72 -92t107 -33.5q55 0 108 27.5t99 80t74 140t28 196.5q0 147 -70.5 222t-203.5 75q-65 0 -131.5 -19.5t-100.5 -45.5l-2 -11q-31 -157 -31 -266z" />
<glyph unicode="7" horiz-adv-x="1021" d="M141 1155l99 336h862l14 -25l-805 -1466h-133l752 1288h-600q-49 0 -71 -23.5t-62 -109.5h-56z" />
<glyph unicode="8" horiz-adv-x="1155" d="M45 291q0 149 116 277t279 167q-68 38 -116 78t-83.5 102.5t-35.5 135.5q0 53 15 109.5t54.5 119t98 111t154.5 80.5t216 32q73 0 138 -17.5t117.5 -52t83 -91t30.5 -128.5q0 -126 -109 -237t-258 -156q53 -27 99.5 -61t90.5 -79.5t69.5 -104t25.5 -121.5q0 -20 -10 -70 q-37 -185 -186 -293t-373 -108q-188 0 -302 82t-114 225zM223 313q0 -110 70.5 -169.5t206.5 -59.5q129 0 227 80t98 203q0 85 -74.5 163t-244.5 172q-283 -118 -283 -389zM414 1141q0 -45 16.5 -81.5t49.5 -64.5t63 -47.5t76.5 -45.5t70.5 -42q262 147 262 336q0 42 -13 79 t-40 69t-76 50.5t-114 18.5q-126 0 -210.5 -78t-84.5 -194z" />
<glyph unicode="9" horiz-adv-x="1179" d="M150 -2l18 51h31q248 0 434.5 174t238.5 459q-70 -62 -170.5 -94.5t-199.5 -32.5q-165 0 -249.5 97t-84.5 253q0 79 21.5 161.5t67 162.5t108.5 142.5t154.5 101t197.5 38.5q112 0 196 -40t132.5 -111.5t72 -162t23.5 -200.5q0 -222 -63 -413t-171 -322.5t-255 -205.5 t-312 -74q-127 0 -190 16zM391 954q0 -142 64 -210t194 -68q66 0 133 19.5t101 45.5q2 2 11.5 55t18.5 133t9 136q0 352 -232 352q-54 0 -106.5 -29.5t-96 -85t-70 -146.5t-26.5 -202z" />
<glyph unicode=":" horiz-adv-x="512" d="M96 90q0 64 46.5 111t105.5 47q49 0 80.5 -31.5t31.5 -81.5q0 -63 -44.5 -107t-106.5 -44q-52 0 -82.5 29.5t-30.5 76.5zM221 891q0 65 45.5 111.5t106.5 46.5q49 0 80.5 -31.5t31.5 -81.5q0 -63 -45.5 -107.5t-107.5 -44.5q-51 0 -81 30t-30 77z" />
<glyph unicode=";" horiz-adv-x="512" d="M49 -188q78 30 145.5 90t73.5 121q0 10 -10 10q-3 0 -28 -12.5t-44 -12.5q-43 0 -65.5 27.5t-22.5 70.5q0 60 42 105t102 45q65 0 101 -39t36 -100q0 -44 -16.5 -93.5t-50.5 -101t-95.5 -95t-140.5 -65.5zM221 891q0 65 45.5 111.5t106.5 46.5q49 0 80.5 -31.5 t31.5 -81.5q0 -63 -45.5 -107.5t-107.5 -44.5q-51 0 -81 30t-30 77z" />
<glyph unicode="&#x3c;" d="M141 668l6 30l949 480l43 -107l-770 -389l651 -389l-78 -107z" />
<glyph unicode="=" d="M102 467l17 113h938l-17 -113h-938zM154 795l16 112h938l-16 -112h-938z" />
<glyph unicode="&#x3e;" d="M82 293l774 389l-643 389l76 107l796 -480l-6 -30l-952 -482z" />
<glyph unicode="?" horiz-adv-x="968" d="M225 90q0 64 46.5 111t105.5 47q49 0 80.5 -31.5t31.5 -79.5q0 -64 -45.5 -108.5t-109.5 -44.5q-52 0 -80.5 29t-28.5 77zM238 1190q0 26 12 61t42 77t74 77t116 58.5t159 23.5q86 0 152.5 -23t106 -63t59.5 -89t20 -104q0 -61 -14.5 -114.5t-45 -98.5t-63.5 -81 t-85 -72.5t-93.5 -62t-104.5 -60.5q-52 -29 -73.5 -53.5t-28.5 -67.5l-29 -176h-80l50 299q14 84 33.5 117.5t76.5 68.5q15 9 55.5 32t64.5 37.5t59 43t54.5 55.5t34.5 67t15 85q0 82 -54.5 130t-168.5 48q-72 0 -130 -31t-59 -71q0 -9 16 -25t32 -40t16 -50 q0 -55 -33.5 -86t-79.5 -31q-49 0 -77.5 31.5t-28.5 87.5z" />
<glyph unicode="@" horiz-adv-x="1947" d="M90 416q0 221 73.5 418.5t202.5 343t314 230.5t397 85q191 0 343 -54t249 -149.5t148 -223t51 -278.5q0 -117 -29 -230t-86.5 -211t-137 -172t-187 -116.5t-228.5 -42.5q-131 0 -131 74q0 32 9 79.5t25.5 114.5t22.5 95l-18 6q-29 -89 -84 -168.5t-117 -131t-123.5 -81 t-107.5 -29.5q-193 0 -193 279v12q0 173 46 334t121.5 278.5t178 188t211.5 70.5q59 0 110 -28.5t71 -84.5q7 33 22 88q33 23 103 23q104 0 104 -37q0 -7 -4 -31q-3 -21 -24 -119.5t-60.5 -285t-73.5 -351.5q-22 -112 -22 -127q0 -43 61 -43q122 0 220 92t150 239t52 316 q0 133 -35.5 238t-97 175.5t-149 116.5t-187.5 66.5t-217 20.5q-242 0 -438.5 -130.5t-307 -356t-110.5 -498.5q0 -337 189.5 -522t531.5 -185q164 0 262.5 13.5t214.5 44.5q1 -4 6 -28t6 -38q-200 -80 -512 -80q-385 0 -600 207t-215 584zM721 285q0 -48 4.5 -81t22.5 -59 t49 -26q45 0 111.5 62t127 168t80.5 214q17 90 32.5 163t23.5 109t10 50q-6 63 -50.5 117.5t-99.5 54.5t-106 -58.5t-87 -148.5t-63.5 -196t-41 -202.5t-13.5 -166.5z" />
<glyph unicode="A" horiz-adv-x="1347" d="M-57 0l8 47q112 15 158 115l606 1284l-2 41h217l250 -1344q16 -82 112 -96l-6 -47h-514l6 47q89 14 124.5 35t35.5 63q0 8 -1 19t-1 14l-70 385h-460l-140 -313q-43 -108 -43 -131q0 -27 29 -44.5t113 -27.5l-7 -47h-415zM446 655h404l-115 629h-8z" />
<glyph unicode="B" horiz-adv-x="1318" d="M-4 0l8 47q97 12 138.5 35.5t52.5 93.5l178 1127l4 34q0 51 -34.5 73t-121.5 30l8 47h650q62 0 119.5 -10t111.5 -34t94 -59t64 -89t24 -121q-1 -85 -34 -153.5t-90.5 -112.5t-127.5 -70t-151 -35l-2 -12q157 -26 239 -109t82 -205q-1 -94 -36 -173.5t-93 -134.5 t-133.5 -94t-156 -57t-160.5 -18h-633zM422 115q0 -29 37 -29h114q101 0 178.5 34t124 92t69.5 129t24 151q0 128 -81.5 201t-248.5 73h-117l-96 -614q-4 -16 -4 -37zM537 848h155q170 0 268.5 84t98.5 235q0 65 -23.5 113t-65 73.5t-88.5 37.5t-102 12h-155z" />
<glyph unicode="C" horiz-adv-x="1265" d="M111 567q0 215 61.5 392.5t170.5 297t259 185t326 65.5q205 0 389 -47l-55 -350h-58q-4 181 -71 247t-232 66q-127 0 -232 -72t-172.5 -193t-104 -275t-36.5 -322q0 -103 19 -188t61 -155t117 -109t178 -39q133 0 228.5 82.5t154.5 269.5h60l-97 -414q-10 2 -35 2 q-31 0 -138.5 -15t-170.5 -15h-15q-126 0 -230 31q-110 33 -196 101.5t-133.5 184t-47.5 270.5z" />
<glyph unicode="D" horiz-adv-x="1456" d="M-2 0l4 45q39 5 63 9.5t49.5 13t39.5 22t25 34t16 50.5l178 1129q4 24 4 34q0 51 -34.5 73t-121.5 30l8 47h553q123 0 225 -31t174.5 -87t123 -133.5t74.5 -169.5t24 -196q0 -193 -57.5 -354.5t-162.5 -275t-257 -177t-336 -63.5h-592zM422 117q0 -21 11.5 -27t39.5 -6 h98q99 0 184 30.5t148.5 85t112.5 128t79.5 162t46 183.5t15.5 195q0 83 -14.5 158t-49 145t-86 120.5t-129.5 81t-176 30.5h-79l-197 -1256q0 -2 -2 -15t-2 -15z" />
<glyph unicode="E" horiz-adv-x="1298" d="M-2 0l4 47q39 5 63 9.5t49.5 13t39.5 22t25 34t16 50.5l178 1124q4 28 4 37q0 51 -35 72t-121 29l8 49h734q259 0 333 4l7 -4l-62 -377h-49q0 47 -2.5 80t-10.5 69t-24.5 59t-42 43t-65.5 29t-93 9h-329l-90 -563h278q48 0 84 7t60.5 23t40 32t27 46t17 51.5t13.5 61.5 h57l-86 -541h-53q2 20 2 62q0 33 -3 56t-13.5 47t-29 39t-51.5 24.5t-79 9.5h-277l-96 -602q0 -3 -1 -15t-1 -16q0 -31 41 -31h293q62 0 113 12.5t89 37t66.5 52.5t52 69.5t38.5 76.5t32 84h57l-102 -422h-1106z" />
<glyph unicode="F" horiz-adv-x="1210" d="M0 0q0 6 1 14t2.5 18t2.5 15q95 12 137.5 36t53.5 93l176 1124q4 28 4 37q0 51 -35 72t-121 29l8 49h734q259 0 333 4l7 -4l-62 -377h-49q0 47 -2.5 80t-10.5 69t-24.5 59t-42 43t-65.5 29t-93 9h-331l-88 -563h278q48 0 84 7t60.5 23t40 32t27 46t17 51.5t13.5 61.5h57 l-86 -541h-53q2 20 2 62q0 33 -3 56t-13.5 47t-29 39t-51.5 24.5t-79 9.5h-277l-86 -555q-6 -38 -6 -54q0 -54 33.5 -72t132.5 -26l-8 -47h-588z" />
<glyph unicode="G" horiz-adv-x="1380" d="M111 582q0 147 35.5 283t108 252.5t174 203t241.5 135.5t303 49q214 0 389 -43l-62 -352h-57q-4 96 -21.5 157t-55.5 95.5t-90.5 47.5t-135.5 13q-97 0 -181.5 -36.5t-146 -100.5t-110 -147t-78 -180t-44.5 -197t-15 -199q0 -84 10 -152t38 -133.5t73 -109.5t120 -71 t174 -27q80 0 125 10l66 389q2 10 2 27q0 54 -41.5 77t-132.5 33l8 51h567l-8 -51q-82 -12 -117.5 -35.5t-46.5 -93.5l-76 -438q-69 -18 -109 -27.5t-125 -20.5t-173 -11q-154 0 -271.5 43.5t-190.5 123.5t-109.5 189.5t-36.5 245.5z" />
<glyph unicode="H" horiz-adv-x="1595" d="M0 0q0 6 1 14t2.5 18t2.5 15q95 12 137.5 36t53.5 93l178 1124q0 6 1 18.5t1 18.5q0 51 -33.5 71.5t-122.5 29.5l8 49h582l-8 -49q-39 -5 -63 -9.5t-49.5 -13t-39.5 -22t-25 -34t-16 -50.5l-73 -467h663q27 181 72 458q0 6 1 19.5t1 19.5q0 51 -33 70.5t-123 28.5l8 49 h582l-8 -49q-98 -12 -141 -36t-54 -93l-176 -1116q-6 -18 -6 -50q0 -52 33.5 -71t124.5 -25l-8 -47h-582l8 47q98 12 141 36t54 93q38 253 90 580h-664l-86 -557q-6 -23 -6 -58q0 -50 33.5 -69t122.5 -25l-9 -47h-575z" />
<glyph unicode="I" horiz-adv-x="694" d="M0 0q0 6 1 14t2.5 18t2.5 15q95 12 137.5 36t53.5 93l178 1124q0 5 1 18.5t1 18.5q0 51 -33.5 71.5t-122.5 29.5l8 49h582l-8 -49q-39 -5 -63 -9.5t-49.5 -13t-39.5 -22t-25 -34t-16 -50.5l-174 -1110q-6 -23 -6 -58q0 -50 33 -69t121 -25l-9 -47h-575z" />
<glyph unicode="J" horiz-adv-x="1001" d="M35 168q0 90 45.5 138t116.5 48q51 0 81.5 -29t30.5 -69q0 -41 -16 -71.5t-35 -44.5t-35 -28t-16 -26q0 -25 33.5 -43t85.5 -18q164 0 194 200l172 1078q4 24 4 34q0 51 -35 73t-120 30l8 47h581l-8 -47q-98 -12 -140.5 -36t-53.5 -93l-152 -959q-64 -399 -450 -399 q-77 0 -135 18.5t-91 50t-49 68.5t-16 78z" />
<glyph unicode="K" horiz-adv-x="1406" d="M0 0q0 6 1 14t2.5 18t2.5 15q97 12 138.5 35.5t52.5 93.5l178 1124q2 16 2 35q0 51 -34.5 73t-119.5 30l6 49h582l-6 -49q-99 -12 -141.5 -35.5t-53.5 -93.5l-73 -457h131q66 0 145 76l43 41q132 127 297 309q2 2 10 11t12 14t12 14.5t12.5 16.5t9.5 16t7.5 16.5 t2.5 13.5q0 28 -34 40.5t-102 17.5l9 49h452l-8 -49q-101 -20 -197 -113l-479 -467l357 -700q19 -39 55 -71.5t88 -39.5l-8 -47h-344v25q-34 73 -355 753h-129l-92 -594q-4 -16 -4 -34q0 -52 34 -73.5t122 -29.5l-9 -47h-575z" />
<glyph unicode="L" horiz-adv-x="1261" d="M0 0q0 6 1 14t2.5 18t2.5 15q97 12 138.5 35.5t52.5 93.5l176 1110q4 26 4 51q0 51 -34.5 72t-121.5 29l8 49h582l-8 -49q-39 -5 -63 -9.5t-49.5 -13t-39.5 -22t-25 -34t-16 -50.5q-75 -463 -86 -547q-15 -109 -47.5 -309.5t-44.5 -282.5q-6 -18 -6 -47q0 -33 41 -33h291 q74 0 133 19.5t97.5 48t71.5 76t51 88t40 100.5h55l-102 -422h-1104z" />
<glyph unicode="M" horiz-adv-x="1779" d="M-4 0l8 47q97 12 138.5 35.5t52.5 93.5l180 1127q2 12 2 36q0 50 -34.5 71.5t-121.5 29.5l8 47h467l185 -1118h8l545 1118h458l-6 -47q-100 -12 -141.5 -35.5t-52.5 -93.5l-181 -1127q-2 -14 -2 -34q0 -51 34.5 -73t121.5 -30l-8 -47h-580l6 47q99 12 141.5 35.5 t53.5 93.5l186 1170h-6l-651 -1346h-94l-224 1346h-8l-184 -1162q-2 -12 -2 -37q0 -50 34.5 -71t121.5 -29l-9 -47h-446z" />
<glyph unicode="N" horiz-adv-x="1464" d="M-2 0l6 47q97 12 139.5 36t53.5 93l178 1127v14q0 62 -35 84.5t-119 38.5l8 47h424q127 -279 488 -1081h8l141 897q0 7 1 18.5t1 17.5q0 50 -34 70.5t-121 28.5l8 49h448l-6 -49q-98 -12 -140.5 -36t-53.5 -93l-209 -1313h-129q0 2 1 7.5t1 8.5l-578 1301h-4 q-157 -998 -178 -1127q0 -7 -1 -20t-1 -19q0 -51 33.5 -71t122.5 -29l-9 -47h-444z" />
<glyph unicode="O" horiz-adv-x="1447" d="M109 549q0 275 100 493.5t277.5 340.5t400.5 122q269 0 413 -148t144 -413q0 -211 -62 -392t-167 -305t-247 -194.5t-300 -70.5q-271 0 -415 146.5t-144 420.5zM348 459q0 -198 82.5 -291.5t255.5 -93.5q195 0 315.5 156.5t174.5 502.5q24 147 24 268q0 416 -328 416 q-202 0 -322.5 -172t-174.5 -512q-27 -175 -27 -274z" />
<glyph unicode="P" horiz-adv-x="1236" d="M-2 0l8 47q98 12 139 35.5t52 93.5l178 1127q4 24 4 34q0 51 -34.5 73t-121.5 30l8 47h621q190 0 300 -96.5t110 -251.5q0 -94 -33 -171.5t-88.5 -129.5t-131.5 -88t-160.5 -52t-176.5 -16h-162l-78 -496q-2 -10 -2 -34q0 -55 46.5 -77.5t152.5 -27.5l-8 -47h-623z M522 758h121q182 0 283.5 100.5t101.5 282.5q0 125 -80 199.5t-217 74.5h-104z" />
<glyph unicode="Q" horiz-adv-x="1447" d="M106 547q0 206 59 384.5t162 304t248 197.5t312 72q269 0 413 -148t144 -413q0 -186 -49.5 -350.5t-135.5 -285.5t-201.5 -201.5t-248.5 -108.5q5 -112 78 -186t203 -74q98 0 182 24l12 -51q-55 -43 -141.5 -69.5t-190.5 -26.5q-181 0 -288 105.5t-109 269.5 q-219 28 -334 170t-115 387zM348 459q0 -198 82.5 -291.5t255.5 -93.5q195 0 315.5 156.5t174.5 502.5q24 147 24 268q0 416 -328 416q-202 0 -322.5 -172t-174.5 -512q-27 -175 -27 -274z" />
<glyph unicode="R" horiz-adv-x="1304" d="M-4 0l6 47q99 12 141.5 35.5t53.5 93.5l178 1127q4 24 4 34q0 51 -35 73t-121 30l6 47h600q211 0 327 -87t116 -235q0 -153 -112 -263.5t-294 -127.5v-8q107 -15 175.5 -81.5t74.5 -168.5l23 -352q2 -35 11.5 -57t29.5 -34t38.5 -16.5t51.5 -9.5l-6 -47h-355l-20 567 q-3 97 -50.5 133.5t-127.5 36.5h-193l-86 -553q-4 -28 -4 -34q0 -51 34.5 -73t121.5 -30l-6 -47h-582zM530 811h160q49 0 94 8t94 31t84.5 60t58.5 100.5t23 146.5q0 114 -69 185t-207 71h-141z" />
<glyph unicode="S" horiz-adv-x="1118" d="M94 51l47 383l62 -8q4 -100 19 -164.5t48.5 -110t90 -65.5t143.5 -20q53 0 105 18t98.5 54t76.5 98t33 141v14q0 91 -47 151q-51 64 -154 126l-69 41q-123 72 -170 111q-123 105 -123 251v16q9 185 144.5 301.5t365.5 116.5q184 0 360 -57l-55 -334l-55 2 q-1 79 -13.5 133t-42 94.5t-83 60t-132.5 19.5q-127 0 -203 -77t-81 -183v-9q0 -39 15 -73q17 -38 54 -70t63 -49.5t73 -43.5l94 -54q50 -28 89.5 -56t76.5 -65t60 -77q23 -38 36 -90q11 -42 10 -88v-21q-9 -210 -154.5 -347.5t-383.5 -137.5q-32 0 -62 1.5t-62 6.5t-53 8 t-57.5 11.5t-51 12t-57.5 15t-55 14.5z" />
<glyph unicode="T" horiz-adv-x="1339" d="M170 1110l66 377l6 4q74 -4 313 -4h594q235 0 309 4l6 -4l-53 -377h-55q0 8 1 24.5t1 24.5q0 119 -44 182.5t-159 63.5h-201l-194 -1239q-2 -8 -2 -23q0 -52 33 -71t122 -27l-6 -45h-585l8 45q98 12 140.5 36t53.5 93q60 392 195 1231h-203q-65 0 -114 -23t-82 -68.5 t-52.5 -90.5t-40.5 -113h-57z" />
<glyph unicode="U" horiz-adv-x="1490" d="M213 1440l8 47h582l-8 -47q-96 -12 -141 -38.5t-56 -96.5l-131 -834q-8 -62 -8 -92q0 -141 75.5 -213t223.5 -72q68 0 132 21.5t121.5 64t99 116t56.5 167.5l133 833q3 18 3 35q0 52 -38 76.5t-124 32.5l8 47h461l-11 -47q-94 -11 -135.5 -37.5t-52.5 -97.5l-131 -844 q-15 -97 -56.5 -180.5t-109.5 -150.5t-171 -105.5t-230 -38.5q-106 0 -189.5 21t-138.5 57t-91 86.5t-51.5 107t-15.5 121.5q0 49 15 141l123 776q2 12 2 35q0 54 -34.5 77.5t-119.5 31.5z" />
<glyph unicode="V" horiz-adv-x="1314" d="M174 1440l6 47h510l-8 -47q-86 -14 -119.5 -32.5t-34.5 -57.5q0 -17 7 -45l190 -1080h4l445 1012q40 100 40 123q2 27 -32 47.5t-127 32.5l8 47h436l-8 -47q-115 -13 -162 -115l-604 -1302l-2 -25h-197l-239 1345q-16 83 -113 97z" />
<glyph unicode="W" horiz-adv-x="2027" d="M137 1440l6 47h510l-8 -47q-85 -14 -118.5 -32.5t-34.5 -57.5q0 -21 6 -45l184 -1076h6q80 209 240.5 625t240.5 625h113l217 -1250h6l389 1006q35 87 35 127q0 27 -31.5 46t-121.5 30l8 49h432l-8 -49q-57 -5 -95.5 -31t-62.5 -82l-549 -1302q-2 -8 -2 -23h-199 q-165 971 -184 1077l-434 -1054v-23h-199l-233 1343q-13 83 -113 97z" />
<glyph unicode="X" horiz-adv-x="1277" d="M-78 0l8 49q104 30 185 135l465 582l-220 522q-33 79 -75 112t-99 38l9 49h581l-8 -49q-168 -35 -168 -98q0 -33 35 -119l149 -355l265 344q74 97 77 144q0 12 -5 22.5t-15.5 18.5t-21.5 14t-26.5 10.5t-26.5 7.5t-25 6.5t-19 4.5l8 49h451l-6 -45q-31 -7 -78.5 -40.5 t-93.5 -88.5l-447 -533l207 -495q46 -109 91.5 -170.5t105.5 -65.5l-8 -49h-568l8 49q166 28 168 98q2 25 -39 125l-165 408l-310 -416q-69 -92 -71 -133q-1 -19 10.5 -33t37 -24t43 -14.5t48.5 -10.5l-8 -49h-449z" />
<glyph unicode="Y" horiz-adv-x="1234" d="M174 1440l6 47h518l-6 -47q-88 -7 -120.5 -27t-32.5 -59q4 -30 18 -64l209 -516l321 481q58 83 58 121q0 54 -127 64l6 47h391l-6 -47q-83 -9 -154 -109l-458 -651l-80 -487q-4 -28 -4 -48q0 -51 33.5 -70.5t121.5 -27.5l-8 -47h-579l6 47q95 11 139 38.5t55 98.5l78 496 l-272 674q-29 73 -113 86z" />
<glyph unicode="Z" horiz-adv-x="1249" d="M14 41l1028 1362h-436q-73 0 -127 -18t-93.5 -58.5t-67.5 -90t-58 -126.5h-57l78 379l225 -2h815l22 -39l-1019 -1358h378q122 0 195.5 31t122 99.5t96.5 201.5h60l-105 -422h-1036z" />
<glyph unicode="[" horiz-adv-x="669" d="M2 -410l301 1897h471l-12 -70h-279l-276 -1755h278l-12 -72h-471z" />
<glyph unicode="\" horiz-adv-x="526" d="M96 1516l107 16l387 -1798l-107 -13z" />
<glyph unicode="]" horiz-adv-x="669" d="M-96 -410l12 72h277l276 1755h-279l13 70h471l-301 -1897h-469z" />
<glyph unicode="^" d="M76 309l618 873h31l342 -877l-113 -57l-282 719l-496 -717z" />
<glyph unicode="_" horiz-adv-x="911" d="M-92 -291l12 98h911l-14 -98h-909z" />
<glyph unicode="`" horiz-adv-x="571" d="M233 1487l129 170l330 -346l-37 -43z" />
<glyph unicode="a" horiz-adv-x="1107" d="M96 324q0 161 45.5 311t122 259.5t182 175t220.5 65.5q63 0 119 -11.5t85 -25.5l134 43l16 -6l-141 -865q-17 -122 -17 -127q0 -24 21 -24q24 0 55.5 28.5t56.5 65.5l43 -27q-37 -73 -86.5 -122t-95.5 -68t-92 -19q-64 0 -90.5 29t-26.5 82q0 14 8 68 q-52 -72 -139.5 -126.5t-175.5 -54.5q-123 0 -183.5 91t-60.5 258zM322 375q0 -132 36.5 -191t108.5 -59q48 0 103.5 27t91.5 63l118 758q-21 35 -65 63.5t-90 28.5q-86 0 -156.5 -100t-108.5 -257.5t-38 -332.5z" />
<glyph unicode="b" horiz-adv-x="1105" d="M113 61l147 981q0 2 32 217t32 216q0 23 -33 41l-70 34l8 41l324 39l6 -8l-94 -618q44 48 129 94.5t182 46.5q133 0 200.5 -90t67.5 -258q0 -113 -25.5 -228t-77 -221t-122 -188t-168.5 -131t-209 -49q-81 0 -172.5 21t-156.5 60zM334 123q58 -53 135 -53q68 0 127.5 46 t99.5 120t69 166t42.5 183t13.5 173q0 243 -155 243q-51 0 -109 -18t-104 -49z" />
<glyph unicode="c" horiz-adv-x="925" d="M98 383q0 138 39.5 272t110 241.5t179 174t235.5 66.5q120 0 179.5 -55t59.5 -132q0 -68 -37 -110.5t-94 -42.5t-84 30.5t-27 69.5q0 27 14 51t29.5 41t16.5 27q0 18 -23.5 28.5t-60.5 10.5q-97 0 -172.5 -91t-112.5 -228.5t-37 -291.5q0 -166 51 -243.5t156 -77.5 q85 0 161 52t130 128l43 -33q-51 -125 -167 -211t-249 -86q-98 0 -166.5 32t-105 91t-52.5 128.5t-16 158.5z" />
<glyph unicode="d" horiz-adv-x="1118" d="M86 317q0 153 45 301.5t121 262.5t185 184t229 70q76 0 143 -23l47 285q8 46 8 80q0 24 -30 39l-68 34l8 39l324 41l6 -8l-66 -424l-157 -926q-17 -111 -17 -125q0 -24 23 -24t54 29t56 67l43 -26q-56 -108 -128 -162t-144 -54q-115 0 -115 111q0 16 9 68 q-58 -75 -142.5 -128t-175.5 -53q-131 0 -194.5 91t-63.5 251zM311 385q0 -260 162 -260q55 0 106.5 27.5t86.5 62.5l120 760q-25 38 -67.5 64t-89.5 26q-88 0 -163 -107.5t-115 -263t-40 -309.5z" />
<glyph unicode="e" horiz-adv-x="937" d="M98 362q0 120 27 235t78 212t120 171t159 115.5t188 41.5q105 0 173 -48t68 -143q0 -98 -79.5 -170t-208.5 -108t-291 -39q-19 -140 -19 -193q0 -72 9.5 -126t31.5 -98.5t63 -67.5t101 -23q177 0 299 184l39 -31q-49 -125 -162 -213t-264 -88q-159 0 -245.5 98.5 t-86.5 290.5zM344 692q62 2 123.5 15.5t119 39t93 71.5t35.5 104q0 67 -35.5 94.5t-81.5 27.5q-97 0 -163 -100.5t-91 -251.5z" />
<glyph unicode="f" horiz-adv-x="649" d="M-240 -270q2 58 35 96.5t96 38.5q45 0 73 -25q28 -24 28 -66t-20 -67q-18 -24 -36.5 -34.5t-19.5 -16.5q0 -14 18 -25.5t50 -11.5q100 0 129 188l178 1197h-162l10 71l164 19l21 139q14 95 44 170t78 133t121 89.5t166 31.5q110 0 166.5 -53t54.5 -121q-3 -63 -32.5 -97 t-79.5 -34q-47 0 -73 26q-24 25 -24 59v5q1 27 14.5 50t26.5 38t13 24q0 18 -23.5 30.5t-60.5 12.5q-51 0 -92.5 -40t-55.5 -132l-53 -338h201l-13 -86h-200l-166 -1015q-33 -200 -120 -315t-234 -115q-114 0 -170 50q-52 47 -52 116v8z" />
<glyph unicode="g" horiz-adv-x="1056" d="M-57 -213q0 31 11.5 66.5t36.5 75.5t74 77t115 60q-61 38 -61 110q0 86 69 157t164 109q-92 29 -146 96.5t-54 163.5q0 136 60 235.5t155.5 147.5t212.5 48q115 0 233 -48l303 19l-18 -123l-215 20q26 -30 40.5 -78t14.5 -96q-1 -126 -63.5 -219t-161 -137.5 t-219.5 -44.5q-32 0 -72 4q-15 -7 -34.5 -19.5t-45 -32.5t-42.5 -46t-17 -51q0 -31 27 -47.5t77 -16.5h295q295 0 295 -201q-2 -192 -188.5 -318t-473.5 -126q-192 0 -282 61.5t-90 153.5zM111 -160q0 -71 64.5 -122.5t199.5 -51.5q179 0 300.5 77t123.5 183q3 105 -123 105 h-289q-136 0 -170 18q-46 -34 -76 -88t-30 -121zM354 692q0 -90 43.5 -137t110.5 -47q99 0 162 93.5t63 252.5q0 89 -42 145t-118 56q-52 0 -92.5 -25t-63.5 -63t-38 -89t-20 -96t-5 -90z" />
<glyph unicode="h" horiz-adv-x="1216" d="M115 0l121 776l92 621q1 6 3 25t3.5 34t1.5 21q0 25 -31 39l-67 32l8 39l321 43l6 -8q-24 -148 -100 -653q73 73 173.5 120.5t203.5 47.5q116 0 173.5 -58t57.5 -155q0 -39 -10 -111l-92 -594q-8 -49 -8 -69q0 -27 22 -27q16 0 36 16t34 32.5t35 45.5l43 -29 q-108 -204 -273 -204q-68 0 -91 32.5t-23 94.5l22 151q10 68 33 206.5t33 207.5l14 96q12 75 12 121q0 54 -35 82.5t-100 28.5q-73 0 -149.5 -30t-118.5 -69l-139 -905h-211z" />
<glyph unicode="i" horiz-adv-x="604" d="M111 928q112 207 278 207q109 0 109 -111q0 -32 -19 -147l-108 -656q-9 -45 -9 -74q0 -9 6 -15.5t15 -6.5q41 0 104 92l45 -27q-111 -206 -272 -206q-62 0 -90.5 29t-28.5 73q0 29 13 100l112 664q15 88 15 117q0 26 -21 26q-44 0 -106 -92zM324 1376q0 69 37 114.5 t100 45.5q50 0 78 -29.5t28 -76.5v-6q0 -62 -37 -105q-39 -45 -102 -45q-53 0 -78.5 28t-25.5 74z" />
<glyph unicode="j" horiz-adv-x="598" d="M-233 -266q0 51 31.5 91t88.5 40q44 0 72.5 -23.5t28.5 -62.5q0 -30 -11 -52.5t-24 -32.5t-24 -19.5t-11 -16.5q0 -14 16 -25.5t48 -11.5q120 0 145 172l156 1045q14 102 14 129q0 26 -18 26q-41 0 -107 -92l-45 27q114 207 274 207q58 0 87 -30q26 -28 26 -71v-6 q0 -38 -18 -156l-146 -903q-31 -191 -128.5 -296t-250.5 -105q-105 0 -154.5 50t-49.5 116zM342 1376v7q0 64 36 107q39 46 101 46q50 0 78.5 -29.5t28.5 -76.5v-6q0 -62 -38 -105q-39 -45 -102 -45q-52 0 -78 28.5t-26 73.5z" />
<glyph unicode="k" horiz-adv-x="1110" d="M117 0l116 768q14 88 28 188t31 220t27 190q15 86 15 111t-35 41l-63 30l6 39l323 43l6 -8q-38 -254 -139 -901q37 -4 111 -29q195 443 418 443q66 0 104.5 -28t38.5 -77q0 -54 -29.5 -85.5t-83.5 -31.5q-27 0 -46.5 15.5t-29 34t-23 34t-30.5 15.5q-91 0 -258 -342 q75 -30 147.5 -138.5t133.5 -291.5q3 -10 9 -27.5t9 -26t8.5 -22t9.5 -20t9.5 -14t12 -10.5t13.5 -3q51 0 60 125l55 -4v-17q0 -105 -53.5 -171t-130.5 -66q-48 0 -79 10t-52 39t-29.5 49t-25.5 73l-9 27q-10 29 -26.5 85.5t-27.5 91.5t-29 84t-35.5 80.5t-40 63t-50 48 t-59.5 20.5l-98 -655h-209z" />
<glyph unicode="l" horiz-adv-x="593" d="M129 111l6 49l184 1237q11 55 11 80q0 21 -33 39l-66 32l9 39l323 43q2 -2 2 -6q-12 -82 -24 -168q-29 -190 -93.5 -604t-97.5 -633q-8 -49 -8 -67q0 -27 23 -27q17 0 37 15.5t32 30.5t35 46l43 -29q-110 -204 -272 -204q-67 0 -89 32.5t-22 94.5z" />
<glyph unicode="m" horiz-adv-x="1851" d="M106 928q112 207 281 207q53 0 80 -30t27 -77q0 -24 -7 -59q72 70 173 118t196 48q109 0 169 -46.5t69 -132.5q78 78 183.5 129.5t209.5 51.5q116 0 172.5 -57.5t56.5 -155.5q0 -40 -6 -84l-12 -92q-14 -100 -43.5 -284t-38.5 -245q-10 -62 -10 -69q0 -27 22 -27 q13 0 26.5 7t28.5 24t23.5 28t26.5 35l45 -29q-112 -204 -273 -204q-68 0 -92 32.5t-24 94.5l20 139q10 71 68 438q2 10 7.5 40t9 51t6.5 53t3 61q0 54 -35 82.5t-100 28.5q-73 0 -150 -30.5t-120 -70.5l-137 -903h-211q16 96 106 682q2 15 10.5 56.5t13.5 79.5t5 75 q0 53 -35.5 82t-99.5 29q-74 0 -151 -30t-118 -69l-141 -905h-209l133 854q15 101 15 107v4q0 26 -21 26q-44 0 -106 -92z" />
<glyph unicode="n" horiz-adv-x="1230" d="M106 928q112 207 281 207q53 0 80 -30t27 -77q0 -24 -7 -59q74 73 175 120.5t204 47.5q116 0 173 -58t57 -155q0 -43 -17 -168l-65 -422l-27 -184q0 -27 23 -27t47.5 25t54.5 69l45 -29q-108 -204 -272 -204q-61 0 -89 28.5t-28 71.5q0 25 20 158l86 557q1 5 4 25.5 t5 39.5t2 29q0 53 -35.5 82t-99.5 29q-74 0 -151 -30t-118 -69l-141 -905h-209q13 82 58 363.5t67 435.5q23 141 23 162v4q0 26 -21 26q-44 0 -106 -92z" />
<glyph unicode="o" horiz-adv-x="1095" d="M102 432q0 141 38 268.5t106.5 224.5t172 154.5t226.5 57.5q93 0 165.5 -35.5t116.5 -98.5t66.5 -144t22.5 -177q0 -110 -23.5 -214t-70.5 -193t-111.5 -155.5t-152.5 -104.5t-189 -38q-180 0 -273.5 126t-93.5 329zM324 326q0 -122 41.5 -192.5t121.5 -70.5t142 66.5 t97 173.5t52 224.5t17 236.5q0 134 -39.5 210.5t-122.5 76.5q-82 0 -144 -64t-97 -171.5t-51.5 -230.5t-16.5 -259z" />
<glyph unicode="p" d="M-53 -410q4 32 8 48q29 6 43 10.5t36 15t34 28.5t16 44l41 262l135 866l12 101q0 26 -22 26q-43 0 -105 -92l-43 29q52 100 124.5 153.5t140.5 53.5q120 0 120 -111q0 -14 -6 -55q59 65 149 119.5t177 54.5q258 0 258 -342q0 -209 -77.5 -397.5t-212.5 -305t-292 -116.5 q-85 0 -149 22q-31 -184 -41 -258q-4 -16 -4 -25q0 -19 8 -33t18.5 -22t33.5 -14t38.5 -8t48.5 -6q-4 -32 -8 -48h-481zM356 141q21 -32 60.5 -53.5t83.5 -21.5q93 0 174 109t125.5 269t44.5 318q0 235 -148 235q-56 0 -116.5 -28.5t-106.5 -65.5z" />
<glyph unicode="q" horiz-adv-x="1081" d="M96 336q0 134 41 274t113 257.5t183 192.5t237 75q131 0 227 -62l113 47l12 -8l-225 -1356q-4 -20 -4 -39q1 -37 27.5 -56.5t80.5 -25.5l-6 -45h-475l8 45q69 10 110.5 34.5t49.5 74.5l67 403q-57 -77 -146 -124.5t-167 -47.5q-246 0 -246 361zM322 395q0 -274 149 -274 q94 0 195 94l120 760q-26 40 -71.5 65t-91.5 25q-66 0 -124 -65t-96 -165t-59.5 -216.5t-21.5 -223.5z" />
<glyph unicode="r" horiz-adv-x="888" d="M106 928q117 207 281 207q54 0 80.5 -28t26.5 -75q0 -17 -7 -65q166 170 297 170q72 0 107 -37.5t35 -93.5q0 -37 -12.5 -65t-32 -42t-37.5 -20.5t-33 -6.5q-80 0 -106 84q-17 29 -46 29q-31 0 -92.5 -30t-87.5 -58q-86 -545 -139 -897h-211q23 134 63 400t62 397l12 73 q2 11 7 51.5t6 43.5q0 26 -25 26q-40 0 -102 -92z" />
<glyph unicode="s" horiz-adv-x="884" d="M41 37l39 328q10 0 29.5 1t29.5 1q0 -78 11.5 -134t30 -88.5t48.5 -51.5t60.5 -24.5t72.5 -5.5q117 0 182.5 65t65.5 167q0 35 -13 63.5t-43 53t-52.5 39t-67.5 38.5q-29 21 -70 46t-66 40t-54 40t-44.5 50t-25.5 65q-9 36 -8 80v9q2 63 28.5 118.5t75 99.5t125.5 70 t172 26q68 0 150.5 -15.5t134.5 -38.5l-43 -272h-57q-3 122 -52.5 178.5t-150.5 56.5t-152 -51t-51 -119q0 -34 24.5 -64.5t52 -48.5t69.5 -41q3 -1 5.5 -2.5t4.5 -2.5q3 -2 33 -19t45 -26t47 -30.5t51 -39t44.5 -45t39.5 -54t24.5 -60.5t10.5 -70q0 -56 -14.5 -109 t-48 -104.5t-82.5 -90t-124.5 -62t-167.5 -23.5q-64 0 -132 11t-97 19t-90 27z" />
<glyph unicode="t" horiz-adv-x="661" d="M129 1012l8 49q62 18 114 47t85.5 56.5t64.5 66.5t46 64t34 61l49 2l-45 -275h232l-15 -84h-229l-106 -733q-11 -72 -11 -90q0 -20 7 -31t28 -12h2q65 0 168 103l35 -31q-52 -91 -137 -157t-183 -66q-65 0 -100 36.5t-35 94.5q0 31 15 143l108 743z" />
<glyph unicode="u" horiz-adv-x="1216" d="M98 926q113 207 279 207q57 0 82.5 -29t25.5 -74l-2 -32q-2 -32 -6 -52l-12 -74l-88 -555q-10 -50 -10 -96q0 -53 35.5 -81.5t99.5 -28.5q74 0 150.5 29.5t117.5 68.5q22 134 45.5 284.5t51.5 334.5t44 284h209l-135 -872q-12 -60 -12 -86v-4q3 -27 20 -27q45 0 107 92 q21 -15 45 -27q-109 -206 -281 -206q-53 0 -79.5 28.5t-26.5 75.5q0 29 6 59q-74 -72 -174.5 -118.5t-204.5 -46.5q-117 0 -173 56.5t-56 153.5q0 74 16 168q8 47 31 194.5t37 227.5l24 148q4 29 4 37q0 26 -20 26q-13 0 -26.5 -7t-28.5 -24t-23.5 -28t-26.5 -35z" />
<glyph unicode="v" horiz-adv-x="1052" d="M90 922q50 97 118.5 154t149.5 57q61 0 91 -31t30 -80q0 -3 -2 -26t-4 -38q-12 -87 -41.5 -258.5t-49.5 -297.5t-20 -171q0 -62 30 -93.5t104 -31.5q92 0 170.5 73.5t125.5 183.5t73.5 227.5t27.5 216.5q0 17 -21.5 37t-48 37.5t-48 48t-21.5 65.5q0 51 31 89t75 38 q135 0 135 -180q0 -129 -24 -262t-74.5 -259.5t-121 -225t-172 -158.5t-218.5 -60q-114 0 -172.5 55t-60.5 161v6q0 56 16 168q17 118 45 286.5t39 245.5q8 58 8 66q0 26 -20 26q-42 0 -107 -98z" />
<glyph unicode="w" horiz-adv-x="1677" d="M90 922q48 90 117 150.5t155 60.5q56 0 86.5 -28.5t30.5 -80.5q0 -20 -10 -88l-66 -422q-5 -32 -16 -104.5t-16.5 -113t-5.5 -60.5q0 -68 28.5 -99t104.5 -31q77 0 141 51t105.5 132t68.5 188q0 6 2 17.5t2 17.5l57 391q19 127 43.5 172t77.5 45q59 0 84 -29t25 -87 l-6 -41l-68 -435q-41 -280 -41 -305q2 -60 33.5 -88.5t97.5 -28.5q75 0 141.5 49t112 126t78.5 171.5t49 185.5t17 169q0 17 -22 37t-48 37.5t-48 48t-22 65.5q0 51 31.5 89t75.5 38q135 0 135 -182q0 -128 -24.5 -261t-75.5 -259t-121.5 -224.5t-171.5 -158.5t-217 -60 q-109 0 -165.5 58.5t-56.5 173.5q0 15 3 33q-69 -118 -178 -191.5t-236 -73.5q-103 0 -164 55.5t-61 162.5q0 22 2 49t8.5 71t10 69t14 90.5t14.5 88.5l41 260q18 110 18 142q0 26 -20 26q-46 0 -107 -98z" />
<glyph unicode="x" horiz-adv-x="1064" d="M-12 102q0 51 27.5 82t62.5 31q25 0 43 -11t25 -24t16 -24t18 -11q33 0 113 123l168 258l-185 406q-14 35 -38 35q-29 0 -63 -68l-16 -32l-3 -7l-54 19q95 249 234 249q22 0 40.5 -7.5t29 -15.5t24 -28.5t18 -29.5t17.5 -37l147 -320l211 332q31 50 73.5 76t84.5 26 q53 0 88 -26t35 -76q0 -48 -29 -86.5t-65 -38.5q-30 0 -51.5 14.5t-35.5 28.5t-26 14q-8 0 -20 -10t-28 -30.5t-26.5 -36t-29.5 -43.5l-148 -224l184 -401q1 -2 7.5 -14.5t12 -21.5t16.5 -17.5t24 -8.5q48 0 53 93q10 0 19 6q5 0 16.5 -1t17.5 -1q0 -119 -46.5 -189.5 t-125.5 -70.5q-64 0 -103 31t-77 116l-145 324l-189 -299q-51 -83 -98.5 -124.5t-104.5 -41.5h-14q-47 5 -75.5 33t-28.5 79z" />
<glyph unicode="y" horiz-adv-x="989" d="M-145 -264q0 58 36.5 102.5t98.5 44.5q39 0 70.5 -22.5t31.5 -71.5q0 -27 -14 -51t-28.5 -41.5t-14.5 -28.5q0 -30 51 -30q72 0 162 95.5t180 246.5q-39 175 -110.5 498t-98.5 446q-8 47 -35 47q-12 0 -24.5 -12t-19.5 -23.5t-23 -39.5q-1 -2 -2 -3.5t-2 -3.5 q-4 2 -20.5 10t-24.5 14q41 101 99 160.5t114 59.5q69 0 98 -45t55 -173l144 -694h4q66 113 148.5 309t82.5 279q0 21 -22 47.5t-44 61.5t-22 77q0 47 32 88t91 41q56 0 89.5 -38.5t33.5 -100.5q0 -142 -144.5 -448.5t-322.5 -587.5q-142 -223 -239.5 -305t-196.5 -82 q-102 0 -157.5 49.5t-55.5 124.5z" />
<glyph unicode="z" horiz-adv-x="970" d="M-8 37l713 987h-287q-54 0 -93 -15.5t-65.5 -50.5t-42.5 -70t-37 -97h-61l49 319h807l12 -37l-721 -989h226q144 0 212 60.5t109 222.5h64l-72 -367h-803z" />
<glyph unicode="{" horiz-adv-x="681" d="M80 602q0 49 29.5 71.5t62.5 22.5q20 0 54 -25.5t40 -25.5q15 0 25.5 12.5t17.5 40t10.5 48.5t9 61.5t7.5 56.5q5 30 12 80.5t11.5 85.5t14 84t20 83t27.5 76t38 70.5t52 58t68.5 46.5t87.5 28t109 11h25l-13 -68q-100 0 -158.5 -60.5t-72.5 -160.5q-8 -53 -15 -123.5 t-11.5 -117.5t-13 -102t-23 -90.5t-38 -69t-61 -53t-88.5 -26.5v-6q139 -29 139 -182q0 -84 -52 -298t-52 -300q0 -78 39.5 -125t128.5 -47l-10 -68q-54 0 -99 6.5t-91 25t-77.5 48.5t-51 81.5t-19.5 119.5q0 96 57 315t72 314q2 10 2 26q0 60 -41 60q-4 0 -43 -22.5 t-57 -22.5q-27 0 -49.5 13t-22.5 48z" />
<glyph unicode="|" horiz-adv-x="589" d="M133 -338l297 1864h98l-297 -1864h-98z" />
<glyph unicode="}" horiz-adv-x="681" d="M-59 -410l10 68q93 0 148.5 48t75.5 126.5t27.5 173.5t14.5 194t25 184t70.5 147t140.5 79v6q-70 9 -106 52t-36 110q0 27 40 207t40 268q0 77 -41 121.5t-125 44.5l13 68h24q156 0 233.5 -72.5t77.5 -195.5q0 -78 -50 -290.5t-50 -234.5q0 -49 29 -49q6 0 48 25.5 t62 25.5q26 0 48 -15t22 -48q0 -28 -11.5 -48t-29.5 -28.5t-31.5 -12t-25.5 -3.5q-18 0 -49 22.5t-35 22.5q-31 0 -51.5 -50t-30.5 -130.5t-15 -161t-9 -162.5t-9 -113q-15 -93 -49 -162.5t-76.5 -110t-99 -65.5t-108 -33t-111.5 -8z" />
<glyph unicode="~" horiz-adv-x="1228" d="M133 645q73 219 256 219q62 0 132.5 -20t123 -43.5t116 -43.5t113.5 -20q103 0 134 131l112 -45q-31 -116 -98.5 -169.5t-144.5 -53.5q-58 0 -125 20.5t-118.5 45t-120 45t-128.5 20.5q-38 0 -75.5 -30.5t-59.5 -102.5z" />
<glyph unicode="&#xa1;" horiz-adv-x="647" d="M96 -254q0 36 15 94l225 875h61l-30 -887q-6 -197 -150 -197q-52 0 -86.5 28.5t-34.5 86.5zM285 985q0 63 44.5 107.5t106.5 44.5q51 0 81 -30t30 -77q0 -64 -45.5 -111t-104.5 -47q-51 0 -81.5 31.5t-30.5 81.5z" />
<glyph unicode="&#xa2;" horiz-adv-x="921" d="M96 381q0 110 24.5 219t73 205t115 170t157.5 117t193 43q30 0 58 -7l47 136q18 -4 70 -21q-43 -115 -48 -131q56 -24 85.5 -68t29.5 -94q0 -68 -37 -110.5t-94 -42.5q-56 0 -82 26l-239 -690q33 -10 71 -10q85 0 159.5 51.5t129.5 126.5l43 -31q-48 -125 -164.5 -210 t-249.5 -85q-29 0 -43 2q-7 -20 -29 -84t-32 -98l-70 19l60 174q-228 58 -228 393zM313 442q0 -194 72 -266l303 871q-19 8 -55 8q-96 0 -171 -91t-112 -229t-37 -293z" />
<glyph unicode="&#xa3;" horiz-adv-x="1204" d="M39 82q0 58 37 91.5t98 33.5q69 0 154 -49q47 59 78.5 147.5t31.5 190.5q0 29 -3.5 67t-7 63.5t-10 64.5t-7.5 48h-217l22 76h182q-28 133 -28 238q0 128 58.5 233t170 167.5t256.5 62.5q154 0 244 -63.5t90 -156.5q0 -70 -37 -110.5t-96 -40.5q-47 0 -75 25.5t-28 68.5 q0 33 14.5 58t29 41.5t14.5 29.5q0 16 -12.5 32t-52 30t-99.5 14q-72 0 -126 -28t-84 -75.5t-44 -103.5t-14 -119q0 -74 45 -303h381l-23 -76h-350q18 -94 18 -178q0 -53 -13.5 -108t-40.5 -110.5t-75.5 -104t-111.5 -80.5v-4q40 1 113 1t132.5 1t112.5 4l94 4q109 5 163 45 t54 127q0 27 -2 41l64 6q8 -21 8 -53q0 -74 -17.5 -134t-54.5 -109t-104 -76t-158 -27q-137 0 -256 19t-227 77q-82 -98 -176 -98q-56 0 -85.5 30t-29.5 70z" />
<glyph unicode="&#xa4;" horiz-adv-x="1300" d="M31 565q8 55 14 86h182q4 66 31 209h-180q8 55 14 86h187q37 120 95.5 218t142.5 175.5t201 120.5t257 43q96 0 167 -20.5t107.5 -54t53 -67.5t16.5 -69q0 -70 -45 -117t-109 -47q-49 0 -71.5 27.5t-22.5 65.5q0 33 16.5 60.5t33 46t16.5 30.5q0 28 -52.5 44.5 t-121.5 16.5q-186 0 -294 -124t-159 -349h481l-14 -86h-485q-27 -162 -31 -209h483l-14 -86h-475q-2 -27 -2 -73q0 -431 311 -431q77 0 138 20.5t63 43.5q0 8 -17.5 38t-17.5 58q0 16 15 51q37 85 120 86q51 0 78.5 -29.5t27.5 -78.5q0 -22 -10.5 -52.5t-40.5 -69.5 t-75.5 -71t-124 -54.5t-177.5 -22.5q-253 0 -386.5 153t-133.5 432h-192z" />
<glyph unicode="&#xa5;" horiz-adv-x="1234" d="M174 1440l6 47h518l-6 -47q-88 -7 -120.5 -27t-32.5 -59q4 -30 18 -64l209 -516l321 481q58 83 58 121q0 54 -127 64l6 47h391l-6 -47q-83 -9 -154 -109l-428 -608h303l-14 -94h-328l-71 -436q-4 -28 -4 -48q0 -51 33.5 -70.5t121.5 -27.5l-8 -47h-579l6 47 q95 11 139 38.5t55 98.5l70 445h-373l15 94h348l-254 631q-29 73 -113 86z" />
<glyph unicode="&#xa6;" horiz-adv-x="589" d="M168 -211l123 784h98l-123 -784h-98zM324 782l125 787h98l-125 -787h-98z" />
<glyph unicode="&#xa7;" horiz-adv-x="1105" d="M104 -270q0 55 39.5 100t108.5 45q37 0 61 -18.5t34 -44.5t18 -52t22 -44.5t37 -18.5q42 0 103.5 33.5t121.5 103.5q-214 158 -326 386t-112 470q0 152 40.5 284.5t109.5 228.5t159 165t190 103t201 34q90 0 142.5 -37.5t52.5 -95.5q0 -56 -39.5 -100.5t-108.5 -44.5 q-37 0 -61 18.5t-34 44.5t-18 52t-22 44.5t-37 18.5q-89 0 -241 -131q428 -376 428 -840q0 -182 -55.5 -340.5t-148.5 -266t-215.5 -169t-254.5 -61.5q-90 0 -142.5 37.5t-52.5 95.5zM322 721q0 -235 106 -454t293 -357q69 90 107 243.5t38 260.5q0 214 -98.5 420.5 t-290.5 361.5q-155 -164 -155 -475z" />
<glyph unicode="&#xa8;" horiz-adv-x="841" d="M248 1380q0 66 42 114t111 48q55 0 83 -28t28 -74q0 -65 -43.5 -111.5t-110.5 -46.5q-56 0 -83 26.5t-27 71.5zM655 1380q0 66 42.5 114t111.5 48q56 0 83.5 -27.5t27.5 -74.5q0 -64 -43.5 -111t-108.5 -47q-113 0 -113 98z" />
<glyph unicode="&#xa9;" horiz-adv-x="1734" d="M137 530q0 192 53 357.5t143 282t209 199.5t251 123t268 40q187 0 332 -72.5t230 -218t85 -344.5q0 -162 -44 -311.5t-126 -269.5t-193 -209.5t-251.5 -138t-294.5 -48.5q-325 0 -493.5 163t-168.5 447zM240 555q0 -253 149.5 -402t423.5 -149q172 0 321.5 70 t252.5 189.5t162 281.5t59 342q0 141 -44 249.5t-123 176t-183.5 101.5t-229.5 34q-151 0 -293 -65t-252 -179t-176.5 -284t-66.5 -365zM436 580q0 162 51 297t137 222t197.5 135t233.5 48q147 0 280 -33l-43 -256h-45q-6 122 -56 170.5t-153 48.5q-112 0 -201 -93 t-134.5 -235t-45.5 -300q0 -324 252 -324q99 0 167 59t108 189h45l-60 -307q-6 2 -22 2q-17 0 -103.5 -9.5t-140.5 -9.5q-108 -1 -190 18t-146 63.5t-97.5 123.5t-33.5 191z" />
<glyph unicode="&#xaa;" horiz-adv-x="849" d="M188 602l17 92h502l-15 -92h-504zM211 1018q0 212 107 351.5t268 139.5q75 0 119 -22l77 26l29 -6l-88 -520q-1 -10 -4.5 -27.5t-5.5 -30t-2 -18.5q0 -16 12 -16q13 0 35.5 19.5t36.5 41.5l39 -26q-40 -66 -94.5 -102.5t-98.5 -36.5q-42 0 -61 16.5t-19 50.5q0 9 4 45 q-83 -117 -194 -117q-81 0 -120.5 63t-39.5 169zM362 1047q0 -74 21 -117t59 -43q56 0 127 65l78 439q-34 63 -96 63q-57 0 -101 -62t-66 -153.5t-22 -191.5z" />
<glyph unicode="&#xab;" horiz-adv-x="942" d="M104 567l17 95l383 286l43 -41l-238 -286l148 -312l-56 -33zM504 567l14 95l383 286l45 -41l-239 -286l149 -312l-55 -33z" />
<glyph unicode="&#xac;" d="M100 627l17 118h936l-76 -489h-123l57 371h-811z" />
<glyph unicode="&#xad;" horiz-adv-x="608" d="M82 586l22 125h478l-23 -125h-477z" />
<glyph unicode="&#xae;" horiz-adv-x="1734" d="M137 530q0 192 53 357.5t143 282t209 199.5t251 123t268 40q187 0 332 -72.5t230 -218t85 -344.5q0 -162 -44 -311.5t-126 -269.5t-193 -209.5t-251.5 -138t-294.5 -48.5q-325 0 -493.5 163t-168.5 447zM240 555q0 -253 149.5 -402t423.5 -149q289 0 500 186h-244 l-16 414q-3 65 -30 87t-81 24l-113 2l-61 -379q-2 -8 -2 -25q0 -36 26.5 -52.5t86.5 -22.5l-9 -48h-444l8 48q67 9 99 27t40 69l123 774q0 4 1 13t1 12q0 39 -25.5 54.5t-84.5 20.5l6 49h453q154 0 236.5 -55.5t82.5 -159.5q0 -114 -83 -197t-214 -95v-7q73 -11 121.5 -59.5 t54.5 -120.5l23 -241q4 -45 27 -61t69 -23q114 123 179 293t65 356q0 141 -44 249.5t-123 176t-183.5 101.5t-229.5 34q-151 0 -293 -65t-252 -179t-176.5 -284t-66.5 -365zM840 786h86q35 0 67.5 5.5t67.5 22t60.5 42.5t42 70t16.5 102q0 73 -43.5 112.5t-122.5 39.5h-113z " />
<glyph unicode="&#xaf;" horiz-adv-x="851" d="M248 1278l20 141h641l-20 -141h-641z" />
<glyph unicode="&#xb0;" horiz-adv-x="593" d="M207 1257q0 117 77 198t189 81q99 0 149 -47.5t50 -130.5q0 -115 -77 -196t-194 -81q-90 0 -142 48.5t-52 127.5zM307 1270q0 -52 28.5 -81.5t78.5 -29.5q66 0 112.5 45.5t46.5 136.5q0 56 -28 87.5t-84 31.5q-65 0 -109.5 -54t-44.5 -136z" />
<glyph unicode="&#xb1;" d="M45 0l16 113h938l-18 -113h-936zM156 717l18 112h410l67 435h117l-68 -435h412l-20 -112h-410l-70 -441h-116l69 441h-409z" />
<glyph unicode="&#xb2;" horiz-adv-x="677" d="M119 696l8 47q231 249 296 331q108 137 114 226v3q3 106 -111 106q-81 0 -176 -90l-37 24q48 74 134 125.5t177 51.5q90 0 144.5 -49.5t50.5 -133.5q-2 -53 -34 -108.5t-85 -108.5t-106 -98t-116.5 -97t-96.5 -85l-2 -4l305 4q6 0 12 2t10 3.5t8.5 7t6.5 8t6 10t5 10 t4.5 11.5t4.5 11h39l-57 -207h-504z" />
<glyph unicode="&#xb3;" horiz-adv-x="720" d="M164 801q0 47 30.5 82t73.5 35q34 0 53 -17.5t19 -40.5q0 -27 -12 -45.5t-23.5 -28t-11.5 -14.5q0 -31 86 -31q92 0 144.5 49t54.5 128q1 81 -61 124t-152 43l-5 35q11 6 39 22t43 25t40 25t38.5 29t28.5 30.5t22 36.5t7 39q0 90 -107 90q-81 0 -180 -86l-27 23 q46 72 124 118t167 46q84 0 131 -36.5t47 -99.5q0 -70 -56 -121.5t-153 -80.5q95 -12 153 -63.5t58 -131.5q0 -73 -35 -133.5t-90.5 -97.5t-120.5 -56.5t-129 -19.5q-86 0 -141 33t-55 90z" />
<glyph unicode="&#xb4;" horiz-adv-x="571" d="M217 1311l330 346l129 -170l-422 -219z" />
<glyph unicode="&#xb5;" horiz-adv-x="1849" d="M74 688q0 183 67.5 350t181 287.5t271 192t330.5 71.5q174 0 331.5 -71.5t271.5 -192t181.5 -287.5t67.5 -350t-67.5 -350t-181.5 -287.5t-271.5 -192t-331.5 -71.5q-173 0 -330.5 71.5t-271 192t-181 287.5t-67.5 350zM160 688q0 -165 60.5 -315.5t163 -259 t243.5 -172.5t297 -64q209 0 385 108.5t278.5 295t102.5 407.5t-102.5 407.5t-278.5 295t-385 108.5q-156 0 -297 -64t-243.5 -172.5t-163 -259t-60.5 -315.5zM442 504q0 37 25.5 61.5t62.5 32.5q41 9 81.5 21t68 22t75 27.5t81.5 29.5v15q-46 12 -105 26t-91 21.5t-70 18.5 t-57 21t-37.5 25.5t-25 36t-6.5 47.5q0 42 29.5 77.5t73.5 35.5q45 0 88.5 -25.5t74 -59.5t78 -81.5t89.5 -77.5q1 -2 1.5 -1.5t2.5 2t4 1.5q-6 88 -41 189t-35 147q0 49 34.5 83t84.5 34q49 0 79.5 -33.5t30.5 -83.5q0 -45 -32.5 -148.5t-40.5 -187.5l8 -6q37 24 85.5 70.5 t84 83.5t79 65.5t78.5 28.5q47 0 76 -35t29 -78q0 -38 -13.5 -59t-48 -34.5t-74.5 -22t-114 -30t-145 -50.5v-15q25 -20 134 -53.5t173 -46.5q39 -8 63.5 -33.5t24.5 -66.5v-25q-12 -41 -38 -62.5t-60 -21.5q-43 0 -94 39t-119.5 105t-118.5 100q-1 0 -4.5 -2t-5.5 -2 q8 -91 40.5 -194.5t32.5 -149.5q0 -48 -30.5 -81.5t-79.5 -33.5t-84 34t-35 81q0 40 15.5 89t34 115t22.5 140q-5 0 -9 4q-22 -19 -98.5 -95.5t-128.5 -112.5t-100 -36q-41 0 -72 32t-31 83z" />
<glyph unicode="&#xb6;" horiz-adv-x="1271" d="M184 860q0 144 60.5 265t160 199t224 120.5t256.5 42.5h461l-15 -82h-133q-38 0 -59.5 -28.5t-30.5 -90.5l-190 -1208q-13 -80 -35.5 -148.5t-61.5 -131t-91 -106t-126.5 -69.5t-165.5 -26q-90 0 -142 37.5t-52 97.5q0 54 40.5 98.5t108.5 44.5q37 0 61 -18.5t34 -44.5 t18 -52t22 -44.5t37 -18.5q45 0 83 27t63.5 67t46.5 94.5t32 101t19 95.5l63 403h-167q-521 0 -521 375z" />
<glyph unicode="&#xb7;" horiz-adv-x="512" d="M154 682q0 65 45 111.5t106 46.5q49 0 81 -32t32 -81q0 -62 -46 -107t-108 -45q-51 0 -80.5 30t-29.5 77z" />
<glyph unicode="&#xb8;" horiz-adv-x="655" d="M25 -379q0 38 27.5 65t58.5 27q59 0 59 -47q0 -13 -6.5 -25t-14 -21t-8.5 -11q0 -6 7 -11.5t24 -10.5t41 -5q72 0 113 28.5t41 84.5q0 44 -62.5 61t-165.5 21l-8 14l145 275h70l-86 -164q107 -2 174.5 -35t67.5 -107q0 -99 -87 -169t-216 -70q-82 0 -128 28t-46 72z" />
<glyph unicode="&#xb9;" horiz-adv-x="630" d="M188 705q6 25 9 47q62 5 93 18.5t36 50.5q25 154 94 604l-119 9l8 45q195 15 287 43h10l-110 -705v-6q0 -30 25 -42t81 -17l-6 -47h-408z" />
<glyph unicode="&#xba;" horiz-adv-x="831" d="M172 602l16 92h510l-16 -92h-510zM207 1071q0 120 43.5 221.5t128.5 164.5t196 63q122 0 185 -79t63 -202q0 -116 -43.5 -217t-130 -166t-198.5 -65q-120 0 -182 77.5t-62 202.5zM362 1030q0 -76 25.5 -124t79.5 -48q52 0 92 39t61.5 102.5t31.5 133.5t10 143 q0 178 -99 178q-52 0 -93 -42t-63.5 -108t-33.5 -136t-11 -138z" />
<glyph unicode="&#xbb;" horiz-adv-x="944" d="M33 317q45 53 126.5 152.5t110.5 134.5l-147 309l53 33q44 -43 94 -91.5t110 -108t93 -91.5q-8 -65 -14 -94q-74 -54 -207 -154.5t-176 -132.5zM430 317q38 45 118 141t122 146q-76 153 -150 309l55 33l297 -291l-16 -94q-63 -47 -381 -287z" />
<glyph unicode="&#xbc;" horiz-adv-x="1531" d="M203 705l10 47q29 3 46 6t37 10t30.5 20t13.5 33q17 104 47.5 305t46.5 299l-117 9l7 45q196 15 284 43h13l-111 -697q0 -1 -1 -4t-1 -4q0 -34 25 -47t85 -18l-8 -47h-407zM254 12l1036 1506l74 -41l-1030 -1502zM782 221q6 41 15 86l417 500v10h158l-74 -481h60 q23 0 35.5 9.5t21.5 31.5h37l-39 -156h-135l-16 -104v-29q0 -23 12 -32.5t45 -14.5l-6 -41h-293l6 41q38 7 54 20t22 50l18 110h-338zM903 336h236l53 344h-4q-183 -219 -285 -344z" />
<glyph unicode="&#xbd;" horiz-adv-x="1531" d="M211 705l10 47q60 5 91 18.5t36 50.5q25 154 94 604l-116 9l6 45q193 15 286 43h11l-111 -705v-6q0 -30 25.5 -42t83.5 -17l-9 -47h-407zM262 12l1036 1506l76 -41l-1032 -1502zM850 0l6 45q235 251 323 366t91 201q1 56 -28 82.5t-85 26.5q-81 0 -176 -90l-35 24 q47 73 132.5 123.5t176.5 50.5q87 0 141 -46t54 -124q0 -53 -30.5 -110.5t-84 -113.5t-106.5 -102.5t-119 -102.5t-100 -89v-2l303 4q9 0 16.5 3t12 6t9.5 12t6.5 11.5t6.5 15.5t6 14h41q-15 -51 -57 -205h-504z" />
<glyph unicode="&#xbe;" horiz-adv-x="1531" d="M180 803q0 46 31.5 80.5t75.5 34.5q36 0 53.5 -19t17.5 -45q0 -19 -7.5 -34t-17 -22.5t-17.5 -14.5t-9 -11q0 -31 90 -31q93 0 145 50.5t52 134.5q0 69 -52.5 110.5t-127.5 46.5q-6 1 -14.5 2t-10.5 1.5t-5.5 4.5t-4 10t-0.5 19q12 7 44 25.5t50 29.5t44.5 30.5t40.5 36 t25 39t11 46.5q0 90 -105 90q-83 0 -182 -86q-8 5 -26 23q48 73 124.5 118.5t165.5 45.5q86 0 132.5 -36.5t46.5 -101.5q0 -69 -56.5 -121t-152.5 -79q96 -12 153.5 -64.5t57.5 -134.5q0 -72 -35 -131.5t-90.5 -96t-120 -56t-127.5 -19.5q-87 0 -143 33.5t-56 91.5zM289 12 l1034 1506l74 -41l-1030 -1502zM795 221q6 31 14 86q49 59 193.5 232t222.5 268q0 2 1 5t1 5h157q-12 -72 -24.5 -152.5t-27 -177t-23.5 -151.5h61q44 0 55 41h39q-7 -26 -19.5 -78t-19.5 -78h-135q-1 -14 -9.5 -57t-8.5 -64q0 -31 11 -43t46 -16l-6 -41h-291l6 41 q38 7 54 20t22 50l19 110h-338zM913 336h238l53 344q-102 -118 -291 -344z" />
<glyph unicode="&#xbf;" horiz-adv-x="968" d="M45 -90q0 61 14.5 114.5t45 98.5t63.5 81t85 72.5t93.5 62t104.5 60.5q52 29 73.5 53.5t28.5 67.5l29 176h80l-50 -299q-14 -84 -33.5 -117.5t-76.5 -68.5q-15 -9 -55.5 -32t-64.5 -37.5t-59 -43t-54.5 -55.5t-34.5 -67t-15 -85q0 -81 54 -129.5t167 -48.5q72 0 131 31.5 t60 71.5q0 9 -16 25t-32 39.5t-16 49.5q0 55 33.5 86t79.5 31q49 0 77.5 -31.5t28.5 -87.5q0 -26 -12 -61t-42.5 -77t-74.5 -77t-116.5 -58.5t-159.5 -23.5q-166 0 -251 81t-85 198zM535 981q0 64 45.5 109t107.5 45q52 0 81.5 -29.5t29.5 -77.5q0 -64 -46.5 -111 t-105.5 -47q-50 0 -81 31.5t-31 79.5z" />
<glyph unicode="&#xc0;" horiz-adv-x="1347" d="M-57 0l8 47q112 15 158 115l606 1284l-2 41h217l250 -1344q16 -82 112 -96l-6 -47h-514l6 47q89 14 124.5 35t35.5 63q0 8 -1 19t-1 14l-70 385h-460l-140 -313q-43 -108 -43 -131q0 -27 29 -44.5t113 -27.5l-7 -47h-415zM414 1864l129 170l329 -346l-36 -43zM446 655 h404l-115 629h-8z" />
<glyph unicode="&#xc1;" horiz-adv-x="1347" d="M-57 0l8 47q112 15 158 115l606 1284l-2 41h217l250 -1344q16 -82 112 -96l-6 -47h-514l6 47q89 14 124.5 35t35.5 63q0 8 -1 19t-1 14l-70 385h-460l-140 -313q-43 -108 -43 -131q0 -27 29 -44.5t113 -27.5l-7 -47h-415zM446 655h404l-115 629h-8zM729 1688l330 346 l129 -170l-422 -219z" />
<glyph unicode="&#xc2;" horiz-adv-x="1347" d="M-57 0l8 47q112 15 158 115l606 1284l-2 41h217l250 -1344q16 -82 112 -96l-6 -47h-514l6 47q89 14 124.5 35t35.5 63q0 8 -1 19t-1 14l-70 385h-460l-140 -313q-43 -108 -43 -131q0 -27 29 -44.5t113 -27.5l-7 -47h-415zM446 655h404l-115 629h-8zM543 1679l293 316h118 l209 -324l-55 -43l-223 205l-301 -195z" />
<glyph unicode="&#xc3;" horiz-adv-x="1347" d="M-57 0l8 47q112 15 158 115l606 1284l-2 41h217l250 -1344q16 -82 112 -96l-6 -47h-514l6 47q89 14 124.5 35t35.5 63q0 8 -1 19t-1 14l-70 385h-460l-140 -313q-43 -108 -43 -131q0 -27 29 -44.5t113 -27.5l-7 -47h-415zM428 1667q43 102 112.5 164.5t159.5 62.5 q71 0 179 -36.5t147 -36.5q104 0 158 100l45 -12q-92 -242 -271 -242q-73 0 -177 38t-142 38q-57 0 -97 -20.5t-69 -71.5zM446 655h404l-115 629h-8z" />
<glyph unicode="&#xc4;" horiz-adv-x="1347" d="M-57 0l8 47q112 15 158 115l606 1284l-2 41h217l250 -1344q16 -82 112 -96l-6 -47h-514l6 47q89 14 124.5 35t35.5 63q0 8 -1 19t-1 14l-70 385h-460l-140 -313q-43 -108 -43 -131q0 -27 29 -44.5t113 -27.5l-7 -47h-415zM446 655h404l-115 629h-8zM483 1724 q0 66 42.5 114t111.5 48q55 0 83 -28t28 -74q0 -65 -43.5 -111.5t-110.5 -46.5q-56 0 -83.5 26.5t-27.5 71.5zM891 1724q0 66 42 114t111 48q56 0 83.5 -27.5t27.5 -74.5q0 -64 -43 -111t-108 -47q-113 0 -113 98z" />
<glyph unicode="&#xc5;" horiz-adv-x="1347" d="M-57 0l8 47q112 15 158 115l606 1284l-2 41h217l250 -1344q16 -82 112 -96l-6 -47h-514l6 47q89 14 124.5 35t35.5 63q0 8 -1 19t-1 14l-70 385h-460l-140 -313q-43 -108 -43 -131q0 -27 29 -44.5t113 -27.5l-7 -47h-415zM446 655h404l-115 629h-8zM641 1769 q0 84 71.5 154t180.5 70q89 0 136.5 -42.5t47.5 -109.5q0 -101 -71.5 -164t-182.5 -63q-89 0 -135.5 45t-46.5 110zM743 1774q0 -40 25 -63t72 -23q63 0 101 37.5t38 105.5q0 90 -105 90q-61 0 -96 -38.5t-35 -108.5z" />
<glyph unicode="&#xc6;" horiz-adv-x="1949" d="M-61 0l6 47q126 28 196 135l805 1237q-37 7 -168 21l8 47h848q258 0 332 4l6 -4l-61 -377h-49q0 47 -2.5 80t-10.5 69t-24.5 59t-42 43t-65.5 29t-93 9h-330q-15 -93 -88 -563h277q41 0 74 6.5t55.5 14.5t40.5 26.5t28 32.5t19.5 42.5t13.5 45.5t12 53h58l-86 -541h-56 q5 67 5 76q0 75 -38 118.5t-139 43.5h-276l-96 -602q-4 -12 -4 -31q0 -31 43 -31h290q74 0 133 19.5t97.5 48t71.5 76t51.5 88.5t40.5 100h57l-104 -422h-1110l6 47q100 12 141.5 35.5t52.5 93.5l68 418h-420l-217 -344q-3 -7 -17.5 -33t-26 -52.5t-11.5 -43.5 q0 -26 35 -44.5t128 -29.5l-6 -47h-458zM565 678h379l103 645q0 2 1 6.5t1 7.5q0 18 -9.5 34t-23.5 22q-258 -413 -451 -715z" />
<glyph unicode="&#xc7;" horiz-adv-x="1271" d="M111 567q0 215 61.5 392.5t170.5 297t259 185t326 65.5q205 0 389 -47l-55 -350h-58q-4 181 -71 247t-232 66q-127 0 -232 -72t-172.5 -193t-104 -275t-36.5 -322q0 -103 19 -188t61 -155t117 -109t178 -39q133 0 228.5 82.5t154.5 269.5h60l-97 -414q-10 2 -35 2 q-31 0 -138.5 -15t-170.5 -15h-35l-41 -78q107 -2 174.5 -35t67.5 -107q0 -99 -87 -169t-216 -70q-82 0 -128 28t-46 72q0 38 27.5 65t58.5 27q59 0 59 -47q0 -13 -6.5 -25t-13.5 -21t-8 -11q0 -6 6.5 -11.5t23.5 -10.5t41 -5q72 0 113 28.5t41 84.5q0 44 -62 61t-165 21 l-9 14l103 195q-115 11 -207.5 49.5t-164 107.5t-110 176.5t-38.5 247.5z" />
<glyph unicode="&#xc8;" horiz-adv-x="1280" d="M-2 0l4 47q39 5 63 9.5t49.5 13t39.5 22t25 34t16 50.5l178 1124q4 28 4 37q0 51 -35 72t-121 29l8 49h734q259 0 333 4l7 -4l-62 -377h-49q0 47 -2.5 80t-10.5 69t-24.5 59t-42 43t-65.5 29t-93 9h-329l-90 -563h278q48 0 84 7t60.5 23t40 32t27 46t17 51.5t13.5 61.5 h57l-86 -541h-53q2 20 2 62q0 33 -3 56t-13.5 47t-29 39t-51.5 24.5t-79 9.5h-277l-96 -602q0 -3 -1 -15t-1 -16q0 -31 41 -31h293q62 0 113 12.5t89 37t66.5 52.5t52 69.5t38.5 76.5t32 84h57l-102 -422h-1106zM494 1864l129 170l329 -346l-37 -43z" />
<glyph unicode="&#xc9;" horiz-adv-x="1280" d="M-2 0l4 47q39 5 63 9.5t49.5 13t39.5 22t25 34t16 50.5l178 1124q4 28 4 37q0 51 -35 72t-121 29l8 49h734q259 0 333 4l7 -4l-62 -377h-49q0 47 -2.5 80t-10.5 69t-24.5 59t-42 43t-65.5 29t-93 9h-329l-90 -563h278q48 0 84 7t60.5 23t40 32t27 46t17 51.5t13.5 61.5 h57l-86 -541h-53q2 20 2 62q0 33 -3 56t-13.5 47t-29 39t-51.5 24.5t-79 9.5h-277l-96 -602q0 -3 -1 -15t-1 -16q0 -31 41 -31h293q62 0 113 12.5t89 37t66.5 52.5t52 69.5t38.5 76.5t32 84h57l-102 -422h-1106zM774 1688l330 346l129 -170l-422 -219z" />
<glyph unicode="&#xca;" horiz-adv-x="1280" d="M-2 0l4 47q39 5 63 9.5t49.5 13t39.5 22t25 34t16 50.5l178 1124q4 28 4 37q0 51 -35 72t-121 29l8 49h734q259 0 333 4l7 -4l-62 -377h-49q0 47 -2.5 80t-10.5 69t-24.5 59t-42 43t-65.5 29t-93 9h-329l-90 -563h278q48 0 84 7t60.5 23t40 32t27 46t17 51.5t13.5 61.5 h57l-86 -541h-53q2 20 2 62q0 33 -3 56t-13.5 47t-29 39t-51.5 24.5t-79 9.5h-277l-96 -602q0 -3 -1 -15t-1 -16q0 -31 41 -31h293q62 0 113 12.5t89 37t66.5 52.5t52 69.5t38.5 76.5t32 84h57l-102 -422h-1106zM543 1679l293 316h118l209 -324l-55 -43l-223 205l-301 -195z " />
<glyph unicode="&#xcb;" horiz-adv-x="1280" d="M-2 0l4 47q39 5 63 9.5t49.5 13t39.5 22t25 34t16 50.5l178 1124q4 28 4 37q0 51 -35 72t-121 29l8 49h734q259 0 333 4l7 -4l-62 -377h-49q0 47 -2.5 80t-10.5 69t-24.5 59t-42 43t-65.5 29t-93 9h-329l-90 -563h278q48 0 84 7t60.5 23t40 32t27 46t17 51.5t13.5 61.5 h57l-86 -541h-53q2 20 2 62q0 33 -3 56t-13.5 47t-29 39t-51.5 24.5t-79 9.5h-277l-96 -602q0 -3 -1 -15t-1 -16q0 -31 41 -31h293q62 0 113 12.5t89 37t66.5 52.5t52 69.5t38.5 76.5t32 84h57l-102 -422h-1106zM532 1757q0 66 42.5 114t111.5 48q55 0 83 -28t28 -74 q0 -65 -43.5 -111.5t-110.5 -46.5q-56 0 -83.5 26.5t-27.5 71.5zM940 1757q0 66 42.5 114t111.5 48q56 0 83 -27.5t27 -74.5q0 -64 -43 -111t-108 -47q-113 0 -113 98z" />
<glyph unicode="&#xcc;" horiz-adv-x="694" d="M0 0q0 6 1 14t2.5 18t2.5 15q95 12 137.5 36t53.5 93l178 1124q0 5 1 18.5t1 18.5q0 51 -33.5 71.5t-122.5 29.5l8 49h582l-8 -49q-39 -5 -63 -9.5t-49.5 -13t-39.5 -22t-25 -34t-16 -50.5l-174 -1110q-6 -23 -6 -58q0 -50 33 -69t121 -25l-9 -47h-575zM137 1864l129 170 l330 -346l-37 -43z" />
<glyph unicode="&#xcd;" horiz-adv-x="694" d="M0 0q0 6 1 14t2.5 18t2.5 15q95 12 137.5 36t53.5 93l178 1124q0 5 1 18.5t1 18.5q0 51 -33.5 71.5t-122.5 29.5l8 49h582l-8 -49q-39 -5 -63 -9.5t-49.5 -13t-39.5 -22t-25 -34t-16 -50.5l-174 -1110q-6 -23 -6 -58q0 -50 33 -69t121 -25l-9 -47h-575zM416 1688l329 346 l129 -170l-421 -219z" />
<glyph unicode="&#xce;" horiz-adv-x="694" d="M0 0q0 6 1 14t2.5 18t2.5 15q95 12 137.5 36t53.5 93l178 1124q0 5 1 18.5t1 18.5q0 51 -33.5 71.5t-122.5 29.5l8 49h582l-8 -49q-39 -5 -63 -9.5t-49.5 -13t-39.5 -22t-25 -34t-16 -50.5l-174 -1110q-6 -23 -6 -58q0 -50 33 -69t121 -25l-9 -47h-575zM252 1679l293 316 h119l208 -324l-55 -43l-223 205l-301 -195z" />
<glyph unicode="&#xcf;" horiz-adv-x="694" d="M0 0q0 6 1 14t2.5 18t2.5 15q95 12 137.5 36t53.5 93l178 1124q0 5 1 18.5t1 18.5q0 51 -33.5 71.5t-122.5 29.5l8 49h582l-8 -49q-39 -5 -63 -9.5t-49.5 -13t-39.5 -22t-25 -34t-16 -50.5l-174 -1110q-6 -23 -6 -58q0 -50 33 -69t121 -25l-9 -47h-575zM227 1757 q0 66 42.5 114t111.5 48q55 0 83 -28t28 -74q0 -65 -43.5 -111.5t-110.5 -46.5q-56 0 -83.5 26.5t-27.5 71.5zM635 1757q0 66 42 114t111 48q56 0 83.5 -27.5t27.5 -74.5q0 -64 -43 -111t-108 -47q-113 0 -113 98z" />
<glyph unicode="&#xd0;" horiz-adv-x="1849" d="M74 688q0 183 67.5 350t181 287.5t271 192t330.5 71.5q174 0 331.5 -71.5t271.5 -192t181.5 -287.5t67.5 -350t-67.5 -350t-181.5 -287.5t-271.5 -192t-331.5 -71.5q-173 0 -330.5 71.5t-271 192t-181 287.5t-67.5 350zM160 688q0 -165 60.5 -315.5t163 -259 t243.5 -172.5t297 -64q209 0 385 108.5t278.5 295t102.5 407.5t-102.5 407.5t-278.5 295t-385 108.5q-156 0 -297 -64t-243.5 -172.5t-163 -259t-60.5 -315.5zM442 504q0 37 25.5 61.5t62.5 32.5q41 9 81.5 21t68 22t75 27.5t81.5 29.5v15q-46 12 -105 26t-91 21.5t-70 18.5 t-57 21t-37.5 25.5t-25 36t-6.5 47.5q0 42 29.5 77.5t73.5 35.5q45 0 88.5 -25.5t74 -59.5t78 -81.5t89.5 -77.5q1 -2 1.5 -1.5t2.5 2t4 1.5q-6 88 -41 189t-35 147q0 49 34.5 83t84.5 34q49 0 79.5 -33.5t30.5 -83.5q0 -45 -32.5 -148.5t-40.5 -187.5l8 -6q37 24 85.5 70.5 t84 83.5t79 65.5t78.5 28.5q47 0 76 -35t29 -78q0 -38 -13.5 -59t-48 -34.5t-74.5 -22t-114 -30t-145 -50.5v-15q25 -20 134 -53.5t173 -46.5q39 -8 63.5 -33.5t24.5 -66.5v-25q-12 -41 -38 -62.5t-60 -21.5q-43 0 -94 39t-119.5 105t-118.5 100q-1 0 -4.5 -2t-5.5 -2 q8 -91 40.5 -194.5t32.5 -149.5q0 -48 -30.5 -81.5t-79.5 -33.5t-84 34t-35 81q0 40 15.5 89t34 115t22.5 140q-5 0 -9 4q-22 -19 -98.5 -95.5t-128.5 -112.5t-100 -36q-41 0 -72 32t-31 83z" />
<glyph unicode="&#xd1;" horiz-adv-x="1464" d="M-2 0l6 47q97 12 139.5 36t53.5 93l178 1127v14q0 62 -35 84.5t-119 38.5l8 47h424q127 -279 488 -1081h8l141 897q0 7 1 18.5t1 17.5q0 50 -34 70.5t-121 28.5l8 49h448l-6 -49q-98 -12 -140.5 -36t-53.5 -93l-209 -1313h-129q0 2 1 7.5t1 8.5l-578 1301h-4 q-157 -998 -178 -1127q0 -7 -1 -20t-1 -19q0 -51 33.5 -71t122.5 -29l-9 -47h-444zM559 1667q43 102 112.5 164.5t159.5 62.5q71 0 179 -36.5t147 -36.5q104 0 158 100l45 -12q-92 -242 -270 -242q-73 0 -177.5 38t-142.5 38q-57 0 -97 -20.5t-69 -71.5z" />
<glyph unicode="&#xd2;" horiz-adv-x="1447" d="M109 549q0 275 100 493.5t277.5 340.5t400.5 122q269 0 413 -148t144 -413q0 -211 -62 -392t-167 -305t-247 -194.5t-300 -70.5q-271 0 -415 146.5t-144 420.5zM348 459q0 -198 82.5 -291.5t255.5 -93.5q195 0 315.5 156.5t174.5 502.5q24 147 24 268q0 416 -328 416 q-202 0 -322.5 -172t-174.5 -512q-27 -175 -27 -274zM535 1864l129 170l329 -346l-37 -43z" />
<glyph unicode="&#xd3;" horiz-adv-x="1447" d="M109 549q0 275 100 493.5t277.5 340.5t400.5 122q269 0 413 -148t144 -413q0 -211 -62 -392t-167 -305t-247 -194.5t-300 -70.5q-271 0 -415 146.5t-144 420.5zM348 459q0 -198 82.5 -291.5t255.5 -93.5q195 0 315.5 156.5t174.5 502.5q24 147 24 268q0 416 -328 416 q-202 0 -322.5 -172t-174.5 -512q-27 -175 -27 -274zM846 1688l330 346l129 -170l-422 -219z" />
<glyph unicode="&#xd4;" horiz-adv-x="1447" d="M109 549q0 275 100 493.5t277.5 340.5t400.5 122q269 0 413 -148t144 -413q0 -211 -62 -392t-167 -305t-247 -194.5t-300 -70.5q-271 0 -415 146.5t-144 420.5zM348 459q0 -198 82.5 -291.5t255.5 -93.5q195 0 315.5 156.5t174.5 502.5q24 147 24 268q0 416 -328 416 q-202 0 -322.5 -172t-174.5 -512q-27 -175 -27 -274zM631 1679l293 316h118l209 -324l-55 -43l-223 205l-301 -195z" />
<glyph unicode="&#xd5;" horiz-adv-x="1447" d="M109 549q0 275 100 493.5t277.5 340.5t400.5 122q269 0 413 -148t144 -413q0 -211 -62 -392t-167 -305t-247 -194.5t-300 -70.5q-271 0 -415 146.5t-144 420.5zM348 459q0 -198 82.5 -291.5t255.5 -93.5q195 0 315.5 156.5t174.5 502.5q24 147 24 268q0 416 -328 416 q-202 0 -322.5 -172t-174.5 -512q-27 -175 -27 -274zM535 1667q43 102 112.5 164.5t159.5 62.5q71 0 179 -36.5t147 -36.5q103 0 157 100l45 -12q-92 -242 -270 -242q-73 0 -177.5 38t-142.5 38q-57 0 -96.5 -20t-68.5 -72z" />
<glyph unicode="&#xd6;" horiz-adv-x="1447" d="M109 549q0 275 100 493.5t277.5 340.5t400.5 122q269 0 413 -148t144 -413q0 -211 -62 -392t-167 -305t-247 -194.5t-300 -70.5q-271 0 -415 146.5t-144 420.5zM348 459q0 -198 82.5 -291.5t255.5 -93.5q195 0 315.5 156.5t174.5 502.5q24 147 24 268q0 416 -328 416 q-202 0 -322.5 -172t-174.5 -512q-27 -175 -27 -274zM598 1757q0 66 42.5 114t111.5 48q55 0 82.5 -28t27.5 -74q0 -65 -43 -111.5t-110 -46.5q-56 0 -83.5 26.5t-27.5 71.5zM1006 1757q0 66 42 114t111 48q56 0 83.5 -27.5t27.5 -74.5q0 -64 -43.5 -111t-108.5 -47 q-112 0 -112 98z" />
<glyph unicode="&#xd7;" d="M178 375l357 307l-275 326l94 82l273 -326l358 307l68 -80l-357 -307l271 -326l-93 -82l-272 326l-356 -307z" />
<glyph unicode="&#xd8;" horiz-adv-x="1447" d="M109 549q0 275 100 493.5t277.5 340.5t400.5 122q81 0 147 -14l66 170l88 -16l-70 -177q159 -55 242.5 -190t83.5 -334q0 -211 -62 -392t-167 -305t-247 -194.5t-300 -70.5q-62 0 -127 10l-78 -201l-88 16l80 203q-170 51 -258 188t-88 351zM348 459q0 -263 148 -344 l501 1282q-53 20 -125 20q-202 0 -322.5 -172t-174.5 -512q-27 -175 -27 -274zM578 84q55 -10 108 -10q195 0 315.5 156.5t174.5 502.5q24 147 24 268q0 254 -125 355z" />
<glyph unicode="&#xd9;" horiz-adv-x="1490" d="M213 1440l8 47h582l-8 -47q-96 -12 -141 -38.5t-56 -96.5l-131 -834q-8 -62 -8 -92q0 -141 75.5 -213t223.5 -72q68 0 132 21.5t121.5 64t99 116t56.5 167.5l133 833q3 18 3 35q0 52 -38 76.5t-124 32.5l8 47h461l-11 -47q-94 -11 -135.5 -37.5t-52.5 -97.5l-131 -844 q-15 -97 -56.5 -180.5t-109.5 -150.5t-171 -105.5t-230 -38.5q-106 0 -189.5 21t-138.5 57t-91 86.5t-51.5 107t-15.5 121.5q0 49 15 141l123 776q2 12 2 35q0 54 -34.5 77.5t-119.5 31.5zM604 1864l129 170l330 -346l-37 -43z" />
<glyph unicode="&#xda;" horiz-adv-x="1490" d="M213 1440l8 47h582l-8 -47q-96 -12 -141 -38.5t-56 -96.5l-131 -834q-8 -62 -8 -92q0 -141 75.5 -213t223.5 -72q68 0 132 21.5t121.5 64t99 116t56.5 167.5l133 833q3 18 3 35q0 52 -38 76.5t-124 32.5l8 47h461l-11 -47q-94 -11 -135.5 -37.5t-52.5 -97.5l-131 -844 q-15 -97 -56.5 -180.5t-109.5 -150.5t-171 -105.5t-230 -38.5q-106 0 -189.5 21t-138.5 57t-91 86.5t-51.5 107t-15.5 121.5q0 49 15 141l123 776q2 12 2 35q0 54 -34.5 77.5t-119.5 31.5zM936 1688l330 346l129 -170l-422 -219z" />
<glyph unicode="&#xdb;" horiz-adv-x="1490" d="M213 1440l8 47h582l-8 -47q-96 -12 -141 -38.5t-56 -96.5l-131 -834q-8 -62 -8 -92q0 -141 75.5 -213t223.5 -72q68 0 132 21.5t121.5 64t99 116t56.5 167.5l133 833q3 18 3 35q0 52 -38 76.5t-124 32.5l8 47h461l-11 -47q-94 -11 -135.5 -37.5t-52.5 -97.5l-131 -844 q-15 -97 -56.5 -180.5t-109.5 -150.5t-171 -105.5t-230 -38.5q-106 0 -189.5 21t-138.5 57t-91 86.5t-51.5 107t-15.5 121.5q0 49 15 141l123 776q2 12 2 35q0 54 -34.5 77.5t-119.5 31.5zM698 1679l293 316h119l209 -324l-55 -43l-224 205l-301 -195z" />
<glyph unicode="&#xdc;" horiz-adv-x="1490" d="M213 1440l8 47h582l-8 -47q-96 -12 -141 -38.5t-56 -96.5l-131 -834q-8 -62 -8 -92q0 -141 75.5 -213t223.5 -72q68 0 132 21.5t121.5 64t99 116t56.5 167.5l133 833q3 18 3 35q0 52 -38 76.5t-124 32.5l8 47h461l-11 -47q-94 -11 -135.5 -37.5t-52.5 -97.5l-131 -844 q-15 -97 -56.5 -180.5t-109.5 -150.5t-171 -105.5t-230 -38.5q-106 0 -189.5 21t-138.5 57t-91 86.5t-51.5 107t-15.5 121.5q0 49 15 141l123 776q2 12 2 35q0 54 -34.5 77.5t-119.5 31.5zM674 1757q0 66 42 114t111 48q55 0 83 -28t28 -74q0 -65 -43.5 -111.5t-110.5 -46.5 q-56 0 -83 26.5t-27 71.5zM1081 1757q0 66 42.5 114t111.5 48q56 0 83.5 -27.5t27.5 -74.5q0 -64 -43.5 -111t-108.5 -47q-113 0 -113 98z" />
<glyph unicode="&#xdd;" horiz-adv-x="1234" d="M174 1440l6 47h518l-6 -47q-88 -7 -120.5 -27t-32.5 -59q4 -30 18 -64l209 -516l321 481q58 83 58 121q0 54 -127 64l6 47h391l-6 -47q-83 -9 -154 -109l-458 -651l-80 -487q-4 -28 -4 -48q0 -51 33.5 -70.5t121.5 -27.5l-8 -47h-579l6 47q95 11 139 38.5t55 98.5l78 496 l-272 674q-29 73 -113 86zM815 1688l330 346l129 -170l-422 -219z" />
<glyph unicode="&#xde;" horiz-adv-x="1849" d="M74 688q0 183 67.5 350t181 287.5t271 192t330.5 71.5q174 0 331.5 -71.5t271.5 -192t181.5 -287.5t67.5 -350t-67.5 -350t-181.5 -287.5t-271.5 -192t-331.5 -71.5q-173 0 -330.5 71.5t-271 192t-181 287.5t-67.5 350zM160 688q0 -165 60.5 -315.5t163 -259 t243.5 -172.5t297 -64q209 0 385 108.5t278.5 295t102.5 407.5t-102.5 407.5t-278.5 295t-385 108.5q-156 0 -297 -64t-243.5 -172.5t-163 -259t-60.5 -315.5zM442 504q0 37 25.5 61.5t62.5 32.5q41 9 81.5 21t68 22t75 27.5t81.5 29.5v15q-46 12 -105 26t-91 21.5t-70 18.5 t-57 21t-37.5 25.5t-25 36t-6.5 47.5q0 42 29.5 77.5t73.5 35.5q45 0 88.5 -25.5t74 -59.5t78 -81.5t89.5 -77.5q1 -2 1.5 -1.5t2.5 2t4 1.5q-6 88 -41 189t-35 147q0 49 34.5 83t84.5 34q49 0 79.5 -33.5t30.5 -83.5q0 -45 -32.5 -148.5t-40.5 -187.5l8 -6q37 24 85.5 70.5 t84 83.5t79 65.5t78.5 28.5q47 0 76 -35t29 -78q0 -38 -13.5 -59t-48 -34.5t-74.5 -22t-114 -30t-145 -50.5v-15q25 -20 134 -53.5t173 -46.5q39 -8 63.5 -33.5t24.5 -66.5v-25q-12 -41 -38 -62.5t-60 -21.5q-43 0 -94 39t-119.5 105t-118.5 100q-1 0 -4.5 -2t-5.5 -2 q8 -91 40.5 -194.5t32.5 -149.5q0 -48 -30.5 -81.5t-79.5 -33.5t-84 34t-35 81q0 40 15.5 89t34 115t22.5 140q-5 0 -9 4q-22 -19 -98.5 -95.5t-128.5 -112.5t-100 -36q-41 0 -72 32t-31 83z" />
<glyph unicode="&#xdf;" horiz-adv-x="1386" d="M-240 -276q0 60 32.5 101.5t98.5 41.5q43 0 72 -24.5t29 -67.5q0 -33 -12 -55.5t-26 -31.5t-26 -17t-12 -15q0 -11 12.5 -20t30.5 -9q124 0 152 180l176 1197h-150l13 71q116 19 149 23q82 549 641 549q199 0 300 -76.5t101 -194.5q0 -47 -9 -87t-29 -74.5t-39.5 -60 t-54.5 -54t-58.5 -45.5t-67 -46.5t-65.5 -45.5q-54 -38 -81.5 -69t-27.5 -69q0 -20 12.5 -40.5t37.5 -41t42 -33t46 -30.5l71 -45q72 -45 120 -112.5t48 -149.5q1 -74 -22.5 -140.5t-73 -125t-138 -93t-206.5 -34.5q-20 0 -39.5 1t-35.5 2.5t-36.5 4.5t-32.5 4.5t-33 6.5 t-29.5 7t-30.5 8t-27 7.5t-28 8t-26 7.5l41 328q10 0 30 1t30 1q0 -4 -1 -12.5t-1 -12.5q0 -72 13 -124t33 -81.5t51 -46.5t59.5 -22t66.5 -5q119 0 182.5 64t63.5 166q0 58 -36.5 104.5t-88 79t-103.5 64t-88.5 76.5t-36.5 100q0 27 4.5 51t17 48t21.5 39.5t32.5 40 t35 35.5t43 39.5t43.5 39.5q44 40 68.5 65.5t58.5 71.5t50 99.5t16 115.5q0 99 -61 152t-167 53q-73 0 -134 -25t-101.5 -65t-71.5 -96.5t-48 -113.5t-28 -122l-174 -1077q-19 -118 -46 -206t-69 -159t-105 -108t-146 -37q-112 0 -167 47t-55 119z" />
<glyph unicode="&#xe0;" horiz-adv-x="1107" d="M96 324q0 161 45.5 311t122 259.5t182 175t220.5 65.5q63 0 119 -11.5t85 -25.5l134 43l16 -6l-141 -865q-17 -122 -17 -127q0 -24 21 -24q24 0 55.5 28.5t56.5 65.5l43 -27q-37 -73 -86.5 -122t-95.5 -68t-92 -19q-64 0 -90.5 29t-26.5 82q0 14 8 68 q-52 -72 -139.5 -126.5t-175.5 -54.5q-123 0 -183.5 91t-60.5 258zM322 375q0 -132 36.5 -191t108.5 -59q48 0 103.5 27t91.5 63l118 758q-21 35 -65 63.5t-90 28.5q-86 0 -156.5 -100t-108.5 -257.5t-38 -332.5zM336 1487l129 170l330 -346l-37 -43z" />
<glyph unicode="&#xe1;" horiz-adv-x="1107" d="M96 324q0 161 45.5 311t122 259.5t182 175t220.5 65.5q63 0 119 -11.5t85 -25.5l134 43l16 -6l-141 -865q-17 -122 -17 -127q0 -24 21 -24q24 0 55.5 28.5t56.5 65.5l43 -27q-37 -73 -86.5 -122t-95.5 -68t-92 -19q-64 0 -90.5 29t-26.5 82q0 14 8 68 q-52 -72 -139.5 -126.5t-175.5 -54.5q-123 0 -183.5 91t-60.5 258zM322 375q0 -132 36.5 -191t108.5 -59q48 0 103.5 27t91.5 63l118 758q-21 35 -65 63.5t-90 28.5q-86 0 -156.5 -100t-108.5 -257.5t-38 -332.5zM602 1311l330 346l129 -170l-422 -219z" />
<glyph unicode="&#xe2;" horiz-adv-x="1107" d="M96 324q0 161 45.5 311t122 259.5t182 175t220.5 65.5q63 0 119 -11.5t85 -25.5l134 43l16 -6l-141 -865q-17 -122 -17 -127q0 -24 21 -24q24 0 55.5 28.5t56.5 65.5l43 -27q-37 -73 -86.5 -122t-95.5 -68t-92 -19q-64 0 -90.5 29t-26.5 82q0 14 8 68 q-52 -72 -139.5 -126.5t-175.5 -54.5q-123 0 -183.5 91t-60.5 258zM322 375q0 -132 36.5 -191t108.5 -59q48 0 103.5 27t91.5 63l118 758q-21 35 -65 63.5t-90 28.5q-86 0 -156.5 -100t-108.5 -257.5t-38 -332.5zM403 1303l293 315h119l209 -324l-55 -43l-224 205l-301 -194 z" />
<glyph unicode="&#xe3;" horiz-adv-x="1107" d="M96 324q0 161 45.5 311t122 259.5t182 175t220.5 65.5q63 0 119 -11.5t85 -25.5l134 43l16 -6l-141 -865q-17 -122 -17 -127q0 -24 21 -24q24 0 55.5 28.5t56.5 65.5l43 -27q-37 -73 -86.5 -122t-95.5 -68t-92 -19q-64 0 -90.5 29t-26.5 82q0 14 8 68 q-52 -72 -139.5 -126.5t-175.5 -54.5q-123 0 -183.5 91t-60.5 258zM319 1290q43 102 113 165t160 63q71 0 179 -37t147 -37q103 0 157 100l45 -12q-92 -242 -270 -242q-73 0 -177.5 38t-142.5 38q-57 0 -96.5 -20t-68.5 -72zM322 375q0 -132 36.5 -191t108.5 -59 q48 0 103.5 27t91.5 63l118 758q-21 35 -65 63.5t-90 28.5q-86 0 -156.5 -100t-108.5 -257.5t-38 -332.5z" />
<glyph unicode="&#xe4;" horiz-adv-x="1107" d="M96 324q0 161 45.5 311t122 259.5t182 175t220.5 65.5q63 0 119 -11.5t85 -25.5l134 43l16 -6l-141 -865q-17 -122 -17 -127q0 -24 21 -24q24 0 55.5 28.5t56.5 65.5l43 -27q-37 -73 -86.5 -122t-95.5 -68t-92 -19q-64 0 -90.5 29t-26.5 82q0 14 8 68 q-52 -72 -139.5 -126.5t-175.5 -54.5q-123 0 -183.5 91t-60.5 258zM322 375q0 -132 36.5 -191t108.5 -59q48 0 103.5 27t91.5 63l118 758q-21 35 -65 63.5t-90 28.5q-86 0 -156.5 -100t-108.5 -257.5t-38 -332.5zM389 1380q0 66 42.5 114t111.5 48q55 0 82.5 -28t27.5 -74 q0 -65 -43 -111.5t-110 -46.5q-56 0 -83.5 26.5t-27.5 71.5zM797 1380q0 66 42 114t111 48q56 0 83.5 -27.5t27.5 -74.5q0 -64 -43.5 -111t-108.5 -47q-112 0 -112 98z" />
<glyph unicode="&#xe5;" horiz-adv-x="1107" d="M96 324q0 161 45.5 311t122 259.5t182 175t220.5 65.5q63 0 119 -11.5t85 -25.5l134 43l16 -6l-141 -865q-17 -122 -17 -127q0 -24 21 -24q24 0 55.5 28.5t56.5 65.5l43 -27q-37 -73 -86.5 -122t-95.5 -68t-92 -19q-64 0 -90.5 29t-26.5 82q0 14 8 68 q-52 -72 -139.5 -126.5t-175.5 -54.5q-123 0 -183.5 91t-60.5 258zM322 375q0 -132 36.5 -191t108.5 -59q48 0 103.5 27t91.5 63l118 758q-21 35 -65 63.5t-90 28.5q-86 0 -156.5 -100t-108.5 -257.5t-38 -332.5zM496 1393q0 84 71 153.5t181 69.5q89 0 136.5 -42.5 t47.5 -109.5q0 -101 -71.5 -164t-182.5 -63q-88 0 -135 45.5t-47 110.5zM598 1397q0 -40 24.5 -63t71.5 -23q63 0 101.5 37.5t38.5 105.5q0 90 -105 90q-61 0 -96 -38.5t-35 -108.5z" />
<glyph unicode="&#xe6;" horiz-adv-x="1468" d="M96 324q0 161 45.5 311t122 259.5t182 175t220.5 65.5q136 0 270 -78q119 80 256 80q105 0 173.5 -48t68.5 -143q0 -98 -80 -170t-209 -108t-291 -39q-18 -133 -18 -193q0 -57 5.5 -102t19.5 -86t36.5 -68t58.5 -43t84 -16q177 0 299 184l39 -31q-49 -125 -162 -213 t-264 -88q-217 0 -297 183q-52 -72 -139.5 -126.5t-175.5 -54.5q-123 0 -183.5 91t-60.5 258zM322 375q0 -132 36.5 -191t108.5 -59q41 0 89 20.5t85 51.5q-20 67 -20 165q0 169 52 324t146 264q-23 36 -86 75.5t-108 39.5q-86 0 -156.5 -100t-108.5 -257.5t-38 -332.5z M866 692q62 2 123.5 15.5t119 39t93 71.5t35.5 104q0 67 -35.5 94.5t-81.5 27.5q-97 0 -163 -100.5t-91 -251.5z" />
<glyph unicode="&#xe7;" horiz-adv-x="925" d="M98 383q0 138 39.5 272t110 241.5t179 174t235.5 66.5q120 0 179.5 -55t59.5 -132q0 -68 -37 -110.5t-94 -42.5t-84 30.5t-27 69.5q0 27 14 51t29.5 41t16.5 27q0 18 -23.5 28.5t-60.5 10.5q-97 0 -172.5 -91t-112.5 -228.5t-37 -291.5q0 -166 51 -243.5t156 -77.5 q85 0 161 52t130 128l43 -33q-47 -115 -148.5 -197.5t-222.5 -95.5l-39 -75q107 -2 174.5 -35t67.5 -107q0 -99 -87 -169t-216 -70q-82 0 -128 28t-46 72q0 38 27.5 65t58.5 27q59 0 59 -47q0 -13 -6.5 -25t-13.5 -21t-8 -11q0 -6 6.5 -11.5t23.5 -10.5t41 -5q72 0 113 28.5 t41 84.5q0 44 -62 61t-165 21l-9 14l97 182q-314 15 -314 410z" />
<glyph unicode="&#xe8;" horiz-adv-x="923" d="M98 362q0 120 27 235t78 212t120 171t159 115.5t188 41.5q105 0 173 -48t68 -143q0 -98 -79.5 -170t-208.5 -108t-291 -39q-19 -140 -19 -193q0 -72 9.5 -126t31.5 -98.5t63 -67.5t101 -23q177 0 299 184l39 -31q-49 -125 -162 -213t-264 -88q-159 0 -245.5 98.5 t-86.5 290.5zM328 1487l129 170l329 -346l-36 -43zM344 692q62 2 123.5 15.5t119 39t93 71.5t35.5 104q0 67 -35.5 94.5t-81.5 27.5q-97 0 -163 -100.5t-91 -251.5z" />
<glyph unicode="&#xe9;" horiz-adv-x="923" d="M98 362q0 120 27 235t78 212t120 171t159 115.5t188 41.5q105 0 173 -48t68 -143q0 -98 -79.5 -170t-208.5 -108t-291 -39q-19 -140 -19 -193q0 -72 9.5 -126t31.5 -98.5t63 -67.5t101 -23q177 0 299 184l39 -31q-49 -125 -162 -213t-264 -88q-159 0 -245.5 98.5 t-86.5 290.5zM344 692q62 2 123.5 15.5t119 39t93 71.5t35.5 104q0 67 -35.5 94.5t-81.5 27.5q-97 0 -163 -100.5t-91 -251.5zM569 1311l330 346l129 -170l-422 -219z" />
<glyph unicode="&#xea;" horiz-adv-x="923" d="M98 362q0 120 27 235t78 212t120 171t159 115.5t188 41.5q105 0 173 -48t68 -143q0 -98 -79.5 -170t-208.5 -108t-291 -39q-19 -140 -19 -193q0 -72 9.5 -126t31.5 -98.5t63 -67.5t101 -23q177 0 299 184l39 -31q-49 -125 -162 -213t-264 -88q-159 0 -245.5 98.5 t-86.5 290.5zM344 692q62 2 123.5 15.5t119 39t93 71.5t35.5 104q0 67 -35.5 94.5t-81.5 27.5q-97 0 -163 -100.5t-91 -251.5zM401 1303l293 315h119l209 -324l-55 -43l-224 205l-301 -194z" />
<glyph unicode="&#xeb;" horiz-adv-x="923" d="M98 362q0 120 27 235t78 212t120 171t159 115.5t188 41.5q105 0 173 -48t68 -143q0 -98 -79.5 -170t-208.5 -108t-291 -39q-19 -140 -19 -193q0 -72 9.5 -126t31.5 -98.5t63 -67.5t101 -23q177 0 299 184l39 -31q-49 -125 -162 -213t-264 -88q-159 0 -245.5 98.5 t-86.5 290.5zM344 692q62 2 123.5 15.5t119 39t93 71.5t35.5 104q0 67 -35.5 94.5t-81.5 27.5q-97 0 -163 -100.5t-91 -251.5zM360 1380q0 66 42.5 114t111.5 48q55 0 83 -28t28 -74q0 -65 -43.5 -111.5t-110.5 -46.5q-56 0 -83.5 26.5t-27.5 71.5zM768 1380q0 66 42.5 114 t111.5 48q56 0 83 -27.5t27 -74.5q0 -64 -43 -111t-108 -47q-113 0 -113 98z" />
<glyph unicode="&#xec;" horiz-adv-x="604" d="M33 1487l129 170l330 -346l-37 -43zM111 928q112 207 278 207q109 0 109 -111q0 -32 -19 -147l-108 -656q-9 -45 -9 -74q0 -9 6 -15.5t15 -6.5q41 0 104 92l45 -27q-111 -206 -272 -206q-62 0 -90.5 29t-28.5 73q0 29 13 100l112 664q15 88 15 117q0 26 -21 26 q-44 0 -106 -92z" />
<glyph unicode="&#xed;" horiz-adv-x="604" d="M111 928q112 207 278 207q109 0 109 -111q0 -32 -19 -147l-108 -656q-9 -45 -9 -74q0 -9 6 -15.5t15 -6.5q41 0 104 92l45 -27q-111 -206 -272 -206q-62 0 -90.5 29t-28.5 73q0 29 13 100l112 664q15 88 15 117q0 26 -21 26q-44 0 -106 -92zM311 1311l330 346l129 -170 l-422 -219z" />
<glyph unicode="&#xee;" horiz-adv-x="604" d="M111 928q112 207 278 207q109 0 109 -111q0 -32 -19 -147l-108 -656q-9 -45 -9 -74q0 -9 6 -15.5t15 -6.5q41 0 104 92l45 -27q-111 -206 -272 -206q-62 0 -90.5 29t-28.5 73q0 29 13 100l112 664q15 88 15 117q0 26 -21 26q-44 0 -106 -92zM111 1303l292 315h119 l209 -324l-55 -43l-223 205l-301 -194z" />
<glyph unicode="&#xef;" horiz-adv-x="604" d="M70 1380q0 66 42 114t111 48q55 0 83 -28t28 -74q0 -65 -43.5 -111.5t-110.5 -46.5q-56 0 -83 26.5t-27 71.5zM111 928q112 207 278 207q109 0 109 -111q0 -32 -19 -147l-108 -656q-9 -45 -9 -74q0 -9 6 -15.5t15 -6.5q41 0 104 92l45 -27q-111 -206 -272 -206 q-62 0 -90.5 29t-28.5 73q0 29 13 100l112 664q15 88 15 117q0 26 -21 26q-44 0 -106 -92zM477 1380q0 66 42.5 114t111.5 48q56 0 83 -27.5t27 -74.5q0 -64 -43 -111t-108 -47q-113 0 -113 98z" />
<glyph unicode="&#xf0;" horiz-adv-x="1849" d="M74 688q0 183 67.5 350t181 287.5t271 192t330.5 71.5q174 0 331.5 -71.5t271.5 -192t181.5 -287.5t67.5 -350t-67.5 -350t-181.5 -287.5t-271.5 -192t-331.5 -71.5q-173 0 -330.5 71.5t-271 192t-181 287.5t-67.5 350zM160 688q0 -165 60.5 -315.5t163 -259 t243.5 -172.5t297 -64q209 0 385 108.5t278.5 295t102.5 407.5t-102.5 407.5t-278.5 295t-385 108.5q-156 0 -297 -64t-243.5 -172.5t-163 -259t-60.5 -315.5zM442 504q0 37 25.5 61.5t62.5 32.5q41 9 81.5 21t68 22t75 27.5t81.5 29.5v15q-46 12 -105 26t-91 21.5t-70 18.5 t-57 21t-37.5 25.5t-25 36t-6.5 47.5q0 42 29.5 77.5t73.5 35.5q45 0 88.5 -25.5t74 -59.5t78 -81.5t89.5 -77.5q1 -2 1.5 -1.5t2.5 2t4 1.5q-6 88 -41 189t-35 147q0 49 34.5 83t84.5 34q49 0 79.5 -33.5t30.5 -83.5q0 -45 -32.5 -148.5t-40.5 -187.5l8 -6q37 24 85.5 70.5 t84 83.5t79 65.5t78.5 28.5q47 0 76 -35t29 -78q0 -38 -13.5 -59t-48 -34.5t-74.5 -22t-114 -30t-145 -50.5v-15q25 -20 134 -53.5t173 -46.5q39 -8 63.5 -33.5t24.5 -66.5v-25q-12 -41 -38 -62.5t-60 -21.5q-43 0 -94 39t-119.5 105t-118.5 100q-1 0 -4.5 -2t-5.5 -2 q8 -91 40.5 -194.5t32.5 -149.5q0 -48 -30.5 -81.5t-79.5 -33.5t-84 34t-35 81q0 40 15.5 89t34 115t22.5 140q-5 0 -9 4q-22 -19 -98.5 -95.5t-128.5 -112.5t-100 -36q-41 0 -72 32t-31 83z" />
<glyph unicode="&#xf1;" horiz-adv-x="1230" d="M106 928q112 207 281 207q53 0 80 -30t27 -77q0 -24 -7 -59q74 73 175 120.5t204 47.5q116 0 173 -58t57 -155q0 -43 -17 -168l-65 -422l-27 -184q0 -27 23 -27t47.5 25t54.5 69l45 -29q-108 -204 -272 -204q-61 0 -89 28.5t-28 71.5q0 25 20 158l86 557q1 5 4 25.5 t5 39.5t2 29q0 53 -35.5 82t-99.5 29q-74 0 -151 -30t-118 -69l-141 -905h-209q13 82 58 363.5t67 435.5q23 141 23 162v4q0 26 -21 26q-44 0 -106 -92zM340 1290q43 102 112.5 165t159.5 63q71 0 179 -37t147 -37q104 0 158 100l45 -12q-92 -242 -271 -242q-73 0 -177 38 t-142 38q-57 0 -97 -20.5t-69 -71.5z" />
<glyph unicode="&#xf2;" horiz-adv-x="1095" d="M102 432q0 141 38 268.5t106.5 224.5t172 154.5t226.5 57.5q93 0 165.5 -35.5t116.5 -98.5t66.5 -144t22.5 -177q0 -110 -23.5 -214t-70.5 -193t-111.5 -155.5t-152.5 -104.5t-189 -38q-180 0 -273.5 126t-93.5 329zM268 1487l129 170l330 -346l-37 -43zM324 326 q0 -122 41.5 -192.5t121.5 -70.5t142 66.5t97 173.5t52 224.5t17 236.5q0 134 -39.5 210.5t-122.5 76.5q-82 0 -144 -64t-97 -171.5t-51.5 -230.5t-16.5 -259z" />
<glyph unicode="&#xf3;" horiz-adv-x="1095" d="M102 432q0 141 38 268.5t106.5 224.5t172 154.5t226.5 57.5q93 0 165.5 -35.5t116.5 -98.5t66.5 -144t22.5 -177q0 -110 -23.5 -214t-70.5 -193t-111.5 -155.5t-152.5 -104.5t-189 -38q-180 0 -273.5 126t-93.5 329zM324 326q0 -122 41.5 -192.5t121.5 -70.5t142 66.5 t97 173.5t52 224.5t17 236.5q0 134 -39.5 210.5t-122.5 76.5q-82 0 -144 -64t-97 -171.5t-51.5 -230.5t-16.5 -259zM545 1311l329 346l130 -170l-422 -219z" />
<glyph unicode="&#xf4;" horiz-adv-x="1095" d="M102 432q0 141 38 268.5t106.5 224.5t172 154.5t226.5 57.5q93 0 165.5 -35.5t116.5 -98.5t66.5 -144t22.5 -177q0 -110 -23.5 -214t-70.5 -193t-111.5 -155.5t-152.5 -104.5t-189 -38q-180 0 -273.5 126t-93.5 329zM324 326q0 -122 41.5 -192.5t121.5 -70.5t142 66.5 t97 173.5t52 224.5t17 236.5q0 134 -39.5 210.5t-122.5 76.5q-82 0 -144 -64t-97 -171.5t-51.5 -230.5t-16.5 -259zM365 1303l292 315h119l209 -324l-55 -43l-223 205l-301 -194z" />
<glyph unicode="&#xf5;" horiz-adv-x="1095" d="M102 432q0 141 38 268.5t106.5 224.5t172 154.5t226.5 57.5q93 0 165.5 -35.5t116.5 -98.5t66.5 -144t22.5 -177q0 -110 -23.5 -214t-70.5 -193t-111.5 -155.5t-152.5 -104.5t-189 -38q-180 0 -273.5 126t-93.5 329zM262 1290q43 102 113 165t160 63q71 0 178.5 -37 t146.5 -37q104 0 158 100l45 -12q-92 -242 -270 -242q-73 0 -177.5 38t-142.5 38q-57 0 -97 -20.5t-69 -71.5zM324 326q0 -122 41.5 -192.5t121.5 -70.5t142 66.5t97 173.5t52 224.5t17 236.5q0 134 -39.5 210.5t-122.5 76.5q-82 0 -144 -64t-97 -171.5t-51.5 -230.5 t-16.5 -259z" />
<glyph unicode="&#xf6;" horiz-adv-x="1095" d="M102 432q0 141 38 268.5t106.5 224.5t172 154.5t226.5 57.5q93 0 165.5 -35.5t116.5 -98.5t66.5 -144t22.5 -177q0 -110 -23.5 -214t-70.5 -193t-111.5 -155.5t-152.5 -104.5t-189 -38q-180 0 -273.5 126t-93.5 329zM324 326q0 -122 41.5 -192.5t121.5 -70.5t142 66.5 t97 173.5t52 224.5t17 236.5q0 134 -39.5 210.5t-122.5 76.5q-82 0 -144 -64t-97 -171.5t-51.5 -230.5t-16.5 -259zM348 1380q0 66 42.5 114t111.5 48q55 0 82.5 -28t27.5 -74q0 -65 -43 -111.5t-110 -46.5q-56 0 -83.5 26.5t-27.5 71.5zM756 1380q0 66 42 114t111 48 q56 0 83.5 -27.5t27.5 -74.5q0 -64 -43.5 -111t-108.5 -47q-112 0 -112 98z" />
<glyph unicode="&#xf7;" d="M143 631l17 112h938l-17 -112h-938zM436 315q0 63 46 110.5t106 47.5q49 0 80.5 -31.5t31.5 -81.5q0 -62 -46.5 -106.5t-108.5 -44.5q-52 0 -80.5 29t-28.5 77zM539 973q0 65 46.5 111t106.5 46q49 0 80 -30.5t31 -77.5q0 -64 -45.5 -110t-108.5 -46q-51 0 -80.5 30 t-29.5 77z" />
<glyph unicode="&#xf8;" horiz-adv-x="1095" d="M102 432q0 141 38 268.5t106.5 224.5t172 154.5t226.5 57.5q41 0 94 -11l45 115l84 -18l-49 -127q97 -52 147 -162.5t50 -251.5q0 -110 -23.5 -214t-70.5 -193t-111.5 -155.5t-152.5 -104.5t-189 -38q-22 0 -78 9l-57 -154l-84 18l61 160q-103 48 -156 159t-53 263z M324 326q0 -122 36 -187l342 891q-35 21 -69 21q-82 0 -144 -64t-97 -171.5t-51.5 -230.5t-16.5 -259zM426 76q29 -13 61 -13q80 0 142 66.5t97 173.5t52 224.5t17 236.5q0 114 -31 190z" />
<glyph unicode="&#xf9;" horiz-adv-x="1216" d="M98 926q113 207 279 207q57 0 82.5 -29t25.5 -74l-2 -32q-2 -32 -6 -52l-12 -74l-88 -555q-10 -50 -10 -96q0 -53 35.5 -81.5t99.5 -28.5q74 0 150.5 29.5t117.5 68.5q22 134 45.5 284.5t51.5 334.5t44 284h209l-135 -872q-12 -60 -12 -86v-4q3 -27 20 -27q45 0 107 92 q21 -15 45 -27q-109 -206 -281 -206q-53 0 -79.5 28.5t-26.5 75.5q0 29 6 59q-74 -72 -174.5 -118.5t-204.5 -46.5q-117 0 -173 56.5t-56 153.5q0 74 16 168q8 47 31 194.5t37 227.5l24 148q4 29 4 37q0 26 -20 26q-13 0 -26.5 -7t-28.5 -24t-23.5 -28t-26.5 -35zM332 1487 l129 170l330 -346l-37 -43z" />
<glyph unicode="&#xfa;" horiz-adv-x="1216" d="M98 926q113 207 279 207q57 0 82.5 -29t25.5 -74l-2 -32q-2 -32 -6 -52l-12 -74l-88 -555q-10 -50 -10 -96q0 -53 35.5 -81.5t99.5 -28.5q74 0 150.5 29.5t117.5 68.5q22 134 45.5 284.5t51.5 334.5t44 284h209l-135 -872q-12 -60 -12 -86v-4q3 -27 20 -27q45 0 107 92 q21 -15 45 -27q-109 -206 -281 -206q-53 0 -79.5 28.5t-26.5 75.5q0 29 6 59q-74 -72 -174.5 -118.5t-204.5 -46.5q-117 0 -173 56.5t-56 153.5q0 74 16 168q8 47 31 194.5t37 227.5l24 148q4 29 4 37q0 26 -20 26q-13 0 -26.5 -7t-28.5 -24t-23.5 -28t-26.5 -35zM672 1311 l329 346l129 -170l-421 -219z" />
<glyph unicode="&#xfb;" horiz-adv-x="1216" d="M98 926q113 207 279 207q57 0 82.5 -29t25.5 -74l-2 -32q-2 -32 -6 -52l-12 -74l-88 -555q-10 -50 -10 -96q0 -53 35.5 -81.5t99.5 -28.5q74 0 150.5 29.5t117.5 68.5q22 134 45.5 284.5t51.5 334.5t44 284h209l-135 -872q-12 -60 -12 -86v-4q3 -27 20 -27q45 0 107 92 q21 -15 45 -27q-109 -206 -281 -206q-53 0 -79.5 28.5t-26.5 75.5q0 29 6 59q-74 -72 -174.5 -118.5t-204.5 -46.5q-117 0 -173 56.5t-56 153.5q0 74 16 168q8 47 31 194.5t37 227.5l24 148q4 29 4 37q0 26 -20 26q-13 0 -26.5 -7t-28.5 -24t-23.5 -28t-26.5 -35zM442 1303 l293 315h119l209 -324l-55 -43l-224 205l-301 -194z" />
<glyph unicode="&#xfc;" horiz-adv-x="1216" d="M98 926q113 207 279 207q57 0 82.5 -29t25.5 -74l-2 -32q-2 -32 -6 -52l-12 -74l-88 -555q-10 -50 -10 -96q0 -53 35.5 -81.5t99.5 -28.5q74 0 150.5 29.5t117.5 68.5q22 134 45.5 284.5t51.5 334.5t44 284h209l-135 -872q-12 -60 -12 -86v-4q3 -27 20 -27q45 0 107 92 q21 -15 45 -27q-109 -206 -281 -206q-53 0 -79.5 28.5t-26.5 75.5q0 29 6 59q-74 -72 -174.5 -118.5t-204.5 -46.5q-117 0 -173 56.5t-56 153.5q0 74 16 168q8 47 31 194.5t37 227.5l24 148q4 29 4 37q0 26 -20 26q-13 0 -26.5 -7t-28.5 -24t-23.5 -28t-26.5 -35zM401 1380 q0 66 42.5 114t111.5 48q55 0 83 -28t28 -74q0 -65 -43.5 -111.5t-110.5 -46.5q-56 0 -83.5 26.5t-27.5 71.5zM809 1380q0 66 42.5 114t111.5 48q56 0 83 -27.5t27 -74.5q0 -64 -43 -111t-108 -47q-113 0 -113 98z" />
<glyph unicode="&#xfd;" horiz-adv-x="989" d="M-145 -264q0 58 36.5 102.5t98.5 44.5q39 0 70.5 -22.5t31.5 -71.5q0 -27 -14 -51t-28.5 -41.5t-14.5 -28.5q0 -30 51 -30q72 0 162 95.5t180 246.5q-39 175 -110.5 498t-98.5 446q-8 47 -35 47q-12 0 -24.5 -12t-19.5 -23.5t-23 -39.5q-1 -2 -2 -3.5t-2 -3.5 q-4 2 -20.5 10t-24.5 14q41 101 99 160.5t114 59.5q69 0 98 -45t55 -173l144 -694h4q66 113 148.5 309t82.5 279q0 21 -22 47.5t-44 61.5t-22 77q0 47 32 88t91 41q56 0 89.5 -38.5t33.5 -100.5q0 -142 -144.5 -448.5t-322.5 -587.5q-142 -223 -239.5 -305t-196.5 -82 q-102 0 -157.5 49.5t-55.5 124.5zM528 1311l330 346l129 -170l-422 -219z" />
<glyph unicode="&#xfe;" horiz-adv-x="1849" d="M74 688q0 183 67.5 350t181 287.5t271 192t330.5 71.5q174 0 331.5 -71.5t271.5 -192t181.5 -287.5t67.5 -350t-67.5 -350t-181.5 -287.5t-271.5 -192t-331.5 -71.5q-173 0 -330.5 71.5t-271 192t-181 287.5t-67.5 350zM160 688q0 -165 60.5 -315.5t163 -259 t243.5 -172.5t297 -64q209 0 385 108.5t278.5 295t102.5 407.5t-102.5 407.5t-278.5 295t-385 108.5q-156 0 -297 -64t-243.5 -172.5t-163 -259t-60.5 -315.5zM442 504q0 37 25.5 61.5t62.5 32.5q41 9 81.5 21t68 22t75 27.5t81.5 29.5v15q-46 12 -105 26t-91 21.5t-70 18.5 t-57 21t-37.5 25.5t-25 36t-6.5 47.5q0 42 29.5 77.5t73.5 35.5q45 0 88.5 -25.5t74 -59.5t78 -81.5t89.5 -77.5q1 -2 1.5 -1.5t2.5 2t4 1.5q-6 88 -41 189t-35 147q0 49 34.5 83t84.5 34q49 0 79.5 -33.5t30.5 -83.5q0 -45 -32.5 -148.5t-40.5 -187.5l8 -6q37 24 85.5 70.5 t84 83.5t79 65.5t78.5 28.5q47 0 76 -35t29 -78q0 -38 -13.5 -59t-48 -34.5t-74.5 -22t-114 -30t-145 -50.5v-15q25 -20 134 -53.5t173 -46.5q39 -8 63.5 -33.5t24.5 -66.5v-25q-12 -41 -38 -62.5t-60 -21.5q-43 0 -94 39t-119.5 105t-118.5 100q-1 0 -4.5 -2t-5.5 -2 q8 -91 40.5 -194.5t32.5 -149.5q0 -48 -30.5 -81.5t-79.5 -33.5t-84 34t-35 81q0 40 15.5 89t34 115t22.5 140q-5 0 -9 4q-22 -19 -98.5 -95.5t-128.5 -112.5t-100 -36q-41 0 -72 32t-31 83z" />
<glyph unicode="&#xff;" horiz-adv-x="989" d="M-145 -264q0 58 36.5 102.5t98.5 44.5q39 0 70.5 -22.5t31.5 -71.5q0 -27 -14 -51t-28.5 -41.5t-14.5 -28.5q0 -30 51 -30q72 0 162 95.5t180 246.5q-39 175 -110.5 498t-98.5 446q-8 47 -35 47q-12 0 -24.5 -12t-19.5 -23.5t-23 -39.5q-1 -2 -2 -3.5t-2 -3.5 q-4 2 -20.5 10t-24.5 14q41 101 99 160.5t114 59.5q69 0 98 -45t55 -173l144 -694h4q66 113 148.5 309t82.5 279q0 21 -22 47.5t-44 61.5t-22 77q0 47 32 88t91 41q56 0 89.5 -38.5t33.5 -100.5q0 -142 -144.5 -448.5t-322.5 -587.5q-142 -223 -239.5 -305t-196.5 -82 q-102 0 -157.5 49.5t-55.5 124.5zM303 1380q0 66 42.5 114t111.5 48q55 0 82.5 -28t27.5 -74q0 -65 -43 -111.5t-110 -46.5q-56 0 -83.5 26.5t-27.5 71.5zM711 1380q0 66 42 114t111 48q56 0 83.5 -27.5t27.5 -74.5q0 -64 -43.5 -111t-108.5 -47q-112 0 -112 98z" />
<glyph unicode="&#x152;" horiz-adv-x="2039" d="M109 567q0 349 158.5 591t432.5 308q109 25 265 25q20 0 161 -2t217 -2h379q260 0 334 4l6 -4l-61 -377h-49q0 47 -2.5 80t-10.5 69t-24.5 59t-42 43t-65.5 29t-93 9h-330l-90 -563h279q48 0 84 7t60.5 23t40 32t27 46t17 51.5t13.5 61.5h57q-41 -256 -84 -541h-55 q4 54 4 76q0 75 -37.5 118.5t-138.5 43.5h-277l-96 -602q-4 -4 -4 -31q0 -31 41 -31h293q74 0 133 19.5t97.5 48t71.5 76t51 88t40 100.5h55l-102 -422h-871q-55 0 -197.5 -4t-162.5 -4q-262 0 -393 151t-131 424zM346 469q0 -200 82.5 -293.5t257.5 -93.5q186 0 260 37 l203 1280l-44 4t-34 3t-40.5 2t-74.5 1q-115 0 -203 -29t-150.5 -82t-108 -139t-74 -188t-49.5 -240q-25 -156 -25 -262z" />
<glyph unicode="&#x153;" horiz-adv-x="1615" d="M102 432q0 141 38 268.5t106.5 224.5t172 154.5t226.5 57.5q119 0 200 -56t124 -155q164 211 393 211q105 0 173.5 -48t68.5 -143q0 -98 -80 -170t-209 -108t-291 -39q-18 -133 -18 -193q0 -57 5.5 -102t19.5 -86t36.5 -68t58.5 -43t84 -16q177 0 299 184l39 -31 q-49 -125 -162 -213t-264 -88q-216 0 -291 170q-150 -166 -362 -166q-180 0 -273.5 126t-93.5 329zM324 326q0 -122 41.5 -192.5t121.5 -70.5t142 66.5t97 173.5t52 224.5t17 236.5q0 134 -39.5 210.5t-122.5 76.5q-82 0 -144 -64t-97 -171.5t-51.5 -230.5t-16.5 -259z M1036 692q62 2 123.5 15.5t119 39t93 71.5t35.5 104q0 67 -35.5 94.5t-81.5 27.5q-97 0 -163 -100.5t-91 -251.5z" />
<glyph unicode="&#x178;" horiz-adv-x="1234" d="M174 1440l6 47h518l-6 -47q-88 -7 -120.5 -27t-32.5 -59q4 -30 18 -64l209 -516l321 481q58 83 58 121q0 54 -127 64l6 47h391l-6 -47q-83 -9 -154 -109l-458 -651l-80 -487q-4 -28 -4 -48q0 -51 33.5 -70.5t121.5 -27.5l-8 -47h-579l6 47q95 11 139 38.5t55 98.5l78 496 l-272 674q-29 73 -113 86zM551 1757q0 66 42.5 114t111.5 48q55 0 82.5 -28t27.5 -74q0 -65 -43 -111.5t-110 -46.5q-56 0 -83.5 26.5t-27.5 71.5zM958 1757q0 66 42.5 114t111.5 48q56 0 83.5 -27.5t27.5 -74.5q0 -64 -43.5 -111t-108.5 -47q-113 0 -113 98z" />
<glyph unicode="&#x2c6;" horiz-adv-x="751" d="M223 1303l293 315h119l209 -324l-56 -43l-223 205l-301 -194z" />
<glyph unicode="&#x2dc;" horiz-adv-x="917" d="M193 1290q43 102 112.5 165t159.5 63q71 0 179 -37t147 -37q103 0 157 100l45 -12q-92 -242 -270 -242q-73 0 -177.5 38t-142.5 38q-57 0 -96.5 -20t-68.5 -72z" />
<glyph unicode="&#x2000;" horiz-adv-x="1017" />
<glyph unicode="&#x2001;" horiz-adv-x="2034" />
<glyph unicode="&#x2002;" horiz-adv-x="1017" />
<glyph unicode="&#x2003;" horiz-adv-x="2034" />
<glyph unicode="&#x2004;" horiz-adv-x="678" />
<glyph unicode="&#x2005;" horiz-adv-x="508" />
<glyph unicode="&#x2006;" horiz-adv-x="339" />
<glyph unicode="&#x2007;" horiz-adv-x="339" />
<glyph unicode="&#x2008;" horiz-adv-x="254" />
<glyph unicode="&#x2009;" horiz-adv-x="406" />
<glyph unicode="&#x200a;" horiz-adv-x="113" />
<glyph unicode="&#x2010;" horiz-adv-x="608" d="M82 586l22 125h478l-23 -125h-477z" />
<glyph unicode="&#x2011;" horiz-adv-x="608" d="M82 586l22 125h478l-23 -125h-477z" />
<glyph unicode="&#x2012;" horiz-adv-x="608" d="M82 586l22 125h478l-23 -125h-477z" />
<glyph unicode="&#x2013;" horiz-adv-x="911" d="M23 608l14 99h911l-16 -99h-909z" />
<glyph unicode="&#x2014;" horiz-adv-x="1796" d="M23 608l14 99h1796l-16 -99h-1794z" />
<glyph unicode="&#x2018;" horiz-adv-x="512" d="M229 1184q0 34 10 73t33 82t56.5 80.5t86 69.5t115.5 49l29 -49q-79 -29 -146 -88.5t-73 -120.5q0 -10 10 -10q3 0 27 12t43 12q45 0 67.5 -28.5t22.5 -71.5q0 -59 -42 -103t-103 -44q-64 0 -100 38.5t-36 98.5z" />
<glyph unicode="&#x2019;" horiz-adv-x="512" d="M188 1096q79 29 146.5 88.5t73.5 120.5q0 10 -11 10q-3 0 -26.5 -12.5t-42.5 -12.5q-43 0 -65.5 29t-22.5 72q0 60 41.5 103.5t101.5 43.5q64 0 99.5 -38t35.5 -99q0 -35 -9.5 -73.5t-32.5 -81.5t-56.5 -80.5t-86 -69.5t-116.5 -49z" />
<glyph unicode="&#x201a;" horiz-adv-x="512" d="M66 -188q78 30 145.5 90t73.5 121q0 10 -11 10q-3 0 -27.5 -12.5t-43.5 -12.5q-43 0 -65.5 27.5t-22.5 70.5q0 60 41.5 105t101.5 45q65 0 101 -39t36 -100q0 -44 -16.5 -93.5t-50.5 -101t-95.5 -95t-140.5 -65.5z" />
<glyph unicode="&#x201c;" horiz-adv-x="897" d="M229 1184q0 34 10 73t33 82t56.5 80.5t86 69.5t115.5 49l29 -49q-79 -29 -146 -88.5t-73 -120.5q0 -10 10 -10q3 0 27 12t43 12q45 0 67.5 -28.5t22.5 -71.5q0 -59 -42 -103t-103 -44q-64 0 -100 38.5t-36 98.5zM614 1184q0 34 10 73t33 82t56.5 80.5t86 69.5t115.5 49 l29 -49q-78 -30 -145.5 -89t-73.5 -120q0 -10 10 -10q3 0 27.5 12t44.5 12q43 0 65.5 -28.5t22.5 -71.5q0 -59 -42 -103t-101 -44q-66 0 -102 38t-36 99z" />
<glyph unicode="&#x201d;" horiz-adv-x="897" d="M188 1096q79 29 146.5 88.5t73.5 120.5q0 10 -11 10q-3 0 -26.5 -12.5t-42.5 -12.5q-43 0 -65.5 29t-22.5 72q0 60 41.5 103.5t101.5 43.5q64 0 99.5 -38t35.5 -99q0 -35 -9.5 -73.5t-32.5 -81.5t-56.5 -80.5t-86 -69.5t-116.5 -49zM575 1096q78 30 145.5 89t74.5 120 q0 10 -11 10q-5 0 -28.5 -12.5t-42.5 -12.5q-43 0 -65.5 29t-22.5 72q0 60 41.5 103.5t101.5 43.5q65 0 101 -38t36 -99q0 -44 -16.5 -93.5t-50.5 -101.5t-95.5 -95t-140.5 -64z" />
<glyph unicode="&#x201e;" horiz-adv-x="897" d="M66 -188q78 30 145.5 90t73.5 121q0 10 -11 10q-3 0 -27.5 -12.5t-43.5 -12.5q-43 0 -65.5 27.5t-22.5 70.5q0 60 41.5 105t101.5 45q65 0 101 -39t36 -100q0 -44 -16.5 -93.5t-50.5 -101t-95.5 -95t-140.5 -65.5zM451 -188q78 30 145.5 90t73.5 121q0 10 -11 10 q-3 0 -27 -12.5t-44 -12.5q-43 0 -65.5 27.5t-22.5 70.5q0 60 42 105t101 45q65 0 101 -39t36 -100q0 -44 -16.5 -93.5t-50 -101t-94.5 -95t-140 -65.5z" />
<glyph unicode="&#x2022;" horiz-adv-x="882" d="M199 655q0 132 104.5 232t235.5 100q105 0 174 -69.5t69 -172.5q0 -133 -100.5 -233t-232.5 -100q-108 0 -179 70t-71 173z" />
<glyph unicode="&#x2026;" horiz-adv-x="1536" d="M115 90q0 64 45.5 111t105.5 47q50 0 81.5 -32t31.5 -81q0 -62 -46 -106.5t-108 -44.5q-51 0 -80.5 29.5t-29.5 76.5zM627 90q0 64 45.5 111t105.5 47q50 0 81.5 -32t31.5 -81q0 -62 -46 -106.5t-108 -44.5q-51 0 -80.5 29.5t-29.5 76.5zM1139 90q0 64 45.5 111t105.5 47 q50 0 81.5 -32t31.5 -81q0 -62 -46 -106.5t-108 -44.5q-51 0 -80.5 29.5t-29.5 76.5z" />
<glyph unicode="&#x202f;" horiz-adv-x="406" />
<glyph unicode="&#x2039;" horiz-adv-x="542" d="M104 567l17 95l383 286l43 -41l-238 -286l148 -312l-56 -33z" />
<glyph unicode="&#x203a;" horiz-adv-x="542" d="M33 315l241 320l-153 280l55 41l297 -294l-14 -95l-381 -284z" />
<glyph unicode="&#x205f;" horiz-adv-x="508" />
<glyph unicode="&#x20ac;" horiz-adv-x="1300" d="M31 565q8 55 14 86h182q4 66 31 209h-180q8 55 14 86h187q37 120 95.5 218t142.5 175.5t201 120.5t257 43q96 0 167 -20.5t107.5 -54t53 -67.5t16.5 -69q0 -70 -45 -117t-109 -47q-49 0 -71.5 27.5t-22.5 65.5q0 33 16.5 60.5t33 46t16.5 30.5q0 28 -52.5 44.5 t-121.5 16.5q-186 0 -294 -124t-159 -349h481l-14 -86h-485q-27 -162 -31 -209h483l-14 -86h-475q-2 -27 -2 -73q0 -431 311 -431q77 0 138 20.5t63 43.5q0 8 -17.5 38t-17.5 58q0 16 15 51q37 85 120 86q51 0 78.5 -29.5t27.5 -78.5q0 -22 -10.5 -52.5t-40.5 -69.5 t-75.5 -71t-124 -54.5t-177.5 -22.5q-253 0 -386.5 153t-133.5 432h-192z" />
<glyph unicode="&#x2122;" horiz-adv-x="1435" d="M199 1329l28 158h525l-23 -158h-33q-2 57 -19 83t-71 26h-63l-76 -486q-2 -6 -2 -14q0 -21 14 -29.5t51 -11.5l-4 -31h-270l4 31q41 5 58.5 15t21.5 40l78 486h-64q-53 0 -78 -26t-45 -83h-32zM702 866l5 31q39 5 57 15.5t22 39.5l70 441q2 6 2 16q0 22 -14 33t-49 14 l4 31h237l76 -426l207 426h237l-4 -31q-42 -5 -60 -15t-22 -38l-71 -451q-2 -6 -2 -14q0 -21 14 -29.5t51 -11.5l-4 -31h-270l4 31q41 5 59.5 15t22.5 38l76 475q-46 -93 -136.5 -279.5t-136.5 -279.5h-63l-92 553h-4l-74 -463q-2 -6 -2 -16q0 -20 16 -30t55 -13l-4 -31 h-207z" />
<glyph unicode="&#x25fc;" d="M0 0v1126h1126v-1126h-1126z" />
<glyph unicode="&#xfb01;" horiz-adv-x="1253" d="M-240 -270q2 58 35 96.5t96 38.5q45 0 73.5 -25t27.5 -69q-1 -40 -19.5 -64t-37 -34.5t-19.5 -16.5q0 -14 18 -25.5t50 -11.5q100 0 129 188l178 1197h-162l10 71l164 19l21 139q14 95 44 170t78 133t121 89.5t166 31.5q110 0 166.5 -53t54.5 -121q-3 -63 -32.5 -97 t-79.5 -34q-47 0 -73 26.5t-24 63.5q1 27 14.5 50t26.5 38t13 24q0 18 -23.5 30.5t-60.5 12.5q-51 0 -92.5 -40t-55.5 -132l-53 -338h201l-13 -86h-200l-166 -1015q-33 -200 -120 -315t-234 -115q-114 0 -169.5 50t-52.5 124zM760 928q112 207 278 207q109 0 109 -111 q0 -32 -19 -147l-108 -656q-8 -40 -8 -74q0 -9 5.5 -15.5t14.5 -6.5q42 0 105 92l45 -27q-111 -206 -273 -206q-61 0 -89.5 29t-28.5 73q0 34 12 100l112 664q15 88 15 117q0 26 -21 26q-44 0 -106 -92zM973 1376q0 69 37 114.5t100 45.5q50 0 78.5 -29.5t28.5 -76.5 q2 -66 -37.5 -111t-102.5 -45q-53 0 -78.5 28t-25.5 74z" />
<glyph unicode="&#xfb02;" horiz-adv-x="1243" d="M-240 -270q2 58 35 96.5t96 38.5q45 0 73.5 -25t27.5 -69q-1 -40 -19.5 -64t-37 -34.5t-19.5 -16.5q0 -14 18 -25.5t50 -11.5q100 0 129 188l178 1197h-162l10 71l164 19l21 139q14 95 44 170t78 133t121 89.5t166 31.5q117 0 178 -68l301 41q2 -2 2 -6q-12 -82 -24 -168 q-29 -190 -93.5 -604t-97.5 -633q-8 -49 -8 -67q0 -27 23 -27q17 0 37 15.5t32 30.5t35 46l43 -29q-110 -204 -272 -204q-67 0 -89 32.5t-22 94.5l6 49l185 1237q10 50 10 80q0 19 -27 34q2 -10 2 -28q-3 -63 -32.5 -97t-79.5 -34q-47 0 -73 26.5t-24 63.5q1 27 14.5 50 t26.5 38t13 24q0 18 -23.5 30.5t-60.5 12.5q-51 0 -92.5 -40t-55.5 -132l-53 -338h201l-13 -86h-200l-166 -1015q-33 -200 -120 -315t-234 -115q-114 0 -169.5 50t-52.5 124z" />
</font>
</defs>
</svg>
