<svg id="Grid" xmlns="http://www.w3.org/2000/svg" viewBox="0 0 121.3 121.3"><defs><style>.cls-1{fill:#202933;}</style></defs><title>55</title><path class="cls-1" d="M1288.7,3978.5a60.7,60.7,0,1,0,60.7,60.7A60.7,60.7,0,0,0,1288.7,3978.5Zm16.8,68.5a23.8,23.8,0,0,1-8.7,2.9H1296c1.9,2.8,2,6,2,9.3s0,7.9,0,11.8c0,1.3,0,1.3-1.3,1.3h-15.4c-1.1,0-1.2-.1-1.2-1.3s0-5,0-7.7l-2.7.3c-4.3.4-8.1-.7-11.1-4.1a13.1,13.1,0,0,1-1.1-1.6c-1.5-2.4-2.9-4.7-4.5-7a13.9,13.9,0,0,0-1.8-1.9l-1-1a4,4,0,0,1,3.1-.4,7.8,7.8,0,0,1,5.4,3.9,17.3,17.3,0,0,0,2.1,2.8,9.7,9.7,0,0,0,9.6,2.7c2.4-.5,1.9-0.3,2.3-2.4a10.7,10.7,0,0,1,1.4-4.1l0.4-.7-3-.6a19.6,19.6,0,0,1-10-5.2,15.7,15.7,0,0,1-4.6-10.8,41.9,41.9,0,0,1,.7-10.6,12,12,0,0,1,3.1-5.9,1.4,1.4,0,0,0,.3-1.2,15,15,0,0,1,.1-9.9c0.2-.6.4-0.7,0.9-0.6a11.6,11.6,0,0,1,5.4,3.2l3,3.3c2.6-1.9,5.6-1.9,8.6-2.1a36.5,36.5,0,0,1,9.9.6,31,31,0,0,1,3.6,1.2l4-3.8a9.5,9.5,0,0,1,4.3-2.3,0.8,0.8,0,0,1,1.1.6,13.6,13.6,0,0,1,.1,9.7,1.1,1.1,0,0,0,.1,1.3,11.6,11.6,0,0,1,3.5,7.7,74.1,74.1,0,0,1,.4,9.4C1313.3,4039.7,1310.4,4044.1,1305.4,4047Z" transform="translate(-1228 -3978.5)"/></svg>