<svg id="Grid" xmlns="http://www.w3.org/2000/svg" viewBox="0 0 20 20"><defs><style>.cls-1{fill:#202933;}</style></defs><title>linkedin</title><path class="cls-1" d="M209.5,4063.3a10,10,0,1,0,10,10A10,10,0,0,0,209.5,4063.3Zm-2.4,14.3h-1.6v-6h1.6v6Zm-0.8-6.7a0.9,0.9,0,0,1-.9-1,0.9,0.9,0,1,1,1.9,0A0.9,0.9,0,0,1,206.3,4070.9Zm7.4,6.7H212V4077c0-.8,0-1.6,0-2.4a2.4,2.4,0,0,0-.1-0.7,0.9,0.9,0,0,0-.9-0.7,1,1,0,0,0-1,.6,2.1,2.1,0,0,0-.2.8c0,1,0,1.9,0,2.9h-1.6v-6h1.6v0.9h0.1a2.1,2.1,0,0,1,2.2-.7,1.9,1.9,0,0,1,1.4,2C213.6,4074.9,213.6,4076.2,213.6,4077.6Z" transform="translate(-199.5 -4063.3)"/></svg>