<svg id="Grid" xmlns="http://www.w3.org/2000/svg" viewBox="0 0 20 20"><defs><style>.cls-1{fill:#202933;}</style></defs><title>twitter</title><path class="cls-1" d="M237.1,4063.3a10,10,0,1,0,10,10A10,10,0,0,0,237.1,4063.3Zm4.2,7.8a0.6,0.6,0,0,0-.2.5,5.8,5.8,0,0,1-8.7,5h-0.2a4.2,4.2,0,0,0,3-.8,2.2,2.2,0,0,1-1.2-.4,2,2,0,0,1-.7-1h0.8a2.2,2.2,0,0,1-1.5-2l0.9,0.2c-0.9-1.1-1.1-2-.6-2.7a5.8,5.8,0,0,0,4.1,2.1,6,6,0,0,1,.1-0.9,2,2,0,0,1,3.3-1.1h0.4l1-.4a2.5,2.5,0,0,1-.8,1.1l1-.3h0Z" transform="translate(-227.1 -4063.3)"/></svg>